<?xml version="1.0" encoding="iso-8859-1"?>
<!-- Generator: Adobe Illustrator 19.0.0, SVG Export Plug-In . SVG Version: 6.00 Build 0)  -->
<svg version="1.1" id="Capa_1" xmlns="http://www.w3.org/2000/svg" xmlns:xlink="http://www.w3.org/1999/xlink" x="0px" y="0px"
	 viewBox="0 0 512 512" style="enable-background:new 0 0 512 512;" xml:space="preserve">
<path style="fill:#DF4A32;" d="M512,256c0,8.704-0.439,17.304-1.275,25.778c-0.209,2.1-0.449,4.19-0.711,6.269
	C494.247,414.312,386.529,512,256,512c-114.27,0-211.059-74.877-243.973-178.239c0,0-0.01-0.01,0-0.021
	c-2.236-7.011-4.18-14.158-5.81-21.42C2.142,294.201,0,275.341,0,256c0-26.76,4.106-52.558,11.724-76.8c0-0.01,0-0.01,0-0.01
	C44.356,75.337,141.375,0,256,0c133.183,0,242.615,101.7,254.861,231.685c0.199,2.079,0.366,4.169,0.512,6.269
	c0.334,4.817,0.533,9.665,0.596,14.545C511.99,253.659,512,254.83,512,256z"/>
<path style="fill:#CE3929;" d="M512,256c0,8.704-0.439,17.304-1.275,25.778C497.789,411.063,388.681,512,256,512
	c-114.27,0-211.059-74.877-243.973-178.239c0,0-0.01-0.01,0-0.021c-2.236-7.011-4.18-14.158-5.81-21.42l29.989-89.663l83.069-89.339
	l145.502-4.932l131.897,131.897l75.41-69.548l39.288,47.219l-28.911,16.538l29.507-1.993C511.99,253.659,512,254.83,512,256z"/>
<g>
	<path style="fill:#F2F2F2;" d="M324.817,256.167c0,11.88-1.243,23.479-3.626,34.659c-8.077,38.055-29.194,71.283-58.441,94.793
		c-28.453,22.862-64.585,36.551-103.926,36.551c-63.216,0-118.178-35.338-146.223-87.333c-0.188-0.355-0.387-0.711-0.575-1.076
		c0,0-0.01-0.01,0-0.021C4.211,309.227,0,283.094,0,256c0-26.76,4.106-52.558,11.724-76.8c0-0.01,0-0.01,0-0.01
		c27.742-52.924,83.205-89.025,147.101-89.025c40.281,0,77.208,14.346,105.953,38.222l-53.77,44.022
		c-15.13-9.456-33.019-14.921-52.182-14.921c-43.269,0-80.039,27.857-93.351,66.612c-3.448,10.052-5.329,20.835-5.329,32.068
		c0,12.184,2.205,23.865,6.259,34.628c14.012,37.418,50.103,64.052,92.421,64.052c18.181,0,35.224-4.921,49.842-13.5
		c19.414-11.379,34.576-29.194,42.569-50.521h-88.764v-65.672h159.451C323.824,235.196,324.817,245.572,324.817,256.167z"/>
	<path style="fill:#F2F2F2;" d="M512,256c0,8.704-0.439,17.304-1.275,25.778c-0.209,2.1-0.449,4.19-0.711,6.269h-37.93v47.219
		h-50.082v-47.219h-47.219v-50.092h47.219v-47.219h50.082v47.219h39.288c0.334,4.817,0.533,9.665,0.596,14.545
		C511.99,253.659,512,254.83,512,256z"/>
</g>
<g>
</g>
<g>
</g>
<g>
</g>
<g>
</g>
<g>
</g>
<g>
</g>
<g>
</g>
<g>
</g>
<g>
</g>
<g>
</g>
<g>
</g>
<g>
</g>
<g>
</g>
<g>
</g>
<g>
</g>
</svg>
