<?xml version="1.0" encoding="iso-8859-1"?>
<!-- Generator: Adobe Illustrator 19.0.0, SVG Export Plug-In . SVG Version: 6.00 Build 0)  -->
<svg version="1.1" id="Capa_1" xmlns="http://www.w3.org/2000/svg" xmlns:xlink="http://www.w3.org/1999/xlink" x="0px" y="0px"
	 viewBox="0 0 512 512" style="enable-background:new 0 0 512 512;" xml:space="preserve">
<circle style="fill:#5C5560;" cx="256" cy="256" r="256"/>
<circle style="fill:#EEEEEE;" cx="256" cy="256" r="256"/>
<path style="fill:#FBBB00;" d="M476.984,213.983h-94.019H260.943v88.977H381.21c-10.825,28.892-31.377,53.028-57.674,68.45
	C303.727,383.039,280.642,389.7,256,389.7c-57.328,0-106.229-36.086-125.223-86.778c-5.487-14.595-8.477-30.413-8.477-46.923
	c0-15.213,2.545-29.832,7.217-43.45c18.042-52.509,67.858-90.25,126.483-90.25c25.964,0,50.198,7.402,70.7,20.218l72.863-59.652
	C360.61,50.525,310.573,31.086,256,31.086c-86.925,0-162.333,49.308-199.766,121.479C40.156,183.533,31.086,218.703,31.086,256
	c0,38.569,9.701,74.864,26.805,106.587C95.879,433.039,170.348,480.914,256,480.914c53.299,0,102.262-18.536,140.806-49.518
	c39.632-31.859,68.24-76.878,79.19-128.436c3.226-15.151,4.918-30.858,4.918-46.96C480.914,241.64,479.567,227.589,476.984,213.983z
	"/>
<path style="fill:#28B446;" d="M396.794,431.384l0.013,0.013C358.262,462.378,309.3,480.914,256,480.914
	c-85.652,0-160.121-47.874-198.109-118.327l72.887-59.664c18.994,50.692,67.894,86.778,125.223,86.778
	c24.642,0,47.727-6.661,67.536-18.29L396.794,431.384z"/>
<path style="fill:#518EF8;" d="M476.984,213.983c2.583,13.606,3.93,27.657,3.93,42.017c0,16.102-1.693,31.809-4.918,46.96
	c-10.949,51.557-39.558,96.577-79.19,128.436l-0.013-0.013l-73.258-59.973c26.298-15.423,46.849-39.558,57.674-68.45H260.942
	v-88.977h122.023L476.984,213.983L476.984,213.983z"/>
<path style="fill:#FC3F1D;" d="M399.562,82.866L326.7,142.518C306.198,129.702,281.965,122.3,256,122.3
	c-58.626,0-108.441,37.741-126.483,90.25l-73.27-59.985h-0.013C93.667,80.394,169.074,31.086,256,31.086
	C310.573,31.086,360.61,50.525,399.562,82.866z"/>
<g>
</g>
<g>
</g>
<g>
</g>
<g>
</g>
<g>
</g>
<g>
</g>
<g>
</g>
<g>
</g>
<g>
</g>
<g>
</g>
<g>
</g>
<g>
</g>
<g>
</g>
<g>
</g>
<g>
</g>
</svg>
