<svg enable-background="new 0 0 140 140" height="512" viewBox="0 0 140 140" width="512" xmlns="http://www.w3.org/2000/svg"><circle cx="70" cy="70" fill="#e05b49" r="64"/><path d="m82.7299957 34.2182884-5.2799683 10.6700439h-34.4400024l24.6199951 34.7099648v24.0600586l-9.1699829 4.7700195 24.2966309 24.2966309c28.4963989-5.7644043 50.1114502-30.4611816 51.1844482-60.3955078l-40.7611084-40.7612324z" opacity=".1"/><path d="m72.3652191 79.6000137 24.6295929-34.7089767h-53.9896278l24.6296501 34.7089767v24.0619278l-9.17416 4.7681122h23.0787086l-9.1741638-4.7680054z" fill="#e6e9ef"/><path d="m54.245266 56.2247658 15.7549476 22.2026634 15.7549439-22.2026634z" fill="#44c4a1"/><path d="m52.3370514 45.8731422 17.6629486 30.248005-12.583992-30.248005z" fill="#fff" opacity=".5"/><path d="m71.0847092 63.7064934-1.9936829-.9729195 2.7564087-6.5247497 10.8857193-21.9904404 10.4472656-2.6484375.7373047 2.9082031-9.1083984 2.3085938-9.614357 19.4211616z" fill="#e6e9ef"/><path d="m77.4499512 44.891037-8.7939453 17.7648468 2.6884765 1.3300781 9.4528046-19.0949249z" fill="#d5d6db"/><path d="m71.8395691 56.2247658-3.1835632 6.431118 2.6884765 1.3300781 3.8421784-7.7611961z" fill="#3ea69b"/></svg>