<svg enable-background="new 0 0 140 140" height="512" viewBox="0 0 140 140" width="512" xmlns="http://www.w3.org/2000/svg"><circle cx="70" cy="70" fill="#45b39c" r="64"/><path d="m103.5578537 36.0083275h-3.2399902v.7999268l-.7999878-.7999268h-3.2399902v.7999268l-.7999878-.7999268h-3.2300415v6.5499268h-.2399902l-1.4699707-1.4699707h-2.8900146v1.4699707h-33.4999963l-6.5499878-6.5499268h-3.2300415v.8099365l-.8099976-.8099365h-3.2299805v.8099365l-.8099976-.8099365h-3.2299804v6.5499268h-1.6600342v3.210083l1.6600342 1.6600342v4.8898926l13.289978 13.2900429v2.0600586l-3.6599731 1.9899902v4.9699707h-3.710022v35.6699219l23.5496178 23.5462646c1.4038086.0919189 2.8154297.1553955 4.2424927.1553955 35.3462524 0 64.0000076-28.6536865 64.0000076-64 0-1.229248-.0427856-2.4483643-.1112061-3.6606445z" opacity=".1"/><path d="m34.622894 42.556511h70.754211v3.210939h-70.754211z" fill="#2f4859"/><path d="m92.243187 36.003719h3.23152v16.316519h-3.23152z" fill="#4d5c7d"/><path d="m92.754746 36.003719h2.208397v16.316519h-2.208397z" fill="#64798a"/><path d="m96.282585 36.003719h3.23152v16.316519h-3.23152z" fill="#4d5c7d"/><path d="m96.794151 36.003719h2.208397v16.316519h-2.208397z" fill="#64798a"/><path d="m100.321991 36.003719h3.23152v16.316519h-3.23152z" fill="#4d5c7d"/><path d="m100.833557 36.003719h2.208397v16.316519h-2.208397z" fill="#64798a"/><path d="m36.287659 36.003719h3.23152v16.316519h-3.23152z" fill="#4d5c7d"/><path d="m36.799221 36.003719h2.208397v16.316519h-2.208397z" fill="#64798a"/><path d="m40.327065 36.003719h3.23152v16.316519h-3.23152z" fill="#4d5c7d"/><path d="m40.838623 36.003719h2.208397v16.316519h-2.208397z" fill="#64798a"/><path d="m44.366467 36.003719h3.23152v16.316519h-3.23152z" fill="#4d5c7d"/><path d="m44.878029 36.003719h2.208397v16.316519h-2.208397z" fill="#64798a"/><path d="m87.643425 41.09119h2.890213v40.338265h-2.890213z" fill="#4d5c7d"/><path d="m49.574291 41.09119h2.890213v40.338265h-2.890213z" fill="#4d5c7d"/><g fill="#f7be56"><path d="m42.209576 74.626114h55.68877v9.086603h-55.68877z"/><path d="m26.81 90.025688h35.676003v4.876849h-35.676003z" transform="matrix(0 1 -1 0 137.112 47.816)"/><path d="m77.636704 90.025688h35.676003v4.876849h-35.676003z" transform="matrix(0 1 -1 0 187.939 -3.011)"/></g><path d="m94.1878586 69.6583557v4.9699707h-48.2699547v-4.9699707l10.4199829-5.6700477 4.3099976-5.670044h18.8099937l4.3099976 5.670044z" fill="#e56353"/><path d="m94.1906204 69.654129h-48.2733154l10.418438-5.6669426h27.4364356z" fill="#ce412d"/></svg>