<svg enable-background="new 0 0 140 140" height="512" viewBox="0 0 140 140" width="512" xmlns="http://www.w3.org/2000/svg"><circle cx="70" cy="70" fill="#334d5c" r="64"/><path d="m104.7557144 48.9383812-3.8899536-3.880127c-.4100342-.4699707-.7900391-.869873-1.1300049-1.1298828l-.0100098-.0100098c-.2000122-.1500244-.3800049-.2600098-.5400391-.3000488-1.2299805-.3100586-1.4599609.5700684-2.7999878 1.8800049-1.3299561 1.3099365-2.0899658 2.1300049-2.2600098 2.7700195-.0599976.2399902.1400146.5100098.4100342.75l.7799683.789917c-1.1199951.3601074-.9099731 1.7900391-.3699951 2.2600098l9.2900391 9.2900391c.4400024 3.3501015-.3600464 10.1400185-.3600464 10.1400185s-.5899658.3099365-3.4699707-2.6600342c-.5100098-.5300293-1.1099854-.9199219-1.7399902-1.2399902l-9.7900391-9.7800331c-2.4400024-2.5599365-5.8299561-4.1499023-9.5899658-4.1499023-3.6000366 0-6.8699951 1.4499512-9.2900391 3.8199463-2.4099731-2.3699951-5.6799927-3.8199463-9.2899818-3.8199463-2.539978 0-4.8999634.7299805-6.9299927 1.9899902l-10.3099975-10.3100587c-1.2000122-1.2299805-1.4700317-2.0300293-2.6500244-1.7299805-1.2299805.3000488-3.8699951 4.5800781-5.0499878 5.0300293-1.1799927.4399414-3.5999756 3.4199219-4.2700195 5.4199219-.6799927 1.9899902-2.4599609 7.6500244-3.7799683 10.3801308-.2000122.4299316-.4299927.9799805-.6500244 1.619873-1.1900024 3.4400635-2.4499512 9.4200439-2 12.2000732.3400269 2.0499268.2600098 3.4599609 1.1100464 4.4499512h-.0400391l50.8836098 50.8907471c29.5334473-3.2231445 53.0147629-26.5349121 56.5129929-55.9849854l-27.4066086-27.3757362c-.4799805-.5499267-.959961-1.0100097-1.3699952-1.3099365z" opacity=".1"/><path d="m53.9576035 62.4058456v16.8581467c6.3294182-.9007797 9.2200241 2.6285172 9.2200241 2.6285172v-25.1882401c-5.819664.909298-9.2200241 5.7015762-9.2200241 5.7015762z" fill="#f7be56"/><path d="m56.291153 78.3073349c-2.6614609 1.0658646-8.8196068 3.6898041-10.8632927 4.5394211-2.0437012.8495941-12.2918358 2.1358948-16.3284283 1.2555161-4.0357094-.8796768-3.4983845-2.5334549-4.0321903-5.830986-.4504833-2.7789536.8047867-8.7580719 2.0001774-12.2011108.2227039-.6408539.4432907-1.1939011.6505547-1.6218567 1.3204517-2.7308044 3.0981045-8.3918915 3.7735615-10.3841248.675457-1.9922295 3.0916138-4.9763985 4.2718506-5.4203568 1.1810989-.4432793 3.8189507-4.7232971 5.0505867-5.0302925 1.2331772-.3071709 1.463047.5771217 2.7976837 1.8847771 1.3337593 1.3069649 2.0924988 2.1285934 2.257679 2.7703934.1651726.6418037-1.4834785 1.4672546-1.4834785 1.4672546 1.8570938.2474442 1.0184212 2.8547134.1207657 2.4505959-.8983612-.4032707-1.9387512.1453018-3.2672043.7701988-1.3284302.6249161-3.7691307.8289337-3.7691307.8289337-.5075531.328289-.8335152.7507591-1.0462646 1.2512779-.62994 1.4857254-.2543602 3.6590729-.6341133 6.0884476-.5078659 3.2481956.3364487 10.3732033.3364487 10.3732033s.5897217.3124008 3.46735-2.663147c2.8774643-2.977066 8.420517-2.1032104 8.420517-2.1032104 3.3800163-5.2607384 8.2988319-4.6342278 9.7782745-4.3013954.280304.0629463 5.385128-3.4301186 5.385128-3.4301186 5.8566513 2.4713593-1.0411835 14.7152939-2.1634369 16.717453-.0490761.0871277-.0972137.1624146-.1423798.2232742-1.0789301 1.450592-1.9191973 1.2999877-4.5806581 2.3658523z" fill="#fcd462"/><path d="m43.8038368 50.0399208c-.1918259-.0283699-.3761406-.0938568-.5451584-.1865959-.1724663-.0882263-.3193893-.2172699-.4644775-.3439598-.0688858-.0679245-.1357422-.1382523-.2024994-.2083092l-.1790771-.2195587c-.0914078-.2722549-.1661987-.5528374-.239109-.8321075-.0155792-.0616608-.0284843-.1239281-.0429573-.1858444.1408882-.0046921.2816353-.0107155.421875-.0210953.0891876-.007225.1784935-.0135155.2677383-.0202522.1048126.0576324.1979599.1307106.2904854.2043457.1100273.0911522.2189522.1839409.3243065.281723.2136612.1923218.4212379.392067.6449852.5811234-.1593056-.2465324-.3561707-.4640198-.5712967-.6624146-.1085663-.0981178-.2237968-.1901588-.3479652-.2699814-.0870934-.0565758-.1818047-.1074905-.2818298-.1397552.0441475-.0035324.0883102-.0068703.13237-.0112.1451111.0905037.3061485.1520119.4721031.1877899.1727371.0299034.3477097.0379143.5203094.0241699.1727638-.0126572.3416672-.0500793.5067825-.0951195.0828209-.0218163.1640854-.0491486.2434502-.0809975.0796547-.0307007.1585045-.0637131.2336426-.1040611-.1621857.0516319-.3274651.0882225-.4920769.1218834-.1650772.0320015-.3318481.0508652-.4978676.0590782-.1661644.0044136-.3316994-.0024529-.4932938-.0323372-.1600952-.0325623-.3126526-.0898857-.4539795-.1697769.0812263-.1132393.1457558-.2392464.1948776-.3703194.055191-.1465645.0914841-.2988815.1205215-.4518471.0511246-.3068657.067585-.6198158.0251846-.9280281l-.0629539.4572678c-.0220871.1512871-.0425835.3022423-.0702858.4516716-.050251.2838936-.1150169.5614586-.2189064.8347931l-.0068741-.0038986-.0152969.0019989c-.157505.0205956-.3142052.0482254-.4713402.0719948-.1391449.022049-.2778091.0484428-.4162903.0762138-.0512619-.2198296-.0977783-.4407425-.1352882-.6632729-.0499039-.2874146-.0867386-.5769691-.1085968-.8680801-.0210838-.2913094-.0221062-.5834312-.006321-.876667-.0426102.2901802-.0600929.5850639-.0537834.879509.0110207.2940559.0326576.5884552.0759964.8798943.0914154.582077.2217331 1.157402.4181976 1.7154655l.0029335.0083389.004528.0054016.1922264.2292709c.069809.0714684.1397285.1430168.2118568.2121124.1524391.1293106.3121643.2533226.4946175.3389282.1796036.0878792.3736267.152565.5738029.1660995.198513.0138245.4030991-.0082054.582222-.0928001-.1858557.0659868-.3861006.0758821-.5774878.0492059z" fill="#dc8744"/><path d="m60.8718109 75.9414825c.045166-.0608597.0933037-.1361465.1423798-.2232742-.0178642-.0056915-.0346832-.0091629-.0513382-.011116-.4503212-.0529556-.813427.4716492-1.1728134.6385193-.4610596.2125702-.8835716.1633453-1.3857193.1743774-2.4977303.0528412-4.8973389.8609848-7.2303314 1.6838913-1.5346222.5406799-3.0737915 1.0959625-4.4930496 1.8911209-.6803474.3808136-1.3314819.816803-2.0379181 1.1491013-1.9870224.9320068-4.2589798.9768677-6.4547615 1.0048752-2.5525551.0319977-5.1042671.0646591-7.6568451.0966415-.530817.0066147-1.0688286.0117493-1.5819969-.1228943-1.3297005-.3490143-2.2651329-1.6062546-2.6262913-2.932312-.3605042-1.3269272-.2484913-2.7301788-.1332989-4.1001816.1697979-2.0175171.3395729-4.0350494.5093708-6.0525589.0856209-1.0256577.1727352-2.0585327.3682213-3.0674973-1.1953907 3.4430389-2.4506607 9.4221573-2.0001774 12.2011108.5338058 3.2975311-.0035191 4.9513092 4.0321903 5.830986 4.0365925.8803787 14.2847271-.4059219 16.3284283-1.2555161 2.0436859-.849617 8.2018318-3.4735565 10.8632927-4.5394211s3.501728-.9152601 4.5806579-2.3658522z" fill="#f7be56"/><path d="m54.6518021 63.1665688c1.0721169-.4788361 2.0816193-.5624962 3.1406975-.7356949-1.4794426-.3328323-6.3982582-.959343-9.7782745 4.3013954 0 0-5.5430527-.8738556-8.420517 2.1032104-2.8776283 2.9755478-3.46735 2.663147-3.46735 2.663147s-.8443146-7.1250076-.3364487-10.3732033c.3797531-2.4293747.0041733-4.6027222.6341133-6.0884476-.6028328.3356667-.9753418 1.0052261-1.1992493 1.6688843-.8028488 2.3685074-.2536736 4.9512596-.2246475 7.4525642.0107307.8359985-.0395851 1.6714172-.0648689 2.5069962-.0818291 2.7005157.0927429 5.4073944.5190926 8.0750656.8373299-1.0021744 1.6748619-2.0027847 2.5122108-3.0049362.9019394-1.0770493 1.8241386-2.1744843 3.0172768-2.9185944 1.4143524-.8829041 3.1009712-1.2031555 4.7471581-1.468605.2807007-.0457687.5710258-.0895462.8442192-.0140228.2577133.0703049.4748306.2400208.6852226.4058304.8081398.6383057 1.6154366 1.2759399 2.4235725 1.9142456.4027405-1.3712387.8206635-2.772438 1.6565285-3.9323196.8295402-1.1536866 2.0259933-1.9818574 3.311264-2.5555153z" fill="#f7be56"/><path d="m61.7316246 66.8898163c-2.0655518-2.6712646-7.8572998-2.2438965-8.9473267 1.1218262-.3700562 1.1424561-.2806396 2.5465088-1.1889648 3.3320312-.7667847.663208-1.937561.5682373-2.8876343.2144775-.9501343-.3537598-1.824646-.9255371-2.8182983-1.1268311-1.4562378-.2950439-2.9784546.2601318-4.1754761 1.1402588-1.1970215.880249-2.1306763 2.0625-3.0767822 3.208252-.9460449 1.145752-1.9424438 2.2890625-3.2171631 3.0524902-.3390503.2030029-.7276001.4160156-.8381348.7954102-.1021729.3508301.0863647.7363281.3727417.9633789s.6522217.3254395 1.0106201.3968506c3.4180908.6815186 6.8898315-.5931396 10.1421509-1.8463135 2.3872681-.9197998 4.7745361-1.8398438 7.1616821-2.7600098 1.8904419-.7287598 3.7816772-1.4580078 5.6361084-2.2739258 1.0804443-.4753418 2.1947632-1.0178223 2.8890381-1.9724121.8927002-1.227539.8659668-3.0446777-.062561-4.2454833z" fill="#e1e6e9" opacity=".15"/><path d="m29.3480778 66.9247284c-1.0065746 3.5927963-2.0224895 7.2650299-1.818531 10.9905853.0437107.7984085.1508808 1.6169891.5399933 2.3155289s1.11549 1.2572937 1.914978 1.2436981c.9663219-.0164337 1.7184982-.8074112 2.3500805-1.5389481.8106651-.9389725 1.6213303-1.8779373 2.4319954-2.8169098.2841797-.329155.5840607-.6980286.5870819-1.1328735.0036583-.5260925-.4197235-.9394913-.7605095-1.3403091-1.2948685-1.5229645-1.6788826-3.6371765-1.603756-5.6347885.0751228-1.997612.5558968-3.9565125.777813-5.9431801.2219124-1.9866676.1628418-4.087513-.766777-5.857235-.1583443-.3014412-.394352-.623951-.7344933-.6395569-.3327789-.0152664-.6092949.2936325-.6770039.6198082-.0718536.3461342.0910015.6012154.1163883.9225998.029583.3745232-.0827713.6940002-.1863136 1.0627594-.2417126.8608398-.4824333 1.721962-.7236481 2.5829391-.4824333 1.7219621-.9648647 3.4439202-1.447298 5.1658822z" fill="#e1e6e9" opacity=".15"/><path d="m86.0423965 62.4058456v16.8581467c-6.3294144-.9007797-9.2200241 2.6285172-9.2200241 2.6285172v-25.1882401c5.819664.909298 9.2200241 5.7015762 9.2200241 5.7015762z" fill="#f7be56"/><path d="m83.708847 78.3073349c2.6614609 1.0658646 8.8196106 3.6898041 10.8632889 4.5394211 2.0437012.8495941 12.2918396 2.1358948 16.3284302 1.2555161 4.0357132-.8796768 3.4983902-2.5334549 4.032196-5.830986.4504776-2.7789536-.8047867-8.7580719-2.0001831-12.2011108-.222702-.6408539-.4432907-1.1939011-.6505508-1.6218567-1.3204498-2.7308044-3.0981064-8.3918915-3.7735672-10.3841248-.6754532-1.9922295-3.0916138-4.9763985-4.271843-5.4203568-1.1810989-.4432793-3.8189545-4.7232971-5.0505905-5.0302925-1.2331772-.3071709-1.4630508.5771217-2.7976837 1.8847771-1.3337631 1.3069649-2.0924988 2.1285934-2.2576752 2.7703934-.1651764.6418037 1.4834747 1.4672546 1.4834747 1.4672546-1.8570938.2474442-1.0184174 2.8547134-.1207657 2.4505959.8983612-.4032707 1.9387512.1453018 3.2672043.7701988 1.3284302.6249161 3.7691269.8289337 3.7691269.8289337.5075607.328289.833519.7507591 1.0462646 1.2512779.6299438 1.4857254.254364 3.6590729.6341171 6.0884476.5078659 3.2481956-.3364487 10.3732033-.3364487 10.3732033s-.5897217.3124008-3.4673538-2.663147c-2.8774567-2.977066-8.420517-2.1032104-8.420517-2.1032104-3.3800125-5.2607384-8.2988281-4.6342278-9.7782745-4.3013954-.2802963.0629463-5.3851242-3.4301186-5.3851242-3.4301186-5.8566513 2.4713593 1.0411835 14.7152939 2.1634369 16.717453.0490723.0871277.0972137.1624146.1423798.2232742 1.0789338 1.450592 1.9191972 1.2999877 4.580658 2.3658523z" fill="#fcd462"/><path d="m96.196167 50.0399208c.1918259-.0283699.3761368-.0938568.5451508-.1865959.1724701-.0882263.3193893-.2172699.4644775-.3439598.0688858-.0679245.1357422-.1382523.2024994-.2083092l.1790771-.2195587c.0914078-.2722549.1661987-.5528374.2391129-.8321075.0155792-.0616608.0284805-.1239281.0429611-.1858444-.140892-.0046921-.2816391-.0107155-.4218826-.0210953-.08918-.007225-.1784897-.0135155-.2677383-.0202522-.104805.0576324-.1979599.1307106-.2904816.2043457-.1100311.0911522-.218956.1839409-.3243027.281723-.2136688.1923218-.4212418.392067-.644989.5811234.1593018-.2465324.3561707-.4640198.5712967-.6624146.1085663-.0981178.2238007-.1901588.3479614-.2699814.0870972-.0565758.1818085-.1074905.2818375-.1397552-.0441513-.0035324-.0883179-.0068703-.13237-.0112-.1451187.0905037-.3061523.1520119-.4721069.1877899-.1727371.0299034-.3477097.0379143-.5203094.0241699-.1727676-.0126572-.3416672-.0500793-.5067825-.0951195-.0828247-.0218163-.1640854-.0491486-.2434464-.0809975-.0796585-.0307007-.1585083-.0637131-.2336502-.1040611.1621857.0516319.3274689.0882225.4920807.1218834.1650772.0320015.3318481.0508652.4978714.0590782.1661606.0044136.3316956-.0024529.4932861-.0323372.1600952-.0325623.3126526-.0898857.4539795-.1697769-.0812225-.1132393-.145752-.2392464-.1948776-.3703194-.0551834-.1465645-.0914764-.2988815-.1205215-.4518471-.0511169-.3068657-.0675812-.6198158-.025177-.9280281l.0629501.4572678c.0220871.1512871.0425797.3022423.070282.4516716.0502548.2838936.1150208.5614586.2189102.8347931l.0068741-.0038986.0152969.0019989c.1575012.0205956.3142014.0482254.471344.0719948.1391449.022049.2778015.0484428.4162903.0762138.0512619-.2198296.0977707-.4407425.1352844-.6632729.0499039-.2874146.0867386-.5769691.1085968-.8680801.02108-.2913094.02211-.5834312.0063171-.876667.0426178.2901802.0600967.5850639.0537872.879509-.0110245.2940559-.0326538.5884552-.0759964.8798943-.0914154.582077-.2217331 1.157402-.4181976 1.7154655l-.0029373.0083389-.0045242.0054016-.1922226.2292709c-.0698166.0714684-.1397324.1430168-.2118607.2121124-.1524429.1293106-.3121643.2533226-.4946213.3389282-.1795959.0878792-.3736267.152565-.5737991.1660995-.1985168.0138245-.4030991-.0082054-.582222-.0928001.185852.0659868.3861007.0758821.5774917.0492059z" fill="#dc8744"/><path d="m79.1281891 75.9414825c-.045166-.0608597-.0933075-.1361465-.1423798-.2232742.017868-.0056915.0346832-.0091629.0513382-.011116.450325-.0529556.8134232.4716492 1.1728134.6385193.4610596.2125702.8835754.1633453 1.3857193.1743774 2.4977264.0528412 4.8973389.8609848 7.2303314 1.6838913 1.5346222.5406799 3.0737915 1.0959625 4.4930496 1.8911209.6803436.3808136 1.3314819.816803 2.0379181 1.1491013 1.9870224.9320068 4.2589798.9768677 6.4547577 1.0048752 2.5525589.0319977 5.1042709.0646591 7.6568451.0966415.5308228.0066147 1.0688324.0117493 1.5820007-.1228943 1.3296967-.3490143 2.2651291-1.6062546 2.6262894-2.932312.3605042-1.3269272.2484894-2.7301788.1333008-4.1001816-.1697998-2.0175095-.3395767-4.0350494-.5093689-6.0525589-.0856247-1.0256577-.1727371-2.0585327-.3682251-3.0674973 1.1953964 3.4430389 2.4506607 9.4221573 2.0001831 12.2011108-.5338058 3.2975311.0035172 4.9513092-4.032196 5.830986-4.0365906.8803787-14.284729-.4059219-16.3284302-1.2555161-2.0436783-.849617-8.201828-3.4735565-10.8632889-4.5394211s-3.5017242-.9152601-4.5806579-2.3658522z" fill="#f7be56"/><path d="m85.3481979 63.1665688c-1.072113-.4788361-2.0816193-.5624962-3.1407013-.7356949 1.4794464-.3328323 6.398262-.959343 9.7782745 4.3013954 0 0 5.5430603-.8738556 8.420517 2.1032104 2.8776321 2.9755478 3.4673538 2.663147 3.4673538 2.663147s.8443146-7.1250076.3364487-10.3732033c-.3797531-2.4293747-.0041733-4.6027222-.6341171-6.0884476.6028366.3356667.9753494 1.0052261 1.1992493 1.6688843.8028564 2.3685074.2536774 4.9512596.2246475 7.4525642-.0107269.8359985.0395889 1.6714172.0648727 2.5069962.0818253 2.7005157-.0927429 5.4073944-.5190887 8.0750656-.8373337-1.0021744-1.6748657-2.0027847-2.5122147-3.0049362-.9019394-1.0770493-1.8241425-2.1744843-3.0172729-2.9185944-1.41436-.8829041-3.100975-1.2031555-4.7471619-1.468605-.2807007-.0457687-.571022-.0895462-.8442154-.0140228-.2577133.0703049-.4748306.2400208-.6852264.4058304-.808136.6383057-1.6154327 1.2759399-2.4235764 1.9142456-.4027328-1.3712387-.8206558-2.772438-1.6565247-3.9323196-.829544-1.1536866-2.0259933-1.9818574-3.311264-2.5555153z" fill="#f7be56"/><path d="m78.2683792 66.8898163c2.0655518-2.6712646 7.8572998-2.2438965 8.9473267 1.1218262.3700562 1.1424561.2806396 2.5465088 1.1889648 3.3320312.7667847.663208 1.937561.5682373 2.8876343.2144775.9501343-.3537598 1.824646-.9255371 2.8182983-1.1268311 1.4562378-.2950439 2.9784546.2601318 4.1754761 1.1402588 1.1970215.880249 2.1306763 2.0625 3.0767822 3.208252.9460449 1.145752 1.9424438 2.2890625 3.2171631 3.0524902.3390503.2030029.7276001.4160156.8381348.7954102.1021729.3508301-.0863647.7363281-.3727417.9633789s-.6522217.3254395-1.0106201.3968506c-3.4180908.6815186-6.8898315-.5931396-10.1421509-1.8463135-2.3872681-.9197998-4.7745361-1.8398438-7.1616821-2.7600098-1.8904419-.7287598-3.7816772-1.4580078-5.6361084-2.2739258-1.0804443-.4753418-2.1947632-1.0178223-2.8890381-1.9724121-.8927002-1.227539-.8659668-3.0446777.062561-4.2454833z" fill="#e1e6e9" opacity=".15"/><path d="m110.6519241 66.9247284c1.0065689 3.5927963 2.0224838 7.2650299 1.8185272 10.9905853-.0437088.7984085-.1508789 1.6169891-.5399933 2.3155289-.3891068.6985397-1.1154861 1.2572937-1.914978 1.2436981-.9663162-.0164337-1.7184982-.8074112-2.3500748-1.5389481-.8106689-.9389725-1.6213379-1.8779373-2.4319992-2.8169098-.2841797-.329155-.5840607-.6980286-.5870819-1.1328735-.0036545-.5260925.4197235-.9394913.7605057-1.3403091 1.2948685-1.5229645 1.6788864-3.6371765 1.6037598-5.6347885s-.5559006-3.9565125-.7778091-5.9431801c-.2219162-1.9866676-.1628418-4.087513.7667694-5.857235.1583481-.3014412.3943558-.623951.7344971-.6395569.3327789-.0152664.6092911.2936325.677002.6198082.0718536.3461342-.0909958.6012154-.1163864.9225998-.0295868.3745232.0827713.6940002.1863174 1.0627594.2417068.8608398.4824295 1.721962.7236481 2.5829391.4824294 1.7219621.9648589 3.4439202 1.447296 5.1658822z" fill="#e1e6e9" opacity=".15"/><path d="m79.2895355 53.6671219c-3.6013412 0-6.8703003 1.4547234-9.2895355 3.8209114-2.4192352-2.366188-5.6881943-3.8209114-9.2895317-3.8209114-7.4514732 0-13.4920769 6.2155533-13.4920769 13.882843 0 14.0864334 10.0123825 24.967804 22.7816086 28.8958359 12.7692261-3.9280319 22.7816086-14.8094025 22.7816086-28.8958359 0-7.6672897-6.0406037-13.882843-13.4920731-13.882843z" fill="#e56353"/><path d="m79.2895355 53.6671219c-3.6013412 0-6.8703003 1.4547234-9.2895355 3.8209114-2.4192352-2.366188-5.6881943-3.8209114-9.2895317-3.8209114-7.4514732 0-13.4920769 6.2155533-13.4920769 13.882843 0 14.0864334 10.0123825 24.967804 22.7816086 28.8958359 12.7692261-3.9280319 22.7816086-14.8094025 22.7816086-28.8958359 0-7.6672897-6.0406037-13.882843-13.4920731-13.882843z" fill="#e56353"/><path d="m90.1028824 79.6275406c-3.8000488 8.0900879-11.2900391 14.1101074-20.1000366 16.8200684-12.7700195-3.9299316-22.7799683-14.8100586-22.7799683-28.8999023 0-4.0900879 1.7299805-7.7800293 4.4699707-10.3200684-.4299927 1.3499756-.6599731 2.7900391-.6599731 4.2900391 0 14.0799561 10.0099487 24.9699707 22.7799683 28.8898926 6.4400024-1.9799806 12.1799926-5.7299806 16.290039-10.7800294z" fill="#d15241"/><path d="m71.0172729 84.3977814c3.8327332 1.7793655 8.8856049-.6374283 12.2408295-3.2061844 3.355217-2.5687485 5.5051804-6.4679871 6.6464996-10.5365677.7569275-2.6983185 1.1085892-6.774147-.640564-8.9637337-1.4737473-1.8448219-3.2216415-4.016983-7.3404846-3.7088509-2.3546219.1761513-5.4393845 3.2996254-7.7629242 3.7196884s-3.1788864.2682762-5.2565155-.8536682c-1.6872025-.9111137-2.6922989-3.1129913-4.5772476-3.4647789-15.826847-2.9537429-9.5940742 19.4539376 6.6904068 27.0140954z" fill="#ebf0f3" opacity=".15"/></svg>