<svg enable-background="new 0 0 140 140" height="512" viewBox="0 0 140 140" width="512" xmlns="http://www.w3.org/2000/svg"><circle cx="70" cy="70" fill="#45b39c" r="64"/><path d="m105.1435623 38.6383324-.0299683.0100098c-1.7400513-1.9000244-4.2300415-3.1000977-7.0100098-3.1000977h-56.210022c-5.2399902 0-9.4899902 4.25-9.4899902 9.4899902v49.9201698c0 2.289917.8099976 4.3898926 2.1599731 6.0198975.460022.5599365.9800415 1.0599365 1.5500488 1.5l31.4603271 31.4603271c.8063354.0300293 1.6124268.0612793 2.4260864.0612793 35.3461914 0 63.9999924-28.6536865 63.9999924-64 0-.8632812-.031189-1.7192383-.0650635-2.5742188z" opacity=".1"/><path d="m98.1085129 35.5486107h-56.2170372c-5.2415771 0-9.4907227 4.2491455-9.4907227 9.4906006v49.9213905c0 5.2416992 4.2491455 9.4907227 9.4907227 9.4907227h56.2170372c5.2415771 0 9.4907227-4.2490234 9.4907227-9.4907227v-49.9213905c-.0000001-5.2414551-4.2491456-9.4906006-9.4907227-9.4906006z" fill="#474c5b"/><path d="m40.79736 44.658352h58.409973v42.959961h-58.409973z" fill="#27a2db"/><path d="m94.0856857 92.1603088c-1.9158325 0-3.4688721 1.5532227-3.4688721 3.4689941s1.5530396 3.4688721 3.4688721 3.4688721 3.4689331-1.5531006 3.4689331-3.4688721-1.5531006-3.4689941-3.4689331-3.4689941z" fill="#d5d6db"/><path d="m42.378109 94.0558167c-.8747559 0-1.5839233.7091064-1.5839233 1.5839844 0 .8747559.7091675 1.5838623 1.5839233 1.5838623.8748169 0 1.5839844-.7091064 1.5839844-1.5838623 0-.874878-.7091675-1.5839844-1.5839844-1.5839844z" fill="#44c4a1"/><path d="m47.6891518 94.0558167c-.8747559 0-1.5839233.7091064-1.5839233 1.5839844 0 .8747559.7091675 1.5838623 1.5839233 1.5838623.8748169 0 1.5839844-.7091064 1.5839844-1.5838623-.0000001-.874878-.7091675-1.5839844-1.5839844-1.5839844z" fill="#d5d6db"/><path d="m53.0001907 94.0558167c-.8747559 0-1.5839233.7091064-1.5839233 1.5839844 0 .8747559.7091675 1.5838623 1.5839233 1.5838623.8748169 0 1.5839844-.7091064 1.5839844-1.5838623 0-.874878-.7091675-1.5839844-1.5839844-1.5839844z" fill="#d15241"/><g fill="#ebf0f3"><path d="m93.0099106 64.0348206h-5.0539551l-2.2393188 4.4082031-4.0347901-12.2365761-4.6239624 7.661377h-5.8386841l-2.1520996 9.3740272-7.5181236-19.7547646-5.0147095 10.3807374h-9.5441894v1.613285h10.555603l3.8268433-7.9198036 8.0758018 21.2230263 3.0564575-13.3032227h5.4636841l3.2817383-5.4368934 4.1450195 12.5706825 3.6282349-7.0913086h3.9864502z"/><path d="m86.2073288 44.6583519c-4.1199951 6.4099121-9.5299683 12.9499512-16.0100098 19.0999756-9.6400108 9.160038-20.0299644 15.8800087-29.3999596 19.5899696v-38.6899452z" opacity=".25"/></g></svg>