<svg enable-background="new 0 0 140 140" height="512" viewBox="0 0 140 140" width="512" xmlns="http://www.w3.org/2000/svg"><circle cx="70" cy="70" fill="#45b39c" r="64"/><path d="m95.7150192 39.0601273c-1.0900269-1.2299805-2.6700439-2.0100098-4.4299927-2.0100098h-42.5700035c-3.2600098 0-5.9100342 2.6499023-5.9100342 5.9099121v54.0800781c0 1.5999756.6400146 3.0500488 1.6700439 4.1099854l-.0200195.0100098 32.4578819 32.4625168c29.8208008-3.2039795 53.5033035-26.8852463 56.7091751-56.7054367l-37.8770827-37.8770753z" opacity=".1"/><path d="m91.289978 37.0542603h-42.579956c-3.2589111 0-5.9008789 2.6419678-5.9008789 5.9008789v54.0897217c0 3.2590332 2.6419678 5.9008789 5.9008789 5.9008789h42.579956c3.2590332 0 5.9008789-2.6418457 5.9008789-5.9008789v-54.0897217c0-3.2589112-2.6418457-5.9008789-5.9008789-5.9008789z" fill="#fcd462"/><path d="m68.2095108 49.7079468c0-1.3479004-.6658936-2.5336914-1.6795654-3.2692871-.6668701-.4838867-1.4803467-.7775879-2.3673096-.7775879h-6.1324501-6.5361328c-2.2351074 0-4.046875 1.8118896-4.046875 4.046875 0 2.2351074 1.8117676 4.0469971 4.046875 4.0469971h6.5361328 6.132328.0001221c.2794189 0 .552124-.0283203.8155518-.0821533.2634277-.0539551.5175781-.1335449.7596436-.2358398.7261963-.307251 1.3441162-.8203125 1.7805176-1.4663086.2908936-.430542.5010986-.920166.6090088-1.4470215.053833-.2634277.0821533-.5361328.0821533-.8155518v-.0001221z" fill="#f7be56"/><path d="m63.3233795 52.9157295h-12.6685791c-2.2350426 0-4.0469017-1.8118591-4.0469017-4.0468979v-.0000076c0-2.2350426 1.8118591-4.0469017 4.0469017-4.0469017h12.6685791c2.2350388 0 4.0468979 1.8118591 4.0468979 4.0469017v.0000076c0 2.2350388-1.8118591 4.0468979-4.0468979 4.0468979z" fill="#fff"/><path d="m63.3233871 44.8218498h-6.1323433v8.0938644h6.1323433c2.2349777 0 4.0469284-1.8118477 4.0469284-4.0468254.0000001-2.2350845-1.8119506-4.047039-4.0469284-4.047039z" fill="#e56353"/><path d="m93.3921738 49.7079468c0-1.3479004-.6658936-2.5336914-1.6795654-3.2692871-.6668701-.4838867-1.4803467-.7775879-2.3673096-.7775879h-6.1324463-6.5361328c-2.2351074 0-4.046875 1.8118896-4.046875 4.046875 0 2.2351074 1.8117676 4.0469971 4.046875 4.0469971h6.5361328 6.1323242.0001221c.2794189 0 .552124-.0283203.8155518-.0821533.2634277-.0539551.5175781-.1335449.7596436-.2358398.7261963-.307251 1.3441162-.8203125 1.7805176-1.4663086.2908936-.430542.5010986-.920166.6090088-1.4470215.053833-.2634277.0821533-.5361328.0821533-.8155518v-.0001221z" fill="#f7be56"/><path d="m88.5060425 52.9157295h-12.6685791c-2.2350388 0-4.0468979-1.8118591-4.0468979-4.0468979v-.0000076c0-2.2350426 1.8118591-4.0469017 4.0468979-4.0469017h12.6685791c2.2350388 0 4.0468979 1.8118591 4.0468979 4.0469017v.0000076c0 2.2350388-1.8118592 4.0468979-4.0468979 4.0468979z" fill="#fff"/><path d="m88.5060501 44.8218498h-6.1323471v8.0938644h6.1323471c2.2349777 0 4.0469284-1.8118477 4.0469284-4.0468254 0-2.2350845-1.8119507-4.047039-4.0469284-4.047039z" fill="#e56353"/><path d="m68.2095108 70.7755966c0-1.3479004-.6658936-2.5336914-1.6795654-3.2692871-.6668701-.4838867-1.4803467-.7775879-2.3673096-.7775879h-6.1324501-6.5361328c-2.2351074 0-4.046875 1.8118896-4.046875 4.046875 0 2.2351074 1.8117676 4.0469971 4.046875 4.0469971h6.5361328 6.132328.0001221c.2794189 0 .552124-.0283203.8155518-.0821533.2634277-.0539551.5175781-.1335449.7596436-.2358398.7261963-.307251 1.3441162-.8203125 1.7805176-1.4663086.2908936-.430542.5010986-.920166.6090088-1.4470215.053833-.2634277.0821533-.5361328.0821533-.8155518v-.0001221z" fill="#f7be56"/><path d="m63.3233795 73.9833832h-12.6685791c-2.2350426 0-4.0469017-1.8118591-4.0469017-4.0469055v-.0000077c0-2.2350388 1.8118591-4.0468979 4.0469017-4.0468979h12.6685791c2.2350388 0 4.0468979 1.8118591 4.0468979 4.0468979v.0000076c0 2.2350464-1.8118591 4.0469056-4.0468979 4.0469056z" fill="#fff"/><path d="m63.3233871 65.8894958h-6.1323433v8.0938644h6.1323433c2.2349777 0 4.0469284-1.8118439 4.0469284-4.0468216.0000001-2.2350844-1.8119506-4.0470428-4.0469284-4.0470428z" fill="#e56353"/><path d="m93.3921738 70.7755966c0-1.3479004-.6658936-2.5336914-1.6795654-3.2692871-.6668701-.4838867-1.4803467-.7775879-2.3673096-.7775879h-6.1324463-6.5361328c-2.2351074 0-4.046875 1.8118896-4.046875 4.046875 0 2.2351074 1.8117676 4.0469971 4.046875 4.0469971h6.5361328 6.1323242.0001221c.2794189 0 .552124-.0283203.8155518-.0821533.2634277-.0539551.5175781-.1335449.7596436-.2358398.7261963-.307251 1.3441162-.8203125 1.7805176-1.4663086.2908936-.430542.5010986-.920166.6090088-1.4470215.053833-.2634277.0821533-.5361328.0821533-.8155518v-.0001221z" fill="#f7be56"/><path d="m88.5060425 73.9833832h-12.6685791c-2.2350388 0-4.0468979-1.8118591-4.0468979-4.0469055v-.0000077c0-2.2350388 1.8118591-4.0468979 4.0468979-4.0468979h12.6685791c2.2350388 0 4.0468979 1.8118591 4.0468979 4.0468979v.0000076c0 2.2350464-1.8118592 4.0469056-4.0468979 4.0469056z" fill="#fff"/><path d="m88.5060501 65.8894958h-6.1323471v8.0938644h6.1323471c2.2349777 0 4.0469284-1.8118439 4.0469284-4.0468216 0-2.2350844-1.8119507-4.0470428-4.0469284-4.0470428z" fill="#e56353"/><path d="m68.2095108 91.8432465c0-1.3479004-.6658936-2.5336914-1.6795654-3.2692871-.6668701-.4838867-1.4803467-.7775879-2.3673096-.7775879h-6.1324501-6.5361328c-2.2351074 0-4.046875 1.8118896-4.046875 4.046875 0 2.2351074 1.8117676 4.0469971 4.046875 4.0469971h6.5361328 6.132328.0001221c.2794189 0 .552124-.0283203.8155518-.0821533.2634277-.0539551.5175781-.1335449.7596436-.2358398.7261963-.307251 1.3441162-.8203125 1.7805176-1.4663086.2908936-.430542.5010986-.920166.6090088-1.4470215.053833-.2634277.0821533-.5361328.0821533-.8155518v-.0001221z" fill="#f7be56"/><path d="m63.3233795 95.0510254h-12.6685791c-2.2350426 0-4.0469017-1.8118591-4.0469017-4.0468979v-.0000076c0-2.2350388 1.8118591-4.0468979 4.0469017-4.0468979h12.6685791c2.2350388 0 4.0468979 1.8118591 4.0468979 4.0468979v.0000076c0 2.2350388-1.8118591 4.0468979-4.0468979 4.0468979z" fill="#fff"/><path d="m63.3233871 86.9571457h-6.1323433v8.0938644h6.1323433c2.2349777 0 4.0469284-1.8118439 4.0469284-4.0468216.0000001-2.2350845-1.8119506-4.0470428-4.0469284-4.0470428z" fill="#e56353"/><path d="m93.3921738 91.8432465c0-1.3479004-.6658936-2.5336914-1.6795654-3.2692871-.6668701-.4838867-1.4803467-.7775879-2.3673096-.7775879h-6.1324463-6.5361328c-2.2351074 0-4.046875 1.8118896-4.046875 4.046875 0 2.2351074 1.8117676 4.0469971 4.046875 4.0469971h6.5361328 6.1323242.0001221c.2794189 0 .552124-.0283203.8155518-.0821533.2634277-.0539551.5175781-.1335449.7596436-.2358398.7261963-.307251 1.3441162-.8203125 1.7805176-1.4663086.2908936-.430542.5010986-.920166.6090088-1.4470215.053833-.2634277.0821533-.5361328.0821533-.8155518v-.0001221z" fill="#f7be56"/><path d="m88.5060425 95.0510254h-12.6685791c-2.2350388 0-4.0468979-1.8118591-4.0468979-4.0468979v-.0000076c0-2.2350388 1.8118591-4.0468979 4.0468979-4.0468979h12.6685791c2.2350388 0 4.0468979 1.8118591 4.0468979 4.0468979v.0000076c0 2.2350388-1.8118592 4.0468979-4.0468979 4.0468979z" fill="#fff"/><path d="m88.5060501 86.9571457h-6.1323471v8.0938644h6.1323471c2.2349777 0 4.0469284-1.8118439 4.0469284-4.0468216 0-2.2350845-1.8119507-4.0470428-4.0469284-4.0470428z" fill="#e56353"/></svg>