<svg enable-background="new 0 0 140 140" height="512" viewBox="0 0 140 140" width="512" xmlns="http://www.w3.org/2000/svg"><circle cx="70" cy="70" fill="#45b39c" r="64"/><path d="m107.7100296 34.2816658c-.3200073-.3400269-.6400146-.6900024-.9700317-1.0200195-9.8200073-9.8200092-22.8699951-15.2199726-36.75-15.2199726-13.8900146 0-26.9400024 5.3999634-36.75 15.2199726-19.4799805 19.4800415-20.2299805 50.7000084-2.25 71.0800171h-.0100098l.0200195.0200195c.7199707.8199463 1.460022 1.6199951 2.2399902 2.3999634.7800293.7800293 1.5800171 1.5100098 2.3900146 2.2299805l24.1942749 24.1942749c3.3148804.5297852 6.7116089.8140869 10.1757202.8140869 35.3462524 0 63.9999924-28.6538086 63.9999924-64 0-3.4941406-.2905273-6.9193077-.8293457-10.2614708z" opacity=".1"/><path d="m99.5052261 68.1201706c-.2151413 1.4079742-.782196 2.8355255-1.5057907 3.9306107-.5475388.8310699-1.1537476 1.5155182-1.7990417 2.1412964-1.5155182 1.4177628-3.2363815 2.4541855-4.9474564 3.8719482-.2738037.2248611-.5573273.4692993-.831131.723526-2.2586212 2.082634-5.0256348 3.7252579-8.0078506 4.2630157-.5964127.1173248-1.1928329.1759872-1.8088303.1955643h-27.7390098l-3.9012489-3.5492706-4.9963341-4.5368118c-2.4639702-1.3199539-3.9013062-4.2728043-3.5003929-7.0203018.019577-.2150803.0684509-.4302139.1173286-.6355667.7333183-2.9234924 3.5981445-5.1527481 6.5998726-5.1625366-1.388401-1.9457321-1.5741806-4.6932297-.4595795-6.8052216 1.1146584-2.1217232 3.4906082-3.5199089 5.8861275-3.471035-.7528915-1.9066391-.5964203-4.1554718.4106407-5.9447899 1.007122-1.7892532 2.8355255-3.0896912 4.8594933-3.451458 1.4177628-.2542267 3.0603905-.1271133 4.0870247-1.1342316.6942291-.6843834.9093094-1.7012901 1.2026253-2.6301727.8995781-2.8256798 2.9332771-5.2798615 5.5439339-6.6878395 2.6106033-1.4177608 5.7687454-1.7795277 8.6335678-.987545-.9875488 1.8088303-.8212814 4.1848373.4009171 5.8469772 1.2026215 1.6426888 3.1972275 2.463974 5.0745697 3.2559547 1.8772812.8017693 3.8425827 1.7404404 4.8887939 3.4906082 1.0364227 1.750164.5573273 4.5270271-1.3884583 5.1332321 2.6204453 1.1439629 5.3385849 2.375946 7.1278992 4.5954781 1.7893143 2.2292595 2.2879181 5.7785301.3128891 7.8415871 2.3172836-.7919846 5.4949951 2.2977676 5.7883148 4.7225876.0782394.6355667.0586624 1.3200149-.048874 2.0043945z" fill="#ebf0f3"/><path d="m61.9690475 41.5349083c-1.0266342 1.0071182-2.6692619.8800049-4.0870247 1.1342316-2.0239677.3617668-3.8523712 1.6622047-4.8594933 3.451458-1.007061 1.7893181-1.1635323 4.0381508-.4106407 5.9447899 20.0734138 6.1305695 33.7131081-3.1092644 33.7131081-3.1092644-22.0777511 1.2906494-24.3559494-7.4212151-24.3559494-7.4212151z" fill="#d5d6db"/><path d="m99.5052261 68.1201706c-.2151413 1.4079742-.782196 2.8355255-1.5057907 3.9306107-.5475388.8310699-1.1537476 1.5155182-1.7990417 2.1412964-30.3007355 2.6888351-49.0150528-11.8504333-49.0150528-11.8504333 34.5637512 8.4673615 46.5804443-.9484558 46.5804443-.9484558 2.3172836-.7919846 5.4949951 2.2977676 5.7883148 4.7225876.0782395.6355666.0586625 1.3200148-.0488739 2.0043944z" fill="#d5d6db"/><path d="m100.7600174 71.6516571c-2.1400146 11.1099854-4 20.789978-5.6400146 29.2999878-.3699951 1.9199829-1.8200073 3.4500122-3.7199707 3.9100342-1.3300171.3199463-2.6500244.6099854-3.9800415.8699951-2.3299561.4599609-4.6699829.8299561-7 1.0999756-2.3200073.2700195-4.6399536.4500122-6.9500122.539978-2.3099976.0900269-4.6299438.0900269-6.9399414 0-2.3100586-.0899658-4.6300049-.2699585-6.9500122-.539978-2.3300171-.2700195-4.6700439-.6400146-7-1.0999756-1.3300171-.2600098-2.6500244-.5500488-3.9800415-.8699951-1.8999634-.460022-3.3499756-2-3.7199707-3.9200439l-5.6400146-29.289978c-.5499878-2.8399658 1.9000244-4.9199829 4.8599854-4.0700073.0300293.0100098.0599976.0200195.1000366.0300293 1.9199829.5499878 3.3999634 2.2199707 3.6499634 4.0599976l.2900391 2.0499878c-.3599854-2.5800171 1.8499756.574379 4.5700073 1.1044083.0999756.0200195.1900024.0299683.2799683.0499878 2.0599976.3900146 3.6600342-3.0544205 3.8300171-1.1044083.0299683.4000244.0700073.7900391.0999756 1.1799927-.1900024-2.3699951 1.8099976-4.2999878 4.3200073-4.0499878.1300049.0100098.25.0300293.3800049.039978 2.210022.2000122 3.9500122 1.9700317 4.0100098 4.0600586l.0100098.289978c0-2.2000122 1.8699951 1.3268051 4.2099609 1.3268051h.3000488c2.3399658 0 4.2099609-3.5268173 4.2099609-1.3268051l.0100098-.289978c.0599976-2.0900269 1.7999878-3.8600464 4.0100098-4.0600586.1300049-.0099487.25-.0299683.3800049-.039978 2.5200195-.25 4.5200195 1.6900024 4.3200073 4.0700073l.0999756-1.2000122c.1699829-1.9500122 1.8272629 3.3336411 3.8872604 2.9436264.0899658-.0200195.1799927-.0299683.2799683-.0499878 2.7200317-.5300293 4.8727493-5.5236435 4.512764-2.9436264l.2900391-2.0499878c.25-1.8400269 1.7299805-3.5100098 3.6499634-4.0599976.0400391-.0100098.0700073-.0200195.1000366-.0300293 2.9599606-.8499757 5.4099728 1.2300414 4.859985 4.0700072z" fill="#fcd462"/><g fill="#f7be56"><path d="m59.5805168 106.8313522c-2.3292503-.2722092-4.6656456-.6370087-7.0049706-1.0960159l-4.4374084-32.009491c-.3584442-2.5856705 1.8498192-4.5915298 4.5763855-4.0646362.0915413.0176849.1830673.0352325.2745819.0526352 2.0607224.3919144 3.6633873 2.1040878 3.8270569 4.0612411 1.0712128 12.8093186 1.9814072 23.6935196 2.7643547 33.0562668z"/><path d="m73.4673462 107.3722382c-2.3108292.0896835-4.6238556.0896835-6.9347305 0l-.8938675-31.9808426c-.0625458-2.237648 1.8313828-4.0633087 4.2108917-4.0593109.1002197.0001678.2004471.0001678.3006668 0 2.379509-.0040054 4.2734451 1.8216629 4.210907 4.0593109z"/><path d="m87.4244156 105.7353363c-2.339325.4590149-4.6757202.8238144-7.0049744 1.0960159l2.7643585-33.0562668c.1636658-1.9571533 1.7663269-3.6693268 3.8270493-4.0612335.0915146-.0174103.1830368-.0349503.2745819-.0526428 2.7265625-.5268936 4.9348297 1.4789658 4.5763855 4.0646439z"/></g><path d="m106.7385864 33.2614746c-9.8163376-9.8169155-22.8681488-15.2234497-36.7506714-15.2234497-13.8830986 0-26.9349098 5.4065342-36.7512474 15.2234497-20.2649651 20.2643852-20.2649651 53.2375412 0 73.5019226 10.1321907 10.1327744 23.4414291 15.1985779 36.7506676 15.1985779 13.3098221 0 26.6190643-5.0658035 36.7512512-15.1985779 9.8169174-9.8163376 15.2234573-22.8681488 15.2234573-36.7512512.0000001-13.8825188-5.4065399-26.93433-15.2234573-36.7506714zm-69.3136787 4.1882439c8.6981239-8.697546 20.2620697-13.4879913 32.5630074-13.4879913 11.3072433 0 21.985817 4.0577927 30.3942642 11.4679184l-64.9768372 64.9768372c-15.8978252-18.0661355-15.2313366-45.7058602 2.0195656-62.9567643zm65.1254387 65.1254387c-17.2503967 17.2509766-44.8899765 17.9173889-62.9566917 2.0194931l64.9767609-64.9767609c7.4101257 8.4084473 11.4679184 19.0870209 11.4679184 30.3942604.0000037 12.3009377-4.7904397 23.8648796-13.4879876 32.5630074z" fill="#e56353"/></svg>