<svg enable-background="new 0 0 140 140" height="512" viewBox="0 0 140 140" width="512" xmlns="http://www.w3.org/2000/svg"><circle cx="70" cy="70" fill="#45b39c" r="64"/><path d="m109.242897 35.9416389-.0100098.0100098c-.8000488-.9199829-1.6199951-1.8200073-2.4899902-2.6900024-9.8200073-9.8200092-22.8700562-15.2199726-36.75-15.2199726-13.8900185 0-26.9400063 5.3999634-36.7600136 15.2199726-20.2600098 20.2600098-20.2600098 53.2399864 0 73.5l26.3879395 26.3879395c3.3795166.5513306 6.8437538.8504028 10.3791542.8504028 35.3462524 0 63.9999924-28.6538086 63.9999924-64 0-3.4522705-.2817993-6.8378868-.8080444-10.142025z" opacity=".1"/><path d="m38.204441 63.844612h67.112145v12.310779h-67.112145z" fill="#d5d6db"/><path d="m82.652451 63.844612h22.664127v12.310779h-22.664127z" fill="#f7be56"/><path d="m38.204441 63.844612h67.112145v9.433503h-67.112145z" fill="#e6e9ef"/><path d="m82.652451 63.844612h22.664127v9.433503h-22.664127z" fill="#fcd462"/><path d="m34.683418 63.844612h3.609837v12.310779h-3.609837z" fill="#474c5b"/><path d="m106.7385941 33.2614746c-9.8163376-9.8169155-22.8681488-15.2234497-36.7506714-15.2234497-13.8830986 0-26.9349098 5.4065342-36.7512474 15.2234497-20.2649651 20.2643852-20.2649651 53.2375412 0 73.5019226 10.1321907 10.1327744 23.4414291 15.1985779 36.7506676 15.1985779 13.3098221 0 26.6190643-5.0658035 36.7512512-15.1985779 9.8169174-9.8163376 15.2234573-22.8681488 15.2234573-36.7512512 0-13.8825188-5.4065399-26.93433-15.2234573-36.7506714zm-69.3136788 4.1882439c8.6981239-8.697546 20.2620697-13.4879913 32.5630074-13.4879913 11.3072433 0 21.985817 4.0577927 30.3942642 11.4679184l-64.9768372 64.9768372c-15.8978252-18.0661355-15.2313366-45.7058602 2.0195656-62.9567643zm65.1254387 65.1254387c-17.2503967 17.2509766-44.8899765 17.9173889-62.9566917 2.0194931l64.9767609-64.9767609c7.4101257 8.4084473 11.4679184 19.0870209 11.4679184 30.3942604.0000037 12.3009377-4.7904397 23.8648796-13.4879876 32.5630074z" fill="#e56353"/></svg>