<svg enable-background="new 0 0 140 140" height="512" viewBox="0 0 140 140" width="512" xmlns="http://www.w3.org/2000/svg"><circle cx="70" cy="70" fill="#334d5c" r="64"/><path d="m45.1371613 70.2249756c-.3900146.5700073-.75 1.1500244-1.1000366 1.7399902-.3399658.5900269-.6599731 1.2000122-.9599609 1.8200073-1.2300415 2.5499878-2.0300293 5.289978-2.2399902 8.1300049-.3099976 3.9699707.1199951 9.0300293 2.4400024 14.8099976 2.6099854 6.4400024 4.0599976 12.210022 4.8499756 16.210022l21.0440674 21.0440674c.2771605.00354.5508422.020935.8287963.020935 34.5552979 0 62.6974487-27.3899536 63.9403687-61.6417847l-45.2232057-45.2232628-16.9900512-.0599975v-.0099487h-.289978l-3.1199951.0099487-3.1300049-.0099487h-.289978v.0099487l-16.9900513.0599976s.7900391 5.5500488 1.3200073 12.5400391c-5.6099854-.4000244-6.1499634 2.2700195-6.1300049 3.5599976h-.0099487l-.0100098 2.9199829v4.8500366c0 .3599854.0799561.6900024.2299805 1 .1199951.2999878.3200073.539978.5499878.7599487l-.0100098.0100098 5.5200195 5.5400391c-.2000122 1.9799805-.5200195 3.7699585-.9899902 5.2199707-.710022 2.2200278-1.75 4.4799765-3.2399902 6.6899985z" opacity=".1"/><path d="m43.0765266 46.1580811.0141602-2.9247551 2.3175621 2.9247551z" fill="#ebf0f3"/><path d="m49.5434494 41.6015663-.3109131-1.9278564c-7.0213814-.5000801-6.1025391 3.8025513-6.1025391 4.2061157 0 1.2582397 1.0200195 2.2782593 2.2782593 2.2782593h7.1685791v-4.5565186z" fill="#d5d6db"/><path d="m52.5768547 53.4097977h-7.1686058c-1.2582397 0-2.278244-1.0200043-2.278244-2.278244v-.0000038c0-1.2582397 1.0200043-2.278244 2.278244-2.278244h7.1686058z" fill="#d5d6db"/><path d="m48.1294899 112.9372101h40.3680534c.7913971-3.9997177 2.2440643-9.7710495 4.8431625-16.2150879 2.3326035-5.7747955 2.7618866-10.8368454 2.4541092-14.8054657-.2186966-2.8347549-1.0205154-5.572319-2.243515-8.1236115-.5912323-1.2391663-1.2877655-2.4297867-2.0572052-3.5717621-1.4902878-2.2030334-2.53508-4.4627151-3.2478256-6.6900215-3.247818-10.180809.46978-36.395565.46978-36.395565l-16.9923401-.0566998v-.0162144l-3.4097672.0081062-3.4179306-.0081062v.0162144l-16.9841805.0566998s3.7175446 26.214756.4697723 36.395565c-.7127419 2.2273064-1.7575798 4.4869881-3.2478218 6.6900215-.7694435 1.1419754-1.4659691 2.3244858-2.057251 3.563652-1.2310562 2.5513-2.0328789 5.2888641-2.2434692 8.1317215-.3077774 3.9686203.12146 9.0306702 2.4459534 14.8054657 2.6033975 6.4440385 4.0580941 12.2153703 4.8504754 16.215088z" fill="#f7be56"/><path d="m49.8363457 112.9372101h36.9544106c.724472-3.9997177 2.0542984-9.7710495 4.433609-16.2150879 2.1353455-5.7747955 2.5283279-10.8368454 2.246582-14.8054657-.2002029-2.8347549-.9342194-5.572319-2.0538025-8.1236115-.5412369-1.2391663-1.1788635-2.4297867-1.8832397-3.5717621-1.3642654-2.2030334-2.3207016-4.4627151-2.973175-6.6900215-2.973175-10.180809.4300461-36.395565.4300461-36.395565l-15.5554123-.0566998v-.0162144l-3.1214294.0081062-3.128891-.0081062v.0162144l-15.5479507.0566998s3.4031792 26.214756.4300461 36.395565c-.6524696 2.2273064-1.6089516 4.4869881-2.973175 6.6900215-.7043762 1.1419754-1.3420029 2.3244858-1.8832817 3.563652-1.1269569 2.5513-1.8609734 5.2888641-2.0537567 8.1317215-.2817497 3.9686203.1111908 9.0306702 2.2391167 14.8054657 2.383247 6.4440385 3.7149312 12.2153703 4.4403035 16.215088z" fill="#fcd462"/><path d="m66.2229004 89.3967743h4.1821518c3.1006927-5.7920456 9.6127853-12.1367416 23.1462402-15.603714-.5912399-1.2391815-1.2877808-2.4298096-2.0571747-3.5717773-1.490303-2.2030411-2.5351181-4.462738-3.2478638-6.6900253-3.1101456 2.6241684-9.4599457 6.4875107-19.9323044 6.6171188-10.4723625-.1296082-16.8222733-3.9929504-19.9323654-6.6171188-.7127457 2.2272873-1.7575607 4.4869843-3.2478027 6.6900253-.7694511 1.1419678-1.4659958 2.324501-2.0572319 3.5636139 13.5335656 3.4731521 20.0456581 9.8193817 23.1463509 15.6118774z" fill="#e56353"/><path d="m68.3139343 61.6623535c-.6758652 0-1.2237396.5478783-1.2237396 1.2236938 0 .6758614.5478745 1.2237396 1.2237396 1.2237396s1.2236938-.5478783 1.2236938-1.2237396c.0000001-.6758155-.5478286-1.2236938-1.2236938-1.2236938z" fill="#f7be56"/><path d="m66.2229004 89.3967743 2.091011 23.5404358 2.0911408-23.5404358z" fill="#f7be56"/><path d="m97.8872299 53.3661804h-52.4511871c-1.3031235 0-2.3595161-1.0563889-2.3595161-2.3595161v-4.8485832h54.8107033v7.2080993z" fill="#ebf0f3"/><g fill="#4d5c7d"><path d="m45.710323 47.385189h.734059v2.936236h-.734059z"/><path d="m48.280541 47.385189h.734059v1.854593h-.734059z"/><path d="m50.970371 47.385189h.734059v2.936236h-.734059z"/><path d="m53.540592 47.385189h.734059v1.854593h-.734059z"/><path d="m56.230419 47.385189h.734059v2.936236h-.734059z"/><path d="m58.80064 47.385189h.734059v1.854593h-.734059z"/><path d="m61.490467 47.385189h.734059v2.936236h-.734059z"/><path d="m64.060684 47.385189h.734059v1.854593h-.734059z"/><path d="m66.750519 47.385189h.734059v2.936236h-.734059z"/><path d="m69.32074 47.385189h.734059v1.854593h-.734059z"/><path d="m72.010567 47.385189h.734059v2.936236h-.734059z"/><path d="m74.580788 47.385189h.734059v1.854593h-.734059z"/><path d="m77.270615 47.385189h.734059v2.936236h-.734059z"/><path d="m79.840836 47.385189h.734059v1.854593h-.734059z"/><path d="m82.530663 47.385189h.734059v2.936236h-.734059z"/><path d="m85.100884 47.385189h.734059v1.854593h-.734059z"/><path d="m87.79071 47.385189h.734059v2.936236h-.734059z"/><path d="m90.360931 47.385189h.734059v1.854593h-.734059z"/></g><path d="m97.8872299 46.1580811h-2.8366318c-.2079697.2979431-.3307571.6578674-.3307571 1.0466728 0 .3268204.0933456.6292877.2442474.8957939-.5216827.394104-.8636246 1.0077934-.8636246 1.7053757 0 .6976433.3419418 1.3113327.8636246 1.7054329-.1509018.2665062-.2442474.5689774-.2442474.8957977 0 .3524818.1054993.6785278.279129.9590263h2.8882599z" fill="#44c4a1"/></svg>