<svg enable-background="new 0 0 140 140" height="512" viewBox="0 0 140 140" width="512" xmlns="http://www.w3.org/2000/svg"><circle cx="70" cy="70" fill="#45b39c" r="64"/><path d="m106.9257355 33.4682884c-.1900024-.2199707-.3600464-.3899536-.5200195-.5199585l-.0999756-.1000366v.0200195c-.1400146-.0999756-.2700195-.1599731-.3900146-.1799927h-.1600342c-.0299683.0100098-.0499878.0200195-.0799561.0299683-.0300293.0100098-.0700073.0200195-.1000366.0400391-.0299683.0200195-.0499878.039978-.0800171.0599976-.0299683.0299683-.0599976.0499878-.0899658.0800171-.0200195.0299683-.0499878.0599976-.0700073.0899658-.0299683.0400391-.0599976.0599976-.0800171.1000366v.0099487c-.0100098 0-.0100098.0100098-.0199585.0200195-.8800049 1.3599854-.8800049 1.7600098-.5599976 4.9700317.289978 2.9099731 1.3699951 5.6900024-.2200317 7.7399902-.1799927.2299805-.1499634.539978.0300293.7399902-.1600342.1900024-.4700317.4299927-1.0500488.6099854-.8499756.1600342-11.2099609 2.039978-18.6599731 1.2700195-7.7800293-.7999878-10.1900024 1.0700073-10.6400146 4.289978-.4400024 3.2200317.3599854 23.239994.3599854 23.239994s-8.6699829 0-10.7299767-.7999878c-2.0499878-.8099976-12.5100098-4.1199951-19.039978 2.1400146-.9100342.8800049-1.5700073 1.6799927-2.0499878 2.4199829l-2.4000244-2.3900146c-.0300293-.0199585-.039978-.039978-.0599976-.0599976-.3499756-.289978-.9299927-.3899536-1.4099731-.3800049l-.6200562-.6199951-.0099487.0100098c-.0100098-.0199585-.0200195-.039978-.0400391-.0499878l-1.7299805-1.7299805c-.3300171-.3699951-1.3300171-.5300293-3.8300171-.0300293 0 0-1.4299946-.1400146-1.7399921-.4799805-.2999878-.3400269-1.7399902-1-3.7399902-.4299927l-.1300049-.1199951c-.0700073-.0700073-.1599731-.1000366-.2600098-.1000366-.0599976 0-.1300049.0100098-.2000122.0499878-7.6099854 4.3900146-7.0599976 9.2200317-4.0700073 12.7300415h-.0499878l.4700317.4699707c.1599731.1700439.3399658.3500366.5199585.5200195l46.8655396 46.8655396c35.2346802-.1307983 63.7587891-28.7285156 63.7587891-63.9938965 0-3.5033569-.2924805-6.9371986-.8340454-10.2876625z" opacity=".1"/><path d="m104.658165 46.2674828s-.130455.8157349-2.0546494 1.1049652l1.7821579 5.1723862s1.4161377.3434792 2.7828522.3401985c1.3667221-.0032768 3.0650101-5.2299652 3.0650101-5.7770386 0-.5470695-2.9344101-2.6011543-2.9344101-2.6011543z" fill="#fcd462"/><path d="m106.418663 52.8556595s-2.9626007-.3847427-9.4882202 2.2078934c-6.5232315 2.5926056-13.6737366 2.5019379-13.6737366 2.5019379l-.0906982 2.413723c1.7888718 1.9677505 5.1852112 13.0513039 6.5256805 19.2191887 1.3404083 6.1654053-1.3404694 8.6697998-3.2175217 9.2064743-.4753799.134758-3.2297287.1323013-7.0794296.0539017-11.3825684-.2303314-32.3391457-1.1272202-32.3391457-1.1272202l-3.2199135-1.0953598s-5.631218-2.6588058.8944626-8.9148788c6.5256195-6.2585526 16.9842873-2.9503937 19.0402794-2.1466293 2.0559349.8037415 10.7257881.8037415 10.7257881.8037415s-.8037643-20.0204773-.3578186-23.2403908c.4460068-3.2175217 2.8597641-5.094574 10.6376038-4.288353 7.7753983.8037376 18.7168045-1.2816315 18.7168045-1.2816315z" fill="#4d5c7d"/><path d="m43.0865631 80.8456573h-3.5906639s-.5041695-.5254288.2802467-1.2416382c.78442-.7162094.9549446-1.9098892.443367-2.3191452-.5115776-.4092636-1.4665184-.443367-1.9439926-.3069458 0 0 .0341072.1705246 0-.443367-.0341034-.6138916-.7844162-.1364212-.7844162-.1364212s-.0682106-.6480026-.545681-.5456848c-.4774742.1023178-.1705284.0682144-.886734.3410492-.7162094.2728424 3.1334724-3.0369568-3.4787254-1.7052536 0 0-1.432415-.1364212-1.7393608-.4774704-.3069477-.3410568-1.773468-1.0231552-3.8197765-.4092636s-3.8197746 1.8757858-5.0816631 6.3776627c-1.2618904 4.5018768 2.1486225 8.8673325 6.6846046 9.5494385 4.535984.6820984 13.1304779.8867264 13.1304779.8867264z" fill="#f7be56"/><path d="m112.2470856 48.1045189c-.6412354-2.071106-1.1791992-4.111145-1.1783447-6.2938843.000061-.1635742.0668335-.2804565.1633301-.3544922-.0198975-.0441284-.0403442-.0888062-.0612793-.1332397-.1044922-.0509644-.1922607-.1424561-.2341919-.281189-.0384521-.1270142-.0673218-.2557373-.0930176-.3850098-.4333496-.8699951-.9016113-1.7215576-1.3800659-2.5674438-.2572632-.2249756-.4646606-.5229492-.6057129-.8605957.0690308.1653442-.0958252-.1766357-.1114502-.2069092-.0771484-.1496582-.1583862-.2971802-.2443848-.4418945-.1240845-.2088623-.2562256-.4207153-.4033813-.6156006-.0332642-.0327148-.1395874-.1541138-.1586304-.1759644-.0791626-.0906982-.1574097-.1815186-.2330933-.2750854-.2219849-.2745361-.4403076-.5456543-.5853271-.8684082-.1137085-.2531128-.1766968-.5180664-.1953735-.7799072-.4663696-.2318726-.8713379-.5332031-.998291-1.1049194-.0056152-.0252686-.006897-.0490723-.0087891-.0730591-.2497559-.0338745-.4699707.1022949-.6806641.4279785-.8831177 1.3648071-.8831177 1.7661743-.5620117 4.977417.2910156 2.9098511 1.3730469 5.6878662-.2185059 7.7366943-.2354736.3032227-.1174316.7437134.2347412.8965454 1.2438354.5397949 3.3592529 1.9527588 2.3118896 5.0947266l-.109436.399292c-.1075439.3920288.2060547.7721558.6113892.7410278l5.163208-.3966064c.0384521-.2657471.0734863-.5319824.1002808-.7995605.1309814-1.308838-.1397706-2.4222413-.5228882-3.6599122z" fill="#d5d6db"/><path d="m112.9443436 52.5419884-5.4376221.4190254c-.1249771.0098114-.2401428-.0195923-.3381958-.0759811l4.4403152-.3430443s1.2031631-1.235054-.4827423-5.4351959c-1.6859665-4.1976852.1617126-5.2415962-2.5681076-9.3363533-1.553627-2.3328667-2.5632553-3.9624176-3.3057022-4.6779709.8821411-1.3208179 1.9285049.6052628 4.6412125 4.6779709 2.7298126 4.0947571.8845901 5.1386681 2.5705566 9.3363533 1.6859055 4.2001419.4802857 5.4351959.4802857 5.4351959z" fill="#474c5b"/><path d="m40.5371513 87.3321609s-.4150162.2713699-6.4917603-1.3743973c-6.3693542-1.725029-.9288635-2.5875473-1.194252-5.5731812-.2653923-2.9856644-2.8529415-1.2606354-4.5779743-3.0520096-1.1320343-1.1755905-1.2354755-2.6654739-1.1728077-3.5508804.0223465-.3158493-.3181267-.5281143-.5924301-.3699341-10.4292908 6.013176-5.5454845 12.879303-.026144 15.9960785 5.6395321 3.1847305 18.1846447 2.1408539 18.1846447 2.1408539-2.1704407-1.100624-3.9541664-2.3497695-4.1292763-4.2165298z" fill="#4d5c7d"/><path d="m79.3947372 88.4587784c-11.3825684-.2303314-32.3391457-1.1272202-32.3391457-1.1272202l-3.2199135-1.0953598s-5.631218-2.6588058.8944626-8.9148788c6.5256195-6.2585526 16.9842873-2.9503937 19.0402794-2.1466293 2.0559349.8037415 10.7257881.8037415 10.7257881.8037415s5.3150941 6.1286696 4.8985291 12.4803466z" fill="#e56353"/><path d="m93.5569992 91.014679c-.5483398-.4438477-2.1619873-.7415771-2.1641846-.7419434-.2695312-.1211548-.5338135-.2237549-.7713013-.291626-.9750366-.2785645-3.0179443-.7893066-6.9180908-1.3464966-3.9001465-.5571289-19.0537109-.6651611-22.7681313-1.7645264-3.7143555-1.0993652-5.1072998-1.8886719-6.5001831-2.770813-1.3928833-.8822021-3.7144165-4.6894531-8.2645874-3.8536987-4.5501099.8357544-5.6004028 6.6245117-5.6004028 6.6245117s-.7595215 3.9494629 5.0127563 4.8609009 26.3550453-.1519165 29.165226 0 7.9749146.3733521 7.9749146.3733521c2.3544312.1583252 8.5824585.4493408 10.3293457 0 0 0 .8018799-.1583862.3840332-.5762939-.0317993-.0317993-.0795898-.0701904-.1223755-.1065674.2874756-.0466919.5563965-.1531983.242981-.4067993z" fill="#fcd462"/></svg>