<svg enable-background="new 0 0 140 140" height="512" viewBox="0 0 140 140" width="512" xmlns="http://www.w3.org/2000/svg"><circle cx="70" cy="70" fill="#efc84a" r="64"/><path d="m82.6182175 132.7497406c24.6430664-4.9284668 44.1598511-24.0101318 49.7484207-48.4082031l-37.3751908-37.3698693-.0100098.0100098c-.2299805-.1900024-.5200195-.3200073-.8400269-.3200073h-2.8899536l-3.710022-3.6700439c-.3300171-.3899536-.8200073-.6399536-1.3699951-.6399536h-5.869995l-7.9299927-7.9299927h-4.7400513v7.9299927h-13.8099937c-.9899902 0-1.789978.7999878-1.789978 1.789978v2.5200195h-6.1799927c-.710022 0-1.289978.5799561-1.289978 1.2999878v4.6300049c0 .3099976.1199951.5800171.2999878.7999878l-.0100098.0100098.0599976.0700073c.0200195.0199585.0499878.0499878.0700073.0700073l3.9500122 3.9699707 4.4299927 44.9100304c.0800171.8099976.4400024 1.5299683.9699707 2.0699463l-.0100098.0100098z" opacity=".1"/><path d="m67.626587 34.418076h4.74682v10.345736h-4.74682z" fill="#d5d6db"/><path d="m86.1752625 42.3469238h-32.350525c-.9899902 0-1.7926025.8026123-1.7926025 1.7926636v5.4285889h35.93573v-5.4285889c0-.9900513-.8026123-1.7926636-1.7926025-1.7926636z" fill="#ebf0f3"/><path d="m48.1458359 49.5345612 5.2161255 52.8914185c.1766357 1.7909546 1.6829224 3.1559448 3.482605 3.1559448h26.3108521c1.7996826 0 3.3059692-1.3649902 3.482605-3.1559448l5.2161255-52.8914185z" fill="#d5d6db"/><path d="m84.7031479 101.6458282 4.9436645-52.111267h-39.2939453l4.9436646 52.111267z" fill="#ebf0f3"/><path d="m51.5401001 62.0496216 3.7564087 39.5961914h29.4066162l3.7564087-39.5961914z" fill="#e56353"/><path d="m56.5213623 58.4472656 2.4523315 25.815979h3.4400635l-2.4522705-25.815979z" fill="#fff"/><path d="m59.3111916 87.8165894.881958 9.2846069h3.4400634l-.881958-9.2846069z" fill="#fff"/><path d="m94.1463013 46.6641846h-48.2926636c-.715271 0-1.295166.579895-1.295166 1.2952271v4.6329346c0 .715332.579895 1.2952271 1.295166 1.2952271h48.2926636c.715332 0 1.2952271-.579895 1.2952271-1.2952271v-4.6329346c-.0000001-.7153321-.5798951-1.2952271-1.2952271-1.2952271z" fill="#4d5c7d"/></svg>