<svg enable-background="new 0 0 140 140" height="512" viewBox="0 0 140 140" width="512" xmlns="http://www.w3.org/2000/svg"><circle cx="70" cy="70" fill="#e05b49" r="64"/><path d="m40.3592873 79.6816254c-.3900146 1.1600342-.6300049 2.4300537-.5700073 3.7600098.1300049 3.2000122.6400146 11.5700073 1.0200195 17.7399902.1300049 2.1500244 1.1400146 4.0300293 2.6699829 5.3400269l27.4547157 27.4547119c32.1020508-.4613037 58.4688644-24.5471191 62.5099411-55.6575928l-52.8146286-52.807127c-.460022-.4799805-.9400024-.9099731-1.3800049-1.2199707-2.9500122-2.1199951-6.8900146-2.2400513-10.4800415-1.7200317-2.2399902.3300171-4.4699707.8800049-6.489994 1.9000244-2.7199707 1.3800049-12.2299805 10.2000141-9.039978 24.6799946.0700073.3499756.1599731.6900024.25 1.039978l-.0300293.210022s3.7800293 10.5299683-9.5499878 8.4400024c0 0-.1400146 3.3200073 3.0200195 6.2299767.039978.0400391.0899658.0700073.1400146.1000366l4.8299561 4.8699951-4.7699585 2.2799682c-3.1400147 1.4700318-5.6600342 4.0800171-6.7700195 7.3599854z" opacity=".1"/><path d="m86.4541855 53.3023109-14.5227661 8.0732422c2.2936096 5.0609093 11.2828293 8.3339119 18.4687347 5.8548393 6.9214172-2.387825 6.3571701-5.6140862 6.3571701-5.6140862-14.0527344 2.985531-10.3031387-8.3139953-10.3031387-8.3139953z" fill="#474c5b"/><path d="m99.6386566 79.6863327c-1.1064301-3.2824478-3.6315231-5.8954926-6.7698975-7.3616638l-10.2109528-4.8969193-3.5720978-2.3534775-9.2133255-.7797699-8.928459.6076508-3.601757 2.5255966-10.21093 4.8969193c-3.1383705 1.4661713-5.6634064 4.079216-6.7698975 7.3616638-.3898163 1.1565094-.629509 2.4259491-.575592 3.7549973.1297607 3.1980972.6395149 11.5724335 1.0251389 17.7378082.2531662 4.0478821 3.6100807 7.1976929 7.6658707 7.1976929h21.5232429 21.5233002c4.0557938 0 7.4127045-3.1498108 7.6658707-7.1976929.3855667-6.1653748.8953171-14.539711 1.0250778-17.7378082.0539169-1.3290482-.1857148-2.5984879-.5755921-3.7549973z" fill="#d5d6db"/><path d="m88.5910721 88.9961853-1.4694138-.0948944c.2856445-4.4389038.4265442-9.6508484-.6901321-14.6504822-.955162-4.2769089-3.4175949-7.3125381-7.3182907-9.0220566-7.3748398-3.2335663-17.2394371-.7481232-19.3644753.4826126-4.0248184 2.330162-5.6667633 5.6284256-5.6667633 11.3852844h-1.4722862c0-6.2759018 1.9141655-10.0620499 6.4009895-12.6591568 2.6071701-1.5096664 12.916523-3.9658699 20.693943-.5573769 4.3535919 1.9084129 7.1002274 5.2895851 8.1637039 10.0495872 1.1574097 5.1807939 1.0145951 10.5235826.722725 15.0664827z" fill="#2f4859"/><path d="m61.971939 53.457085h16.056095v20.306238h-16.056095z" fill="#f7be56"/><path d="m79.5137711 66.0855637-2.9835052 3.6372223c-3.3790359 4.1194229-9.6815186 4.1194229-13.0605545 0l-2.9835014-3.6372223-2.2691727 1.0601273v23.946167l11.7829475 17.284996 9.2568741-13.6475143 2.270874-27.7028656z" fill="#44c4a1"/><path d="m78.997612 65.1786041s2.5267715 19.1266098-8.9976273 43.1982498c0 0 9.5297928-6.6641846 14.8487473-23.9774017l-2.4378586-4.474205 3.7559204-2.5289001-3.5089645-9.9685974c-1.4360962-.9971314-2.9033203-2.0299073-3.6602173-2.2491456z" fill="#ebf0f3"/><path d="m60.9871063 64.902153s-2.5115204 19.4030609 9.0128784 43.4747009c0 0-9.529789-6.6641846-14.8487434-23.9774017l2.4378548-4.474205-3.7559204-2.5289001 3.5089912-9.9685974z" fill="#ebf0f3"/><g fill="#fcd462"><path d="m84.9615936 44.1281776c-.9109192-.2063713-2.0175476 1.2513008-2.4716721 3.2558136-.4541321 2.0045166-.083786 3.7968025.8271255 4.0031738.9109192.2063675 2.0175018-1.2513123 2.4716339-3.2558289.4541322-2.0045127.0838319-3.796791-.8270873-4.0031585z"/><path d="m54.8540268 44.1281776c.9109154-.2063713 2.0175438 1.2513008 2.4716721 3.2558136.4541283 2.0045166.0837898 3.7968025-.8271294 4.0031738-.9109154.2063675-2.0175018-1.2513123-2.4716301-3.2558289-.4541283-2.0045127-.0838318-3.796791.8270874-4.0031585z"/><ellipse cx="70.046" cy="45.29" rx="14.795" ry="17.3"/></g><path d="m53.9930038 79.6605835c4.3333588.9721298 6.7260475 4.603653 7.7432251 11.7256699.3245506 2.2723923-.0801163 4.0169983-1.2027473 5.1859512-1.3064041 1.3593903-3.2242928 1.5060577-3.9880714 1.5060577-.0645027 0-.12286-.00103-.1743088-.0025635l.1072464-1.0463562c.0199661.0002594.0409546.0002594.0629654.0002594.6332397 0 2.2171059-.1162033 3.2434959-1.1917419.8820267-.9242554 1.1894341-2.3722076.913765-4.3036652-.956768-6.6966171-3.0295105-9.9616089-6.9082909-10.8446579z" fill="#474c5b"/><path d="m52.9013443 80.689537c-3.8787804.883049-5.9515228 4.1480408-6.9082909 10.8446579-.2756653 1.9314575.0314827 3.3794098.9135132 4.3036652 1.0263863 1.0755386 2.6102524 1.1917419 3.2434921 1.1917419.0227776 0 .0447922-.0002594.0655251-.0005112l.1051979 1.0471191c-.0522156.0015335-.1113434.0025635-.1768684.0025635-.7630081 0-2.6791039-.1469193-3.9860229-1.5068207-1.1226311-1.1687012-1.527298-2.9135666-1.2024879-5.1859589 1.0171738-7.1217575 3.4098625-10.7532806 7.7432251-11.7254105z" fill="#474c5b"/><path d="m44.8966599 90.0971527h1.598774c1.041748-5.6730728 3.0732498-8.4566116 6.6491966-9.1896057h.4023666c3.5759506.7329941 5.6074524 3.5165329 6.6491966 9.1896057h1.5987434c-1.0780602-6.1040421-3.3196068-9.4128647-7.1362228-10.5323257v-3.8395538h-2.6258354v3.8396149c-3.8165779 1.119461-6.0581589 4.4283217-7.136219 10.5322646z" fill="#27a2db"/><circle cx="56.47" cy="97.629" fill="#2f4859" r="1.108"/><circle cx="50.468" cy="97.629" fill="#2f4859" r="1.108"/><circle cx="87.873" cy="89.705" fill="#27a2db" r="3.859"/><circle cx="87.873" cy="89.705" fill="#4d5c7d" r="2.474"/><circle cx="87.873" cy="89.705" fill="#2f4859" r="1.217"/><path d="m67.813118 37.3140564c1.1558533 1.6047401 3.0248108 2.5291634 4.8783569 3.2187538s3.7960892 1.2209396 5.4517212 2.3026314c3.1225433 2.0400734 4.8157883 6.0573273 4.0956879 9.7170525-.5966873 3.0325241-2.400528 4.8013573-4.2108536 7.3063431 1.3612366-.5030098 2.4520569-.4064827 3.6695251-1.1962585 1.4215622-.9221649 2.7376556-2.0452614 3.691124-3.4460144.4113312-.60429.7520523-1.2538605 1.0655136-1.914238 5.3617172-11.2956161-.7800064-20.3420296-2.753479-21.9893894-1.4664383-1.2241116-3.1952972-2.0991383-4.9755249-2.7917194-2.8510666-1.1091785-6.1085739-1.7578602-8.9302292-.575882-1.4503098.6075306-3.5904922 2.1008415-3.6998138 3.8407326-.107132 1.7051581.7392196 4.1691168 1.7179718 5.5279883z" fill="#474c5b"/><path d="m79.2449417 24.2873459c-2.9457397-2.1178589-6.8830566-2.2363892-10.4733276-1.7144165-2.2418823.3259277-4.4729614.8763428-6.4938316 1.9001465-2.7196045 1.3777466-12.2279663 10.1950684-9.0422363 24.6773682.1862183.8466797.4068604 1.6881104.7211304 2.4960938.3844604.9882812.9119263 1.9102173 1.524292 2.7766113.4397583 2.9784546.1193848 9.065918-10.642334 6.779541 0 0-.564209 3.2262573 6.3571777 5.6140747 7.1859131 2.479126 11.6295013-.4643021 10.7998619-7.0513229-.1171722-.3251076-1.3361702-.1227455-2.6093102-4.5171585-.6699219-1.8989258-1.1445923-3.8372192-1.0797119-5.8409424.1431885-4.4211426 3.1705322-8.6122437 7.3226891-10.1376343 2.2015381-.8087769 4.5879517-.9050903 6.9136963-1.2080078 2.3258057-.3029175 4.7319336-.8731079 6.4953003-2.4195557 1.4932251-1.3094482 3.1279297-3.9312744 3.4585571-5.9303589.3374023-2.0397339-1.7378541-4.3358155-3.2519532-5.4244385z" fill="#4d5c7d"/><path d="m53.4546394 50.4003296s3.7802086 10.5315666-9.5479012 8.4408798c0 0-.1388779 3.3193779 3.0230331 6.2330627 3.1619072 2.913681 8.320385-.4836807 8.320385-.4836807l2.9668808-8.1013985-4.2053261-9.2338524z" fill="#4d5c7d"/><path d="m87.8906631 49.2026901s-3.5680695 11.7292061 9.7600403 9.6385193c0 0 .1388779 3.3193779-3.0230331 6.2330627-3.161911 2.913681-8.3203888-.4836807-8.3203888-.4836807l-2.9668808-8.1013985 4.2053299-9.2338524z" fill="#474c5b"/></svg>