<svg enable-background="new 0 0 140 140" height="512" viewBox="0 0 140 140" width="512" xmlns="http://www.w3.org/2000/svg"><circle cx="70" cy="70" fill="#e05b49" r="64"/><path d="m90.6314011 39.3050003h-41.259945v22.5499878c0 6.2600098 2.8099976 11.8499756 7.2199707 15.6300049l10.5200157 10.5200195v16.3199463l-12.0300255 5.2300415 23.8155479 23.8155441c27.3125-3.8006592 49.0949707-24.829216 54.0329056-51.7610397z" opacity=".1"/><path d="m67.112961 80.287079h5.774084v25.416248h-5.774084z" fill="#ebf0f3"/><path d="m49.370575 39.3035088v22.5484619c0 11.3933678 9.236084 20.6294518 20.6293945 20.6294518h.000061c11.3933105 0 20.6293945-9.236084 20.6293945-20.6294518v-22.5484619z" fill="#ebf0f3"/><path d="m51.3702087 51.0737114v10.7783203c0 10.2724571 8.3574219 18.629879 18.6298828 18.629879s18.6289062-8.3574219 18.6289062-18.629879v-10.7783203z" fill="#fcd462"/><path d="m84.9153366 109.5593185-14.9153366-6.4856567-14.9153404 6.4856567z" fill="#ebf0f3"/><g fill="#f7be56"><path d="m76.4904633 66.0516586h-5.463501c-.9143066 0-1.6555786.7412109-1.6555786 1.6555786v5.4634399c0 .9143677.741272 1.6555786 1.6555786 1.6555786h5.463501c.9143066 0 1.6555786-.7412109 1.6555786-1.6555786v-5.4634399c0-.9143676-.741272-1.6555786-1.6555786-1.6555786z"/><path d="m67.9314194 62.9343681-3.8588028-3.8677559c-.6457596-.6472626-1.6940308-.6485214-2.3413353-.0027161l-3.8677139 3.858757c-.6473045.6458054-.6484756 1.6940765-.0027122 2.3413391l3.8587952 3.8677521c.6457634.6472626 1.6940384.6485214 2.3413391.0027161l3.8677139-3.858757c.6473083-.6458053.6484756-1.6940765.002716-2.3413353z"/><path d="m78.6765442 56.2108994-4.1740723-3.5251884c-.6985245-.5899315-1.7430954-.5019417-2.3330688.1966286l-3.5251465 4.1740303c-.5899734.6985703-.5018997 1.7431374.1966248 2.3330688l4.1740799 3.5251884c.6985168.5899315 1.7430954.5019417 2.3330688-.1966286l3.5251465-4.1740303c.5899734-.6985703.5018921-1.7431374-.1966324-2.3330688z"/></g><g fill="#fff" opacity=".25"><path d="m56.732712 41.288006h3.459961v17.760315h-3.459961z"/><path d="m56.7513885 62.3489189c.0964966 4.0664635 1.3582153 7.8446617 3.4810791 11.0019493h3.4818726c-2.1277466-3.1585693-3.4051514-6.9314575-3.5027466-11.0019493z"/></g></svg>