<svg enable-background="new 0 0 140 140" height="512" viewBox="0 0 140 140" width="512" xmlns="http://www.w3.org/2000/svg"><circle cx="70" cy="70" fill="#334d5c" r="64"/><path d="m106.0306473 33.9649696c-9.6298828-9.6300049-22.4299316-14.9299927-36.039917-14.9299927-13.6199951 0-26.4200439 5.2999878-36.0499268 14.9299927-9.6101074 9.6199951-14.9001465 22.4199829-14.9001465 36.049984s5.2900391 26.4300537 14.9001465 36.0400391c.5198975.5199585 1.0599365 1.0299683 1.6098633 1.5299683l25.8151855 25.8189697c2.8255616.3812866 5.7041016.5960693 8.6341553.5960693 35.3461914 0 64.0000076-28.6538086 64.0000076-64 0-2.9424438-.2161865-5.8330078-.600708-8.6700401z" opacity=".1"/><path d="m65.2716827 106.7628021c21.8947601-4.4064713 40.6749573-23.1866684 45.0815125-45.0815125.5927811-2.9449997-1.247406-5.8389397-4.1471329-6.6237297l-59.260891-16.0388184c-2.6346016-.7130203-5.0490532 1.7014313-4.3360329 4.3360367l16.0388603 59.2609367c.7847482 2.8996812 3.6786882 4.7398683 6.623684 4.1470872z" fill="#f7be56"/><path d="m65.2775955 106.7630157c21.8875122-4.4088898 40.6672745-23.1893387 45.0751266-45.0770226.5931244-2.945343-1.247406-5.8398018-4.1476974-6.6242905l-4.9840088-1.3483543c-4.6739655 21.1637421-22.7476578 39.2374344-43.9114037 43.9255524l1.3430023 4.9738312c.783413 2.9016266 3.6786462 4.7437973 6.624981 4.1502838z" fill="#fcd462"/><path d="m66.3614044 73.3599548c-.0412827-.0187454-.0863495-.0412674-.1314163-.0562744-.0450439-.0149841-.1238403-.0112915-.112587.037529zm0 0c-.0412827-.0187454-.0863495-.0412674-.1314163-.0562744-.0450439-.0149841-.1238403-.0112915-.112587.037529zm1.8243485 2.3874131c1.4714508-1.4714508 1.4676666-3.8550644-.0000687-5.3227997-1.4714737-1.4714661-3.851326-1.471489-5.322773-.0000458-1.4677811 1.4677811-1.4677582 3.847641.0037117 5.3191071 1.4677353 1.4677352 3.8513489 1.4715194 5.31913.0037384zm-4.3581429-4.7860337c.0112495-.0638046.060051-.1126099.1013374-.1614075.1914444-.1989594.40168-.4091949.6719131-.4692459.1088562-.0262299.2214584-.0262527.3303375-.0224991.4129257-.0000229.8220978.0037155 1.2350006.0037613.2214355.0037766.4692001.0112457.6268768.1689224.0412827.0412827.0712967.1013565.0487747.1538925-.0112228.0337677-.0487976.0563126-.0788116.0788116-.2627487.1726608-.439209.4542389-.6156235.7207413-.2252426.3453445-.4691772.6794128-.7619781.9646988l.1350784-.1576309c-.08255.0375061-.1200714.1726379-.2064514.1539001-.0262756-.0112534-.0450439-.030014-.0638046-.0487823-.1651688-.1651611-.3265762-.3340912-.4954987-.5030136-.0976028-.0976028-.198967-.1989594-.3115692-.2815094-.1801758-.1276627-.4053726-.2027435-.5443039-.379158-.0525359-.0600509-.0900649-.1426696-.0712775-.2214813zm1.8017845 2.1021042c-.015007-.090065.0375519-.1801987.1050873-.2402267.0638351-.0638275.1501846-.1051407.2252426-.1501389.2890701-.1764832.5217819-.4467239.6419296-.7620697.0487976-.1163406.0788116-.2364426.1425934-.345314.1276169-.2101898.3603973-.3303375.5818787-.424202.0600052-.0224762.1126099-.0450211.1726379-.0375061.0788116.0112686.1426392.0675888.1989365.1238785.0750809.0750809.1576767.1501617.2214813.2365112.1652145.232666.2290192.5142212.2853088.7957764.022522.09758.0412903.1989136.0637894.2965622.052536.255249.1051407.5104828.0938644.7694702-.0075378.2553024-.0901108.5180435-.2740402.701973-.1839294.1839371-.4767151.2590179-.709465.1464081-.1576538-.0825958-.2627258-.2327576-.3828506-.3603973-.1801682-.1951981-.3941574-.3490753-.6343842-.4542084-.1089172.0188293-.2177505.0450897-.3265762.0713425-.0262985.0037537-.0525818.0075378-.0788803.0037766-.022522-.0074921-.037529-.0224915-.0525589-.0375214-.037529-.037529-.0788193-.0713043-.1163712-.1088562-.0712738-.0638505-.1463547-.1314164-.1576233-.225258zm.4579697 1.0060043c.1388626.2665253.2402267.4729996.4654617.6832123.1689224.1614075.4729767.3603439.405365.6381454-.0562439.2364655-.3490448.3040085-.5893173.3340912-.1764374.0187607-.3453598.037529-.5217819.0563126-.1163406.0112305-.2364426.0262146-.360321.0299911-.1464233.0037842-.2890472-.0037537-.4391861-.0112915-.2853088-.0149612-.5856094-.0374832-.833374-.187645-.1876602-.1201248-.330307-.3829117-.1951981-.5555496.1276398-.1726837.3904266-.1276398.5893631-.1989594.1313782-.0488052.2364883-.1464081.3378525-.2477646.2815322-.2815321.814537-1.1824034 1.1411361-.5405425zm-3.1794777-.0937957c-.180172-.3828964.0750809-.8633652.1126556-.9159698.0337715-.0563126.0562935-.1238785.0675659-.1876678.0638046-.2289963.120121-.4579697.180172-.6832123.030014-.1200943.067543-.2477112.1651421-.3227692.1614571-.1164093.3828926-.0225449.5518417.0787659.3978996.2402725.7582436.5330811 1.0773506.8671188l-.1914673-.1614075c.1126328.0976028.2214813.1989365.292778.3303604.0638351.1313705.0825729.3003159-.0000229.4204407-.0449982.067543-.1125793.112587-.1801453.1576538-.0900879.0600281-.1801529.120079-.2815323.1538696-.1614151.0413055-.3753815.0300598-.4429245.1801758-.0225677.0525818-.0225449.1051178-.0413055.1538925-.0187912.0488434-.0563126.0863724-.0938416.1239014l-.514267.514267c-.0224991.0224991-.0450439.0450439-.0751038.0525589-.0412636.0187607-.0900879 0-.1313477-.0188141-.2665746-.1388169-.3641507-.4691697-.495548-.7431641zm3.2095146-.6344376.2440033.0187454c-.0412827-.0187454-.0863495-.0412674-.1314163-.0562744-.0450439-.0149841-.1238403-.0112915-.112587.037529zm.2440033.0187454c-.0412827-.0187454-.0863495-.0412674-.1314163-.0562744-.0450439-.0149841-.1238403-.0112915-.112587.037529zm0 0c-.0412827-.0187454-.0863495-.0412674-.1314163-.0562744-.0450439-.0149841-.1238403-.0112915-.112587.037529z" fill="#d15241"/><path d="m63.0534439 54.8357735c-.0412865-.0187416-.0863533-.0412636-.1314201-.0562706-.0450439-.0149841-.1238365-.0112953-.112587.037529zm0 0c-.0412865-.0187416-.0863533-.0412636-.1314201-.0562706-.0450439-.0149841-.1238365-.0112953-.112587.037529zm1.8243485 2.387413c1.4714432-1.471447 1.4676666-3.8550568-.0000687-5.3227921-1.4714737-1.4714737-3.851326-1.4714966-5.322773-.0000458-1.4677811 1.4677811-1.4677582 3.8476334.0037117 5.3191032 1.4677353 1.4677392 3.8513451 1.4715196 5.31913.0037347zm-4.3581429-4.7860298c.0112495-.0638084.060051-.1126099.1013374-.1614113.1914444-.1989594.4016762-.4091911.6719131-.4692421.1088524-.0262337.2214622-.0262566.3303337-.0224991.4129295-.0000229.8221016.0037117 1.2350044.0037575.2214394.0037804.4692001.0112495.626873.1689224.0412865.0412865.0713005.1013603.0487785.1538963-.0112267.0337715-.0488014.0563164-.0788155.0788155-.2627449.172657-.4392052.4542351-.6156235.7207375-.2252388.3453407-.4691734.679409-.7619781.9646988l.1350822-.1576271c-.0825462.0375061-.1200752.1726341-.2064514.1538925-.0262794-.0112495-.0450439-.030014-.0638084-.0487785-.1651649-.1651649-.3265762-.3340912-.4954987-.5030136-.0976028-.0976028-.1989632-.1989594-.3115692-.2815094-.1801758-.1276627-.4053688-.2027397-.5443001-.379158-.0525358-.0600511-.0900648-.142666-.0712774-.2214814zm1.8017807 2.1021003c-.015007-.090065.0375519-.1801949.1050949-.2402229.0638275-.0638313.1501808-.1051407.2252388-.1501389.2890701-.1764832.5217781-.4467201.6419258-.7620697.0488014-.1163445.0788155-.2364426.1425972-.3453178.1276169-.210186.3603935-.3303337.5818787-.424202.0600052-.0224762.1126099-.0450211.1726303-.0375061.0788193.0112724.1426468.0675888.1989441.1238823.0750809.0750809.1576691.1501617.2214813.2365112.1652145.232666.2290192.5142212.2853088.7957764.022522.0975761.0412903.1989136.0637894.2965622.052536.2552528.1051407.5104828.0938644.7694702-.0075378.2552986-.0901108.5180473-.2740402.7019768s-.4767151.2590103-.709465.1464005c-.1576538-.082592-.2627258-.2327538-.3828468-.3603897-.1801758-.1952057-.394165-.3490753-.634388-.454216-.1089211.0188332-.2177505.0450897-.3265762.0713463-.0263023.0037575-.0525818.0075378-.0788841.0037804-.022522-.0074921-.037529-.0224991-.0525589-.037529-.037529-.037529-.0788155-.0713005-.1163673-.1088524-.0712739-.0638505-.1463548-.1314164-.1576272-.2252618zm.4579697 1.0060082c.1388664.2665253.2402267.4729996.4654655.6832123.1689224.1614075.4729767.3603439.4053688.6381454-.0562477.2364655-.3490524.3040085-.5893211.3340874-.1764412.0187645-.3453636.037529-.5217819.0563164-.1163406.0112267-.2364426.0262108-.3603249.0299911-.1464233.0037804-.2890472-.0037575-.4391823-.0112953-.2853127-.0149612-.5856094-.0374832-.8333702-.1876411-.1876678-.1201248-.3303108-.3829155-.1952057-.5555496.1276398-.1726837.3904305-.1276398.5893669-.1989632.1313744-.0488014.2364922-.1464005.3378487-.2477608.2815323-.2815323.8145409-1.1823997 1.1411362-.5405426zm-3.1794739-.0937996c-.1801758-.3828926.0750809-.8633614.1126518-.915966.0337715-.0563164.0562935-.1238823.0675659-.187664.0638084-.2290001.1201248-.4579735.1801758-.6832123.030014-.1201019.0675392-.247715.1651421-.322773.1614571-.1164131.3828926-.0225449.5518379.0787697.3978996.2402687.7582474.5330734 1.0773544.8671188l-.1914711-.1614113c.1126328.0976028.2214851.1989403.2927818.3303566.0638313.1313744.0825729.3003197-.0000229.4204445-.0449944.067543-.1125832.112587-.1801491.15765-.0900879.0600281-.1801491.120079-.2815323.1538734-.1614075.0413094-.3753777.0300598-.4429207.180172-.0225639.0525818-.022541.1051178-.0413055.1538963-.0187874.0488472-.0563164.0863762-.0938454.1239014l-.5142632.514267c-.0224991.0224991-.0450439.0450439-.0751038.0525589-.0412636.0187645-.0900879 0-.1313515-.0188103-.2665708-.1388206-.3641508-.4691772-.4955442-.7431717zm3.2095108-.6344337.2440071.0187416c-.0412865-.0187416-.0863533-.0412636-.1314201-.0562706-.045044-.0149842-.1238365-.0112953-.112587.037529zm.2440071.0187416c-.0412865-.0187416-.0863533-.0412636-.1314201-.0562706-.0450439-.0149841-.1238365-.0112953-.112587.037529zm0 0c-.0412865-.0187416-.0863533-.0412636-.1314201-.0562706-.0450439-.0149841-.1238365-.0112953-.112587.037529z" fill="#d15241"/><path d="m84.0588303 66.6637726c-.0412903-.0187454-.0863571-.0412674-.131424-.0562744-.0450439-.0149841-.1238327-.0112915-.112587.037529zm0 0c-.0412903-.0187454-.0863571-.0412674-.131424-.0562744-.0450439-.0149841-.1238327-.0112915-.112587.037529zm1.8243484 2.387413c1.4714432-1.4714508 1.4676666-3.8550568-.0000687-5.3227959-1.4714737-1.4714699-3.851326-1.4714928-5.3227768-.0000458-1.4677811 1.4677849-1.4677582 3.8476372.0037155 5.3191032 1.4677354 1.467743 3.8513413 1.4715196 5.31913.0037385zm-4.3581467-4.7860336c.0112534-.0638046.060051-.1126099.1013412-.1614075.1914444-.1989594.4016724-.4091949.6719131-.4692459.1088486-.0262337.2214584-.0262566.3303299-.0224991.4129333-.0000229.8221054.0037117 1.2350082.0037575.2214355.0037804.4692001.0112495.6268692.1689262.0412903.0412865.0713043.1013603.0487823.1538925-.0112305.0337715-.0488052.0563164-.0788193.0788193-.2627411.1726532-.4392014.4542313-.6156235.7207336-.225235.3453445-.4691696.6794128-.7619781.9646988l.1350861-.1576233c-.08255.0375061-.120079.1726303-.2064514.1538925-.0262833-.0112534-.0450439-.030014-.0638123-.0487823-.1651611-.1651611-.3265762-.3340912-.4954987-.5030136-.0976028-.0976028-.1989594-.1989594-.3115692-.2815094-.1801758-.1276627-.405365-.2027359-.5442963-.379158-.0525357-.060051-.0900647-.142662-.0712812-.2214813zm1.8017807 2.1021042c-.015007-.090065.0375519-.1801987.1050949-.2402267.0638275-.0638275.1501846-.1051407.2252426-.1501389.2890701-.1764832.5217743-.4467163.641922-.7620697.0488052-.1163406.0788193-.2364426.142601-.345314.1276169-.2101898.3603897-.3303375.581871-.424202.0600052-.0224762.1126099-.0450211.1726379-.0375061.0788193.0112686.1426468.0675888.1989365.1238785.0750809.0750809.1576767.1501617.221489.2365112.1652069.232666.2290192.5142212.2853088.7957764.022522.09758.0412827.1989136.0637817.2965622.052536.2552567.1051407.5104828.0938721.7694702-.0075378.2553024-.0901108.5180435-.2740402.7019806-.1839294.1839294-.4767151.2590103-.7094727.1464005-.1576462-.0825958-.2627182-.2327576-.382843-.3603897-.1801758-.1952057-.394165-.3490753-.6343842-.454216-.1089249.0188293-.2177505.0450897-.3265762.0713425-.0263062.0037613-.0525818.0075378-.0788879.0037842-.022522-.0074921-.037529-.0224991-.0525589-.037529-.037529-.037529-.0788116-.0713043-.1163635-.1088562-.0712737-.0638506-.1463546-.1314165-.1576309-.225258zm.4579773 1.0060043c.1388626.2665253.2402191.4729996.4654617.6832123.1689224.1614075.4729767.3603439.405365.6381454-.0562439.2364655-.3490524.3040085-.5893173.3340912-.176445.0187607-.3453674.037529-.5217819.0563126-.1163406.0112305-.2364426.0262146-.3603287.0299911-.1464233.0037842-.2890472-.0037537-.4391785-.0112915-.2853165-.0149612-.5856094-.0374832-.833374-.187645-.1876678-.1201248-.330307-.3829117-.1952057-.5555496.1276398-.1726837.3904343-.1276398.5893707-.1989594.1313705-.0488052.2364883-.1464005.3378448-.2477646.2815324-.2815322.8145448-1.1823958 1.1411439-.5405425zm-3.1794815-.0937958c-.1801758-.3828964.0750809-.8633652.1126556-.9159698.0337677-.0563126.0562897-.1238785.0675659-.1876602.0638046-.2290039.1201248-.4579773.1801758-.6832123.030014-.1201019.0675354-.2477188.1651382-.3227768.1614609-.1164093.3828964-.0225449.5518417.0787735.3978958.2402649.7582474.5330734 1.0773544.8671188l-.1914749-.1614151c.1126328.0976028.221489.1989441.2927856.3303604.0638275.1313705.0825729.3003159-.0000229.4204407-.0449982.067543-.112587.112587-.1801529.1576538-.0900879.0600281-.1801453.120079-.2815323.1538696-.1614075.0413132-.3753738.0300598-.4429169.1801758-.0225677.0525818-.0225449.1051178-.0413055.1538925-.0187912.048851-.0563202.08638-.0938492.1239014l-.5142593.514267c-.0224991.0224991-.0450439.0450439-.0751038.0525589-.0412674.0187607-.0900879 0-.1313553-.0188065-.2665708-.1388244-.3641507-.4691772-.4955442-.7431717zm3.2095108-.6344375.2440109.0187454c-.0412903-.0187454-.0863571-.0412674-.131424-.0562744-.0450438-.0149842-.1238326-.0112915-.1125869.037529zm.244011.0187454c-.0412903-.0187454-.0863571-.0412674-.131424-.0562744-.0450439-.0149841-.1238327-.0112915-.112587.037529zm0 0c-.0412903-.0187454-.0863571-.0412674-.131424-.0562744-.0450439-.0149841-.1238327-.0112915-.112587.037529z" fill="#d15241"/><g fill="#4d5c7d"><path d="m72.6192093 64.7956848c.4229202-.4229202.4228821-1.1085472-.0000381-1.5314674s-1.1085434-.4229546-1.5314636-.0000343-.4229584 1.1086121-.0000381 1.5315323 1.1086196.4228896 1.5315398-.0000306z"/><path d="m78.6497192 79.0104675c.4229279-.4229202.4228897-1.1085434-.0000305-1.5314636s-1.1085434-.4229507-1.5314636-.0000305-.4229584 1.1086121-.0000381 1.5315323 1.108612.4228821 1.5315322-.0000382z"/><path d="m64.1853256 89.4578552c.4229279-.4229202.4228897-1.1085434-.0000305-1.5314636s-1.1085434-.4229584-1.5314674-.0000381c-.4229202.4229202-.4229546 1.1086121-.0000343 1.5315323s1.1086158.4228897 1.5315322-.0000306z"/><path d="m58.070816 70.9477539c.422924-.4229202.4228897-1.1085434-.0000343-1.5314636-.4229202-.4229202-1.1085434-.4229584-1.5314636-.0000381-.4229202.4229279-.4229546 1.1086197-.0000343 1.5315399s1.108612.422882 1.5315322-.0000382z"/><path d="m91.2362137 59.8710823c.4229202-.4229202.4228821-1.1085434-.0000381-1.5314636-.4229202-.422924-1.1085434-.4229584-1.5314636-.0000381-.4229202.422924-.4229584 1.1086159-.0000381 1.5315361s1.1086196.4228858 1.5315398-.0000344z"/><path d="m52.1861763 49.8468971c.4229202-.4229202.4228859-1.1085434-.0000343-1.5314636-.422924-.422924-1.1085472-.4229584-1.5314674-.0000381-.4229202.422924-.4229546 1.1086159-.0000343 1.5315361s1.1086158.4228859 1.531536-.0000344z"/></g><path d="m61.0020714 83.7596207 1.5771408-1.5771408-5.4554939-6.0187607z" fill="#f0a67a"/><path d="m72.3562088 83.7724838.3608093-4.7452697-3.6505127 5.0237808z" fill="#f0a67a"/><path d="m76.8069763 57.5449142-4.8879242-6.3316764 2.6787796 8.540821z" fill="#f0a67a"/><path d="m60.9761276 62.8684464-7.2732773-3.6767655 7.8564911 6.0582352z" fill="#f0a67a"/><g fill="#44c4a1"><path d="m65.0638428 83.6546326c.1048584-.042305.1861191-.135994.2960968-.1621933.2199402-.05233.454422.1842041.6565323.0828552.0483093-.0242081.0858459-.0650024.1222458-.10495.0826569-.0906677.1653595-.1813431.2480164-.2720108.1287308-.1412048.2652206-.3013077.2657928-.4924164.0004272-.1495743-.0836868-.2848587-.1228333-.4292755-.0910187-.3356476.055687-.7345581-.1449585-1.0186386-.0885925-.1253128-.2295532-.2011948-.3653717-.2726517-.1551208-.0816803-.3144684-.1646881-.4883041-.1873856-.2166138-.0282669-.4442978.0450974-.6035843.1945267l.3554993-.3471298c-.390213.1122284-.6580429.4606247-.8975677.7885437-.1028976.1408844-.2090988.2896652-.2324905.4626236-.0309982.2297974.0892944.4491196.1499557.672966.0666351.2458344.0628967.5104752.1622238.7449875.0993194.2345658.3625564.4354935.5987472.340149z"/><path d="m52.1882706 65.3059158c.1048584-.0422974.1861115-.135994.296093-.1621857.219944-.05233.4544182.1841965.6565361.0828476.0483093-.0242081.0858421-.0650024.1222458-.10495.082653-.0906601.1653595-.1813431.2480125-.2720108.1287308-.1412048.2652245-.3013.2657928-.4924164.0004234-.1495667-.083683-.2848587-.1228294-.4292679-.0910187-.3356514.0556793-.7345657-.1449661-1.0186462-.0885887-.125309-.2295494-.2011948-.3653679-.2726479-.155117-.0816803-.3144722-.1646881-.4883041-.1873894-.21661-.0282669-.4443016.0451012-.6035843.1945305l.3554993-.3471336c-.390213.1122322-.6580429.4606247-.8975677.7885475-.1028938.1408882-.2090988.2896614-.2324944.4626236-.0309944.2297974.0893021.4491234.1499634.6729622.0666313.245842.0628929.5104752.1622238.7449875.0993117.2345658.3625487.4354936.5987472.340149z"/><path d="m55.7658119 49.2495155c.1048584-.0423012.1861115-.135994.296093-.1621895.219944-.05233.4544182.1842003.6565361.0828514.0483093-.0242081.0858421-.0650024.1222458-.10495.082653-.0906639.1653595-.1813469.2480125-.2720108.1287308-.1412048.2652245-.3013039.2657928-.4924126.0004234-.1495743-.083683-.2848587-.1228294-.4292755-.0910187-.3356476.0556793-.7345619-.1449661-1.0186424-.0885887-.125309-.2295494-.2011948-.3653679-.2726479-.155117-.0816803-.3144722-.1646881-.4883041-.1873894-.21661-.0282669-.4443016.0451012-.6035843.1945305l.3554993-.3471336c-.390213.1122322-.6580429.4606247-.8975677.7885475-.1028938.1408844-.2090988.2896614-.2324944.4626236-.0309944.2297974.0893021.4491196.1499634.672966.0666313.2458344.0628929.5104713.1622238.7449837.0993118.2345658.3625526.4354936.5987472.340149z"/><path d="m74.7555618 72.5862274c.1048584-.0422974.1861115-.135994.2960968-.1621857.2199402-.05233.454422.1841965.6565323.0828476.0483093-.0242081.0858459-.0650024.1222458-.10495.0826569-.0906601.1653595-.1813431.2480164-.2720108.1287308-.1412048.2652206-.3013.2657928-.4924164.0004196-.1495667-.0836868-.2848587-.1228333-.4292679-.0910187-.3356476.055687-.7345657-.1449585-1.0186462-.0885925-.1253128-.2295532-.2011948-.3653717-.2726517-.1551208-.0816727-.3144684-.1646805-.4883041-.1873856-.2166138-.0282669-.4442978.045105-.6035843.1945343l.3554993-.3471375c-.390213.112236-.6580429.4606247-.8975677.7885437-.1028976.140892-.2090988.2896652-.2324905.4626312-.0309982.2297974.0892944.4491196.1499557.6729584.0666351.245842.0628967.5104752.1622238.7449875.0993194.2345659.3625564.4354937.5987472.3401491z"/><path d="m64.2330399 65.1267014c.1048584-.0422974.1861115-.135994.2960892-.1621857.2199478-.0523376.454422.1841965.6565399.0828476.0483093-.0242081.0858459-.0650024.1222458-.10495.0826492-.0906601.1653595-.1813431.2480087-.2720108.1287308-.1412048.2652283-.3013.2657928-.4924164.0004272-.1495667-.0836792-.2848549-.1228256-.4292717-.0910187-.3356476.0556793-.7345657-.1449661-1.0186424-.0885925-.125309-.2295532-.2011948-.3653717-.2726479-.1551132-.0816803-.3144684-.1646881-.4883041-.1873894-.2166061-.0282669-.4442978.0451012-.6035767.1945305l.3554916-.3471336c-.390213.1122322-.6580391.4606247-.8975677.7885475-.10289.1408844-.2090988.2896576-.2324905.4626236-.0309944.2297974.0892982.4491196.1499596.6729622.0666351.2458344.0628967.5104752.1622276.7449875.0993117.2345658.3625487.4354935.5987472.340149z"/><path d="m81.155632 57.3038597c.1048584-.0423012.1861115-.1359978.2960968-.1621895.2199402-.05233.454422.1842003.6565323.0828514.0483093-.0242081.0858459-.0650063.1222458-.10495.0826569-.0906639.1653595-.1813469.2480164-.2720108.1287308-.1412048.2652206-.3013039.2657928-.4924164.0004196-.1495705-.0836868-.2848587-.1228333-.4292717-.0910187-.3356476.055687-.7345657-.1449585-1.0186424-.0885925-.1253128-.2295532-.2011948-.3653717-.2726479-.1551208-.0816803-.3144684-.1646881-.4883041-.1873894-.2166138-.0282669-.4442978.0451012-.6035843.1945305l.3554993-.3471336c-.390213.1122322-.6580429.4606209-.8975677.7885437-.1028976.1408882-.2090988.2896614-.2324905.4626274-.0309982.2297974.0892944.4491196.1499557.6729622.0666351.2458382.0628967.5104752.1622238.7449875.0993194.234562.3625564.4354936.5987472.340149z"/></g><path d="m69.9872971 120.9619141c-13.6308594 0-26.4316406-5.2939453-36.0439453-14.90625-9.6123047-9.6113281-14.9052734-22.4121094-14.9052734-36.0439453 0-13.6308632 5.2929688-26.4316444 14.9052734-36.0439491 9.6279297-9.6279297 22.4287109-14.9296875 36.0449219-14.9296875 13.6152344 0 26.4150391 5.3017578 36.0429688 14.9296875 9.6279297 9.6269531 14.9306641 22.4277344 14.9306641 36.0439491s-5.3027344 26.4169922-14.9306641 36.0439453c-9.6113283 9.6123047-22.4121095 14.90625-36.0439454 14.90625zm-31.8544922-16.3203125.8007812.7041016c8.5664062 7.5380859 19.6005859 11.6904297 31.0673828 11.6904297 12.5771484 0 24.3876953-4.8847656 33.2558594-13.7539062 8.8867188-8.8867188 13.78125-20.7021484 13.78125-33.2705078 0-11.4521523-4.1611328-22.4804726-11.7177734-31.0556679l-.7041016-.7988281zm31.8554687-81.6806679c-12.5673828 0-24.3828125 4.8945312-33.2705078 13.78125-17.4990234 17.4990234-18.4052734 45.7529335-2.0634766 64.3242188l.7041016.8007812 66.4833984-66.4833984-.7988281-.7041016c-8.5742187-7.5566406-19.6035156-11.71875-31.0546875-11.71875z" fill="#e56353"/></svg>