<svg enable-background="new 0 0 140 140" height="512" viewBox="0 0 140 140" width="512" xmlns="http://www.w3.org/2000/svg"><circle cx="70" cy="70" fill="#45b39c" r="64"/><path d="m28.0500031 69.3883362c.2700195.289978.5400391.5700073.8300171.8399658l27.1799927 27.1700439v14.1199951l21.9631958 21.9631958c30.2890015-3.7910767 53.9918823-28.7324829 55.8474731-59.5825195l-21.6906738-21.6906776c-2.460022-3.1799927-6.3300171-5.2300415-10.5800171-5.1799927-2.9499512.039978-5.6699829 1.0499878-7.8499756 2.7299805-1.5599976 1.2000122-3.3300171 2.0599976-5.2000122 2.5200195l-2.8499756-2.8300171-.3699951-.3699951-.0100098.0100098c-.75-.6300049-1.7000122-1.0300293-2.75-1.0300293-1.8400269 0-3.3900146 1.1599731-3.9899902 2.789978l-1.4000244-1.4099731-.0100098.0100098c-.7799683-.8500366-1.8899536-1.3900146-3.1399536-1.3900146-1.8300171 0-3.3800049 1.1599731-3.9800415 2.7800293l-1.5-1.5c-.0199585-.0200195-.039978-.0400391-.0700073-.0700073l-.0299683-.0200195c-.7700195-.7399902-1.7999878-1.1900024-2.9500122-1.1900024-1.8400269 0-3.4000244 1.1799927-3.9899902 2.8200073l-1.4199829-1.460022c-.7800293-.8299561-1.8800049-1.3599854-3.1200562-1.3599854-2.3499756 0-4.2599487 1.9000244-4.2599487 4.2600098v.4400024c-2.5500488-.2399902-4.9800415-1.2000122-7.0599976-2.7600098-2.1900024-1.6500244-4.9300537-2.6300049-7.8800049-2.6199951-6.9500122 0-12.8200073 5.5800171-13.1500244 12.5200195-.1699829 3.6699828 1.1699829 7.0099525 3.4299927 9.489994z" opacity=".1"/><path d="m52.706028 83.966301-6.8739205-14.2354432 6.8739205-3.4507675h4.8237228z" fill="#fcd462"/><path d="m101.6029358 47.0325813c-2.9569778.0366669-5.6754684 1.0478592-7.8534012 2.7252769-2.5593872 1.9712105-5.6877975 3.0449791-8.9165192 2.9375916-6.7345963-.2239914-23.4943047-.1812782-30.2255096.1281395-3.2270622.1483383-6.3687973-.8856506-8.9529915-2.824173-2.1989555-1.6495323-4.9299355-2.626091-7.8870125-2.6252861-6.9482918.0018921-12.8207645 5.5873947-13.144371 12.5281448-.3541698 7.5962753 5.72402 13.8413086 13.2298431 13.793663 3.0447121-.0193253 5.8402557-1.0718307 8.0582848-2.822403 2.5605011-2.0208664 5.8150139-2.9364319 9.0752449-2.8316345 6.5462532.210434 23.1176987.1688843 29.660759-.1246796 3.258667-.1462097 6.5245743.7279816 9.110527 2.7162247 2.2400818 1.7223053 5.0487671 2.7392426 8.0935059 2.7199097 7.5057144-.0476379 13.5040512-6.3690872 13.0537415-13.9600525-.4114686-6.9361495-6.3542939-12.4468726-13.3021012-12.3607215z" fill="#4d5c7d"/><ellipse cx="104.439" cy="54.404" fill="#ebf0f3" opacity=".1" rx="3.931" ry="4.886" transform="matrix(.416 -.909 .909 .416 11.529 126.757)"/><ellipse cx="39.73" cy="55.287" fill="#ebf0f3" opacity=".1" rx="3.931" ry="4.886" transform="matrix(.416 -.909 .909 .416 -27.072 68.426)"/><path d="m82.5655899 48.0534782c-2.3558807 0-4.2656784 1.9097977-4.2656784 4.2657318 0-2.3559341-1.9097977-4.2657318-4.2656174-4.2657318-2.3558807 0-4.2656784 1.9097977-4.2656784 4.2657318 0-2.3559341-1.9097977-4.2657318-4.2656174-4.2657318-2.3558769 0-4.2656746 1.9097977-4.2656746 4.2657318 0-2.3559341-1.9097977-4.2657318-4.2656212-4.2657318-2.3558769 0-4.2656746 1.9097977-4.2656746 4.2657318v20.3551064 11.2919846l7.4418793 7.4419327h23.3432732l3.3400269-10.2003937v-8.5335236-20.3551063c0-2.3559342-1.9097977-4.2657319-4.2656174-4.2657319z" fill="#fcd462"/><path d="m56.058754 90.499764h30.77245v21.020666h-30.77245z" fill="#d15241"/></svg>