<svg enable-background="new 0 0 140 140" height="512" viewBox="0 0 140 140" width="512" xmlns="http://www.w3.org/2000/svg"><circle cx="70" cy="70" fill="#e05b49" r="64"/><path d="m106.0528946 39.7882957c-.7400513-.8599854-1.8300171-1.4099731-3.0500488-1.4099731h-66.0099526c-2.2300415 0-4.0300293 1.7999878-4.0300293 4.0299683v44.6300087c0 1.1700439.5100098 2.2200317 1.3099976 2.9700317l43.4989662 43.505127c31.6781006-3.8377686 56.2281418-30.7999268 56.2281418-63.5134888 0-.777832-.0311279-1.5480957-.0586548-2.3192139z" opacity=".1"/><path d="m85.0075073 101.7531662h-30.0150223l5.0226021-12.2668152h19.969822z" fill="#474c5b"/><path d="m32.9615288 78.4750061v8.562561c0 2.2269897 1.8051758 4.0322876 4.0322266 4.0322876h66.0124512c2.2269287 0 4.0322266-1.8052979 4.0322266-4.0322876v-8.562561z" fill="#ebf0f3"/><path d="m103.006134 38.3737869h-66.0123825c-2.2269859 0-4.0322609 1.8053322-4.0322609 4.0323181v41.642273h74.0770264v-41.642273c-.0000038-2.2269859-1.8053932-4.0323181-4.032383-4.0323181z" fill="#4d5c7d"/><path d="m38.027664 43.221733h63.944668v35.978695h-63.944668z" fill="#27a2db"/><path d="m89.9629898 99.9449921h-39.9259872c-1.098774 0-1.9894333.8906631-1.9894333 1.9893723 0 1.0987167.8906593 1.9893799 1.9894333 1.9893799h39.9259872c1.0986633 0 1.9893188-.8906631 1.9893188-1.9893799.0000001-1.0987092-.8906555-1.9893723-1.9893188-1.9893723z" fill="#ebf0f3"/><path d="m75.1511917 51.5454292c-1.9970016 0-3.8096848.7839622-5.1511917 2.0591164-1.341507-1.2751541-3.1541901-2.0591164-5.1511917-2.0591164-4.1319656 0-7.4815788 3.3496094-7.4815788 7.4815712 0 7.5912933 5.5520287 13.4553452 12.6327705 15.5721893 7.0807419-2.1168442 12.6327667-7.980896 12.6327667-15.5721893 0-4.1319618-3.3496094-7.4815712-7.481575-7.4815712z" fill="#e56353"/><path d="m67.7591858 70.6616211-4.5907745-12.0644379-2.1753769 4.5021096h-6.0004235v-.91708h5.425457l2.8506508-5.9010124 4.2737313 11.2297478 1.2233734-5.3287354h3.3190384l2.6285476-4.3552322 2.2935944 6.9560165 1.2824783-2.5058517.8167725.4173431-2.2819519 4.4600144-2.3562851-7.1458741-1.8655091 3.090664h-3.1058883z" fill="#ebf0f3"/></svg>