<svg enable-background="new 0 0 140 140" height="512" viewBox="0 0 140 140" width="512" xmlns="http://www.w3.org/2000/svg"><circle cx="70" cy="70" fill="#ea8953" r="64"/><path d="m49.8400421 67.2216644c-.0100098-.0300293-.0300293-.0400391-.0500488-.0600586l-.039978-.0400391-.0100098.0100098c-.0800171-.0699463-.1900024-.1098633-.3399658-.0898438 0 0-.1600342.1298828-.3099976.1398926l-.3099976-.3000488c-.0100098-.0198975-.0200195-.0299072-.0300293-.039917l-.0200195-.0100098c-.0499878-.039917-.0999756-.0599365-.1399536-.0599365-.0300293 0-.0599976.0100098-.0800171.0200195-.0200195.0098877-.0499878 0-.0700073.0098877l-.1500244-.1500244h-.0099487c-.0200195-.0200195-.0500488-.039917-.1100464-.039917l-.9199829-.9200439-.0100098.0100098c-.0499878-.0500488-.1199951-.0999756-.2299805-.1099854-.5700073-.0699463-.0499878.4699707-1.7299805.9000244-.1000366.0300293-.25.0599365-.3800049.0799561l-6.0300293-6.0299644c-.6199951-.6799927-1.5100098-1.1100464-2.5-1.1100464-1.8800049 0-3.4000244 1.5200195-3.4000244 3.4000244v39.6400108l31.2564087 31.2564697c1.9031372.1702881 3.8261719.2718506 5.7736206.2718506 29.8178101 0 54.8725586-20.3916016 61.9807129-47.9899902l-52.180725-52.1883507c-1.4199829-1.8099976-3.6300049-2.9799824-6.1099854-2.9799824-.3300171 0-.6400146.0299683-.9500122.0700073l-1.3499756-1.3500366c-.7000122-.6999512-1.5300293-1.2699585-2.460022-1.6599731-.9199829-.3900146-1.9400024-.6099854-3.0100098-.6099854-4.2799683 0-7.7600098 3.4799805-7.7600098 7.7599506 0 .2700195.0100098.5300293.0400391.7900391-3.2999878.8900146-5.7399902 3.8999634-5.7399902 7.4799805 0 2.1699829.8899536 4.1099854 2.3200073 5.5200195h-.0100098l1.2099609 1.2199707c.2399902 1.960022 1.210022 3.6799927 2.6400146 4.9000244l-.0100098.0100098 13.1199951 13.1199913-.8299561-.0599365c-.5500488-.0400391-1.0700073.0499268-1.5500488.25l-13.3399656-13.3500938h-.0100098c-.539978-.6099854-1.3200073-1.0099487-2.2000122-1.0099487-1.6099854 0-2.9199829 1.3099976-2.9199829 2.9199829 0 .75.289978 1.4299927.7600098 1.9500122l-.0100098.0099487 10.1099854 10.1099815c-.4500122-.0999756-.8699951-.1899414-1.25-.2900391-.9299927-.2399902-1.7299805-.4399414-2.4799805-.5599365l-7.9100342-7.8999596h-.0099487c-.2000122-.2399902-.4900513-.4000244-.8200073-.4000244-.6100464 0-1.1000366.5-1.1000366 1.1000366 0 .3299561.1500244.6199951.3900146.8199463l-.0299683.0400391 6.4499512 6.4499474c-.8499756.2399902-1.7399902.6800537-2.789978 1.4000244z" opacity=".1"/><g fill="#ebf0f3"><path d="m80.5759811 42.1695328c.5544434-1.0687256.8727417-2.2797852.8727417-3.5669556 0-4.2874146-3.4755859-7.7630024-7.7629395-7.7630024-.4053345 0-.800293.0405273-1.1889038.1004028-1.3728638-2.1884155-3.8001099-3.6480103-6.5740967-3.6480103-4.2873535 0-7.7630005 3.4755859-7.7630005 7.7630024 0 .2644653.0137329.5256348.0395508.7832642-3.303833.8917236-5.7383423 3.9012451-5.7383423 7.4869995 0 2.7032471 1.3834229 5.0814209 3.479187 6.4714966.3625488 3.9505005 3.6816406 7.0452881 7.7267456 7.0452881 2.795105 0 5.237854-1.4821777 6.6047974-3.6985474 1.1189575.6253662 2.4064941.9849854 3.7794189.9849854 4.2873535 0 7.7629395-3.4755859 7.7629395-7.7629395.0000001-1.5473022-.4579467-2.9853515-1.2380981-4.1959838z"/><circle cx="53.802" cy="56.842" r="2.923"/><circle cx="49.266" cy="60.863" r="1.098"/></g><path d="m103.654892 74.935112c-1.8648071 0-3.3765259 1.5117188-3.3765259 3.3765869v24.1617432h6.7531128v-24.1617432c0-1.8648682-1.5117188-3.3765869-3.3765869-3.3765869z" fill="#fcd462"/><path d="m36.260361 81.843315h69.005272v12.304097h-69.005272z" fill="#fcd462"/><path d="m39.721638 77.274422h61.012547v5.227327h-61.012547z" fill="#ebf0f3"/><path d="m50.2581635 73.887764h-10.5365258v3.6014328h14.1380653c.0000001-1.9890366-1.6124534-3.6014328-3.6015395-3.6014328z" fill="#64798a"/><path d="m40.3366852 102.4733887h-7.3681602v-39.6405983c0-1.8781433 1.5225334-3.4006767 3.4006767-3.4006767h.0000076c1.8591919 0 3.373764 1.493084 3.4003258 3.3520851z" fill="#fcd462"/><path d="m70.2871246 70.4204865c-1.9409027-.2930527-7.0019913-1.0870438-9.7930527-1.8017349-3.5017586-.8938293-5.2541504-1.2367096-8.5791931 1.1382751 0 0-1.5294647-.4918442-1.7689781-.9806519-.2395134-.4915466.0803642-1.8473206-.7499809-1.7327805 0 0-.3867073.3056488-.5199051.00103-.1331596-.3046112-.2623978-.303009-.3657036-.2482529-.1032906.0519333-.2335091-.0222473-.2335091-.0222473s.1768379-.2355652-.3420258-.1529846c-.5159721.0852737-.7029228-.2495728-.7029228-.2495728s.3534966-.7071457-.217865-.7756805c-.5713844-.0713654-.0501518.4623413-1.7335129.8997574-.2116394.0549622-.6276093.1259384-.6276093.1259384-1.249733.1837158-1.7712555-.2682648-2.6805649.7249451 0 0-1.037281.1959076-.9914322 1.8055115.0459061 1.6097107-.9944229 3.5452652 1.4070015 4.3210144 2.3985939.7731476 4.2576141-.2117081 5.112648-.3772583.8549576-.1683197 2.442852.2807617 2.442852.2807617s1.6505737 3.5928955 4.363987 4.370285c2.7162247.7774887 9.9503708.8198471 11.7730408.7291718.8477249-.0422211 1.5868378.0780029 2.1442337.2177353z" fill="#fcd462"/><path d="m40.6043739 68.1154175c-.2940102.4534302-1.0365791 3.341095.910202 5.534729 1.9468002 2.1936722 6.5707893.3956757 6.6507416-.3848267.0799675-.7805252-1.2831154-1.872345-2.2734528-1.9496307s-.9649773-.4373932-1.069458-1.575325c-.080204-.8733978 1.1599388-.7039413 1.740818-.5779953.1495895.0324631.289402-.0827332.2874451-.2357788-.001545-.120697-.0921249-.2212524-.2122116-.2336502-.3114891-.0321732-.9462624-.0895767-1.7410164-.1176987-1.1397591-.0403137-1.264782-.4385757-1.8312531-.1915054-.5664749.2470627-.8051262.340065-1.1690369.014946-.3639297-.325119.1594925-1.2052841.1594925-1.2052841-.7555617-.0842973-1.1582793.4685287-1.4522704.9220199z" fill="#4d5c7d"/><path d="m70.2871246 70.4204865c-1.9409027-.2930527-7.0019913-1.0870438-9.7930527-1.8017349-3.5017586-.8938293-5.2541504-1.2367096-8.5791931 1.1382751l-1.971508 3.6195297s1.6505737 3.5928955 4.363987 4.370285c2.7162247.7774887 9.9503708.8198471 11.7730408.7291718.8477249-.0422211 1.5868378.0780029 2.1442337.2177353z" fill="#27a2db"/><path d="m52.0884438 71.0709763c-1.594635 1.948494-.3274651 4.9129715 2.1786194 5.1559677.0333443.0032272.0670013.0062332.1009712.0089874 3.3968735.2759399 4.5068436-.3370743 4.7612419-2.2964935.2543983-1.9594116.3455658-4.1961975-.9020119-4.9786758-1.0294228-.6456528-3.8183441-.7251969-6.1388206 2.1102142z" fill="#fcd462"/><path d="m59.1960564 70.6875153-2.8590966-.1741791 2.8548355-.1592179z" fill="#dc8744"/><path d="m59.1960564 70.6875153h13.3686561v3.0070953l-15.3660774 2.2652206z" fill="#fcd462"/><path d="m100.746994 70.12603-29.848877-2.0939941c-2.0222168-.1418457-3.7408447 1.4604492-3.7408447 3.4876709v25.9627686c0 1.074707.8712769 1.9460449 1.946106 1.9460449h32.9490967c1.0747681 0 1.9460449-.8713379 1.9460449-1.9460449v-23.8688966c0-1.8359375-1.4200439-3.3591309-3.2515259-3.4875488z" fill="#d5d6db"/><g fill="#3ea69b"><path d="m67.1375351 43.5741081v-1.0114441l2.916893-3.6025581h-2.587326v-.9394646h4.0647202v.8712807l-3.0419083 3.7465057h3.1593399v.9356804z"/><path d="m73.1204453 39.2543564v-.6461105l1.8633194-2.3013191h-1.6527863v-.6001358h2.5965424v.5565758l-1.9431763 2.3932762h2.0181961v.5977135h-2.8820953z"/><path d="m59.1960564 48.8156624v-1.5644531l4.5117188-5.5722656h-4.0019532v-1.453125h6.2871132v1.3476562l-4.7050819 5.7949219h4.8867226v1.4472656z"/></g></svg>