<svg enable-background="new 0 0 140 140" height="512" viewBox="0 0 140 140" width="512" xmlns="http://www.w3.org/2000/svg"><circle cx="70" cy="70" fill="#334d5c" r="64"/><path d="m49.3357277 96.3616791c1.8300171 8.7799072 1.9799805 15.8900146 1.9799805 15.8900146l21.6727943 21.6727295c32.8431396-1.510498 59.2261887-27.7692871 60.9231491-60.5633545l-45.6158981-45.609436h-36.619999s2.3299561 7.0000019 2.1799927 10.7399921c-.1600342 3.7300415-1.3900146 7.6200562 0 11.8200073h-.5900269l-1.1199951 6.0100098.1600342.1600342-4.7400513 30.3800011 1.1700439 1.1700439c-.080017 2.8199482.0599977 5.7099629.5999757 8.329958z" opacity=".1"/><path d="m89.3823471 73.9681931-3.2753906-23.6534691c1.3930893-4.2016182.1630554-8.0920181.0074463-11.8267822-.1556015-3.7347641 2.1785965-10.7374344 2.1785965-10.7374344h-18.3096238s-.0001984.0272141-.0005875.0800591c-.0003967-.052845-.0005951-.0800591-.0005951-.0800591h-18.3096541s2.3342323 7.0026703 2.1785927 10.7374344c-.1556053 3.7347641-1.385601 7.625164.0074463 11.8267822l-3.2753563 23.6534691s-3.1979942 12.9933167-1.2449188 22.391571c1.8244514 8.7792587 1.9762688 15.8897324 1.9762688 15.8897324h16.1250648s2.1784286-15.8727646 2.5425568-25.2096329c.0001984-.0050735.0003967-.0106812.0005951-.0157547.0001984.0050735.0003891.0106812.0005875.0157547.3641281 9.3368683 2.5425568 25.2096329 2.5425568 25.2096329h16.1250305s.151825-7.1104736 1.9762726-15.8897324c1.9531096-9.3982544-1.2448885-22.391571-1.2448885-22.391571z" fill="#f0a67a"/><g fill="#e69871"><path d="m80.6167374 28.4061451-.4835281.1760654c.0337372.1033211 3.2776642 10.4000626-5.0196762 16.0202293l.2762222.4543991c8.6399841-5.8521117 5.2620697-16.5434207 5.2269821-16.6506938z"/><path d="m70.5247269 30.5194721h-.4802323-8.6565284v.5397969h8.6565284.4802323 8.0528793v-.5397969z"/><path d="m70.294426 36.4596176h-.2499314-8.6565284v.5397949h8.6565284.2499314 8.2831802v-.5397949z"/><path d="m59.832325 28.5822105-.48349-.1760654c-.0351219.1072731-3.4130058 10.7985821 5.2269783 16.6506939l.2762299-.4543991c-8.2973443-5.6201668-5.0534211-15.9169083-5.0197182-16.0202294z"/></g><path d="m92.4296799 85.517334-5.1276169-30.2658234h-34.8069496l-4.9247932 31.6093521 22.0811234 1.8984833c.1201859-.6818619.1908264-1.7106552.2286835-2.9682312.0415421 1.2297363.1047668 2.2365494.2006073 2.908165z" fill="#ebf0f3"/><path d="m87.4841309 56.3261642-1.0184403-6.0114402h-33.2014313l-1.1138496 6.0114402z" fill="#44c4a1"/><path d="m64.3922348 52.1465225c-.5364304 0-.9713173.4249802-.9713173.9492264s.4348869.9492569.9713173.9492569.971283-.4250107.971283-.9492569-.4348526-.9492264-.971283-.9492264z" fill="#2f4859"/><path d="m74.530159 52.1465225c-.5364304 0-.9713211.4249802-.9713211.9492264s.4348907.9492569.9713211.9492569c.5364227 0 .971283-.4250107.971283-.9492569s-.4348603-.9492264-.971283-.9492264z" fill="#2f4859"/><path d="m67.2852554 60.8014603c-.0004883 0-.0009766 0-.0019531 0-.2758789-.0009766-.4990234-.2255859-.4980469-.5019531.0073242-1.9814453.8251953-3.9306641 2.2441406-5.3457031 1.4150391-1.4130859 3.3857422-2.2509766 5.4072266-2.2988281.2568359.0029297.5048828.2119141.5117188.4882812.0063477.2763672-.2119141.5048828-.4882812.5117188-1.7670898.0419922-3.4892578.7734375-4.7246094 2.0058594-1.2329102 1.2304688-1.9438477 2.9228516-1.9501953 4.6425781-.0009766.2753905-.2246094.4980468-.5000001.4980468z" fill="#d15241"/><path d="m70.9751968 61.1345978c-.2441406 0-.4575195-.1787109-.4941406-.4277344-.1357422-.9257812-.3398438-1.8417969-.6088867-2.7382812-.234375-.0488281-.4550781-.1201172-.6611328-.1855469-.5527344-.1787109-1.3081055-.421875-1.7885742-1.0107422-.3100586-.3789062-.4438477-.9121094-.3496094-1.3916016.0761719-.3886719.2929688-.703125.6123047-.8896484-1.1069336-.4248047-2.2524414-.7470703-3.4272461-.9638672-.2714844-.0498047-.4511719-.3105469-.4008789-.5820312.050293-.2724609.3115234-.453125.5825195-.4003906 2.1552734.3974609 4.2192383 1.1328125 6.1347656 2.1865234.378418.2089844.8081055.4648438 1.1132812.8652344.3911133.5166016.4672852 1.1699219.1943359 1.6660156-.1904297.3457031-.543457.5986328-.9672852.7080078.2416992.8505859.4272461 1.7167969.5556641 2.5917969.0400391.2724609-.1489258.5273438-.421875.5673828-.0249022.0029297-.0493163.0048828-.0732421.0048828zm-.90625-5.5390625c.0673828.140625.1259766.2822266.1796875.4169922.1313477.3300781.2543945.6640625.3681641 1.0009766.1782227-.0361328.3286133-.1230469.3891602-.2333984.0791016-.1435547.0307617-.3867188-.1147461-.5791016-.1860352-.2441406-.496582-.4267578-.7993164-.5927734-.0073243-.0048829-.0151368-.0087892-.0229493-.0126954zm-1.7128906-.28125c-.0600586 0-.1147461.0117188-.1601562.0361328-.0727539.0400391-.1206055.1152344-.1420898.2226562-.0371094.1894531.0205078.4169922.1430664.5664062.2680664.328125.7231445.4980469 1.2910156.6816406-.0541992-.1464844-.1103516-.2929688-.168457-.4384766-.1313477-.3310547-.2792969-.6708984-.515625-.8818359-.131836-.1191405-.303711-.1865233-.447754-.1865233z" fill="#d15241"/><path d="m69.9827957 43.5698586c-.3790512 0-.6863098.3072929-.6863098.6863098 0 .3790207.3072586.6863136.6863098.6863136.3790207 0 .6862793-.3072929.6862793-.6863136 0-.3790169-.3072586-.6863098-.6862793-.6863098z" fill="#e69871"/><path d="m75.8347244 56.3045197c.5283813 2.6900024 3.2472534 18.7772217-5.8088379 25.0715332-9.0560913-6.2943115-6.3372192-22.3815308-5.8088379-25.0715332h-1.0230103c-.6729736 3.4100952-3.2731934 19.6088867 6.5134888 26.0748291.0844727.0566406.1801758.0830078.2749023.0830078.0150757 0 .0284424-.0093994.043457-.0107422.0150146.0013428.0283813.0107422.043457.0107422.0947266 0 .1904297-.0263672.2749023-.0830078 9.7866821-6.4659424 7.1864624-22.6647339 6.5134888-26.0748291z" fill="#d5d6db" opacity=".5"/></svg>