<svg enable-background="new 0 0 140 140" height="512" viewBox="0 0 140 140" width="512" xmlns="http://www.w3.org/2000/svg"><circle cx="70" cy="70" fill="#45b39c" r="64"/><path d="m84.4449997 26.2116566v7.3399677l-12.5599976 19.7300415c-.1799927.2799683-.1699829.5999756-.0299683.8699951v5.9500122l-11.9500083-11.9500122-2.2600098 3.1400146 14.2100182 14.2100182v5.1398926l-4.3700562-4.369873-10.089962-6.6700401-.5599976 2.5198975 15.0200157 15.0200157v2.6900635l-11.8600425-11.8599855-.039978.0300293c-1.3200073-1.2099609-3.5100098-.7099609-8.8900146-.8400879-8.1799927-.1999512-13.039978 3.0900879-13.039978 3.0900879s-.8800049.5999756-3.3900146.4499512c-.2000122-.0100098-.4099731-.0300293-.6400146-.0500488-.789978-.0799561-1.8200073-.0200195-2.9099751.1201172h-.0499878c-.1600342.0200195-.3099976.039917-.4700317.0599365-.2299805.039917-.4699707.0699463-.7000122.1099854-.0799561.0100098-.1599731.0300293-.2299805.0400391-.2799683.0500488-.5499878.0899658-.8099976.1398926-.2000122.0400391-.3800049.0800781-.5700073.1101074-.0200195.0100098-.039978.0100098-.0599976.0100098-.2000122.0400391-.3900146.0799561-.5800171.1199951-.0799561.0198975-.1499634.0299072-.2199707.0499268-.1199951.0300293-.2399902.0500488-.3599854.0800781-.0200195 0-.0300293 0-.0400391.0100098-.1699829.0300293-.3299561.0699463-.4899902.1099854-.0800171.0198975-.1599731.039917-.2399902.0499268-.9799805.2299805-1.6699829 1.1000977-1.6799927 2.1101074v.4199219c.0200195 2.5900879.2299805 7.7800293.4400024 10.0900879.0700073.6899414.4400024 1.2698975.9799805 1.619873l47.9637451 47.9637451c32.2090454-1.9724121 57.9702835-27.7574463 59.9027786-59.9771729l-47.6765232-47.6765119z" opacity=".1"/><path d="m98.7610779 53.285881-12.6989594-19.9485435c-.0117722-.0185127-.0340271-.0243988-.047081-.041626-.1596451-.2153931-.4035034-.3641243-.6925201-.3641243-.2889023 0-.5327606.1487312-.6924057.3640175-.0131607.0172272-.0354156.0232201-.0471878.0417328l-12.6998215 19.9485435c-.260231.4083214-.1395264.9501762.2687912 1.2104034.1463776.092453.309021.1369629.4699478.1369629.2893372 0 .5735321-.142952.7404556-.4057503l11.0836639-17.410038v16.939232c0 .4845047.3920517.8765564.8765564.8765564s.876564-.3920517.876564-.8765564v-16.9391251l11.0828094 17.4099312c.2593689.4091759.8003693.5264511 1.2104034.2687874.4083178-.2602272.5290148-.8020821.2687838-1.2104035z" fill="#474c5b"/><path d="m84.449318 26.212965h1.745552v10.301866h-1.745552z" fill="#474c5b"/><path d="m54.3605957 90.2731171c-2.0970268-.1558304-15.8055573-1.2533112-16.3376083-4.1495132l-3.1522141-.2960663-7.8814144.4262466c-1.0418434-.0979538-1.8677578-.9260712-1.961237-1.9678955-.2092438-2.3174133-.4220562-7.5075989-.4420834-10.0988235-.0022278-.1424484-.0022278-.2804947-.0022278-.4140549.0066833-1.0084229.6990089-1.8788757 1.6785145-2.1081467.0779095-.0177994.1602745-.0378571.2426395-.0556564.1580486-.0356216.3205776-.0734482.4919682-.1113052.0111408-.0022278.0222549-.0044556.0333977-.0066833.1202202-.0267105.2426414-.0534286.3673172-.0801392.0689964-.0155945.1402473-.0289383.2137012-.0445099.1892147-.0400848.3851166-.080162.5832462-.120224.0200539-.0044556.0422821-.0066833.0623379-.0133667.1847591-.0355988.3717461-.0712204.5632191-.1068497.2671242-.0511932.5387077-.0979385.8102894-.1446762.0779362-.0133743.1558456-.026741.2337551-.0378571.2337551-.0378494.4697113-.0734482.7034664-.1068726.155817-.0222321.3116646-.0445175.4674816-.0623169.017828-.0022278.0333977-.0044556.0511971-.0066833 1.0841255-.1335602 2.11483-.1959 2.9118042-.1157608.2226105.0222549.4363136.0400848.6366425.0512238 2.5066452.1491318 3.3881989-.4496841 3.3881989-.4496841s4.8574295-3.294693 13.0429192-3.0943375c8.1855049.1981354 8.9935913-1.097496 10.5808258 4.4923553 0 0 4.8908119 14.2717361-3.8935089 17.2681198-.0000001 0-1.2978402 1.5115433-3.3926278 1.3534775z" fill="#e56353"/><path d="m56.6325111 88.7492065s-3.71101 1.7880325-5.5665169-1.0120926c0 0 2.1253967-.7084656 3.4748573 0 1.3494569.7084656 2.0916596 1.0120926 2.0916596 1.0120926z" fill="#d15241"/><path d="m34.6347885 70.703186c-.2003288-.0111389-.414032-.0289688-.6366425-.0512238-.7969742-.0801392-1.8276787-.0177994-2.9118042.1157608-.0177994.0022278-.0333691.0044556-.0511971.0066833-.155817.0177994-.3116646.0400848-.4674816.0623169-.2337551.0334244-.4697113.0690231-.7034664.1068726-.0779095.011116-.1558189.0244827-.2337551.0378571-.2715816.0467377-.5431652.093483-.8102894.1446762-.191473.0356293-.3784599.0712509-.5632191.1068497-.0200558.0066833-.042284.0089111-.0623379.0133667-.1981297.040062-.3940315.0801392-.5832462.120224-.0734539.0155716-.1447048.0289154-.2137012.0445099-.1246758.0267105-.247097.0534286-.3673172.0801392-.0111427.0022278-.0222569.0044556-.0333977.0066833-.1713905.0378571-.3339195.0756836-.4919682.1113052-.082365.0177994-.1647301.0378571-.2426395.0556564-.9795055.2292709-1.6718311 1.0997238-1.6785145 2.1081467 0 .1335602 0 .2716064.0022278.4140549.0400543 2.5912247.4309406 7.7747345.4420834 10.0988235.0934792 1.0418243.9193935 1.8699417 1.961237 1.9678955l7.8814144-.4262466c-1.5182152-7.1147232-.7657776-13.0072937-.2359848-15.1243515z" fill="#474c5b"/><path d="m60.6669235 83.806839c.3090897-1.8031158.6579666-4.3602142.6418877-6.6470108-.0286522-4.0732574-.1715965-6.5029221-1.7437134-7.7891922-1.572155-1.2863007-5.6454086-1.500679-7.5748482-1.3577728-1.9294395.1429367-2.0111351.2858505-4.5071259.6431656-.0249557.0035706-.049778.0071335-.074398.0107269-1.4228554.2081299-1.9967728 1.9462585-.9956779 2.9785614 2.4824715 2.5598297 6.1811867 6.9698563 6.3390961 10.6596909v.7560425c0 .9963531.8215599 1.7903366 1.8175735 1.765274 1.1475334-.0288544 2.6402092.0247879 3.8700447.3747101 1.0121269.2879714 2.0493393-.3570176 2.2271614-1.3941956z" fill="#ebf0f3" opacity=".1"/><path d="m59.5346451 78.5779877c.1783485-1.0404282.3796577-2.5159149.3703804-3.8354263-.0165329-2.3503265-.0990143-3.7522812-1.0061493-4.4944763-.9071579-.742218-3.2574883-.865921-4.3708-.7834625-1.1133156.0824814-1.1604576.1649399-2.6006813.3711243-.0144005.0020523-.0287209.0041122-.0429268.0061874-.8210068.1200867-1.1521683 1.1230164-.5745201 1.7186737 1.4324226 1.4770584 3.5666351 4.0217133 3.6577492 6.1508026v.4362488c0 .5749054.4740524 1.0330429 1.0487709 1.0185852.6621437-.0166473 1.5234413.0143051 2.2330704.216217.5840148.1661605 1.1825027-.206009 1.2851066-.8044739z" fill="#ebf0f3" opacity=".1"/><path d="m85.3222122 109.6644974h-.0000305c-7.4368973 0-13.4656906-6.0287933-13.4656906-13.4656906l-.0000305-42.4424362c3.6566772-3.8889809 8.0010529-6.3828697 13.4657364-6.6051102 5.3473053.2266273 9.7559891 2.6120186 13.465744 6.6051102l-.0000305 42.4424362c0 7.4368972-6.028801 13.4656906-13.4656983 13.4656906z" fill="#4d5c7d"/><path d="m98.7610397 53.7488289-.0000152 42.4429741c.4848251 7.4419708-5.6441193 13.4726944-13.1983871 13.4726944-7.5631866 0-13.6921387-6.0307236-13.6921387-13.4726944v-1.200882c2.5031967 3.1994629 6.4319153 5.2505798 10.8504257 5.2505798 7.5542679 0 13.6831055-6.0219498 13.6831055-13.4639206l.0000153-35.2825966c.9041137.7652589 1.6968993 1.5173951 2.3569945 2.2538453z" fill="#2f4859"/><path d="m83.4263916 94.0200806h-.0000153c-4.9234467 0-8.9146881-3.9912415-8.9146881-8.9146881v-21.557457c0-4.9234467 3.9912415-8.9146881 8.9146881-8.9146881h.0000153c4.9234467 0 8.9146881 3.9912415 8.9146881 8.9146881v21.557457c0 4.9234466-3.9912414 8.9146881-8.9146881 8.9146881z" fill="#e1e6e9" opacity=".05"/><path d="m80.5666428 78.4078674h-.0000153c-2.1443405 0-3.8826752-1.7383347-3.8826752-3.8826752v-9.3890762c0-2.1443443 1.7383347-3.882679 3.8826752-3.882679h.0000153c2.1443405 0 3.8826752 1.7383347 3.8826752 3.882679v9.3890762c-.0000001 2.1443406-1.7383347 3.8826752-3.8826752 3.8826752z" fill="#e1e6e9" opacity=".05"/><g fill="#ebf0f3"><path d="m59.9053345 48.1555328 9.9497604 15.1573258-12.2073975-12.022995z"/><path d="m57.392746 59.6048889 10.0898514 6.6646729-10.6471406-4.1494828z"/><path d="m59.9053345 109.2795563 9.9497604-15.1573181-12.2073975 12.0229873z"/><path d="m57.392746 97.8302078 10.0898514-6.6646728-10.6471406 4.1494751z"/></g></svg>