<svg enable-background="new 0 0 140 140" height="512" viewBox="0 0 140 140" width="512" xmlns="http://www.w3.org/2000/svg"><circle cx="70" cy="70" fill="#e05b49" r="64"/><path d="m57.3378868 106.4949417-1.6099854 3.9899902-.1400146.3500977-.0200195.0499268s0 .0100098-.0100098.0200195c-.039978.1500244-.25 1.1500244 1.0900269 2.25l20.4448204 20.4448166c31.1815796-3.4395752 55.6038895-29.2722092 56.8432693-61.0667648l-23.0081253-23.0080567c-.1300049-.1599121-.2699585-.3100586-.4199829-.4199219l-.0100098-.0100098c-.0899658-.0700684-.1799927-.1201172-.2699585-.1500244-.6100464-.210083-5.4100342-1.0200195-9.8099976-1.3800049-1.2600098-.1000977-3.5600586-.0800781-6.2000122-.0100098l-18.5599975-18.5600585-.0100098.0100098c-.0700073-.0899658-.1600342-.1699219-.25-.2600098-.8900146-.8399658-1.8900146-1.4899902-4.0100098-1.9499512l-1.5599976-1.5500488-.0900269-.0899658-.0099487-.0100098h-.0100098c-.4299927-.4000244-1.1500244-.7698975-2.3699951-.9699707-3.3800011-.5599365-5.7400475.9799805-6.1199913 2.7000732-.3800049 1.7199707-1.1900024 3.5898438.1199951 4.7799072l.6199951.7399902s-.6100464 2.9100342 0 3.9801025c.6099854 1.0699463 1.0700073 1.8798828 1.0799561 3.9499512 0 .1298828.0599976.25.1400146.3699951v.0098877l.0100098.0100098c.0800171.1000977.1699829.1900635.2800293.2800293l1.2499962 1.2399902c-.0300293.8300781-.1200562 2.0300293-.3700562 3.0500488-.4299889.6600342-.6499596 1.0999756-.6499596 1.0999756-.9700317.3800049-1.9500122.9801025-2.8900146 1.6900635-.9299927.7199707-1.8399658 1.5500488-2.6699829 2.4099121-2.7700195 2.8701172-4.7700195 6.0200195-4.7700195 6.0200195-.5899658 1.7600098-1.1900024 3.2099609-1.7999878 4.4300537-.1199951.2399902-.2399902.4799805-.3599854.6999512-.1700439.3100586-.3400269.5899658-.5.8699951-.1700439.2700195-.3300171.5200195-.4899902.7600098-.0200195.0300293-.0400391.0600586-.0599976.0800781-.1700439.2600098-.3500366.5-.5200195.7199707-.0300293.0400391-.0499878.0699463-.0800171.0999756-.1699829.2199707-.3399658.4200439-.5200195.6199951 0 0-.0099487.0100098-.0099487.0200195-.1800537.1999512-.3600464.3800049-.5400391.5600586-.0299683.0299072-.0499878.0499268-.0799561.0799561-.3600464.3499756-.7200317.6600342-1.0800171.9399414-.0200195.0200195-.0499878.0400391-.0700073.0600586-.3699951.289917-.7399902.539917-1.1099854.789917-.0100098.0100098-.0200195.0100098-.0400391.0200195-.4099731.2800293-.8299561.5300293-1.25.7900391-.1199951.0800781-.25.1599121-.3800049.2399902 0 0-.0099487.0100098-.0199585.0100098-.0499878.0400391-.1100464.0700684-.1600342.1099854-.1399536.0799561-.2699585.1700439-.3999634.25-.0400391.0300293-.0900269.0599365-.1300049.0899658-.1700439.1101074-.3300171.2199707-.5.3400879-.0400391.0300293-.0800171.0599365-.1199951.0899658-.1500244.1099854-.3099976.2299805-.460022.3499756-.0200195.0200195-.0499878.0300293-.0700073.0500488-.1699829.1398926-.3300171.2800293-.5.4299316-.039978.0300293-.0800171.0700684-.1199951.1000977-.1799927.1599121-.3499756.3199463-.5200195.5-.1300049.1298828-.2699585.2700195-.3999634.4099121-.1300049.1500244-.2600098.3000488-.3900146.4599609-.2700195.3200684-.5299683.6600342-.789978 1.0400391s-.5200195.7900391-.7800293 1.2399902-.5200195.9400635-.7799683 1.4699707c-1.8300171 3.7600098-.7800293 6.710083 1.539978 8.880127l19.3099976 19.3199463c-.4000244.9500732-.7399902 1.7999268-1.0100098 2.4599609-.3599851.0300295-.7099606.2500002-.8499753.6099855z" opacity=".1"/><path d="m111.5619202 53.1357193c-.102417-.6147461 0-2.6584473 0-2.6584473s-.717041-1.3293457-1.3292847-1.5341797c-.614563-.204834-5.4193726-1.0219727-9.8167725-1.3815918-4.3974609-.3574219-21.375.7668457-21.375.7668457-3.3344727-.8104248-6.744751-1.3833008-7.5072632-1.5079346v7.2347412h19.9611206c6.2150269 0 9.5333252-2.7609863 10.7601318-2.8632812 1.2268066-.1025391 2.3535767.1022949 2.7609253.717041.409729.6120605 2.3535156 2.6584473 4.6022949 2.7607422 2.2510987.1025391 2.0462648-.9194335 1.9438478-1.5339355z" fill="#f7be56"/><path d="m75.31987 91.1814651c2.2180176-1.1519775 2.8392334-3.5725098 3.5482178-5.7861328.9865112-3.0803223 1.0259399-5.2937012-2.3095093-6.7897949-4.5708618-2.0500488-10.6552124-3.6520996-15.6921425-3.7362061-1.5437622-.0257568-2.1100464-1.5479736-1.7044067-2.6571045h-15.567627c-3.9498291 9.6600342 11.2392578 13.6610107 16.9431763 12.8591309 5.8291054-.8170166 11.350956.717041 11.350956.717041-3.2706909 3.6804199-8.7949257 17.9971924-8.7949257 17.9971924l5.6266518 1.126709 1.5317383-2.6608887c.6066895-2.2406006 2.5775757-5.1280518 4.7835693-8.1081543-.8389283-.8027343-1.0338746-2.2772216.2843017-2.961792z" fill="#fcd462"/><path d="m74.0066986 92.9373245c1.1456909-2.003418 2.7381592-3.6856689 3.8964233-5.7365723.5880737-1.0413818 1.6885376-2.354248 1.9717407-3.5498047.854187-3.605957-.6514893-3.5268555-2.8712769-4.5378418-5.6658936-2.5805664-12.8789062-4.1894531-19.1199379-4.4680176-1.4160767-.0632324-2.0055542-1.3690186-1.7770386-2.4328613h-12.512207c-3.9498291 9.6600342 11.2392578 13.6610107 16.9431763 12.8591309 5.8291054-.8170166 11.350956.717041 11.350956.717041-3.2706909 3.6804199-8.7949257 17.9971924-8.7949257 17.9971924l5.6266518 1.126709 1.5317383-2.6608887c.5383301-1.9881592 2.1519775-4.4859619 4.0491943-7.1053467-.5393066-.5375976-.7835083-1.3536376-.2944946-2.2087402z" fill="#f7be56"/><path d="m59.2783432 72.212265h-15.6839256c-3.9498291 9.6600342 11.2392578 13.6610107 16.9431763 12.8591309 5.8290977-.8170166 11.3509483.717041 11.3509483.717041-1.3307495 1.4974365-3.0344238 4.7554932-4.5874023 8.09375 1.7744751 1.1854248 3.9766846 1.7894287 6.5311279 1.914917 1.4624023-1.9675293 4.4090576-5.8833008 5.7267456-7.7598877 3.3754883-4.807251 3.2730713-7.1583252 1.5341187-10.1241455-.6860123-1.1699677-3.5356293-2.371666-6.7351608-3.3980103-4.8693315-1.5619812-9.965912-2.3027954-15.0796281-2.3027954z" fill="#474c5b"/><path d="m75.6678162 108.7815323c-1.7802429-.1419601-4.0234604-2.9971085-4.661087-4.8518143-.1669312-.4854813-.6588898-.7859955-1.1568985-.6615448-1.1086884.2769547-3.0867081.4086685-5.6177368-.9403305-.5170975-.2755966-1.16008-.0240707-1.3788528.5195236l-1.7660522 4.388855s-.5927849 1.7033539 2.6029129 3.2041473c3.1956482 1.5007629 5.1647263-.0707016 7.8143311.8817749 2.6496658.9524765 7.670929.8127594 8.5997543-.5742493.9288404-1.3870391-2.2691042-1.7935027-4.436371-1.9663619z" fill="#d5d6db"/><path d="m80.1020966 110.7485504c-.9286652 1.3867798-5.935791 2.0510254-8.5856323 1.0971222-2.6497574-.953804-4.6319733.0948792-7.8267899-1.4076767-3.1976471-1.4983292-2.6028137-3.2005005-2.6028137-3.2005005l.1616936-.4061127c.0425072.6040802.4593925 1.728363 2.6432877 2.7560501 3.194828 1.5025253 5.1769981.4538116 7.8226051 1.4048767 2.5665817.9226227 7.3420868.3298645 8.4907455-.9646912.102623.2034227.0837631.4419023-.103096.7209321z" fill="#474c5b"/><path d="m71.3903122 47.2830391s-.3127365-3.5011482.928299-3.4355469c0 0 1.3669739 1.6071434 3.0654297.8672485 0 0 1.2084122-.1020584.9518127-1.526062 0 0-.0238724-.3331299.5596542-.3852539 0 0 .4072952-.6422081.03936-.7446213 0 0 .4333572-.3504486.2179489-.9840851-.2154083-.6336403.335495-.8534203.8275375-.7444458s.8209763-.6203423.0743408-1.4065132c-.7466278-.7861671-1.348793-1.9510193-.9101334-3.1865959s.859436-3.7023506-.8754807-5.411911c-1.7349091-1.7095604-6.1301346-4.8872128-9.5425186-2.32967-3.4123878 2.5575428-4.7019272 4.9791603-3.864502 8.7565575.8374214 3.777401 1.878006 4.4961395 1.878006 4.4961395s.0840302 3.9038925-.9069672 5.3864021z" fill="#fcd462"/><path d="m75.3985672 28.7443314c-1.0274658-.9669189-2.1921997-1.6922607-5.0726318-2.1348877 0 0 .3901367-1.8876953-2.9822998-2.439209-3.3724937-.5516357-5.7352257.9829102-6.1166344 2.7049561-.3814087 1.722168-1.1852417 3.5878906.1208496 4.7769775l.6246948.7382812s-.6102905 2.9130859-.0030518 3.9821777c.6072388 1.0693359 1.0657349 1.8847656 1.0768433 3.9564209.0032959.6107178 1.138485 1.2218018 1.6937218.9191895 0 0-.5064697-3.7602539 2.3308105-4.8548584 1.3781128-.5314941 2.4570923-.4038086 3.2023926-.1315918.4564819.166626.9260864-.2114258.8721924-.694458-.1995239-1.7877197.2628784-4.6798096 5.1236572-5.2420654 0 0 .1568604-.6140137-.8705444-1.5809326z" fill="#4d5c7d"/><path d="m111.9802094 54.1568069c-.102417-.614624 0-2.6584473 0-2.6584473s-.717041-1.3293457-1.3292847-1.5341797c-.614563-.204834-5.4193726-1.0219727-9.8167725-1.3815918-4.3974609-.3574219-21.375.7669678-21.375.7669678-3.7828369-.9194336-7.6681519-1.5340576-7.6681519-1.5340576l-.102417-3.7828369s-.6782837-.4239502-1.465271-.8955078h-4.6946411c-.1431274.7850342-.5564575 1.5533447-.9555664 2.1461182-.4406738.6599121-.8623085 1.1005859-.8623085 1.1005859-5.2145386 2.0462646-10.3289795 10.1240234-10.3289795 10.1240234-3.7971802 11.2342529-7.9135132 10.0765381-11.8964233 14.0927734-1.0576782 1.0649414-1.0188179 2.7824936-2.0478706 4.9072495-4.909668 10.1265869 10.2622108 13.0923691 16.0913124 12.2730331 5.8291016-.8171387 11.4548302 1.5000381 11.4548302 1.5000381-1.3101959 1.4743347-3.5964394 4.8132858-5.1299057 8.0971909-2.2945709 4.9138031-4.279377 10.0576935-4.279377 10.0576935l5.6266479 1.126709 1.5316811-2.6608887c.6074219-2.2431641 2.5821533-5.1345215 4.7911987-8.1184082-1.0952148-.3322754-1.9013062-1.4663086-1.0463867-2.6342773 1.6577759-2.2648926 4.4659424-4.4782715 5.5291748-7.0498047 1.6276855-3.9362793-1.1630859-5.0800781-4.2224121-5.7297363-4.5175781-.9594727-8.5256386-1.616333-12.3751869-4.4587402-1.1512451-.8499756-1.3452148-3.1807861.4535522-3.470459.4667358-.0751953.9349365-.1279297 1.4036255-.1676025 2.0178833-2.175415 6.3538857-6.9162598 8.4321938-9.6939697 2.7633057-3.6899414 1.6365356-9.5024414 1.6365356-9.5024414s16.3629761 0 22.5780029 0 9.5333252-2.7608643 10.7601318-2.8632812c1.2268066-.1025391 2.3535767.102417 2.7609253.717041.409729.6121826 2.3535156 2.6584473 4.6022949 2.7608643 2.2510987.1024169 2.0462647-.9195558 1.9438478-1.5340578z" fill="#fcd462"/><path d="m58.188961 75.4269562s1.3152771-7.154892 4.0761757-10.8448563c.4952126-.6612854.5448189-.06707.819046-.8190498l-8.4976082 1.6380959c-3.0312119 5.0460892-10.0201416 2.0927048-13.1012268 5.1995773-1.0576591 1.0648117-2.1058083 2.4964828-3.1348801 4.6213684-4.909626 10.126503 10.8387604 14.3190689 16.6678619 13.4995956 5.8291016-.8170547 11.3509102.7170334 11.3509102.7170334-1.3307114 1.4974136-3.0344276 4.7555084-4.5873871 8.0937347 1.7744675 1.1853714 3.9766998 1.7893982 6.5311127 1.9148483 1.4624329-1.967453 4.4090881-5.8832169 5.7267838-7.7598267 3.3754959-4.8071823 3.2730637-7.1583557 1.5341034-10.124115-1.7389602-2.9657897-17.3848915-6.1364058-17.3848915-6.1364058z" fill="#4d5c7d"/><path d="m67.6984787 64.5786591c-2.7608948 3.6899643-9.5095177 10.8482971-9.5095177 10.8482971s-12.9231186 1.5507736-16.7036133-4.8262329c3.9829407-4.0162888 8.0992928-2.8585739 11.8964462-14.0927734 0 0 5.11446-8.0778351 10.3289795-10.124115 0 0 .2137794-.4406929.6544685-1.1005516l1.7991333 3.0729713s-2.7108803-.6431656-4.0663185 0c-1.355442.6407852-5.4193802 4.8476601-5.3479195 6.7033615.071476 1.8532867 2.2106361 5.133503 6.7033577 2.7084961s5.8815193-2.6918335 5.8815193-2.6918335 1.1267473 5.812439-1.6365355 9.5023804z" fill="#44c4a1"/><path d="m70.1485519 112.4318085c-1.7802429-.1419601-4.023468-2.9971085-4.661087-4.8518066-.1669312-.4854889-.6588974-.7860031-1.1569061-.6615524-1.1086884.2769547-3.0867004.4086685-5.617733-.9403305-.5170975-.2755966-1.16008-.0240707-1.3788528.5195312l-1.7660522 4.3888474s-.5001297 1.3415222 2.6955681 2.8423157c3.1956482 1.5007553 5.1760025.4526215 7.8256073 1.4050903 2.6496735.9524841 7.5669937.6512833 8.4958191-.735733.9288405-1.3870393-2.2691041-1.7935029-4.4363634-1.9663621z" fill="#ebf0f3"/><path d="m74.5828323 114.3988266c-.9286728 1.3867874-5.9357986 2.0510254-8.58564 1.0971222-2.6497536-.953804-4.6319695.0948792-7.826786-1.4076767-3.1976471-1.4983292-2.6028137-3.2005005-2.6028137-3.2005005l.1616936-.4061127c.0425072.6040802.4593925 1.728363 2.6432877 2.7560501 3.1948318 1.502533 5.1769981.4538116 7.8226089 1.4048767 2.5665741.9226303 7.3420868.3298645 8.4907455-.9646912.1026154.2034303.0837555.4419023-.103096.7209321z" fill="#4d5c7d"/></svg>