<svg enable-background="new 0 0 140 140" height="512" viewBox="0 0 140 140" width="512" xmlns="http://www.w3.org/2000/svg"><circle cx="70" cy="70" fill="#45b39c" r="64"/><path d="m107.0471268 35.0049171c-.3399658-.3599854-.6599731-.7099609-1.0100098-1.0599365-9.6199951-9.6099854-22.4199829-14.9100342-36.0499878-14.9100342s-26.4299927 5.3000488-36.039978 14.9100342c-9.6199951 9.6099854-14.9100342 22.4100342-14.9100342 36.0399132 0 13.630127 5.2900391 26.4300537 14.9100342 36.0500488.6499634.6500244 1.3200073 1.2800293 2 1.8900146l-.0100098.0100098 25.4747925 25.4747314c2.8109131.3773193 5.6738892.590332 8.5880737.590332 35.3461914 0 63.9999924-28.6538086 63.9999924-64 0-2.9448242-.2163696-5.8375244-.6014404-8.6766319z" opacity=".1"/><path d="m54.5216255 80.0435104-15.3079834 15.3079834c-.9235764.9235764-.9235764 2.4210968.0000687 3.3447418l3.6602707 3.6602707c.9236412.923645 2.4211006.9235764 3.3446732 0l15.3079872-15.3079834z" fill="#d5d6db"/><path d="m104.1603928 63.1711273c2.272316-2.4895744 2.1848145-6.326004-.1986237-8.7094383l-16.8531952-16.8531952c-2.3834305-2.3834343-6.2198639-2.4709435-8.7094345-.1986275l-33.4938469 30.5711747c-2.6554413 2.4236526-2.7500801 6.5736618-.20784 9.1158981l19.7758675 19.7758713c2.5421753 2.5421753 6.6921768 2.4475403 9.1158371-.207901z" fill="#fcd462"/><path d="m87.0653305 52.9494629c-.0088882-.0094948-.0150375-.0205116-.0242844-.0297623l-6.2178497-6.2178535c-.4487762-.4487724-1.1767426-.4487724-1.6254501-.000061l-25.040741 25.0407372c-.4488297.4488297-.4488297 1.1768036-.000061 1.6255722l.2692757.2692719 24.8513222-24.8513184c.4487076-.4487114 1.1716843-.443718 1.6204529.0050507l5.1628494 5.1628494z" fill="#f7be56"/><path d="m95.8748932 61.7590218c-.0088882-.0094948-.0150375-.0205116-.0242844-.0297623l-6.2178574-6.2178535c-.4487686-.4487686-1.1767349-.4487686-1.6254501-.000061l-25.0407333 25.0407409c-.4488335.4488297-.4488335 1.176796-.000061 1.6255722l.2692757.2692719 24.8513222-24.8513184c.4487076-.4487114 1.1716843-.4437218 1.6204529.0050507l5.1628494 5.1628456z" fill="#f7be56"/><g fill="#ebf0f3" opacity=".25"><path d="m66.5048447 53.1112862c-.4411011-.4411049-1.1509247-.4579887-1.6125412-.0383415l-6.592968 5.99366c-.477829.4337082-.5128059 1.1735916-.0785599 1.6508827.0129128.0139923.0258293.0279808.0387421.0408974.438549.438549 1.1483002.4595337 1.6121407.0376663l6.5929642-5.99366c.4937056-.4487763.5120696-1.2192612.0402221-1.6911049z"/><path d="m96.475975 51.3484116-11.3463134-11.4582367c-.0161438-.0161438-.0317459-.0328255-.0478897-.0489655-1.4232712-1.4232674-3.6870422-1.4808426-5.1840286-.120533l-9.7402954 8.8549881c-.4937057.4487724-.5120697 1.2192612-.0402222 1.6911049.4411011.4411049 1.1509247.4579887 1.6125412.0383415l9.7402954-8.8549919c.5714569-.5198021 1.4345627-.4907455 1.9877319.0742569l11.3565369 11.4684601.004303.0043068c.454689.454689 1.1918869.4568443 1.6487274.004303.4589996-.4546929.4627685-1.1945763.0086135-1.6530342z"/></g><path d="m19.0380783 69.9872742c0-13.6308632 5.2939453-26.4316444 14.90625-36.0439491 9.6113281-9.6123047 22.4121094-14.9052734 36.0439453-14.9052734 13.6308594 0 26.4316406 5.2929688 36.0439453 14.9052734 9.6279297 9.6279297 14.9296875 22.4287109 14.9296875 36.0449257 0 13.6152344-5.3017578 26.4150391-14.9296875 36.0429688-9.6269531 9.6279297-22.4277344 14.9306641-36.0439453 14.9306641s-26.4169922-5.3027344-36.0439453-14.9306641c-9.6123047-9.6113282-14.90625-22.4121095-14.90625-36.0439454zm16.3203125-31.854496-.7041016.8007812c-7.5380859 8.5664062-11.6904297 19.6005859-11.6904297 31.0673866 0 12.5771484 4.8847656 24.3876953 13.7539062 33.2558594 8.8867188 8.8867188 20.7021484 13.78125 33.2705078 13.78125 11.4521484 0 22.4804688-4.1611328 31.0556641-11.7177734l.7988281-.7041016zm81.6806641 31.8554725c0-12.5673866-4.8945312-24.3828163-13.78125-33.2705116-17.4990234-17.4990234-45.7529297-18.4052734-64.3242188-2.0634766l-.8007812.7041016 66.4833984 66.4833984.7041016-.7988281c7.5566406-8.5742149 11.71875-19.6035118 11.71875-31.0546837z" fill="#e56353"/></svg>