<svg enable-background="new 0 0 140 140" height="512" viewBox="0 0 140 140" width="512" xmlns="http://www.w3.org/2000/svg"><circle cx="70" cy="70" fill="#efc84a" r="64"/><path d="m76.9686203 133.6155396c29.7750854-3.2254639 53.4178543-26.8665695 56.6461868-56.6408615l-48.9198074-48.9196778-.0100098.0400391c-.8200073-.9100342-1.9899902-1.4899902-3.2999878-1.4899902h-22.7700157c-2.4599609 0-4.4599609 2-4.4599609 4.4699707v77.8499756c0 1.3399658.5999756 2.5299072 1.5299683 3.3499756l-.0299683.0300293z" opacity=".1"/><path d="m81.3806152 26.6085205h-22.7611084c-2.4655762 0-4.4643555 1.9986572-4.4643555 4.4642334v77.8543701c0 2.4655762 1.9987793 4.4643555 4.4643555 4.4643555h22.7611084c2.4654541 0 4.4642334-1.9987793 4.4642334-4.4643555v-77.8543701c0-2.4655762-1.9987793-4.4642334-4.4642334-4.4642334z" fill="#ebf0f3"/><path d="m69.9993896 104.9200439c-.484375 0-.9726562-.0517578-1.4511719-.1523438-2.5917969-.5488281-4.6728516-2.6689453-5.1777344-5.2763672-.5527344-2.8583984.6884766-5.6269531 3.1142578-7.0839844v-53.8134764c0-1.9375 1.5771484-3.5136719 3.5146484-3.5136719s3.5136719 1.5761719 3.5136719 3.5136719v53.8183594c1.9892578 1.2138672 3.2441406 3.40625 3.2441406 5.75 0 1.8056641-.703125 3.5029297-1.9794922 4.7783203-1.276367 1.2763671-2.9736327 1.9794921-4.7783202 1.9794921z" fill="#d5d6db"/><path d="m72.5133057 93.0039062v-41.3355712h-5.0283203v41.3345947c-2.3427734 1.1289062-3.6416016 3.6669922-3.1328125 6.2978516.4296875 2.2177734 2.1982422 4.0214844 4.4033203 4.4882812.4111328.0869141.8300781.1308594 1.2431641.1308594h.0009766c1.5371094 0 2.9833984-.5986328 4.0712891-1.6865234 1.0878906-1.0869141 1.6865234-2.5332031 1.6865234-4.0712891-.0000001-2.2128906-1.2773439-4.2041016-3.2441407-5.1582032z" fill="#e56353"/><g fill="#4d5c7d"><path d="m77.005882 35.0802h5.168229v1.242992h-5.168229z"/><path d="m77.005882 39.49773h2.584115v1.242992h-2.584115z"/><path d="m77.005882 43.915257h5.168229v1.242992h-5.168229z"/><path d="m77.005882 48.332787h2.584115v1.242992h-2.584115z"/><path d="m77.005882 52.750317h5.168229v1.242992h-5.168229z"/><path d="m77.005882 57.167843h2.584115v1.242992h-2.584115z"/><path d="m77.005882 61.585373h5.168229v1.242992h-5.168229z"/><path d="m77.005882 66.002899h2.584115v1.242992h-2.584115z"/><path d="m77.005882 70.420433h5.168229v1.242992h-5.168229z"/><path d="m77.005882 74.837959h2.584115v1.242992h-2.584115z"/><path d="m77.005882 79.255486h5.168229v1.242992h-5.168229z"/><path d="m77.005882 83.673019h2.584115v1.242992h-2.584115z"/><path d="m77.005882 88.090546h5.168229v1.242992h-5.168229z"/><path d="m57.825886 35.0802h5.168229v1.242992h-5.168229z" transform="matrix(-1 0 0 -1 120.82 71.403)"/><path d="m60.41 39.49773h2.584115v1.242992h-2.584115z" transform="matrix(-1 0 0 -1 123.404 80.238)"/><path d="m57.825886 43.915257h5.168229v1.242992h-5.168229z" transform="matrix(-1 0 0 -1 120.82 89.074)"/><path d="m60.41 48.332787h2.584115v1.242992h-2.584115z" transform="matrix(-1 0 0 -1 123.404 97.909)"/><path d="m57.825886 52.750317h5.168229v1.242992h-5.168229z" transform="matrix(-1 0 0 -1 120.82 106.744)"/><path d="m60.41 57.167843h2.584115v1.242992h-2.584115z" transform="matrix(-1 0 0 -1 123.404 115.579)"/><path d="m57.825886 61.585373h5.168229v1.242992h-5.168229z" transform="matrix(-1 0 0 -1 120.82 124.414)"/><path d="m60.41 66.002899h2.584115v1.242992h-2.584115z" transform="matrix(-1 0 0 -1 123.404 133.249)"/><path d="m57.825886 70.420433h5.168229v1.242992h-5.168229z" transform="matrix(-1 0 0 -1 120.82 142.084)"/><path d="m60.41 74.837959h2.584115v1.242992h-2.584115z" transform="matrix(-1 0 0 -1 123.404 150.919)"/><path d="m57.825886 79.255486h5.168229v1.242992h-5.168229z" transform="matrix(-1 0 0 -1 120.82 159.754)"/><path d="m60.41 83.673019h2.584115v1.242992h-2.584115z" transform="matrix(-1 0 0 -1 123.404 168.589)"/><path d="m57.825886 88.090546h5.168229v1.242992h-5.168229z" transform="matrix(-1 0 0 -1 120.82 177.424)"/></g></svg>