<svg enable-background="new 0 0 140 140" height="512" viewBox="0 0 140 140" width="512" xmlns="http://www.w3.org/2000/svg"><circle cx="70" cy="70" fill="#334d5c" r="64"/><path d="m73.2528458 23.524971c-7.9899902-.8499756-16.0899696 1.7900391-21.6699867 7.0700684-2.1199951 2.0100098-4.039978 4.5100098-6.0499878 7.8798828-2.039978 3.4100342-3.3200073 6.3000488-4.0100098 9.0900879-.9000244 3.6398926-.7799683 7.1699219.3300171 10.1899414.5899658 1.6000977 1.4299927 2.8800049 2.4599609 3.7800293l7.8900146 7.9000244c-.8599854 1.1199951-.9199829 2.4400635-.7299805 3.7600098h-4.7000122c-1.039978 0-1.8800049.8399658-1.8800049 1.8699951 0 .5500488.2399902 1.0400391.6199951 1.3898926l2.0599976 2.0800781v25.1699219c0 1.5900879.6099854 3.0400391 1.5900269 4.1501465l-.0100098.0799561 25.8516273 25.8516769c31.5110474-2.4401855 56.6103439-27.6861496 58.8185349-59.2615891l-40.3701705-40.3701172c-5.3200074-5.9500733-12.6900025-9.8199463-20.2000122-10.6300049z" opacity=".1"/><path d="m54.8034935 78.1694489-2.5674438-.2587585c.0823326-.8140945-.1604652-1.8566971-.3948631-2.8648529-.4654312-1.9995117-.9930344-4.2661896.6653862-5.9649353 1.1820641-1.2114716 1.7189102-2.638855 1.4357834-3.8192368-.1781082-.7468796-.6763039-1.3089294-1.3652115-1.5433235-.8266907-.2797661-1.7684784-.3478165-2.7665558-.4192276-1.4366264-.1033363-2.921978-.2100334-4.3241577-.9543915-1.5802879-.8401299-2.8362846-2.425457-3.6327324-4.5854378-1.1156921-3.0278358-1.2291107-6.5538673-.3268089-10.1966782.6897469-2.790081 1.9617081-5.6784515 4.0032272-9.090229 2.0137978-3.3664055 3.9376984-5.8691597 6.0539894-7.8745537 5.5759544-5.2819099 13.676506-7.9266453 21.6669998-7.0680294 7.5149765.8040066 14.8778915 4.6786938 20.2009735 10.6293468 4.5325089 5.0659943 6.9789734 10.9729614 6.8890762 16.6320915-.1066971 6.6950073-4.1242065 12.8607368-9.7698898 14.9955101-2.4573898.9300308-6.1329651 1.1661072-8.4063644-1.22155-1.6273346-1.7071495-1.9045715-4.0527954-2.1498947-6.1228828-.3108444-2.6178474-.738472-5.3415565-1.7869568-7.8249855-1.0804138-2.5565224-2.7606735-4.5627556-4.7333069-5.6482048-3.3277588-1.8314896-7.9468079-1.0904922-10.7427635 1.7205887-2.6976624 2.7144661-3.6293716 7.252018-2.2666779 11.0351295 1.3324509 3.6982613 4.6610527 6.6630859 8.6886482 7.7367783 1.234993.3293304 2.5136719.4897919 3.8662872.6603394 1.5533981.1949081 3.159729.3973846 4.73246.8770981 6.7277756 2.050766 14.5452042 5.1037979 15.27948 10.5503769l-2.5573654.3444519c-.6074142-4.5031052-10.2924576-7.4561691-13.4748764-8.4265213-1.3618546-.4150238-2.789238-.5948105-4.3014755-.7846832-1.3794937-.1739044-2.8051987-.3528519-4.2098999-.7275543-4.8315964-1.288765-8.8365021-4.8736038-10.4512367-9.354866-1.7155495-4.7627068-.5645676-10.2798538 2.8648491-13.7302742 3.5747604-3.5974464 9.5153351-4.5283127 13.8168106-2.1624985 3.1765366 1.7491531 4.9433365 4.7206993 5.8666382 6.90588 1.172821 2.7791595 1.6382599 5.7179375 1.9667511 8.4802933.2125473 1.7961998.4267807 3.6066856 1.4609833 4.6912956 1.3122864 1.3786583 3.7721939 1.2879219 5.6255264.5872498 4.6803741-1.7693176 8.0114975-6.9596519 8.101387-12.6212997.0798187-5.0088654-2.133934-10.2899323-6.2320938-14.8711739-4.9021683-5.4801788-11.6635513-9.0465374-18.5509491-9.784174-7.2537003-.7771206-14.5838509 1.6080132-19.6179199 6.375761-1.9398651 1.8390503-3.7243042 4.1670532-5.6146011 7.3267899-1.9062576 3.1849403-3.085804 5.848999-3.7125435 8.3845139-.5418854 2.1893845-.9401054 5.4734612.2427979 8.6844444.3999023 1.0837708 1.1442604 2.5195541 2.4221001 3.1983795.9199448.4881172 2.0759659.5712929 3.2983589.6595039 1.1165352.0798149 2.2700348.1629868 3.4109344.5494461 1.5239983.5175209 2.6623764 1.7827606 3.0463181 3.3857307.4981995 2.0776443-.2671623 4.3460007-2.0994911 6.2237015-.6258965.6410141-.4167023 1.7793961.0016823 3.5772781.2822836 1.21315.5738104 2.4683074.4486311 3.7083435z" fill="#ebf0f3"/><path d="m53.8158455 109.942482h-.0000115c-3.4460869 0-6.2396927-2.7936096-6.2396927-6.2396927v-28.6429138h12.4793968v28.6429138c.0000001 3.4460831-2.7936057 6.2396927-6.2396926 6.2396927z" fill="#e69871"/><path d="m53.8962288 108.5314102h-.1607742c-2.1280975 0-3.85326-1.7251663-3.85326-3.8532639v-29.6182708h7.8672905v29.6182709c-.0000001 2.1280975-1.7251626 3.8532638-3.8532563 3.8532638z" fill="#f0a67a"/><path d="m47.576153 75.059906h12.479423v3.483013h-12.479423z" fill="#4d5c7d" opacity=".25"/><path d="m60.8635483 73.1922989h-14.095417c-1.035881 0-1.8755951.8398132-1.8755951 1.8755951 0 1.035881.8397141 1.8755875 1.8755951 1.8755875h14.095417c1.035881 0 1.8755951-.8397064 1.8755951-1.8755875 0-1.0357819-.8397141-1.8755951-1.8755951-1.8755951z" fill="#f0a67a"/><path d="m107.3586197 108.0055695-.0000076.0000076c-3.08284 1.5400085-6.8303986.289299-8.3704071-2.7935333l-12.8001404-25.6236878 11.1639557-5.5768738 12.8001404 25.6236801c1.5400085 3.08284.289299 6.8303986-2.793541 8.3704072z" fill="#e69871"/><path d="m106.799942 106.7073135-.1438293.071846c-1.9037704.9510193-4.2180405.1786575-5.1690598-1.7251129l-13.2360077-26.496231 7.038002-3.5157928 13.2360153 26.4962311c.9510117 1.903778.17865 4.2180404-1.7251205 5.1690596z" fill="#f0a67a"/><path d="m86.308624 76.616371h12.479423v3.483013h-12.479423z" fill="#4d5c7d" opacity=".25" transform="matrix(.895 -.447 .447 .895 -25.262 49.618)"/><path d="m97.2402649 71.9796753-12.6096268 6.299057c-.9266968.4629211-1.3025894 1.5894699-.8397141 2.5160675.4629211.9266891 1.5893784 1.3026352 2.5160675.8397064l12.6096268-6.2990494c.9266891-.4629211 1.3026352-1.5893784.8397141-2.5160675-.4628754-.9265976-1.5893784-1.3026351-2.5160675-.839714z" fill="#f0a67a"/></svg>