<svg enable-background="new 0 0 140 140" height="512" viewBox="0 0 140 140" width="512" xmlns="http://www.w3.org/2000/svg"><circle cx="70" cy="70" fill="#ea8953" r="64"/><path d="m98.3749924 46.8083153h-9.9400024l-7.7600098-7.7600098c-.6999512-.7399902-1.6799927-1.2199707-2.7799683-1.2199707h-15.7899742c-2.1000366 0-3.8200073 1.7199707-3.8200073 3.8200073v3.5099487h-2.1600342c-.2799683 0-.5.2200317-.5.5v1.1500244h-14c-4.0800171 0-7.3999634 3.3099976-7.3999634 7.4000244v37.4799844c0 2.25 1.0099487 4.2600098 2.5999756 5.6199951l36.6033897 36.5981445c30.8087769-1.6266479 55.825386-25.0435791 59.9564896-55.1224976l-29.5098953-29.505619c-1.3499756-1.5100098-3.3099976-2.4700317-5.5-2.4700317z" opacity=".1"/><g fill="#4d5c7d"><path d="m93.8483429 98.388092.645874 2.9180298c.1114502.5032959.5576172.8615112 1.0731201.8615112h2.2313232c.5155029 0 .9616699-.3582153 1.0731201-.8615112l.645874-2.9180298z"/><path d="m40.4823494 98.388092.645874 2.9180298c.1114502.5032959.5576172.8615112 1.0731201.8615112h2.2313232c.5155029 0 .9616699-.3582153 1.0731201-.8615112l.645874-2.9180298z"/><path d="m61.2867584 46.0375061v-4.3843384c0-.4526367.3681641-.8208008.8203125-.8208008h15.7851562c.453125 0 .8212891.3681641.8212891.8208008v4.3843384h3v-4.3843384c0-2.1069336-1.7138672-3.8208008-3.8212891-3.8208008h-15.7851562c-2.1064453 0-3.8203125 1.7138672-3.8203125 3.8208008v4.3843384z"/><path d="m62.8461838 45.1559753h-6.7180176c-.2790527 0-.505249.2261353-.505249.505188v1.1431885h7.7285156v-1.1431885c0-.2790527-.2263184-.505188-.505249-.505188z"/><path d="m83.8718338 45.1559753h-6.7180176c-.2790527 0-.505249.2261353-.505249.505188v1.1431885h7.7285156v-1.1431885c0-.2790527-.2263183-.505188-.505249-.505188z"/></g><path d="m98.3720703 46.8043861h-56.7441406c-4.0869141 0-7.4001465 3.3132324-7.4001465 7.4002075v37.4846154c0 4.0870361 3.3132324 7.4002075 7.4001465 7.4002075h56.7441406c4.0870361 0 7.4001465-3.3131714 7.4001465-7.4002075v-37.4846153c0-4.0869751-3.3131104-7.4002076-7.4001465-7.4002076z" fill="#ebf0f3"/><path d="m41.9560089 94.9797287c-1.8740234 0-3.3994141-1.5253906-3.3994141-3.4003906v-37.4843788c0-1.8745117 1.5253906-3.3999023 3.3994141-3.3999023h56.7441406c1.875 0 3.4003906 1.5253906 3.4003906 3.3999023v37.4843788c0 1.875-1.5253906 3.4003906-3.4003906 3.4003906z" fill="#d5d6db"/><circle cx="70" cy="72.947" fill="#e56353" r="12.499"/><path d="m77.0652466 71.0766907h-5.1949463v-5.1950684h-3.7404785v5.1950684h-5.1950684v3.7404175h5.1950684v5.1950683h3.7404785v-5.1950683h5.1949463z" fill="#d5d6db"/></svg>