<svg enable-background="new 0 0 140 140" height="512" viewBox="0 0 140 140" width="512" xmlns="http://www.w3.org/2000/svg"><circle cx="70" cy="70" fill="#efc84a" r="64"/><path d="m43.2328835 83.0650101c1.3299561 5.789978 3.6799927 10.9199829 6.6599731 15.0200195.0100098.0199585.0300293.0499878.0499878.0699463.7200317 1 1.4899902 1.9400024 2.2800293 2.8099976.0800171.0800171.1599731.1600342.2399902.25.3200073.3500366.6599731.6900024 1 1.0200195l30.2717323 30.2717209c24.6958008-5.4024582 44.0562134-25.0520554 49.0189133-49.9094772l-50.3606491-50.3322144-.0100098.0099487c-.5199585-.5699463-1.4299927-.75-2.1699829-.25-4.289978 2.8800049-6.289978 7.1100464-7.1699829 11.1000366-6.3099976-2.2200317-31.7600136-9.2000122-39.9000282 18.8399658l9.0499878 9.0500488c-.2199707 3.8200074.0900268 7.8899537 1.0400391 12.0499879z" opacity=".1"/><path d="m92.8421402 49.205925c-3.2040253-.7348747-6.4920349-.2787018-9.6303864 1.1474495-5.5826035 2.5367928-11.8829422 2.5367928-17.4655457-.0000496-3.1383476-1.4261017-6.4263573-1.8822746-9.6302872-1.1473999-10.8349113 2.484993-16.6035881 17.6439743-12.8847008 33.8585815 3.7187881 16.2145462 15.5168419 27.3445587 26.351757 24.8595657 1.0001526-.2294159 1.9562454-.5686188 2.8656769-1.006485 1.2872009-.6196671 2.7734528-.6196671 4.0605545 0 .9095306.4378662 1.8655319.7770691 2.8657837 1.006485 10.8349075 2.484993 22.6329651-8.6450195 26.3518524-24.8595657 3.7187883-16.2146072-2.0497892-31.3735885-12.8847044-33.8585815z" fill="#e56353"/><path d="m105.7251663 83.0722427c-3.7242203 16.1986618-15.5230789 27.3382263-26.3495407 24.8500214-1.0051804-.2307281-1.9610825-.5603256-2.8672943-1.0052872-1.2853928-.6261978-2.7685242-.6261978-4.0539093 0-.9227066.4449615-1.8784103.774559-2.8672943 1.0052872-7.9591751 1.8291168-16.4457817-3.69133-21.8343735-13.166626 5.1908531 6.212532 11.8811302 9.4424057 18.2256165 7.975769 1.0051804-.2307281 1.9608765-.5767136 2.8672943-1.0051804 1.2853928-.6261978 2.7848129-.6261978 4.0702057 0 .9064178.4284668 1.862114.7744522 2.8672943 1.0051804 10.8266602 2.4883118 22.6253204-8.6513519 26.3495407-24.8665085 2.0928345-9.1785889 1.1699295-18.0112877-2.0103607-24.4050598 5.8995285 6.113659 8.3713379 17.5664292 5.6028213 29.6124039z" fill="#d15241"/><path d="m74.4790878 52.8492813c-4.095047.0911636-7.4700623-1.9574661-8.0011139-1.0271492-.6122208.8235435 2.6941986 5.1871262 8.0011139 5.1740608 5.3073273.0131607 8.6125336-4.3505516 8.0011215-5.1740608-.5314559-.9303474-3.9062652 1.1183472-8.0011215 1.0271492z" fill="#d15241"/><path d="m80.2174683 32.0200348c-10.3953857 6.9759178-7.3868866 21.8819466-7.3502731 22.0541382.1657486.7740517.8480759 1.3042984 1.6108627 1.3042984.112648 0 .2269058-.0112648.3411636-.0362053.8899155-.1874809 1.4595947-1.061306 1.2729187-1.9512253-.1249161-.5938148-2.5609283-12.8657913 5.9663162-18.6166649.4682922-.3158188.7710342-.8257484.7710342-1.3905983.0000001-1.3384971-1.5008315-2.1095333-2.6120223-1.3637428z" fill="#44c4a1"/><path d="m74.4790115 43.6644478s-32.015831-13.809267-41.3370895 18.2972832c0 0 27.9549561 5.1784744 41.3370895-18.2972832z" fill="#44c4a1"/><path d="m74.4790115 43.6644478s-27.8494644-.4869156-38.351017 16.4030838c0 0 9.3170777-12.7657013 38.351017-16.4030838z" fill="#3ea69b"/><path d="m89.5414429 56.58498c-.9531326-1.7040863.2188797-3.8351669 2.1713333-3.8178673 1.9715881.0174637 4.0760956.5794334 5.0785751 2.6113586 2.1658249 4.3898964 4.4670105 17.6555481-.9475479 26.8602905-3.7154846 6.31633-7.5584564 11.8677902-12.5786285 14.554924-2.400589 1.2849579-4.854126-1.6091766-3.2114182-3.7806778 6.2888718-8.3133162 16.1988526-24.4293059 9.4876862-36.428028z" fill="#ebf0f3" opacity=".15"/></svg>