<svg enable-background="new 0 0 140 140" height="512" viewBox="0 0 140 140" width="512" xmlns="http://www.w3.org/2000/svg"><circle cx="70" cy="70" fill="#334d5c" r="64"/><path d="m100.3171539 56.8683128-5.4700317-5.4799805-.0199585.0200195c-.1199951-.1400146-.25-.2700195-.4200439-.3601074-.5-.2698975-1.0999756-.2399902-1.5699463.0700684l-3.3200073 2.2299805c-.7700195.5100098-1.2300415 1.3699951-1.2300415 2.2900391v.5500488l-30-1.6700439-5.789978-5.7900391c-.0999756-.0899658-.210022-.1800537-.3400269-.25-.4899902-.2698975-1.0899658-.2399902-1.5599976.0699463l-3.3299561 2.2301025c-.7700195.5098877-1.2300415 1.3699951-1.2300415 2.2999268v.7600098l-4.3699951-.2399902-8.4799805 7.0300293-.5700073 10.0700722 6.6199951 6.619873-5.8900146 18.4100341c-.3199463.9700928-.0299683 1.9899902.6400146 2.6700439h-.0299683c.0299683.0300293.0799561.0600586.1099854.0899658l35.5007324 35.5007324c.1447144.0009766.2871704.0108643.4321289.0108643 30.7706299 0 56.4602051-21.7188721 62.5979614-50.6606445l-26.1307983-26.1308632z" opacity=".1"/><path d="m42.6071625 66.7575455-9.2636833 28.9697189c-.4497528 1.4065781.3258438 2.9112701 1.7323456 3.3611603 1.4065132.4497452 2.9113388-.3257675 3.3610992-1.7324905l9.2637482-28.9697113z" fill="#dc8744"/><path d="m47.7032585 68.3896561-9.2680893 28.9626236c-.4451637 1.4151917-1.9575005 2.1830139-3.3614655 1.738472-.4387817-.1388702-.8149261-.3858185-1.1201782-.6954193 1.3538475.3518982 2.7658806-.4219742 3.2069244-1.7703857l9.161068-28.6783218z" fill="#c67036"/><path d="m53.2296219 63.0016022 5.6328049 29.8886566c.2734604 1.4511948-.6811943 2.8491516-2.132328 3.122757-1.4511223.273468-2.8492203-.6811295-3.1226768-2.1324615l-5.6328735-29.8886604z" fill="#c67036"/><path d="m47.9715614 63.9949875 5.6380539 29.8821564c.267849 1.4591751 1.6743469 2.4070511 3.1223068 2.138443.4525223-.0838852.8561668-.2827301 1.197155-.5524673-1.3868332.1828308-2.6930466-.7587204-2.9650154-2.151123l-5.5667839-29.5868568z" fill="#dc8744"/><path d="m84.9187546 69.3676758-9.2636795 28.9697189c-.4497528 1.4065781.3258438 2.9112778 1.7323456 3.3611603 1.4065094.4497452 2.9113388-.3257675 3.3610992-1.7324829l9.2637482-28.9697189z" fill="#dc8744"/><path d="m90.0148544 70.9997864-9.2680893 28.9626236c-.4451675 1.4151917-1.9575043 2.1830139-3.3614655 1.738472-.4387817-.1388702-.8149261-.3858185-1.1201782-.6954193 1.3538437.3518982 2.7658768-.4219742 3.2069244-1.7703857l9.1610718-28.6783218z" fill="#c67036"/><path d="m95.541214 65.6117325 5.6328049 29.8886642c.273468 1.4511871-.6811905 2.8491516-2.1323242 3.1227493-1.4511261.273468-2.8492203-.6811295-3.122673-2.1324539l-5.6328735-29.8886642z" fill="#c67036"/><path d="m90.2831573 66.6051178 5.6380539 29.8821564c.2678452 1.4591751 1.6743469 2.4070511 3.1223068 2.138443.4525223-.0838852.856163-.2827301 1.1971588-.5524673-1.3868408.1828308-2.6930466-.7587204-2.9650192-2.151123l-5.5667877-29.586853z" fill="#dc8744"/><path d="m105.9010468 67.2740707-72.718792-6.6439819 8.4836426-7.0367165 64.7964897 3.6127205z" fill="#f7be56"/><path d="m106.4623871 57.2060928-8.4836426 7.0367127-3.9919739 4.0698166 3.4306336 5.9981689 8.4836426-7.0367203z" fill="#eaad4b"/><path d="m32.851269 62.428631h64.897125v10.083616h-64.897125z" fill="#fcd462" transform="matrix(.998 .056 -.056 .998 3.857 -3.531)"/><g fill="#ebf0f3"><path d="m47.9545326 59.4073753c-.7633629.511364-1.3806877.4270134-1.9141273 0v-6.3331947c0-.9252892.4589043-1.7842178 1.2281075-2.2982635l3.3263588-2.2234955c.4682541-.3131027 1.0673523-.3420753 1.564579-.0719643.4953537.2701073.7991104.7878952.790699 1.3524132l-.0514069 6.5629959c-.5665627.428997-1.4021606.4805489-1.9141273-.0149536l.0457954-5.8171577-2.6982841 1.802906c-.2364655.1579552-.377594.4224548-.377594.7075195v6.3331947zm3.3376236-11.3619918v.0054512z"/><path d="m90.2008209 61.738575c-.7633591.511364-1.3806839.4270134-1.9141312 0v-6.0965157c0-.9252892.4589081-1.784214 1.2281113-2.2982635l3.3263626-2.2234955c.4682465-.3130989 1.0673447-.3420753 1.5645752-.0719643.4953537.2701073.7991104.7878952.7906952 1.3524132l-.0513992 6.5629959c-.5665665.428997-1.4021683.4805527-1.9141312-.0149536l.0457993-5.8171577-2.698288 1.802906c-.2364655.1579552-.377594.4224548-.377594.7075195zm3.3376236-11.1253128v.0054512z"/></g></svg>