<svg enable-background="new 0 0 140 140" height="512" viewBox="0 0 140 140" width="512" xmlns="http://www.w3.org/2000/svg"><circle cx="70" cy="70" fill="#efc84a" r="64"/><path d="m102.1371613 47.1916389c-.2200317 0-.4500122.0200195-.6900024.0700073-.2299805.039978-.460022.1199951-.6699829.210022-.0200195.0100098-.0400391.0199585-.0599976.0199585-.210022.1000366-.4100342.2000122-.6000366.3300171-.3900146.2700195-.7299805.6099854-1 1 0 .0100098 0 .0100098-.0100098.0100098-.0599976.0999756-.1199951.1900024-.1699829.289978l-3.0599976 1.6199951-10.5200195-10.5199585-.039978.0499878c-1.7700195-1.9099731-4.210022-3.1300049-6.9299927-3.1300049h-26.25c-4.9700317 0-9.0100098 4.0300293-9.0100098 9v47.7200279c0 2.8499756 1.3300171 5.3800049 3.4000244 7.0299072l32.4665527 32.4665527c28.8328857-4.0568848 51.4938354-27.3149414 54.6275024-56.4343262l-20.9641113-20.9821739c-.3099976-.3699951-.6999512-.6699829-1.1299438-.8900146l-6.2700195-6.2699585c-.6699829-.9700317-1.789978-1.6000366-3.0599976-1.5900269v-.0100098c-.0200195.0000002-.040039.0100099-.0599975.0100099z" opacity=".1"/><path d="m78.3844604 37.137558h-25.0076751c-4.9731865 0-9.0047684 4.0315819-9.0047684 9.0047035v47.7153435c0 4.9732513 4.0315819 9.004837 9.0047684 9.004837h25.0076752c4.9732513 0 9.0047684-4.0315857 9.7196426-9.004837v-47.7153435c-.7148743-4.9731216-4.7463913-9.0047035-9.7196427-9.0047035z" fill="#2f4859"/><path d="m77.1432037 37.137558h-25.0076713c-4.9731865 0-9.0047684 4.0315819-9.0047684 9.0047035v47.7153435c0 4.9732513 4.0315819 9.004837 9.0047684 9.004837h25.0076714c4.973259 0 9.0047684-4.0315857 9.0047684-9.004837v-47.7153435c-.0000001-4.9731216-4.0315095-9.0047035-9.0047685-9.0047035z" fill="#4d5c7d"/><path d="m49.726589 44.161018h31.707325v24.847569h-31.707325z" fill="#27a2db"/><path d="m65.8777847 75.6522827c-2.539402 0-4.8520889.9692612-6.580925 2.5564194l3.5653687 3.5654068c.8219147-.6744995 1.870575-1.0826721 3.0155563-1.0826721 1.1506882 0 2.1993179.4081726 3.0212326 1.0826721l3.5653687-3.5654068c-1.7345123-1.5871582-4.0471649-2.5564194-6.5866013-2.5564194zm7.1987915 3.1686478-3.5653687 3.5653992c.67453.8218842 1.082634 1.8705139 1.082634 3.0211334 0 1.1450119-.4081039 2.1937103-1.082634 3.0155869l3.5653687 3.5654068c1.5814514-1.7288742 2.5564194-4.0415268 2.5564194-6.5809937 0-2.5394058-.974968-4.8520584-2.5564194-6.5865326zm-10.8265037 3.5653992-3.565403-3.5653992c-1.5814514 1.7344742-2.5564232 4.0471268-2.5564232 6.5865326 0 2.5394669.9749718 4.8521194 2.5564232 6.5809937l3.565403-3.5654068c-.6802063-.8218765-1.0883446-1.870575-1.0883446-3.0155869 0-1.1506195.4081383-2.1992493 1.0883446-3.0211334zm6.6489448 6.6489486c-.8219147.6744919-1.8705444 1.0825958-3.0212326 1.0825958-1.1449814 0-2.1936417-.4081039-3.0155563-1.0825958l-3.5653687 3.5653305c1.7288361 1.5814896 4.041523 2.5564194 6.580925 2.5564194 2.5394363 0 4.8520889-.9749298 6.5866013-2.5564194z" fill="#ebf0f3"/><path d="m65.8806534 82.7541809c-1.4638214 0-2.6505394 1.1866531-2.6505394 2.6504135 0 1.4638901 1.186718 2.6505356 2.6505394 2.6505356 1.463829 0 2.6504822-1.1866455 2.6504822-2.6505356 0-1.4637604-1.1866532-2.6504135-2.6504822-2.6504135z" fill="#ebf0f3"/><path d="m92.1085434 87.3808899h-4.004631v-2.1754532h4.004631c1.5806046 0 2.8659058-1.2853088 2.8659058-2.8659134v-28.971405h2.1754608v28.971405c0 2.7798691-2.2614975 5.0413666-5.0413666 5.0413666z" fill="#4d5c7d"/><path d="m99.270134 75.5550232h-3.2079544v-2.1754532h3.2079544c1.8281021 0 3.3162918-1.4871292 3.3162918-3.315239v-8.116539h2.1754608v8.116539c0 3.0273743-2.4633255 5.4906922-5.4917526 5.4906922z" fill="#4d5c7d"/><path d="m105.2585449 48.7843475c-.8047714-1.1546516-2.2341461-1.8397942-3.8091049-1.5273628-1.3962402.2771111-2.5509567 1.384491-2.8688354 2.771904-.5597305 2.4432716 1.281189 4.6118279 3.6285324 4.6118279 1.2659836 0 2.3754883-.6366768 3.0486145-1.6018524.0836487-.1198997.1232224-.2667542.1232224-.4129448v-3.4310188c-.0000001-.145527-.0393067-.2911874-.122429-.4105531z" fill="#ebf0f3"/><path d="m102.1957245 47.1827621c-2.0534973.0074348-3.7162323 1.6731529-3.7162323 3.7281799 0 2.0554237 1.662735 3.7210083 3.7162323 3.728447z" fill="#4d5c7d"/><path d="m95.4017334 50.9988022c-.2692719.1434021-.4375076.4235649-.4375076.7285614v5.3941612h2.1269302l1.1452866-3.4356651 2.257782-.0327988v-5.3662796z" fill="#4d5c7d"/><path d="m112.8947906 56.2436295c-.8047791-1.1546478-2.2341461-1.8397903-3.8091125-1.5273628-1.3962402.2771111-2.5509567 1.384491-2.8688278 2.771904-.5597382 2.4432755 1.2811813 4.6118279 3.6285248 4.6118279 1.2659836 0 2.3754883-.6366768 3.0486145-1.6018524.0836563-.1198997.1232224-.2667503.1232224-.412941v-3.4310226c-.0000001-.1455232-.0393067-.2911836-.1224214-.4105531z" fill="#ebf0f3"/><g fill="#4d5c7d"><path d="m109.8319626 54.6420441c-2.0534973.0074348-3.7162247 1.6731529-3.7162247 3.7281799 0 2.0554276 1.6627274 3.7210121 3.7162247 3.728447z"/><path d="m103.0379791 58.4580841c-.2692795.1434021-.4375076.4235649-.4375076.7285614v5.394165h2.1269226l1.1452866-3.4356689 2.257782-.032795v-5.3662834z"/></g></svg>