<svg enable-background="new 0 0 140 140" height="512" viewBox="0 0 140 140" width="512" xmlns="http://www.w3.org/2000/svg"><circle cx="70" cy="70" fill="#ea8953" r="64"/><path d="m36.6228371 93.5349808 39.7597084 40.146843c27.4628296-2.7195435 49.8041992-22.8024826 55.9320602-49.1151047l-46.7917404-46.7917481c-3.7199707-4.4299927-9.2999878-7.2600098-15.5200195-7.2600098-11.1699867 0-20.2500038 9.0800171-20.2500038 20.25v5.7800293c-2.9299927.1699829-5.8499756.3599854-8.7699585.5999756-3.3500366.2700195-6.210022 2.6199951-6.9800415 5.8900146-2.0799541 8.789978-2.0799541 17.5800171 0 26.3599854.3900146 1.670044 1.3400268 3.1000366 2.6199951 4.1400147z" opacity=".1"/><path d="m106.0017776 63.0374908c-.7741165-3.2711411-3.6320953-5.618309-6.98246-5.8922157-19.3462601-1.5816383-38.6924057-1.5816383-58.0385475 0-3.3503609.2739067-6.2082329 2.6210747-6.9824638 5.8922157-2.0795765 8.7867355-2.0795765 17.5735321 0 26.3602676.774231 3.2711411 3.632103 5.618309 6.9824638 5.8922195 19.3461418 1.5816345 38.6922874 1.5816345 58.0385475 0 3.3503647-.2739105 6.2083435-2.6210785 6.98246-5.8922195 2.0794678-8.7867355 2.0794678-17.573471 0-26.3602676z" fill="#fcd462"/><path d="m92.8249588 66.0398102h-45.6497078c-1.7010002 0-3.0801239 1.3790131-3.0801239 3.0801163v20.325737c0 1.7011032 1.3791237 3.0801239 3.0801239 3.0801239h45.6497078c1.7009964 0 3.0799103-1.3790207 3.0799103-3.0801239v-20.325737c0-1.7011033-1.3789139-3.0801163-3.0799103-3.0801163z" fill="#f7be56"/><g fill="#4d5c7d"><path d="m56.258083 71.661545h27.483837v1.034338h-27.483837z"/><path d="m69.9995499 30.5113602c-11.1665688 0-20.2508583 9.0847778-20.2508583 20.2513428v45.1235962c1.2669067.0722656 2.5338135.135437 3.8007202.1941528v-45.317749c0-9.0708618 7.3797607-13.8598633 16.4501381-13.8598633 9.0712891 0 16.4510498 4.7890015 16.4510498 13.8598633v45.317749c1.2669067-.0587158 2.5338135-.1218872 3.8007202-.1941528v-45.1235963c0-11.1665649-9.0852051-20.2513427-20.25177-20.2513427z"/></g></svg>