<svg enable-background="new 0 0 140 140" height="512" viewBox="0 0 140 140" width="512" xmlns="http://www.w3.org/2000/svg"><circle cx="70" cy="70" fill="#e05b49" r="64"/><path d="m108.5714035 38.7916756c-.4599609-.7000122-4.289978-.5700073-4.8899536-1.1500244-.7300415-.7199707-1.6799927-1.3699951-2.6900024-1.2399902-1.1100464.1499634-1.8699951 1.1599731-2.5 2.0800171-.4500122.6499634-.8900146 1.3099976-1.3400269 1.9599609-.8599854 1.2700195 1.3900146 1.7800293.7200317 3.1600342-.1900024.4099731-.210022.8399658-.1199951 1.2600098-.3500366 1.3499756-1.4000244 4.6099854-3.9200439 7.7599487l-.0100098.0100098c-5.6399536 2.3800049-19.3599854 7.9299927-25.2299805 8.0100098-14.1400108.1799927-26.6899986-5.6400146-31.2799644-8.0599976-.1199951-.0599976-.2400513-.1099854-.3600464-.1500244-1.0199585-.3499756-2.1599731-.039978-2.8399658.8300171l-.3900146.4799805-1.3300171 1.6700439c-.5100117.6399536-.6799946 1.4799805-.4699726 2.2600098.039978.1399536.0899677.2799683.1499653.4199829.9200439 1.9500122 2.8500366 5.5 5.9800415 8.7899132-.9800415-.3898926-1.9800415-.8099365-3-1.2698975-.0900269-.0400391-.1799927-.0799561-.2700195-.1199951-.7600098-.3500977-1.6599731-.1600342-2.2299805.4499512l-.3800049.4100342-1.330019 1.4599609c-.4699707.5100098-.6300049 1.2399902-.4099731 1.9100342.0299683.1099854.0700073.2299805.1199951.3599854.5199585 1.539917 1.4799824 4.1300049 2.8999653 6.7800293.2600098.4799805.5300293.9599609.8099976 1.4399414-.8899536.25-1.6799927.8800049-2.0899658 1.7800293l-1.3099995 2.8699951c-.3099976.6699219-.3699951 1.4199219-.2000122 2.1099854.0900269.4000244.2600098.7800293.5 1.1199951 1.369997 1.9599609 3.7199726 5.2700195 4.9899921 6.8601074.0900269.119873.2399902.2598877.4199829.4199219l40.1813316 40.1813965c32.1713256-3.3743899 57.247261-30.5781253 57.247261-63.6430667 0-2.0483398-.1063232-4.0715332-.2944946-6.0706749z" opacity=".1"/><path d="m96.3183594 51.5540237v10.8127518s-.515831.2279854-1.4427414.6204491c-2.3920059 1.012867-7.523674 3.117115-13.6346283 5.2400246-10.1325378 3.5133667-22.9635811 7.0752335-30.4798622 5.7596512-5.4904633-.9605789-9.6690369-3.9057846-12.7114639-7.1088562-3.1320381-3.2853355-5.0606346-6.8397636-5.9763641-8.7832794-.0635109-.1383362-.1158409-.2803192-.1532078-.4223938-.2093258-.7773972-.0411072-1.6183472.4709377-2.2612l1.3305931-1.670681.3849373-.4821587c.6839561-.8633537 1.8276749-1.1810837 2.840538-.829731.1233711.041111.2429543.0896988.3625336.1532555 4.5897408 2.4181938 17.1405144 8.2413025 31.2834473 8.0581665 5.8680038-.0747795 19.5998154-5.6287498 25.2397461-8.0133629 1.5474013-.6578178 2.4855346-1.0726357 2.4855346-1.0726357z" fill="#f7be56"/><path d="m96.3183594 51.5540237c-3.2554474 6.0585785-7.9124451 8.6412048-9.1832199 9.10466-2.4481277.8895874-4.8102493 1.633358-7.0864105 2.238842-25.0865822 6.686512-39.5509415-2.9863548-44.7910156-7.6694908-.6540756-.590519-1.1660728-1.0988693-1.5360909-1.487545l.3849373-.4821587c.6839561-.8633537 1.8276749-1.1810837 2.840538-.829731.1233711.041111.2429543.0896988.3625336.1532555 4.5897408 2.4181938 17.1405144 8.2413025 31.2834473 8.0581665 5.8680038-.0747795 19.5998154-5.6287498 25.2397461-8.0133629 1.5474013-.6578177 2.4855346-1.0726356 2.4855346-1.0726356z" fill="#fcd462"/><path d="m93.0778732 86.3581848s-7.0901947.2952805-16.1836319.3924637h-.0037384c-14.8082771.1569901-34.9313164-.2055893-38.3997421-3.1918945-1.2857475-1.1100464-2.4257202-2.4966736-3.4161835-3.9804688-.2840614-.4186554-.553154-.844696-.8110237-1.2782669-.2840576-.4783707-.5568924-.9605331-.8148117-1.4426956-1.4127617-2.6499634-2.380825-5.2363358-2.9003067-6.7799454-.0448952-.1270676-.082262-.2466965-.119627-.3587952-.2168083-.6652985-.0598145-1.3941498.4148636-1.9098892l1.3305492-1.4539185.3774986-.4111252c.5681152-.6167068 1.4688835-.7998886 2.2313156-.4522781.0896988.0411072.183136.0822678.2728806.1233292 1.0166054.4597549 2.0145531.8783646 2.9937477 1.2633438 19.7792549 7.7890701 33.2083015 1.6819 41.9990654-3.9805183 3.4796906-2.238842 6.2304916-4.410347 8.364624-5.6213112 2.3061447-1.3118896 4.0665207-2.9601707 5.4120331-4.6458168l.003746-.0037384h.0036926c3.2853317-4.1113243 4.0665207-8.4169579 4.0665207-8.4169579l1.6744156 1.2820015.9680176.7400322s.4410553 13.604702.8932877 15.9855728v.0036964c.0149612.0747795.0261841.1345482.0411072.1868782.4671936 1.7117921-8.3983002 23.9503022-8.3983002 23.9503022z" fill="#f7be56"/><path d="m108.7868271 74.9212875c-2.0219879 11.1155167-16.0191574 22.9448776-33.4399872 27.6130905-17.4170456 4.6644745-37.3232727-7.157402-39.1920586-9.4896393-1.2708244-1.5884628-3.6217232-4.9074707-4.9934254-6.8659515-.2391644-.3400803-.407383-.7213211-.5008221-1.1137848-.1682167-.6951828-.1046619-1.4389572.2017975-2.1116867l1.3118897-2.8704757c.4111671-.9007645 1.1923065-1.5323868 2.0893326-1.7828217.3176842-.0896988.6503334-.130806.9866753-.1195831.2728806.0074844.5494576.0522842.8185501.130806 24.7576294 7.2732849 28.4653091 3.0012283 39.2780609 1.0464935 8.925354-1.6071243 15.7799911-10.1399765 19.5287781-16.3705101.5494156-.9082489 1.0315704-1.7716026 1.4427414-2.552742.3064575-.5830803.5755539-1.1212692.8035431-1.6034279 2.2425385-4.7541733 2.2462769-10.5212555 2.1939926-12.1508293v-.0037422c-.0074844-.2877998-.0187073-.4447479-.0187073-.4447479h5.28862s-2.6424408 6.8434601 0 12.5993195c2.646225 5.7520675 6.2230988 4.9747199 4.2010193 16.0902327z" fill="#f7be56"/><path d="m101.4350662 62.217308v.0036964c-1.9360352 8.8356133-7.3592453 18.0524559-20.4369812 23.0944328-1.394104.5382309-2.7621155 1.0128632-4.1038437 1.4352112h-.0037384c-22.3918114 7.0079346-37.7083473-1.5884628-42.8325348-5.2064056-1.2408981-.8783645-1.8837471-1.4614028-1.8837471-1.4614028.4111671-.9007645 1.1923065-1.5323868 2.0893326-1.7828217.3176842-.0896988.6503334-.130806.9866753-.1195831.2728806.0074844.5494576.0522842.8185501.130806 24.7576294 7.2732849 28.4653091 3.0012283 39.2780609 1.0464935 8.925354-1.6071243 15.7799911-10.1399765 19.5287781-16.3705101.5494156-.9082489 1.0315704-1.7716026 1.4427414-2.552742.3064575-.5830803.5755539-1.1212692.8035431-1.6034279 2.2425385-4.7541733 2.2462769-10.5212555 2.1939926-12.1508293v-.0037422c-.0074844-.2877998-.0187073-.4447479-.0187073-.4447479h2.5863647c.5793458 4.2196807.8596573 10.0166473-.4484863 15.9855727z" fill="#fcd462"/><path d="m99.573761 45.491703c-.0448456.2391663-.0934372.4858589-.1495056.7400322-.0336304.1457253-.0672989.2952385-.1083603.4484901-.5120926 2.0818481-1.4688873 4.5747757-2.9975357 7.2135201-2.8069153 4.8476105-7.5536499 10.1773834-15.0773697 14.3335037h-.0037384c-3.8795547 2.1416626-8.4954834 3.9693375-13.9672394 5.2587814-19.3157997 4.5486374-30.0500793-2.5826263-33.6792374-5.7446365-.9530983-.8297272-1.4165535-1.3866196-1.4165535-1.3866196l.3774986-.4111252c.5681152-.6167068 1.4688835-.7998886 2.2313156-.4522781.0896988.0411072.183136.0822678.2728806.1233292 1.0166054.4597549 2.0145531.8783646 2.9937477 1.2633438 19.7792549 7.7890701 33.2083015 1.6819 41.9990654-3.9805183 3.4796906-2.238842 6.2304916-4.410347 8.364624-5.6213112 2.3061447-1.3118896 4.0702591-2.9639091 5.4157791-4.6495552h.0036926c3.2853317-4.1113243 4.0665207-8.4169579 4.0665207-8.4169579z" fill="#fcd462"/><g fill="#4d5c7d"><path d="m97.1549759 40.4409103c.4455643-.6538582.8911362-1.3077164 1.3367004-1.9615746.6287079-.9226112 1.3879166-1.9292564 2.4947586-2.0754547 1.0145111-.1340027 1.9627686.5171852 2.69384 1.233223.6007919.5884361 4.4352036.4516411 4.8915253 1.1580238.7278824 1.1267586 1.2648239 2.467083 1.0455551 3.7904549-.0832214.5022964-.2790985.9932671-.6117477 1.3787231-.3424149.3967743-.8085022.6622086-1.2649078.9198456-.5444946.3073616-1.0889893.6147232-1.6334839.9220848-1.0244675.5783043-2.063118 1.1624756-3.2005005 1.4630585-1.2459717.3292809-2.645134.2822495-3.7369385-.4024963-1.026123-.6435623-1.8578033-2.0846901-1.2936325-3.2607689.6645966-1.3854065-1.5850372-1.8974228-.7211685-3.1651192z"/><path d="m36.9470978 52.4286003c.0523338 1.0689392-.8894958 2.0481796-1.6893845 2.7994347-.0971794.0896988-.1868782.1756554-.276577.2579155-.7885742.7325478-1.8986664 1.2147102-2.6386986 1.9547386-.1382866.0822144-.2803154.1606903-.4223461.2316818-.2093258-.7773972-.0411072-1.6183472.4709377-2.2612l1.3305931-1.670681.3849373-.4821587c.6839562-.8633536 1.8276749-1.1810836 2.8405381-.8297309z"/><path d="m35.0559158 65.6147003c-.1794434.7961426-.8409538 1.5286942-1.4651413 2.1266937-.1569519.1532516-.3102036.2915421-.4522324.4260864-.7737007.7175903-1.8500767 1.1922684-2.590107 1.9098969-.0448952-.1270676-.082262-.2466965-.119627-.3587952-.2168083-.6652985-.0598145-1.3941498.4148636-1.9098892l1.3305492-1.4539185.3774986-.4111252c.5681152-.6167068 1.4688835-.7998886 2.2313156-.4522781.089699.0411072.1831362.0822678.2728807.1233292z"/><path d="m35.0745773 79.5782852c-.2279434.6391068-.5980034 1.2669907-.9044647 1.7828217-.0374107.0635071-.0747299.1233215-.1121445.183136-.5531502.8521805-1.3903618 1.5847244-1.853817 2.448082-.3363895.3588333-.6989231.7064056-1.1399765.9232101-.1270638.0635071-.2653522.1158447-.4036407.1494675-.1682167-.6951828-.1046619-1.4389572.2017975-2.1116867l1.3118896-2.8704758c.4111671-.9007645 1.1923065-1.5323868 2.0893326-1.7828217.3176842-.0896988.6503334-.130806.9866753-.1195831.0785217.4484863-.0111771.9269104-.1756516 1.39785z"/></g></svg>