<svg enable-background="new 0 0 140 140" height="512" viewBox="0 0 140 140" width="512" xmlns="http://www.w3.org/2000/svg"><circle cx="70" cy="70" fill="#45b39c" r="64"/><path d="m105.9907303 38.0183372-4.0100098-4.0100098c-4.6900635-4.6900005-12.2999268-4.6900005-16.9899902 0l-14.9899902 14.9899903-14.9901124-14.9899902c-4.6899414-4.6900005-12.2999268-4.6900005-16.9899902 0l-4.0100098 4.0100098c-4.6899414 4.6900024-4.6899414 12.2999878 0 16.9899902l14.9901123 14.989994-14.9901123 14.9899903c-4.6899414 4.6900024-4.6899414 12.2999878 0 16.9899902l31.8760986 31.8760376c1.3614502.0864258 2.7301025.1456299 4.1132812.1456299 35.3461914 0 64.0000076-28.6537476 64.0000076-64 0-1.3848877-.0593262-2.7553101-.1459961-4.1183472z" opacity=".1"/><path d="m105.9903183 38.0199585-4.0102768-4.010273c-4.6918335-4.6918354-12.2987976-4.6917915-16.9906311.000042l-50.9796638 50.97966c-4.6918316 4.6918335-4.6918316 12.2987595 0 16.990593l4.0102768 4.0102768c4.6918335 4.6918259 12.2987556 4.6918259 16.9905891 0l50.97966-50.9796677c4.6918335-4.6918297 4.6918793-12.2987976.0000458-16.9906311z" fill="#f7be56"/><path d="m101.9799805 105.9903183 4.0102768-4.0102768c4.6918335-4.6918335 4.6918793-12.2988815.0000458-16.990715l-50.9796639-50.9796639c-4.6918335-4.6918354-12.2988434-4.6917477-16.9906769.0000839l-4.010273 4.0102768c-4.6918335 4.6918335-4.6918335 12.2987556 0 16.9905891l50.97966 50.97966c4.6918336 4.6918336 12.2987977 4.6918794 16.9906312.0000459z" fill="#fcd462"/><path d="m57.19389 57.193863h25.612255v25.612255h-25.612255z" fill="#f7be56" transform="matrix(-.707 .707 -.707 -.707 168.995 70)"/><g fill="#fcd462"><path d="m84.9124832 70.8872223c.4088135-.4088058.4088516-1.0716629.0000381-1.4804688-.4088516-.4088516-1.071701-.4088135-1.4805145 0-.4088135.4088058-.4088516 1.0716629 0 1.4805145.4088135.4088059 1.0716629.4087678 1.4804764-.0000457z"/><path d="m82.1074371 73.6922684c.4088135-.4088058.4088516-1.0716629.0000381-1.4804688-.4088516-.4088516-1.071701-.4088135-1.4805145 0-.4088135.4088058-.4088516 1.0716629 0 1.4805145.4088135.4088059 1.071663.4087677 1.4804764-.0000457z"/><path d="m79.3023911 76.4973145c.4088135-.4088058.4088516-1.0716629.0000381-1.4804688-.4088516-.4088516-1.071701-.4088135-1.4805145 0-.4088135.4088058-.4088516 1.0716629 0 1.4805145.4088134.4088059 1.0716629.4087677 1.4804764-.0000457z"/><path d="m76.497345 79.3023605c.4088135-.4088058.4088516-1.0716629.0000381-1.4804688-.4088516-.4088516-1.071701-.4088135-1.4805145 0-.4088135.4088058-.4088516 1.0716629 0 1.4805145.4088135.408806 1.0716629.4087678 1.4804764-.0000457z"/><path d="m73.6922989 82.1074066c.4088135-.4088058.4088516-1.0716629.0000381-1.4804688-.4088516-.4088516-1.071701-.4088135-1.4805145 0-.4088135.4088058-.4088516 1.0716629 0 1.4805145.4088135.4088059 1.0716629.4087678 1.4804764-.0000457z"/><path d="m70.8872528 84.9124603c.4088135-.4088135.4088516-1.0716705.0000381-1.4804764-.4088516-.4088516-1.071701-.4088135-1.4805145 0-.4088135.4088058-.4088516 1.0716629 0 1.4805145.4088135.4088059 1.0716629.4087678 1.4804764-.0000381z"/><path d="m82.5259476 68.5006866c.4088135-.4088135.4088516-1.0716629.0000381-1.4804764-.4088516-.4088516-1.071701-.4088058-1.4805145 0-.4088135.4088135-.4088516 1.0716629 0 1.4805145.4088135.4088136 1.0716629.4087754 1.4804764-.0000381z"/><path d="m79.7209015 71.3057327c.4088135-.4088135.4088516-1.0716629.0000381-1.4804764-.4088516-.4088516-1.071701-.4088058-1.4805145 0-.4088135.4088135-.4088516 1.0716629 0 1.4805145.4088135.4088136 1.0716629.4087754 1.4804764-.0000381z"/><path d="m76.9158554 74.1107788c.4088135-.4088135.4088516-1.0716629.0000381-1.4804764-.4088516-.4088516-1.071701-.4088058-1.4805145 0-.4088135.4088135-.4088516 1.0716629 0 1.4805145.4088135.4088135 1.0716629.4087754 1.4804764-.0000381z"/><path d="m74.1108093 76.9158249c.4088058-.4088135.4088516-1.0716629.0000381-1.4804764-.4088516-.4088516-1.071701-.4088058-1.4805145 0-.4088135.4088135-.4088516 1.0716629 0 1.4805145.4088135.4088135 1.0716629.4087754 1.4804764-.0000381z"/><path d="m71.3057632 79.720871c.4088058-.4088135.4088516-1.0716629.0000381-1.4804764-.4088516-.4088516-1.071701-.4088058-1.4805145 0-.4088135.4088135-.4088516 1.0716629 0 1.4805145.4088135.4088135 1.071663.4087753 1.4804764-.0000381z"/><path d="m68.5007172 82.5259171c.4088058-.4088135.4088516-1.0716629.0000381-1.4804764-.4088516-.4088516-1.071701-.4088058-1.4805145 0-.4088135.4088135-.4088516 1.0716629 0 1.4805145.4088135.4088135 1.0716629.4087753 1.4804764-.0000381z"/><path d="m80.1394043 66.114151c.4088135-.4088135.4088516-1.0716629.0000458-1.4804764-.4088516-.4088516-1.0717087-.4088135-1.4805145 0-.4088135.4088135-.4088516 1.0716629 0 1.4805145.4088058.4088135 1.0716628.4087754 1.4804687-.0000381z"/><path d="m77.3343582 68.9191971c.4088135-.4088135.4088516-1.0716629.0000458-1.4804764-.4088516-.4088516-1.0717087-.4088135-1.4805145 0-.4088135.4088135-.4088516 1.0716629 0 1.4805145.4088058.4088135 1.0716629.4087754 1.4804687-.0000381z"/><path d="m74.5293121 71.7242432c.4088135-.4088135.4088516-1.0716629.0000458-1.4804764-.4088516-.4088516-1.0717087-.4088135-1.4805145 0-.4088135.4088135-.4088516 1.0716629 0 1.4805145.4088058.4088135 1.0716629.4087753 1.4804687-.0000381z"/><path d="m71.7242661 74.5292892c.4088135-.4088135.4088516-1.0716629.0000458-1.4804764-.4088516-.4088516-1.0717087-.4088135-1.4805145 0-.4088135.4088135-.4088516 1.0716629 0 1.4805145.4088057.4088136 1.0716628.4087754 1.4804687-.0000381z"/><path d="m68.91922 77.3343353c.4088135-.4088135.4088516-1.0716629.0000458-1.4804764-.4088516-.4088516-1.0717087-.4088135-1.4805145 0-.4088135.4088135-.4088516 1.0716629 0 1.4805145.4088058.4088136 1.0716628.4087754 1.4804687-.0000381z"/><path d="m66.1141739 80.1393814c.4088135-.4088135.4088516-1.0716629.0000458-1.4804764-.4088516-.4088516-1.0717087-.4088135-1.4805145 0-.4088135.4088135-.4088516 1.0716629 0 1.4805145.4088058.4088135 1.0716628.4087754 1.4804687-.0000381z"/><path d="m77.7528687 63.7276115c.4088135-.4088135.4088516-1.0716629.0000381-1.4804764-.4088516-.4088516-1.071701-.4088097-1.4805145 0-.4088135.4088135-.4088516 1.0716629 0 1.4805145.4088134.4088098 1.0716629.4087716 1.4804764-.0000381z"/><path d="m74.9478226 66.5326538c.4088135-.4088058.4088516-1.0716629.0000381-1.4804688-.4088516-.4088516-1.071701-.4088135-1.4805145 0-.4088135.4088058-.4088516 1.0716629 0 1.4805145.4088135.4088059 1.0716629.4087678 1.4804764-.0000457z"/><path d="m72.1427765 69.3376999c.4088135-.4088058.4088516-1.0716629.0000381-1.4804688-.4088516-.4088516-1.071701-.4088135-1.4805145 0-.4088135.4088058-.4088516 1.0716629 0 1.4805145.4088135.4088059 1.0716629.4087678 1.4804764-.0000457z"/><path d="m69.3377304 72.142746c.4088135-.4088058.4088516-1.0716629.0000381-1.4804688-.4088516-.4088516-1.071701-.4088135-1.4805145 0-.4088135.4088058-.4088516 1.0716629 0 1.4805145.4088135.4088059 1.0716629.4087677 1.4804764-.0000457z"/><path d="m66.5326843 74.9477997c.4088135-.4088135.4088516-1.0716705.0000381-1.4804764-.4088516-.4088516-1.071701-.4088135-1.4805145 0-.4088135.4088058-.4088516 1.0716629 0 1.4805145.4088135.4088059 1.0716629.4087677 1.4804764-.0000381z"/><path d="m63.7276382 77.7528458c.4088135-.4088135.4088516-1.0716705.0000381-1.4804764-.4088516-.4088516-1.071701-.4088135-1.4805145 0-.4088097.4088058-.4088516 1.0716629 0 1.4805145.4088135.4088135 1.071663.4087677 1.4804764-.0000381z"/><path d="m75.366333 61.3410721c.4088135-.4088097.4088516-1.0716629.0000381-1.4804726-.4088516-.4088516-1.071701-.4088135-1.4805145 0-.4088135.4088097-.4088516 1.0716629 0 1.4805145.4088135.4088097 1.0716629.4087716 1.4804764-.0000419z"/><path d="m72.5612869 64.1461182c.4088135-.4088097.4088516-1.0716629.0000381-1.4804726-.4088516-.4088516-1.071701-.4088135-1.4805145 0-.4088135.4088097-.4088516 1.0716629 0 1.4805107.4088135.4088135 1.0716629.4087753 1.4804764-.0000381z"/><path d="m69.7562408 66.9511642c.4088135-.4088135.4088516-1.0716629.0000381-1.4804764-.4088516-.4088516-1.071701-.4088058-1.4805145 0-.4088135.4088135-.4088516 1.0716629 0 1.4805145.4088135.4088136 1.071663.4087754 1.4804764-.0000381z"/><path d="m66.9511948 69.7562103c.4088058-.4088135.4088516-1.0716629.0000381-1.4804764-.4088516-.4088516-1.071701-.4088058-1.4805145 0-.4088135.4088135-.4088516 1.0716629 0 1.4805145.4088135.4088136 1.0716629.4087754 1.4804764-.0000381z"/><path d="m64.1461487 72.5612564c.4088058-.4088135.4088516-1.0716629.0000381-1.4804764-.4088516-.4088516-1.0717049-.4088058-1.4805145 0-.4088135.4088135-.4088516 1.0716629 0 1.4805145.4088097.4088135 1.0716629.4087754 1.4804764-.0000381z"/><path d="m61.3410988 75.3663025c.4088135-.4088135.4088516-1.0716629.000042-1.4804764-.4088516-.4088516-1.0717049-.4088058-1.4805145 0-.4088135.4088135-.4088516 1.0716629 0 1.4805145.4088096.4088135 1.0716628.4087754 1.4804725-.0000381z"/><path d="m72.9797897 58.9545364c.4088135-.4088135.4088516-1.0716629.0000458-1.4804764-.4088516-.4088516-1.0717087-.4088135-1.4805145 0-.4088135.4088135-.4088516 1.0716629 0 1.4805145.4088058.4088136 1.0716629.4087716 1.4804687-.0000381z"/><path d="m70.1747437 61.7595825c.4088135-.4088135.4088516-1.0716629.0000458-1.4804764-.4088516-.4088516-1.0717087-.4088135-1.4805145 0-.4088135.4088135-.4088516 1.0716629 0 1.4805145.4088057.4088135 1.0716628.4087716 1.4804687-.0000381z"/><path d="m67.3696976 64.5646286c.4088135-.4088135.4088516-1.0716629.0000458-1.4804764-.4088516-.4088516-1.0717087-.4088135-1.4805145 0-.4088135.4088135-.4088516 1.0716629 0 1.4805145.4088058.4088135 1.0716628.4087754 1.4804687-.0000381z"/><path d="m64.5646515 67.3696747c.4088135-.4088135.4088516-1.0716629.0000458-1.4804764-.4088516-.4088516-1.0717049-.4088135-1.4805183 0-.4088097.4088135-.4088516 1.0716629 0 1.4805145.4088134.4088135 1.0716666.4087754 1.4804725-.0000381z"/><path d="m61.7596092 70.1747208c.4088097-.4088135.4088516-1.0716629.0000381-1.4804764-.4088516-.4088516-1.071701-.4088135-1.4805145 0-.4088097.4088135-.4088516 1.0716629 0 1.4805145.4088135.4088135 1.0716629.4087753 1.4804764-.0000381z"/><path d="m58.9545631 72.9797668c.4088097-.4088135.4088516-1.0716629.0000381-1.4804764-.4088516-.4088516-1.071701-.4088135-1.4805145 0-.4088097.4088135-.4088516 1.0716629 0 1.4805145.4088135.4088136 1.071663.4087754 1.4804764-.0000381z"/><path d="m70.5932541 56.567997c.4088135-.4088135.4088516-1.0716629.0000381-1.4804764-.4088516-.4088516-1.071701-.4088097-1.4805145 0-.4088058.4088135-.4088516 1.0716629 0 1.4805145.4088135.4088135 1.0716629.4087715 1.4804764-.0000381z"/><path d="m67.788208 59.3730431c.4088135-.4088135.4088516-1.0716629.0000381-1.4804764-.4088516-.4088516-1.071701-.4088097-1.4805145 0-.4088135.4088135-.4088516 1.0716629 0 1.4805145.4088135.4088135 1.0716629.4087753 1.4804764-.0000381z"/><path d="m64.9831619 62.1780891c.4088135-.4088135.4088516-1.0716629.0000381-1.4804764-.4088516-.4088516-1.071701-.4088097-1.4805107 0-.4088135.4088135-.4088516 1.0716629 0 1.4805145.4088097.4088136 1.0716591.4087754 1.4804726-.0000381z"/><path d="m62.1781158 64.983139c.4088135-.4088135.4088516-1.0716667.000042-1.4804802-.4088516-.4088516-1.0717049-.4088097-1.4805183 0-.4088097.4088135-.4088478 1.0716667 0 1.4805183.4088134.4088059 1.0716667.4087678 1.4804763-.0000381z"/><path d="m59.3730698 67.7881851c.4088135-.4088135.4088516-1.0716705.0000381-1.4804764-.4088478-.4088516-1.071701-.4088135-1.4805145 0-.4088097.4088058-.4088478 1.0716629 0 1.4805145.4088135.4088059 1.0716667.4087678 1.4804764-.0000381z"/><path d="m56.5680237 70.5932312c.4088135-.4088135.4088516-1.0716629.0000381-1.4804764-.4088516-.4088516-1.071701-.4088135-1.4805145 0-.4088097.4088135-.4088516 1.0716629 0 1.4805145.4088135.4088135 1.0716629.4087677 1.4804764-.0000381z"/></g></svg>