<svg enable-background="new 0 0 140 140" height="512" viewBox="0 0 140 140" width="512" xmlns="http://www.w3.org/2000/svg"><circle cx="70" cy="70" fill="#efc84a" r="64"/><path d="m132.6950073 82.918808-27.0971146-27.0971642c-1.2600098-1.5499878-3.1199951-3.2199707-5.8800049-4.8200073-6.5900269-3.7999878-18.2999878-7.1399536-39.2300377-7.1399536-21.2799683 0-28.8199482 4.3399658-28.829958 8.8999634l-.0500488 15.510067c0 1.4199219.7500019 2.8598633 2.0200214 4.1999512l.1199951.1199951c.0700073.0799561.1500244.1600342.2300415.2299805l57.4800377 57.4801025c20.8458864-7.4187012 36.7162553-25.3278809 41.2370683-47.3829346z" opacity=".1"/><g enable-background="new"><path d="m33.4653587 67.1832809c-.0997543.3017654-.1563988.6085968-.1721687.9185486.014595-5.1719818.0293846-10.3434563.0439796-15.5154457.0157776-.309948.072422-.6167793.1721764-.9185486 1.4398193-4.3438225 11.2763557-6.8346062 26.9801674-6.8346977 16.4734001-.0000954 28.8686714 2.084095 36.8364296 6.1988373.4228134.2182274.8276291.439518 1.2135696.6623421.9756165.5632248 1.8358841 1.1391869 2.5942917 1.7187119-.014595 5.1719894-.0293884 10.3434639-.0439911 15.5154533-.7584-.5795364-1.6186676-1.1554947-2.5942841-1.7187271-.3859482-.2228165-.7907562-.4441071-1.2135696-.6623383-7.9677582-4.1147385-20.3630295-6.1989326-36.8364334-6.1988373-15.7038116.0000916-25.5403442 2.4908753-26.9801674 6.8347015z" fill="#e56353"/><g fill="#d5d6db"><path d="m71.1917572 62.5091019c-.0196075.0577202-.0287247.1151505-.0288849.1722412l.0439835-15.5154419c.0001678-.0570946.0092773-.114521.0288849-.1722412.1647491-.4808121 1.0424881-.8790855 1.8835678-.8213158l-.0439911 15.5154495c-.8410721-.0577736-1.7188111.3404961-1.8835602.8213082z"/><path d="m50.006958 62.2079277c-2.1928291.0633583-4.3689346.3367386-6.4091339.8073654.0152245-5.1720238.0299606-10.3435402.0445595-15.5155716 2.0400314-.4705467 4.2159348-.743885 6.4085617-.8072357 1.2146606-.0350761 2.4300804.0701485 3.637558.0268021.7264519-.0276413 1.6140327-.053997 2.1430702.251442.1427765.0824318.259449.1890755.3397064.3263359.0576744.1002045.0840187.2034111.0837135.3069115l-.0439911 15.5154495c.0003128-.1035042-.0260353-.2067146-.0837097-.3069153-.0802574-.1372643-.1969299-.2439079-.3397064-.3263397-.5290375-.305439-1.4166183-.2790833-2.1430702-.2514381-1.2074776.0433425-2.4228935-.0618783-3.637558-.026806z"/><path d="m69.0633011 62.0775986c-.8040695-.4642296-2.0071411-.7110939-3.1321411-.5940704l.0439835-15.5154343c1.1250076-.1170311 2.3280716.1298332 3.1321411.5940628.38694.2234001.6815338.4972916.8302383.8050232.0830994.1708298.1216431.3443909.121109.5174484l-.0439911 15.5154495c.0005341-.1730614-.038002-.3466263-.1211014-.5174522-.1487121-.3077355-.4432983-.5816269-.8302383-.805027z"/><path d="m62.843338 63.5430069c-.0050964.0465546-.0076904.0931816-.0078278.1398087l.0439835-15.5154381c.0001373-.0466309.0027351-.0932617.0078278-.1398125.1084785-.9781418 1.4215698-1.886116 3.087822-2.0594788l-.0439911 15.5154495c-1.6662446.173359-2.9793358 1.0813294-3.0878144 2.0594712z"/></g><path d="m72.4574356 49.1335106-.0439835 15.5154457c.0008774-.3082886-.2610474-.6297531-.5413971-.9078903-.3322754-.330883-.7102203-.6881371-.7091675-1.0596581l.0439758-15.5154381c-.0010452.3715172.3769073.7287674.7091827 1.0596504.2803499.2781411.542267.5996056.5413896.9078904z" fill="#e56353"/><path d="m72.4134598 64.6488724c-.0001755.0639801-.0116653.1273956-.0366669.1897354.014595-5.1719818.0293884-10.3434448.0439911-15.5154343.0249939-.0623474.0364838-.1257629.0366592-.189743-.0131988 4.6546402-.0310363 10.8608169-.0439834 15.5154419z" fill="#d5d6db"/><path d="m71.3171387 65.7902069c-.0260239.0522003-.0383148.1043701-.0384674.1559219l.0439835-15.5154381c.0001526-.0515556.0124435-.1037254.0384674-.1559258.1585083-.3157425.7275162-.5014496.9680557-.7986069.0407028-.0500641.0708237-.1011581.0916061-.1529922-.0146027 5.1719971-.0293961 10.3434601-.0439911 15.5154495-.0207825.0518265-.0508957.1029205-.0916061.1529846-.2405396.2971574-.8095398.4828645-.9680481.798607z" fill="#d5d6db"/><path d="m70.0586166 47.8843803-.0439911 15.5154495c-.0047302 1.6723595-3.6582794 3.2974586-5.9983444 1.9464149-.0856628-.0494537-.1697998-.1030502-.2516403-.1606216-.5994377-.4180145-.9306679-.960228-.9291306-1.5026436l.0439835-15.5154419c-.0015335.5424156.3296967 1.0846291.9291306 1.5026398.0818443.0575714.1659813.1111717.2516403.1606293 2.3400726 1.3510399 5.9936142-.2740593 5.998352-1.9464264z" fill="#e56353"/><path d="m69.1072769 46.5621834c.3869476.2234077.6815567.4972801.8302307.8050194.8861618 1.8215561-3.2951508 3.9543762-5.877243 2.463604-.085659-.0494576-.169796-.1030579-.2516403-.1606293-.6510162-.4539795-.9856834-1.0544586-.9212952-1.6425934.1084824-.978138 1.4215622-1.8861084 3.0878372-2.0594826 1.1249695-.1170273 2.3280487.1298599 3.1321106.5940819z" fill="#e56353"/><path d="m93.6178055 66.6075363c-1.4834366-.8564606-9.2889786-4.1527672-20.5424805-4.9197464l.0439835-15.5154381c11.2535019.7669754 19.0590439 4.063282 20.5424805 4.9197426.1289368.07444.2101822.1305199.2418213.1648254.0612793.066349.0898285.130867.0895996.1935158l-.0439835 15.5154457c.0002289-.0626526-.0283279-.1271744-.0895996-.1935196-.0316391-.0343017-.1128846-.0903854-.2418213-.1648254z" fill="#d5d6db"/><path d="m61.6104774 65.8237915c.0128136-4.5666809.0258255-9.1329079.0387154-13.6995926 0-.0007515.0000496-.0015717.0001259-.0023232-.0128899 4.5674515-.025959 9.1344681-.0388413 13.7019158z" fill="#d5d6db"/><path d="m35.6243057 67.1832809c-.4196014.6020508-.6338806 1.2592239-.6357918 1.9137421l.0439758-15.5154419c.0019226-.6545181.2162018-1.3116951.6358032-1.9137383 1.2297897-1.774704 3.9406624-3.0933151 6.9286194-3.9064026.344017-.0930939.6927147-.1803551 1.045475-.2617226-.0146027 5.1720352-.0293388 10.3435516-.0445709 15.515583-.3525543.0813217-.7010574.168541-1.0448875.2615814-2.9879608.8130914-5.6988334 2.1317026-6.9286232 3.9063989z" fill="#d5d6db"/><path d="m56.2550011 47.6039391-.0439911 15.5154457c-.0009651.3420029-.2929573.6871872-.7072906.9375-.5396233.330162-1.2688141.5303421-1.973156.7243423-.8180962.2269669-1.6397781.4519196-2.4614639.6768723-1.0813866.2971344-2.1627235.5942993-3.2476234.8935394-2.1484947.5901871-4.328968 1.1907043-6.0943413 2.113121-1.7104912.893692-3.0042229 2.1438065-3.0079994 3.4763565l.0439758-15.5154381c.003788-1.3325577 1.2975197-2.5826683 3.0080109-3.4763603 1.7653732-.9224205 3.9458466-1.5229378 6.0943375-2.1131248 1.0849037-.2992363 2.1662407-.5964012 3.2476273-.8935394.821682-.2249527 1.6433678-.4499054 2.4614639-.6768723.7043381-.1939964 1.4335327-.3941765 1.973156-.7243385.4143331-.2503128.7063215-.5954972.7072943-.9375038z" fill="#e56353"/><path d="m50.9343796 66.8489227c-2.225132.8955917-4.4538116 1.7891312-6.6825256 2.6826553.0145912-5.1719818.0293884-10.3434486.0439835-15.5154381 2.2287178-.893528 4.4573975-1.7870712 6.6825294-2.682663.0001526-.000061.000309-.0001221.0004616-.0001831-.0145988 5.1719856-.0293961 10.3434601-.0439949 15.5154457-.000145.0000612-.0003014.0001222-.000454.0001832z" fill="#d5d6db"/><path d="m44.2518539 69.5315781c-1.0169373.4092255-2.1275444.8932648-2.1297417 1.6667404l.0439835-15.5154381c.0022011-.7734756 1.1128082-1.2575226 2.1297455-1.666748-.0145988 5.171997-.029396 10.3434639-.0439873 15.5154457z" fill="#d5d6db"/><path d="m38.7228012 72.0698318c-.0025711-.0429382-.0037842-.0858002-.0036659-.1285706l.0439873-15.5154381c-.0001183.0427704.0010948.0856285.0036621.1285667.0000038.0000153.0000038.0000305.0000038.0000458-.0145988 5.1719933-.0293884 10.3434601-.0439835 15.5154419-.0000038-.0000151-.0000038-.0000304-.0000038-.0000457z" fill="#d5d6db"/><path d="m38.7284737 72.1946106c.0001221-.0423813-.0025597-.0844498-.0056686-.124733.014595-5.1719818.0293846-10.3434486.0439796-15.5154381.0031128.0402756.0057945.0823441.0056725.124733-.0131951 4.6546326-.0307961 10.8608132-.0439835 15.5154381z" fill="#d5d6db"/><path d="m38.7724648 56.6791954-.0439911 15.5154533c-.0004654.1660614-.0439911.336998-.2733765.4241333-.3092651.1176071-.7232971-.014473-1.0091286-.1547775-.1182823-.0590286-.2318916-.1200485-.3415489-.1833572-1.4278336-.8243561-2.1192589-1.9994736-2.1159019-3.1833344l.0439835-15.5154419c-.0033531 1.183857.6880684 2.3589745 2.1159058 3.1833344.1096573.0633125.2232628.1243286.3415451.1833572.2858353.1403084.6998634.2723846 1.0091324.1547737.2293852-.0871353.2729109-.2580681.2733802-.4241409z" fill="#e56353"/><path d="m57.5934792 65.6829758c-2.6989784-.4106064-4.7250862.3898926-6.658638 1.1657562.0145912-5.171978.0293884-10.3434525.0439835-15.5154381 1.9335556-.7758713 3.9596634-1.5763702 6.6586418-1.16576-.0145187 5.1707611-.0290489 10.3410034-.0437241 15.5117645.0113678-4.0081367.0227814-8.0158958.0340919-12.0240326.0032806-1.1625862.0098839-2.3250732.0098839-3.4876862 1.0692215.163372 2.0391464.4796181 2.8000946.9189491.000042.0000229.0000839.0000458.0001221.0000725-.0055046.6047478-.0035324 1.209507-.0052071 1.8142662-.0126762 4.5659637-.0258904 9.1314926-.0387688 13.6974602.0145874-5.1707497.0293846-10.3409805.043972-15.5117264.5077591.2931709.9224968.6411819 1.211277 1.0351143.0000381.0000496.0000763.000103.0001144.0001564-.0000458.0004654-.0000877.0009804-.0001068.001442-.0000038.0001259-.0000153.0002975-.0000153.0004272-.003067 1.0813522-.0061417 2.1626091-.009201 3.2439613-.0032959 1.1647415-.0066109 2.3293953-.0098915 3.4941292-.0082512 2.9248352-.0165176 5.849411-.0247688 8.7742462.014595-5.171566.0293808-10.3426323.0439796-15.5142021.3705826.5044212.5216713 1.0314178.5201225 1.5674706l-.0439873 15.5154495c.0015488-.5361176-.1495705-1.0631638-.5202332-1.5676422-.2888031-.393959-.7035828-.7419968-1.2113953-1.0351791-.7610052-.4393692-1.7310255-.7556305-2.8003461-.9189987z" fill="#d5d6db"/><path d="m62.1694412 53.6891861-.0439873 15.5154495c-.0004807.170105-.0163345.3411255-.0454254.5126266-.0583572.3500595-.0876122.7011566-.0886078 1.0521088l.0439835-15.5154381c.0009995-.3509521.0302544-.7020569.0886116-1.0521126.0290909-.1715011.0449448-.3425216.0454254-.5126342z" fill="#e56353"/><path d="m62.5935783 73.6050186c-.3984947-.9278793-.6048546-1.8811264-.6021652-2.835556l.0439796-15.5154457c-.0026817.9544296.2036781 1.9076843.6021729 2.835556.0000229.0000534.0000458.000103.0000648.0001526-.0146027 5.1719971-.0293884 10.3434639-.0439873 15.5154457-.000019-.0000534-.0000419-.0001068-.0000648-.0001526z" fill="#d5d6db"/><path d="m62.8876381 74.5728607c-.0553436-.3280792-.1568375-.6499481-.2939911-.9676895.014595-5.1719818.0293808-10.3434486.0439758-15.5154381.1371613.3177338.2386589.6396103.2940025.9676819.0245094.1513596.0369225.304306.0364838.4575424l-.0439949 15.5154457c.0004463-.1532364-.0119667-.3061905-.0364761-.4575424z" fill="#d5d6db"/><path d="m62.9681129 59.5148544-.0439872 15.5154496c-.0025749.9080887-.4565811 1.8263092-1.5198059 2.4831619-1.778698 1.0957794-4.8420296 1.1824493-7.2535362.6129379-2.2169952-.5224915-4.0137329-1.4893112-5.7186127-2.4736252-.1468391-.0847778-.2930031-.1696625-.4386368-.2544174-1.5333176-.8852615-3.063118-1.7726212-4.5929184-2.6599197-.4145851-.2393646-.7724113-.5159225-1.0021515-.829567-.1932411-.2618637-.2769508-.4972076-.2763443-.7105331l.0439835-15.5154343c-.0006027.2133217.083107.4486618.2763481.7105217.2297401.3136444.5875664.5902061 1.0021515.829567 1.5298004.8873024 3.0596008 1.774662 4.5929184 2.6599236.1456299.0847511.2917976.1696396.4386368.2544212 1.7048798.9843102 3.5016174 1.9511299 5.7186089 2.4736214 2.4115067.5695114 5.4748383.4828453 7.25354-.6129379 1.0632247-.6568528 1.5172309-1.5750734 1.5198058-2.4831697z" fill="#e56353"/><path d="m33.2886238 68.2723618.0439758-15.5154457c-.0060043 2.1210022 1.8697281 4.3702774 4.9171333 6.1296959 1.7746315 1.0245857 3.9468727 1.883091 6.6435585 2.5336533l-.0439873 15.5154419c-2.6966858-.6505585-4.868927-1.5090637-6.6435585-2.5336533-3.0474051-1.7594224-4.9231338-4.0086899-4.9171218-6.1296921z" fill="#d5d6db"/><path d="m33.29319 68.1018295c-.0028877.0567093-.004406.113533-.0045662.1704407l.0439873-15.5154381c.0001602-.0569153.0016785-.1137352.0045624-.1704483-.0145989 5.1719895-.0293885 10.3434639-.0439835 15.5154457z" fill="#e56353"/><path d="m93.9931946 51.4502945-.0439911 15.5154495c-.0023422.827919-5.0313568 1.329483-5.9980698 1.41008-1.6878738.1403122-3.4587708.0804825-5.0002747-.3446121-.881279-.2414322-1.659935-.5963516-2.5200195-.8666687-1.6774292-.5282898-3.6628418-.7201691-5.5428467-.5385742-.7655716.0722198-1.5414124.2084198-2.3043289.1176224-.329628-.040329-.6521683-.1439743-.8941269-.2836609-.2480087-.1431885-.4113998-.3242722-.4108582-.5137482l.0439835-15.5154381c-.0005341.1894722.1628571.3705521.4108582.5137405.2419586.1396942.5644989.2433357.8941269.2836647.7629166.0907936 1.5387573-.0454025 2.3043365-.1176186 1.8799973-.1816025 3.8654175.0102806 5.5428467.5385666.8600845.2703171 1.6387405.6252441 2.5200119.8666725 1.5415039.4250908 3.3124084.4849243 5.0002823.3446083.966713-.080593 5.9957199-.5821533 5.9980698-1.4100837z" fill="#e56353"/><path d="m93.6617813 51.0921097c.128952.0744514.2102051.1305122.241806.1648293.8709717.9430313-4.86866 1.5167503-5.9084625 1.6034393-1.6878738.140316-3.4587784.0804825-5.0002823-.3446083-.8812714-.2414284-1.6599274-.5963554-2.5200119-.8666725-1.6774292-.528286-3.6628494-.7201691-5.5428467-.5385666-.7655792.072216-1.54142.2084122-2.3043365.1176186-.329628-.040329-.6521683-.1439705-.8941269-.2836647-.3154907-.1821518-.4940567-.4256287-.372406-.669693.1585007-.3157463.7275009-.5014572.9680557-.7986183.3255539-.4003563-.0262375-.8667107-.4131241-1.2505531-.3833542-.3817406-.8274918-.7985802-.6802826-1.2319374.1647263-.4808235 1.04245-.8790855 1.8835526-.8213196 11.2535095.7669867 19.0590363 4.0632857 20.5424652 4.9197463z" fill="#e56353"/><path d="m66.4678879 70.7531509c-.3286591.5168076-.4839478 1.0597305-.4855194 1.6042709l.0439835-15.5154381c.0015793-.5445404.156868-1.0874672.4855194-1.6042747-.0131913 4.6546364 1.2630462 11.0480652-.0439835 15.5154419z" fill="#d5d6db"/><path d="m104.8570709 72.851738c-.830368-1.2531433-2.03228-2.5975189-3.7672501-3.9232635.014595-5.1719818.0293884-10.3434563.0439835-15.5154419 1.7349701 1.3257408 2.936882 2.6701202 3.7672577 3.9232635-.0146026 5.1719932-.0293884 10.3434601-.0439911 15.5154419z" fill="#e56353"/><path d="m77.8191528 67.7464447c-4.3444901-.9409637-9.755127.4932632-11.351265 3.0067062l.0439835-15.5154381c1.596138-2.5134506 7.0067825-3.9476776 11.351265-3.0067101 2.1972504.4745979 4.0588989 1.4548187 6.3581848 1.7210083 3.5150604.4044342 7.2125092-.9534035 10.6254349-.3158073.977684.1814156 1.8420029.5175095 2.5729141.9395027.5328751.3076553.9948196.6609039 1.378418 1.0333023.5718231.5541725.9944916 1.1511993 1.358757 1.7617378-.014595 5.1719933-.0293884 10.3434563-.0439911 15.5154457-.3642578-.6105423-.7869339-1.2075729-1.3587494-1.7617416-.3835983-.3723984-.8455429-.725647-1.3784256-1.0333023-.7309113-.4219894-1.5952225-.7580872-2.5729065-.9395065-3.4129333-.6375961-7.1103821.7202454-10.6254349.3158112-2.2992858-.2661896-4.1609344-1.2464066-6.3581848-1.7210083z" fill="#d5d6db"/><path d="m55.8315887 46.9707489c.1427689.0824242.2594376.189064.339695.3263512.2482376.431282-.0838852.918293-.6235771 1.2443428-.5396233.330162-1.2688179.5303421-1.973156.7243385-.8180962.2269669-1.639782.4519196-2.4614639.6768723-1.0813866.2971382-2.1627235.5943031-3.2476273.8935394-2.1484909.5901871-4.3289642 1.1907043-6.0943375 2.1131248-1.7654686.9224167-3.0869598 2.2245331-3.0043373 3.6050949.0153198.1981049.020256.4395409-.2677002.5489235-.309269.1176109-.7232971-.0144653-1.0091324-.1547737-.1182823-.0590286-.2318878-.1200447-.3415451-.1833572-2.2173462-1.2801819-2.6587372-3.4062614-1.4800987-5.0973434 1.2297745-1.7747116 3.9406281-3.0933189 6.9286003-3.9063873 2.3334732-.6314735 4.8822746-.9946747 7.4540634-1.0689697 1.2146301-.0350761 2.4300537.0701294 3.6375351.0267982.7264443-.0276299 1.6140405-.0539971 2.1430817.2514457z" fill="#e56353"/><path d="m100.1128616 72.8861923c-.0713577-.2602921.0017853-.6297531.0025482-.8996506.0027847-.9837341.0055847-1.9673996.0083618-2.9511414.003624-1.2833176.0072937-2.5665436.0109177-3.8498688.0073471-2.6050034.0148087-5.2097778.0221558-7.8147812.2176285.3647614.4144135.7343483.6096954 1.1025009.0576324.1077499.1152878.2159271.1723099.324482-.014595 5.1719933-.0293884 10.3434639-.0439911 15.5154457-.0570145-.1085587-.1146698-.2167358-.1723022-.3244858-.195282-.3681487-.392067-.7377394-.6096955-1.1025008z" fill="#d5d6db"/><path d="m100.8948669 74.313179c-.0222549-.0907516.0006104-.2180252.0008774-.3114624.0022583-.8008881.0045547-1.601738.006813-2.4026184.0025482-.9047241.0051498-1.8093643.0076981-2.7140884.009491-3.3625259.019104-6.7247391.028595-10.0872688.3995209.7605896.7678452 1.5398827.8761215 2.3221817-.0146027 5.1719933-.0293884 10.3434563-.0439911 15.5154457-.1082763-.7823029-.476593-1.5615922-.8761139-2.3221894z" fill="#d5d6db"/><path d="m101.7709885 76.6353683c-.0072937-.1081009.0007095-.2528076.0010223-.3611603.0005417-.1933289.0010986-.3866806.0016403-.5800095.0003357-.1204987.0007935-.2811584.0011368-.4016571.0001678-.0607834.0004044-.1418228.0005798-.2026062.0014496-.5148392.0029221-1.0296631.0043716-1.5445023.0116882-4.1419754.0235443-8.2835312.0352249-12.4255066.0211945.1530876.0324249.3062935.0319824.4594994l-.0439911 15.5154457c.0004503-.1532058-.0107802-.3064116-.031967-.4595031z" fill="#d5d6db"/><path d="m106.2797775 75.8190308c-.2670746-.8743515-.70681-1.8869171-1.4227066-2.9672928.0146027-5.1719818.0293884-10.3434486.0439835-15.5154381.7158966 1.0803757 1.155632 2.0929375 1.4227066 2.9672852.1329498.4346962.2382126.9324646.3073273 1.4794502-.0146027 5.1719894-.0293884 10.3434601-.0439911 15.5154495-.0691071-.5469894-.1743775-1.0447617-.3073197-1.479454z" fill="#e56353"/><path d="m60.4378242 51.0865555c.5078087.2931824.9225731.6412239 1.21138 1.0351715.4882507.6644859.5955696 1.3681602.4748116 2.0800934-.2170715 1.3021088-.0315018 2.6186905.513546 3.8877678.1371841.317791.2387276.6397209.2940674.9678345.169754 1.0482788-.2407303 2.1729393-1.4833221 2.9406013-1.7787018 1.0957832-4.8420334 1.1824493-7.25354.6129379-2.2169914-.5224915-4.0137291-1.4893112-5.7186089-2.4736214-.1468391-.0847816-.2930069-.1696701-.4386368-.2544212-1.5333176-.8852615-3.063118-1.7726212-4.5929184-2.6599236-.4145851-.2393608-.7724113-.5159225-1.0021515-.829567-.8938904-1.2113075.5559731-1.855175 1.8533897-2.3772621 2.2287369-.8935356 4.4573784-1.7870712 6.6825294-2.6826782 1.9336777-.7759209 3.9598923-1.5765877 6.6590767-1.1659431 1.0693398.1633682 2.0393677.479641 2.8003769.9190102z" fill="#e56353"/><path d="m106.5871048 77.2984772c-.0092087-.1498413.0008469-.299675.0012665-.449501.0004196-.1495209.0008545-.299057.0012741-.4485779.0137558-4.872612.0276871-9.744751.0414352-14.617363.0613937.4858055.0942612 1.0104294.0926819 1.5641632l-.0439911 15.5154419c.0015869-.5537338-.0312805-1.0783615-.0926666-1.5641632z" fill="#e56353"/><path d="m54.334404 67.1590652-.0439835 15.5154419c-1.5986671-1.4891586-3.3075829-2.6403503-4.8460846-3.5286407-2.4442177-1.4112473-4.4591866-2.159462-4.5950317-2.2101593l.0439873-15.5154419c.1358452.0506973 2.1508102.7989082 4.5950317 2.2101555 1.5385018.8882942 3.2474175 2.0394859 4.8460808 3.5286445z" fill="#d5d6db"/><path d="m101.8469543 61.5792961-.0439911 15.5154457c-.0006409.2297516-.0275497.4595032-.0864868.688858-.2126465.8274994-.9631577 1.6694717-2.1395721 2.1667862-1.3666687.5810318-1.9994431.4756012-2.8163986.0039291-.198616-.1146698-.4080276-.2509155-.6416016-.4042435-.1900787-.1251907-.3872833-.2467499-.5909882-.364357-2.1804047-1.2588577-5.1145172-2.0726852-8.1909637-2.2047806-5.2418365-.2248917-10.6691895 1.4012146-15.6128616.3488235-1.1196747-.2385788-2.1175385-.623703-2.9543686-1.1068497-1.7452469-1.0076218-2.7913971-2.4419556-2.7873688-3.8653107l.0439911-15.5154343c-.0040359 1.4233437 1.0421143 2.8576851 2.7873688 3.865303.8368301.4831467 1.8346939.8682709 2.9543686 1.1068459 4.9436646 1.0523949 10.3710175-.5737152 15.612854-.3488159 3.0764465.1320915 6.0105667.945919 8.1909714 2.2047768.2037048.1176071.4009094.2391663.5909805.364357.2335739.1533279.4429932.2895737.6416092.4042435.8169479.4716721 1.4497223.5771027 2.816391-.0039291 1.1764221-.4973145 1.9269333-1.3392868 2.1395721-2.1667862.0589447-.2293547.0858459-.4591063.0864944-.6888617z" fill="#e56353"/><path d="m97.4196701 54.5757294c.5328674.3076553.9948196.6609039 1.3784103 1.0332985.9134598.8852615 1.4463348 1.8798828 1.9684677 2.8642273.6588821 1.2319679 1.3216476 2.5196304.9939117 3.7949028-.2126389.8274994-.96315 1.6694717-2.1395721 2.1667862-1.3666687.5810318-1.9994431.4756012-2.816391.0039291-.198616-.1146698-.4080353-.2509155-.6416092-.4042435-.1900711-.1251907-.3872757-.2467499-.5909805-.364357-2.1804047-1.2588577-5.1145248-2.0726852-8.1909714-2.2047768-5.2418365-.2248993-10.6691895 1.4012108-15.612854.3488159-1.1196747-.238575-2.1175385-.6236992-2.9543686-1.1068459-2.413002-1.3931465-3.4896011-3.6020126-2.301857-5.4697342 1.596138-2.5134583 7.0067902-3.9476738 11.3512802-3.0066986 2.1972504.4746017 4.0589066 1.4547997 6.3582001 1.720993 3.5150452.4044533 7.2124786-.9533997 10.6254272-.3157959.9776841.1814234 1.842003.5175134 2.5729066.9394991z" fill="#e56353"/><g fill="#d5d6db"><path d="m98.7628021 82.5609589c-.0189514-.0179367-.0383606-.0357513-.0582275-.0534439.014595-5.1719818.0293808-10.3434525.0439835-15.5154343.0198746.0176849.0392838.0354996.0582275.0534363-.0146027 5.1719894-.0293884 10.3434601-.0439835 15.5154419z"/><path d="m65.6895294 78.0458603c-3.6833878.0619049-6.4282722 2.2905731-6.3913231 4.4222641l.0439796-15.5154419c-.0369415-2.1316986 2.7079391-4.3603592 6.3913345-4.4222641 4.1999359-.0681305 7.217308 2.4432449 11.2997513 3.0313568 2.7953033.4002991 5.3887787-.2580185 7.4026642-1.341362 1.4988403-.8048439 2.8377533-1.5580482 5.0111542-.8708878l-.0439987 15.5154496c-2.1733856-.6871643-3.5122986.0660324-5.0111465.8708801-2.0138855 1.0833435-4.6073532 1.7416611-7.4026566 1.341362-4.0824432-.5881119-7.099823-3.0994873-11.2997589-3.0313568z"/><path d="m98.7628021 82.5609589c.014595-5.1719818.0293808-10.3434525.0439758-15.5154419.189621.1794891.3332901.3712082.4366608.5719376-.014595 5.1719971-.0293961 10.3434677-.0439911 15.5154495-.103363-.200737-.2470321-.3924485-.4366455-.5719452z"/><path d="m99.2253952 83.1852264c-.0083466-.0175095-.0169907-.0349503-.0259399-.0523224.0145874-5.1719818.0293884-10.3434525.0439835-15.5154343.0089493.0173645.0175934.0348053.0259399.0523148-.0146027 5.1719895-.0293885 10.3434601-.0439835 15.5154419z"/><path d="m94.8528976 81.8509445c-1.6192627.2837219-2.6377563 1.0027008-3.2520065 1.8496323.014595-5.1719894.0293808-10.3434525.0439835-15.5154419.6142578-.8469315 1.6327515-1.5659103 3.2520142-1.8496323 1.2425919-.218811 2.5636063-.1416168 3.4571686.3742828.1430664.0825195.2751007.1763153.3940811.2819138.000145.0001297.0002823.0002518.0004196.0003738-.0146027 5.1719894-.0293884 10.3434601-.0439835 15.5154495-.0001373-.0001297-.0002823-.0002518-.0004196-.0003815-.118988-.1055984-.2510223-.1993866-.3940887-.2819138-.8935548-.5158995-2.2145692-.5930861-3.4571687-.3742827z"/><path d="m91.573349 83.7390137c.014595-5.1719742.0293884-10.3434525.0439835-15.5154419.0090942-.0128403.0182724-.0256577.0275421-.0384369-.0146027 5.1719894-.0293884 10.3434525-.0439835 15.5154419-.0092697.0127868-.0184555.0255966-.0275421.0384369z"/><path d="m99.2253952 83.1852264c-.0093994-.0418091.0002823-.0999908.0004044-.1428452.0001297-.0453949.0002975-.1059189.0004272-.1513062.0002899-.1055222.0006027-.2110825.0008926-.3166046.0005722-.2032623.0011597-.4065628.0017319-.6098328.013443-4.7651138.0270767-9.5297394.0405197-14.2948532.0978012.2051163.1546478.41922.1764374.6389694-.0146027 5.1719971-.0293961 10.3434677-.0439911 15.5154495-.0217819-.2197569-.0786285-.4338606-.1764221-.6389769z"/><path d="m99.4107819 83.9579926c-.0015869-.0448074-.0045624-.0894165-.0089569-.1337891.0145874-5.1719818.0293808-10.3434525.0439835-15.5154419.0044022.0443726.00737.0889816.0089569.1337891-.0146027 5.171997-.0293885 10.34346-.0439835 15.5154419z"/><path d="m99.4107819 83.9579926c-.0078583-.4821396.002739-.9642258.004097-1.4463501.001358-.4821167.002739-.9642334.004097-1.4463501.0118713-4.2077179.0239105-8.4150162.0357819-12.6227341.0010071.0281754.0014648.0564346.0013809.0847702l-.0439987 15.5154419c.0000914-.0283356-.0003587-.0565949-.0013581-.0847778z"/><path d="m91.573349 83.7390137c-.1824722.2578201-.3280792.5269623-.4423141.7988815.0147552-5.1720963.0295334-10.343689.0441284-15.5157852.114212-.2718048.2597809-.5408249.4421692-.7985382-.0134964 4.7816544-.0271683 9.5628204-.0406647 14.3444672-.0005493.1949997-.0011139.3900299-.0016632.5850296-.000061.0230255-.0001526.0537262-.0002213.0767593-.000061.0229263-.000145.0535049-.0002136.0764389-.0003357.1217957-.0006866.2436142-.00103.3654022-.000061.0202103.005951.048111-.0001907.0673447z"/><path d="m90.8893051 85.297142c-.0914459.4121399-.1374435.8276367-.138649 1.243309l.0439835-15.5154343c.0012054-.4156799.0472031-.8311768.138649-1.2433243.0563736-.2509995.1355286-.5064926.2418747-.7595825-.014595 5.1720963-.0293732 10.343689-.0441284 15.5157928-.1062699.252968-.1853791.5083467-.2417298.7592393z"/></g><path d="m85.4672699 87.8187332.0439758-15.5154419c.0038757-1.3651657.7034607-2.727951 1.398468-4.0465393.849472-1.6157608 1.9481812-3.2563477 2.537384-4.9072075l-.0439835 15.5154457c-.5892105 1.650856-1.6879196 3.2914429-2.537384 4.9072037-.6950149 1.3185883-1.3945922 2.6813736-1.3984603 4.0465393z" fill="#e56353"/><path d="m85.5755005 88.72892c-.0755539-.3031311-.1090622-.6066055-.1082153-.9099655l.0439835-15.5154419c-.0008469.3033524.0326691.6068344.1082153.9099655.0000229.0001144.0000534.0002213.0000839.0003281-.0146027 5.1719971-.0293961 10.3434601-.0439987 15.5154495-.0000153-.0001145-.0000458-.0002213-.0000687-.0003357z" fill="#d5d6db"/><path d="m86.2891083 91.3310699c.0024109-.8336487-.5028687-1.7543716-.7135315-2.6018219.014595-5.1719818.0293884-10.3434448.0439835-15.5154343.2106705.8474426.7159424 1.7681656.7135315 2.6018143-.0131989 4.6546402-.0307923 10.860817-.0439835 15.5154419z" fill="#d5d6db"/><path d="m86.3330917 75.8155212-.0439987 15.5154496c-.0014343.5081024-.1914597.9838715-.7517242 1.3909988-1.2950439.9430466-3.7821198.8729172-5.8108139.598465-5.6778412-.7680511-10.970047-2.4727325-15.0984421-4.8562698-.2085571-.1204071-.4144135-.2427216-.6169968-.3666-2.5416908-1.5497437-4.6794777-3.4956741-4.7128944-5.629425l.0439796-15.5154419c.0334244 2.1337509 2.1712112 4.0796814 4.7129059 5.629425.2025757.1238785.408432.2461929.6169891.3666 4.1284027 2.3835373 9.4206009 4.0882187 15.0984497 4.8562698 2.0286865.2744522 4.5157623.3445816 5.8108139-.598465.5602647-.4071274.75029-.8828964.7517319-1.3910065z" fill="#e56353"/><path d="m99.4561386 68.5272369-.0439987 15.5154495c-.0038986 1.3789062-1.2732773 2.9315414-2.4196472 3.8689957-.8696976.7092209-3.6230545 2.8126144-5.0336227 1.9982224-.2229538-.1287231-.4123459-.3302994-.5554657-.6217804-.4353714-.8931274-.6553574-1.8206482-.6527328-2.7473068l.0439911-15.5154419c-.0026321.926651.2173615 1.8541794.6527252 2.7473068.1431198.291481.3325119.4930573.5554657.6217804 1.4105682.8143921 4.1639328-1.2890091 5.0336227-1.9982224 1.1463775-.9374542 2.4157485-2.490097 2.4196624-3.8690033z" fill="#e56353"/><path d="m100.9271698 74.9921875-.0439835 15.5154419c-3.4229584 2.6476059-8.2523117 4.1870575-14.352829 4.5729904-.9116821.0577774-1.8306885.0866623-2.7320328.0846176-8.6583786.0000458-15.6315308-2.6850662-20.6204185-5.5653992-5.7182236-3.3014221-8.83004-6.8591995-8.8874855-6.9253311l.0439835-15.5154419c.0574455.0661316 3.1692657 3.623909 8.8874855 6.9253311 4.9888954 2.8803329 11.9620399 5.5654449 20.6204262 5.5653992.9013367.0020447 1.8203506-.0268402 2.7320251-.0846176 6.1005173-.3859329 10.9298706-1.9253845 14.352829-4.5729904z" fill="#d5d6db"/><path d="m106.7237625 63.3468933-.0439911 15.5154419c-.0100174 3.5376663-1.4262695 8.263588-5.7965851 11.6452942l.0439835-15.5154419c4.3703156-3.3817062 5.7865677-8.1076279 5.7965927-11.6452942z" fill="#d5d6db"/><path d="m98.3540649 66.7097931c.1430588.0825424.2750702.1763306.3940964.2819366 1.7508698 1.5580063-.1017075 4.087944-1.7116852 5.4045105-.8696899.7092133-3.6230545 2.8126144-5.0336227 1.9982224-.2229538-.1287231-.4123459-.3302994-.5554657-.6217804-.6307144-1.2938766-.8094101-2.6599426-.5140762-3.9909668.3197403-1.4238358 1.3725662-2.9922104 3.9635773-3.4462051 1.2425918-.2187958 2.5636291-.1416092 3.4571761.3742828z" fill="#e56353"/><path d="m89.4470978 63.3495445c-.5892029 1.6508598-1.687912 3.2914467-2.537384 4.9072075-.8494873 1.6116714-1.7058029 3.2893677-1.2902374 4.9567337.3389664 1.3640213 1.4414444 2.9178925-.0381165 3.993042-1.2950516.9430466-3.7821274.8729172-5.8108139.598465-5.6778488-.7680511-10.970047-2.4727325-15.0984497-4.8562698-.2085571-.1204071-.4144135-.2427216-.6169891-.3666-2.5416946-1.5497437-4.6794815-3.4956741-4.7128983-5.629425-.0369797-2.1316833 2.707943-4.3603554 6.3913193-4.4222565 4.1999359-.0681458 7.2173004 2.4432449 11.2997437 3.0313339 2.7953262.400322 5.3887634-.2579956 7.4026566-1.3413544 1.4988707-.8048325 2.8377531-1.5580254 5.0111693-.8708764z" fill="#e56353"/><path d="m100.9271698 74.9921875c-3.4229584 2.6476059-8.2523117 4.1870575-14.352829 4.5729904-.9116745.0577774-1.8306885.0866623-2.7320251.0846176-8.6583862.0000458-15.6315308-2.6850662-20.6204262-5.5653992-5.7182198-3.3014221-8.83004-6.8591995-8.8874855-6.9253311-1.5986633-1.4891586-3.307579-2.6403503-4.8460808-3.5286446-2.4442215-1.4112473-4.4591866-2.1594582-4.5950317-2.2101555-2.6966858-.6505623-4.868927-1.5090675-6.6435585-2.5336533-3.5760727-2.0646439-5.5386772-4.8038406-4.7403908-7.2187424 1.4398232-4.3438492 11.2763443-6.8346481 26.9801521-6.8347206 16.4734421-.0001144 28.8687057 2.0840836 36.8364334 6.1988449.4228287.2182045.8276672.4394989 1.2136078.662323 5.1315994 2.9625092 7.0719528 6.2774086 7.7842255 8.609272 1.0053863 3.287285.4278412 10.1817095-5.3965912 14.6885988zm-34.4152985-19.7544785c-1.1877518 1.867733-.1111679 4.0765991 2.3018265 5.4697418.8368454.4831543 1.8346863.8682671 2.9543915 1.106842 4.9436569 1.0523949 10.3709946-.573719 15.6128159-.3488159 3.0764542.1320915 6.010582.9459152 8.1909943 2.2047729.2037125.1176147.4009171.2391586.5909729.3643723.2335968.1533127.4430084.2895508.6416168.4042206.8169785.4716797 1.4497452.5771103 2.8164062-.0039062 1.1764069-.4973183 1.9269562-1.3392982 2.1395569-2.1668091.3277359-1.2752609-.3350296-2.5629387-.9939117-3.7948761-.5221481-.9843636-1.0550003-1.9789848-1.9684525-2.8642426-.3835983-.3723984-.8455429-.725647-1.378418-1.0333023-.7309113-.4219933-1.5952301-.7580872-2.5729141-.9395027-3.4129257-.6375961-7.1103745.7202415-10.6254349.3158073-2.2992859-.2661896-4.1609344-1.2464104-6.3581848-1.7210083-4.3444824-.9409675-9.755127.4932595-11.351265 3.0067063m13.2586747 22.5672684c2.0287018.2744446 4.5157852.344574 5.8108368-.598465 1.479538-1.0751495.3770599-2.6290283.0381012-3.9930344-.4155502-1.6673813.4407425-3.3450623 1.2902374-4.9567642.849472-1.6157532 1.9481812-3.2563248 2.5373688-4.9071884-2.1734009-.6871605-3.5123138.0660439-5.0111542.8708878-2.0138855 1.0833435-4.6073608 1.7416611-7.4026642 1.341362-4.0824432-.5881119-7.0998154-3.0994873-11.2997513-3.0313568-3.6833954.0619049-6.4282761 2.2905655-6.3913269 4.4222641.0334244 2.1337357 2.1712418 4.0796738 4.7129288 5.6294327.2025833.1238708.4084167.2461929.6169662.3666 4.1283951 2.3835373 9.4206009 4.0881958 15.0984574 4.8562622m-25.5757561-15.1940307c2.4114761.5695076 5.4748077.4828339 7.2535172-.6129494 1.2425957-.7676735 1.6530724-1.8923187 1.4833183-2.9405823-.0553513-.328125-.1568718-.6500511-.2940598-.9678421-.5450401-1.2690926-.7306442-2.585659-.5135422-3.8877792.1207466-.7119408.0134125-1.415596-.4748154-2.0800781-.2888031-.3939667-.7035828-.7420006-1.2113953-1.0351868-.7610054-.4393692-1.7310295-.7556267-2.8003464-.9189949-2.699192-.4106407-4.7254105.3900185-6.6590996 1.1659431-2.225132.8955917-4.4538116 1.789135-6.6825256 2.6826553-1.2974167.5220909-2.7472954 1.165966-1.8533936 2.377285.2297363.3136368.5875854.5901909 1.0021706.8295517 1.5297813.8873024 3.059597 1.774662 4.5929031 2.6599197.145649.0847588.2917824.1696472.4386253.2544289 1.7048876.9843178 3.5016405 1.9511262 5.7186434 2.4736291m18.9245186-16.4386025c-.8410797-.0577698-1.7188187.3405037-1.8835678.8213158-.1472015.4333572.2969666.8501892.6802979 1.2319374.3869095.3838501.7386932.8501892.4131393 1.2505608-.2405396.2971573-.8095474.4828644-.9680557.7986069-.1216812.2440758.0568924.4875526.3723755.6697006.2419739.1397018.5645065.2433472.8941498.2836647.7629089.0907936 1.5387421-.045414 2.3043289-.1176224 1.8800278-.1815987 3.8654022.0102806 5.5428696.538578.8600922.2703133 1.6386948.6252365 2.5199966.8666611 1.5414886.4250984 3.3124313.4849319 5.0002823.3446083 1.0398102-.0866852 6.7794342-.6604042 5.9084854-1.6034355-.0316391-.0343056-.1128845-.0903854-.2418213-.1648254-1.4834366-.8564606-9.2889786-4.1527673-20.5424805-4.9197503m-34.6202317 10.9309845c.2879639-.1093826.2830048-.3508301.2677078-.5489388-.0826225-1.3805656 1.2388611-2.6826706 3.0043335-3.6050949 1.765377-.9224091 3.9458351-1.5229301 6.0943604-2.1131134 1.0848808-.2992477 2.1662369-.596405 3.2476273-.8935471.8216743-.2249527 1.6433449-.4499016 2.4614372-.6768837.7043266-.1939774 1.4335365-.3941574 1.973175-.7243195.5396652-.3260612.8718033-.813076.6235619-1.2443657-.0802574-.1372604-.1969299-.2439041-.3397064-.3263359-.5290375-.305439-1.4166183-.2790833-2.1430702-.251442-1.2074776.0433464-2.4228973-.0618782-3.637558-.0268021-2.5717697.0743065-5.120533.4374962-7.4540329 1.0689545-2.987957.8130875-5.6988297 2.1316986-6.9286194 3.9064026-1.1786194 1.6910744-.7372437 3.8171616 1.4801025 5.0973473.1096458.0633011.2232666.1243362.3415718.1833534.2858315.1403009.6998444.2724001 1.0091095.1547853m53.5037842 17.2911263c1.4105606.8143845 4.1639328-1.2890091 5.0336151-1.9982376 1.6099854-1.3165741 3.4625778-3.8465042 1.7116623-5.4045181-.1189804-.1055984-.2510147-.1993942-.3940811-.2819138-.8935623-.5158997-2.2145767-.5930939-3.4571686-.3742828-2.5909882.4539871-3.6438065 2.0223618-3.9636002 3.4461899-.2953262 1.3310242-.1166153 2.6970825.5140915 3.9909821.1431199.2914732.332512.4930495.555481.6217803m-26.0277176-28.4263688c-1.6662521.1733627-2.9793434 1.081337-3.087822 2.0594788-.064373.5881462.2702866 1.1886177.9212837 1.6425896.0818634.0575867.1659889.1111679.251667.1606331 2.5820923 1.4907722 6.7633972-.6420364 5.8772507-2.4636078-.1487045-.3077316-.4432983-.5816231-.8302383-.8050232-.8040695-.4642296-2.0071334-.7110939-3.1321411-.5940705" fill="#fff"/><path d="m86.7844925 79.9818802c-10.6052399.670929-18.9588699-2.4184189-24.7235107-5.7465973-6.0088768-3.4692307-9.0448532-7.0116425-9.2046242-7.1981354-1.4373817-1.3300934-3.0618744-2.4227219-4.5226288-3.2660637-2.3715401-1.3691139-4.2136841-2.0450974-4.3106499-2.0806313-2.5909729-.6084671-4.9584122-1.5401649-6.9124184-2.668396-3.3163605-1.9146461-5.4622021-3.8432922-5.455368-6.2647209l-.0440102 15.5154762c-.0068321 2.4214249 2.1161003 4.9012146 5.4324608 6.8158569 1.9540062 1.1281662 4.3214493 2.0598602 6.9123497 2.668396.0970383.0355377 1.9391785.7114487 4.3106499 2.0805664 1.4607582.8434067 3.085247 1.9360352 4.5226326 3.2660599.159771.1864929 3.1958122 3.7289734 9.2046204 7.1981354 5.7647095 3.3282471 14.1182709 6.4175262 24.7235107 5.7465973 17.8175888-1.1306229 21.6101151-11.1520691 21.6271973-17.1829453l.0440063-15.5154762c-.0171509 6.0309487-3.7866287 15.5011865-21.6042175 16.631878z" fill="#d15241"/><path d="m107.9758301 60.1343727c1.3791809 4.5109901.4455719 19.0241814-21.2143555 20.3986168-10.6052094.6709442-18.9588242-2.4183502-24.7234421-5.7465591-6.0089073-3.4692459-9.044857-7.0116806-9.2046471-7.1981277-1.4374313-1.3300858-3.0619202-2.4227295-4.5226097-3.2660599-2.3715324-1.3691635-4.2137108-2.0450706-4.3106651-2.0806465-2.5909729-.6084862-4.9584045-1.5402031-6.9124298-2.6683617-9.549675-5.513504-9.2035141-15.7122459 23.3963509-15.7141151 20.9314346-.0000992 32.6481094 3.3417511 39.2370605 7.1464615 5.7739868 3.3341063 7.6106415 7.0239181 8.2547379 9.1287917zm-21.4015045 19.4308128c6.1005478-.3859558 10.9298782-1.9253922 14.3528519-4.5729904 5.8244247-4.506897 6.4019623-11.4013252 5.3965836-14.6886101-.7122726-2.3318405-2.6526184-5.6467705-7.7842484-8.6092682-.3859406-.2228241-.7907562-.4441147-1.2135696-.6623421-7.9677582-4.1147423-20.3630295-6.1989326-36.8364296-6.1988373-15.7038116.0000916-25.5403481 2.4908752-26.9801674 6.8346977-.7982941 2.4149208 1.164299 5.1541138 4.7404022 7.2187767 1.7746315 1.0245857 3.9468918 1.883091 6.3758926 2.4532242.4034843.1311378 2.4184456.8793373 4.8626938 2.2905655 1.5384903.8883362 3.247406 2.039505 4.7635956 3.444046.1399002.1507492 3.2517242 3.7085266 8.9699631 7.0099487 4.9888992 2.8803482 11.9620667 5.5654373 20.6204071 5.5653992.9013595.0020448 1.8203429-.0268477 2.7320251-.0846099" fill="#e56353"/></g></svg>