<svg enable-background="new 0 0 140 140" height="512" viewBox="0 0 140 140" width="512" xmlns="http://www.w3.org/2000/svg"><circle cx="70" cy="70" fill="#45b39c" r="64"/><path d="m96.6435699 55.3049965-29.6300048-29.6400147c-.3599854-.4000244-.6799927-.7299805-1-1l-.1099854-.1099854-.0100098.0199585c-.6699829-.5099487-1.3599854-.7199707-2.4400024-.4499512-2.4699707.6199951-7.7600098 9.2099609-10.1300049 10.0899658-2.3699951.9000244-7.2099609 6.8800049-8.5700073 10.8800049-1.3499756 3.9899902-4.9199829 15.3500366-7.5700073 20.8300133-.4099731.8599854-.8599854 1.9699707-1.2999878 3.25-2.3999634 6.9099731-4.9199829 18.8999634-4.0100098 24.4799805.7400513 4.6000366.460022 7.6000366 2.9300537 9.6000366l30.5643311 30.5599365c1.5315552.1096803 3.0725708.1850587 4.6320801.1850587 33.3937378 0 60.7995605-25.5797119 63.7269897-58.2116089l-25.4034424-25.4034386c-4.7399902.7400513-8.6699829 2.7700196-11.6799927 4.920044z" opacity=".1"/><path d="m89.8234482 61.826519v33.817524c12.696846-1.8069763 18.4954224 5.2728195 18.4954224 5.2728195v-50.5277405c-11.6742783 1.8240585-18.4954224 11.437397-18.4954224 11.437397z" fill="#f7be56"/><path d="m94.5045624 93.7249756c-5.3388977 2.1381378-17.6921692 7.4017639-21.7918091 9.106102-4.099678 1.7042923-24.657486 4.2846222-32.7549095 2.5185776-8.0956535-1.7646484-7.0177803-5.0821228-8.0885963-11.696991-.9036694-5.5745926 1.6144066-17.5687408 4.0123672-24.4754944.446743-1.2855453.8892441-2.3949661 1.3050156-3.2534409 2.6488342-5.4780121 6.2148132-16.8341827 7.5697823-20.8306084s6.2017937-9.9826851 8.5693512-10.8732643c2.3692932-.8892174 7.6608353-9.4749584 10.1315041-10.0907917 2.4737549-.616188 2.9348831 1.1577072 5.6121674 3.7808723 2.6755295 2.6217823 4.1975632 4.2699718 4.5289154 5.5574245.331337 1.2874603-2.9758682 2.9433212-2.9758682 2.9433212 3.7253418.496376 2.0429611 5.7265701.2422562 4.9159088-1.8021088-.8089638-3.8891449.2914772-6.5540237 1.5450211-2.6648369 1.2535782-7.560894 1.6628418-7.560894 1.6628418-1.018158.6585464-1.6720352 1.506031-2.0988121 2.5100746-1.2636642 2.9803696-.5102501 7.3401146-1.2720337 12.2134514-1.0187874 6.5158997.6749115 20.8087006.6749115 20.8087006s1.182991.6266708 6.9555283-5.3422852c5.7722015-5.9720154 16.8915939-4.2190628 16.8915939-4.2190628 6.7803268-10.5530586 16.6474991-9.2962723 19.6152649-8.6286163.562294.1262779.8774338.2316284.8774338.2316284 11.7484741 4.9575577 7.8365402 22.4064865 5.5852966 26.4228287-.0984421.1747818-.195015.3258057-.285614.4478912-2.1643451 2.9098894-3.8499225 2.607773-9.1888278 4.7459108z" fill="#fcd462"/><path d="m69.4549484 37.0204086c-.3848038-.0569153-.7545395-.188282-1.0935898-.3743095-.3459702-.1769905-.6406937-.4358482-.9317398-.689991-.1381836-.1362534-.2723007-.2773285-.4062119-.4178696l-.35923-.4404373c-.1833725-.5461349-.3333969-1.1089935-.47966-1.6692047-.03125-.1236954-.0571365-.2486-.086174-.3728065.2826233-.009407.5649643-.021492.846283-.0423164.1789093-.014492.3580627-.0271149.5370865-.0406265.2102509.1156082.39711.2622032.5827103.4099159.2207184.1828499.4392242.3689919.6505585.5651398.4286118.3857994.8450165.7864876 1.2938461 1.1657372-.3195572-.494545-.7144775-.9308281-1.146019-1.3288116-.2177887-.1968193-.4489441-.3814583-.6980209-.5415764-.1747055-.1134911-.3647003-.2156296-.5653534-.2803535.088562-.0070839.1771545-.0137825.2655334-.0224686.2910995.1815491.6141357.3049355.9470444.376709.3465118.0599861.6975098.0760536 1.0437393.048481.3465729-.0253868.6853943-.1004562 1.0166168-.1908073.1661377-.0437584.329155-.098587.4883575-.1624794.1597824-.0615845.317955-.1278114.468689-.2087517-.3253479.1035728-.6568985.1769753-.987114.244503-.3311386.0641937-.6656876.1020393-.9987183.1185112-.3333282.0088501-.66539-.0049248-.9895477-.0648689-.3211517-.0653191-.627182-.1803169-.9106903-.3405762.162941-.2271538.2923889-.4799271.3909302-.7428627.1107101-.2940063.1835098-.599556.2417679-.9064045.1025467-.6155777.1355743-1.243351.0505142-1.8616314l-.1262894.917284c-.0443039.303484-.0854111.6063004-.1409836.9060555-.1008072.5694942-.2307281 1.1262913-.4391327 1.6746006l-.0137939-.0078201-.0306778.004009c-.3159561.041317-.6302948.0967407-.9455185.1444206-.2791214.0442276-.5572815.0971756-.8350754.1528816-.1028366-.4409714-.1961441-.8841286-.2713928-1.3305264-.1001053-.5765533-.173996-1.1574001-.2178421-1.7413692-.0422897-.5843716-.0443497-1.170372-.0126801-1.7585964-.0854797.5820999-.1205444 1.1736393-.1078873 1.7642975.02211.5898762.065506 1.1804428.1524429 1.7650661.1833801 1.1676521.4448013 2.3217583.8389053 3.4412384l.0058899.0167198.0090866.0108414.3855972.459919c.1400452.1433678.280304.2868881.4249878.4254951.3058014.2594032.6262131.5081711.9922104.6798935.3602829.1762886.7494965.3060455 1.1510468.3331985.3982239.027729.8086243-.0164604 1.1679459-.186161-.3728255.1323738-.7745208.1522255-1.1584472.0987091z" fill="#dc8744"/><g fill="#f7be56"><path d="m103.6933899 88.9790649c.0905991-.1220856.1871719-.2731094.285614-.4478912-.0358353-.0114212-.0695801-.0183792-.1029892-.0222855-.9033432-.1062317-1.6317291.9461136-2.3526688 1.2808685-.9248886.4264069-1.7724457.3276672-2.7797623.3497925-5.0104523.1060028-9.8240814 1.7271423-14.5040665 3.3778915-3.0784683 1.08461-6.1660461 2.1985092-9.013092 3.793602-1.3647766.763916-2.6709518 1.6385193-4.0880661 2.3051071-3.9859772 1.8696136-8.5435333 1.9596024-12.9482803 2.0157852-5.1204414.0641861-10.2391891.1297073-15.3596725.1938553-1.0648232.0132751-2.1440773.0235748-3.1734962-.246521-2.6673813-.7001266-4.5438652-3.2221527-5.2683525-5.882225-.7231712-2.6618271-.4984703-5.4767609-.267395-8.2249832.3406143-4.0471497.6811867-8.0943298 1.021801-12.1414795.1717529-2.0574646.3465042-4.1294098.7386513-6.1534119-2.3979607 6.9067535-4.9160366 18.9009018-4.0123672 24.4754944 1.070816 6.6148682-.0070572 9.9323425 8.0885963 11.696991 8.0974236 1.7660446 28.6552315-.8142853 32.7549095-2.5185776 4.0996399-1.7043381 16.4529114-6.9679642 21.7918091-9.106102 5.3389052-2.1381377 7.0244826-1.8360213 9.1888274-4.7459106z"/><path d="m91.2160187 63.3525314c2.1506729-.9605522 4.1757355-1.128376 6.3002548-1.4758148-2.9677658-.6676559-12.834938-1.9244423-19.6152649 8.6286163 0 0-11.1193924-1.7529526-16.8915939 4.2190628-5.7725372 5.968956-6.9555283 5.3422852-6.9555283 5.3422852s-1.6936989-14.2928009-.6749115-20.8087006c.7617836-4.8733368.0083694-9.2330818 1.2720337-12.2134514-1.2092896.6733475-1.9565468 2.0164871-2.4056969 3.3477821-1.610527 4.7512436-.508873 9.9322548-.4506493 14.9498901.0215263 1.6770172-.0794067 3.3528671-.1301231 5.0290375-.1641541 5.417244.186039 10.8472595 1.0412979 16.198616 1.6796837-2.0103531 3.3597794-4.0175858 5.039505-6.0279083 1.8092957-2.1605682 3.6592331-4.3620224 6.0526733-5.8547211 2.8372002-1.7711105 6.220562-2.4135361 9.5228233-2.9460144.5630875-.0918121 1.1454773-.1796341 1.6935043-.0281448.5169754.141037.9525146.4814835 1.3745651.8141098 1.6211319 1.2804337 3.2405701 2.5595398 4.861702 3.8399811.8078918-2.7507019 1.6462479-5.5615234 3.322998-7.8882599 1.6640627-2.3142928 4.0641481-3.9756087 6.6424105-5.1263656z"/></g></svg>