<svg enable-background="new 0 0 140 140" height="512" viewBox="0 0 140 140" width="512" xmlns="http://www.w3.org/2000/svg"><circle cx="70" cy="70" fill="#efc84a" r="64"/><path d="m33.5235748 94.3916473 39.5366821 39.5310059c30.4390259-1.4335938 55.3039551-24.1300659 60.0941162-53.5701904l-44.6107788-44.610775-.0300293.0199585c-.2299805-.2299805-.5299683-.3699951-.8699951-.3699951h-6.5599976c-3.4899902 0-6.3300171 2.8400269-6.3300171 6.3300171 0 2.0200195.9500122 3.8099976 2.4200439 4.960022h-.0300293l5.5900269 5.5899658-15.4700317 1.3500366-7.2299805-7.2400513c-.5100098-.5599976-1.5300293-.9899902-2.7600098-1.0899658-.3699951-.0200195-.7199707-.1000366-1.0700073-.2000122-1.9299927-.5200195-7.6300049-1.9099731-9.5700073-.6799927-1.1199951.710022-1.8399658 1.6300049-2.0700073 2.5599976-.0099487.0200195-.0099487.039978-.0099487.0599976-.0200195.0700073-.0300293.1400146-.0400391.210022-.0100098.0599976-.0200195.1199951-.0200195.1799927v.3900146c.0100098.0499878.0200195.0999756.0200195.1499634.0100098.0800171.0300293.1500244.0400391.2200317.0099487.0499878.0299683.0899658.039978.1399536.0299683.0800171.0499878.1500244.0800171.2300415.0199585.039978.039978.0700073.0599976.1099854.039978.0800171.0799561.1699829.1300049.25.0099487.0200195.0299683.039978.039978.0599976.210022.3200073.4899902.6199951.8599854.9000244l8.0800171 8.0799561-4.2200317 8.9999962c-1.4799805-.4499512-3.0599976-.6999512-4.6900024-.6999512-9.0299683 0-16.3699951 7.3499756-16.3699951 16.3699951 0 4.6099854 1.9200439 8.7699585 4.9900513 11.749939z" opacity=".1"/><path d="m44.9322777 98.9892044c-9.0246887 0-16.3670082-7.3423233-16.3670082-16.367012s7.3423195-16.3670044 16.3670082-16.3670044 16.3670082 7.3423157 16.3670082 16.3670044-7.3423195 16.367012-16.3670082 16.367012zm0-29.3527756c-7.1603813 0-12.9857635 5.825386-12.9857635 12.9857635 0 7.1603851 5.8253822 12.9857635 12.9857635 12.9857635s12.9857635-5.8253784 12.9857635-12.9857635c0-7.1603774-5.8253822-12.9857635-12.9857635-12.9857635z" fill="#474c5b"/><g fill="#ebf0f3"><path d="m44.9322777 96.8266754c-7.832283 0-14.204483-6.3722-14.204483-14.204483s6.3722-14.204483 14.204483-14.204483 14.204483 6.3722076 14.204483 14.204483-6.3722 14.204483-14.204483 14.204483zm0-25.474472c-6.2142982 0-11.2699928 5.0556946-11.2699928 11.269989 0 6.2143021 5.0556946 11.2699966 11.2699928 11.2699966s11.2699928-5.0556946 11.2699928-11.2699966c0-6.2142945-5.0556946-11.269989-11.2699928-11.269989z"/><path d="m58.5273819 82.1576843h-12.4737091l8.8202553-8.8202514-.6568909-.6568909-8.8202972 8.8202972v-12.473793h-.9289322v12.473793l-8.8202935-8.8202972-.6568908.6568909 8.8202514 8.8202514h-12.4737053v.928978h12.4737473l-8.8202934 8.8202972.6568908.6568451 8.8202935-8.8202896v12.4737854h.9289322v-12.4737854l8.8202972 8.8202896.6568909-.6568451-8.8202935-8.8202972h12.4737473z"/><path d="m57.3147621 76.9904251-11.5242004 4.7734757 4.7734871-11.5242157-.8582726-.3555069-4.7735061 11.5242691-4.7735138-11.5242768-.858223.3554917 4.7735138 11.5242767-11.5242729-4.7735138-.3555069.8582764 11.5242157 4.7734833-11.5242005 4.7734832.3555031.8582611 11.5242424-4.7734985-4.77351 11.5242691.8582535.3554688 4.77351-11.5242691 4.77351 11.5242767.8582229-.355484-4.7735099-11.5242844 11.5242691 4.7735138.3555221-.8582306-11.5242691-4.7735138 11.5242386-4.7734909z"/></g><path d="m99.960434 98.9892044c-9.0246887 0-16.367012-7.3423233-16.367012-16.367012s7.3423232-16.3670044 16.367012-16.3670044 16.3670044 7.3423157 16.3670044 16.3670044-7.3423157 16.367012-16.3670044 16.367012zm0-29.3527756c-7.1603851 0-12.9857635 5.825386-12.9857635 12.9857635 0 7.1603851 5.8253784 12.9857635 12.9857635 12.9857635 7.1603775 0 12.9857635-5.8253784 12.9857635-12.9857635 0-7.1603774-5.825386-12.9857635-12.9857635-12.9857635z" fill="#474c5b"/><g fill="#ebf0f3"><path d="m99.960434 96.8266754c-7.832283 0-14.204483-6.3722-14.204483-14.204483s6.3722-14.204483 14.204483-14.204483 14.204483 6.3722076 14.204483 14.204483-6.3722 14.204483-14.204483 14.204483zm0-25.474472c-6.2143021 0-11.2699966 5.0556946-11.2699966 11.269989 0 6.2143021 5.0556946 11.2699966 11.2699966 11.2699966 6.2142944 0 11.269989-5.0556946 11.269989-11.2699966 0-6.2142945-5.0556946-11.269989-11.269989-11.269989z"/><path d="m113.5555344 82.1576843h-12.4737091l8.8202591-8.8202514-.6568909-.6568909-8.8202973 8.8202972v-12.473793h-.9289321v12.473793l-8.8202973-8.8202972-.6568909.6568909 8.8202515 8.8202514h-12.4737015v.928978h12.4737473l-8.8202973 8.8202972.6568909.6568451 8.8202973-8.8202896v12.4737854h.9289321v-12.4737854l8.8202973 8.8202896.6568909-.6568451-8.8202973-8.8202972h12.4737473z"/><path d="m112.3429184 76.9904251-11.5242004 4.7734757 4.7734832-11.5242157-.8582687-.3555069-4.7735062 11.5242691-4.7735138-11.5242768-.8582229.3554917 4.7735138 11.5242767-11.5242691-4.7735138-.3555069.8582764 11.5242157 4.7734833-11.5242081 4.7734832.3555069.8582611 11.5242386-4.7734985-4.7735062 11.5242691.8582535.3554688 4.7735062-11.5242691 4.7735138 11.5242767.8582229-.355484-4.7735138-11.5242844 11.5242691 4.7735138.3555222-.8582306-11.5242691-4.7735138 11.5242386-4.7734909z"/></g><path d="m99.9592438 83.8725052c-.5517578 0-1.0571289-.3686523-1.206543-.9272461l-12.0639648-45.0566406h-5.6015625c-2.1113281 0-3.8286133 1.7172852-3.8286133 3.8286133s1.7172852 3.8291016 3.8286133 3.8291016h5.2768555c.6904297 0 1.25.5595703 1.25 1.25s-.5595703 1.25-1.25 1.25h-5.2768555c-3.4897461 0-6.3286133-2.8393555-6.3286133-6.3291016s2.8388672-6.3286133 6.3286133-6.3286133h6.5610352c.565918 0 1.0610352.3798828 1.2075195.9267578l12.3120117 45.9833984c.1787109.6669922-.2172852 1.3520508-.8842773 1.5307617-.1083985.0288086-.216797.0429688-.3242188.0429688z" fill="#4d5c7d"/><path d="m71.02565 83.0141068h-26.9516563c-.4272461 0-.8251953-.2182617-1.0546875-.5791016s-.2587891-.8134766-.0776367-1.2006836l12.128418-25.9140625c.1889648-.4038086.5791016-.6762695 1.0229492-.715332l35.7499962-3.137207c.4785156-.050293.9545898.2021484 1.1958008.6274414.2416992.4248047.2133789.9516602-.0722656 1.3481445l-20.9267579 29.0512695c-.2348633.3261719-.6123047.5195313-1.0141602.5195313zm-24.9863243-2.5h24.3461876l18.9575195-26.3173828-32.313961 2.8354492z" fill="#4d5c7d"/><path d="m71.0266266 83.0141068c-.4335938 0-.8549805-.2255859-1.0859375-.6293945l-20.086422-35.112793c-.3427734-.5991211-.1347656-1.362793.4643555-1.7055664.5981445-.3422852 1.3623047-.1357422 1.7055664.4643555l20.086422 35.112793c.3427734.5991211.1347656 1.362793-.4643555 1.7055664-.1958008.1118163-.4091797.165039-.6196289.165039z" fill="#4d5c7d"/><path d="m57.2693901 45.2958794c-.3635788-.0284729-.7173882-.1071777-1.0693359-.2027512-1.9303474-.524189-7.6230278-1.9157257-9.5713043-.6787567-2.3609009 1.4989471-2.9525261 3.9062881-.8664742 5.452755s11.0736198-.044342 13.5271034-1.3851395c2.3308106-1.2737579.5990677-2.9809875-2.019989-3.1861076z" fill="#e56353"/><path d="m59.2872734 48.4814339c-2.4541359 1.3393593-11.4387245 2.9282799-13.5268173 1.3892708-1.0981255-.8153038-1.4558372-1.8717918-1.1979485-2.903347.1996498.3161278.4825211.6239319.8568382.8984222 2.0797653 1.5473862 11.0726814-.0499115 13.5268173-1.3892708.2745438-.1497345.4908447-.3078003.657238-.4575386 1.0065766.6571884 1.1729661 1.6471596-.3161277 2.4624634z" fill="#d15241"/><path d="m70.9063568 74.1476898c-3.9299927 0-7.1099892 3.1900024-7.1099892 7.1199951 0 3.9300537 3.1799965 7.1100464 7.1099892 7.1100464s7.1199951-3.1799927 7.1199951-7.1100464c0-3.9299926-3.1900024-7.1199951-7.1199951-7.1199951zm2.3099976 3.0900269c.460022-.460022 1.2000122-.460022 1.6599731 0 .460022.4500122.460022 1.2000122 0 1.6500244-.4599609.4599609-1.1999512.4599609-1.6599731 0-.4500122-.4500122-.4500122-1.2000122 0-1.6500244zm-7.8400269 4.0299682c0-.6399536.5200195-1.1599731 1.1600342-1.1599731s1.1499634.5200195 1.1499634 1.1599731c0 .6400146-.5099487 1.1500244-1.1499634 1.1500244s-1.1600342-.5100097-1.1600342-1.1500244zm3.2200318 3.9000245c-.460022.460022-1.2000122.460022-1.6500244 0-.4599609-.4500122-.4599609-1.2000122 0-1.6500244.4500122-.4599609 1.1900024-.4599609 1.6500244 0 .4599609.4500121.4599609 1.2000121 0 1.6500244zm0-6.2799683c-.460022.4599609-1.2000122.4599609-1.6500244 0-.4599609-.4500122-.4599609-1.2000122 0-1.6500244.4500122-.460022 1.1900024-.460022 1.6500244 0 .4599609.4500122.4599609 1.2000122 0 1.6500244zm2.3099975 7.9099731c-.6300049 0-1.1500244-.5200195-1.1500244-1.1599731 0-.6300049.5200195-1.1500244 1.1500244-1.1500244.6400146 0 1.1599731.5200195 1.1599731 1.1500244.0000001.6399536-.5199584 1.1599731-1.1599731 1.1599731zm0-8.75c-.6300049 0-1.1500244-.5200195-1.1500244-1.1599731 0-.6300049.5200195-1.1500244 1.1500244-1.1500244.6400146 0 1.1599731.5200195 1.1599731 1.1500244.0000001.6399536-.5199584 1.1599731-1.1599731 1.1599731zm3.9699707 7.1199952c-.4599609.460022-1.1999512.460022-1.6599731 0-.4500122-.4500122-.4500122-1.2000122 0-1.6500244.460022-.4599609 1.2000122-.4599609 1.6599731 0 .460022.4500121.460022 1.2000121 0 1.6500244zm.4100342-2.75c-.6400146 0-1.1600342-.5100098-1.1600342-1.1500244 0-.6399536.5200195-1.1599731 1.1600342-1.1599731s1.1499634.5200195 1.1499634 1.1599731c0 .6400146-.5099488 1.1500244-1.1499634 1.1500244z" fill="#474c5b"/><path d="m70.9113617 92.7472992c-.5087967 0-.921257-.4124603-.921257-.921257v-10.1185456c0-.5087967.4124603-.921257.921257-.921257s.921257.4124603.921257.921257v10.1185455c0 .5087968-.4124603.9212571-.921257.9212571z" fill="#4d5c7d"/><path d="m74.607132 90.0842972h-7.2483521c-.4570312 0-.8274536.3704834-.8274536.8274536v1.0081177c0 .4569702.3704224.8273926.8274536.8273926h7.2483521c.4570312 0 .8274536-.3704224.8274536-.8273926v-1.0081177c0-.4569702-.3704224-.8274536-.8274536-.8274536z" fill="#ebf0f3"/></svg>