<svg enable-background="new 0 0 140 140" height="512" viewBox="0 0 140 140" width="512" xmlns="http://www.w3.org/2000/svg"><circle cx="70" cy="70" fill="#334d5c" r="64"/><path d="m53.8349876 106.8649979c.2299805.539978.3499756 1.1199951.3200073 1.710022-.0599976 1.1099854.0499878 3.1099854 1.2399902 5.1999512 0 0 .1400146.25.4400024.5700073h-.0100098l19.4230995 19.4230881c29.0704346-2.3618774 52.6338501-24.138176 57.7166138-52.3533859l-57.2496947-57.2496949c-.2900391-.289978-.6900024-.4799805-1.1300049-.4799805h-9.1300049c-.8699951 0-1.5800209.710022-1.5800209 1.5800171v5.0599976h-.2000122c-.4299927 0-.7699585.3499756-.7699585.7699585 0 .2400513.1199951.4500122.289978.5900269l.6400146.6599731v2.2000122s-5.4100342 5.8400269-8.2800293 9.4899902c-.7799683.9800415-1.2699585 2.1500244-1.4499512 3.3800049h-.0900269v23.5200195c0 1.25.3200073 2.4899902.9500122 3.5700073.9599609 1.6799927 2.3499756 4.6099854 2.5100098 7.8499756.0499878.9899902-.3200073 1.9500122-.9700317 2.7000122-.5599976.6500244-1.1300049 1.7000122-.9799805 3.2399902.0700073.7900391-.0400391 1.5900269-.4299927 2.2900391-.4700317.8699951-.9700317 2.3099976-.7000122 4.289978.0999756.7700195-.0200195 1.5499878-.3599854 2.2600098-.3800049.8099976-.7200317 2.1399536-.3200073 4 .1400146.6399536.1400146 1.2999878-.0599976 1.9199829-.2700193.8599854-.4800412 2.2600098.1799929 3.8099976z" opacity=".1"/><path d="m74.5830231 23.6895618h-9.1295547c-.8716736 0-1.5782166.7066231-1.5782166 1.5782681v5.3984337h12.2860947v-5.3984337c-.0000001-.871645-.7066498-1.5782681-1.5783234-1.5782681z" fill="#27a2db"/><path d="m86.3432846 103.0594711c-.1951447-.6209183-.1970367-1.2871323-.0586548-1.923111.4042969-1.8589783.0597076-3.1901093-.3226776-4.0022812-.3327942-.7069855-.4571686-1.4861679-.3519592-2.2604523.2692871-1.9820404-.2306366-3.4212952-.7080154-4.2902527-.3832321-.6977234-.4983368-1.4998627-.4220963-2.2922363.1476517-1.5334625-.4256668-2.5898514-.9806671-3.2352295-.649147-.7547226-1.0262756-1.708046-.9765625-2.7022476.1620712-3.2432632 1.5477753-6.171402 2.5162354-7.8483963.6263962-1.0844574.9465485-2.3169098.9465485-3.5692062v-22.4566612c0-1.6133347-.5367813-3.181942-1.5366211-4.448143-2.8764038-3.6429214-8.2818909-9.4895134-8.2818909-9.4895134v-3.0817356l-6.1669006-.2054386-6.1669998.2054386v3.0817356s-5.4055939 5.8465919-8.2818947 9.4894867c-.999733 1.2662277-1.5365105 2.8347816-1.5365105 4.4480934v22.4567604c0 1.2523041.3201523 2.484726.9464455 3.5691833.9684563 1.6770248 2.3541603 4.6051636 2.5162354 7.8484497.0497055.9941483-.3273125 1.9474716-.9764595 2.7021942-.5549965.6453781-1.1283188 1.7018204-.9807777 3.2353363.0762482.7923203-.0388603 1.5944061-.4220924 2.2920456-.4773827.8689651-.9773026 2.3082199-.7080154 4.2902832.1052055.7743073-.0191689 1.5534897-.3519554 2.2605057-.3822861.8122025-.7269745 2.1433029-.3225746 4.0023346.138382.6359558.1364861 1.3021393-.0586586 1.9230576-.2674942.8511887-.4850693 2.2509537.1748199 3.803421.2301064.541069.3546944 1.1239243.3236275 1.7110443-.0586624 1.1084137.0531807 3.1101913 1.2388954 5.2026291 0 0 1.3194618 2.4236603 5.0209923 1.9536285.1644974-.0208817.3220444-.0904694.4520035-.193306l.1534386-.1214218c.4830704-.3821564 1.1857147-.2096024 1.4317245.3440247.1488075.3350296.4809647.5509491.8475571.5509491h4.8002586c.323204 0 .6232376-.1683426.7916336-.4442902l.3165665-.5186157c.3616486-.5923767 1.2218399-.5923538 1.5834808.0000305l.3164673.5185623c.168396.2759705.4683228.444313.7916336.444313h4.8002548c.3666 0 .6987534-.2158966.8476639-.5508957v-.0000992c.2460098-.5536041.9480286-.7266312 1.4230881-.3507233l.1604996.1269531c.1309052.1036301.2896118.1737442.4552689.1947556 3.700264.4689789 5.0193024-1.9538651 5.0193024-1.9538651 1.1857147-2.0923538 1.2974548-4.0940628 1.2387924-5.2024994-.0310669-.5872269.0935211-1.1701584.3236313-1.7113037.659988-1.5523908.4423061-2.9521253.1749187-3.8032911z" fill="#ebf0f3"/><path d="m84.330246 100.7117386c.2880859-1.3271484.0625-2.215332-.1777344-2.7255859-.4990234-1.0595703-.6806641-2.2285156-.5244141-3.3818359.1962891-1.4482422-.1523438-2.4624023-.4804688-3.059082-.5507812-1.0048828-.7792969-2.1962891-.6591797-3.4453125.0673828-.6967773-.0986328-1.2661133-.5058594-1.7397461-1.0136719-1.1782227-1.53125-2.6367188-1.4570312-4.105957.0830078-1.6622925.4451904-3.2318726.9213867-4.6463013h-22.8935508c.4764404 1.4147339.8388672 2.9847412.9223633 4.6477661.0712891 1.4682617-.4453125 2.9257812-1.4589844 4.1049805-.4072266.4736328-.5732422 1.0424805-.5058594 1.7392578.1201172 1.2509766-.1083984 2.4433594-.6601562 3.4462891-.3271484.5957031-.6757812 1.6098633-.4794922 3.0571289.1572266 1.1523438-.0244141 2.3222656-.5244141 3.3837891-.2402344.5097656-.4658203 1.3969727-.1777344 2.7231445.2207031 1.0107422.1845703 2.0307617-.1044922 2.9487305-.1787109.5683594-.3056641 1.4501953.1064453 2.4204102.3662109.8579102.5273438 1.7333984.4814453 2.6000977-.0429688.8129959.0273438 2.4277344.96875 4.090332.0664062.1044922.6923828 1.0209961 2.3681641 1.0209961.1240234 0 .2519531-.0048828.3837891-.0151367.5029297-.3652344 1.1132812-.5654297 1.7314453-.5654297.9023438 0 1.7402344.4155273 2.2880859 1.1000977h3.6054649l.0029297-.0043945c.5351562-.878418 1.4697266-1.402832 2.4990234-1.402832 1.0273438 0 1.9619141.5239258 2.4990234 1.402832l.0029297.0043945h3.6054688c.5478516-.6855469 1.3867188-1.1020508 2.2900391-1.1020508.6191406 0 1.2285156.2001953 1.7294922.5673828.1328125.0097656.2617188.0146484.3847656.0151367h.0009766c1.6738281 0 2.2988281-.9155273 2.3525391-1 .9550781-1.6845703 1.0253906-3.2988281.9824219-4.1103516-.0458984-.8657227.1152344-1.7397461.4794922-2.6005859.4130859-.9702148.2861328-1.8520508.1074219-2.4228516-.2871094-.9165041-.3232422-1.9345705-.1044922-2.9453127z" fill="#e1e6e9"/><path d="m54.014622 47.414761h31.97081v22.258553h-31.97081z" fill="#27a2db"/><path d="m76.3273163 30.3262863h-12.654686c-.4249344 0-.769413.3445053-.769413.7694683s.3444786.7694664.769413.7694664h12.654686c.4249344 0 .769516-.3445034.769516-.7694664s-.3445816-.7694683-.769516-.7694683z" fill="#d5d6db"/><g fill="#2d93ba"><path d="m65.2300949 24.9388332c-.1792374 0-.3245697.1453323-.3245697.3246269v3.8413315c0 .1792946.1453323.3246269.3245697.3246269.1793518 0 .3246841-.1453323.3246841-.3246269v-3.8413315c.0000001-.1792945-.1453323-.3246269-.3246841-.3246269z"/><path d="m66.826149 24.9388332c-.179245 0-.3245773.1453323-.3245773.3246269v3.8413315c0 .1792946.1453323.3246269.3245773.3246269.1793442 0 .3246765-.1453323.3246765-.3246269v-3.8413315c0-.1792945-.1453323-.3246269-.3246765-.3246269z"/><path d="m68.4221954 24.9388332c-.1792374 0-.3245697.1453323-.3245697.3246269v3.8413315c0 .1792946.1453323.3246269.3245697.3246269.1793518 0 .3246765-.1453323.3246765-.3246269v-3.8413315c0-.1792945-.1453247-.3246269-.3246765-.3246269z"/><path d="m70.0182419 24.9388332c-.1792374 0-.3245697.1453323-.3245697.3246269v3.8413315c0 .1792946.1453323.3246269.3245697.3246269.1793518 0 .3246841-.1453323.3246841-.3246269v-3.8413315c0-.1792945-.1453323-.3246269-.3246841-.3246269z"/><path d="m71.614296 24.9388332c-.179245 0-.3245773.1453323-.3245773.3246269v3.8413315c0 .1792946.1453323.3246269.3245773.3246269.1793442 0 .3246765-.1453323.3246765-.3246269v-3.8413315c0-.1792945-.1453324-.3246269-.3246765-.3246269z"/><path d="m73.2103424 24.9388332c-.179245 0-.3245697.1453323-.3245697.3246269v3.8413315c0 .1792946.1453247.3246269.3245697.3246269.1793518 0 .3246765-.1453323.3246765-.3246269v-3.8413315c0-.1792945-.1453247-.3246269-.3246765-.3246269z"/><path d="m74.8063889 24.9388332c-.1792374 0-.3245697.1453323-.3245697.3246269v3.8413315c0 .1792946.1453323.3246269.3245697.3246269.1793518 0 .3246841-.1453323.3246841-.3246269v-3.8413315c0-.1792945-.1453323-.3246269-.3246841-.3246269z"/></g><circle cx="70" cy="58.544" fill="#e1e6e9" r="7.238"/><path d="m70.0000305 53.3355637s-3.282402 5.3218079-3.282402 7.1346321c0 1.8127365 1.469574 3.2823143 3.282402 3.2823143 1.8128204 0 3.282402-1.4695778 3.282402-3.2823143.0000001-1.8128243-3.282402-7.1346321-3.282402-7.1346321z" fill="#27a2db"/></svg>