<svg enable-background="new 0 0 140 140" height="512" viewBox="0 0 140 140" width="512" xmlns="http://www.w3.org/2000/svg"><circle cx="70" cy="70" fill="#e05b49" r="64"/><path d="m104.2850266 40.6749954c-1.7700195-1.7700195-4.5800171-1.8900146-6.4900513-.2700195l-9.5799561 8.0800171-7.3400269-7.3300171c-1.8099976-.2799683-3.4500122-.3999634-4.9099731-.3999634-9.8900146 0-12.2300377 5.7699585-12.6400108 9.8799438l-4.4199829-4.4099731-.0700073.039978c-2.0400391-2.1999512-5.5700073-4.1099854-11.4199829-5.1199951 0 0-.3500366 2.5500488-1.1200562 5.5100098-.789978 3.0599976-.6399536 5.8800049.2300415 8.1900024-8.210022.6799927-13.4400024 1.710022-13.4400024 2.8599854.4500122 9.1799927 3.8800049 17.5200195 9.2700195 23.9700317l.0499878.0499878c1.3800049 1.6599731 2.8999634 3.1900024 4.5299683 4.5700073l9.3599854 9.4400024c-.2699585 1.2399902.3700562 2.539978 1.5800171 3.25 3.7355957 3.6207886 17.9107018 17.3654785 32.4891319 31.686821 25.2435913-8.4702682 43.4620438-32.2338181 43.6262283-60.2914352l-29.6953812-29.6953735z" opacity=".1"/><path d="m33.0885811 57.7039413c1.0048447 20.7048874 17.1459732 37.1651993 36.9115181 37.1651993s35.9066772-16.4603119 36.9113159-37.1651993z" fill="#d5d6db"/><ellipse cx="70" cy="57.704" fill="#ebf0f3" rx="36.911" ry="3.71"/><path d="m104.1937714 57.7049637c-4.2800293 1.1199951-16.4699707 2.3300171-34.1899414 2.3300171-3.1101074 0-6.0600548-.039978-8.8100548-.0999756-.4499512-.0200195-.8999023-.0300293-1.3299561-.0400391-.2900391-.0100098-.5699463-.0199585-.8499756-.0299683h-.2700195c-.7399902-.0300293-1.4599609-.0499878-2.1700439-.0800171-2.25-.0899658-4.3399658-.2000122-6.2799683-.3200073-7.0800171-.4599609-12.0599976-1.1199951-14.4899902-1.7600098 2.0499878-.539978 5.9099731-1.0899658 11.3200073-1.5299683 2.6599731-.210022 5.6900635-.3900146 9.0599365-.5300293.9200439-.039978 1.8701172-.0799561 2.8400879-.1099854.6699219-.0200195 1.3598633-.039978 2.0699463-.0499878.0999756-.0100098.2000732-.0100098.2999268-.0100098.8601074-.0200195 1.7399902-.039978 2.6401329-.0599976 1.9099121-.0200195 3.8999023-.039978 5.9699707-.039978 17.7199707.0000002 29.9099121 1.2099612 34.1899414 2.3299563z" fill="#d5d6db"/><path d="m81.0056534 99.4494934c-7.2441101 1.648056-14.7671432 1.6480255-22.0113792.0000305-2.0175247-.4577789-3.1892242-2.3242569-2.650322-3.9890594-.0001259 0-.0001259 0 0 0 .5383987-1.6691284 2.3422699-2.5836792 4.0576439-2.1968918 6.3178177 1.4373093 12.8790436 1.4373093 19.1968613-.0000153 1.7152481-.3868866 3.518364.5278244 4.0573883 2.196907.5384063 1.6648331-.6317902 3.5313721-2.6501923 3.989029z" fill="#ebf0f3"/><path d="m104.5576935 47.1702995-7.9056854 9.3583603-2.162262 2.561348c-5.1226959.465683-11.8532486.820507-19.9143219.9091644l5.3223419-4.4906654 17.8962174-15.1019898c1.9072495-1.6188202 4.7235413-1.4968681 6.4865112.2661018 1.7630997 1.7630387 1.8849182 4.5904923.2771988 6.4976807z" fill="#e6e9ef"/><path d="m63.4569664 54.701458s-3.4444046-16.7357903 17.4179726-13.5497437c0 0-.4769745 2.5301208-.6887589 5.5758095-.6764374 9.7279739-9.130867 14.6572037-16.7292137 7.9739342z" fill="#3ea69b"/><path d="m79.0737762 44.6749954s-8.4400635 1.9099731-15.039917 10.7399902c-1.010006 1.3400269-1.9699669 2.8400269-2.8400841 4.5200195-.4499512-.0200195-.8999023-.0300293-1.3299561-.0400391-.2900391-.0100098-.5699463-.0199585-.8499756-.0299683.0300293-.0400391.0400391-.0800171.0599365-.1199951.1800537-.4100342.3900146-.8600464.6400146-1.3500366.3300781-.6599731.7299805-1.3899536 1.1899414-2.1499634l.0100098-.0100098c.1501465-.25.3100586-.5100098.4799805-.7600098 3.0400354-4.700012 8.5700647-10.3599851 17.68005-10.7999876z" fill="#31978c"/><path d="m61.0937996 55.484993c-.0599365.2600098-.1199951.5100098-.1800537.75l-.0100098.0100098c-.3598633 1.3699951-.8398438 2.4299927-1.0998535 2.9400024-.1101074.2199707-.1800537.3399658-.1800537.3399658-.1800537.0800171-.3699951.1500244-.5500488.2200317-.1099854.039978-.2199707.0799561-.3299561.1199951-.7399902-.0300293-1.4599609-.0499878-2.1700439-.0800171-2.25-.0899658-4.3399658-.2000122-6.2799683-.3200073-1.3300171-.7699585-2.4000244-1.8999634-3.1699829-3.289978-1.3900146-2.5-1.7800293-5.8500366-.8300171-9.5200195.7700195-2.9599609 1.1199951-5.5100098 1.1199951-5.5100098 13.7799683 2.3900147 14.6599732 9.6900025 13.6799927 14.3400269z" fill="#3ea69b"/><path d="m59.8638191 59.8949661c-.2900391-.0100098-.5699463-.0199585-.8499756-.0299683h-.2700195c-.7399902-.0300293-1.4599609-.0499878-2.1700439-.0800171.0100098-1.4500122-.1400146-2.8399658-.3900146-4.1400146-1.3399658-6.8999634-5.7199707-11.4699707-6.039978-11.789978 5.2599487 4.1199951 7.749939 8.2700195 8.8800659 11.6799927.3399658 1.0300293.5599365 1.9899902.6899414 2.8599854.0400391.2700195.0700684.5300293.0900879.7900391.0299071.2399901.0499267.4799804.0599364.7099608z" fill="#31978c"/></svg>