<svg enable-background="new 0 0 140 140" height="512" viewBox="0 0 140 140" width="512" xmlns="http://www.w3.org/2000/svg"><circle cx="70" cy="70" fill="#efc84a" r="64"/><path d="m106.5235672 40.7683372-.0200195.039978c-.2999878-.2700195-.6199951-.5299683-1.0100098-.75-4.2799683-2.4500122-25.5699463-.9099731-28.6799927 1.6900024-1.3499756 1.1300049-2.3499756 3.9500122-3.039978 8.3900146l-7.8699951-7.8699951c-.289978-.3200073-.5999756-.6300049-.9100342-.9100342l-.0499878-.0499878c-3.4099731-3.0299683-8.25-3.9699707-12.9400024-3.9699707-7.5899658 0-14.7699585 2.4599609-14.7699585 2.4599609-10.1500244 2.8800049-7.8000488 4.3400269-8.1600342 19.2000122-.3599854 14.8499794 5.6199951 23.6699867 5.6199951 23.6699867s1.0800171 1.6000366.8099976 6.1500244c-.0199585.3599854-.0499878.75-.0899658 1.1499634-.1400146 1.4500122-.0300293 3.3200073.2099609 5.2900391.0100098.0299683.0100098.0599976.0100098.0899658.0400391.2800293.0800171.5599976.1199951.8500366.0599976.4199829.1199951.8499756.1900024 1.2699585.0200195.1400146.0400391.2900391.0700073.4300537.0800171.4899902.1699829.9799805.2600098 1.4699707.0700073.3499756.1300049.6799927.2000122 1.0200195.0100098.039978.0100098.0799561.0199585.1099854.0700073.3599854.1500244.7199707.2200317 1.0599976.0299683.1300049.0499878.2600098.0800171.3900146.0499878.2299805.0999756.4500122.1399536.6699829.0100098.0200195.0100098.039978.0200195.0599976.0700073.3099976.1300049.6000366.2000122.8900146.0299683.1499634.0700073.2999878.0999756.4400024.2300415.9699707.8099976 1.7700195 1.5800171 2.3099976l27.5714722 27.5754395c1.1905518.065979 2.3879395.1062012 3.5949707.1062012 35.3461914 0 63.9999924-28.6537476 63.9999924-64 0-.6039429-.0289307-1.2008057-.0455322-1.8007202z" opacity=".1"/><path d="m113.7672195 51.2394676c-1.5310669-6.8919067-5.5103149-2.9086914-5.5103149-2.9086914s1.5311279-5.8173218-2.7592163-8.2694702c-4.2862549-2.4481812-25.5720825-.9170532-28.6867676 1.6845703-3.1107178 2.6016846-4.3630371 14.1717529-4.2095337 33.772953.0404053 5.0618896.4484253 9.3037109 1.0180664 12.8143311l16.8093872 8.215332c.0282593-1.8623657 12.2409668-6.9185791 12.305603-8.215332.3757324-7.364624 1.2321777-6.4636841 1.2321777-6.4636841 9.0371095-7.0454712 11.3317262-23.7380409 9.8005982-30.6300087z" fill="#e56353"/><path d="m100.3454056 82.6645508s-6.6474838-14.8952942 0-20.1886673c6.6474915-5.2933693 7.9096375-14.1448898 7.9096375-14.1448898s-1.1390457 11.1904526-14.9264297 11.436657c-13.787384.2462006-17.23423-5.2933731-17.23423-9.9712334 0 0-2.7082291 5.4164696 2.3389359 9.9712334s16.2494125 3.8011665 21.0503769 1.107914c-.0000002-.0000001-9.7250292 6.8936919.8617094 21.7889861z" fill="#d15241"/><path d="m102.7344589 88.3331833c-.0646286 1.2967682-.1171417 2.8520966-.1454239 4.7144928-.0444336 2.9005737-.1090851 5.0133896-.1737137 6.5445023-.0929108 2.1492157-1.8906326 3.8297501-4.043869 3.7731857-5.9304657 1.1149979-11.8609238.9614792-17.795433-.4484177-1.5472565-.04039-2.920784-.9776077-3.5307999-2.3955917-.9534225-2.2138138-2.4360275-6.1123047-3.4257889-12.1881714 1.2452317.7696991 13.6094513 3.3640137 29.1150284 0z" fill="#ebf0f3"/><path d="m68.5656204 46.8603172c-5.4376221-15.9411602-31.3369141-7.0656738-31.3369141-7.0656738-10.144043 2.8803711-7.7928467 4.3468628-8.1524048 19.2012939-.3635864 14.854435 5.6154175 23.6693764 5.6154175 23.6693764s1.0866699 1.5997314.81604 6.1486206c-.0202026.3635254 12.0327148 6.8793945 11.9923096 7.2833862l15.4542236-7.7116089.5372925-5.7203979c5.2557983-.9655762 7.2474365-25.8427773 7.5302124-29.6483192.2868653-3.8014527-2.4561767-6.1566773-2.4561767-6.1566773z" fill="#e56353"/><path d="m68.25634 48.8941002s3.2447891 6.7344742-1.8366776 10.1017113c0 0-1.2856674-3.8570175 0-6.3059158 1.2856751-2.4488984 1.8366776-3.7957955 1.8366776-3.7957955z" fill="#d15241"/><g fill="#ebf0f3"><path d="m35.5077438 88.8139496c-.0202179.3635483-.0525665.7513504-.0929565 1.1553345-.1454277 1.4462891-.032299 3.3167343.2100792 5.2841263.0040436.0323029.0080872.0605545.0121307.0929031.0323029.2827682.0727386.5655899.1130791.8483582.0606575.424202.1252594.8523941.1939507 1.2765961.0201721.1413879.0444336.2827682.0686951.424202.0848236.4928513.1696434.9856949.2625504 1.4704514.0646515.3474731.129303.6868057.1939049 1.0220947.0121307.0363922.0161743.0767288.0242615.113121.0726891.3595505.1454277.7150574.2181664 1.0584335.0282593.1333008.0524712.2626038.0807762.3878098.0484772.2262497.0969543.4484177.1454277.6665802.0040436.0202179.0080872.04039.0121307.0606079.0686951.3110275.1373405.6059723.201992.8927841.0323029.1494751.0686951.2989426.1009979.4403305.4160652 1.7775345 1.995697 3.0339127 3.8257027 3.0460434.2423782 0 .492897 0 .7514-.0040436 4.7023659-.0726929 12.0063782-.9897385 16.2239571-1.0099564 1.8906364-.1696396 3.3934402-1.6684494 3.5711937-3.5591125l1.3291168-14.0949097c-12.9112665 2.7551422-23.6046755 1.3896789-27.4465563.4282455z"/><path d="m104.3524094 42.3472252c-1.1204224-2.2407837-12.3860474-2.8480835-23.5046997-.1591797-1.809021.4375-2.9428101 2.2410278-2.5637207 4.0631714.7541504 3.625 3.331665 8.8662109 11.9747925 8.2631836 13.0797118-.9125366 15.3103637-9.7337036 14.0936279-12.1671753z" opacity=".1"/><path d="m59.2872887 41.5727501c-3.2721558-.5609131-7.9125977-1.1940308-12.0625-1.164856-7.3918457.052002-11.8010254.3114014-14.1352539 3.1643677-2.3342896 2.8530273-2.7233276 10.244873-2.4639893 13.7462769.2593994 3.5014038.5187378 3.6496582 1.1671753 8.179203.0064697.0452881.0129395.090332.0194702.1350098.3776855 2.5820923 3.5319214 3.6235962 5.4052734 1.8068848 4.6453857-4.5050087 12.6483765-11.2171669 19.3444214-11.503727h1.3720093c1.8081055 0 3.2489624-1.4909058 3.2034912-3.2984009-.0523682-2.0824585.0449829-4.7912598.6799927-7.0230713.522583-1.836731-.6478882-3.7189941-2.5300903-4.041687z" opacity=".1"/></g></svg>