<svg enable-background="new 0 0 140 140" height="512" viewBox="0 0 140 140" width="512" xmlns="http://www.w3.org/2000/svg"><circle cx="70" cy="70" fill="#334d5c" r="64"/><path d="m43.9757423 101.7249832 31.9840126 31.989006c30.625-2.8296509 54.9867477-27.2280807 57.7629318-57.8684006l-34.3169479-34.4505614c-.2399902-.25-.4899902-.5-.7299805-.7400513l-.2900391-.289978-.0100098.0100098c-7.3699951-7.0599976-17.3599854-11.4100342-28.3800049-11.4100342-22.659977 0-41.0299721 18.3700562-41.0299721 41.0400391.0000002 12.7799682 5.8499758 24.1900024 15.0100099 31.7199706z" opacity=".1"/><circle cx="70" cy="70" fill="#ebf0f3" r="41.037"/><path d="m69.9983368 38.4666176c-17.4179802 0-31.5326996 14.1147842-31.5326996 31.5327644s14.1147194 31.5432587 31.5326996 31.5432587c17.4180374 0 31.5432587-14.1252823 31.5432587-31.5432587s-14.1252213-31.5327644-31.5432587-31.5327644zm0 58.954792c-15.1423721 0-27.4115334-12.2795944-27.4115334-27.4220276s12.2691612-27.4220924 27.4115334-27.4220924c15.1424332 0 27.4220886 12.2796555 27.4220886 27.4220924s-12.2796554 27.4220276-27.4220886 27.4220276z" fill="#d5d6db"/><path d="m91.1180649 69.999382c0 11.6609268-9.4587402 21.1197205-21.1197281 21.1197205-11.6609268 0-21.1091652-9.4587936-21.1091652-21.1197205s9.4482384-21.10923 21.1091652-21.10923c11.6609878 0 21.1197281 9.4482994 21.1197281 21.10923z" fill="#e6e9ef"/><path d="m64.4313202 85.3752823h5.022316s-2.6506653-9.9812546 3.069191-14.2198715c5.7198639-4.2386169 3.90625-12.1689339 3.90625-12.1689339h-7.5334778s-5.580349 11.2118263-5.7198563 16.5442772c0 0 .558033-8.0670471-5.9988785-11.6220131l-8.1255875 4.097683s8.6836243 3.832634 9.5206757 9.9854584c.8370514 6.152832.4185257 7.3834.4185257 7.3834h5.4408417z" fill="#44c4a1"/><path d="m74.154213 66.3901367s-4.002655 1.0670166-6.5086823 6.9223557c-2.0413895 4.7696915-1.0063553 12.0627899-1.0063553 12.0627899h2.8144608s-2.0226059-11.6690369 3.5001602-14.5593491c0 0 3.4743881-2.2748566 4.5558853-5.5338974 1.0814896-3.259037-3.3554687 1.1081009-3.3554687 1.1081009z" fill="#3ea69b"/><ellipse cx="73.44" cy="58.589" fill="#3ea69b" rx="7.834" ry="7.834" transform="matrix(.875 -.484 .484 .875 -19.176 42.832)"/><ellipse cx="72.954" cy="56.851" fill="#44c4a1" rx="6.03" ry="6.03" transform="matrix(.875 -.484 .484 .875 -18.396 42.38)"/><ellipse cx="54.195" cy="62.097" fill="#3ea69b" rx="7.834" ry="7.834" transform="matrix(.875 -.484 .484 .875 -23.274 33.961)"/><ellipse cx="53.708" cy="60.359" fill="#44c4a1" rx="6.03" ry="6.03" transform="matrix(.875 -.484 .484 .875 -22.494 33.509)"/><ellipse cx="54.092" cy="52.055" fill="#3ea69b" rx="6.059" ry="6.059" transform="matrix(.875 -.484 .484 .875 -18.43 32.658)"/><ellipse cx="53.716" cy="50.712" fill="#44c4a1" rx="4.663" ry="4.663" transform="matrix(.875 -.484 .484 .875 -17.827 32.309)"/><ellipse cx="63.063" cy="64.8" fill="#3ea69b" rx="5.43" ry="5.43" transform="matrix(.741 -.671 .671 .741 -27.176 59.074)"/><ellipse cx="62.459" cy="63.704" fill="#44c4a1" rx="4.179" ry="4.179" transform="matrix(.741 -.671 .671 .741 -26.598 58.385)"/><ellipse cx="64.524" cy="52.992" fill="#3ea69b" rx="9.772" ry="9.771" transform="matrix(.875 -.484 .484 .875 -17.582 37.821)"/><ellipse cx="63.917" cy="50.824" fill="#44c4a1" rx="7.521" ry="7.521" transform="matrix(.875 -.484 .484 .875 -16.609 37.257)"/><circle cx="89.214" cy="67.669" fill="#44c4a1" r="8.105"/><circle cx="89.214" cy="67.669" fill="#ebf0f3" r="6.709"/><g fill="#d5d6db"><path d="m89.7725067 63.3424568c0 .3082275-.2498703 1.1637001-.5580978 1.1637001s-.5580902-.8554726-.5580902-1.1637001.2498627-.558094.5580902-.558094.5580978.2498665.5580978.558094z"/><path d="m88.6563187 71.9962082c0-.3082199.2498627-1.1636963.5580902-1.1636963s.5580978.8554764.5580978 1.1636963c0 .3082275-.2498703.5580978-.5580978.5580978s-.5580902-.2498703-.5580902-.5580978z"/><path d="m93.5412903 68.2274246c-.3082275 0-1.1637039-.2498627-1.1637039-.5580902s.8554764-.5580978 1.1637039-.5580978c.3082199 0 .5580902.2498703.5580902.5580978s-.2498703.5580902-.5580902.5580902z"/><path d="m84.8875351 67.1112366c.3082199 0 1.1636963.2498703 1.1636963.5580978s-.8554764.5580902-1.1636963.5580902c-.3082275 0-.5580978-.2498627-.5580978-.5580902s.2498703-.5580978.5580978-.5580978z"/><path d="m92.6686096 65.0044022c-.2179565.2179489-.9995499.6461792-1.2174988.4282303s.2102814-.9995422.4282303-1.2174911c.2179489-.2179527.571312-.2179527.7892685 0 .2179489.2179488.2179489.5713118 0 .7892608z"/><path d="m85.7602158 70.3342667c.2179489-.2179489.9995422-.6461792 1.2174911-.4282303s-.2102814.9995422-.4282303 1.2174911-.571312.2179489-.7892609 0-.2179489-.5713119.0000001-.7892608z"/><path d="m91.8793411 71.1235275c-.2179489-.2179489-.6461792-.9995422-.4282303-1.2174911s.9995422.2102814 1.2174988.4282303c.2179489.2179489.2179489.571312 0 .7892609-.2179565.2179488-.5713196.2179488-.7892685-.0000001z"/><path d="m86.5494766 64.2151413c.2179489.2179489.6461792.9995422.4282303 1.2174911s-.9995422-.2102814-1.2174911-.4282303-.2179489-.571312 0-.7892609c.2179489-.2179526.5713119-.2179526.7892608.0000001z"/><path d="m89.4655228 65.7224503c0 .1386871-.1124268.5236053-.2511139.5236053s-.2511139-.3849182-.2511139-.5236053.1124268-.2511139.2511139-.2511139.2511139.1124267.2511139.2511139z"/><path d="m88.963295 69.6162186c0-.1386871.1124268-.5236053.2511139-.5236053s.2511139.3849182.2511139.5236053-.1124268.2511139-.2511139.2511139-.2511139-.1124268-.2511139-.2511139z"/><path d="m91.161293 67.9204483c-.1386871 0-.5236053-.1124268-.5236053-.2511139s.3849182-.2511139.5236053-.2511139.2511139.1124268.2511139.2511139-.1124267.2511139-.2511139.2511139z"/><path d="m87.2675247 67.4182205c.1386871 0 .523613.1124268.523613.2511139s-.3849258.2511139-.523613.2511139-.2511139-.1124268-.2511139-.2511139.1124268-.2511139.2511139-.2511139z"/><path d="m90.768631 66.4702454c-.0980682.0980682-.4497452.2907486-.5478134.1926804s.0946121-.4497452.1926804-.5478134.2570648-.0980682.3551331 0 .0980681.2570647-.0000001.355133z"/><path d="m87.6601868 68.8684235c.0980682-.0980682.4497452-.2907486.5478134-.1926804s-.0946121.4497452-.1926804.5478134c-.0980682.0980606-.2570648.0980606-.3551331 0-.0980605-.0980682-.0980605-.2570648.0000001-.355133z"/><path d="m90.4134979 69.2235565c-.0980682-.0980682-.2907486-.4497452-.1926804-.5478134s.4497452.0946121.5478134.1926804.0980682.2570648 0 .3551331c-.0980682.0980605-.2570647.0980605-.355133-.0000001z"/><path d="m88.0153198 66.1151123c.0980682.0980682.2907486.4497452.1926804.5478134s-.4497452-.0946121-.5478134-.1926804c-.0980606-.0980682-.0980606-.2570648 0-.3551331.0980682-.0980681.2570648-.0980681.355133.0000001z"/></g><circle cx="86.051" cy="77.972" fill="#3ea69b" r="8.105"/><circle cx="86.051" cy="77.972" fill="#ebf0f3" r="6.709"/><g fill="#d5d6db"><path d="m86.6093292 73.6454849c0 .3082275-.2498703 1.1637039-.5580978 1.1637039s-.5580902-.8554764-.5580902-1.1637039.2498627-.5580902.5580902-.5580902.5580978.2498627.5580978.5580902z"/><path d="m85.4931412 82.2992401c0-.3082275.2498627-1.1636963.5580902-1.1636963s.5580978.8554688.5580978 1.1636963-.2498703.5580978-.5580978.5580978-.5580902-.2498702-.5580902-.5580978z"/><path d="m90.3781128 78.5304565c-.3082275 0-1.1637039-.2498627-1.1637039-.5580902s.8554764-.5580978 1.1637039-.5580978.5580902.2498703.5580902.5580978-.2498627.5580902-.5580902.5580902z"/><path d="m81.7243576 77.4142685c.3082275 0 1.1636963.2498703 1.1636963.5580978s-.8554688.5580902-1.1636963.5580902-.5580978-.2498627-.5580978-.5580902.2498703-.5580978.5580978-.5580978z"/><path d="m89.5054321 75.3074341c-.2179489.2179489-.9995499.6461792-1.2174988.4282303s.2102814-.9995499.4282303-1.2174988.5713196-.2179489.7892685 0 .2179489.5713196 0 .7892685z"/><path d="m82.5970383 80.6372986c.2179489-.2179489.9995422-.6461792 1.2174911-.4282303s-.2102814.9995422-.4282303 1.2174911-.571312.2179489-.7892609 0-.2179488-.5713119.0000001-.7892608z"/><path d="m88.7161636 81.4265594c-.2179489-.2179489-.6461792-.9995422-.4282303-1.2174911s.9995499.2102814 1.2174988.4282303.2179489.571312 0 .7892609-.5713196.2179489-.7892685-.0000001z"/><path d="m83.3862991 74.5181656c.2179489.2179489.6461792.9995499.4282303 1.2174988s-.9995422-.2102814-1.2174911-.4282303-.2179489-.5713196 0-.7892685.5713119-.2179489.7892608 0z"/><path d="m86.3023453 76.0254822c0 .1386871-.1124268.5236053-.2511139.5236053s-.2511139-.3849182-.2511139-.5236053.1124268-.2511139.2511139-.2511139.2511139.1124267.2511139.2511139z"/><path d="m85.8001175 79.9192505c0-.1386871.1124268-.523613.2511139-.523613s.2511139.3849258.2511139.523613-.1124268.2511139-.2511139.2511139-.2511139-.1124268-.2511139-.2511139z"/><path d="m87.9981155 78.2234802c-.1386871 0-.5236053-.1124268-.5236053-.2511139s.3849182-.2511139.5236053-.2511139.2511139.1124268.2511139.2511139-.1124267.2511139-.2511139.2511139z"/><path d="m84.1043472 77.7212524c.1386871 0 .523613.1124268.523613.2511139s-.3849258.2511139-.523613.2511139-.2511139-.1124268-.2511139-.2511139.1124268-.2511139.2511139-.2511139z"/><path d="m87.6054535 76.7732773c-.0980682.0980606-.4497452.2907486-.5478134.1926804s.0946198-.4497452.1926804-.5478134c.0980682-.0980682.2570648-.0980682.3551331 0s.0980681.2570647-.0000001.355133z"/><path d="m84.4970093 79.1714554c.0980682-.0980682.4497528-.2907486.5478134-.1926804.0980682.0980606-.0946121.4497452-.1926804.5478134-.0980682.0980606-.2570648.0980606-.3551331 0-.0980605-.0980682-.0980605-.2570648.0000001-.355133z"/><path d="m87.2503204 79.5265884c-.0980606-.0980682-.2907486-.4497528-.1926804-.5478134.0980682-.0980682.4497452.0946121.5478134.1926804s.0980682.2570648 0 .3551331c-.0980681.0980605-.2570647.0980605-.355133-.0000001z"/><path d="m84.8521423 76.4181442c.0980682.0980682.2907486.4497452.1926804.5478134-.0980606.0980682-.4497452-.0946198-.5478134-.1926804-.0980606-.0980682-.0980606-.2570648 0-.3551331.0980682-.0980681.2570648-.0980681.355133.0000001z"/></g><circle cx="78.504" cy="86.077" fill="#44c4a1" r="8.105"/><circle cx="78.504" cy="86.077" fill="#ebf0f3" r="6.709"/><path d="m79.062355 81.7505264c0 .3082199-.2498627 1.1636963-.5580902 1.1636963s-.5580978-.8554764-.5580978-1.1636963c0-.3082275.2498703-.5580978.5580978-.5580978s.5580902.2498703.5580902.5580978z" fill="#d5d6db"/><path d="m77.946167 90.4042816c0-.3082275.2498703-1.1637039.5580978-1.1637039s.5580902.8554764.5580902 1.1637039c0 .3082199-.2498627.5580902-.5580902.5580902s-.5580978-.2498703-.5580978-.5580902z" fill="#d5d6db"/><path d="m82.8311386 86.635498c-.3082275 0-1.1636963-.2498703-1.1636963-.5580978s.8554688-.5580902 1.1636963-.5580902.5580978.2498627.5580978.5580902-.2498703.5580978-.5580978.5580978z" fill="#d5d6db"/><path d="m74.1773834 85.51931c.3082275 0 1.1637039.2498627 1.1637039.5580902s-.8554764.5580978-1.1637039.5580978-.5580902-.2498703-.5580902-.5580978.2498627-.5580902.5580902-.5580902z" fill="#d5d6db"/><path d="m81.9584579 83.412468c-.2179489.2179489-.9995422.6461792-1.2174911.4282303s.2102814-.9995422.4282303-1.2174911.571312-.2179489.7892609 0 .2179489.5713118-.0000001.7892608z" fill="#d5d6db"/><path d="m75.0500641 88.7423325c.2179489-.2179489.9995499-.6461792 1.2174988-.4282303s-.2102814.9995422-.4282303 1.2174911c-.2179489.2179565-.5713196.2179565-.7892685 0-.2179489-.2179489-.2179489-.5713119 0-.7892608z" fill="#d5d6db"/><path d="m81.1691971 89.5315933c-.2179489-.2179489-.6461792-.9995422-.4282303-1.2174911s.9995422.2102814 1.2174911.4282303.2179489.571312 0 .7892609c-.2179489.2179565-.5713119.2179565-.7892608-.0000001z" fill="#d5d6db"/><path d="m75.8393326 82.6232071c.2179489.2179489.6461792.9995422.4282303 1.2174911s-.9995499-.2102814-1.2174988-.4282303-.2179489-.571312 0-.7892609.5713196-.2179488.7892685.0000001z" fill="#d5d6db"/><path d="m78.7553787 84.1305161c0 .1386871-.1124268.5236053-.2511139.5236053s-.2511139-.3849182-.2511139-.5236053.1124268-.2511139.2511139-.2511139.2511139.1124267.2511139.2511139z" fill="#d5d6db"/><path d="m78.2531509 88.0242844c0-.1386871.1124268-.5236053.2511139-.5236053s.2511139.3849182.2511139.5236053-.1124268.2511139-.2511139.2511139-.2511139-.1124268-.2511139-.2511139z" fill="#d5d6db"/><path d="m80.451149 86.3285141c-.1386871 0-.523613-.1124268-.523613-.2511139s.3849258-.2511139.523613-.2511139.2511139.1124268.2511139.2511139-.1124268.2511139-.2511139.2511139z" fill="#d5d6db"/><path d="m76.5573807 85.8262863c.1386871 0 .5236053.1124268.5236053.2511139s-.3849182.2511139-.5236053.2511139-.2511139-.1124268-.2511139-.2511139.1124267-.2511139.2511139-.2511139z" fill="#d5d6db"/><path d="m80.0584869 84.8783112c-.0980682.0980682-.4497528.2907486-.5478134.1926804-.0980682-.0980682.0946121-.4497452.1926804-.5478134.0980682-.0980606.2570648-.0980606.3551331 0 .0980605.0980681.0980605.2570647-.0000001.355133z" fill="#d5d6db"/><path d="m76.9500427 87.2764893c.0980682-.0980682.4497452-.2907486.5478134-.1926804s-.0946198.4497452-.1926804.5478134c-.0980682.0980682-.2570648.0980682-.3551331 0s-.0980681-.2570648.0000001-.355133z" fill="#d5d6db"/><path d="m79.7033539 87.6316223c-.0980682-.0980682-.2907486-.4497452-.1926804-.5478134.0980606-.0980682.4497452.0946121.5478134.1926804.0980606.0980682.0980606.2570648 0 .3551331-.0980682.0980682-.2570648.0980682-.355133-.0000001z" fill="#d5d6db"/><path d="m77.3051758 84.5231781c.0980606.0980682.2907486.4497452.1926804.5478134s-.4497452-.0946121-.5478134-.1926804-.0980682-.2570648 0-.3551331c.0980682-.0980605.2570647-.0980605.355133.0000001z" fill="#d5d6db"/></svg>