<svg enable-background="new 0 0 140 140" height="512" viewBox="0 0 140 140" width="512" xmlns="http://www.w3.org/2000/svg"><circle cx="70" cy="70" fill="#efc84a" r="64"/><path d="m94.9057388 39.6083031h-.9500122l-3.0299683-3.0299683c-.2700195-.2999878-.6600342-.5-1.1000366-.5-.8200073 0-1.4799805.6699829-1.4799805 1.4899902v2.039978h-7.5900269c-1.1399536-1.1499634-2.6900024-2.6799927-3.039978-3.0199585-.2800293-.3099976-.6699829-.5100098-1.1099854-.5100098-.8200073 0-1.4800415.6699829-1.4800415 1.4899902v2.039978h-7.5999756l-3.0200195-3.0199585c-.2699585-.3099976-.6699867-.5100098-1.1099892-.5100098-.8300171 0-1.4899902.6699829-1.4899902 1.4899902v2.039978h-7.6099854l-2.9700317-2.9699707c-.2699585-.3400269-.6799927-.5599976-1.1499634-.5599976-.8200073 0-1.4900513.6699829-1.4900513 1.4899902v2.039978h-3.5899658c-4.3900146 0-7.960022 3.5600586-7.960022 7.960022v49.0000038c0 2.4899902 1.1400146 4.710022 2.9299927 6.1699829l31.2334023 31.2288818c33.0109863-.659729 59.8753586-26.2993164 62.47509-58.7993164l-33.1584395-33.1395298c-1.4500122-1.4899902-3.4700317-2.4200439-5.710022-2.4200439z" opacity=".1"/><path d="m94.9036484 42.2553062h-49.8072968c-4.394825 0-7.95755 3.5627213-7.95755 7.9575462v46.3581848c0 4.3948288 3.5627251 7.95755 7.95755 7.95755h49.8072968c4.3948288 0 7.95755-3.5627213 7.95755-7.95755v-46.3581847c0-4.394825-3.5627212-7.9575463-7.95755-7.9575463z" fill="#ebf0f3"/><path d="m102.8611984 57.2067986v-9.6418915c0-4.3948288-3.5627213-7.95755-7.95755-7.95755h-49.8072968c-4.394825 0-7.95755 3.5627213-7.95755 7.95755v9.6418915z" fill="#ce412d"/><path d="m102.8611984 59.0056686v-8.7928085c0-4.394825-3.5627213-7.9575462-7.95755-7.9575462h-49.8072968c-4.394825 0-7.95755 3.5627213-7.95755 7.9575462v8.7928085z" fill="#e56353"/><path d="m50.1732788 46.5290947c-1.5338287 0-2.7772827 1.243454-2.7772827 2.7772827s1.243454 2.7772102 2.7772827 2.7772102 2.7772141-1.2433815 2.7772141-2.7772102-1.2433854-2.7772827-2.7772141-2.7772827z" fill="#d15241"/><path d="m50.1732445 36.0823174c-.8205948 0-1.4858284.6652374-1.4858284 1.4858322v11.5764771c0 .8206635.6652336 1.4858284 1.4858284 1.4858284s1.4858284-.6651649 1.4858284-1.4858284v-11.5764771c0-.8205948-.6652336-1.4858322-1.4858284-1.4858322z" fill="#4d5c7d"/><path d="m63.3911171 46.5290947c-1.5338287 0-2.7772827 1.243454-2.7772827 2.7772827s1.243454 2.7772102 2.7772827 2.7772102c1.5338249 0 2.7772102-1.2433815 2.7772102-2.7772102s-1.2433853-2.7772827-2.7772102-2.7772827z" fill="#d15241"/><path d="m63.3910828 36.0823174c-.8205986 0-1.4858322.6652374-1.4858322 1.4858322v11.5764771c0 .8206635.6652336 1.4858284 1.4858322 1.4858284.8205948 0 1.4858322-.6651649 1.4858322-1.4858284v-11.5764771c0-.8205948-.6652374-1.4858322-1.4858322-1.4858322z" fill="#4d5c7d"/><path d="m76.6089554 46.5290947c-1.5338287 0-2.7772827 1.243454-2.7772827 2.7772827s1.243454 2.7772102 2.7772827 2.7772102 2.7772141-1.2433815 2.7772141-2.7772102-1.2433854-2.7772827-2.7772141-2.7772827z" fill="#d15241"/><path d="m76.6089172 36.0823174c-.8205948 0-1.4858322.6652374-1.4858322 1.4858322v11.5764771c0 .8206635.6652374 1.4858284 1.4858322 1.4858284s1.4858322-.6651649 1.4858322-1.4858284v-11.5764771c.0000001-.8205948-.6652374-1.4858322-1.4858322-1.4858322z" fill="#4d5c7d"/><path d="m89.8267899 46.5290947c-1.5338287 0-2.7772827 1.243454-2.7772827 2.7772827s1.243454 2.7772102 2.7772827 2.7772102 2.7772141-1.2433815 2.7772141-2.7772102-1.2433854-2.7772827-2.7772141-2.7772827z" fill="#d15241"/><path d="m89.8267593 36.0823174c-.8206024 0-1.4858322.6652374-1.4858322 1.4858322v11.5764771c0 .8206635.6652298 1.4858284 1.4858322 1.4858284.8205948 0 1.4858246-.6651649 1.4858246-1.4858284v-11.5764771c0-.8205948-.6652298-1.4858322-1.4858246-1.4858322z" fill="#4d5c7d"/><g fill="#e56353"><path d="m61.388866 70h6.006645v6.006645h-6.006645z"/><path d="m72.604492 70h6.006645v6.006645h-6.006645z"/><path d="m83.820114 70h6.006645v6.006645h-6.006645z"/><path d="m50.173245 79.416367h6.006645v6.006645h-6.006645z"/><path d="m61.388866 79.416367h6.006645v6.006645h-6.006645z"/><path d="m72.604492 79.416367h6.006645v6.006645h-6.006645z"/><path d="m83.820114 79.416367h6.006645v6.006645h-6.006645z"/><path d="m50.173245 88.832733h6.006645v6.006645h-6.006645z"/><path d="m61.388866 88.832733h6.006645v6.006645h-6.006645z"/><path d="m72.604492 88.832733h6.006645v6.006645h-6.006645z"/></g></svg>