<svg enable-background="new 0 0 140 140" height="512" viewBox="0 0 140 140" width="512" xmlns="http://www.w3.org/2000/svg"><circle cx="70" cy="70" fill="#334d5c" r="64"/><path d="m109.7935944 47.2916756c-.0900269-.1000366-.1600342-.1900024-.25-.2900391-.0800171-.0799561-.1500244-.1799927-.2300415-.2600098-.2199707-.2199707-.4400024-.4199829-.6699829-.6199951-.0499878-.039978-.0899658-.0799561-.1400146-.1199951-.289978-.2399902-.5799561-.4500122-.8999634-.6499634l-1.1600342-.4700317-.6599731-.2600098c-1.9299927-.789978-4.1000366-.5799561-5.8400269.4900513-.3200073.1999512-.6300049.4099731-.9099731.6699829-.4700317.4199829-.9799805.8800049-1.5 1.3800049-2.3200073 2.1900024-4.9899902 5.0199585-6.75 7.8200073l-13.9299928-13.9300537-.0300293.0300293c-.5700073-.5300293-1.3200073-.8599854-2.1499634-.8599854h-32.1300048c-1.75 0-3.1600342 1.4199829-3.1600342 3.1599731v19.1300049c0 1.0200195.4899902 1.9199791 1.2399902 2.4899864l19.6900024 19.7000122c-1.8299561 1.4799805-3.5799561 3.1699829-5.0499878 4.7200317-.5100098.539978-.9899902 1.0599976-1.4199829 1.5499878-.2600098.289978-.4799805.6099854-.6799927.9299927-1.0599976 1.7399902-1.2700195 3.8999634-.4899902 5.8300171l.2699585.6499634.4700317 1.1699829c.1900024.3100586.4099731.6100464.6400146.8900146.039978.0499878.0899658.0900269.1299438.1400146.2000122.2299805.4000244.460022.6200562.6699829.0799561.0800171.1699829.1500244.2599487.2300415.1900024.1699829.3699951.3399658.5700073.4899902.1199951.0999756.25.2000122.3800049.289978.1199951.0900269.2399902.1799927.3599854.2700195l-.0099487-.0200195c.2799683.1900024.5699463.3800049.8599854.5499878-.0700073.1300049-.1199951.25-.1900024.3800049-.6099854 1.0400391-1.4500122 1.9400024-2.4199829 2.6799927l-1.8400269-1.8399658-.0100098.0199585c-.3499756-.3699951-.7399902-.7099609-1.2000122-.9699707-1.5700073-.8699951-3.5499878-.9299927-5.2999878-.1599731-.2600098.1199951-.5999756.289978-.8800049.6099854-.9099731 1.039978-1.3299561 2.1900024-1.1699829 3.25.0900269.6300049.4000244 1.1900024.8599854 1.7000122l-.0299683-.0100098.2600098.25c.039978.039978.0699463.0700073.1099854.0999756l2.9500122 2.8200073c-1.9500122.9500122-4.1600342 1.3099976-6.3200073.9899902-.5400391-.0800171-1.0599976.2999878-1.1400146.8400269-.0300293.2299805.0299683.4400024.1300049.6300049l.0100098.0199585c.0899658.1500244.2099609.2800293.3800049.3699951l18.4505615 18.453186c3.2990112.5245361 6.6791992.8051758 10.1258545.8051758 34.8561401 0 63.1837158-27.869812 63.9630737-62.5388184z" opacity=".1"/><path d="m43.5927505 114.995575c-.6147461 0-1.230957-.0449219-1.8422852-.1347656-.5463867-.0800781-.9243164-.5888672-.84375-1.1347656.0805664-.546875.5947266-.9287109 1.1347656-.84375 2.8237305.4150391 5.7539062-.3222656 8.043457-2.0214844.3544922-.2636719.7416992-.5917969 1.0844727-.9746094-1.0996094.234375-2.2348633.3095703-3.3691406.1962891-.4853516-.046875-1.1142578-.1445312-1.6777344-.4902344-1.1132812-.6845703-1.7548828-1.5449219-1.9077148-2.5595703-.1586914-1.0566406.2573242-2.2109375 1.1713867-3.25.28125-.3251953.6137695-.4951172.8740234-.609375 1.7509766-.7734375 3.7333984-.7158203 5.2998047.1582031 1.2568359.7011719 2.1479492 1.8984375 2.4716797 3.2197266 1.2260742-.7949219 2.2734375-1.8564453 2.9995117-3.1123047.6049805-1.046875.9125977-2.0576172.9145508-3.0039062.0009766-.5517578.4487305-.9980469 1-.9980469h.0019531c.5522461.0009766.9990234.4492188.9980469 1.0019531-.0024414 1.3007812-.4003906 2.6474609-1.1831055 4.0009766-1.1166992 1.9326172-2.8071289 3.46875-4.7729492 4.4560547-.3647461 1.2929688-1.2895508 2.5146484-2.7128906 3.5703125-2.215332 1.6455077-4.9389648 2.5292968-7.684082 2.5292968zm5.206543-10.3583985c-.581543 0-1.1782227.1220703-1.7333984.3671875-.1206055.0527344-.1567383.0771484-.1669922.0849609-.5214844.5947266-.7749023 1.1894531-.7060547 1.6455078.0605469.4042969.3891602.7919922.9765625 1.1523438.2138672.1318359.5522461.1787109.8227539.2050781 1.40625.1357422 2.8393555-.0849609 4.168457-.5917969-.0585938-.9589844-.6665039-1.9160156-1.574707-2.4228516-.5263672-.2929686-1.1474609-.4404296-1.7866211-.4404296z" fill="#ebf0f3"/><path d="m67.3035736 106.6548157c1.6952286.5455856 6.4834518-3.2403412 6.4834518-3.2403412 9.2400436-6.8600388 15.8455048-13.0009003 20.193161-17.4945831 4.4936905-4.3476562 10.6345673-10.9531479 17.494606-20.1931839 0 0 3.7859268-4.7882271 3.2403412-6.4834557-.4430542-1.3767166-1.491127-7.6101532-4.6021652-11.5825615-.7198029-.9190979-1.5727081-.3697052-2.5314407-.9585686l-1.8169022-.7376328c-2.2924576-.9307098-3.0692062-.517601-4.9150848 1.1299057-3.2544785 2.9047737-8.9445343 5.2039185-10.5123367 9.4419212-.5107574 1.3806725-.3212433 2.9233398.4561768 4.1734428l.6581879 3.8188591 2.2013702 3.539978s-1.3036423 6.338356-6.1483994 11.3756409c-5.0372925 4.8447647-11.3756256 6.1483765-11.3756256 6.1483765l-3.7816391-2.3516693-2.1818619-.0983734c-1.2501221-.7773895-2.7927933-.9669113-4.1734619-.4561462-4.2380028 1.5678024-7.0015869 3.6583633-9.9063606 6.9128342-1.6475029 1.8458786-2.0974274 4.4665604-1.1667137 6.7590179l-.6779442 2.1468201c.6471977 1.0536957.7211418 2.9909592 1.7566833 3.7582092 3.9789848 2.9480897 9.9607887 3.9586106 11.3059578 4.3915101z" fill="#27a2db"/><path d="m91.7054214 64.9345932-1.8748322-3.0160408c-.7792664-1.2488098-.9651413-2.7910576-.4564743-4.173542 1.5683212-4.2354927 6.400528-9.0546455 9.6545639-11.9630775 1.8454971-1.6433487 4.4670029-2.0932884 6.759201-1.164032l1.8193893.7368965c1.1803284.7238388 2.1617889 1.7639656 2.9834366 2.9573288l-1.3922501-.5445099c-2.3085022-.8999062-4.9984818-.3358307-6.9417953 1.4705238-3.4268723 3.1790695-8.5296936 8.4383926-10.2741013 12.9673462-.3423307.8901329-.4303739 1.8389702-.2771376 2.7291069z" fill="#d5d6db"/><path d="m72.9949265 83.6450882-3.016037-1.8748398c-1.2488098-.7792587-2.7910614-.9651337-4.1735458-.4564667-4.2354927 1.5683212-9.0546417 6.400528-11.9630775 9.6545639-1.6433449 1.8454971-2.0932884 4.4669952-1.164032 6.759201l.7368965 1.8193893c.7238388 1.1803284 1.7639656 2.1617889 2.9573326 2.9834366l-.5445137-1.3922501c-.8999023-2.3085022-.3358307-4.9984818 1.4705276-6.9417953 3.1790657-3.4268723 8.438385-8.5296936 12.9673386-10.2741013.8901367-.3423384 1.8389739-.430374 2.7291107-.2771376z" fill="#d5d6db"/><path d="m74.6738281 40.224659h-32.1342125c-1.7443848 0-3.1585693 1.4141846-3.1585693 3.1585693v19.1315308c0 1.744442 1.4141846 3.1585655 3.1585693 3.1585655h23.2385216l6.1710205 6.1710205s0-3.8999023 0-6.1710205h2.7246704c1.7444458 0 3.1585693-1.4141235 3.1585693-3.1585655v-19.1315308c.0000001-1.7443848-1.4141235-3.1585693-3.1585693-3.1585693z" fill="#ebf0f3"/><path d="m65.6591797 50.715107h-4.8185997v-4.8185425h-4.4677124v4.8185425h-4.8186035v4.4677734h4.8186035v4.8185425h4.4677124v-4.8185425h4.8185997z" fill="#e56353"/></svg>