<svg enable-background="new 0 0 140 140" height="512" viewBox="0 0 140 140" width="512" xmlns="http://www.w3.org/2000/svg"><circle cx="70" cy="70" fill="#e05b49" r="64"/><path d="m42.2892799 104.5449905 29.4119911 29.4119797c32.7648315-.857666 59.3840866-26.3246384 62.0589523-58.6057053l-36.9209518-36.9262695c-.6399536-.75-1.5799561-1.2299805-2.6399536-1.2299805h-48.4000282c-1.9199829 0-3.4799805 1.5499878-3.4799805 3.4799805v5.9799805c0 .9100342.3599854 1.7300415.9299927 2.3500366h-.0100098l.0599976.0599976c.0300293.0299683.0599976.0599976.0800171.0899658l5.3999634 5.4100342v.6699829h-2.8899536c-3.1900024 0-5.7800293 2.5800171-5.7800293 5.7700195v39.0299683c0 1.8300171.8499755 3.4500122 2.1799926 4.5100097z" opacity=".1"/><path d="m48.783382 47.138897h42.43322v12.150481h-42.43322z" fill="#d5d6db"/><path d="m94.1098785 55.2316551h-48.2198104c-3.1906166 0-5.777092 2.5864754-5.777092 5.7771454v39.0237465c0 3.1906738 2.5864754 5.777153 5.777092 5.777153h48.2198105c3.1906204 0 5.7771454-2.5864792 5.7771454-5.777153v-39.0237465c-.0000001-3.19067-2.586525-5.7771454-5.7771455-5.7771454z" fill="#ebf0f3"/><path d="m94.201828 37.1903038h-48.403656c-1.9221039 0-3.4802475 1.5581436-3.4802475 3.4802475v5.9822311c0 1.9221039 1.5581436 3.4803009 3.4802475 3.4803009h48.403656c1.9221039 0 3.4802475-1.558197 3.4802475-3.4803009v-5.9822311c0-1.9221039-1.5581436-3.4802475-3.4802475-3.4802475z" fill="#4d5c7d"/><g fill="#474c5b"><path d="m46.7535744 40.208252h-.0000534c-.7226028 0-1.3084373.5858383-1.3084373 1.3084412v4.2900009c0 .7226562.5858345 1.3084412 1.3084373 1.3084412h.0000534c.7226028 0 1.3084412-.5857849 1.3084412-1.3084412v-4.2900009c-.0000001-.7226029-.5858384-1.3084412-1.3084412-1.3084412z"/><path d="m51.4028664 40.208252h-.0000534c-.7226028 0-1.3084412.5858383-1.3084412 1.3084412v4.2900009c0 .7226562.5858383 1.3084412 1.3084412 1.3084412h.0000534c.7226028 0 1.3084373-.5857849 1.3084373-1.3084412v-4.2900009c0-.7226029-.5858345-1.3084412-1.3084373-1.3084412z"/><path d="m56.0521545 40.208252h-.0000496c-.7226067 0-1.3084412.5858383-1.3084412 1.3084412v4.2900009c0 .7226562.5858345 1.3084412 1.3084412 1.3084412h.0000496c.7226028 0 1.3084412-.5857849 1.3084412-1.3084412v-4.2900009c0-.7226029-.5858383-1.3084412-1.3084412-1.3084412z"/><path d="m60.7014465 40.208252h-.0000534c-.7226028 0-1.3084412.5858383-1.3084412 1.3084412v4.2900009c0 .7226562.5858383 1.3084412 1.3084412 1.3084412h.0000534c.7226028 0 1.3084412-.5857849 1.3084412-1.3084412v-4.2900009c0-.7226029-.5858383-1.3084412-1.3084412-1.3084412z"/><path d="m65.3507385 40.208252h-.0000534c-.7226028 0-1.3084412.5858383-1.3084412 1.3084412v4.2900009c0 .7226562.5858383 1.3084412 1.3084412 1.3084412h.0000534c.7226028 0 1.3084412-.5857849 1.3084412-1.3084412v-4.2900009c0-.7226029-.5858383-1.3084412-1.3084412-1.3084412z"/><path d="m70.0000229 40.208252h-.0000458c-.7226105 0-1.3084412.5858383-1.3084412 1.3084412v4.2900009c0 .7226562.5858307 1.3084412 1.3084412 1.3084412h.0000458c.7226105 0 1.3084412-.5857849 1.3084412-1.3084412v-4.2900009c0-.7226029-.5858307-1.3084412-1.3084412-1.3084412z"/><path d="m74.6493149 40.208252h-.0000534c-.7226028 0-1.3084412.5858383-1.3084412 1.3084412v4.2900009c0 .7226562.5858383 1.3084412 1.3084412 1.3084412h.0000534c.7226028 0 1.3084412-.5857849 1.3084412-1.3084412v-4.2900009c-.0000001-.7226029-.5858384-1.3084412-1.3084412-1.3084412z"/><path d="m79.2986069 40.208252h-.0000534c-.7226028 0-1.3084412.5858383-1.3084412 1.3084412v4.2900009c0 .7226562.5858383 1.3084412 1.3084412 1.3084412h.0000534c.7226028 0 1.3084412-.5857849 1.3084412-1.3084412v-4.2900009c-.0000001-.7226029-.5858384-1.3084412-1.3084412-1.3084412z"/><path d="m83.9478989 40.208252h-.0000534c-.7226028 0-1.3084412.5858383-1.3084412 1.3084412v4.2900009c0 .7226562.5858383 1.3084412 1.3084412 1.3084412h.0000534c.7226028 0 1.3084412-.5857849 1.3084412-1.3084412v-4.2900009c-.0000001-.7226029-.5858384-1.3084412-1.3084412-1.3084412z"/><path d="m88.5971909 40.208252h-.0000534c-.7226028 0-1.3084412.5858383-1.3084412 1.3084412v4.2900009c0 .7226562.5858383 1.3084412 1.3084412 1.3084412h.0000534c.7226028 0 1.3084335-.5857849 1.3084335-1.3084412v-4.2900009c0-.7226029-.5858307-1.3084412-1.3084335-1.3084412z"/><path d="m93.2464752 40.208252h-.0000534c-.7226028 0-1.3084335.5858383-1.3084335 1.3084412v4.2900009c0 .7226562.5858307 1.3084412 1.3084335 1.3084412h.0000534c.7226028 0 1.3084412-.5857849 1.3084412-1.3084412v-4.2900009c0-.7226029-.5858383-1.3084412-1.3084412-1.3084412z"/></g><path d="m46.753548 65.25528h46.492901v30.530798h-46.492901z" fill="#44c4a1"/><path d="m69.5480347 71.4052277c-1.0582199-1.0582275-2.7739258-1.0582123-3.8321304 0l-6.2746277 6.2746201c-1.0582199 1.0582199-1.0582199 2.7739182 0 3.8321381 1.0582237 1.0582199 2.7739258 1.0582352 3.8321495.0000153l6.2746239-6.2746277c1.0582046-1.0582048 1.0582046-2.7739259-.0000153-3.8321458z" fill="#e56353"/><path d="m62.8201218 74.3010025-3.3788452 3.3788452c-1.0582199 1.0582199-1.0582199 2.7739182 0 3.8321381 1.0582237 1.0582199 2.7739258 1.0582352 3.8321495.0000153l3.378849-3.3788528z" fill="#474c5b"/><path d="m74.2258682 69.8068008c-1.2013931.8923721-1.4518814 2.5896912-.5595169 3.7910614l5.2912445 7.1235199c.8923721 1.2013931 2.5896835 1.4518967 3.791069.5595169 1.2013855-.8923721 1.4519043-2.5896912.5595322-3.7910767l-5.2912445-7.1235199c-.8923645-1.2013701-2.5896988-1.4518813-3.7910843-.5595016z" fill="#e56353"/><path d="m76.1082916 76.8854141 2.8493042 3.835968c.8923721 1.2013931 2.5896835 1.4518967 3.791069.5595169 1.2013855-.8923721 1.4519043-2.5896912.5595322-3.7910767l-2.8493042-3.835968z" fill="#474c5b"/><path d="m78.5239258 90.4585037c1.2387848-.8396912 1.5623093-2.5246201.7226334-3.7633896l-4.9788437-7.3452682c-.8396835-1.2387848-2.5245972-1.5623169-3.763382-.7226334-1.2387848.8396912-1.5623322 2.5246124-.7226486 3.7633972l4.9788437 7.3452682c.8396759 1.2387696 2.5246124 1.5623094 3.7633972.7226258z" fill="#e56353"/><path d="m76.9487915 83.3052292-2.681076-3.9553833c-.8396835-1.2387848-2.5245972-1.5623169-3.763382-.7226334-1.2387848.8396912-1.5623322 2.5246124-.7226486 3.7633972l2.681076 3.9553833z" fill="#474c5b"/><path d="m58.2975311 87.0091705c-.3830223 1.4467087.4792709 2.9299774 1.9259605 3.3129959l8.5781136 2.2710876c1.446701.3830185 2.9299698-.4792557 3.3129883-1.9259644.3830261-1.446701-.479248-2.9299927-1.9259491-3.3130112l-8.5781136-2.2710876c-1.4466896-.3830184-2.9299774.4792711-3.3129997 1.9259797z" fill="#e56353"/><path d="m64.1823425 91.370285 4.6192627 1.2229691c1.446701.3830185 2.9299698-.4792557 3.3129883-1.9259644.3830261-1.446701-.479248-2.9299927-1.9259491-3.3130112l-4.6192627-1.2229691z" fill="#474c5b"/></svg>