<svg enable-background="new 0 0 140 140" height="512" viewBox="0 0 140 140" width="512" xmlns="http://www.w3.org/2000/svg"><circle cx="70" cy="70" fill="#efc84a" r="64"/><path d="m58.2250328 85.2916718c.0199585.1900024.0599976.3800049.0899658.5700073 1.0700073 6.539978 2.5700073 13.9199829 4.3599854 20.0099487.0800171.2800293.1600342.5500488.2600098.8300171 1.7100182 5.6099854 3.6700401 9.9700317 5.7800255 11.3200073l14.5835571 14.5856934c28.2493896-5.9716187 49.6090775-30.572998 50.6442947-60.3478394l-43.4978714-43.4978618c-.039978-.0499878-.0999756-.0999756-.1400146-.1499634l-1.2299805-1.2200317-.039978.0300293c-1.2000122-1.1300049-3.5100098-2.9000244-7.6700439-2.1000366-.5099487.1000366-.9599609.25-1.3699951.4400024l-3.4099731-3.4099731c-.4199829-.5900269-1-1.1199951-1.7600098-1.5599976-4.75-2.7600098-8.0100098-.4299927-8.9299927-.1099854-3.6400108 1.2699585-3.2800255 5.2699585-2.2499962 8.3599854l-1.710022-1.710022c-.7199707-.9799805-1.7799683-1.7199707-3.2999878-2.0100098-5.3900146-1.0299683-7.6900024 2.2400513-8.460022 2.8500366-3.5799561 2.8499756-.5699463 7.4599628 1.75 9.9500141.960022 1.0299683 1.9900513 2.0799561 2.3800049 3.4199829.3900146 1.3499756-.1399536 3.0800171-1.4799805 3.4899902-1.1599731.3599854-2.3499756-.3800049-3.3499756-1.0800171-1.0800171-.7600098-2.1600342-1.5299683-3.2400513-2.289978-1.2399902-.8800049-2.9599609-1.7600098-4.1599731-.8300171-1.1900024.9200439-.789978 2.7800293-.2800293 4.1900024.4200439 1.1699829.8500366 2.3699951 1.6500244 3.3300171.2000122.2399902.4199829.460022.6600342.6599731l7.0199585 7.0200195c.0400391.1500244.1199951.2999878.2000122.4299927.3499756.5499878.8200073 1.0200195 1.3400269 1.4100342l5.75 5.8399658c-1.1800537 2.010006-1.8800049 4.340023-1.8800049 6.840023 0 2.3699953.6099853 8.0700075 1.6900024 14.7399905z" opacity=".1"/><path d="m54.0679054 29.9546242c1.4417648-.4794598 2.7678719.9176903 3.6498489 2.1548386.7681618 1.0773506 1.5361366 2.1546516 2.3042984 3.2319984.7077789.9927101 1.5884895 2.0837936 2.8068428 2.1306305 1.4006348.0539055 2.4724426-1.4074249 2.5476303-2.8070641.0751877-1.3996429-.5514679-2.7279091-1.1161652-4.0108109-1.3724213-3.1177979-2.6888695-8.4709396 1.6317596-9.9718189.9257355-.3215599 4.1856842-2.6493874 8.9329147.1047573 3.9562912 2.2952709 2.8426208 6.9225883 1.3974609 10.0073433-.5946274 1.2693062-1.2522583 2.5825119-1.2099152 3.983532s1.0795898 2.8870811 2.481102 2.8660393c1.2191162-.0182533 2.1251755-1.0883827 2.8560333-2.0642242.7932205-1.0590363 1.5862503-2.1180305 2.3794632-3.1770706.9107437-1.2161236 2.2692566-2.5817909 3.699379-2.0686531 1.4151154.5077553 1.6113205 2.3965302 1.5620804 3.8991432-.0408249 1.2450218-.0873795 2.5185242-.5430756 3.6778641-.4557037 1.1593857-1.4081268 2.2025146-2.6356506 2.4146118-.3610916.0623512-.7561111.0601807-1.0509567.277729-.4055252.2992516-.4525833.8783455-.6937103 1.3208733-.515976.9468842-1.7958527 1.1107063-2.872757 1.0555305-.3797531-.0194244-.7891998-.0446396-1.1095505.1602859-.3192368.2042427-.4715805.5943413-.5188599.9703751-.1791077 1.4268799 1.0928268 2.8597107 2.5309372 2.850769.4794312-.0029335 1.0805969-.0859985 1.3244324.3267441.1327667.2248383.0875778.5095291.0202637.7618294-.3991241 1.4973488-1.4618683 2.8045921-2.8461914 3.5010376-2.0290604 1.0207367-4.8035736.8918076-6.0866776 2.7659798-.6567383.9593658-.7079926 2.1897545-.8991547 3.3365746-.1912613 1.1468201-.6556778 2.3990059-1.721283 2.864048-.3053818.1333084-.6588211.1295815-.996788.0363426-.340065.0852852-.6934891.0807228-.9956665-.0597115-1.0544052-.4898987-1.4893265-1.752636-1.6536407-2.9036217-.1642151-1.1509857-.1866074-2.3822403-.8206635-3.3567429-1.2388-1.9037476-4.0155754-1.83992-6.0201378-2.9079628-1.3676109-.728714-2.3994102-2.060524-2.7633095-3.5668182-.0613785-.2538109-.0998764-.5394783.0381279-.7611465.2534447-.4069061.8525009-.3097687 1.3317299-.2955933 1.4375.0426636 2.742691-1.3599434 2.5970993-2.7906303-.0384521-.377037-.1816063-.7706032-.4959641-.9822769-.315464-.2123833-.7253876-.1967773-1.1054916-.1862602-1.0778999.0299034-2.3535805-.163887-2.8472137-1.1226082-.2306747-.4480667-.2641411-1.0281029-.6625443-1.3367805-.2896538-.2244034-.6846199-.2314987-1.0441513-.3022995-1.2222137-.2408257-2.1499138-1.3060036-2.5783005-2.4757576-.4283867-1.1697083-.4450607-2.4439507-.4566803-3.6895866-.0139881-1.5033533.2264561-3.3870088 1.6530956-3.8614389z" fill="#31978c"/><path d="m97.9243317 40.8324471c-1.2024689-.9287796-2.9156418-.0480766-4.1567535.8283081-1.0809097.7631454-2.1616211 1.5263062-3.2425308 2.2894554-.9959564.7032051-2.1876297 1.4421387-3.3530731 1.0839119-1.3398209-.4117661-1.868782-2.1451035-1.4774323-3.4910202.3913498-1.3459206 1.4215775-2.392643 2.378334-3.4170113 2.3252335-2.4894753 5.3359985-7.1073208 1.7536316-9.9511108-.7675629-.6092911-3.0756302-3.8832626-8.4661331-2.8517647-4.4923859.8596382-4.9696808 5.595089-4.6245575 8.9840546.141983 1.394474.3289337 2.8511963-.1738052 4.1595955-.502739 1.3083954-1.9726257 2.3684349-3.2885284 1.8856392-1.1446609-.4199181-1.6463852-1.7292633-2.0138931-2.8917427-.39888-1.2616043-.7975998-2.5231056-1.1964874-3.7847137-.4579239-1.4486961-1.2890854-3.1864395-2.8084335-3.1744881-1.5034103.0118256-2.3124924 1.7297783-2.7623444 3.1643181-.3727112 1.1886253-.7494202 2.4060249-.70224 3.6508179.0471649 1.2448349.6015701 2.5440102 1.6901474 3.1496696.3202286.1781235.6937943.3065567.9002228.6092834.2839279.4164047.1370621.9785385.2184753 1.4758759.1742554 1.0641708 1.3281784 1.641552 2.3628616 1.9451866.3648605.1071014.7596512.2185478.994339.5177917.2338486.2982254.2487869.7167473.1692123 1.0872955-.302269 1.4059525-1.9760895 2.3382225-3.3305283 1.8547592-.4515533-.161129-.991539-.4381027-1.358017-.1290703-.199585.1683693-.2509689.4520035-.2707748.7123756-.1178665 1.5451393.4534302 3.1300507 1.530014 4.2446632 1.5780106 1.633667 4.2393875 2.4284286 4.8314056 4.6212273.3029938 1.122448-.0550461 2.3007088-.253418 3.4463043-.1982803 1.1456223-.1735458 2.4809303.6786499 3.2718506.2442017.2266998.5790329.3399277.928833.3635559.2928085.1928253.6278992.3052597.9594955.2725143 1.1570511-.1141129 1.9846573-1.1623154 2.519928-2.1944275.5351868-1.0321426.9630127-2.1868935 1.8833771-2.8972626 1.7980881-1.3877068 4.397934-.4102592 6.6427689-.7562256 1.5315552-.2360764 2.9453506-1.152317 3.7863693-2.4538689.1417694-.2192917.2724686-.4762115.2154312-.7310181-.1048126-.4677849-.7023315-.5739746-1.1593475-.7188873-1.3709106-.4345551-2.1395416-2.1895561-1.5295486-3.491848.1608276-.3431778.4259491-.667366.7925797-.7633247.3679123-.0962601.7496719.0538712 1.1049652.1893501 1.0075226.3842697 2.2756119.6227264 3.0582199-.119133.3657303-.3467178.5889053-.8831482 1.0669098-1.0429001.3475189-.1161308.7226562.0076332 1.0853958.0595589 1.2331619.176403 2.4606323-.5225563 3.251358-1.4851532.7907104-.9625549 1.2273483-2.159771 1.6497574-3.3316536.5097809-1.4143522.9050216-3.2717054-.2848358-4.1907384z" fill="#3ea69b"/><path d="m42.0756683 40.8324471c1.2024689-.9287796 2.915638-.0480766 4.1567535.8283081 1.0809097.7631454 2.1616249 1.5263062 3.2425308 2.2894554.9959564.7032051 2.1876335 1.4421387 3.3530731 1.0839119 1.3398247-.4117661 1.8687782-2.1451035 1.4774284-3.4910202-.3913498-1.3459206-1.4215736-2.392643-2.3783264-3.4170113-2.3252373-2.4894753-5.3359985-7.1073208-1.7536354-9.9511108.7675629-.6092911 3.0756302-3.8832626 8.4661331-2.8517647 4.492382.8596382 4.969677 5.595089 4.6245613 8.9840546-.141983 1.394474-.3289375 2.8511963.1738014 4.1595955.502739 1.3083954 1.9726257 2.3684349 3.2885284 1.8856392 1.1446609-.4199181 1.6463852-1.7292633 2.0138931-2.8917427.39888-1.2616043.7975998-2.5231056 1.1964874-3.7847137.4579239-1.4486961 1.2890854-3.1864395 2.8084335-3.1744881 1.5034103.0118256 2.3124924 1.7297783 2.7623444 3.1643181.3727112 1.1886253.7494202 2.4060249.70224 3.6508179-.0471649 1.2448349-.6015701 2.5440102-1.6901474 3.1496696-.3202286.1781235-.6937943.3065567-.9002228.6092834-.2839279.4164047-.1370621.9785385-.2184753 1.4758759-.1742554 1.0641708-1.3281784 1.641552-2.3628616 1.9451866-.3648605.1071014-.7596512.2185478-.994339.5177917-.2338486.2982254-.2487869.7167473-.1692123 1.0872955.302269 1.4059525 1.9760895 2.3382225 3.3305283 1.8547592.4515533-.161129.991539-.4381027 1.358017-.1290703.199585.1683693.2509689.4520035.2707748.7123756.1178665 1.5451393-.4534302 3.1300507-1.530014 4.2446632-1.5780106 1.633667-4.2393875 2.4284286-4.8314056 4.6212273-.3029938 1.122448.0550461 2.3007088.253418 3.4463043.1982803 1.1456223.1735458 2.4809303-.6786499 3.2718506-.2442017.2266998-.5790329.3399277-.928833.3635559-.2928085.1928253-.6278992.3052597-.9594955.2725143-1.1570511-.1141129-1.9846573-1.1623154-2.5199318-2.1944275-.535183-1.0321426-.9630127-2.1868935-1.8833694-2.8972626-1.7980957-1.3877068-4.3979378-.4102592-6.6427727-.7562256-1.5315552-.2360764-2.9453506-1.152317-3.7863693-2.4538689-.1417694-.2192917-.2724686-.4762115-.2154312-.7310181.1048126-.4677849.7023354-.5739746 1.1593475-.7188873 1.3709068-.4345551 2.1395454-2.1895561 1.5295525-3.491848-.1608353-.3431778-.4259529-.667366-.7925835-.7633247-.3679085-.0962601-.7496719.0538712-1.104969.1893501-1.0075188.3842697-2.2756119.6227264-3.0582123-.119133-.3657303-.3467178-.588913-.8831482-1.0669098-1.0429001-.3475227-.1161308-.7226639.0076332-1.0853996.0595589-1.2331619.176403-2.4606323-.5225563-3.251358-1.4851532-.7907066-.9625549-1.2273445-2.159771-1.6497574-3.3316536-.5097771-1.4143522-.9050217-3.2717054.2848357-4.1907384z" fill="#44c4a1"/><path d="m83.6052475 70.5468063c0 1.4093094-.2133179 3.9764786-.6094589 7.2216415-.0913162.7312698-.1904373 1.5006638-.2970047 2.2929382-.5713272 4.227829-1.4017334 9.278389-2.4300079 14.298439-.1067581.5332565-.2133255 1.058876-.3276062 1.5921249-2.4757614 11.5637054-5.9798965 22.5179977-9.8726349 22.5179977-2.6204529 0-5.065712-4.9820175-7.1377144-11.7693939-.0915031-.2742233-.1751938-.5484543-.2514458-.8303528-1.7977715-6.0865555-3.2985344-13.468132-4.3649406-20.0041122-.0304985-.1904373-.0686264-.3808823-.0914078-.5713272-1.0817528-6.6731339-1.6912079-12.3712234-1.6912079-14.7479553 0-7.4729843 6.0637741-13.5366631 13.5367165-13.5366631 7.4806594.0000002 13.5367126 6.0636789 13.5367126 13.5366632z" fill="#e56353"/><g fill="#d15241"><path d="m82.9957886 77.7684479c-.0913162.7312698-.1904373 1.5006638-.2970047 2.2929382-3.2527847-.1599884-6.5055695-.3199768-9.765976-.4799194 2.8186111-1.0284195 5.7895432-1.6149521 8.7756348-1.7368622.4266357-.0152512.8532715-.0533295 1.2873459-.0761566z"/><path d="m70 86.1250687c-3.8926468.0152512-7.7929192-.0685349-11.6855659-.2589798-.0304985-.1904373-.0686264-.3808823-.0914078-.5713272.0837822-.0228729.1751938-.0533295.258976-.0914078.342762-.1447372.6475792-.3885117 1.0055923-.5028 1.0283737-.3351746 2.2014389.4265976 3.2070312.0228806.1218185-.0457077.2438202-.1142883.3808861-.1219101.1599426-.0076294.3046341.083786.4418907.1599884 1.9424592 1.0893325 4.2581864 1.2340698 6.4825974 1.3635559z"/><path d="m80.2687759 94.3598251c-.1067581.5332565-.2133255 1.058876-.3276062 1.5921249-3.389946-.0837784-6.7874222-.1599884-10.1848984-.236145-.7693939-.0228729-1.6911087-.1295319-2.0263367-.8227234.9978714 0 1.995842.0076218 2.9861832.0076218.3656311 0 .7388916 0 1.0587769-.1676102.2743225-.1447449.4723892-.3808899.7237396-.5560837.312355-.2132721.6856155-.3047256 1.0512543-.3961334 1.1274033-.2818527 2.2929382-.5637054 3.443222-.403717.3885117.0533295.7694016.1523666 1.1502838.2666016.7160264.2056961 1.4244233.4494629 2.1253815.7160644z"/><path d="m73.3975677 106.6853027-9.7126007.0228729c-.251442 0-.5027962 0-.7541466-.0076218-.0915031-.2742233-.1751938-.5484543-.2514458-.8303528.3961372.0152512.7922745 0 1.1807861-.007576 1.7521133-.0305023 3.4965134.1599426 5.2409058.3580093 1.4322282.1523592 2.8642732.3123552 4.2965012.4646684z"/></g></svg>