<svg enable-background="new 0 0 140 140" height="512" viewBox="0 0 140 140" width="512" xmlns="http://www.w3.org/2000/svg"><circle cx="70" cy="70" fill="#334d5c" r="64"/><path d="m45.0635529 100.0983582c.0500488.0499878.1000366.0999756.1500244.1499634l33.1854858 33.1854858c27.3679199-3.5900879 49.284668-24.4575806 54.4376221-51.3023071l-40.3331299-40.3331948c-3.5299683-3.6099854-7.1300049-7.2399902-9.4699707-9.4699707h-34.9299927c-2.3200073 0-4.2000122 1.8800049-4.2000122 4.2000122v60.6900063c0 1.0999756.4299927 2.0899658 1.1300049 2.8299561l-.0100098.0100098z" opacity=".1"/><path d="m83.0346375 32.3273849h-34.9335633c-2.317646 0-4.1964798 1.87883-4.1964798 4.1964073v60.6895866c0 2.3176422 1.8788338 4.1964035 4.1964798 4.1964035h47.3440704c2.3176498 0 4.1964035-1.8787613 4.1964035-4.1964035v-48.0527953c-4.6716079-4.8479729-12.533493-12.9507523-16.6069106-16.8331986z" fill="#ebf0f3"/><path d="m83.0346375 32.3273849v12.6367874c0 2.3175774 1.8787613 4.1964111 4.1964111 4.1964111h12.4104996c-4.0734101-3.8824462-11.9352951-11.9852256-16.6069107-16.8331985z" fill="#d5d6db"/><path d="m59.6417542 53.4100571h-7.1152649c-.7001991 0-1.2678833.5676842-1.2678833 1.2678833v7.1152649c0 .7002716.5676842 1.2679558 1.2678833 1.2679558h7.1152649c.7002716 0 1.2678833-.5676842 1.2678833-1.2679558v-7.1152649c0-.7001992-.5676117-1.2678833-1.2678833-1.2678833z" fill="#44c4a1"/><path d="m59.6417542 67.9117203h-7.1152649c-.7001991 0-1.2678833.5676804-1.2678833 1.2678833v7.1152649c0 .7002716.5676842 1.267952 1.2678833 1.267952h7.1152649c.7002716 0 1.2678833-.5676804 1.2678833-1.267952v-7.1152649c0-.700203-.5676117-1.2678833-1.2678833-1.2678833z" fill="#e56353"/><path d="m59.6417542 82.4133835h-7.1152649c-.7001991 0-1.2678833.567688-1.2678833 1.2678833v7.1152649c0 .7002716.5676842 1.2679596 1.2678833 1.2679596h7.1152649c.7002716 0 1.2678833-.567688 1.2678833-1.2679596v-7.1152649c0-.7001953-.5676117-1.2678833-1.2678833-1.2678833z" fill="#27a2db"/><g fill="#d5d6db"><path d="m64.321968 54.750595h10.743408v2.360988h-10.743408z"/><path d="m77.432144 54.750595h5.132582v2.360988h-5.132582z"/><path d="m84.668282 54.750595h8.094215v2.360988h-8.094215z"/><path d="m64.321968 59.359634h6.824276v2.360988h-6.824276z"/><path d="m73.865395 59.359634h8.699336v2.360988h-8.699336z"/><path d="m64.321968 69.252258h10.743408v2.360988h-10.743408z"/><path d="m77.432144 69.252258h5.132582v2.360988h-5.132582z"/><path d="m84.668282 69.252258h8.094215v2.360988h-8.094215z"/><path d="m64.321968 73.861298h6.824276v2.360988h-6.824276z"/><path d="m73.865395 73.861298h8.699336v2.360988h-8.699336z"/><path d="m64.321968 83.753922h10.743408v2.360988h-10.743408z"/><path d="m77.432144 83.753922h5.132582v2.360988h-5.132582z"/><path d="m84.668282 83.753922h8.094215v2.360988h-8.094215z"/><path d="m64.321968 88.362961h6.824276v2.360988h-6.824276z"/><path d="m73.865395 88.362961h8.699336v2.360988h-8.699336z"/></g><g fill="#fff"><path d="m55.7393761 60.5736122-2.1999588-2.199955.8297844-.8297844 1.3701744 1.3701744 2.6010933-2.6010971.8297844.8297844z"/><path d="m55.7393761 74.8676071-2.1999588-2.1999588.8297844-.8297882 1.3701744 1.3701782 2.6010933-2.6010971.8297844.8297806z"/></g></svg>