<svg enable-background="new 0 0 140 140" height="512" viewBox="0 0 140 140" width="512" xmlns="http://www.w3.org/2000/svg"><circle cx="70" cy="70" fill="#efc84a" r="64"/><path d="m133.9842224 70.6230316-26.2113571-26.2113609c-.5499878-.6900024-1.2799683-1.0900269-2.039978-1.210022-.7700195-.1300049-1.4400024-.6799927-1.7300415-1.4000244-.2799683-.7199707-.8200073-1.3499756-1.6099854-1.7399902-1.0999756-.5599976-2.4799805-.4299927-3.460022.3300171-.1099854.0900269-.2199707.1799927-.3099976.2800293l-4.3199463-4.3099976c-.0200195-.0300293-.0400391-.0500488-.0599976-.0700073-.5700073-.6600342-1.3200073-1.0300293-2.0800171-1.1400146-.7800293-.1000366-1.4700317-.6099854-1.7800293-1.3300171-.3099976-.7000122-.8699951-1.3099976-1.6699829-1.6799927-1.1199951-.5200214-2.5-.3400288-3.4500122.460022-1.0499878.8800049-1.3900146 2.1799927-1.1099854 3.3299561.3400269 1.4000244.0900269 2.8699951-.6300049 4.1000366l-.1400146-.1099854c-.2999878-.2300415-.7399902-.1700439-.9699707.1399536-2.9700317 3.960022-7.2300415 6.6600342-11.9700317 8.0599976-.8200073.2400513-1.6300049.5599976-2.4199829.960022-10.6400185 1.5100098-19.4400063 7.2000122-23.6400185 14.8599854-12.3599852 2.9399985-20.5100077 7.9399985-20.5100077 13.6199911 0 1.7399902.7700195 3.4200439 2.1900024 4.9899902h-.0199585l.3399658.3400269c.1400146.1400146.2800293.289978.4400024.4400024l50.2683105 50.2683105c31.8045675-3.5075072 56.5800115-30.3117064 56.8930608-62.9769286z" opacity=".1"/><ellipse cx="70" cy="77.562" fill="#e1e6e9" rx="46.126" ry="16.38"/><ellipse cx="70" cy="77.562" fill="#d5d6db" rx="39.932" ry="11.564"/><path d="m94.7700424 39.7281342c.4993744-1.1322441.287323-2.5024033-.5240707-3.4365578-.5765228-.6636848-1.3206406-1.0345001-2.0854111-1.1351509-.7735214-.1018448-1.4627151-.619278-1.7772675-1.3332787-.3104782-.7051048-.8740692-1.3149948-1.6714172-1.6827888-1.1238937-.5183887-2.4989624-.3387585-3.4466705.4573746-1.0539932.8854752-1.3972168 2.1815147-1.114563 3.3386726.3926468 1.6077347.0079193 3.3062973-.9850998 4.6303215l-1.2944717 1.7259827 4.5428085 3.4070854 1.2944794-1.7259827c.9932404-1.3243332 2.5166855-2.1683884 4.1704407-2.2421494 1.18898-.0531044 2.3362884-.7449951 2.8912429-2.0035285z" fill="#e1e6e9"/><path d="m84.0270767 58.3125458c.0140991-4.9474068 1.4130096-9.7906456 4.3814774-13.7486343.2314072-.3085442.168869-.7462883-.1396332-.9776649l-4.8814087-3.661026c-.3085861-.2314415-.7463303-.1689034-.9777374.1396408l-.0000305.0000458c-2.9684753 3.9579887-7.2261429 6.6571045-11.971817 8.0559196-3.1068192.9158401-6.1462936 2.9925346-8.4479752 6.0614624-4.8241272 6.4322205-4.5747375 14.7666321.5569839 18.6153946 5.1316376 3.8487015 13.2024841 1.7544174 18.0266113-4.677803 2.3016816-3.0689317 3.4443131-6.5682489 3.4535294-9.807335z" fill="#f0a67a"/><path d="m73.6684113 48.6862106c-15.4911842 0-28.4014702 8.7652702-31.3102722 20.39254l-.0026016.0003662s-5.6399345 6.7389145-5.6399345 10.3497467c0 3.6107635 13.0033112 3.5789108 13.0033112 3.5789108l.000145-.0028839c.4087944.0549622.8223572.0931702 1.244297.0931702h45.4101105c4.9888916 0 9.1986237-3.9643784 9.222023-8.9532776 0-.0318527.000145-.0637741.000145-.0956268-.0000002-14.0075302-14.294266-25.3629456-31.9272234-25.3629456z" fill="#e69871"/><path d="m108.174469 47.8606606c.5402985-1.1132965.3783188-2.4902725-.3984985-3.453373-.5519485-.6842537-1.2820587-1.0819359-2.0426559-1.2103882-.7693024-.1299629-1.4391785-.6721687-1.7275009-1.3971558-.284584-.7159538-.8255768-1.345974-1.6089859-1.7425766-1.1042633-.5590019-2.4849625-.4295959-3.4610519.3314705-1.0855637.8464813-1.4757843 2.1291504-1.2354813 3.2958412.3337936 1.6209755-.1125717 3.30439-1.1531754 4.5913506l-1.356514 1.6776657 4.4156418 3.5703583 1.356514-1.6776657c1.0408401-1.2872581 2.5940247-2.0752373 4.2493744-2.0886879 1.1901244-.0097389 2.361885-.6593628 2.9623336-1.8968391z" fill="#e1e6e9"/><path d="m96.7614288 66.0412598c.1943665-4.9436111 1.768837-9.7326546 4.8795624-13.5798454.2424927-.2999077.1959534-.7396431-.1039124-.9821053l-4.7447586-3.8364716c-.2999496-.2425308-.7396851-.1959877-.9821854.10392l-.0000305.000042c-3.1107254 3.8471909-7.4639282 6.3893623-12.2574234 7.6143188-3.1381226.8020172-6.2512589 2.7665749-8.6632385 5.7495918-5.0553131 6.2521591-5.1097946 14.590126-.1217346 18.6233292 4.9879837 4.0331345 13.1297913 2.2343445 18.1851044-4.0178146 2.4119797-2.9830094 3.681366-6.4383698 3.8086166-9.6749649z" fill="#f0a67a"/><circle cx="46.48" cy="78.765" fill="#44c4a1" r="7.176"/><circle cx="46.48" cy="78.765" fill="#ebf0f3" r="5.941"/><g fill="#d5d6db"><path d="m46.9738808 74.9337845c0 .2729187-.2212372 1.0303802-.4941521 1.0303802-.2729111 0-.4941521-.7574615-.4941521-1.0303802 0-.2729111.221241-.4941483.4941521-.4941483.2729149 0 .4941521.2212372.4941521.4941483z"/><path d="m45.9855766 82.596077c0-.2729187.221241-1.0303802.4941521-1.0303802.2729149 0 .4941521.7574615.4941521 1.0303802 0 .2729111-.2212372.4941483-.4941521.4941483-.2729111-.0000001-.4941521-.2212373-.4941521-.4941483z"/><path d="m50.3108711 79.2590866c-.2729111 0-1.0303726-.2212448-1.0303726-.4941559s.7574615-.4941483 1.0303726-.4941483c.2729149 0 .4941521.2212372.4941521.4941483s-.2212372.4941559-.4941521.4941559z"/><path d="m42.6485863 78.2707825c.2729111 0 1.0303726.2212372 1.0303726.4941483s-.7574615.4941559-1.0303726.4941559c-.2729149 0-.4941521-.2212448-.4941521-.4941559s.2212372-.4941483.4941521-.4941483z"/><path d="m49.5381737 76.4053192c-.1929779.1929779-.885025.5721512-1.0780029.3791656-.1929779-.1929779.1861877-.8850174.3791656-1.0780029.1929817-.1929779.5058594-.1929779.6988373 0 .1929817.1929856.1929817.5058594 0 .6988373z"/><path d="m43.4212837 81.1245422c.1929779-.1929779.885025-.5721436 1.0780029-.3791656s-.1861877.885025-.3791656 1.0780029-.5058594.1929779-.6988373 0-.1929779-.5058594 0-.6988373z"/><path d="m48.8393364 81.8233795c-.1929779-.1929779-.5721436-.885025-.3791656-1.0780029s.885025.1861877 1.0780029.3791656c.1929817.1929779.1929817.5058594 0 .6988373-.1929779.1929779-.5058556.1929779-.6988373 0z"/><path d="m44.120121 75.7064819c.1929779.1929855.5721436.885025.3791656 1.0780029-.1929779.1929855-.885025-.1861877-1.0780029-.3791656s-.1929779-.5058517 0-.6988373c.1929779-.1929779.5058594-.1929779.6988373 0z"/><path d="m46.7020721 77.0410995c0 .1228027-.0995445.463623-.2223434.463623s-.2223434-.3408203-.2223434-.463623c0-.1227951.0995445-.2223434.2223434-.2223434s.2223434.0995483.2223434.2223434z"/><path d="m46.2573853 80.4887619c0-.1228027.0995445-.463623.2223434-.463623s.2223434.3408203.2223434.463623c0 .1227951-.0995445.2223434-.2223434.2223434s-.2223434-.0995483-.2223434-.2223434z"/><path d="m48.2035561 78.9872742c-.1227951 0-.4636192-.0995483-.4636192-.2223434s.3408241-.2223434.4636192-.2223434c.1227989 0 .2223473.0995483.2223473.2223434s-.0995484.2223434-.2223473.2223434z"/><path d="m44.7559013 78.5425873c.1227989 0 .4636192.0995483.4636192.2223434s-.3408203.2223434-.4636192.2223434-.2223434-.0995483-.2223434-.2223434.0995445-.2223434.2223434-.2223434z"/><path d="m47.8558807 77.7032242c-.0868301.0868301-.3982162.2574387-.4850502.1706009-.0868301-.0868301.0837784-.3982162.1706085-.4850464s.2276115-.0868301.3144417 0 .0868302.2276153 0 .3144455z"/><path d="m45.1035767 79.8266373c.0868301-.0868301.3982201-.257431.4850502-.1706009s-.0837746.3982162-.1706085.4850464c-.0868301.0868301-.2276115.0868301-.3144417 0s-.0868302-.2276078 0-.3144455z"/><path d="m47.5414391 80.1410828c-.0868301-.0868301-.2574387-.3982162-.1706085-.4850464.086834-.0868301.3982201.0837708.4850502.1706009.0868301.0868378.0868301.2276154 0 .3144455s-.2276116.0868301-.3144417 0z"/><path d="m45.4180183 77.3887787c.086834.0868301.2574387.3982162.1706085.4850464-.0868301.0868378-.3982201-.0837708-.4850502-.1706009s-.0868301-.2276154 0-.3144455.2276116-.0868302.3144417 0z"/></g><path d="m54.0614281 73.6236572c-3.9142952 0-7.0875473 3.1731491-7.0875473 7.0874481 0 3.9142456 3.1732521 7.0874481 7.0875473 7.0874481 3.914196 0 7.0873451-3.1732025 7.0873451-7.0874481 0-3.914299-3.1731491-7.0874481-7.0873451-7.0874481z" fill="#d15241"/><path d="m55.2218246 75.7270813c.3883324-.239975.8765068.0584564 1.2321129.344696.2560577.2061081.5121155.4122162.7681732.6183243.1761398.141777.3524628.2837143.5177422.4380188.2018585.1884537.3863602.394516.5705566.6002655.3628578.4053192.7386398.8348541.8606567 1.3650055.0935287.4063721-.0678329.9429398-.4807777 1.0009232-.3949661.0554581-.6857529-.3499298-1.0461006-.5208817-.2394791-.1136093-.5139122-.1215363-.7789726-.1206589-.7493248.0024948-2.6589355.4866409-2.2457695-.8031616.171608-.5357285.311039-.9520569.2950935-1.5286331-.0122337-.4422989-.1472778-1.112999.3072853-1.393898z" fill="#e56353"/><path d="m53.974247 79.7918625c-.0019188-.0407639-.0042381-.0829926-.0230064-.1192169-.0228043-.0437927-.0660934-.072403-.107563-.0990906-.1772919-.1138229-.3545799-.2276917-.5317688-.3415146-.176178-.4606247-.2625542-.9555664-.2392464-1.4482803.0157433-.3322296.0763855-.6751556-.0295639-.9904327-.1545868-.460022-.6532555-.7487106-1.138607-.750679-.4852524-.0019684-.9460831.2399521-1.303791.5679398s-.627327.7386246-.8929062 1.1448135c-.1053467.1612473-.2106895.3225403-.3160324.4838409-.2925224.4480133-.5917053.914299-.6726341 1.4431915-.030674.2004471-.0288582.4043198-.0268402.6071396.0014153.15065.0070648.3138123.1011086.4315186.0689163.0863266.1745644.1334457.27668.1755753.4262199.175827.8955307.321228 1.3428383.2094269.2270393-.0567551.4322777-.176384.6469002-.2696152.5845413-.2539749 1.2531357-.3099823 1.871685-.1567535.166996.0413208.3323784.0976715.5042191.1041336.1718407.0064545.3573036-.0467758.460125-.1846619.1050415-.1407623.1012077-.3319244.0927315-.5073471-.004742-.0999986-.0094837-.1999894-.0143283-.2999879zm-.5640564-.3129044c-.0377388-.0800171-.0663948-.1637726-.0980797-.2463608l.3056412.3486786c-.0562058.0747147-.1677056-.0177612-.2075615-.1023178z" fill="#e56353"/><path d="m53.4749718 84.1765289c-.0453072-.2601852-.0429878-.5260239-.0406647-.7900848.0040359-.442421.0080719-.8848343.0121078-1.3272018.0005035-.0502014.0000992-.1034775-.0265388-.1459579-.0899048-.1431885-.3199692-.0121078-.4792976-.0684662l.3953438-.0316315c-.7745438-.0101929-1.5450516.109581-2.3040581.2638626-.5880699.1195755-1.1930962.2605362-1.7817726.1433334-.0696259-.0138702-.1442947-.0309219-.2096825-.0032272-.0977745.0413742-.1317787.1634674-.1321831.2696228-.0014153.4190063.3131065.7635422.6076469 1.061615.5450859.5516434 1.0903778 1.1033401 1.6354637 1.6550369.1469193.1485825.2954483.2986298.4726372.4094772.4429741.2773819.9992599.2752151 1.5218468.264267.1214867-.0025253.250042-.0071182.3519554-.0730591.1272392-.0821838.1826363-.2411118.1983795-.3917084.0436898-.4184494-.1489372-.8214645-.2211837-1.235878z" fill="#e56353"/><path d="m59.0622673 81.3599243c-.0262375-.0817337-.069828-.1653824-.1473198-.2023697-.0512619-.0244675-.1101913-.0249176-.167099-.0249176-.4570999-.0001526-.9143982-.0002594-1.3714981-.0003586-.0996933-.0000458-.2023125.0005569-.2940369.0391541-.0900078.0378876-.1629601.1097794-.2542801.1445465-.2933273.1116486-.5624428-.1884918-.8364983-.3415146-.1757774-.0981293-.3770828-.1379395-.5746536-.1763306-.1500435-.0291595-.3046303-.0583725-.4544754-.0279465-.2711296.0550385-.4717293.2998352-.5548744.563652-.083046.2638626-.0700264.5470505-.0563049.8233337l-.0416718-.4693604c-.0192757.8706512.0759811 1.7438354.2826309 2.5898209.088192.3609314.2628593.7791367.6294441.8392715.2292557.03759.4511452-.0850601.6512413-.2031708.3826294-.2260284.765461-.4521027 1.1480942-.6781311.1081696-.0638199.2187614-.1287003.3417625-.154129.1223984-.0253754 1.1037216-.3220978 1.3673592-1.0696411.1903344-.5396879.5075532-1.1071241.3321801-1.6519087z" fill="#e56353"/><circle cx="62.258" cy="81.566" fill="#44c4a1" r="7.176"/><circle cx="62.258" cy="81.566" fill="#ebf0f3" r="5.941"/><g fill="#d5d6db"><path d="m62.7521057 77.7345505c0 .2729187-.221241 1.0303802-.4941521 1.0303802-.2729149 0-.4941521-.7574615-.4941521-1.0303802 0-.2729111.2212372-.4941483.4941521-.4941483.2729111 0 .4941521.2212372.4941521.4941483z"/><path d="m61.7638016 85.396843c0-.2729187.2212372-1.0303802.4941521-1.0303802.2729111 0 .4941521.7574615.4941521 1.0303802 0 .2729111-.221241.4941483-.4941521.4941483-.2729149-.0000001-.4941521-.2212373-.4941521-.4941483z"/><path d="m66.0890961 82.0598526c-.2729111 0-1.0303726-.2212448-1.0303726-.4941559s.7574615-.4941559 1.0303726-.4941559.4941559.2212448.4941559.4941559-.2212449.4941559-.4941559.4941559z"/><path d="m58.4268112 81.0715408c.2729111 0 1.0303726.2212448 1.0303726.4941559s-.7574615.4941559-1.0303726.4941559c-.2729149 0-.4941559-.2212448-.4941559-.4941559s.221241-.4941559.4941559-.4941559z"/><path d="m65.3163986 79.2060852c-.1929779.1929779-.885025.5721436-1.0780029.3791656s.1861877-.885025.3791656-1.0780029.5058594-.1929779.6988373 0 .1929779.5058594 0 .6988373z"/><path d="m59.1995087 83.9253082c.1929779-.1929779.885025-.5721512 1.0780029-.3791656.1929779.1929779-.1861877.885025-.3791656 1.0780029-.1929817.1929779-.5058594.1929779-.6988373 0-.1929818-.1929779-.1929818-.5058594 0-.6988373z"/><path d="m64.6175613 84.6241455c-.1929779-.1929779-.5721436-.885025-.3791656-1.0780029.1929779-.1929855.885025.1861877 1.0780029.3791656s.1929779.5058594 0 .6988373-.5058594.1929779-.6988373 0z"/><path d="m59.8983459 78.5072479c.1929779.1929779.5721436.885025.3791656 1.0780029s-.885025-.1861877-1.0780029-.3791656c-.1929817-.1929779-.1929817-.5058594 0-.6988373.192978-.1929779.5058556-.1929779.6988373 0z"/><path d="m62.4802971 79.8418655c0 .1228027-.0995445.463623-.2223434.463623s-.2223434-.3408203-.2223434-.463623c0-.1227951.0995445-.2223434.2223434-.2223434s.2223434.0995483.2223434.2223434z"/><path d="m62.0356102 83.2895279c0-.1228027.0995445-.463623.2223434-.463623s.2223434.3408203.2223434.463623c0 .1227951-.0995445.2223434-.2223434.2223434s-.2223434-.0995483-.2223434-.2223434z"/><path d="m63.981781 81.7880402c-.1227989 0-.4636192-.0995483-.4636192-.2223434s.3408203-.2223434.4636192-.2223434c.1227951 0 .2223434.0995483.2223434.2223434s-.0995483.2223434-.2223434.2223434z"/><path d="m60.5341263 81.3433533c.1227951 0 .4636154.0995483.4636154.2223434s-.3408203.2223434-.4636154.2223434c-.1227989 0-.2223473-.0995483-.2223473-.2223434s.0995484-.2223434.2223473-.2223434z"/><path d="m63.6341057 80.5039902c-.0868301.0868301-.3982201.257431-.4850502.1706009s.0837746-.3982162.1706085-.4850464c.0868301-.0868301.2276115-.0868301.3144417 0s.0868301.2276153 0 .3144455z"/><path d="m60.8818016 82.6274033c.0868301-.0868301.3982162-.2574387.4850502-.1706009.0868301.0868301-.0837784.3982162-.1706085.4850464s-.2276115.0868301-.3144417 0-.0868301-.2276154 0-.3144455z"/><path d="m63.319664 82.9418488c-.086834-.0868301-.2574387-.3982162-.1706085-.4850464.0868301-.0868378.3982201.0837708.4850502.1706009s.0868301.2276154 0 .3144455-.2276116.0868301-.3144417 0z"/><path d="m61.1962433 80.1895447c.0868301.0868301.2574387.3982162.1706085.4850464-.086834.0868301-.3982201-.0837708-.4850502-.1706009s-.0868301-.2276154 0-.3144455.2276115-.0868302.3144417 0z"/></g><path d="m69.4345169 74.700592c-3.914299 0-7.0875511 3.1731567-7.0875511 7.0874481 0 3.9142456 3.1732521 7.0874481 7.0875511 7.0874481 3.9141922 0 7.0873413-3.1732025 7.0873413-7.0874481 0-3.9142913-3.1731491-7.0874481-7.0873413-7.0874481z" fill="#d15241"/><path d="m70.5949097 76.8040161c.3883362-.2399673.8765106.0584641 1.2321167.344696.2560577.2061081.5121078.4122162.7681656.6183243.1761398.141777.3524628.2837219.517746.4380188.2018585.1884537.3863602.394516.5705566.6002655.362854.4053192.7386398.8348541.8606567 1.3650055.0935287.4063721-.0678329.9429398-.4807816 1.0009232-.3949661.0554581-.6857529-.3499298-1.0460968-.5208817-.2394791-.1136093-.513916-.1215363-.7789764-.1206512-.749321.0024872-2.6589279.4866409-2.2457657-.8031693.171608-.5357285.3110352-.9520493.2950897-1.5286331-.0122299-.4422912-.1472778-1.1129989.3072892-1.393898z" fill="#e56353"/><path d="m69.3473358 80.8687973c-.0019226-.0407639-.0042419-.0829926-.0230103-.1192169-.0228043-.0437927-.0660934-.072403-.1075668-.0990906-.1772842-.1138153-.3545761-.2276917-.5317688-.341507-.176178-.4606323-.2625504-.955574-.2392426-1.448288.0157394-.3322296.0763855-.6751556-.0295639-.9904327-.1545868-.460022-.6532593-.7487106-1.1386108-.750679-.4852524-.0019684-.9460831.2399521-1.3037872.5679398-.3577042.3279953-.627327.7386246-.8929062 1.1448135-.1053467.1612473-.2106857.3225479-.3160324.4838409-.2925262.4480209-.5917053.914299-.6726303 1.4431915-.0306778.2004471-.028862.4043274-.0268402.6071396.0014114.1506577.0070572.3138199.1011047.4315186.0689163.0863266.1745682.1334534.27668.1755753.4262238.175827.8955307.3212357 1.3428421.2094269.2270355-.0567551.4322739-.1763763.6468964-.2696152.5845413-.2539749 1.2531357-.3099747 1.8716812-.1567535.1669998.0413208.3323822.0976715.5042267.1041336.1718369.0064545.3572998-.0467682.4601212-.1846542.1050415-.1407623.1012115-.3319244.0927353-.5073547-.0047456-.0999909-.009491-.1999894-.0143281-.2999879zm-.564064-.3129044c-.037735-.0800171-.066391-.163765-.0980759-.2463608l.3056412.3486786c-.0562058.0747223-.1677017-.0177612-.2075653-.1023178z" fill="#e56353"/><path d="m68.848053 85.2534637c-.0453033-.2601852-.042984-.5260162-.0406647-.7900848.0040359-.442421.0080719-.8848343.0121078-1.3272018.0005112-.0502014.0001068-.1034775-.026535-.1459579-.0899048-.1431808-.3199692-.0121078-.4792938-.0684662l.39534-.0316315c-.7745438-.0101929-1.5450516.109581-2.3040543.2638702-.5880737.1195679-1.1931.2605362-1.7817764.1433334-.0696259-.0138779-.1442947-.0309296-.2096786-.0032272-.0977783.0413666-.1317825.1634598-.1321869.2696152-.0014114.4190063.3131027.7635422.6076508 1.061615.5450821.551651 1.0903702 1.1033478 1.6354599 1.6550446.1469193.1485825.2954483.2986221.472641.4094696.4429703.2773895.9992599.2752151 1.521843.264267.1214905-.0025177.2500381-.0071106.3519516-.0730515.127243-.0821915.1826401-.2411118.1983795-.391716.0436934-.4184495-.1489336-.8214646-.2211839-1.2358781z" fill="#e56353"/><path d="m74.4353485 82.4368591c-.0262299-.0817337-.0698242-.1653824-.147316-.2023621-.0512619-.0244751-.1101913-.0249252-.167099-.0249252-.4570999-.0001526-.9143982-.0002518-1.3714981-.000351-.0996933-.0000534-.2023163.0005493-.2940369.0391464-.090004.0378876-.1629639.109787-.2542801.1445465-.2933273.1116486-.562439-.1884918-.8365021-.3415146-.1757736-.0981293-.3770752-.1379318-.574646-.1763306-.1500473-.0291595-.3046341-.0583725-.4544754-.0279465-.2711334.0550385-.4717331.2998352-.5548782.563652-.083046.2638626-.0700302.5470581-.0563049.8233337l-.0416718-.4693604c-.0192719.8706589.0759811 1.7438354.2826309 2.5898209.0881958.360939.2628555.7791367.6294479.8392715.2292557.03759.4511414-.0850601.6512375-.2031708.3826294-.2260208.7654648-.4521027 1.1480942-.6781235.1081696-.0638275.2187576-.1287079.3417664-.1541367.1223907-.0253754 1.1037216-.3220978 1.3673553-1.0696411.1903306-.5396877.5075532-1.1071239.3321763-1.6519085z" fill="#e56353"/><circle cx="75.836" cy="81.709" fill="#44c4a1" r="7.176"/><circle cx="75.836" cy="81.709" fill="#ebf0f3" r="5.941"/><path d="m76.3299789 77.8778305c0 .2729111-.2212448 1.0303726-.4941559 1.0303726s-.4941559-.7574615-.4941559-1.0303726.2212448-.4941559.4941559-.4941559.4941559.2212448.4941559.4941559z" fill="#d5d6db"/><path d="m75.3416672 85.5401154c0-.2729111.2212448-1.0303726.4941559-1.0303726s.4941559.7574615.4941559 1.0303726-.2212448.4941559-.4941559.4941559-.4941559-.2212449-.4941559-.4941559z" fill="#d5d6db"/><path d="m79.6669693 82.203125c-.2729187 0-1.0303802-.2212372-1.0303802-.4941559 0-.2729111.7574615-.4941483 1.0303802-.4941483.2729111 0 .4941483.2212372.4941483.4941483 0 .2729187-.2212372.4941559-.4941483.4941559z" fill="#d5d6db"/><path d="m72.0046768 81.2148209c.2729187 0 1.0303802.2212372 1.0303802.4941483 0 .2729187-.7574615.4941559-1.0303802.4941559-.2729111 0-.4941483-.2212372-.4941483-.4941559.0000001-.2729112.2212372-.4941483.4941483-.4941483z" fill="#d5d6db"/><path d="m78.8942719 79.3493652c-.1929779.1929779-.885025.5721436-1.0780029.3791656-.1929855-.1929779.1861877-.885025.3791656-1.0780029s.5058594-.1929779.6988373 0 .1929779.5058594 0 .6988373z" fill="#d5d6db"/><path d="m72.7773743 84.0685806c.1929779-.1929779.885025-.5721436 1.0780029-.3791656s-.1861877.885025-.3791656 1.0780029-.5058594.1929779-.6988373 0-.1929779-.5058594 0-.6988373z" fill="#d5d6db"/><path d="m78.1954346 84.7674179c-.1929779-.1929779-.5721512-.885025-.3791656-1.0780029.1929779-.1929779.885025.1861877 1.0780029.3791656s.1929779.5058594 0 .6988373-.5058594.1929779-.6988373 0z" fill="#d5d6db"/><path d="m73.4762115 78.650528c.1929779.1929779.5721436.885025.3791656 1.0780029s-.885025-.1861877-1.0780029-.3791656-.1929779-.5058594 0-.6988373.5058594-.192978.6988373 0z" fill="#d5d6db"/><path d="m76.0581665 79.9851456c0 .1227951-.0995483.4636154-.2223434.4636154s-.2223434-.3408203-.2223434-.4636154c0-.1228027.0995483-.2223434.2223434-.2223434s.2223434.0995406.2223434.2223434z" fill="#d5d6db"/><path d="m75.6134796 83.4328003c0-.1227951.0995483-.4636154.2223434-.4636154s.2223434.3408203.2223434.4636154-.0995483.2223434-.2223434.2223434-.2223434-.0995483-.2223434-.2223434z" fill="#d5d6db"/><path d="m77.5596542 81.9313202c-.1228027 0-.463623-.0995483-.463623-.2223511 0-.1227951.3408203-.2223434.463623-.2223434.1227951 0 .2223434.0995483.2223434.2223434.0000001.1228028-.0995483.2223511-.2223434.2223511z" fill="#d5d6db"/><path d="m74.1119919 81.4866257c.1228027 0 .463623.0995483.463623.2223434 0 .1228027-.3408203.2223511-.463623.2223511-.1227951 0-.2223434-.0995483-.2223434-.2223511-.0000001-.1227951.0995483-.2223434.2223434-.2223434z" fill="#d5d6db"/><path d="m77.2119751 80.6472626c-.0868301.0868301-.3982162.2574387-.4850464.1706085-.0868378-.0868301.0837708-.3982162.1706009-.485054.0868301-.0868301.2276154-.0868301.3144455 0 .0868301.0868377.0868301.2276153 0 .3144455z" fill="#d5d6db"/><path d="m74.459671 82.7706833c.0868301-.0868301.3982162-.2574387.4850464-.1706085s-.0837708.3982162-.1706009.4850464c-.0868378.0868301-.2276154.0868301-.3144455 0s-.0868301-.2276078 0-.3144379z" fill="#d5d6db"/><path d="m76.8975296 83.0851212c-.0868301-.0868301-.2574387-.3982162-.1706009-.4850464.0868301-.0868301.3982162.0837784.4850464.1706085s.0868301.2276077 0 .3144379-.2276154.0868301-.3144455 0z" fill="#d5d6db"/><path d="m74.7741165 80.3328171c.0868301.0868378.257431.3982239.1706009.485054s-.3982162-.0837784-.4850464-.1706085-.0868301-.2276077 0-.3144455c.0868302-.0868302.2276077-.0868302.3144455 0z" fill="#d5d6db"/><path d="m83.0123825 74.1273727c-3.9142914 0-7.0875473 3.1731491-7.0875473 7.0874481 0 3.9142456 3.1732559 7.0874481 7.0875473 7.0874481 3.9141922 0 7.0873489-3.1732025 7.0873489-7.0874481 0-3.9142989-3.1731567-7.0874481-7.0873489-7.0874481z" fill="#d15241"/><path d="m84.1727829 76.2307968c.3883286-.239975.876503.0584564 1.2321091.344696.2560577.2061081.5121155.4122162.7681732.6183243.1761398.141777.3524628.2837143.5177383.4380188.2018585.1884537.3863678.394516.5705566.6002655.3628616.4053192.7386475.8348541.8606644 1.3650055.0935287.4063721-.0678329.9429398-.4807816 1.0009232-.3949661.0554581-.6857529-.3499298-1.0461044-.5208817-.2394791-.1136093-.5139084-.1215363-.7789688-.1206589-.7493286.0024948-2.6589355.4866409-2.2457733-.8031616.171608-.5357285.3110428-.9520493.2950974-1.5286331-.0122376-.4422989-.1472779-1.1129989.3072891-1.393898z" fill="#e56353"/><path d="m82.9252014 80.295578c-.001915-.0407639-.0042343-.0829926-.0230026-.1192169-.0228043-.0437927-.0660934-.072403-.1075668-.0990906-.1772919-.1138229-.3545837-.2276917-.5317688-.3415146-.176178-.4606247-.262558-.9555664-.2392426-1.4482803.0157394-.3322296.0763855-.6751556-.0295639-.9904327-.1545868-.460022-.6532593-.7487106-1.1386108-.750679-.4852524-.0019684-.9460831.2399521-1.3037949.5679398-.3577042.3279877-.6273193.7386246-.8929062 1.1448135-.1053391.1612473-.2106857.3225403-.3160324.4838409-.2925186.4480133-.5917053.914299-.6726303 1.4431915-.0306702.2004471-.0288544.4043198-.0268402.6071396.0014114.15065.0070648.3138123.1011047.4315186.068924.0863266.1745682.1334457.2766876.1755753.4262161.175827.8955231.321228 1.3428345.2094269.2270355-.0567551.4322739-.176384.646904-.2696152.5845413-.2539749 1.2531357-.3099823 1.8716812-.1567535.1669922.0413208.3323822.0976715.5042191.1041336.1718445.0064545.3573074-.0467758.4601288-.1846619.1050415-.1407623.1012039-.3319244.0927277-.5073471-.0047456-.0999986-.0094834-.1999894-.0143281-.2999879zm-.5640564-.3129044c-.0377426-.0800171-.0663986-.1637726-.0980835-.2463608l.3056412.3486786c-.0561981.0747147-.1677017-.0177612-.2075577-.1023178z" fill="#e56353"/><path d="m82.4259262 84.6802444c-.045311-.2601852-.042984-.5260162-.0406647-.7900848.0040359-.442421.0080719-.8848343.0121078-1.3272018.0005035-.0502014.0000992-.1034775-.026535-.1459579-.0899124-.1431885-.3199692-.0121078-.4793015-.0684662l.3953476-.0316315c-.7745438-.0101929-1.5450516.109581-2.3040619.2638626-.5880737.1195755-1.1930923.2605362-1.7817764.1433334-.0696182-.0138702-.1442947-.0309219-.2096786-.0032272-.0977783.0413742-.1317825.1634674-.1321869.2696228-.0014114.4190063.3131104.7635422.6076508 1.061615.5450897.5516434 1.0903778 1.1033401 1.6354675 1.6550369.1469116.1485825.2954483.2986298.4726334.4094772.4429703.2773819.9992599.2752151 1.521843.264267.1214905-.0025253.2500458-.0071182.3519592-.0730591.127243-.0821838.1826401-.2411118.1983795-.3917084.0436935-.4184494-.1489334-.8214645-.2211838-1.235878z" fill="#e56353"/><path d="m88.0132217 81.8636398c-.0262375-.0817337-.0698242-.1653824-.1473236-.2023697-.0512543-.0244675-.1101837-.0249176-.167099-.0249176-.4570923-.0001526-.9143982-.0002594-1.3714905-.0003586-.0997009-.0000458-.2023163.0005569-.2940369.0391541-.0900116.0378876-.1629639.109787-.2542801.1445465-.293335.1116486-.5624466-.1884918-.8365021-.3415146-.1757736-.0981293-.3770828-.1379395-.5746536-.1763306-.1500473-.0291595-.3046341-.0583725-.4544754-.0279465-.2711334.0550385-.4717255.2998352-.5548706.563652-.083046.2638626-.0700302.5470505-.0563049.8233337l-.0416794-.4693604c-.0192719.8706512.0759811 1.7438354.2826385 2.5898209.0881882.3609314.2628555.7791367.6294403.8392715.2292557.03759.451149-.0850601.6512375-.2031708.382637-.2260284.7654648-.4521027 1.1480942-.6781311.1081696-.0638199.2187653-.1287003.3417664-.154129.1223984-.0253754 1.1037216-.3220978 1.367363-1.0696411.1903305-.5396879.5075455-1.1071241.3321762-1.6519087z" fill="#e56353"/><circle cx="91.119" cy="80.099" fill="#44c4a1" r="7.176"/><circle cx="91.119" cy="80.099" fill="#ebf0f3" r="5.941"/><path d="m91.6131516 76.2683334c0 .2729111-.2212372 1.0303726-.4941559 1.0303726-.2729111 0-.4941483-.7574615-.4941483-1.0303726s.2212372-.4941559.4941483-.4941559c.2729187.0000001.4941559.2212449.4941559.4941559z" fill="#d5d6db"/><path d="m90.6248474 83.9306183c0-.2729111.2212372-1.0303726.4941483-1.0303726.2729187 0 .4941559.7574615.4941559 1.0303726s-.2212372.4941559-.4941559.4941559c-.2729111 0-.4941483-.2212448-.4941483-.4941559z" fill="#d5d6db"/><path d="m94.9501419 80.5936279c-.2729111 0-1.0303726-.2212372-1.0303726-.4941483 0-.2729187.7574615-.4941559 1.0303726-.4941559s.4941559.2212372.4941559.4941559c0 .2729111-.2212448.4941483-.4941559.4941483z" fill="#d5d6db"/><path d="m87.2878571 79.6053238c.2729111 0 1.0303726.2212372 1.0303726.4941559 0 .2729111-.7574615.4941483-1.0303726.4941483s-.4941559-.2212372-.4941559-.4941483c0-.2729187.2212448-.4941559.4941559-.4941559z" fill="#d5d6db"/><path d="m94.1774445 77.7398682c-.1929779.1929779-.885025.5721436-1.0780029.3791656s.1861877-.885025.3791656-1.0780029.5058594-.1929779.6988373 0 .1929779.5058594 0 .6988373z" fill="#d5d6db"/><path d="m88.0605545 82.4590836c.1929779-.1929779.885025-.5721436 1.0780029-.3791656s-.1861877.885025-.3791656 1.0780029-.5058594.1929779-.6988373 0-.1929779-.5058594 0-.6988373z" fill="#d5d6db"/><path d="m93.4786072 83.1579208c-.1929779-.1929779-.5721436-.885025-.3791656-1.0780029s.885025.1861877 1.0780029.3791656.1929779.5058594 0 .6988373-.5058594.1929779-.6988373 0z" fill="#d5d6db"/><path d="m88.7593918 77.0410309c.1929779.1929779.5721436.885025.3791656 1.0780029s-.885025-.1861877-1.0780029-.3791656-.1929779-.5058594 0-.6988373.5058594-.1929779.6988373 0z" fill="#d5d6db"/><path d="m91.3413467 78.3756485c0 .1227951-.0995483.4636154-.2223511.4636154-.1227951 0-.2223434-.3408203-.2223434-.4636154s.0995483-.2223434.2223434-.2223434c.1228028 0 .2223511.0995483.2223511.2223434z" fill="#d5d6db"/><path d="m90.8966522 81.8233032c0-.1227951.0995483-.4636154.2223434-.4636154.1228027 0 .2223511.3408203.2223511.4636154 0 .1228027-.0995483.2223434-.2223511.2223434-.122795.0000001-.2223434-.0995406-.2223434-.2223434z" fill="#d5d6db"/><path d="m92.8428268 80.3218231c-.1227951 0-.4636154-.0995483-.4636154-.2223434 0-.1228027.3408203-.2223511.4636154-.2223511s.2223434.0995483.2223434.2223511c.0000001.1227951-.0995483.2223434-.2223434.2223434z" fill="#d5d6db"/><path d="m89.3951721 79.8771286c.1227951 0 .4636154.0995483.4636154.2223511 0 .1227951-.3408203.2223434-.4636154.2223434-.1228027 0-.2223434-.0995483-.2223434-.2223434 0-.1228028.0995407-.2223511.2223434-.2223511z" fill="#d5d6db"/><path d="m92.4951477 79.0377655c-.0868301.0868301-.3982162.2574387-.4850464.1706085s.0837784-.3982162.1706085-.4850464.2276077-.0868301.3144379 0 .0868301.2276078 0 .3144379z" fill="#d5d6db"/><path d="m89.7428436 81.1611862c.0868378-.0868301.3982239-.2574387.485054-.1706085s-.0837784.3982162-.1706085.485054c-.0868301.0868301-.2276077.0868301-.3144455 0-.0868301-.0868378-.0868301-.2276153 0-.3144455z" fill="#d5d6db"/><path d="m92.1807098 81.4756317c-.0868301-.0868378-.2574387-.3982239-.1706085-.485054s.3982162.0837784.4850464.1706085.0868301.2276077 0 .3144455c-.0868301.0868302-.2276077.0868302-.3144379 0z" fill="#d5d6db"/><path d="m90.0572891 78.7233276c.0868301.0868301.2574387.3982162.1706085.4850464s-.3982162-.0837784-.485054-.1706085c-.0868301-.0868301-.0868301-.2276077 0-.3144379.0868378-.0868301.2276154-.0868301.3144455 0z" fill="#d5d6db"/></svg>