<svg enable-background="new 0 0 140 140" height="512" viewBox="0 0 140 140" width="512" xmlns="http://www.w3.org/2000/svg"><circle cx="70" cy="70" fill="#e05b49" r="64"/><path d="m44.2971344 99.0816498 34.3239746 34.3239136c28.4731445-3.8363647 50.9956665-26.3839722 54.795166-54.8687134l-34.3991089-34.3151818c-7.1100464-8-17.4700317-13.0399799-29.0200195-13.0399799-21.4400024 0-38.8099976 17.3800068-38.8099976 38.8200073 0 11.5799542 5.0700074 21.9599591 13.1099854 29.0799542z" opacity=".1"/><ellipse cx="70" cy="70" fill="#ebf0f3" rx="38.817" ry="38.817" transform="matrix(.987 -.16 .16 .987 -10.309 12.117)"/><ellipse cx="70" cy="70" fill="#d5d6db" rx="31.461" ry="31.461" transform="matrix(.987 -.16 .16 .987 -10.309 12.117)"/><path d="m94.2425461 47.1329842c-1.0103378-1.0103378-2.6485443-1.0102539-3.6588745.0000839l-6.1426392 5.5321045c-1.0103378 1.0103378-1.0103378 2.6484566 0 3.6587944s2.6485443 1.0104218 3.6588821.0000839l6.1426315-5.5321007c1.0103379-1.0103378 1.0103379-2.6486282.0000001-3.658966z" fill="#e4e8ea"/><path d="m50.9665642 54.0996513s-9.3143158-10.2524261 6.5550423-16.6455269c0 0 .7121468 1.9619904 1.8222084 4.1741257 3.5455474 7.0655899-.3166047 13.9957085-8.3772507 12.4714012z" fill="#3ea69b"/><path d="m55.8294029 40.0425072s-4.6159592 7.1024094-1.9946899 15.2439842c.247345.7681923-.2149086 1.5807648-1.0094414 1.7222939l-.0928841.0165672c-.6495171.1156769-1.2782898-.2684784-1.4817696-.8960991-.7731055-2.3855171-1.7524261-8.4927216 4.578785-16.0867462z" fill="#31978c"/><path d="m50.9017982 54.1644173s-10.2524261-9.3143158-16.6455269 6.5550423c0 0 1.9619904.7121468 4.1741257 1.8222084 7.0655899 3.5455436 13.9957085-.3166047 12.4714012-8.3772507z" fill="#3ea69b"/><path d="m36.8446541 59.027256s7.1024094-4.6159592 15.2439842-1.9946899c.7681923.247345 1.5807648-.2149086 1.7222939-1.0094452l.0165672-.0928802c.1156807-.6495171-.2684784-1.2782898-.8960991-1.4817696-2.3855171-.7731057-8.4927216-1.7524262-16.0867462 4.5787849z" fill="#31978c"/><ellipse cx="70" cy="70" fill="#ebf0f3" rx="23.625" ry="23.625" transform="matrix(.987 -.16 .16 .987 -10.309 12.117)"/><ellipse cx="70" cy="70" fill="#44c4a1" rx="19.342" ry="19.342" transform="matrix(.987 -.16 .16 .987 -10.309 12.117)"/><path d="m56.3374939 63.0631828c1.1202011-2.2699776 2.9721222-4.1343269 5.1127625-5.4853706 5.103096-3.2207603 11.9629517-3.4278717 17.2510529-.5208321 1.1234741.6176109 2.2924347 1.5691986 2.2934113 2.8512421.0009766 1.2800064-1.2171631 2.2663918-2.4593735 2.5751534-1.7354813.431366-3.5609055-.0693245-5.2338943-.7010612-1.6729889-.6317329-3.3325043-1.4072685-5.1153564-1.546627-1.7828522-.1393547-3.7741165.5295525-4.5967827 2.1173782-.8615227 1.6628265-.1168556 3.829155 1.3259392 5.0231247 1.4427948 1.1939621 3.403038 1.5728683 5.275795 1.5739212 2.8106766.0015945 5.6179657-.7680969 8.0348053-2.2029495 1.4145966-.8398285 2.9884796-1.950737 4.5481491-1.4274673.8889923.2982559 1.5382843 1.0965958 1.8844147 1.9680557.346138.8714676.4324493 1.8207932.5152435 2.7548141.0955505 1.0780258.1907349 2.1691208.0209198 3.2379684s-.6350021 2.1303558-1.4796982 2.8069382c-.6555481.5250702-1.5136871.8037643-2.0413742 1.4572067-.8595886 1.0644455-.5068054 2.6269836-.8009033 3.9631882-.3479385 1.5808487-1.6438141 2.8261871-3.1201553 3.4899445-1.4763412.6637497-3.1242828.8275528-4.7411575.9040527-1.1719055.0554504-2.3739929.0654755-3.4834595-.3159943-1.1094742-.3814697-2.1239624-1.2267761-2.4084778-2.3649673-.3766785-1.5069199.5757523-3.0064163 1.5755844-4.1951218.9998322-1.1887131 2.1543579-2.4212952 2.2822037-3.9693146.1379929-1.6708755-1.1159744-3.2962646-2.728302-3.7559128-1.6123199-.4596558-3.4333725.170578-4.5624924 1.4099121-1.1291199 1.2393417-1.5928612 3.0039291-1.4173775 4.6712875.1037979.9862137.3898621 2.0819855-.1744957 2.8973999-.7501221 1.0838089-2.4949379.8368759-3.5135269.0003281-2.0699272-1.6999893-3.2479935-5.6726074-3.3839722-8.2636566-.1578562-3.0078354-.2388231-6.1939621 1.140518-8.9526406z" fill="#3ea69b" opacity=".25"/></svg>