<svg enable-background="new 0 0 140 140" height="512" viewBox="0 0 140 140" width="512" xmlns="http://www.w3.org/2000/svg"><circle cx="70" cy="70" fill="#e05b49" r="64"/><path d="m43.5800323 107.274971 26.7175293 26.7175369c31.9348145-.1461945 58.3433838-23.6755447 62.9784546-54.3515091l-52.2360229-52.2360229c-.9299927-.9699707-2.0599976-1.8599854-3.4199829-2.6499634 0 0-4.4899902-1.8500366-7.7399902-1.2999878-3.2600098-.5500488-7.75 1.2999878-7.75 1.2999878-7.2299805 4.2099609-7.8300171 11.0899658-7.1699829 17.25.0999756.9500122.2199707 1.8599854.3399658 2.7199707v.1100464c-.1499634-.0500488-.2999878-.0700073-.4500122-.0400391-.9099731.210022-1.2799683 2-.8199463 4 .2999878 1.3699951.9199829 2.4799805 1.5699463 2.9799805l.8000488.8100586c1.1499634 3.2199707 3.0999756 5.9599609 5.5699463 7.8599854v2.7999878l-.3599854.8400269c-1.1400146.3399658-2.0499878.6999512-2.5999756 1.0199585-2.0800171 1.2000122-3.5900269 2.6600342-4.6300049 4.5l-7.25 3.3900146c-3.1400146 1.460022-5.6600342 4.0800171-6.7700195 7.3599854-.3900146 1.1500244-.6300049 2.4199829-.5700073 3.75.1300049 3.2000122.6400146 11.5800171 1.0200195 17.7399902.1400147 2.2000121 1.1900025 4.119995 2.7700195 5.4299926z" opacity=".1"/><path d="m99.6386719 80.3529892c-1.1064301-3.2824402-3.6315231-5.8954849-6.7698975-7.3616638l-13.3549805-6.2391129-9.5137787 3.724678-9.5137787-3.724678-13.3549843 6.2391129c-3.1383705 1.4661789-5.6634064 4.0792236-6.7698975 7.3616638-.3898163 1.156517-.629509 2.4259567-.575592 3.7550049.1297607 3.1980972.6395149 11.5724335 1.0251389 17.7378082.2531662 4.0478821 3.6100807 7.1976929 7.6658745 7.1976929h21.5232391 21.5233002c4.0557938 0 7.4127045-3.1498108 7.6658707-7.1976929.3855667-6.1653748.8953171-14.539711 1.0250778-17.7378082.0539169-1.3290482-.1857147-2.5984879-.575592-3.7550049z" fill="#d5d6db"/><path d="m88.5910873 89.6628494-1.4694138-.0948944c.2856445-4.4389038.4265442-9.6508484-.6901321-14.6504822-.955162-4.2769089-3.4175949-7.3125381-7.3182907-9.0220566-7.3748398-3.2335663-17.2394371-.7481232-19.3644753.4826126-4.0248184 2.330162-5.6667633 5.6284256-5.6667633 11.3852844h-1.4722861c0-6.2759018 1.9141655-10.0620499 6.4009895-12.6591568 2.6071701-1.5096664 12.916523-3.9658699 20.693943-.5573807 4.3535919 1.9084167 7.1002274 5.2895889 8.1637039 10.0495911 1.1574097 5.1807938 1.0145951 10.5235825.7227249 15.0664826z" fill="#2f4859"/><path d="m61.971954 54.123749h16.056095v20.306238h-16.056095z" fill="#f7be56"/><path d="m79.5137863 66.7522278-9.5137787 3.7246857-9.5137825-3.7246857-2.2691726 1.0601196v23.9461746l11.7829475 17.2849961 9.2568741-13.6475144 2.270874-27.7028656z" fill="#2d93ba"/><path d="m71.7130814 70.4857025h-3.4261628l-1.7130813 2.9671402 1.7130813 2.9671478h3.4261628l1.7130813-2.9671478z" fill="#e56353"/><path d="m78.0280457 63.2420654-8.0280457 7.2348404 5.1728592 5.5652619 4.3409042-9.2899475z" fill="#27a2db"/><path d="m61.9719543 63.2420654 8.0280457 7.2348404-5.1728592 5.5652619-4.340908-9.2899475z" fill="#27a2db"/><path d="m74.6657257 102.7743073-4.6657257 6.2692108-4.6657257-6.2692108 2.9445724-26.5860215h3.4423066z" fill="#e56353"/><path d="m79.0857239 65.7409286s2.4386749 19.2309494-9.0857239 43.3025894c0 0 9.5297928-6.6641846 14.8487473-23.9774017l-2.4378586-4.474205 3.7559204-2.5289001-3.5089874-9.9685974z" fill="#ebf0f3"/><path d="m60.9871216 65.5688171s-2.5115204 19.4030609 9.0128784 43.4747009c0 0-9.529789-6.6641846-14.8487434-23.9774017l2.4378548-4.474205-3.7559204-2.5289001 3.5089912-9.9685974z" fill="#ebf0f3"/><g fill="#fcd462"><path d="m84.9616089 44.794838c-.9109116-.2063713-2.0175476 1.2513046-2.4716721 3.2558174-.4541321 2.0045128-.083786 3.7967987.8271255 4.00317.9109192.2063713 2.0175095-1.2513123 2.4716339-3.255825.4541322-2.0045129.0838319-3.7967911-.8270873-4.0031624z"/><path d="m54.8540421 44.794838c.9109154-.2063713 2.0175438 1.2513046 2.4716721 3.2558174.4541321 2.0045128.0837898 3.7967987-.8271294 4.00317-.9109154.2063713-2.0175018-1.2513123-2.4716301-3.255825s-.0838318-3.7967911.8270874-4.0031624z"/><ellipse cx="70.046" cy="45.957" rx="14.795" ry="17.3"/></g><g fill="#474c5b"><path d="m77.6217728 24.7520275s-4.4945984-1.8489838-7.7461472-1.3011379c-3.2515488-.5478458-7.746151 1.3011379-7.746151 1.3011379-7.2321854 4.2104206-7.8298759 11.0938587-7.1724129 17.2571239.5361519 5.0259743 1.5492744 9.0045319 1.9049072 10.3017006.0670013.2444153.2517357.4340401.4749718.4487343.3426628.0225449.6033974-.3282547.5432358-.7086525-.5975761-3.7785378.252636-5.6030998.8601341-6.3851662.2753868-.3545341.2997894-.8792839.0674667-1.2722206l-.8024368-1.3571854c-1.2551804-2.1228981-1.0758629-8.6285629 2.3310356-7.4643898 3.4068947 1.1641731 9.5392494 1.3011398 9.5392494 1.3011398s6.1323624-.1369667 9.5392456-1.3011398c3.4068985-1.1641731 3.5862122 5.3414917 2.3310318 7.4643898l-.8022461 1.3568535c-.2307434.3902779-.2114258.9153633.0628052 1.2667732.6061172.7767372 1.4590073 2.5931816.8694611 6.3600998-.0508881.3251152.1163406.6613846.3987427.7278099.2702866.0635681.5266571-.1173248.6059036-.4053345.3475189-1.2629738 1.3730164-5.26577 1.91362-10.3334122.6574708-6.1632651.0597687-13.0467032-7.1724166-17.2571238z"/><path d="m53.9930191 80.3272476c4.3333588.9721298 6.7260475 4.603653 7.7432251 11.7256699.3245506 2.2723846-.0801163 4.0169907-1.2027473 5.1859512-1.3064041 1.3593903-3.2242928 1.5060501-3.9880714 1.5060501-.0645027 0-.12286-.0010223-.174305-.0025558l.1072426-1.0463562c.0199661.0002594.0409546.0002594.0629654.0002594.6332397 0 2.2171059-.1162033 3.2434959-1.1917419.8820267-.924263 1.1894341-2.3722076.913765-4.3036652-.956768-6.6966171-3.0295105-9.9616089-6.9082909-10.8446579z"/><path d="m52.9013596 81.3562012c-3.8787804.883049-5.9515228 4.1480408-6.9082909 10.8446579-.2756653 1.9314575.0314827 3.3794022.9135132 4.3036652 1.0263863 1.0755386 2.6102524 1.1917419 3.2434921 1.1917419.0227776 0 .0447922-.0002594.0655251-.0005112l.1051979 1.0471191c-.0522156.0015335-.1113434.0025635-.1768684.0025635-.7630081 0-2.6791039-.1469193-3.9860229-1.5068283-1.1226311-1.1687012-1.527298-2.913559-1.2024879-5.1859512 1.0171738-7.1217575 3.4098625-10.7532806 7.7432251-11.7254105z"/></g><path d="m44.8966751 90.7638168h1.598774c1.041748-5.6730728 3.0732498-8.4566116 6.6491966-9.1896057h.4023666c3.5759506.7329941 5.6074524 3.5165329 6.6491966 9.1896057h1.5987434c-1.0780602-6.1040421-3.3196068-9.4128647-7.1362228-10.5323257v-3.8395538h-2.6258354v3.8396149c-3.8165779 1.119461-6.0581588 4.4283218-7.136219 10.5322646z" fill="#44c4a1"/><circle cx="56.47" cy="98.296" fill="#2f4859" r="1.108"/><circle cx="50.468" cy="98.296" fill="#2f4859" r="1.108"/><circle cx="87.873" cy="90.372" fill="#44c4a1" r="3.859"/><circle cx="87.873" cy="90.372" fill="#4d5c7d" r="2.474"/><circle cx="87.873" cy="90.372" fill="#2f4859" r="1.217"/></svg>