<svg enable-background="new 0 0 140 140" height="512" viewBox="0 0 140 140" width="512" xmlns="http://www.w3.org/2000/svg"><circle cx="70" cy="70" fill="#e05b49" r="64"/><path d="m55.0536041 104.4082947 2.1499634 4.7200317c.1099854.2399902.2299805.460022.3699951.6699829.2800293.4299927.6099854.8099976.9899902 1.1300049l22.15979 22.15979c25.8851318-4.3690796 46.4872437-24.2653198 51.8833618-49.7866821l-49.163147-49.1630898-.0100098.0100098c-.3899536-.4200439-.9499512-.6800537-1.5599976-.6800537h-3.4400022l-5.6699829-5.669981h-5.5299683v5.669981h-9.1100464c-1.039978 0-1.9400024.75-2.1199951 1.7800293l-.6799927 3.8300171c-.0599976.2999878.0599976.5799561.2700195.7699585l-.0200195.0100098.9400024.9299927v.9000244h-.7600098c-.3999634 0-.7299805.3300171-.7299805.7299805v2.9000244c0 1.0100098.289978 1.9899902.8300171 2.8399658l.0299683.0400391 1.8800049 2.9299927c.1400146.2199707.2600098.4400024.3699951.6599731.3099976.6799927.4700317 1.4200439.4700317 2.1799927 0 1.3900146-.5499878 2.7200317-1.5400391 3.7000122l-1.0299683 1.0400391c-.9899902.9799805-1.5400391 2.3200073-1.5400391 3.7099609v39.6300087c0 .75.1600342 1.4800415.4700317 2.1600342v.0099487z" opacity=".1"/><path d="m67.232437 27.796682h5.535125v8.223614h-5.535125z" fill="#4d5c7d"/><path d="m56.518013 38.946003h26.963965v6.009564h-26.963965z" fill="#474c5b"/><path d="m83.971344 58.7092361-1.0379028-1.0378418c-.9830933-.9830933-1.5354004-2.3164673-1.5354004-3.7067871 0-1.005188.2890015-1.9891357.8325195-2.8347168l1.9133301-2.9761353c.5436401-.8455811.8326416-1.8296509.8326416-2.8348999v-2.8969727c0-.4044189-.3278809-.7322998-.7322998-.7322998h-14.2443238-14.2442626c-.4044189 0-.7322998.3278809-.7322998.7322998v2.8969727c0 1.005249.2890015 1.9893188.8326416 2.8348999l1.9133301 2.9761353c.5435181.845459.8325195 1.8293457.8325195 2.8344727v.0005493c0 1.3901978-.5523071 2.7234497-1.5352783 3.7064819l-1.0379639 1.0379028c-.9830322.9830933-1.5353394 2.3164062-1.5353394 3.706665v39.631958c0 .7503662.1610718 1.4920044.4723511 2.1747437l2.2376709 4.9085083c.8518677 1.8685913 2.7163696 3.067749 4.7699585 3.067749h8.0266724 8.0269775c2.0535278 0 3.9179077-1.1990967 4.7697144-3.067627l2.237793-4.9088745c.3112793-.6828003.4723511-1.4244385.4723511-2.1748047v-39.6316527c-.0000001-1.3903198-.5523072-2.7236328-1.5354005-3.7067261z" fill="#ebf0f3"/><path d="m55.4929123 72.370575v29.6769409c0 .6113281.1289062 1.2041016.3828125 1.7597656l2.2373047 4.9091797c.6875 1.5078125 2.203125 2.4824219 3.8603516 2.4824219h16.0537109c1.6572266 0 3.171875-.9746094 3.859375-2.4824219l2.2373047-4.9091797c.2509766-.5478516.3828125-1.1572266.3828125-1.7597656v-29.6769409z" fill="#d5d6db" opacity=".5"/><path d="m67.0958557 112.2033157h-5.1200562c-2.0599976 0-3.9199829-1.2000122-4.7699585-3.0700073l-2.2399902-4.9099731c-.3099976-.6800537-.4700317-1.4300537-.4700317-2.1800537v-39.6299439c0-1.3900146.5499878-2.7200317 1.5300293-3.7000122l1.039978-1.0400391c.9799805-.9799805 1.539978-2.3199463 1.539978-3.7099609 0-1-.289978-1.9899902-.8399658-2.8300171l-1.9100342-2.9799805c-.539978-.8500366-.8299561-1.8300171-.8299561-2.8300171v-2.9000244c0-.4099731.3299561-.7299805.7299805-.7299805h5.1199951c-.4000244 0-.7299805.3200073-.7299805.7299805v2.9000244c0 1 .289978 1.9799805.8299561 2.8300171l1.9200439 2.9799805c.539978.8400269.8299561 1.8300171.8299561 2.8300171 0 1.3900146-.5499878 2.7299805-1.539978 3.7099609l-1.0299683 1.0400391c-.9900513.9799805-1.5400391 2.3099976-1.5400391 3.7000122v39.6299438c0 .75.1600342 1.5.4700317 2.1800537l2.2399902 4.9099731c.8499758 1.8699952 2.7199709 3.0700074 4.7700197 3.0700074z" fill="#d5d6db"/><path d="m83.9998474 35.2514114c-.1835938-1.0310059-1.0800781-1.7819214-2.1273193-1.7819214h-11.8726197-11.8725585c-1.0472412 0-1.9437256.7509766-2.1273193 1.7819824l-.6812744 3.8259277c-.0928345.5214844.3081665 1.0002441.8378906 1.0002441h13.8432617 13.8434448c.5297241 0 .9307251-.4787598.8378296-1.0002441z" fill="#4d5c7d"/></svg>