<svg enable-background="new 0 0 140 140" height="512" viewBox="0 0 140 140" width="512" xmlns="http://www.w3.org/2000/svg"><circle cx="70" cy="70" fill="#334d5c" r="64"/><path d="m87.7150192 31.9916248c-.0800171-.0799561-.1700439-.1399536-.2600098-.2199707-.1699829-.1500244-.3400269-.3099976-.5200195-.4299927-.0999756-.0700073-.2099609-.1099854-.3099976-.1699829-.1900024-.1100464-.3800049-.2200317-.5800171-.3099976-.0899658-.0300293-.1799927-.0500488-.2599487-.0800171-.2400513-.0800171-.4800415-.1600342-.7300415-.210022-.0100098 0-.0199585 0-.0199585 0-.3099976-.0599976-.6300049-.0899658-.9500122-.0899658-.9199829 0-1.8599854.25-2.7000122.789978l-10.7199707 6.7700214 3.4099731 5.3399658-4.9500122-4.9500122-10.2199668-7.489992c-1.0800171-.7999878-2.3500366-1.0899658-3.5900269-.9500122h-.0299683c-.25.0300293-.4900513.0900269-.7300415.1600342-.0899658.0200195-.1799927.0299683-.2699585.0599976-.210022.0700073-.4000244.1699829-.6000366.2700195-.1099854.0499878-.2199707.0799561-.3200073.1399536-.1999512.1199951-.3699951.2600098-.5499878.4000244-.0899658.0700073-.1900024.1199951-.2799683.2000122-.25.2299805-.4900513.4799805-.7000122.7699585-.3400269.4500141-.5700073.9500141-.7299805 1.4600239-.5600586 1.7299805-.1600342 3.6500244 1.1099854 5l-.1400146.0200195 15.5399742 15.539978h-19.4699669l5.2199707 52.8900108c.0700073.7600098.4000244 1.4400024.8800049 1.9699707l-.0100098.0100098.1700439.1699829c.039978.0400391.0799561.0800171.1199951.1200562l24.1784019 24.2234497c28.6500854-3.8979492 51.2574539-26.7443237 54.7953568-55.5073242l-45.6737746-45.7661705c-.039978-.039978-.0700073-.0899658-.1099854-.1300068z" opacity=".1"/><path d="m76.1072388 46.5550995 10.7203903-6.7696495c2.352066-1.5028572 3.0404816-4.6278496 1.5376205-6.9799194s-4.6278687-3.0405102-6.9799423-1.5376511l-10.7203903 6.7696457z" fill="#fcd462"/><path d="m88.3663635 32.8073387c1.5013123 2.3494072.8095551 5.4706993-1.5398102 6.9720726l-10.7226181 6.7750435-.9281311-1.4636154 9.6805038-6.1204529c2.3493652-1.5013733 3.0411148-4.6226654 1.5332336-6.9827843-.3655319-.5713291-.8355713-1.0489063-1.3583679-1.4205208 1.3225251.2342301 2.5515901 1.0120373 3.3351899 2.2402573z" fill="#f7be56"/><path d="m63.1092644 46.5544548-10.2258797-7.4957466c-2.2423553-1.6621284-2.712719-4.8272858-1.0505943-7.069643 1.6621246-2.2423534 4.8273087-2.7127476 7.069664-1.050621l10.2258797 7.4957485z" fill="#e56353"/><path d="m51.8315506 31.9907932c-1.6603928 2.2398052-1.1864395 5.4015064 1.0533218 7.061964l10.2277336 7.5012894 1.027256-1.3958321-9.233448-6.7761078c-2.2397614-1.6604538-2.7137146-4.8221588-1.0460205-7.0721951.4042206-.5446453.9062004-.9885273 1.453476-1.3230495-1.3355675.142088-2.6155472.8329202-3.4823189 2.0039311z" fill="#d15241"/><path d="m48.1458435 54.0082817 5.2161255 52.8914223c.1766357 1.7909546 1.6829224 3.1559448 3.482605 3.1559448h26.310852c1.7996826 0 3.3059692-1.3649902 3.482605-3.1559448l5.2161255-52.8914223z" fill="#d5d6db"/><path d="m84.7031555 106.1195526 4.9436646-52.1112709h-39.2939453l4.9436645 52.1112709z" fill="#e6e9ef"/><path d="m52.8987122 80.844101 2.3978271 25.2754516h29.4066162l2.3978272-25.2754516z" fill="#44c4a1"/><path d="m62.4137383 88.736969-2.885376-30.3756752h-3.4401856l2.8854981 30.3756752z" fill="#fff"/><path d="m59.3111992 92.2903137.881958 9.284607h3.4400635l-.881958-9.284607z" fill="#fff"/><g fill="#ebf0f3"><circle cx="72.828" cy="47.939" r="1.137"/><circle cx="67.761" cy="44.834" r="1.137"/><circle cx="70.665" cy="49.991" r=".714"/><circle cx="70.823" cy="52.581" r=".714"/><circle cx="69.842" cy="47.006" r=".714"/><circle cx="68.185" cy="49.621" r=".714"/></g></svg>