<svg enable-background="new 0 0 140 140" height="512" viewBox="0 0 140 140" width="512" xmlns="http://www.w3.org/2000/svg"><circle cx="70" cy="70" fill="#334d5c" r="64"/><path d="m104.2593155 38.9316292c-.0200195-.0299683-.0400391-.0499878-.0599976-.0799561-.1900024-.2300415-.4100342-.4299927-.6199951-.6300049-.3700562-.3599854-.7600098-.6700439-1.1700439-.9100342-.6300049-.3699951-1.3200073-.5999756-2.0100098-.7399902l-4.4699707-4.4699707c-.5300293-.6000385-1.1699829-1.119997-1.9500122-1.5100117-2.0999756-1.0599976-4.7199707-.8200073-6.5800171.6300049-2.0599976 1.6099873-2.7999878 4.0399799-2.3399658 6.2600117.5499878 2.6699829-.0200195 5.4400024-1.4799805 7.7199707l-.25-.2000122c-.5700073-.4599609-1.4100342-.3699951-1.8700562.2000122-.2599487.3099976-.5299683.6199951-.789978.9299927-5.8900146 6.6300049-12.8399658 10.1500244-17.5100136 11.9400024-.3900146.1500244-.7799683.2999878-1.1699829.4400024-.2999878.1000366-.5900269.2000122-.8599854.289978-.9800415.3200073-1.960022.6100464-2.960022.8700562-5.960022 1.5199585-11.8699951 5.2599449-16.460022 10.9199791-6.6799927 8.2700195-8.7599487 18.4500732-6.2199707 26.4599609.7700195 2.4300537 1.9699707 4.6500244 3.5900269 6.5699463l-.1100464.1000977 30.2587929 30.2587891c.2581787.0030518.5130615.0195312.7719116.0195312 35.3462524 0 63.9999924-28.6538086 63.9999924-64 0-.4328613-.0241089-.8599854-.0326538-1.2908936z" opacity=".1"/><path d="m104.9555206 45.4158287c1.0265732-2.1152534.7188034-4.7315025-.7571335-6.5613861-1.0487061-1.3000679-2.4359055-2.0556679-3.8810349-2.2997208-1.4616623-.246933-2.7344284-1.2771187-3.2822342-2.6545868-.5407028-1.3603058-1.5685883-2.5573387-3.0570679-3.3108845-2.0980835-1.0620937-4.7213974-.8162289-6.5759659.6297932-2.0625534 1.6083069-2.8039703 4.045372-2.3474045 6.2620773.6342087 3.079834-.2138824 6.2783089-2.1910172 8.7235222l-2.5773621 3.1875534 8.3896866 6.7836533 2.5773544-3.1875534c1.9775925-2.4457779 4.9286346-3.9429359 8.0737762-3.9684906 2.2612308-.0185051 4.4875644-1.2527885 5.628403-3.6039772z" fill="#e1e6e9"/><path d="m104.9600372 45.4177437c-1.1499634 2.3500977-3.3699951 3.5800781-5.6299438 3.6000977-3.1500244.0300293-6.1000366 1.5200195-8.0800171 3.9699707l-2.5700073 3.1899414-8.3900146-6.789917.0100098-.0100098 6.789978 5.4899902 2.5800171-3.1800537c1.9799805-2.4499512 4.9299927-3.9499512 8.0700073-3.9699707 2.2700195-.0200195 4.4899902-1.25 5.6300049-3.6099854 1.0299683-2.1099854.7199707-4.7299805-.75-6.5599365-.0700073-.0800781-.1300049-.1600342-.210022-.2399902.6500244.3798828 1.2700195.8999023 1.7900391 1.5499268 1.4699706 1.829956 1.7799682 4.4400634.7599486 6.5599365z" fill="#d5d6db"/><path d="m92.5400543 54.1577339c-5.9099731 7.3100586-8.8999634 16.4101601-9.2700195 25.8000526-.2399902 6.1500244-2.6499634 12.7199707-7.2399902 18.3800049-9.5999756 11.8800049-25.0700035 15.3000488-34.549984 7.6400146-2.8800049-2.3299561-4.8800049-5.4199219-5.9899902-8.9299316-2.539978-8.0100098-.460022-18.1900635 6.2199707-26.460083 4.5900269-5.6600342 10.5-9.4000282 16.460022-10.9200478 2.1799927-.5599365 4.3200073-1.2600098 6.3900108-2.1098633 2.2399902-.9200439 4.4099731-2.0100098 6.4599609-3.2600098 3.9400024-2.4100342 7.4800415-5.4500732 10.4400024-9.1000977.460022-.5699463 1.3000488-.6599121 1.8700562-.1999512l.25.1999512 8.5 6.880127.2599487.2099609c.5700073.4599611.6600342 1.2999269.2000122 1.8698732z" fill="#dc8744"/><path d="m80.7777252 46.0144234c-8.9534912 10.1613769-20.4276695 13.0933838-22.6076622 13.6533203-5.960022 1.5200195-11.8699951 5.2600136-16.460022 10.9200478-6.6799927 8.2700195-8.7599487 18.4500732-6.2199707 26.460083 4.4199829 5.1599121 10.7999878 8.4099121 17.9099731 8.4099121 13.300045 0 24.0800133-11.3699951 24.0800133-25.3898926.0000001-9.7800293 10.9776612-29.8134804 3.2976685-34.0534706z" fill="#ebf0f3" opacity=".1"/><ellipse cx="55.205" cy="81.871" fill="#d5d6db" opacity=".1" rx="14.71" ry="15.514"/><ellipse cx="53.738" cy="78.126" fill="#d5d6db" opacity=".1" rx="6.587" ry="6.947"/><path d="m90.5978546 31.5762672c-2.1290894 0-3.8551025 1.8155518-3.8551025 4.0550537s1.7260132 4.0549316 3.8551025 4.0549316 3.8551025-1.8154297 3.8551025-4.0549316-1.7260131-4.0550537-3.8551025-4.0550537z" fill="#ebf0f3" opacity=".25"/></svg>