<svg enable-background="new 0 0 140 140" height="512" viewBox="0 0 140 140" width="512" xmlns="http://www.w3.org/2000/svg"><circle cx="70" cy="70" fill="#e05b49" r="64"/><path d="m30.1808014 77.3850174 54.8276367 54.8276901c23.154541-5.5665817 41.4029541-23.7089767 47.1126709-46.8073044l-22.7904053-22.7904053h-3.0200195l-4.5300293-4.5299683h-3.4199219l-4.1300049-4.1300049h-7.5499268v12.8899536h-20.960083l-12.8900146-12.8899535h-7.5500488v4.1300049h-7.5499268v4.5299683h-7.5499268v4.2299805h-2.6900635v6.3099976l2.6900635 2.6900024v1.540039z" opacity=".1"/><path d="m27.488026 66.843018h85.023949v6.313959h-85.023949z" fill="#2f4859"/><path d="m86.685555 53.957676h7.549551v32.084644h-7.549551z" fill="#4d5c7d"/><path d="m87.880676 53.957676h5.159308v32.084644h-5.159308z" fill="#64798a"/><path d="m94.135109 58.083576h7.549551v23.83285h-7.549551z" fill="#474c5b"/><path d="m95.330231 58.083576h5.159308v23.83285h-5.159308z" fill="#64798a"/><path d="m101.584656 62.611988h7.549551v14.776025h-7.549551z" fill="#4d5c7d"/><path d="m102.779778 62.611988h5.159308v14.776025h-5.159308z" fill="#64798a"/><path d="m45.278023 53.957676h7.549551v32.084644h-7.549551z" fill="#4d5c7d" transform="matrix(-1 0 0 -1 98.106 140)"/><path d="m46.473145 53.957676h5.159308v32.084644h-5.159308z" fill="#64798a" transform="matrix(-1 0 0 -1 98.106 140)"/><path d="m37.828472 58.083576h7.549551v23.83285h-7.549551z" fill="#474c5b" transform="matrix(-1 0 0 -1 83.206 140)"/><path d="m39.023594 58.083576h5.159308v23.83285h-5.159308z" fill="#64798a" transform="matrix(-1 0 0 -1 83.206 140)"/><g transform="matrix(-1 0 0 -1 68.307 140)"><path d="m30.378922 62.611988h7.549551v14.776025h-7.549551z" fill="#4d5c7d"/><path d="m31.574043 62.611988h5.159308v14.776025h-5.159308z" fill="#64798a"/></g></svg>