<svg enable-background="new 0 0 140 140" height="512" viewBox="0 0 140 140" width="512" xmlns="http://www.w3.org/2000/svg"><circle cx="70" cy="70" fill="#45b39c" r="64"/><path d="m103.5557404 38.6416512-.0400391.0100098c-3.0999756-3.539978-8.2000122-5.0499878-12.8300171-3.4299927-2.5099487.8800049-4.5299683 2.5200195-5.8999634 4.5700073-1.6099854 2.4099731-3.9700317 4.2199707-6.75 5.0499878-5.7900391 1.7399902-11.5 3.710022-17.1400108 5.9000244-2.7000122 1.0499878-5.6699829 1.0700073-8.4299927.1599731-2.3400269-.7700195-4.9400024-.8200073-7.460022.0300293-4.2399902 1.4299927-7.1799927 5.1599731-7.8699951 9.3699951 0-.0300293-.0100098-.0599976-.0100098-.0800171-.0299683.1500244-.0299683.3099976-.0499878.4699707-.0199585.1300049-.0299683.2600098-.039978.4000244-.0300293.2600098-.0499878.5300293-.0599976.789978 0 .2300415.0100098.460022.0199585.6800537.0100098.2699585.0200195.539978.0500488.8099976.0299683.3299561.0799561.6699791.1399536.9999962.0300293.1599731.0800171.3199463.1100464.4699707.039978.1699829.0700073.3400269.1199951.5100098.0299683.1099854.0799561.210022.1099854.3200073.0300293.0999756.0499878.2000122.0800171.2999878.039978.1099854.0999756.2199707.1399536.3300171.0600586.1599731.1200562.3200073.1900024.4699707.0900269.2200317.1900024.4400024.3000488.6600342.0700073.1399536.1499634.289978.2299805.4299927.1099854.2099609.2399902.4099731.3599854.6099854.0900269.1400146.1799927.2700195.2700195.4000244.1300049.1999512.2799683.3800049.4199829.5699463.1000366.1200562.2000122.25.2999878.3700562.1500244.1799927.3099976.3499756.4700317.5099487.1099854.1199951.2199707.2300415.3300171.3400269.1399536.1300049.289978.2600098.4299927.3800049l12.1799927 12.1799927c-1.2999878-.039978-2.6099854-.2800293-3.8599854-.7299805-2.3200073-.8300171-4.9200439-.9500122-7.460022-.1600342-4.2800293 1.3300171-7.2999878 4.9799805-8.0900269 9.1699829-.0099487-.0299683-.0099487-.0499878-.0199585-.0799561-.0300293.1599731-.0300293.3199463-.0599976.4699707-.0200195.1300049-.0300293.2700195-.0500488.4000244-.0299683.2599487-.0599976.5299683-.0699463.789978-.0100098.2299805-.0100098.460022 0 .6900024 0 .2700195.0099487.5299683.0299683.7999878.0200195.3300171.0599976.6699829.1199951 1 .0200195.1600342.0599976.3200073.1000366.4799805.0299683.1700439.0599976.3400269.0999756.5100098.0299683.1100464.0700073.2200317.0999756.3300171.0300293.0900269.0500488.1900024.0800171.289978.0300293.1199951.0800171.2300415.1199951.3400269.0599976.1599731.1199951.3200073.1799927.4699707.0900269.2300415.1900024.4500122.2900391.6700439.0700073.1399536.1399536.289978.2199707.4400024.1099854.2099609.2200317.4099731.3500366.6199951.0799561.1300049.1599731.2699585.25.3999634.1299438.2000122.2699585.3900146.4099731.5800171.0900269.1300049.1900024.25.289978.3800049.1500244.1799927.3000488.3499756.460022.5200195.1099854.1199951.210022.2299805.3200073.3399658l32.0348473 32.0348511c.3106689.0044556.6177368.0234985.9294434.0234985 35.3461914 0 64-28.6538086 64-64 0-.3129883-.019165-.6213379-.0236206-.9332886z" opacity=".1"/><path d="m87.9569244 67.7511749c-2.5256653.8165283-4.5881042 2.4053345-6.0101624 4.4218521-1.6711273 2.3697052-4.068428 4.1209946-6.8653336 4.8861542-5.8339081 1.5960159-11.5955658 3.4202652-17.2849464 5.4727402-2.7275925.9839935-5.6959381.9315643-8.4263878-.0444565-2.32341-.8305283-4.9243088-.9427643-7.4595795-.1569595-5.9571648 1.8464279-9.5094109 8.1947784-7.9440765 14.2318954 1.7131767 6.6072998 8.5828819 10.3481827 15.0059395 8.3144913 2.6054955-.8249512 4.7230301-2.469635 6.1600456-4.5595245 1.6588974-2.4125748 4.2063217-4.0616989 7.0295639-4.8374481 5.6688232-1.5576324 11.2693634-3.3309021 16.8016281-5.3198318 2.7552567-.9905548 5.7876434-1.1081161 8.5328064-.08992 2.3779907.8820038 5.0562363 1.0082321 7.6617584.1832657 6.422966-2.0336609 9.8877335-9.0464401 7.4861832-15.4355927-2.1943892-5.8380128-8.7530593-8.9852144-14.6874389-7.0666658z" fill="#4d5c7d"/><path d="m57.1103783 92.0582581c.7576904 5.5809631-2.585083 11.0607605-8.1401176 12.8196106-6.2191582 1.9691238-12.8587227-1.4770355-14.827858-7.696228-.6094475-1.9248352-.7010155-3.8959808-.3424149-5.7557983.0813789.6677856.231823 1.3384552.4420967 2.0025787 1.9691391 6.2192001 8.6086655 9.6653671 14.827858 7.696228 4.2886886-1.3578949 7.2610512-4.9369889 8.0404358-9.066391z" fill="#2f4859"/><path d="m103.2961655 77.4347992c.7576904 5.5809555-2.585083 11.0607605-8.1401138 12.8196106-6.219162 1.9691238-12.8587265-1.4770355-14.827858-7.696228-.6094513-1.9248352-.7010193-3.8959885-.3424149-5.7557983.0813751.6677856.2318192 1.3384552.4420929 2.0025787 1.9691391 6.2191925 8.6086655 9.6653671 14.827858 7.696228 4.2886886-1.3578949 7.261055-4.9369965 8.0404358-9.066391z" fill="#2f4859"/><g fill="#ebf0f3"><ellipse cx="92.347" cy="75.099" opacity=".1" rx="6.575" ry="8.171" transform="matrix(.128 -.992 .992 .128 6.024 157.051)"/><ellipse cx="92.345" cy="73.319" opacity=".1" rx="3.529" ry="4.385" transform="matrix(.128 -.992 .992 .128 7.788 155.497)"/><ellipse cx="45.696" cy="90.375" opacity=".1" rx="6.575" ry="8.171" transform="matrix(.128 -.992 .992 .128 -49.793 124.102)"/><ellipse cx="45.694" cy="88.594" opacity=".1" rx="3.529" ry="4.385" transform="matrix(.128 -.992 .992 .128 -48.029 122.548)"/></g><path d="m90.6828003 35.2215576c-2.5048065.878418-4.5275421 2.5174789-5.899559 4.568367-1.6123199 2.410099-3.9658127 4.2198372-6.7430496 5.0535774-5.7928772 1.7390518-11.5079117 3.7044945-17.1450768 5.8963127-2.7025566 1.0507965-5.6712952 1.0714149-8.4249306.1628571-2.3431396-.7731171-4.9460144-.8213348-7.4611855.0266075-5.909935 1.992424-9.3049278 8.4262352-7.5915451 14.4230232 1.8752022 6.5631485 8.8348618 10.1338959 15.2059441 7.9428101 2.5844116-.8888092 4.6608429-2.585083 6.0460091-4.7096939 1.5990448-2.4526596 4.1051254-4.1639557 6.9084282-5.0089226 5.6287842-1.6966209 11.1840134-3.6071358 16.6656723-5.7315636 2.7300491-1.0580368 5.7586288-1.250164 8.5280075-.2998123 2.3989639.8232384 5.0795135.8835373 7.6639481-.0052795 6.3709946-2.1910553 9.6621857-9.2869492 7.1041794-15.6150894-2.3373414-5.7822571-8.9714585-8.7671547-14.8568421-6.7031937z" fill="#4d5c7d"/><path d="m60.4435806 60.2801476c.8947563 5.5606346-2.312191 11.1210136-7.8222771 13.0159874-6.1688309 2.1215286-12.8911667-1.1602402-15.0127068-7.3291092-.6566162-1.909256-.7966499-3.8775597-.4839096-5.7456322.0977821.6655807.2646751 1.3323479.49123 1.9910965 2.1215401 6.1688652 8.8438377 9.4506569 15.0127068 7.329113 4.2539826-1.4629898 7.137394-5.1141281 7.8149567-9.2614555z" fill="#2f4859"/><path d="m106.2556305 44.5248833c.8947601 5.5606308-2.3121872 11.1210098-7.8222733 13.0159874-6.1688309 2.1215286-12.8911667-1.160244-15.0127106-7.3291092-.6566162-1.9092636-.7966461-3.8775635-.4839096-5.7456322.0977859.6655769.264679 1.3323441.4912338 1.9910965 2.1215363 6.1688652 8.8438339 9.4506531 15.0127029 7.3291092 4.2539827-1.4629898 7.1373979-5.1141281 7.8149568-9.2614517z" fill="#2f4859"/><g fill="#ebf0f3"><ellipse cx="95.253" cy="42.459" opacity=".1" rx="6.575" ry="8.171" transform="matrix(.104 -.995 .995 .104 43.133 132.789)"/><ellipse cx="95.207" cy="40.679" opacity=".1" rx="3.529" ry="4.385" transform="matrix(.104 -.995 .995 .104 44.863 131.148)"/><ellipse cx="48.991" cy="58.878" opacity=".1" rx="6.575" ry="8.171" transform="matrix(.104 -.995 .995 .104 -14.655 101.491)"/><ellipse cx="48.945" cy="57.098" opacity=".1" rx="3.529" ry="4.385" transform="matrix(.104 -.995 .995 .104 -12.926 99.851)"/></g></svg>