<svg enable-background="new 0 0 140 140" height="512" viewBox="0 0 140 140" width="512" xmlns="http://www.w3.org/2000/svg"><circle cx="70" cy="70" fill="#e05b49" r="64"/><path d="m21.7606354 74.1916351 58.9066162 58.9064941c29.3945312-4.9343262 51.9869385-29.8931885 53.2640381-60.3760376l-15.7805176-15.7804527c-.2099609.1700439-2.8901367 2.4400024-6.2700195 4.8800049-4.4200439 3.1899986-10.0500488 6.6800499-13 6.1800499-3.1300049-.5100098-11.8500977-3.1900024-21.6400146-5.6000328l-5.6099854-5.6199951-.0100098.0100098c-.0900879-.0800171-.1899414-.1400146-.3200684-.1799927-.1499023-.0400391-.2900391-.0900269-.4299316-.1400146l-7.4399414-7.4500122c-.3701172-.4500122-1.1101074-.3900146-1.3500977.1900024-3.5500488 8.2999878-8.0200195 9.2000122-8.0200195 9.2000122l.0300293.0100098c-7.2199707-.0200195-14.4499512 2.3800049-20.1699219 4.9699707h-.0100098c-5.75 2.6100426-9.9799805 5.4100304-11.1101074 6.1300011-1.1899414.75-1.3199463 1.3800049-1.1499023 1.8200073.0799561.210022.2199707.3699951.3598633.5l.2301025.2200317-1.0200195.3299561c-.3199463.25-.3299561.5599976-.1900635.8900146.1401367.2999878.4101563.6199951.7299805.9099731z" opacity=".1"/><path d="m71.2987976 56.6163292c-4.1828156-1.1383781-6.6397018-5.0911865-7.7616997-7.4346123-.2968369-.62006-1.1828384-.6051445-1.453083.0270271-3.5517464 8.3079071-8.0257912 9.2074051-8.0257912 9.2074051l11.6913185 3.4009209 5.7682114-3.7690048c.5721283-.3738442.4405136-1.2522736-.218956-1.431736z" fill="#f7be56"/><path d="m67.7363968 90.3995743-.6343765-3.7429276c-.059967-.3537979-.3624039-.6100769-.7210999-.6213608-1.1466141-.0359802-3.5761223-.4464722-4.4186516-3.1845703-1.1181374-3.6339264-3.5407791 1.7703857-3.5407791 1.7703857s1.921608 4.8456039 8.3752556 6.6259689c.5267563.1453019 1.0309448-.3087844.9396515-.8474959z" fill="#f7be56"/><path d="m111.2803955 78.8204498c-4.7897339-2.7083054-10.6393738-5.2097778-14.0328445-3.2512436-6.5477753 3.7748108-18.5186462 10.0769577-35.8995857 9.6956177-11.822216-.2520905-21.259346-1.796936-28.6991234-4.7444-3.5033016-1.3767853-6.5606403-3.070282-9.217308-5.0804977 0 0-3.4709492-2.0554657-2.2105503-3.0444412l1.0793934-.3554916s-1.8873615-1.0083466.5041924-2.5208817c1.1246853-.7109909 5.3519993-3.5162735 11.1112175-6.1276169 6.4766884-2.9345245 14.8924179-5.6299362 23.0238571-4.8283997 15.3708038 1.5124969 36.6558762 8.5644608 41.9432526 9.4435272 2.9474258.4912491 8.5773239-2.9927216 12.9985809-6.1858139 3.5227127-2.5402451 6.2762756-4.8995285 6.2762756-4.8995285s-1.2603989 8.3253098-6.7998734 13.7354584c-.0774841.0775604-.1421814.1422272-.2132721.2068481 1.1828308 1.8550873 7.4397736 11.6153717 7.8987503 12.6366119.245552.5494385-3.2965699-2.1588668-7.7629624-4.6797485z" fill="#fcd462"/><path d="m36.0997925 71.1004562c0 3.6390915-1.3056908 6.9485321-3.4516983 9.4176483-3.5032997-1.3767471-6.5606384-3.070282-9.2173061-5.0804977 0 0-3.4709492-2.0554657-2.2105503-3.0443954l1.0793953-.3555374s-1.8873634-1.0083466.5041904-2.5208435c1.1246853-.7110291 5.3519993-3.5162735 11.1111393-6.127655 1.3833313 2.2041625 2.1848297 4.8542785 2.1848297 7.7112807z" fill="#f7be56"/><path d="m28.7150707 68.8534241c-.439806 0-.7964478.3565216-.7964478.7963715 0 .4398041.3566418.7963257.7964478.7963257s.7962894-.3565216.7962894-.7963257c.0000001-.4398499-.3564834-.7963715-.7962894-.7963715z" fill="#4d5c7d"/><g fill="#f7be56"><path d="m47.1236649 68.750885c-.1228142 0-.2423897-.0129013-.3587341-.0355453.811203-.1713028 1.4155617-.8887711 1.4155617-1.745224s-.6043587-1.5739212-1.4155617-1.7452164c.1163445-.0226059.23592-.0355453.3587341-.0355453.982502 0 1.7807655.7983017 1.7807655 1.7807617s-.7982636 1.7807693-1.7807655 1.7807693z"/><path d="m47.1236649 76.625885c-.1228142 0-.2423897-.0129013-.3587341-.0355453.811203-.1712952 1.4155617-.8887634 1.4155617-1.7452164 0-.8564606-.6043587-1.5739212-1.4155617-1.745224.1163445-.0226059.23592-.0355453.3587341-.0355453.982502 0 1.7807655.7983017 1.7807655 1.7807693 0 .98246-.7982636 1.7807617-1.7807655 1.7807617z"/><path d="m50.7987099 72.8797913c-.1228142 0-.2423897-.0129013-.3587341-.0355453.811203-.1713028 1.4155617-.8887634 1.4155617-1.745224 0-.8564529-.6043587-1.5739212-1.4155617-1.7452164.1163445-.0226059.23592-.0355453.3587341-.0355453.982502 0 1.7807655.7983017 1.7807655 1.7807617 0 .9824676-.7982635 1.7807693-1.7807655 1.7807693z"/><path d="m56.3449097 70.5316467c-.1228104 0-.2423897-.0129013-.3587303-.0355453.811203-.1712952 1.4155617-.8887634 1.4155617-1.7452164 0-.8564606-.6043587-1.5739212-1.4155617-1.745224.1163406-.0226059.23592-.0355453.3587303-.0355453.982502 0 1.7807655.7983017 1.7807655 1.7807693 0 .98246-.7982635 1.7807617-1.7807655 1.7807617z"/><path d="m61.303566 78.4066544c-.1228142 0-.2423935-.0129013-.3587341-.0355453.811203-.1713028 1.4155617-.8887711 1.4155617-1.745224s-.6043587-1.5739212-1.4155617-1.7452164c.1163406-.0226059.23592-.0355453.3587341-.0355453.982502 0 1.7807655.7983017 1.7807655 1.7807617s-.7982635 1.7807693-1.7807655 1.7807693z"/><path d="m56.9671059 76.625885c-.1228104 0-.2423897-.0129013-.3587303-.0355453.811203-.1712952 1.4155617-.8887634 1.4155617-1.7452164 0-.8564606-.6043587-1.5739212-1.4155617-1.745224.1163406-.0226059.23592-.0355453.3587303-.0355453.9825058 0 1.7807655.7983017 1.7807655 1.7807693 0 .98246-.7982597 1.7807617-1.7807655 1.7807617z"/><path d="m61.303566 69.6497726c-.1228142 0-.2423935-.0129013-.3587341-.0355453.811203-.1712952 1.4155617-.8887634 1.4155617-1.7452164s-.6043587-1.5739212-1.4155617-1.745224c.1163406-.0226059.23592-.0355453.3587341-.0355453.982502 0 1.7807655.7983017 1.7807655 1.7807693 0 .98246-.7982635 1.7807617-1.7807655 1.7807617z"/><path d="m65.1818085 74.0931778c-.1228104 0-.2423859-.0129013-.3587265-.0355453.811203-.1712952 1.4155579-.8887634 1.4155579-1.7452164 0-.8564606-.6043549-1.5739212-1.4155579-1.745224.1163406-.0226059.2359161-.0355453.3587265-.0355453.9825058 0 1.7807693.7983017 1.7807693 1.7807693 0 .98246-.7982635 1.7807617-1.7807693 1.7807617z"/><path d="m69.2884674 69.6497726c-.122818 0-.2423935-.0129013-.3587341-.0355453.811203-.1712952 1.4155579-.8887634 1.4155579-1.7452164s-.6043549-1.5739212-1.4155579-1.745224c.1163406-.0226059.2359161-.0355453.3587341-.0355453.9824982 0 1.7807617.7983017 1.7807617 1.7807693 0 .98246-.7982635 1.7807617-1.7807617 1.7807617z"/><path d="m70.0986557 76.625885c-.122818 0-.2423935-.0129013-.3587341-.0355453.811203-.1712952 1.4155579-.8887634 1.4155579-1.7452164 0-.8564606-.6043549-1.5739212-1.4155579-1.745224.1163406-.0226059.2359161-.0355453.3587341-.0355453.9824982 0 1.7807617.7983017 1.7807617 1.7807693 0 .98246-.7982635 1.7807617-1.7807617 1.7807617z"/><path d="m52.9382095 66.2103958c-.1228142 0-.2423935-.0129013-.3587341-.0355453.811203-.1713028 1.4155617-.8887634 1.4155617-1.745224 0-.8564529-.6043587-1.5739174-1.4155617-1.7452164.1163406-.0226059.23592-.0355453.3587341-.0355453.982502 0 1.7807617.7983017 1.7807617 1.7807617.0000001.9824676-.7982597 1.7807693-1.7807617 1.7807693z"/><path d="m52.2774582 78.7863541c-.1228104 0-.2423897-.0129013-.3587303-.0355453.811203-.1712952 1.4155617-.8887634 1.4155617-1.7452164s-.6043587-1.5739212-1.4155617-1.745224c.1163406-.0226059.23592-.0355453.3587303-.0355453.982502 0 1.7807655.7983017 1.7807655 1.7807693 0 .98246-.7982635 1.7807617-1.7807655 1.7807617z"/><path d="m119.0433578 83.5001984c-.4589767-1.0212402-6.7159195-10.7815247-7.8987503-12.6366119.0710907-.064621.135788-.1292877.2132721-.2068481 5.5394745-5.4101486 6.7998734-13.7354584 6.7998734-13.7354584s-2.7535629 2.3592834-6.2762756 4.8995285c-1.725769 3.2835922-3.58741 6.6834946-6.8257523 8.4093399 2.9798584 2.0360565 5.2162933 5.1257477 6.2246704 8.5903015 4.4663925 2.5208816 8.0085144 5.2291869 7.7629623 4.6797485z"/></g></svg>