<svg enable-background="new 0 0 140 140" height="512" viewBox="0 0 140 140" width="512" xmlns="http://www.w3.org/2000/svg"><circle cx="70" cy="70" fill="#e05b49" r="64"/><path d="m107.2978439 44.4116707h-3.7199707l-11.5999756-11.5999756-18.3000488-.0599976v-.0100098h-7.3599854v.0100098l-18.299984.0599976s2.960022 7.5899658 1.5599976 16.6900024l-8.1400146-8.1400146-2.8599854 3.0499878h-5.8699951v4.7399902l12.2299805 12.2299805c-.789978 1.1900024-1.5100098 2.4100342-2.1300049 3.7000084-1.3299561 2.75-2.1900024 5.6900024-2.4199829 8.7600098-.3300171 4.2700195.1300049 9.7299805 2.6400146 15.9500122 2.7999878 6.9400024 4.3699951 13.1599731 5.2199707 17.4699707l26.541317 26.5413208c32.7492065-2.4255371 58.6278763-29.4802246 59.1833572-62.7166138z" opacity=".1"/><path d="m48.2524071 107.2624588h43.4943352c.852684-4.3094635 2.4178543-10.5277634 5.2182388-17.4708481 2.5132446-6.222023 2.9757767-11.6761093 2.644165-15.9520721-.2356339-3.0542908-1.0995483-6.0038605-2.4172668-8.752739-.6370163-1.3351326-1.3874893-2.6179619-2.2165222-3.8483772-1.6057053-2.3736458-2.7314072-4.8083305-3.4993439-7.2081261-3.4993515-10.9692574.5061493-21.2141953.5061493-21.2141953l-18.3082962-.0610924v-.0174713l-3.6738358.0087357-3.6826248-.0087357v.0174713l-18.2995148.0610924s4.0054512 10.2449379.5061569 21.2141953c-.7679405 2.3997955-1.8936958 4.8344803-3.4993477 7.2081261-.8290329 1.2304153-1.5795021 2.504509-2.2165756 3.8396416-1.3263969 2.7488785-2.1903152 5.6984482-2.4172134 8.7614746-.3316116 4.2759628.130867 9.7300491 2.635376 15.9520721 2.8050194 6.9430847 4.3723755 13.1613846 5.22612 17.4708481z" fill="#f7be56"/><path d="m50.0914497 107.2624588h39.8163261c.780571-4.3094635 2.2133865-10.5277634 4.7769623-17.4708481 2.3007202-6.222023 2.7241364-11.6761093 2.4205704-15.9520721-.2157059-3.0542908-1.0065689-6.0038605-2.2128601-8.752739-.5831451-1.3351326-1.2701569-2.6179619-2.0290833-3.8483772-1.4699173-2.3736458-2.5004272-4.8083305-3.2034302-7.2081261-3.2034302-10.9692574.4633484-21.2141953.4633484-21.2141953l-16.7600937-.0610924v-.0174713l-3.3631668.0087357-3.3712082-.0087357v.0174713l-16.7520485.0610924s3.6667366 10.2449379.4633522 21.2141953c-.7029991 2.3997955-1.7335587 4.8344803-3.203434 7.2081261-.7589264 1.2304153-1.4459305 2.504509-2.0291328 3.8396416-1.2142334 2.7488785-2.0050926 5.6984482-2.2128067 8.7614746-.3035698 4.2759628.1198006 9.7300491 2.4125214 15.9520721 2.5678177 6.9430847 4.0026322 13.1613846 4.7841835 17.4708481z" fill="#fcd462"/><path d="m97.1918793 65.0867996c-19.4165345 4.9741364-25.4203949 15.4459686-27.1918488 22.6889801-1.7715149-7.2430115-7.7753716-17.7148438-27.191906-22.6977158.6370735-1.3351326 1.3875427-2.6092262 2.2165756-3.8396416 1.6056519-2.3736458 2.7314072-4.8083305 3.4993477-7.2081261 3.350956 2.8273888 10.1925812 6.9899597 21.4759827 7.1295624 11.2834015-.1396026 18.1249695-4.3021735 21.4759827-7.1295623.7679367 2.3997955 1.8936386 4.8344803 3.4993439 7.2081261.8290329 1.2304153 1.5795059 2.5132446 2.2165222 3.8483772z" fill="#4d5c7d"/><g fill="#474c5b"><path d="m49.9424362 57.9758797c-.1581078-.1014481-.312973-.2023544-.4635239-.3027229l.1532478-.2298698c.1494713.0992851.3021812.1991119.4592056.2994804z"/><path d="m69.9743347 63.5084877c-.1786118-.0021553-.3529053-.005394-.5261154-.0091705l.0064774-.2762794c.1721344.0037766.3453445.0070152.5196381.0091705.1823883-.0021553.366394-.005394.549324-.0102501l.0075531.2762794c-.1840058.0048561-.3701706.0080948-.5568772.0102501zm-1.6058731-.0469437c-.3637009-.0167274-.7230759-.0377731-1.0775986-.0631332l.0194244-.2752037c.3523636.0242844.7095871.04533 1.0711212.0620575zm3.2408905-.0010795-.0129547-.2762794c.3615417-.0167274.7187653-.0377731 1.0716705-.0620575l.0194244.2752037c-.3550643.02536-.714447.0464057-1.0781402.0631332zm-5.3944702-.1494713c-.3626175-.0339966-.7203751-.0728493-1.0732803-.1149368l.0323715-.2741203c.3507462.0420876.7063522.0798607 1.0668106.1138573zm7.5485916-.0016213-.0259018-.2751999c.3604584-.0339928.7160568-.0717659 1.066803-.1133156l.0323792.2741203c-.3529053.0415498-.7106629.0804025-1.0732804.1143952zm-9.6930008-.254692c-.3604546-.0523453-.7160568-.1084633-1.0662651-.1688995l.0464058-.2719612c.3480492.0593567.7014923.1154747 1.0597916.1678162zm11.8368607-.0010796-.0399246-.2730446c.3588333-.0523415.7122803-.1084595 1.0603256-.1678162l.0464096.2719612c-.3502045.0604363-.7058106.1165543-1.0668106.1688996zm2.1287613-.3647766-.0539627-.2708855c.3556061-.0706863.7052689-.145153 1.0490036-.2228584l.0604324.2698059c-.3458862.0777054-.6977158.1532478-1.0554733.223938zm-16.0943756 0c-.3577614-.0706902-.710125-.1462326-1.056015-.2250175l.0615158-.2698059c.3437309.0787849.6928558.1532516 1.0484581.223938zm18.2010116-.4786339-.0690765-.2676468c.3518295-.0901146.6971741-.1845436 1.0355148-.2811356l.0755463.2654877c-.3404999.0976716-.6880036.1921006-1.0419846.2832947zm-20.307106-.0010795c-.3539848-.091732-.7014923-.1861649-1.0419846-.2843742l.0766258-.2654877c.3383331.0971298.6826019.1915627 1.0344276.2822151zm22.3835144-.5957261-.0841751-.2633324c.3464279-.1106186.684761-.2244759 1.0166245-.3410301l.0917282.2600899c-.3340149.1176339-.6755906.2325707-1.0241776.3442726zm-24.4593887-.0027008c-.3491287-.1116982-.6901627-.226635-1.0236397-.3448105l.091732-.2600899c.3313217.1170959.6701965.2309532 1.0160866.3415718zm26.4974975-.7155189-.1003723-.2579346c.3399582-.1316643.6712723-.2660255.9939651-.4025497l.1079178.2546959c-.3259201.1375999-.6594009.2730446-1.0015106.4057884zm-28.5339813-.0048561c-.3426552-.132206-.6766701-.2681885-1.0015144-.4063263l.1079216-.2546959c.3226852.1370621.6534653.2719612.992878.4030876zm30.5240555-.8380127-.1154785-.2503815c.3318634-.1532478.654007-.3086548.9653625-.4651413l.1241074.247139c-.3145905.1575661-.6388932.3140526-.9739914.4683838zm-32.5141335-.0064774c-.3340187-.155407-.6588631-.3118935-.9734573-.4699974l.1241112-.2471428c.3124352.1570282.6340408.3124352.9659004.4667625zm34.446476-.9621238-.1316681-.2428207c.3226852-.1753731.6334991-.3518257.9324493-.5277405l.1402969.2374306c-.3011016.17807-.615158.3556022-.9410781.5331306zm-36.3782768-.0091706c-.3248444-.1775322-.6383591-.3556023-.9394608-.534214l.1403008-.2374268c.2989426.1764526.6092186.3534431.9313622.5288162z"/><path d="m90.0569611 57.975338-.1489334-.2331085c.1570282-.0998306.3102798-.1996574.4592056-.2989426l.1532516.2298698c-.1510925.1003685-.3054199.2012749-.4635238.3021813z"/><path d="m93.4381485 63.9930573-.0809402-.2644082.5304336-.1613426.0798645.2644081z"/><path d="m70.9084015 80.0205231-.2385101-.1392212c.1813126-.3124313.371254-.6254044.5698318-.9383774l.2331085.14785c-.1964187.3097382-.384201.6194764-.5644302.9297486zm1.1639328-1.8362885-.2277145-.1575699c.2055893-.2967834.419281-.5941086.6415939-.890892l.2212448.1661987c-.2201614.2935486-.4316864.5876389-.6351242.8822632zm1.303154-1.7397003-.2147598-.1737518c.2271729-.2811356.4624405-.5617371.7058105-.8407135l.2082825.1813126c-.2412033.2768173-.4743119.5541763-.6993332.8331527zm1.4299698-1.6398697-.2018127-.1888657c.247139-.2633286.5023727-.5261154.7651596-.7867508l.1942596.1964188c-.2606278.2584763-.5126267.5180283-.7576065.7791977zm1.5438156-1.5324936-.1877823-.2018127c.2644119-.2465973.536911-.4905014.8175049-.7327881l.1802368.2093658c-.277359.2401276-.5477066.4818726-.8099594.725235zm1.6441879-1.4234848-.1737518-.2147675c.2800598-.2271729.5676727-.45327.8622971-.6777496l.1672745.2201614c-.2924653.2223206-.5779191.4462586-.8558198.6723557zm1.7316055-1.3182678-.1607971-.224472c.293541-.2099075.5941086-.4176636.9022217-.6237946l.1532516.2298737c-.3048782.2039718-.6032867.4106445-.8946762.6183929zm1.8082352-1.2119598-.1478577-.2331086c.3048782-.1931839.6167755-.383667.9351425-.572525l.1413803.2374268c-.3162154.1877823-.625946.377182-.9286651.5682068zm1.8729782-1.1115952-.134903-.241745c.3151321-.1759109.6362-.3502045.9632034-.5223389l.1284256.2449799c-.3248443.1710587-.643753.3442688-.956726.519104zm1.9274826-1.0144653-.1230316-.247139c.3232269-.1608047.6523895-.3194504.9874878-.4759369l.1165543.2503815c-.3329392.1554031-.6599427.312973-.9810105.4726944zm1.9728089-.9238129-.1111526-.252533c.3302383-.1456909.6658707-.289772 1.0069046-.4311447l.1057663.2546921c-.3388749.1413803-.6723557.2843704-1.0015183.4289856zm2.012207-.8369293-.1014481-.2568512c.336174-.1322098.6772079-.2617111 1.0236359-.3901367l.0960541.2590103c-.3448105.1273498-.684227.2568512-1.0182419.3879776zm2.0445785-.7559891-.0917358-.2611771c.3415756-.1192474.6869202-.2363434 1.0376663-.3512802l.0863419.2622452c-.3485871.1149368-.6928635.230957-1.0322724.3502121z"/><path d="m70.0002365 81.7186737-.1235657-.2460632c-.0809479-.1618805-.1645813-.3237686-.2503815-.4861908l.2449799-.1284256c.0431671.0825653.0863419.165123.1289673.2476807.0426331-.0825577.0858002-.1651154.1289673-.2476807l.2449799.1284256c-.0857925.1624222-.1694336.3243103-.2503738.4861908z"/><path d="m69.1023254 80.0394058c-.1791458-.3097305-.3669281-.6200104-.5628052-.9292068l.2331085-.14785c.1980362.3124313.3879776.625946.5692825.9389191zm-1.162857-1.8373642c-.2028885-.2946243-.4138794-.5892563-.6340408-.8828049l.2212448-.1661987c.2223206.2967911.435463.5946503.6405106.8925171zm-1.3009949-1.7413177c-.2250137-.2789764-.4581299-.5568771-.6987915-.8336945l.2082901-.1813126c.2428207.2795181.4780884.560112.7052689.8412552zm-1.4288864-1.6398697c-.2449799-.2611771-.4975204-.5212631-.7576065-.7808151l.1953354-.195343c.2622528.2617111.5169449.5239639.7640839.7872925zm-1.5416603-1.534111c-.2627907-.2433624-.5325928-.4861908-.8099518-.7268524l.1813087-.2082901c.2795181.2428207.5514793.4867249.8164291.7322464zm-1.6431084-1.4267273c-.2779007-.2260971-.5628128-.4500351-.8552818-.6728897l.1672783-.2201614c.2946281.2250137.5816994.4511108.8617554.6782913zm-1.7321434-1.3188019c-.2913895-.2082901-.5897942-.4149628-.8946724-.6200104l.1543274-.2287979c.3070374.206131.6076012.4138794.9011459.6243286zm-1.8066139-1.214119c-.303257-.1910248-.6124535-.3809662-.9281273-.5687485l.1413803-.2374268c.3178291.188858.6291809.3798828.9346008.5730591zm-1.8719025-1.1126785c-.312973-.1753693-.6318817-.348587-.9572639-.5201797l.1295052-.2439041c.3264618.1726761.6475296.3469696.9626617.5234222zm-1.9269447-1.0160828c-.321064-.1597214-.6486092-.3172913-.9810066-.4737778l.1176338-.2503738c.3345566.1575623.6631813.3162079.9864044.4770126zm-1.9728088-.9248886c-.328083-.1451569-.6615601-.2881546-1.0009727-.430069l.106842-.2546921c.3404922.1419144.6761284.2859879 1.0063705.4322281zm-2.0116616-.8385544c-.3340187-.1311188-.6739731-.2611694-1.0182419-.3890533l.0960503-.2590179c.3464279.1289673.6874619.2590179 1.0236397.3912201zm-2.043499-.7576065c-.3399544-.1187134-.6842232-.2352753-1.0328102-.3507462l.0863342-.2622528c.3507462.1154785.6960983.2331085 1.0371284.3518295z"/><path d="m46.5623245 63.9865837c-.1748352-.0539627-.351284-.1079216-.5282784-.1613426l.0798645-.2644081c.1780701.053421.3545227.1073799.5304337.1624222z"/></g><path d="m70.4414673 107.2624588-.4414368-19.4866791-.6412277 19.4866791z" fill="#f7be56"/><path d="m70.0000229 52.016655c-.7282028 0-1.318512.5903091-1.318512 1.3184586 0 .7282066.5903091 1.3185158 1.318512 1.3185158.7282104 0 1.3184662-.5903091 1.3184662-1.3185158 0-.7281495-.5902558-1.3184586-1.3184662-1.3184586z" fill="#f7be56"/><g fill="#d5d6db"><path d="m107.2931137 44.4077492h-8.728241v-3.04562l-5.4195633 5.4195633 5.4195633 5.4196281v-3.0456848h8.728241z"/><path d="m32.7068863 49.1557007h8.728241v3.0456199l5.4195633-5.4195594-5.4195633-5.419632v3.0456886h-8.728241z"/></g></svg>