<svg enable-background="new 0 0 140 140" height="512" viewBox="0 0 140 140" width="512" xmlns="http://www.w3.org/2000/svg"><circle cx="70" cy="70" fill="#efc84a" r="64"/><path d="m33.8478966 83.6616669 48.9470177 49.0565186c27.2223511-5.5238647 48.165596-28.3254395 50.896431-56.4610596l-16.7834549-16.7954674c-.1199951-.1600342-.2700195-.289978-.4500122-.3900146-6.5200195-3.4500122-18.3599854-4.8999634-26.4299927-4.0100098-8.4100342.9299927-13.9200439 5.0100098-13.9200439 5.0100098-.5699463.2700195-1.3399658.1600342-1.9199829 0-.7099609-.2000122-1.4400024-.3099976-2.1799927-.3099976h-4.0200195c-.7299805 0-1.4599609.1099854-2.1699829.3099976-.5899658.1600342-1.3599854.2700195-1.9299889 0 0 0-5.5-4.0800171-13.9199829-5.0100098-8.0700073-.8899536-19.9000263.5599976-26.4200459 4.0100098-.4899902.2600098-.7999878.7600098-.7999878 1.3200073v1.6099854c0 .460022.2300415.8800049.5900269 1.1600342l3.0299683 3.0299644c.1700439.3500366.3099976.710022.4000244 1.1199951.6799927 3.1000366 1.9199829 11.1400146 5.3200092 14.7300415.5399779.5599975 1.1300048 1.1099853 1.7600097 1.6199951z" opacity=".1"/><path d="m28.5724144 61.9105568s5.3410645 2.1502953 7.6994591 5.0636101c2.3583908 2.9133072 6.1040764 10.3353043 6.1040764 12.0000534s-1.6647491 2.289032-2.7745819 1.0404663c-1.1098289-1.248558-2.0726891-5.9106064-4.7616806-9.4959259-2.3021736-3.0695648-2.244133-3.1284103-6.2672729-4.4463348v-4.1618691z" fill="#4d5c7d"/><path d="m33.1570778 58.5369415s-4.4385986 1.4237022-3.7686214 9.9659119 4.6071529 16.7103729 14.5720043 17.0006714c8.9401093.2604523 11.9758453-2.0099335 16.6656837-8.0397263s4.857338-13.8182793.837471-16.3306961c-4.0198631-2.512413-15.0744858-7.3697471-28.3065376-2.5961609z" fill="#ebf0f3" opacity=".5"/><path d="m111.4275818 61.9105568s-5.3410645 2.1502953-7.6994553 5.0636101c-2.3583908 2.9133072-6.1040802 10.3353043-6.1040802 12.0000534s1.6647491 2.289032 2.7745819 1.0404663c1.1098328-1.248558 2.0726929-5.9106064 4.7616806-9.4959259 2.3021774-3.0695648 2.244133-3.1284103 6.2672729-4.4463348v-4.1618691z" fill="#4d5c7d"/><path d="m106.6461411 58.7167244s4.3746719 1.4031982 3.7143478 9.8223839c-.6603317 8.4191895-4.5408096 16.4697113-14.3621445 16.7558365-8.8113556.2566986-11.8033676-1.9809875-16.4256668-7.9239426s-4.787384-13.6192741-.8254089-16.0955048c3.9619674-2.4762306 14.8573837-7.2636146 27.8988724-2.558773z" fill="#ebf0f3" opacity=".5"/><path d="m116.453537 59.068615c-6.5195999-3.4511719-18.3512115-4.8963051-26.4248123-4.0054665-8.4134521.9287796-13.9201355 5.011776-13.9201355 5.011776-.5692139.2680779-1.3383331.1547394-1.9237823-.0054665-.7091293-.1940536-1.4384842-.3046761-2.1736908-.3046761h-4.0222321c-.7352066 0-1.4645615.1106224-2.1736908.3046761-.5854492.1602058-1.3545685.2735443-1.9237785.0054665 0 0-5.5066872-4.0829964-13.9201355-5.011776-8.0736046-.8908386-19.9052181.5542946-26.4248199 4.0054665-.489954.2589951-.7968159.7654419-.7968159 1.3197556v1.6101074c0 .5394516.2936516 1.032711.7638111 1.2999382 1.0294285.5839996 2.784687 1.8658142 3.2565174 4.0137253.6813049 3.0948334 1.9185772 11.1371002 5.3219013 14.7251892 3.4016724 3.588089 8.6609039 6.4964828 18.3116226 4.9490814 9.6523743-1.545784 14.1675873-11.8778076 14.1675873-11.8778076s2.103363-4.2694168 2.3508224-6.2490463c.2474518-1.9796371-1.1745834-3.2169113-.4949112-3.7745056.6040039-.492859 1.0632935-1.8609849 3.5730057-1.9068376 2.5097122.0458527 2.9690018 1.4139786 3.5730057 1.9068375.6796722.5575943-.742363 1.7948685-.4949112 3.7745056.2474594 1.9796295 2.3508224 6.2490463 2.3508224 6.2490463s4.515213 10.3320236 14.1675873 11.8778076c9.6507187 1.5474014 14.9099503-1.3609924 18.3116226-4.9490814 3.4033203-3.588089 4.6405945-11.6303558 5.3218994-14.7251892.4718323-2.1479111 2.2270889-3.4297256 3.2565231-4.0137253.4701538-.2672272.7638092-.7604866.7638092-1.2999382v-1.6101074c.0000001-.5543136-.3068618-1.0607605-.7968215-1.3197555zm-56.1749535 18.2324409c-4.5713081 5.8778458-7.5308647 8.0917511-16.246212 7.8377075-9.7134094-.2837601-13.5505829-8.2451935-14.2038765-16.5728607-.6532936-8.3260078 3.6738739-9.7150574 3.6738739-9.7150574 12.8973351-4.6521378 23.6731377.0824852 27.5928192 2.532299 3.918026 2.4481202 3.7546959 10.0400277-.8166046 15.9179116zm49.8929253-8.7351532c-.6532974 8.3276672-4.4904709 16.2891006-14.2038803 16.5728607-8.7153473.2540436-11.6749039-1.9598618-16.2462158-7.8377075-4.5712967-5.8778839-4.7346268-13.4697914-.816597-15.9179115 3.9196777-2.4498138 14.6954803-7.1844368 27.5928116-2.532299 0-.0000001 4.3271713 1.3890495 3.6738815 9.7150573z" fill="#64798a"/></svg>