<svg enable-background="new 0 0 140 140" height="512" viewBox="0 0 140 140" width="512" xmlns="http://www.w3.org/2000/svg"><circle cx="70" cy="70" fill="#ea8953" r="64"/><path d="m24.7500153 80.8916473 52.6669312 52.6669312c27.3862915-3.1626587 49.5016479-23.6011963 55.1640625-50.1459351l-32.3109741-32.3109703c-.5100098-.4500122-1.1700439-.7399902-1.9000244-.7399902-.1300049 0-.2600098.0199585-.3900146.039978l-3.5599976-3.5599976c-.5199585-.6600342-1.3099976-1.1000366-2.2199707-1.1000366-.1099854 0-.2200317.0200195-.3300171.0300293l-3.7000122-3.7000122c-.5199585-.6499634-1.3099976-1.0800171-2.2000122-1.0800171-1.5599976 0-2.8199463 1.2600098-2.8199463 2.8099976v4.4000244l-17.6700441-17.6799946c-.2399902-.3099976-.5499878-.5800171-.9199829-.7800293-1.3699951-.7299805-3.0800171-.2099609-3.8099976 1.1600342l-1.4000244 2.6300068-1.7099609-1.7200336c-.25-.3599854-.5800171-.6799927-.9899902-.8999634-1.3800049-.7300415-3.0900269-.210022-3.8200073 1.1599751l-8.7300415 16.2600098-4.7199707-4.710022c-.5499878-.6599731-1.3400269-1.1199951-2.2700195-1.2299805-1.4799805-.1699829-2.8599854.6099854-3.5199585 1.8599854-.2000122.3699951-.3400269.7999878-.3900146 1.25l-3.0300293 27.1000328z" opacity=".1"/><path d="m24.7507114 80.8961105 5.4204426-8.298317 3.0304489-27.0989761c.0490341-.4508553.1894302-.8742714.3871651-1.2460442.6634827-1.247467 2.0435715-2.0289955 3.5211372-1.8578491 1.9366417.2245522 3.3240471 1.9799271 3.0994949 3.9165688l-1.3735618 11.8284111 3.6409912-6.785862 10.3517075-19.2837295c.7293777-1.3713589 2.4378815-1.8934727 3.8175087-1.1596966 1.3714104.7294064 1.8934746 2.4378834 1.1640968 3.8092442l-10.1060142 19.0010528.7104645.3778725 12.3381004-23.1977749c.7294083-1.3714085 2.4378853-1.8934727 3.8092422-1.1640949 1.3713608.7293797 1.8935013 2.4378319 1.164093 3.8092422l-12.3381004 23.197773.5287361.2812195 10.1060104-19.0010567c.7293777-1.371357 2.4295654-1.8978996 3.8091965-1.1641197 1.3714066.7294044 1.8934708 2.4378815 1.164093 3.8092384l-10.1060142 19.0010567.4791718.2548561 7.9310188-14.9116898c.7337723-1.3796272 2.4340134-1.9061394 3.8136368-1.1723633 1.3713608.7293777 1.8934708 2.4378853 1.1596985 3.8175125l-18.0495186 33.5775529-.0933609.2153091-5.0998268 12.3583908z" fill="#ebf0f3"/><path d="m54.2239571 81.2361374-.0933609.2153091c-4.3495331-3.4791565-7.9113846-8.8180389-9.9556046-15.5754166-1.4453812-4.7748756-1.9734077-9.7401466-1.6981621-14.5219879l10.3517075-19.2837295c.7293777-1.3713589 2.4378815-1.8934727 3.8175087-1.1596966 1.3714104.7294064 1.8934746 2.4378834 1.1640968 3.8092442l-10.1060142 19.0010528.7104645.3778725 12.3381004-23.1977749c.7294083-1.3714085 2.4378853-1.8934727 3.8092422-1.1640949 1.3713608.7293797 1.8935013 2.4378319 1.164093 3.8092422l-12.3381004 23.197773.5287361.2812195 10.1060104-19.0010567c.7293777-1.371357 2.4295654-1.8978996 3.8091965-1.1641197 1.3714066.7294044 1.8934708 2.4378815 1.164093 3.8092384l-10.1060142 19.0010567.4791718.2548561 7.9310188-14.9116898c.7337723-1.3796272 2.4340134-1.9061394 3.8136368-1.1723633 1.3713608.7293777 1.8934708 2.4378853 1.1596985 3.8175125z" fill="#e6e9ef"/><path d="m74.8400192 104.8493042.8889389-9.8718262-10.0495529-25.348465c-.1684265-.4210815-.2433014-.8608398-.2433014-1.2819214 0-1.4129333.8514786-2.7509995 2.2363739-3.2937317 1.8152847-.7111511 3.864502.1871567 4.5756531 2.0024414l4.3416748 11.0881882.0280991-7.7009048.0841751-21.886364c0-1.5532608 1.2632523-2.8165092 2.825882-2.8165092 1.5533142 0 2.8165054 1.2632484 2.8165054 2.8165092v21.5214195h.8047028v-26.274807c0-1.553318 1.2632446-2.8165092 2.8165054-2.8165092s2.8165054 1.2631912 2.8165054 2.8165092v26.274807h.5988693v-21.5214195c0-1.5532608 1.25383-2.8165092 2.816452-2.8165092 1.5533218 0 2.8165131 1.2632484 2.8165131 2.8165092v21.5214195h.5427246v-16.8896255c0-1.5626259 1.2538834-2.8258743 2.8165131-2.8258743 1.5532608 0 2.8165054 1.2632484 2.8165054 2.8258743l-.1684189 38.1209793.0186768.2339249 1.3006516 13.3058853z" fill="#ebf0f3"/><path d="m101.0213394 91.309494.0186768.2339249c-5.4739075-1.0292587-11.1256561-4.0703278-16.1036072-9.0764313-3.5182877-3.536972-6.3160629-7.6728134-8.3185043-12.0239029l.0841751-21.886364c0-1.5532608 1.2632523-2.8165092 2.825882-2.8165092 1.5533142 0 2.8165054 1.2632484 2.8165054 2.8165092v21.5214195h.8047028v-26.274807c0-1.553318 1.2632446-2.8165092 2.8165054-2.8165092s2.8165054 1.2631912 2.8165054 2.8165092v26.274807h.5988693v-21.5214195c0-1.5532608 1.25383-2.8165092 2.816452-2.8165092 1.5533218 0 2.8165131 1.2632484 2.8165131 2.8165092v21.5214195h.5427246v-16.8896255c0-1.5626259 1.2538834-2.8258743 2.8165131-2.8258743 1.5532608 0 2.8165054 1.2632484 2.8165054 2.8258743z" fill="#e6e9ef"/></svg>