<svg enable-background="new 0 0 140 140" height="512" viewBox="0 0 140 140" width="512" xmlns="http://www.w3.org/2000/svg"><circle cx="70" cy="70" fill="#e05b49" r="64"/><path d="m46.327877 97.0883484c.0700073.0699463.1400146.1499634.210022.2199707l35.5382042 35.538208c26.2368774-5.012207 46.7821121-26.0322876 51.0819778-52.5149536l-21.2002029-21.2032509-.3300171-.3300171h-.0200195c-.7299805-.7000122-1.5199585-1.3300171-2.4099731-1.8599854-1.9400024-1.1599731-4.0800171-1.7800293-6.2999878-1.9199829l-4.9500122-4.9500122c-.0100098 0-.0100098-.0100098-.0100098-.0100098-.3900146-.4099731-1.4299927-.8099976-3.0100098-1.1699829-1.5799561-.3500366-3.6999512-.6799927-6.2399902-.9500122-5.8099976-.6400146-13.8499756-1.0300293-22.7299805-1.0300293-17.760006 0-32.1500206 1.5700073-32.1500206 3.5200195 0 .0200195-.2399902 2.5-.2399902 6.4000244 0 9.4400063 1.4299927 27.2199745 11.1300049 38.5000038l-.0700073.0599976z" opacity=".1"/><path d="m109.2014389 56.9417839c-3.2380676-1.9428406-7.0392532-2.3933334-10.8029175-1.5673904-4.7491455 1.0417976-9.4419861 4.1015358-12.9052963 8.7474556-.5162048.6945267-1.0042725 1.4266357-1.4641647 2.1962128-2.8063049 4.6834946-4.0358276 9.9582367-3.4633102 14.8669281.497467 4.2892609 2.2901001 7.874588 5.1433792 10.3336334.6006393.5255966 1.2576523 1.0042725 1.952179 1.417244.4035797.2440338.8165512.4598846 1.2389221.6476135 2.1117706.9948807 4.4300613 1.4078522 6.7952118 1.2858353 6.3447266-.3191452 13.0273132-4.4487991 17.1382446-11.3097229 5.9411468-9.9300614 4.3080444-21.8686601-3.632248-26.6178094zm-17.1569748 31.5640144c-.4692841-.1689301-.919838-.3753891-1.3515396-.6382141-.6758041-.4129715-1.2858353-.9197769-1.8114853-1.5110855-1.3327484-1.4735565-2.1774292-3.4821014-2.449646-5.8472519-.4223709-3.6229095.525589-7.5836334 2.6655502-11.1595764 1.4547729-2.4403076 3.313118-4.4206696 5.3310547-5.8566475 1.2576523-.9104385 2.5810623-1.5955772 3.9044189-2.0273361 0-.0093956 0-.0093956 0-.0093956 1.0136642-.3472672 2.0367279-.5443268 3.0316086-.591301 1.7175369-.0844421 3.3600311.2722206 4.8054581 1.1450806 5.1433258 3.0784683 5.8566513 11.384819 1.5955734 18.5085144-3.9138641 6.5324478-10.6621627 9.8456192-15.720993 7.9872131z" fill="#ebf0f3"/><path d="m105.503479 60.2080383c-2.1492996-1.2858315-5.298996-.583992-7.1322861.1530952-3.3421021 1.3437119-7.2183838.4945183-10.184288 3.5072823-1.126236 1.1356888-2.1492996 2.449646-3.0315552 3.9232025-2.2619171 3.7824554-3.2567978 8.0529251-2.8063049 12.0137024.4598923 3.9326019 2.2713165 7.1330872 5.133934 9.1040573.1971207.1314087.3942413.262825.6007004.3848419.9104385.5443878 1.8677368.9385681 2.8626175 1.2013397 1.1732101.3097382 2.3933334.4223633 3.6322479.3660507 5.1339951-.2534256 10.5307541-3.5947266 13.8532639-9.1416321 4.7960586-8.0247344 3.4821014-17.6732329-2.9283295-21.5119399zm2.2619782 20.3105469c-3.9138641 6.5324478-10.6621628 9.8456192-15.720993 7.9872131.4129715-.7883606.7977524-1.6049118 1.1544189-2.421463-.9385681-.1032791-1.8396149-.3942337-2.6561661-.8822556-.2909546-.1783295-.5725098-.3754425-.8353348-.6006927-1.4359818-1.2107849-2.3464203-3.0691299-2.6091919-5.3404465-.3378677-2.9283295.4223709-6.1288757 2.158699-9.0196152 1.3515396-2.2619858 3.1348343-4.0452271 5.0494919-5.227829 1.2764359-.7978134 2.6092453-1.3140182 3.9138107-1.5298691.0469131-.6945305.0844955-1.370327.1126251-2.0179405 0-.0093956 0-.0093956 0-.0093956 1.0136642-.3472672 2.0367279-.5443268 3.0316086-.591301 1.7175369-.0844421 3.3600311.2722206 4.8054581 1.1450806 5.1433258 3.0784684 5.8566513 11.3848191 1.5955735 18.5085145z" fill="#d5d6db"/><path d="m98.3985214 55.3743935c-.0657043-3.0691299-.2627716-4.9462662-.2627716-4.9462662h-64.329422s-4.4401474 45.2765236 24.6173935 53.8029671c.5447845.1598282 1.1152344.2303467 1.6829948.2303467h12.0055122c.5709076 0 1.145134-.0710907 1.6928482-.2320633 6.6491928-1.9542389 11.5258026-5.8326492 15.0951538-10.6458969.7415009-.9948807 1.417244-2.0179443 2.0460663-3.0879211.3848419-.6476135.7508392-1.3139648 1.0981674-1.9897614.4129715-.7883606.7977524-1.6049118 1.1544189-2.421463 3.303772-7.4897995 4.5896072-15.8618011 5.0213089-22.600708.0469131-.6945305.0844955-1.370327.1126251-2.0179405 0-.0093956 0-.0093956 0-.0093956.0375748-.9666939.0657043-1.8958664.0750961-2.7687263.0187914-1.2107889.0093996-2.3276865-.0093916-3.3131715z" fill="#e6e9ef"/><ellipse cx="65.958" cy="50.424" fill="#ebf0f3" rx="32.153" ry="3.521"/><path d="m65.9585114 52.427475c-14.4475632 0-24.7274971-1.0153198-28.9366341-2.0028496 4.209137-.9878998 14.4887009-2.0032196 28.9366341-2.0032196 14.4475708 0 24.7271347 1.0153198 28.936264 2.0032196-4.2091293.9875298-14.4886932 2.0028496-28.936264 2.0028496z" fill="#d5d6db"/><path d="m94.4659195 62.9486389c-.8165436 13.1587296-4.9556046 32.934288-21.9906158 37.7585297h-12.7269669c-17.0443535-4.8242417-21.3054848-24.58107-22.2064705-37.7397423 4.4957123.9479065 14.5289993 1.8864708 28.4197807 1.8864708 13.9752732 0 24.0460816-.9479027 28.5042725-1.9052582z" fill="#3ea69b"/><ellipse cx="66.004" cy="62.949" fill="#44c4a1" rx="28.462" ry="2.286"/><g fill="#fff" opacity=".25"><path d="m51.8697624 84.9592896c-4.1214104-10.0328217-4.8637161-21.3290253-4.8496246-28.139595h-5.0870743c-.0140915 6.8105698.7282143 18.1067734 4.8496246 28.139595z"/><path d="m49.2837753 90.0878983c1.1511574 2.0072861 2.4565811 3.9234314 3.9854164 5.6670303h5.0870743c-1.5288353-1.7435989-2.834259-3.6597443-3.9854126-5.6670303z"/></g></svg>