<svg enable-background="new 0 0 140 140" height="512" viewBox="0 0 140 140" width="512" xmlns="http://www.w3.org/2000/svg"><circle cx="70" cy="70" fill="#334d5c" r="64"/><path d="m72.5238571 133.9361877c28.9399414-1.1239624 52.9395142-21.4542847 59.6154861-48.6099243l-55.1079177-55.1079731c-.2700195-.2699585-.5200195-.5199585-.8099976-.7599487-1.6799927-1.4000244-3.8499756-2.2400513-6.2000122-2.2400513-4.7099609 0-8.6499596 3.3800049-9.5299644 7.8400249l-.0499878-.0100098-6.170044 28.7300416-6.3999634-.0200195c-.8000488.0299683-1.4800415.5999794-1.6400146 1.3900185l-.0200195.1199951c-.0599976.2799683-.039978.5700073.0599976.8399658.1300049.3599854.3900146.6799927.7399902.9000244 1.8300171 1.1199951 2.6600342 3.5800171 1.4500122 5.7600098-.6199951 1.1399536-1.7399902 1.8599854-2.9699707 2.0599976-.3600464.0599976-.6900024.2099609-.9500122.4299927-.2999878.25-.5100098.5899658-.5999756.9899902-.0500488.2700195-.0500488.5499878.0199585.8099976.1099854.4199829.3599854.7999878.7399902 1.039978 1.1799927.7000122 1.9800415 1.9400024 2.0400391 3.3600464.1099854 2.3800049-1.5900269 4.1999512-3.6700439 4.4899902-.2599487.039978-.5099487.1400146-.7099609.2999878-.3500366.25-.6099854.6500244-.7000122 1.0900269v.0099487c-.0700073.3300171-.0499878.6800537.0800171.9900513.1199951.3399658.3499756.6499634.6799927.8399658.9799805.6000366 1.6900024 1.5599976 1.9400024 2.6900024l-2.1699829 4.7000122c-.3200073.1799927-.6700439.3200073-1.0300293.4099731-.4099731.0900269-.7700195.2900391-1.0700073.5599976-.4199829.3699951-.7199707.9000244-.8300171 1.4700317-.1799927.8800049.1300049 1.75.7400513 2.3200073l-.0300293.0599976z" opacity=".1"/><path d="m70.0220718 46.6571884c-5.3588257 0-9.7189713-4.3598366-9.7189713-9.7189713s4.3601456-9.7192783 9.7189713-9.7192783 9.7189713 4.3601418 9.7189713 9.7192783-4.3601456 9.7189713-9.7189713 9.7189713zm0-16.2993393c-3.6281357 0-6.5800629 2.9519234-6.5800629 6.580368 0 3.6281357 2.9519272 6.5800591 6.5800629 6.5800591s6.5800629-2.9519234 6.5800629-6.5800591c0-3.6284446-2.9519272-6.580368-6.5800629-6.580368z" fill="#d5d6db"/><path d="m80.863464 34.905994h3.139114v42.00264h-3.139114z" fill="#d5d6db" transform="matrix(.978 -.21 .21 .978 -9.905 18.564)"/><path d="m91.5378189 72.7719574c.6245728 1.1340408 1.7417221 1.8589783 2.9753036 2.0600204.3586121.0607605.6832504.2053833.9405975.4280319.3005905.2457428.518013.5855179.6003342.9852066.0557175.270546.0499268.5537643-.0187836.8114777-.1046753.4253616-.359848.8047714-.7414017 1.0372162-1.1754761.7035599-1.971138 1.9442291-2.0368729 3.3678818-.1058121 2.3805161 1.5888519 4.197937 3.6675644 4.4876938.2636566.0354462.5092773.1386795.7145233.295105.3535995.2540741.6082687.6502991.69944 1.0929947l.0012741.0061569c.0696411.3381729.0445175.683075-.078064.9903412-.1211777.3454361-.3533478.6496124-.6846542.8460464-1.1618958.7071762-1.9539337 1.9343109-2.0345154 3.3481827-.1200943 2.2488785 1.3821259 4.0033569 3.3004379 4.447937.4031067.0900497.7649994.2911224 1.0645065.5627518.4231949.3743134.7167664.89711.8345413 1.4689789.2798538 1.3588486-.5990143 2.693573-1.9640198 2.9746933l-8.2024841 1.6893005c-1.5556183.3203812-3.0757065-.6805115-3.3973541-2.2422791l-7.0383224-34.174881c-.3672409-1.7831268.9873657-3.4530106 2.8119659-3.4634361l9.1722488-.0302353c.8004684.02742 1.4821243.598484 1.6442184 1.3855476l.0240631.1168289c.0595169.2889709.0353012.5759811-.0641861.8400421-.1296005.3664169-.3912811.6830826-.7372208.901741-1.8317562 1.1271974-2.6598965 3.5795595-1.4531399 5.7666551z" fill="#e56353"/><g fill="#d15241"><path d="m94.5131226 74.8319778c.3586121.0607605.6832504.2053833.9405975.4280319-.3083191.1211624-.629158.2128677-.9611816.2812424-2.9760208.612915-5.8156128-.97509-6.3449402-3.5452728-.5306015-2.5763321 1.451683-5.1510239 4.4277039-5.7639389.3873749-.0797806.7700424-.1201324 1.1528778-.128479-.1296005.3664169-.3912811.6830826-.7372208.901741-1.8317566 1.1271973-2.6598969 3.5795593-1.4531403 5.766655.6245728 1.1340408 1.7417221 1.8589783 2.9753037 2.0600204z"/><path d="m96.9245605 85.9494858c.2636566.0354462.5092773.1386795.7145233.295105-.2862625.1038284-.5824814.1904602-.8899231.2537766-2.9760208.612915-5.8156128-.97509-6.3449478-3.545311-.529335-2.5701752 1.4516907-5.1509857 4.4277115-5.7639008.4058075-.0835724.8069305-.1277313 1.2033463-.1324615-.1046753.4253616-.359848.8047714-.7414017 1.0372162-1.1754761.7035599-1.971138 1.9442291-2.0368729 3.3678818-.105812 2.3805159 1.588852 4.1979369 3.6675644 4.4876937z"/><path d="m95.5425644 92.5283127c-.1200943 2.2488785 1.3821259 4.0033569 3.3004379 4.447937.4031067.0900497.7649994.2911224 1.0645065.5627518-.2678452.0999985-.5468979.176712-.8358765.2362289-2.9760208.612915-5.8156204-.9751282-6.3449478-3.545311-.5293274-2.5701752 1.451683-5.1510239 4.4277039-5.7639389.3689117-.0759735.744194-.1212234 1.1073456-.131897-.1211777.3454361-.3533478.6496124-.6846542.8460464-1.1618958.7071763-1.9539337 1.934311-2.0345154 3.3481828z"/></g><path d="m36.565659 54.337757h42.00264v3.139114h-42.00264z" fill="#d5d6db" transform="matrix(.21 -.978 .978 .21 -9.189 100.44)"/><path d="m48.4621773 72.7719574c-.6245689 1.1340408-1.7417221 1.8589783-2.975296 2.0600204-.3586159.0607605-.6832581.2053833-.9405975.4280319-.3005943.2457428-.5180206.5855179-.6003342.9852066-.0557213.270546-.0499306.5537643.0187759.8114777.1046791.4253616.359848.8047714.7414055 1.0372162 1.1754723.7035599 1.971138 1.9442291 2.036869 3.3678818.1058197 2.3805161-1.5888481 4.197937-3.6675568 4.4876938-.2636604.0354462-.5092812.1386795-.7145271.295105-.3535957.2540741-.6082726.6502991-.6994438 1.0929947l-.0012665.0061569c-.0696487.3381729-.0445213.683075.0780602.9903412.1211777.3454361.3533478.6496124.6846581.8460464 1.1618958.7071762 1.9539299 1.9343109 2.0345078 3.3481827.1200981 2.2488785-1.382122 4.0033569-3.3004341 4.447937-.4031067.0900497-.7649956.2911224-1.0645027.5627518-.4231949.3743134-.7167664.89711-.8345451 1.4689789-.2798538 1.3588486.5990143 2.693573 1.9640236 2.9746933l8.2024765 1.6893005c1.5556183.3203812 3.0757103-.6805115 3.3973579-2.2422791l7.0383263-34.174881c.3672333-1.7831268-.9873657-3.4530106-2.8119698-3.4634361l-9.1722527-.0302353c-.8004646.02742-1.4821243.598484-1.6442184 1.3855476l-.0240593.1168289c-.0595169.2889709-.0352974.5759811.0641823.8400421.1296082.3664169.3912849.6830826.7372284.901741 1.8317564 1.1271974 2.6598929 3.5795595 1.4531325 5.7666551z" fill="#e56353"/><g fill="#d15241"><path d="m45.4868813 74.8319778c-.3586159.0607605-.6832581.2053833-.9405975.4280319.3083153.1211624.629158.2128677.9611778.2812424 2.9760208.612915 5.8156128-.97509 6.3449402-3.5452728.5305977-2.5763321-1.4516869-5.1510239-4.4277077-5.7639389-.3873749-.0797806-.7700386-.1201324-1.1528778-.128479.1296082.3664169.3912849.6830826.7372284.901741 1.8317566 1.1271973 2.659893 3.5795593 1.4531326 5.766655-.624569 1.1340408-1.7417221 1.8589783-2.975296 2.0600204z"/><path d="m43.0754433 85.9494858c-.2636604.0354462-.5092812.1386795-.7145271.295105.2862625.1038284.5824852.1904602.8899231.2537766 2.9760208.612915 5.8156128-.97509 6.3449516-3.545311.5293274-2.5701752-1.4516945-5.1509857-4.4277153-5.7639008-.4058037-.0835724-.8069305-.1277313-1.2033501-.1324615.1046791.4253616.359848.8047714.7414055 1.0372162 1.1754723.7035599 1.971138 1.9442291 2.036869 3.3678818.1058197 2.3805159-1.5888481 4.1979369-3.6675567 4.4876937z"/><path d="m44.4574318 92.5283127c.1200981 2.2488785-1.382122 4.0033569-3.3004341 4.447937-.4031067.0900497-.7649956.2911224-1.0645027.5627518.2678413.0999985.5468979.176712.8358727.2362289 2.9760208.612915 5.8156204-.9751282 6.3449478-3.545311.5293312-2.5701752-1.4516869-5.1510239-4.4277077-5.7639389-.3689117-.0759735-.7441902-.1212234-1.1073418-.131897.1211777.3454361.3533478.6496124.6846581.8460464 1.1618957.7071763 1.9539298 1.934311 2.0345077 3.3481828z"/></g></svg>