<svg enable-background="new 0 0 140 140" height="512" viewBox="0 0 140 140" width="512" xmlns="http://www.w3.org/2000/svg"><circle cx="70" cy="70" fill="#45b39c" r="64"/><path d="m101.0192642 48.5982933-10.4899902-10.4899902h-41.6900063v10.4899902h-18.419981v4.5500488l4.0800152 4.0799561v40.1099892h-4.0800152v4.5500488l31.5983868 31.5983887c2.6170082.3259277 5.2770424.5131836 7.9823036.5131836 34.3587036 0 62.3857346-27.0769043 63.9255295-61.0554199l-24.3461838-24.3461952h-8.5600586z" opacity=".1"/><path d="m48.844032 38.111965h41.688068v12.120647h-41.688068z" fill="#ebf0f3"/><path d="m34.500382 50.102222h70.375366v51.012817h-70.375366z" fill="#ebf0f3"/><path d="m30.41922 48.599152h79.16156v4.552129h-79.16156z" fill="#4d5c7d"/><path d="m51.976353 70.827477h35.42342v28.784491h-35.42342z" fill="#fcd462"/><path d="m68.536171 70.827477h2.303782v28.784491h-2.303782z" fill="#f7be56"/><g fill="#27a2db"><path d="m44.15065 59.178551h5.167452v5.167452h-5.167452z"/><path d="m55.627495 59.178551h5.167452v5.167452h-5.167452z"/><path d="m67.10434 59.178551h5.167452v5.167452h-5.167452z"/><path d="m78.581184 59.178551h5.167452v5.167452h-5.167452z"/><path d="m90.058029 59.178551h5.167452v5.167452h-5.167452z"/></g><path d="m30.41922 97.335907h79.16156v4.552129h-79.16156z" fill="#d5d6db"/><g fill="#e56353"><path d="m63.9086723 44.5008888v-.7149162l2.5811806-.0041542v2.2611275c-.3962555.3158913-.8049774.5535049-1.2261658.7128372-.4211884.1593285-.8534622.2389946-1.2968254.2389946-.5985336 0-1.1423378-.1281586-1.6314201-.3844719-.4890785-.2563171-.8583107-.6269379-1.1077003-1.1118622-.2493896-.4849205-.3740845-1.0266495-.3740845-1.6251831 0-.5929909.1240005-1.1464996.3720055-1.6605148.2480049-.514019.6047668-.8957253 1.0702934-1.1451111.4655266-.2493896 1.0017128-.3740845 1.6085587-.3740845.4405861 0 .8389168.0713539 1.1949883.2140579.3560715.1427078.6352539.341526.837532.5964546.2022858.2549324.3560715.5874519.4613724.9975586l-.7273865.1995087c-.0914383-.3103485-.2050552-.5541954-.3408279-.7315407-.1357803-.1773415-.3297501-.319355-.5819092-.4260406-.2521591-.1066818-.5320282-.1600227-.8396111-.1600227-.3685417 0-.6872063.0561104-.9559898.1683388-.2687874.1122246-.4856186.2597771-.6504898.4426651-.164875.1828842-.2930336.3837814-.3844757.6026878-.1551743.3768578-.2327652.7855759-.2327652 1.2261658 0 .5431137.0935211.9975548.2805634 1.363327.1870422.3657684.4592934.6373253.8167496.8146706.35746.1773415.7370834.2660141 1.1388779.2660141.349144 0 .6899796-.0671959 1.0224915-.2015915.3325195-.1343918.5846786-.2777901.756485-.4301949v-1.1347198h-1.791447z"/><path d="m69.3952332 46.8908653v-2.5811768l-2.3484116-3.5122261h.9809265l1.2012253 1.8371658c.2216797.3436012.4281158.6872063.6193161 1.0308075.1828842-.3186646.4045639-.6775055.6650391-1.0765305l1.1804352-1.7914429h.9393692l-2.4315414 3.5122261v2.5811768h-.8063584z"/><path d="m73.3314209 46.8908653v-6.0934029h1.2136917l1.4423065 4.3144302c.1330032.4017944.2299881.702446.290947.9019547.0692749-.2216759.1773453-.5472679.3242111-.9767723l1.4589233-4.2396126h1.0848465v6.0934029h-.7772675v-5.1000061l-1.7706604 5.1000061h-.7273865l-1.7623444-5.1872902v5.1872902z"/></g></svg>