<svg enable-background="new 0 0 140 140" height="512" viewBox="0 0 140 140" width="512" xmlns="http://www.w3.org/2000/svg"><circle cx="70" cy="70" fill="#e05b49" r="64"/><circle cx="70" cy="70" fill="#ea8953" r="64"/><path d="m88.9307938 24.8216419h-4.5900879v30.0300312l-30.0300293-30.0300312h-4.5899658v31.9400043c-6.8800049 1.1000366-12.1300049 7.0599976-12.1300049 14.2500572 0 3.0999756.9899902 5.9599609 2.6600342 8.3099365l-.0500488-.039917 3.6600342 12.2698975 3.6699219 3.6700439v14.6599121l24.0777588 24.0777588c34.6005859-.8563232 62.3916092-29.1525879 62.3916092-63.9593506 0-.0375977-.0028076-.0743408-.0028076-.1118164z" opacity=".1"/><path d="m87.7207413 55.3870506 1.2055359-8.1273269v-22.4351521h-4.5848389v22.5914555l1.425621 7.8928756z" fill="#e1e6e9"/><path d="m88.9262619 56.7596436v-9.9421501h-4.5848236v9.9421501c-6.8772278 1.0992393-12.1315613 7.0600471-12.1315613 14.2472 0 7.9612045 6.4566498 14.424202 14.4242096 14.424202s14.4242783-6.4629974 14.4242783-14.424202c0-7.1873055-5.2546387-13.1481934-12.132103-14.2472zm-2.2921753 24.9003143c-5.8852539 0-10.6594009-4.767868-10.6594009-10.6531143 0-5.8916092 4.774147-10.6594772 10.6594009-10.6594772 5.8852463 0 10.6593933 4.767868 10.6593933 10.6594772 0 5.8852462-4.774147 10.6531143-10.6593933 10.6531143z" fill="#474c5b"/><path d="m93.1739426 73.8875122c-1.1590424 0-2.0985641.9395218-2.0985641 2.098671 0-1.1591492-.9395218-2.098671-2.0985641-2.098671s-2.098671.9395218-2.098671 2.098671c0-1.1591492-.9395294-2.098671-2.0985641-2.098671-1.1590424 0-2.0985641.9395218-2.0985641 2.098671 0-1.1591492-.9396362-2.098671-2.098671-2.098671-1.1590424 0-2.0985641.9395218-2.0985641 2.098671v6.8684464l-3.6620331-3.5705566 3.6620331 12.271759 3.6612701 3.6612701v14.6597137h13.1275635l-1.6432648-14.6597137 1.6432648-5.018425v-4.1982193-10.0142746c-.0000002-1.1591492-.9396364-2.098671-2.0986711-2.098671z" fill="#fcd462"/><path d="m82.14505 100.8802261v8.9965897h13.1275635l-1.0083999-8.9965897z" fill="#27a2db"/><path d="m95.2749481 82.7555161v.8137741c0 1.162529-.9389801 2.1014023-2.1015091 2.1014023-1.1625366 0-2.1014023-.9388733-2.1014023-2.1014023 0 1.162529-.9388657 2.1014023-2.092453 2.1014023-1.162529 0-2.1015091-.9388733-2.1015091-2.1014023 0 1.162529-.9388657 2.1014023-2.1014023 2.1014023-1.1534729 0-2.092453-.9388733-2.092453-2.1014023 0 1.162529-.9479218 2.1014023-2.1015091 2.1014023-1.1624222 0-2.1012878-.9388733-2.1012878-2.1014023v-.8137741c0 1.162529.9388657 2.1015091 2.1012878 2.1015091 1.1535873 0 2.1015091-.9389801 2.1015091-2.1015091 0 1.162529.9389801 2.1015091 2.092453 2.1015091 1.1625366 0 2.1014023-.9389801 2.1014023-2.1015091 0 1.162529.9389801 2.1015091 2.1015091 2.1015091 1.1535873 0 2.092453-.9389801 2.092453-2.1015091 0 1.162529.9388657 2.1015091 2.1014023 2.1015091 1.162529-.0000001 2.1015091-.9389802 2.1015091-2.1015091z" fill="#f7be56"/><path d="m52.8670387 55.3089027 1.440464-8.049179v-22.4351521h-4.5847168v22.5133l1.5031586 8.049179z" fill="#e1e6e9"/><path d="m54.3075409 56.7596436v-9.9421501h-4.5848198v9.9421501c-6.8772316 1.0992393-12.1315613 7.0600471-12.1315613 14.2472 0 7.9612045 6.456646 14.424202 14.424202 14.424202s14.4242821-6.4629974 14.4242821-14.424202c0-7.1873055-5.2546387-13.1481934-12.132103-14.2472zm-2.2921791 24.9003143c-5.8852463 0-10.6593971-4.767868-10.6593971-10.6531143 0-5.8916092 4.7741508-10.6594772 10.6593971-10.6594772s10.6594009 4.767868 10.6594009 10.6594772c0 5.8852462-4.7741508 10.6531143-10.6594009 10.6531143z" fill="#474c5b"/><path d="m58.5552216 73.8875122c-1.1590424 0-2.0985641.9395218-2.0985641 2.098671 0-1.1591492-.9395256-2.098671-2.0985641-2.098671s-2.0986748.9395218-2.0986748 2.098671c0-1.1591492-.9395218-2.098671-2.0985603-2.098671-1.1590424 0-2.0985641.9395218-2.0985641 2.098671 0-1.1591492-.9396324-2.098671-2.0986748-2.098671-1.1590385 0-2.0985603.9395218-2.0985603 2.098671v6.8684464l-3.6620369-3.5705566 3.6620369 12.271759 3.6612701 3.6612701v14.6597137h13.1275635l-1.6432648-14.6597137 1.6432648-5.018425v-4.1982193-10.0142746c-.0000002-1.1591492-.9396326-2.098671-2.0986711-2.098671z" fill="#fcd462"/><path d="m47.526329 100.8802261v8.9965897h13.1275635l-1.0084038-8.9965897z" fill="#27a2db"/><path d="m60.6562271 82.7555161v.8137741c0 1.162529-.9389763 2.1014023-2.1015091 2.1014023s-2.1014023-.9388733-2.1014023-2.1014023c0 1.162529-.9388695 2.1014023-2.0924492 2.1014023-1.1625328 0-2.1015129-.9388733-2.1015129-2.1014023 0 1.162529-.9388657 2.1014023-2.1014023 2.1014023-1.1534729 0-2.0924492-.9388733-2.0924492-2.1014023 0 1.162529-.9479294 2.1014023-2.1015091 2.1014023-1.162426 0-2.1012955-.9388733-2.1012955-2.1014023v-.8137741c0 1.162529.9388695 2.1015091 2.1012955 2.1015091 1.1535797 0 2.1015091-.9389801 2.1015091-2.1015091 0 1.162529.9389763 2.1015091 2.0924492 2.1015091 1.1625366 0 2.1014023-.9389801 2.1014023-2.1015091 0 1.162529.9389801 2.1015091 2.1015129 2.1015091 1.1535797 0 2.0924492-.9389801 2.0924492-2.1015091 0 1.162529.9388695 2.1015091 2.1014023 2.1015091s2.1015091-.9389802 2.1015091-2.1015091z" fill="#f7be56"/></svg>