<svg enable-background="new 0 0 140 140" height="512" viewBox="0 0 140 140" width="512" xmlns="http://www.w3.org/2000/svg"><circle cx="70" cy="70" fill="#ea8953" r="64"/><path d="m74.7728424 133.8042603c31.3438721-2.3134766 56.3964233-27.1867599 58.9873657-58.4526291l-41.5466308-41.5466309-.0300293.0200195c-.7099609-.7199707-1.6199951-1.2600098-2.6599731-1.5-13.0200195-2.9699707-26.0300293-2.9699707-39.0499878 0-2.4700317.5699463-4.2399902 2.75-4.2399902 5.2800293v65.369873c0 1.5300293.6499634 2.9300537 1.6999512 3.9200439l-.0299683.0400391z" opacity=".1"/><path d="m89.5239334 32.3268852c-13.0159683-2.9719849-26.0318947-2.9719849-39.0478706 0-2.4739227.564846-4.2435951 2.7440338-4.2435951 5.2816277v65.364563c0 2.6602097 1.9345016 4.9399033 4.5636101 5.3448486 13.0380363 2.0082245 25.8904381 2.18853 38.5095558.0716553 2.5853348-.4335861 4.4618988-2.703125 4.4618988-5.3245468v-65.4565201c-.0000001-2.5375939-1.7696686-4.7167816-4.243599-5.2816277z" fill="#4d5c7d"/><path d="m49.50893 40.99448h40.98214v58.01104h-40.98214z" fill="#d5d6db"/><path d="m75.1511917 58.4731178c-1.9970016 0-3.8096848.7839622-5.1511917 2.0591202-1.341507-1.2751579-3.1541901-2.0591202-5.1511917-2.0591202-4.1319656 0-7.4815788 3.3496094-7.4815788 7.4815712 0 7.5912933 5.5520287 13.4553452 12.6327705 15.572197 7.0807419-2.1168518 12.6327667-7.9809036 12.6327667-15.572197 0-4.1319618-3.3496094-7.4815712-7.481575-7.4815712z" fill="#e56353"/><path d="m70.6519775 77.2775192-5.6982421-12.1259765-2.4506836 5.9521484h-8.109375v-1h7.4394531l3.0600586-7.4326134 5.5214844 11.7490197 1.4125976-5.0400391h5.496582v1h-4.7387695z" fill="#d5d6db"/><g fill="#474c5b"><path d="m64.937141 34.555458h10.125717v2.073942h-10.125717z"/><path d="m69.987236 102.3290329c-1.1794815 0-2.1355896.9561081-2.1355896 2.1355972 0 1.1794815.9561081 2.1355896 2.1355896 2.1355896 1.1794357 0 2.1355438-.9561081 2.1355438-2.1355896 0-1.1794891-.956108-2.1355972-2.1355438-2.1355972z"/></g></svg>