<svg enable-background="new 0 0 140 140" height="512" viewBox="0 0 140 140" width="512" xmlns="http://www.w3.org/2000/svg"><circle cx="70" cy="70" fill="#45b39c" r="64"/><path d="m72.6343155 133.9333801c31.5828247-1.2803345 57.254509-25.4401855 60.903862-56.3561401l-41.9988937-41.9989052h-42.739994v4.5700073l2.3699951 2.3699951v16.039978h-19.0899659v4.9799805l2.0899658 2.0900307v29.8399658z" opacity=".1"/><path d="m34.170296 59.649078h71.996674v35.822052h-71.996674z" fill="#d5d6db"/><path d="m32.078854 58.554466h75.842293v4.9866h-75.842293z" fill="#e56353"/><path d="m51.169846 37.453503h37.997582v58.017628h-37.997582z" fill="#ebf0f3"/><path d="m48.801807 35.576637h42.73365v4.57194h-42.73365z" fill="#e56353"/><path d="m94.327698 68.221687h6.344613v6.344663h-6.344613z" fill="#27a2db"/><g fill="#ebf0f3" opacity=".25"><path d="m99.8022842 68.2216873-5.4745864 5.4745865v-.3857422l5.0888443-5.0888443z"/><path d="m100.6723099 68.3037949v1.1737136l-5.0887909 5.0888443h-1.1655502z"/></g><path d="m94.327698 79.246979h6.344613v6.344663h-6.344613z" fill="#27a2db"/><g fill="#ebf0f3" opacity=".25"><path d="m99.8022842 79.2469788-5.4745864 5.4745864v-.3857421l5.0888443-5.0888443z"/><path d="m100.6723099 79.3290863v1.1737061l-5.0887909 5.0888443h-1.1655502z"/></g><path d="m40.07925 68.221687h6.344613v6.344663h-6.344613z" fill="#27a2db"/><g fill="#ebf0f3" opacity=".25"><path d="m45.5538406 68.2216873-5.4745903 5.4745865v-.3857422l5.0888481-5.0888443z"/><path d="m46.4238663 68.3037949v1.1737136l-5.0887986 5.0888443h-1.1655426z"/></g><path d="m40.07925 79.246979h6.344613v6.344663h-6.344613z" fill="#27a2db"/><g fill="#ebf0f3" opacity=".25"><path d="m45.5538406 79.2469788-5.4745903 5.4745864v-.3857421l5.0888481-5.0888443z"/><path d="m46.4238663 79.3290863v1.1737061l-5.0887986 5.0888443h-1.1655426z"/></g><path d="m57.567844 56.364384h6.344613v6.344663h-6.344613z" fill="#27a2db"/><g fill="#ebf0f3" opacity=".25"><path d="m63.0424347 56.3643837-5.4745903 5.4745865v-.3857422l5.0888481-5.0888443z"/><path d="m63.9124603 56.4464912v1.1737061l-5.0887985 5.0888481h-1.1655426z"/></g><path d="m57.567844 67.389671h6.344613v6.344663h-6.344613z" fill="#27a2db"/><g fill="#ebf0f3" opacity=".25"><path d="m63.0424347 67.3896713-5.4745903 5.4745865v-.3857422l5.0888481-5.0888443z"/><path d="m63.9124603 67.4717789v1.173706l-5.0887985 5.0888443h-1.1655426z"/></g><path d="m66.99633 56.364384h6.344613v6.344663h-6.344613z" fill="#27a2db"/><g fill="#ebf0f3" opacity=".25"><path d="m72.4709167 56.3643837-5.4745864 5.4745865v-.3857422l5.0888443-5.0888443z"/><path d="m73.3409424 56.4464912v1.1737061l-5.0887985 5.0888481h-1.1655426z"/></g><path d="m66.99633 67.389671h6.344613v6.344663h-6.344613z" fill="#27a2db"/><g fill="#ebf0f3" opacity=".25"><path d="m72.4709167 67.3896713-5.4745864 5.4745865v-.3857422l5.0888443-5.0888443z"/><path d="m73.3409424 67.4717789v1.173706l-5.0887985 5.0888443h-1.1655426z"/></g><path d="m76.424812 56.364384h6.344613v6.344663h-6.344613z" fill="#27a2db"/><g fill="#ebf0f3" opacity=".25"><path d="m81.8993988 56.3643837-5.4745865 5.4745865v-.3857422l5.0888443-5.0888443z"/><path d="m82.7694244 56.4464912v1.1737061l-5.0887985 5.0888481h-1.1655426z"/></g><path d="m76.424812 67.389671h6.344613v6.344663h-6.344613z" fill="#27a2db"/><g fill="#ebf0f3" opacity=".25"><path d="m81.8993988 67.3896713-5.4745865 5.4745865v-.3857422l5.0888443-5.0888443z"/><path d="m82.7694244 67.4717789v1.173706l-5.0887985 5.0888443h-1.1655426z"/></g><path d="m61.801521 79.798515h16.734228v15.672614h-16.734228z" fill="#474c5b"/><path d="m74.1672287 45.8472672h-2.8054504v-2.8055001h-2.3862915v2.8055001h-2.8054505v2.3862457h2.8054505v2.8055h2.3862915v-2.8055h2.8054504z" fill="#e56353"/></svg>