<svg enable-background="new 0 0 140 140" height="512" viewBox="0 0 140 140" width="512" xmlns="http://www.w3.org/2000/svg"><circle cx="70" cy="70" fill="#45b39c" r="64"/><path d="m107.3078537 48.6349525-15.4899902-15.5-2.4400024 2.4300537 3.5400391 3.539978-7.1800537 7.1699829-3.8599854-3.8499756-3.0899658-3.1000366-2.8300171 2.8300171 3.0899658 3.1000366-36.4999963 36.4999963 2.9000244 2.8999634-4.6599731 4.6699829 4.7199707 4.7200317-12.8200073 12.8200073 26.1436768 26.1436768c3.6287841.6390381 7.3563804.991333 11.1684532.991333 33.6256714 0 61.1745682-25.9377441 63.7788773-58.894043z" opacity=".1"/><path d="m86.263054 39.847672h11.920399v16.748915h-11.920399z" fill="#d5d6db" transform="matrix(.707 .707 -.707 .707 61.11 -51.088)"/><path d="m35.9576073 105.37854-3.2688942 1.4873581 18.8333053-18.8333053.8907662.8907623z" fill="#4d5c7d"/><path d="m51.240334 64.076836h14.623745v35.632675h-14.623745z" fill="#d5d6db" transform="matrix(.707 .707 -.707 .707 75.057 -17.417)"/><path d="m58.873623 42.34766h22.827061v55.621132h-22.827061z" fill="#ebf0f3" transform="matrix(.707 .707 -.707 .707 70.196 -29.152)"/><path d="m47.383709 67.546532h32.510044v18.520493h-32.510044z" fill="#f0a67a" transform="matrix(.707 -.707 .707 .707 -35.671 67.496)"/><path d="m76.421166 49.616093h22.827061v5.989175h-22.827061z" fill="#d5d6db" transform="matrix(.707 .707 -.707 .707 62.928 -46.699)"/><path d="m72.74382 49.906963h31.586203v4.002993h-31.586203z" fill="#ebf0f3" transform="matrix(.707 .707 -.707 .707 62.637 -47.401)"/><path d="m87.386383 40.37896h21.917528v3.442544h-21.917528z" fill="#ebf0f3" transform="matrix(.707 .707 -.707 .707 58.574 -57.21)"/><g fill="#4d5c7d"><path d="m73.294457 55.432453h8.074787v1.435518h-8.074787z" transform="matrix(.707 .707 -.707 .707 62.354 -38.236)"/><path d="m70.716286 57.17445h4.037394v1.435518h-4.037394z" transform="matrix(.707 .707 -.707 .707 62.24 -34.475)"/><path d="m66.280357 62.446545h8.074787v1.435518h-8.074787z" transform="matrix(.707 .707 -.707 .707 65.259 -31.222)"/><path d="m63.70219 64.188545h4.037394v1.435518h-4.037394z" transform="matrix(.707 .707 -.707 .707 65.145 -27.461)"/><path d="m59.266266 69.46064h8.074787v1.435518h-8.074787z" transform="matrix(.707 .707 -.707 .707 68.165 -24.208)"/><path d="m56.688095 71.202637h4.037394v1.435518h-4.037394z" transform="matrix(.707 .707 -.707 .707 68.05 -20.447)"/><path d="m52.252171 76.474731h8.074787v1.435518h-8.074787z" transform="matrix(.707 .707 -.707 .707 71.07 -17.194)"/></g></svg>