<svg enable-background="new 0 0 140 140" height="512" viewBox="0 0 140 140" width="512" xmlns="http://www.w3.org/2000/svg"><circle cx="70" cy="70" fill="#334d5c" r="64"/><path d="m92.9500198 26.3283367-13.2300415 6.5800152-1.7199707 8.3499756c-2.5999756-.1900024-5.4000244-.289978-8.3300171-.289978-13.2299805 0-23.9599609 2.1300049-23.9599609 4.75l6.5199585 60.7099648c-.0100098.0300293-.0199585.0599976-.0199585.0900269l.4499512 3.9699707c0 .3200073.1500244.6400146.4000244.9400024l-.0100098.0200195 22.3111572 22.3111572c32.8351441-2.7258911 58.6388474-30.2205201 58.6388474-63.7594605 0-.9040527-.0310059-1.8006592-.0681152-2.6956177z" opacity=".1"/><path d="m93.6219177 45.716217-6.9503784 64.7709427h-34.010601l-6.9503746-64.7709427z" fill="#ebf0f3"/><path d="m87.1269989 106.5215149-.460022 3.9700317c0 2.1900024-5.9500122 3.960022-17 3.960022s-17.010006-1.7700195-17.010006-3.960022l-.4499512-3.9700317c0-.2999878.1199951-.5999756.3499756-.8800049 1.4400024-1.7699585 7.3399658-3.0899658 17.1099815-3.0899658 9.75 0 15.6500244 1.3200073 17.1000366 3.0800171.2399904.2799682.3599855.579956.3599855.8899536z" fill="#d5d6db"/><path d="m88.9362717 70.3278503-3.8500366 35.4100342-.0899658.7799683c0 1.9400024-5.3699951 3.5100098-15.3300171 3.5100098s-15.340023-1.5700073-15.340023-3.5100098l-.0899658-.7699585-3.8400269-35.4200439h38.5400352z" fill="#fcd462"/><ellipse cx="69.666" cy="45.716" fill="#e1e6e9" rx="23.956" ry="4.749"/><path d="m69.6660843 48.8889961c-13.1457138 0-20.6301537-1.9709167-22.1916847-3.1729202 1.5618362-1.2020073 9.0462799-3.1726151 22.1916847-3.1726151 13.1457138 0 20.6301575 1.9706078 22.1919937 3.1726151-1.5615234 1.2020035-9.0459671 3.1729202-22.1919937 3.1729202z" fill="#ebf0f3"/><path d="m88.9362717 70.3278503c0 1.7900391-6.2300415 3.3000488-14.6300049 3.710022-1 .0499878-2.0300293.0800171-3.0900269.0900269-.5100098.0199585-1.0299683.0199585-1.5499878.0199585-10.6400108 0-19.2700157-1.7099609-19.2700157-3.8200073 0-2.1099854 8.6300049-3.8200073 19.2700157-3.8200073 1.0599976 0 2.0999756.0200195 3.1099854.0500488 1.0400391.0299683 2.0599976.0799561 3.0400391.1499634 7.6300048.5100097 13.1199951 1.9400024 13.1199951 3.619995z" fill="#f7be56"/><path d="m66.1469574 114.3764725c-2.2499962-.0857697-4.2299767-.2681808-5.9299889-.5256271l-1.1399536-11.4245834-5.3200073-53.164692c1.7699585.3325424 3.7799683.622139 5.9599609.8259583l5.1799889 51.7165337z" fill="#fff" opacity=".25"/><path d="m72.8969574 114.387207c-1.0199585.0429535-2.0999756.0643616-3.2299805.0643616h-.1900024l-1.0599976-12.7548218-4.2600098-51.2874107c1.1199951.0643616 2.2700195.0965767 3.4400024.1180496l4.25 51.1801033z" fill="#fff" opacity=".25"/><path d="m71.1356125 89.4054871-2.9384766-.6054688 11.519043-55.8881836 13.2382812-6.5791015 1.334961 2.6865234-11.9296875 5.9287109z" fill="#e56353" opacity=".75"/><path d="m75.0662766 70.3278503-3.9300538 19.0800171-2.9399414-.6099853 3.8099976-18.4700318z" fill="#f7be56" opacity=".75"/><path d="m75.8162766 66.7078552-1.5100098 7.3300171c-1 .0499878-2.0300293.0800171-3.0900269.0900269l1.5599976-7.5700073c1.0400391.0299682 2.0599975.079956 3.0400391.1499633z" fill="#e56353" opacity=".75"/></svg>