<svg enable-background="new 0 0 140 140" height="512" viewBox="0 0 140 140" width="512" xmlns="http://www.w3.org/2000/svg"><circle cx="70" cy="70" fill="#45b39c" r="64"/><path d="m73.5311432 133.8987122c30.1266479-1.6389771 54.6947021-24.1134033 59.5727539-53.2636108l-43.6567383-43.6567422c-.5400391-.6400146-1.0900269-1.2600098-1.6900024-1.8400269-4.1900024-4.0700054-9.1400146-5.8099957-12.8599854-6.5599957-.960022-.2200317-1.9400024-.3699951-2.9400024-.4500122-.1799927-.0200195-.3699951-.0100098-.5599976-.0299683-.5200195-.0300293-.9500122-.0500488-1.3000488-.0599976-1.4499512-.0300293-11.0299683.0299683-18.3099976 7.0999737-5.5299683 5.3900146-8.25 13.3800049-8.0599976 23.7700195.0599976 3.3800049.2700195 6.4199867.5900269 9.1799965l-2.7700195.6099854c-.5100098.1099854-.8299561.6199951-.7199707 1.1300049.039978.1699829.1199951.2999878.2299805.4199829h-.0100098l1.6099854 1.6199951c.3400269 2.0100098-.0599976 4.0900269-1.1699829 5.8099976-.5100098.8099976-.6900024 1.7900391-.4799805 2.7200317l.539978 2.4199829 5 22.6000366c.1900024.8599854.5499878 1.6399536 1.0200195 2.3199463l-.0499878.1500244z" opacity=".1"/><path d="m85.1434326 92.1173477-1.1184845-1.8206635c.0845108-.0542526 9.205574-6.1433105 9.6604767-31.4260216.1752853-9.7627258-2.3141708-17.2243195-7.3995132-22.1776733-7.0489426-6.8658352-16.8189774-6.5142231-16.916008-6.5116138l-.0991211-2.134716c.4361267-.019825 10.7570496-.4147358 18.4862671 7.0958958 5.5381622 5.3811302 8.2519379 13.377449 8.0651779 23.7667122-.4799423 26.6359519-10.262497 32.9519386-10.6787949 33.2080802z" fill="#64798a"/><path d="m54.4049835 92.1173477c-.4163017-.2561417-10.1978073-6.5721283-10.6777534-33.2080803-.1867599-10.3887444 2.5259781-18.3850594 8.0641365-23.7667122 7.7281723-7.5101109 18.0459671-7.1172848 18.4873047-7.0958958l-.0991211 2.134716c-.0928574-.0020866-9.8712311-.3521347-16.9170456 6.5116138-5.0853424 4.9533539-7.5747986 12.4149475-7.3984718 22.1776733.4590797 25.4778252 9.5676193 31.3696785 9.6594353 31.4260216z" fill="#64798a"/><path d="m52.2470284 75.2999802c-1.8445663-1.1757202-3.1465378-3.0360641-3.6194839-5.1717377l-.2246513-1.0144501.4076576-.0902786c.5088577-.1126862.8300247-.6165619.7173386-1.1254196s-.6165581-.8300247-1.1254196-.7173386l-3.4287415.7593002-3.4287415.7592926c-.5088577.1126862-.8300285.6165619-.7173386 1.1254196.1126862.5088577.6165581.8300323 1.1254196.7173386l.4076576-.090271.2246475 1.0144501c.47295 2.1356735.0781364 4.3717728-1.0975838 6.2163391-.5139999.8064041-.6866074 1.7839203-.479847 2.7175827l.5360031 2.4204178 6.4107094 2.1144943 6.4107132-4.953804-.5360031-2.4204178c-.2067603-.9336624-.7759322-1.7469177-1.5823363-2.2609176z" fill="#474c5b"/><path d="m41.5439453 82.8206253 5.0051079 22.6014709c.78405 3.5405121 4.2898102 5.7750702 7.8303604 4.9910126 3.5405083-.7840424 5.7751122-4.2898178 4.991066-7.8303223l-5.0051117-22.6014709z" fill="#f7be56"/><path d="m43.771843 82.3272552 5.0051117 22.6014709c.7840462 3.5405121 3.292347 5.9959641 5.602459 5.4843826 2.3100853-.5115662 3.5472145-3.7964478 2.7631683-7.3369522l-5.0051118-22.6014785z" fill="#fcd462"/><path d="m87.3961563 74.3011551c1.8124619-1.2246323 3.064209-3.1191406 3.479866-5.2667007l.1974335-1.0200882-.4099197-.0793457c-.5116959-.0990372-.8462219-.5941391-.7471848-1.1058273.0990372-.5116959.5941391-.8462219 1.1058273-.7471848l3.4478226.6673203 3.4478302.6673203c.5116882.0990372.8462143.5941391.7471771 1.1058273-.0990372.5116959-.5941391.8462219-1.1058273.7471848l-.4099274-.0793381-.1974335 1.0200958c-.415657 2.1475601.0388184 4.3722992 1.2634583 6.1847534.5353775.7923737.7340698 1.7649231.5523529 2.7037811l-.4710693 2.4338913-7.4416351 1.3348846-5.4511414-3.8302612.4710693-2.4338837c.181717-.938858.7289353-1.7670441 1.5213013-2.3024292z" fill="#474c5b"/><path d="m98.2965622 81.5328445-4.398819 22.7272491c-.6890717 3.5602188-4.133812 5.8877411-7.6940613 5.1986618-3.5602112-.6890717-5.8877869-4.1338196-5.1987152-7.6940308l4.398819-22.7272568z" fill="#f7be56"/><path d="m96.0562668 81.0992355-4.398819 22.7272568c-.6890717 3.5602112-3.1307983 6.081871-5.4537659 5.6322632-2.3229446-.4496002-3.6474915-3.7002106-2.9584198-7.2604218l4.398819-22.7272568z" fill="#fcd462"/><path d="m70.2932816 69.3136597c-11.3778496 0-20.6345444-9.256176-20.6345444-20.6340218s9.2566948-20.6340218 20.6345444-20.6340218 20.6334991 9.2561722 20.6334991 20.6340218-9.2556534 20.6340218-20.6334991 20.6340218zm0-39.1312409c-10.199894 0-18.4977417 8.2978477-18.4977417 18.4972191s8.2978477 18.4972191 18.4977417 18.4972191c10.1988449 0 18.4966965-8.2978477 18.4966965-18.4972191s-8.2978516-18.4972191-18.4966965-18.4972191z" fill="#474c5b"/><path d="m70.2932816 60.7101059c-9.0062904 0-16.3327713-7.3264771-16.3327713-16.3322449s7.3264809-16.3322449 16.3327713-16.3322449c9.0052414 0 16.3317184 7.3264771 16.3317184 16.3322449s-7.3264771 16.3322449-16.3317184 16.3322449zm0-30.5276871c-7.8272934 0-14.1959686 6.3681526-14.1959686 14.1954422s6.3686752 14.1954422 14.1959686 14.1954422 14.1949158-6.3681488 14.1949158-14.1954422-6.3676301-14.1954422-14.1949158-14.1954422z" fill="#4d5c7d"/></svg>