<svg enable-background="new 0 0 140 140" height="512" viewBox="0 0 140 140" width="512" xmlns="http://www.w3.org/2000/svg"><circle cx="70" cy="70" fill="#e05b49" r="64"/><path d="m38.3614464 95.4483337c.0100098.0300293.0199585.0499878.0299683.0800171.1700439.3399658.3300171.6699829.5100098 1 .0300293.0499878.0599976.0899658.0800171.1400146.1699829.2999878.3499756.5999756.539978.8899536.0300293.0599976.0700073.1199951.1099854.1799927.1800537.2700195.3700562.5400391.5600586.8099976.0499878.0700073.0999756.1300049.1499634.2000122.1900024.25.3900146.5.5900269.7399902.0599976.0700073.1199951.1400146.1699829.210022.210022.2399902.4199829.4700317.6400146.7000122.0599976.0599976.1199951.1300049.1900024.2000122.2199707.2199707.4400024.4400024.6699829.6599731l32.5194664 32.5194702c28.8295288-2.2849121 52.2744141-23.6582642 57.688179-51.4918213l-44.7276688-44.7276648-.0199585.0100098c-.25-.2399902-.5-.4699707-.7600098-.6900024-4.7000122-4.0299683-11.1099854-6.1400127-17.3900146-6.0700054-3.1400146.0599976-6.2800255.5800171-9.2499962 1.6000347-2.960022 1.0299683-5.710022 2.5599976-8.0999756 4.5199585-2.3699951 1.9500122-4.3099976 4.3900146-5.6400146 7.1100464-1.3099976 2.7199707-1.9299927 5.7399902-1.7700195 8.6699829.1199951 2.2000122.6699829 4.3599854 1.5700073 6.3399658-8.289978 6.7100258-10.2600098 17.410038-10.2600098 27.2600136 0 1.0200195.0599976 2 .1699829 2.9400024 0-.0100098-.0099487-.0199585-.0099487-.0199585.2699584 2.2799682.8599853 4.3499755 1.7399902 6.2199706z" opacity=".1"/><path d="m92.8612671 44.0551109c-1.2939987-2.7265511-3.2256851-5.1758842-5.5641098-7.18153-4.6952438-4.0298538-11.1096725-6.1371574-17.3854904-6.0632-3.1424789.0554523-6.2850189.5730419-9.2519417 1.5989666-2.9576149 1.0259247-5.7119713 2.5602417-8.0965462 4.5196877-2.3753777 1.9501915-4.3163757 4.390274-5.638073 7.1076279-1.3124428 2.71735-1.9316902 5.7396698-1.7745781 8.6696434.1571083 2.939167 1.0906296 5.8136292 2.6064453 8.2906609 1.4973106 2.5047913 3.5769119 4.6028404 5.9152832 6.2757683 4.7045517 3.3643494 10.5459366 4.9263687 16.2394104 4.8801651 5.6935272-.0924072 11.433197-1.6544266 16.1931992-4.9263687 2.366127-1.6267242 4.4642334-3.7155228 5.998497-6.2110596 1.5342636-2.4770317 2.4400864-5.3699989 2.5602417-8.309166.1293564-2.9392243-.5175857-5.9338456-1.8023376-8.6511956zm-12.6624909 20.1028405c-2.9114075 1.9039917-6.5992889 2.9484177-10.2871094 2.8837128-2.2552185-.0462036-4.4919357-.4343796-6.5530357-1.1737823-.7949142-.2865219-1.5620155-.6193008-2.2922249-1.0074768-1.1737823-.609993-2.2552185-1.3402023-3.2256889-2.1627579-1.5804634-1.3401985-2.7913094-2.9669228-3.5676613-4.676796-.7671585-1.7191811-1.0721855-3.5399628-.91502-5.3145447.3142204-3.5492172 2.4862862-6.6824989 5.5825653-8.7713585 3.0963326-2.1350555 7.0429192-3.1702347 10.9710655-3.1147804 3.9188843.08321 7.7638779 1.1276398 10.9156113 3.1610413 3.1517868 1.9963951 5.4254456 5.1573792 5.6288147 8.7250977.2587662 3.5214615-1.3216934 7.2554855-4.4272766 10.0375443-.5545425.5083351-1.1645355.9704704-1.8022842 1.3956528-.0092468.0091932-.0185013.0091932-.0277558.0184477z" fill="#64798a"/><path d="m87.8609467 46.1162682c-1.0074234-1.9686966-2.5139847-3.7340813-4.344017-5.1851921-3.678627-2.9114113-8.697403-4.4364777-13.6052628-4.3810234-2.4585342.0370064-4.9263687.4159317-7.2370415 1.1553345-2.3198662.7394028-4.4734306 1.8485374-6.3404694 3.2626953-1.8577881 1.4141045-3.3827972 3.1702347-4.4087219 5.1296806-1.0352325 1.9686966-1.5158157 4.1499557-1.3864059 6.2665138.1109085 2.1258621.8503113 4.1962128 2.0333481 5.989296 1.1738396 1.8115311 2.80056 3.3273468 4.6305923 4.5381355 1.2015381.794857 2.5047913 1.4511108 3.8634377 1.9686966-1.1737823-.609993-2.2552185-1.3402023-3.2256889-2.1627579-1.5804634-1.3401985-2.7913094-2.9669228-3.5676613-4.676796-.7671585-1.7191811-1.0721855-3.5399628-.91502-5.3145447.3142204-3.5492172 2.4862862-6.6824989 5.5825653-8.7713585 3.0963326-2.1350555 7.0429192-3.1702347 10.9710655-3.1147804 3.9188843.08321 7.7638779 1.1276398 10.9156113 3.1610413 3.1517868 1.9963951 5.4254456 5.1573792 5.6288147 8.7250977.2587662 3.5214615-1.3216934 7.2554855-4.4272766 10.0375443-.5545425.5083351-1.1645355.9704704-1.8022842 1.3956528.8133621-.3789787 1.5897141-.8041077 2.3476257-1.2847443 1.8577881-1.1738396 3.5029526-2.6896553 4.6952972-4.4827385 1.2107925-1.793026 1.9132462-3.8818817 2.0056458-6.0077438.1016616-2.1165582-.3974229-4.2885667-1.4141541-6.2480088z" fill="#3a556a"/><path d="m70.0000305 52.3533058c-28.4406128 0-33.5377426 18.0840569-33.5377426 33.9559059 0 15.8718948 13.9586296 22.8822937 32.4810104 22.8822937s34.5944138-7.0103989 34.5944138-22.8822937c0-15.871849-5.3586426-33.9559059-33.5376816-33.9559059z" fill="#4d5c7d"/><path d="m70.0000305 52.3533058c-28.4406128 0-33.5377426 18.0840569-33.5377426 33.9559059 0 15.8718948 13.9586296 22.8822937 32.4810104 22.8822937s34.5944138-7.0103989 34.5944138-22.8822937c0-15.871849-5.3586426-33.9559059-33.5376816-33.9559059z" fill="#64798a"/><g fill="#3a556a"><path d="m103.5365601 86.3126984c0 15.8696823-16.0730438 22.8756485-34.5953674 22.8756485-17.3485413 0-30.6949806-6.1464081-32.3216476-19.9642334 4.5566368 9.1687851 16.1191902 13.3372421 30.3899002 13.3372421 18.5223846 0 34.5954285-7.0152206 34.5954285-22.8848953 0-3.3921051-.2495728-6.8950653-.9058228-10.2963715 2.1535644 5.3052979 2.8375091 11.2575913 2.8375091 16.9326096z"/><path d="m81.7969818 65.9357529c-1.4368973-1.4368973-3.4239578-2.3236351-5.6162415-2.3236351-4.3927841 0-7.9480972 3.5552635-7.9480972 7.9398766v9.8940659c0 4.384613 3.5553131 7.9398727 7.9480972 7.9398727 4.3846207 0 7.9398804-3.5552597 7.9398804-7.9398727v-9.8940659c0-2.1922837-.886734-4.1793443-2.3236389-5.6162415zm-1.781784 15.5103073c0 2.1101913-1.7242584 3.8344498-3.8344574 3.8344498-2.1184082 0-3.8426666-1.7242584-3.8426666-3.8344498v-9.8940659c0-2.1184158 1.7242584-3.8344498 3.8426666-3.8344498 2.110199 0 3.8344574 1.7160339 3.8344574 3.8344498z"/><path d="m60.3429756 63.6096611s-.5524178 4.1420097-4.3074875 4.811245v3.3832703h4.3074875v17.582962h4.1054268v-25.7774773z"/></g><g fill="#fff"><g opacity=".25"><path d="m56.0776787 58.4961891c-.3168716-.7929344-1.259594-1.1249542-1.9984398-.6967697-3.0703545 1.7792435-10.2242355 7.0406532-12.7210808 18.4587288-.191925.8776093.4728699 1.7151718 1.3711967 1.7151718.6694946 0 1.2333641-.4784393 1.3729362-1.133194 2.2472382-10.5427322 8.719265-15.1161919 11.3524399-16.5772285.621788-.3449631.8936234-1.0918159.6291008-1.7513885z"/><path d="m56.0837135 58.5110474.0001183.0004615.4805298 1.2024346z"/><path d="m56.03508 58.3893471.0486335.1217003-.0005226-.0025559z"/><path d="m43.3706436 82.6080093c.0399857-.8057022-.6094284-1.4738617-1.4161758-1.4738617-.7627563 0-1.3805389.6017685-1.4202957 1.3634796-.0897789 1.7192307-.0825233 3.543045.0431213 5.4810715.0513039.7905579.7586937 1.3770065 1.5475655 1.3039932l.0107384-.0009842c.7733192-.0715561 1.3346329-.751091 1.2842598-1.5260315-.1186829-1.8253249-.1289559-3.5385818-.0492135-5.1476669z"/></g><path d="m60.0422363 35.0622787-.0991249-.1191483c-.206604-.2484474-.5432091-.3637047-.8560181-.2825127-7.9026527 2.0524139-11.2993927 10.1519203-12.295742 13.1184464-.1814156.5402489.2261047 1.096283.7959557 1.096283.3457146 0 .6528931-.2202988.7776108-.5426865 3.3051643-8.5421982 8.8256454-11.1694527 11.2859306-11.938591.5697288-.178112.7730865-.8728484.3913879-1.3317909z" opacity=".25"/></g></svg>