<svg enable-background="new 0 0 140 140" height="512" viewBox="0 0 140 140" width="512" xmlns="http://www.w3.org/2000/svg"><circle cx="70" cy="70" fill="#334d5c" r="64"/><path d="m26.9692745 87.6950073c.0100098.8099976.0499878 1.6299438.1300049 2.4599609.0499878.5200195.1699829 1.0100098.3200073 1.4799805.3400269 1.0900269.9199829 2.0400391 1.6600342 2.8200073l.0299683.0400391c.0700073.0599976.1300049.1300049.2000122.1900024l39.2565308 39.2787476c.4784564.0105591.9531879.0362549 1.4341449.0362549 30.5084839 0 56.0134277-21.3538208 62.4283371-49.9259644l-58.9990158-58.9990806h-6.8499756v25.5100098l-4.4400063-4.4400024c-1.5800171-1.8800049-4.25-2.7399902-6.7700195-1.6999512-3.0700073 1.2799683-6.789978 3.6299438-10.789978 7.9099731-8.8300171 9.4500122-17.8300152 21.4500084-17.6100445 35.2799644z" opacity=".1"/><path d="m71.9108658 54.3019905-1.9106445 2.5557976-1.911972-2.5557976c-.3197403.2386932-7.9240074 5.9770737-16.2069435 16.7395439l2.8910103 2.2248077c7.1278877-9.2615738 13.8487015-14.7463989 15.2274094-15.8312531 1.3753662 1.0801773 8.078804 6.5421791 15.2279587 15.8312531l2.8910065-2.2248077c-8.2829287-10.7624702-15.8880846-16.5008507-16.2078249-16.7395439z" fill="#d5d6db"/><path d="m95.4163361 52.3528519c-3.9995193-4.2777901-7.7197189-6.6292419-10.785347-7.9030228-3.882515-1.613224-8.1505051 1.2859726-8.1505051 5.4902267v12.9479294c0 1.1139603.3308716 2.1980362.9110107 3.1489639 4.7251129 7.7449265 1.5937347 15.1151276 2.7122116 21.3466949.4507751 2.5114288 1.7488785 4.1763687 3.1836395 5.2753601 1.9867401 1.5216522 4.6030426 1.76931 7.0030365 1.0602493 4.3723602-1.2918701 10.8067169 1.4905396 10.8067169 1.4905396.068634.0521011.1369934.1031418.2050705.1531296 4.5488815 3.3416214 11.0474701.4082489 11.5947189-5.2095642 1.4508439-14.8947448-8.1106566-27.7786598-17.4805525-37.8005065z" fill="#fcd462"/><path d="m44.5836678 52.3528519c3.9995193-4.2777901 7.7197151-6.6292419 10.785347-7.9030228 3.8825111-1.613224 8.1505051 1.2859726 8.1505051 5.4902267v12.9479294c0 1.1139603-.3308716 2.1980362-.9110107 3.1489639-4.7251129 7.7449265-1.5937424 15.1151276-2.7122154 21.3466949-.4507751 2.5114288-1.7488785 4.1763687-3.1836433 5.2753601-1.9867325 1.5216522-4.6030388 1.76931-7.0030289 1.0602493-4.372364-1.2918701-10.8067207 1.4905396-10.8067207 1.4905396-.0686378.0521011-.1369934.1031418-.2050705.1531296-4.5488777 3.3416214-11.0474739.4082489-11.5947151-5.2095642-1.4508498-14.8947448 8.1106489-27.7786598 17.4805525-37.8005065z" fill="#fcd462"/><path d="m112.8955612 90.1549683c-.5499878 5.6199951-7.039978 8.5499878-11.5899658 5.210022-.0700073-.0499878-.1400146-.1000366-.210022-.1600342 0 0-6.4299927-2.7799683-10.8099976-1.4899902-2.4000244.710022-5.0100098.4700317-7-1.0599976-1.4299927-1.0899658-2.7299805-2.7600098-3.1799927-5.2700195-.3099976-1.75-.2900391-3.5899658-.2000122-5.5099487.039978.5599976.0999756 1.1199951.2000122 1.6699829.4500122 2.5100098 1.75 4.1699829 3.1799927 5.2700195 1.9899902 1.5199585 4.5999756 1.7699585 7 1.0599976 4.3800049-1.2900391 10.8099976 1.4899902 10.8099976 1.4899902l.210022.1499634c4.5499878 3.3500366 11.039978.4100342 11.5899658-5.1999512.0400391-.3800049.0700073-.7600098.0800171-1.1300049.1099854 1.6300048.0800171 3.289978-.0800171 4.9699707z" fill="#f7be56"/><path d="m59.895565 87.3849487c-.4500122 2.5100098-1.75 4.1800537-3.1799927 5.2700195-1.9899902 1.5300293-4.6099854 1.7700195-7.0100098 1.0599976-4.3699951-1.289978-10.7999878 1.4899902-10.7999878 1.4899902-.0700073.0599976-.1400146.1100464-.210022.1600342-4.5499878 3.3399658-11.0499897.4099731-11.5899677-5.210022-.1600342-1.6799927-.1900024-3.3399658-.0800171-4.9699707.0100098.3699951.039978.75.0800171 1.1300049.539978 5.6099854 7.0399799 8.5499878 11.5899677 5.1999512l.210022-.1499634s6.4299927-2.7800293 10.7999878-1.4899902c2.4000244.7099609 5.0200195.4599609 7.0100098-1.0599976 1.4299927-1.1000366 2.7299805-2.7600098 3.1799927-5.2700195.1000366-.539978.1600342-1.0800171.210022-1.6300049.0800171 1.9000244.0999756 3.7299805-.210022 5.4699707z" fill="#f7be56"/><path d="m79.905571 81.8349609c-.1599731-2.1799927.0499878-4.4899902.1500244-6.8899536.1399536 2.3799439-.0500488 4.6799927-.1500244 6.8899536z" fill="#f0a67a"/><path d="m60.105587 81.914978c-.1000366-2.2299805-.2999878-4.5599976-.1600342-6.9699707.1000366 2.4299927.3200074 4.7599488.1600342 6.9699707z" fill="#f0a67a"/><path d="m66.575104 25.077766h6.849794v52.728573h-6.849794z" fill="#ebf0f3"/><g fill="#d5d6db"><path d="m66.575104 28.231949h6.849794v.94119h-6.849794z"/><path d="m66.575104 31.892132h6.849794v.94119h-6.849794z"/><path d="m66.575104 35.552315h6.849794v.94119h-6.849794z"/><path d="m66.575104 39.212502h6.849794v.94119h-6.849794z"/><path d="m66.575104 42.872685h6.849794v.94119h-6.849794z"/><path d="m66.575104 46.532867h6.849794v.94119h-6.849794z"/><path d="m66.575104 50.19305h6.849794v.94119h-6.849794z"/><path d="m66.575104 53.853237h6.849794v.94119h-6.849794z"/><path d="m66.575104 57.51342h6.849794v.94119h-6.849794z"/><path d="m66.575104 61.173603h6.849794v.94119h-6.849794z"/><path d="m66.575104 64.833786h6.849794v.94119h-6.849794z"/><path d="m66.575104 68.493973h6.849794v.94119h-6.849794z"/><path d="m66.575104 72.154152h6.849794v.94119h-6.849794z"/></g></svg>