<svg enable-background="new 0 0 140 140" height="512" viewBox="0 0 140 140" width="512" xmlns="http://www.w3.org/2000/svg"><circle cx="70" cy="70" fill="#efc84a" r="64"/><path d="m28.417902 74.3449783.0299683.0300293c.0100098.0100098.0200195.0200195.0300293.0299683l6.7999897 6.8000488c.8099976 1.7999878 1.7299805 3.5499878 2.7600098 5.2299805.0899658.1500244.1799927.2999878.2799683.4400024.3500366.5599976.710022 1.0999756 1.0800171 1.6400146.0999756.1599731.2099609.3099976.3099976.4599609.9199829 1.3099976 1.9099731 2.5800171 2.960022 3.7900391.1599731.1999512.3299561.3800049.5.5700073.3699951.4099731.7299805.8199463 1.1099854 1.2199707.2000122.210022.3999634.4199829.5999756.6199951.2800293.2999878.5800171.5800171.8800049.8699951l-.01001.0100099 37.6444664 36.5307541c26.4257202-5.6279221 46.8005447-27.5617599 50.1156693-54.7706223l-30.9901199-30.9901123c-4.1799927-4.5300293-10.1699829-7.3800049-16.8300171-7.3800049-6.1199951 0-11.6699829 2.3999634-15.7799683 6.3099976-4.1100464-3.9100342-9.6600304-6.3099976-15.7800255-6.3099976-12.6499634 0-22.9099751 10.2600098-22.9099751 22.9199829 0 3.4700317.3800049 6.8300171 1.0999775 10.0499878h-3.0399799c-.6400146 0-1.1600342.5200195-1.1600342 1.1600342 0 .2999878.1199951.5599976.3099976.7699585z" opacity=".1"/><path d="m85.6860962 39.4469032c-6.1167145 0-11.6688766 2.4012337-15.7778397 6.3069725-4.108963-3.9057388-9.661129-6.3069725-15.7778397-6.3069725-12.6559792 0-22.9156628 10.2596817-22.9156628 22.9156609 0 23.2517166 17.0055676 41.2129974 38.6935043 47.6968002 21.6879349-6.4838028 38.6934967-24.4450836 38.6934967-47.6968002-.0000018-12.6559792-10.2596835-22.9156609-22.9156588-22.9156609z" fill="#e56353"/><path d="m108.5987091 62.3666458c0 23.2441559-17.0034256 41.2128372-38.6874771 47.6916351-14.1871414-4.2310485-26.3645973-13.3806228-33.094532-25.7167358 7.0340919 9.1495743 17.3339729 15.9456787 28.9825172 19.4363022 21.6840591-6.4920349 38.6874847-24.4474792 38.6874847-47.7048721 0-3.2790184-.6875687-6.3862305-1.9304352-9.2025146 3.7550736 4.0856208 6.0424424 9.5198287 6.0424424 15.4961852z" fill="#d15241"/><path d="m63.9728279 86.9969559c-.5118027 0-.9664879-.3376236-1.1112633-.8341522l-7.6544304-26.260891-5.807415 14.1127663c-.1787071.4343262-.6017227.717659-1.0711098.717659h-19.0509662c-.6396122 0-1.1582031-.5185928-1.1582031-1.1582031 0-.6396179.5185909-1.1582031 1.1582031-1.1582031h18.2750607l6.7705078-16.4523621c.187191-.4552498.6503563-.743103 1.1327553-.7159576.4914436.0260124.9127617.3602409 1.0501862.8324547l7.1347084 24.4777794 1.711853-10.7631454c.08992-.5621338.5745773-.9760971 1.1440659-.9760971h4.8041687l4.1012115-9.4415016c.188324-.433197.6220856-.7216148 1.0926056-.696167.4727783.0124397.8895721.3104744 1.0547104.7532845l5.9306946 15.917366 2.0132828-4.6870956c.1826706-.4252777.6011581-.7012558 1.0643234-.7012558h4.1634216c.6396179 0 1.1582031.5185852 1.1582031 1.1582031 0 .6396103-.5185852 1.1582031-1.1582031 1.1582031h-3.4005203l-2.8525238 6.6415634c-.1871948.4348907-.6435776.7255783-1.0926056.7006912-.4733429-.0113068-.8918381-.309906-1.0569687-.7532806l-5.9363556-15.933773-3.2597122 7.503437c-.1837921.4230118-.6005859.6967316-1.0620575.6967316h-4.5751266l-2.3678741 14.8858414c-.0853882.5349884-.5304642.9399109-1.071106.9738388-.0248872.0017011-.0492021.0022657-.0735208.0022657z" fill="#ebf0f3"/></svg>