<svg enable-background="new 0 0 140 140" height="512" viewBox="0 0 140 140" width="512" xmlns="http://www.w3.org/2000/svg"><circle cx="70" cy="70" fill="#e05b49" r="64"/><path d="m28.7650089 84.3083191h-.0200195l49.1851196 49.1851196c25.9072266-3.2041626 47.0064087-21.8787842 53.7724686-46.5039673l-15.757576-15.7111206c-.0100098-.0200195-.0200195-.0300293-.039978-.0400391l-.0300293-.0299683h-.0100098c-.2299805-.2000122-.5099487-.3300171-.8399658-.3300171h-6.3800049c-.4000244 0-.75.210022-.9400024.5300293h-32.2999897l-8.1500244-8.160038c-2.3300171-2.7199707-10.049984-4.7199707-19.2299767-4.7199707-11.0300293 0-19.9600239 2.8800049-19.9600239 6.4299965v18.210022h.0800171c.0999756.3899537.3099976.7699586.6199951 1.1399537z" opacity=".1"/><path d="m67.9699783 82.724884c.0012817-.0302734.0140991-.0595703.0140991-.0899048s-.0128174-.0596313-.0140991-.0899048v-17.5826415h-39.9090595v18.204895h.0834351c.842041 3.302124 9.411562 5.8988647 19.8781757 5.8988647s19.0360718-2.5967407 19.8781128-5.8988647h.0693359z" fill="#fcd462"/><path d="m67.9698944 82.5450745v-17.5826416h-19.8710899v24.1026001c10.4315186-.0127563 18.9619102-2.6036987 19.801754-5.8977051h.0693359v-.4424439c.0013428-.0302734.0141602-.0595703.0141602-.0899048s-.0128174-.0596313-.0141602-.0899047z" fill="#e5aa4a"/><path d="m113.9320679 89.0661774-66.1559639-.0011444-2.4997597-17.6524125h68.6557236z" fill="#fcd462"/><g fill="#4d5c7d"><path d="m47.816391 73.876762h1.092821v6.362633h-1.092821z"/><path d="m51.612507 73.876762h1.092821v3.397769h-1.092821z"/><path d="m55.760994 73.876762h1.092821v6.362633h-1.092821z"/><path d="m59.55711 73.876762h1.092821v3.397769h-1.092821z"/><path d="m63.705597 73.876762h1.092821v6.362633h-1.092821z"/><path d="m67.501717 73.876762h1.092821v3.397769h-1.092821z"/><path d="m71.6502 73.876762h1.092821v6.362633h-1.092821z"/><path d="m75.44632 73.876762h1.092821v3.397769h-1.092821z"/><path d="m79.594803 73.876762h1.092821v6.362633h-1.092821z"/><path d="m83.390923 73.876762h1.092821v3.397769h-1.092821z"/><path d="m87.539406 73.876762h1.092821v6.362633h-1.092821z"/><path d="m91.335526 73.876762h1.092821v3.397769h-1.092821z"/><path d="m95.484016 73.876762h1.092821v6.362633h-1.092821z"/><path d="m99.280129 73.876762h1.092821v3.397769h-1.092821z"/><path d="m103.428619 73.876762h1.092821v6.362633h-1.092821z"/></g><ellipse cx="48.023" cy="64.962" fill="#f7be56" rx="19.962" ry="6.431"/><ellipse cx="48.023" cy="64.962" fill="#dc8744" rx="11.595" ry="3.736"/><path d="m115.0238495 70.8783264h-6.380127c-.5100098 0-.9599609.3500366-1.0699463.8400269-1.4499512 6.039978-1.5799561 11.7199707-.039917 16.9299927.1398926.4599609.5799561.7700195 1.0599365.7700195h6.4300537c.7099609 0 1.2800293-.5700073 1.2800293-1.2800293v-15.9799805c.0000001-.710022-.5700683-1.2800293-1.2800292-1.2800293zm-4.7000733 11.5400391c0 .4299927-.3499756.789978-.789917.789978-.4300537 0-.7900391-.3599854-.7900391-.789978v-4.5400391c0-.4299927.3599854-.789978.7900391-.789978.4399414 0 .789917.3599854.789917.789978z" fill="#ebf0f3"/></svg>