<svg enable-background="new 0 0 140 140" height="512" viewBox="0 0 140 140" width="512" xmlns="http://www.w3.org/2000/svg"><circle cx="70" cy="70" fill="#334d5c" r="64"/><path d="m42.2314415 105.6183167 28.362545 28.3666382c30.4345093-.2781372 55.7844849-21.7918091 61.9579544-50.446167l-40.2705154-40.2704507c-3.7199707-3.8099976-7.5200195-7.6400146-10-10h-37.1400109c-2.4699707 0-4.4599609 2-4.4599609 4.4699707v64.5300293c0 1.3399697.6099854 2.5299721 1.5499878 3.3499795z" opacity=".1"/><path d="m82.2857971 33.2717896h-37.1454201c-2.4643898 0-4.4621811 1.9977913-4.4621811 4.4621086v64.532196c0 2.4643936 1.9977913 4.4621124 4.4621811 4.4621124h50.3417015c2.4643936 0 4.4621124-1.9977188 4.4621124-4.4621124v-51.0952949c-4.9673995-5.1549263-13.3270644-13.7707406-17.6583938-17.8990097z" fill="#ebf0f3"/><g fill="#d5d6db"><path d="m82.2857971 33.2717896v13.4369011c0 2.4643173 1.9977112 4.4621086 4.4621048 4.4621086h13.1962891c-4.3313294-4.1282692-12.6909943-12.7440834-17.6583939-17.8990097z"/><path d="m48.423595 67.391815h13.073168v2.872979h-13.073168z"/><path d="m64.376778 67.391815h6.245607v2.872979h-6.245607z"/><path d="m73.182106 67.391815h19.016686v2.872979h-19.016686z"/><path d="m48.423595 73.000343h8.304153v2.872979h-8.304153z"/><path d="m59.445862 73.000343h8.47249v2.872979h-8.47249z"/><path d="m70.069778 73.000343h12.871135v2.872979h-12.871135z"/><path d="m85.258698 73.000343h6.940088v2.872979h-6.940088z"/><path d="m48.423595 78.763145h13.073168v2.872979h-13.073168z"/><path d="m64.376778 78.763145h6.245607v2.872979h-6.245607z"/><path d="m73.182106 78.763145h19.016686v2.872979h-19.016686z"/><path d="m48.423595 84.371674h8.304153v2.872979h-8.304153z"/><path d="m59.445862 84.371674h8.47249v2.872979h-8.47249z"/><path d="m70.069778 84.371674h12.871135v2.872979h-12.871135z"/><path d="m85.258698 84.371674h6.940088v2.872979h-6.940088z"/><path d="m48.423595 90.134476h13.073168v2.872979h-13.073168z"/><path d="m64.376778 90.134476h6.245607v2.872979h-6.245607z"/><path d="m73.182106 90.134476h4.75981v2.872979h-4.75981z"/><path d="m48.423595 95.743012h8.304153v2.872979h-8.304153z"/><path d="m59.445862 95.743012h8.47249v2.872979h-8.47249z"/><path d="m70.069778 95.743012h8.434131v2.872979h-8.434131z"/></g><path d="m70.0625458 48.7429466h-6.7884407v-6.7884369h-4.128788v6.7884369h-6.7884369v4.128788h6.7884369v6.7885018h4.128788v-6.7885018h6.7884407z" fill="#e56353"/><path d="m83.1736298 98.178894c-.07061 0-.1292801-.0550308-.1329117-.1266785-.0036316-.0726929.0529556-.1349945.1266861-.1391449l8.1487961-.3925171c-.5711136-.4776611-.9412994-1.1827316-1.0425491-1.9199905-.1147385.1277237-.2559586.2346802-.4262543.3073654-.327095.1381073-.7543945.07061-1.0607224-.1713333-.1261673-.0996857-.2196198-.2170258-.2772522-.3437119-.0685349.07061-.1510849.1308365-.244545.1765289-.1734085.0841064-.3608398.1100693-.5332108.0737228-.0244064.1848373-.1137085.3665543-.2549286.5119324-.1614685.1651001-.3717422.2647934-.5825348.2772522-.039978.1661377-.1458969.3167114-.3026962.4267807-.231041.1599121-.5285416.2097549-.7813873.1235657-.1625137-.0550308-.3089294-.1536789-.4309387-.2865982-.0114212.0124664-.0223236.0249252-.0342636.037384-.580986.6251144-1.3468018.9428635-2.0497894.8566742-.1801682-.0228424-.3504639-.0726852-.510376-.1422577-.1661377.1869125-.3385162.3696671-.5171204.5451584-.051918.051918-.1365509.0508804-.1879501-.0010376-.051918-.0529633-.0508804-.1370697.0010376-.1879501.1593933-.1567993.3130798-.317749.4615707-.4838943-.6531525-.4018555-1.08564-1.1661148-1.2086945-1.8836441-.1645813-.9605179.0607452-1.9096069.3494186-2.9635773.1469345-.5358124.3291779-1.2024612.7305145-1.718544.372261-.4786987 1.0498123-.8878326 1.7310028-.7123413.5617676.1422577 1.0139923.6656113 1.1515808 1.3312225.1272049.6178436-.0145416 1.2585373-.1526489 1.7486572-.4241791 1.5119019-1.1692276 2.9158096-2.1759491 4.1141205.1147385.0436096.2351913.0737228.3613586.0903397.6209564.0778809 1.2979965-.2118378 1.8218613-.7736053.0228424-.0249252.0451736-.0498428.0669785-.0747681-.0976105-.1671753-.1651077-.3623962-.1915817-.5731888-.056076-.4496307.0581512-.8961334.1588745-1.2907257.0607452-.2398682.1365433-.5378876.3385162-.7559509.2102737-.2253342.6043396-.3395538.871727-.1287613.1817245.1443329.3400803.4485855.0654221 1.0882339-.2559662.5981216-.5197144 1.1775436-.9080734 1.6728592.0913773.1079865.2055969.1941757.3426666.2409058.1708145.0560684.3842087.0218048.5441208-.0903397.0747604-.0529633.2019653-.1671829.2066422-.3468246.0010376-.037384.0176468-.0726852.0456848-.0976105.0275192-.02388.0617828-.0404968.1017609-.0311508.1723785.018692.3546143-.0540009.4927216-.1962585.1370697-.1401825.2056046-.3260574.1817169-.4953156-.0067444-.0498428.0150604-.0996857.056076-.1277161.042572-.028038.0955353-.032196.1391449-.0072708.1386261.0726852.3193054.0716476.4849319-.009346.1635437-.0789185.2767334-.2180634.3032074-.3717499.0005188-.0010376.0005188-.0020752.0010376-.0041504.01194-.0716476.0783997-.1183777.1531677-.1079941.0721664.0124588.1209717.0799561.1090317.1526489-.0005188 0-.0005188 0-.0005188.0010376-.0327148.1910629.0539932.384201.2372665.5285416.2315674.1827545.550354.2398682.7917786.1349869.2263718-.0965652.3930359-.2793274.5025864-.4973907.0031128-.3104782.0550308-.6209564.1614685-.9148254.0207672-.0591888.0763245-.0976028.1417389-.0872192.061264.0072632.1095505.057106.1157837.1183701.0295944.3021774-.016098.6479645-.1542053.9511719.0124664.9054794.482338 1.8109589 1.2611313 2.28862.0498428.0301132.0737305.0893021.0591888.1464157-.014534.056076-.0643768.0965729-.1225281.0996857l-8.5283355.4112013c-.0020752 0-.0041504 0-.0062332 0zm.6443252-7.9115219c-.4729843 0-.9246902.304245-1.1946716.6510696-.3686295.4735107-.5358124 1.0851212-.6837845 1.6250916-.280365 1.0217743-.4994659 1.9417953-.344223 2.8472748.1142197.6666489.518158 1.376915 1.1240616 1.7268524 1.0046463-1.1806564 1.7481308-2.5700302 2.1686859-4.0684357.1292801-.4600067.2632294-1.0601959.1474533-1.6219711-.0960541-.4651947-.4288635-.9937439-.9563675-1.1276932-.0872192-.0218048-.1744461-.0321884-.2611542-.0321884zm2.2424164 3.6167221c-.1225357 0-.2570038.0633469-.3416367.1547241-.1557541.1682205-.2196198.4195099-.276207.6417313-.0950165.3707047-.2024918.7912521-.1526489 1.1910324.0155792.1246109.0529633.256485.1111069.3790131.3385162-.4548111.5799484-.9875107.8156586-1.5368195.0939789-.2201385.2211838-.611618.0140228-.7756805-.0482864-.037384-.1074753-.0540009-.1702957-.0540009z" fill="#474c5b"/></svg>