<svg enable-background="new 0 0 140 140" height="512" viewBox="0 0 140 140" width="512" xmlns="http://www.w3.org/2000/svg"><circle cx="70" cy="70" fill="#45b39c" r="64"/><path d="m133.5827179 77.2272186-47.6855469-47.6855449c-2.4700317-2.460022-6.4700317-2.460022-8.9299927 0l-47.4200439 47.419981c-2.4699707 2.4699707-2.4699707 6.4699707 0 8.9400024l47.6809692 47.6809082c29.5677491-3.3253174 53.0296021-26.7874756 56.3546143-56.3553467z" opacity=".1"/><path d="m54.1028595 110.456604-24.5594635-24.5594635c-2.4663029-2.466301-2.4663029-6.4649734 0-8.9312744l47.4224701-47.4224701c2.466301-2.4663029 6.4649734-2.4663029 8.9312744 0l24.5594635 24.5594635c2.466301 2.466301 2.466301 6.4649696 0 8.9312744l-47.4224701 47.4224701c-2.4663048 2.466301-6.4649734 2.466301-8.9312744 0z" fill="#e56353"/><path d="m82.8732681 48.4196892c-2.9088135 0-5.342392-2.053257-5.9317551-4.7909737-.0855179-.4087486-.1330338-.836525-.1330338-1.2737617 0-.2471619.0189667-.5038414.0475159-.7414894.0190277-.1806145.0475159-.3517151.0855179-.5323296.5893631-2.7377167 3.0229416-4.7909737 5.9317551-4.7909737s5.3423309 2.053257 5.931694 4.7909737c.038002.1806145.0665512.3517151.0855179.5323296.0285492.237648.0475235.4943275.0475235.7414894 0 .4372368-.0475235.8650131-.1330414 1.2737617-.589363 2.7377167-3.0228805 4.7909737-5.931694 4.7909737z" fill="#ebf0f3"/><path d="m88.8049622 43.6287155h-11.8634491c-.0855179-.4087486-.1330338-.836525-.1330338-1.2737617 0-.2471619.0189667-.5038414.0475159-.7414894.0190277-.1806145.0475159-.3517151.0855179-.5323296h11.8634491c.038002.1806145.0665512.3517151.0855179.5323296.0285492.237648.0475235.4943275.0475235.7414894-.0000001.4372368-.0475236.8650131-.1330414 1.2737617z" fill="#d5d6db"/><path d="m88.8555527 41.3960648c-.014679-.1043777-.0280762-.2080612-.0505905-.31493h-11.8634491c-.0225067.1068687-.0359116.2105522-.0505905.31493z" fill="#b6b7ba"/><path d="m97.6463013 63.1927223c-2.9088135 0-5.342392-2.053257-5.9317551-4.7909737-.0855179-.4087486-.1330338-.836525-.1330338-1.2737617 0-.2471657.0189667-.5038414.0475159-.7414894.0190277-.1806183.0475159-.3517151.0855179-.5323334.5893631-2.7377129 3.0229416-4.7909698 5.9317551-4.7909698s5.3423309 2.053257 5.931694 4.7909698c.038002.1806183.0665512.3517151.0855179.5323334.0285492.237648.0475235.4943237.0475235.7414894 0 .4372368-.0475235.8650131-.1330414 1.2737617-.5893631 2.7377167-3.0228806 4.7909737-5.931694 4.7909737z" fill="#ebf0f3"/><path d="m103.5779953 58.4017487h-11.8634491c-.0855179-.4087486-.1330338-.836525-.1330338-1.2737617 0-.2471657.0189667-.5038414.0475159-.7414894.0190277-.1806183.0475159-.3517151.0855179-.5323334h11.8634491c.038002.1806183.0665512.3517151.0855179.5323334.0285492.237648.0475235.4943237.0475235.7414894 0 .4372367-.0475235.865013-.1330414 1.2737617z" fill="#d5d6db"/><path d="m103.6285858 56.1690979c-.014679-.1043777-.0280762-.2080612-.0505905-.3149338h-11.8634491c-.0225067.1068726-.0359116.210556-.0505905.3149338z" fill="#b6b7ba"/><path d="m69.367157 61.9257965c-2.9088135 0-5.3423843-2.053257-5.9317513-4.7909698-.0855217-.4087486-.1330376-.8365288-.1330376-1.2737656 0-.2471619.0189705-.5038414.0475159-.7414894.0190315-.1806145.0475197-.3517151.0855217-.5323296.5893669-2.7377167 3.0229378-4.7909698 5.9317513-4.7909698s5.3423309 2.0532532 5.931694 4.7909698c.0380096.1806145.0665512.3517151.0855255.5323296.0285416.237648.0475159.4943275.0475159.7414894 0 .4372368-.0475159.8650169-.1330414 1.2737656-.5893631 2.7377128-3.0228805 4.7909698-5.931694 4.7909698z" fill="#ebf0f3"/><path d="m75.298851 57.1348267h-11.8634453c-.0855217-.4087486-.1330376-.8365288-.1330376-1.2737656 0-.2471619.0189705-.5038414.0475159-.7414894.0190315-.1806145.0475197-.3517151.0855217-.5323296h11.8634453c.0380096.1806145.0665512.3517151.0855255.5323296.0285416.237648.0475159.4943275.0475159.7414894 0 .4372368-.0475159.8650169-.1330414 1.2737656z" fill="#d5d6db"/><path d="m75.3494492 54.9021721c-.014679-.1043777-.0280838-.2080574-.0505981-.31493h-11.8634454c-.0225105.1068726-.0359116.2105522-.0505905.31493z" fill="#b6b7ba"/><path d="m78.0754013 70.6340942c0-2.9088135 2.0532532-5.342392 4.7909698-5.9317551.4087448-.0855179.836525-.1330338 1.2737656-.1330338.2471619 0 .5038376.0189667.7414856.0475159.1806183.0190277.3517151.0475159.5323334.0855179 2.7377167.5893631 4.7909698 3.0229416 4.7909698 5.9317551s-2.0532532 5.3423309-4.7909698 5.931694c-.1806183.038002-.3517151.0665512-.5323334.0855255-.237648.0285416-.4943237.0475159-.7414856.0475159-.4372406 0-.8650208-.0475159-1.2737656-.1330414-2.7377166-.589363-4.7909698-3.0228805-4.7909698-5.931694z" fill="#ebf0f3"/><path d="m82.8663712 76.5657883v-11.8634491c.4087448-.0855179.836525-.1330338 1.2737656-.1330338.2471619 0 .5038376.0189667.7414856.0475159.1806183.0190277.3517151.0475159.5323334.0855179v11.8634491c-.1806183.038002-.3517151.0665512-.5323334.0855255-.237648.0285416-.4943237.0475159-.7414856.0475159-.4372407 0-.8650208-.0475159-1.2737656-.1330414z" fill="#d5d6db"/><path d="m85.0990219 76.6163864c.1043777-.014679.2080612-.0280838.3149338-.0505981v-11.8634491c-.1068726-.0225067-.210556-.0359116-.3149338-.0505905z" fill="#b6b7ba"/><path d="m60.1494789 73.6555557c-2.0568428 2.056839-5.2295113 2.3257675-7.5821114.8066559-.3495026-.2285538-.6855888-.4974442-.9947586-.8066177-.1747704-.1747665-.3428574-.3696823-.490715-.5579071-.1142578-.1411743-.2150993-.2823029-.3159409-.4368896-1.5191116-2.3526001-1.2501869-5.5252686.8066559-7.5821075 2.0568428-2.0568466 5.2294693-2.3257294 7.5820694-.8066177.1545868.1008453.2957573.2016449.4368858.3159409.1882286.1478577.3831406.3159409.5579147.490715.3091698.3091736.5780563.645256.8066139.9947586 1.5191118 2.3525999 1.250229 5.5252302-.8066138 7.5820692z" fill="#ebf0f3"/><path d="m60.9560928 66.0734863-8.3887253 8.3887253c-.3495026-.2285538-.6855888-.4974442-.9947586-.8066177-.1747704-.1747665-.3428574-.3696823-.490715-.5579071-.1142578-.1411743-.2150993-.2823029-.3159409-.4368896l8.3887253-8.3887253c.1545868.1008453.2957573.2016449.4368858.3159409.1882286.1478577.3831406.3159409.5579147.490715.3091699.3091735.5780564.645256.806614.9947585z" fill="#d5d6db"/><path d="m59.4131432 64.4589844c-.0841866-.0634232-.1669769-.1272583-.2584648-.1869125l-8.3887253 8.3887253c.0596504.0914917.1234894.1742783.1869164.258461z" fill="#b6b7ba"/><path d="m70.6340866 90.2049408c-2.9088135 0-5.342392-2.0532608-5.9317551-4.7909775-.0855179-.4087448-.1330414-.836525-.1330414-1.2737579 0-.2471619.0189743-.5038452.0475235-.7414932.0190277-.1806183.0475159-.3517151.0855179-.5323334.5893631-2.737709 3.0229416-4.7909698 5.9317551-4.7909698s5.3423309 2.0532608 5.931694 4.7909698c.038002.1806183.0665436.3517151.0855179.5323334.0285492.237648.0475159.4943314.0475159.7414932 0 .437233-.0475159.8650131-.1330338 1.2737579-.5893631 2.7377167-3.0228805 4.7909775-5.931694 4.7909775z" fill="#ebf0f3"/><path d="m76.5657806 85.4139633h-11.8634491c-.0855179-.4087448-.1330414-.836525-.1330414-1.2737579 0-.2471619.0189743-.5038452.0475235-.7414932.0190277-.1806183.0475159-.3517151.0855179-.5323334h11.8634491c.038002.1806183.0665436.3517151.0855179.5323334.0285492.237648.0475159.4943314.0475159.7414932 0 .437233-.0475159.8650131-.1330338 1.2737579z" fill="#d5d6db"/><path d="m76.6163712 83.1813126c-.014679-.1043777-.0280838-.2080612-.0505905-.3149338h-11.8634492c-.0225143.1068726-.0359116.210556-.0505905.3149338z" fill="#b6b7ba"/><path d="m42.3549423 88.9380112c-2.9088135 0-5.3423882-2.0532532-5.9317513-4.7909698-.0855217-.4087448-.1330414-.836525-.1330414-1.2737656 0-.2471619.0189743-.5038376.0475197-.7414856.0190315-.1806183.0475197-.3517151.0855217-.5323334.5893631-2.737709 3.0229378-4.7909698 5.9317513-4.7909698s5.3423309 2.0532608 5.931694 4.7909698c.0380058.1806183.0665512.3517151.0855217.5323334.0285454.237648.0475197.4943237.0475197.7414856 0 .4372406-.0475197.8650208-.1330414 1.2737656-.589363 2.7377166-3.0228805 4.7909698-5.931694 4.7909698z" fill="#ebf0f3"/><path d="m48.2866364 84.1470413h-11.8634453c-.0855217-.4087448-.1330414-.836525-.1330414-1.2737656 0-.2471619.0189743-.5038376.0475197-.7414856.0190315-.1806183.0475197-.3517151.0855217-.5323334h11.8634453c.0380058.1806183.0665512.3517151.0855217.5323334.0285454.237648.0475197.4943237.0475197.7414856-.0000001.4372407-.0475197.8650208-.1330414 1.2737656z" fill="#d5d6db"/><path d="m48.3372307 81.9143906c-.014679-.1043777-.02808-.2080612-.0505943-.3149338h-11.8634453c-.0225143.1068726-.0359154.210556-.0505943.3149338z" fill="#b6b7ba"/><path d="m57.1279755 103.7110443c-2.9088135 0-5.3423882-2.0532532-5.9317513-4.7909698-.0855217-.4087448-.1330414-.836525-.1330414-1.2737656 0-.2471619.0189743-.5038376.0475197-.7414856.0190315-.1806183.0475159-.3517151.0855217-.5323334.5893631-2.7377167 3.0229378-4.7909698 5.9317513-4.7909698s5.3423309 2.0532532 5.931694 4.7909698c.038002.1806183.0665474.3517151.0855217.5323334.0285454.237648.0475197.4943237.0475197.7414856 0 .4372406-.0475197.8650208-.1330414 1.2737656-.5893631 2.7377166-3.0228806 4.7909698-5.931694 4.7909698z" fill="#ebf0f3"/><path d="m63.0596695 98.9200745h-11.8634453c-.0855217-.4087448-.1330414-.836525-.1330414-1.2737656 0-.2471619.0189743-.5038376.0475197-.7414856.0190315-.1806183.0475159-.3517151.0855217-.5323334h11.8634453c.038002.1806183.0665474.3517151.0855217.5323334.0285454.237648.0475197.4943237.0475197.7414856 0 .4372406-.0475197.8650208-.1330414 1.2737656z" fill="#d5d6db"/><path d="m63.1102638 96.6874237c-.014679-.1043777-.0280838-.2080612-.0505943-.3149338h-11.8634453c-.0225143.1068726-.0359154.210556-.0505943.3149338z" fill="#b6b7ba"/></svg>