<svg enable-background="new 0 0 140 140" height="512" viewBox="0 0 140 140" width="512" xmlns="http://www.w3.org/2000/svg"><circle cx="70" cy="70" fill="#334d5c" r="64"/><path d="m90.8935699 30.574955-38.2199707-2.1799927v9.3300171l-9.4400024 15.3900146v54.3800011l26.5020752 26.4983521c.088562.0003662.1756592.0066528.2643433.0066528 34.1453857 0 62.0389404-26.7417603 63.8952026-60.4233398z" opacity=".1"/><path d="m96.7635651 50.2449989v55.089962l-11.459961 6.2700196-42.0700073-4.1099854v-54.3800011l9.4400024-15.3900146v-9.3300171l38.2199707 2.1799927-.5299682 10.1500244z" fill="#ebf0f3"/><path d="m85.3029251 111.6031876 11.4627457-6.2707215v-55.0871811l-11.4627457 6.2707177z" fill="#e6e9ef"/><path d="m43.2343292 53.1108131 9.4380532-15.3897628 37.6882743 3-5.0577316 15.7949524z" fill="#e6e9ef"/><path d="m90.3606567 40.7210503 6.4050141 9.5242347-11.4627457 6.2707177z" fill="#d5d6db"/><path d="m85.3029327 79.5672684 11.4627381 13.4848633v12.2803344l-11.4627457 6.2707215-12.6348648-16.583313z" fill="#e56353"/><g fill="#4d5c7d"><path d="m49.4111633 74.6333008v-9.0174789l1.7448349.1958084 2.0734825 6.6175003c.1912155.616066.3306427 1.0766373.4182816 1.3817215.0995941-.3168793.2549553-.7812805.4660873-1.3931961l2.0973854-6.0387268 1.5595932.1750183v9.0174789l-1.1174088-.1253967v-7.5473709l-2.5455437 7.2617035-1.0457077-.1173477-2.5335922-7.9608612v7.6765442z"/><path d="m59.8383369 75.8034439v-9.0174789l1.1592407.1300888v9.0174789z"/><path d="m62.9933777 76.1575012v-9.0174789l1.1592407.1300888v7.9533463l4.3142776.4841461v1.0641403z"/><path d="m69.7994232 76.9212799v-9.0174789l1.1592407.1300888v4.4718323l4.3501358-3.9836578 1.5715408.1763611-3.6749039 3.2413406 3.8362427 5.7942429-1.5297165-.1716614-3.1191864-4.9141388-1.4341125 1.2784119v3.1247482z"/></g><path d="m43.2343292 95.9082336v11.5911408l42.0686035 4.1038208v-32.0359268z" fill="#27a2db"/></svg>