<svg enable-background="new 0 0 140 140" height="512" viewBox="0 0 140 140" width="512" xmlns="http://www.w3.org/2000/svg"><circle cx="70" cy="70" fill="#334d5c" r="64"/><path d="m40.9678917 102.8983459 31.0690269 31.0501709c33.7324219-1.0571899 60.8692093-28.2028809 61.9123001-61.9388428l-31.4213333-31.4213295c-.4899902-.5499878-1-1.0800171-1.5200195-1.6000366-8.2799683-8.2799664-19.2999878-12.8499737-31.0200195-12.8499737-11.7199669 0-22.7299767 4.5700073-31.0199547 12.8499737-17.1000385 17.1100464-17.1000385 44.9400063 0 62.0400429.6499634.6499634 1.3200073 1.2699585 2 1.8699951z" opacity=".1"/><path d="m94.8363037 74.920166h-49.6721878c-1.3317299 0-2.4112701 1.0795898-2.4112701 2.4112701 0 1.3317261 1.0795403 2.4112625 2.4112701 2.4112625h49.6721878c1.3317261 0 2.4112701-1.0795364 2.4112701-2.4112625.0000001-1.3316802-1.079544-2.4112701-2.4112701-2.4112701z" fill="#ebf0f3"/><path d="m95.7100525 79.6426849h-51.3741989c-.8491554 0-1.5375061.6884003-1.5375061 1.5375595 0 5.4634171 4.4289474 9.8923569 9.8923149 9.8923569h34.6645851c5.4633636 0 9.8923645-4.4289398 9.8923645-9.8923569 0-.8491592-.6884003-1.5375595-1.5375595-1.5375595z" fill="#fcd462"/><path d="m97.2456589 81.1779404c0 5.4660187-4.425293 9.8913116-9.8913116 9.8913116h-34.6646348c-5.4660683 0-9.8913116-4.425293-9.8913116-9.8913116 0-.4671173.2130737-.8932724.5490456-1.1636658 1.3357811 3.8679886 5.0153084 6.6460876 9.3422661 6.6460876h34.6646347c4.3269043 0 8.006485-2.7780991 9.3422165-6.6460876.3360137.2703934.5490951.6965485.5490951 1.1636658z" fill="#f7be56"/><path d="m48.5945549 76.4051132c.4694977-.5406113 1.3297501-.9775543 1.854557-.4904556.065361 1.2588577 1.5118141 2.237915 2.7048149 1.8308105 1.0994873-.3751984 1.8597565-1.6609726 3.0205193-1.6132507 1.6788521.0690308 2.3765984 2.8491364 4.0474167 2.6711807 1.351902-.1439972 1.9578514-2.2062302 3.3166161-2.1600113 1.1149025.0379181 1.8957863 1.5497208 2.982563 1.2980042.5405731-.125206.8918533-.6603241 1.4061203-.8686905 1.2251587-.4963837 2.5556412 1.0450592 3.8095932.6267166.6151886-.205246 1.0042419-.8331451 1.6025696-1.083313 1.8215256-.7615891 3.6194839 2.3550568 5.430687 1.5692444.629837-.2732697.9740906-.9369049 1.3630447-1.5026627.3889465-.5657578 1.001564-1.1196899 1.6738052-.9802017.9177017.1904144 1.1958771 1.4921036 2.0776749 1.8096848.4567947.1645126.960907.0201721 1.4231262-.1284332.4622116-.148613.9610291-.3019791 1.4233322-.153656s.8022995.7460251.5125504 1.1356049c1.1345978-.6389923 2.4753265-1.2953873 3.6808853-.8031845.7741776.3160782 1.2921219 1.0387039 1.9367218 1.5713882s1.6497726.8589783 2.2819748.3116379c.6244125-.5405884.4602356-1.5641632.0528107-2.2825775-.4074326-.7184219-1.011261-1.3594437-1.1553268-2.1726837-.0781326-.4410934-.0161133-.9167709-.2127228-1.3192749-.346611-.7095871-1.2826538-.8427734-2.0713043-.8838272-11.5-.5986252-23-1.1972427-34.5000114-1.7958679-3.2629662-.1698456-6.0778923-.0124741-9.0518112 1.4318161-1.744278.8471146-3.3224411 2.0173111-2.5743256 4.2146149.6550368 1.9239195 2.1072729.7540205 2.9641188-.2326128z" fill="#44c4a1"/><path d="m91.7616653 74.920166h-43.7785835c-2.8885803 0-5.2302361-2.3416595-5.2302361-5.2302399v-.0000076c0-2.8885803 2.3416557-5.2302322 5.2302361-5.2302322h43.7785835c2.8885803 0 5.2302399 2.3416519 5.2302399 5.2302322v.0000076c0 2.8885804-2.3416595 5.2302399-5.2302399 5.2302399z" fill="#dc8744"/><path d="m47.7810593 63.4966965c.2086906.6191025-.3303719 1.2651215-.9366226 1.5086288-.6062469.2435074-1.2845345.2361069-1.9096489.4260101-.6251183.1899109-1.2496758.7016602-1.2078209 1.3536453.0477371.7436981.9714355 1.1659927 1.6934929.9815903.7220535-.1844025 1.264904-.7639236 1.7647438-1.3166733-.2645493.4207535-.2071495 1.0170364.1328011 1.3795929.3399544.3625641.9313126.4581833 1.3682022.2212296.6466751-.3507309.7907982-1.1900101 1.0835266-1.8649292.2927322-.6749115 1.1579819-1.2965164 1.703167-.8025818.4099998.37146.2471123 1.0328217.1049423 1.5674896-.1421661.5346756-.1304626 1.2692871.3923607 1.4502335.5563965.1925583 1.0099487-.444458 1.5086021-.7575073 1.2783775-.8025436 3.4165688.4387283 4.2775917-.8010178.2799339-.4030609.3263206-.9951782.7534065-1.2368774.5099754-.28862 1.1655884.2043686 1.3046341.7736206.1390419.569252-.0493851 1.1593246-.1486282 1.7368469-.0992393.5775146-.0741234 1.2545929.3686409 1.638443.5317459.4609833 1.4136124.2243958 1.8740921-.3077927s.6092529-1.2580872.7417259-1.9492569c.3805313-.0338593.7610588-.0677185 1.1415901-.1015778-.0734253.6326904.4312477 1.2759323 1.0632362 1.3551712.6319809.0792465 1.2798462-.4194794 1.3648987-1.0507126.0573959-.4259644-.0421982-.9943161.3507233-1.1685562.3022003-.1340103.6465912.1344757.7692947.4414368.1227036.3069687.1126022.651947.2146683.9663773.1803665.5556335.7378693.9660263 1.3219986.9731598.584137.0071411 1.1514969-.3895111 1.3453827-.9405746-.3242645-.3907928-.6435776-.9981689-.2754288-1.3479385.3181152-.3022308.8707809-.0665359 1.1154861.297699s.3201599.8204575.5575867 1.189476c.2374268.3690262.7739868.6261368 1.1095352.3433762.6177063.0400238 1.2132187-.497406 1.2365646-1.1159668.2709351.0247269.5418625.0494537.8127975.0741806-.2869568.355629.0183334.9399643.4585876 1.0624084.4402466.1224365.9062958-.0829544 1.2783661-.3482437.3720627-.2652969.7028427-.5979004 1.1196594-.785202.6411285-.2880936 1.3799362-.1904068 2.078743-.11483.6988068.0755844 1.4590759.10923 2.0463715-.2769318.5873032-.3861618.8159943-1.3567123.2569199-1.7827225.0409393-.5033722.7426758-.7273407 1.1784821-.4721298.4358139.2552109.6245346.7885666.6875839 1.2896576.0630493.5010834.0360031 1.0189133.1914444 1.4994354.2674026.8265991 1.1097107 1.4303436 1.9783936 1.4180527.8686905-.0122833 1.6935883-.6396027 1.9375076-1.4734344.0676498-.2312698.0967331-.479805.2253418-.6835785.3264923-.517334 1.1381912-.4767914 1.6289597-.1115723s.7678528.9409485 1.1167603 1.4434433.8624115.9796524 1.4737778.9579468c.6113663-.0217133 1.1221619-.8423233.6886673-1.2739716.3863449.068306.7726898.1366196 1.1590347.2049255 1.17939-1.1478271.5558395-3.3045044-.7932968-4.2470093-1.3491287-.9424973-3.1008301-1.0157585-4.7459488-1.0612297-10.5386124-.2913017-21.0709076-.8108673-31.5870247-1.5582085-2.9474297-.209465-6.216259-.3417091-8.5053253 1.5268135" fill="#3ea69b"/><path d="m47.0570145 65.4459763c.1951408.6191025-.3089256 1.2651215-.8758163 1.5086288-.5668945.2435074-1.2011452.2361069-1.7856827.4260178-.5845337.1899033-1.1685448.7016602-1.1294098 1.3536453.0446396.7436981.9083748 1.1659851 1.5835533.9815826.6751823-.1844025 1.1827888-.7639236 1.6501808-1.3166656-.2473755.4207458-.1937027 1.0170288.1241798 1.3795929.3178864.3625564.8708534.4581756 1.2793808.2212219.6046944-.3507233.73946-1.1900101 1.0131874-1.8649216.2737236-.6749191 1.0828018-1.296524 1.592598-.8025894.3833847.37146.2310677 1.0328217.0981293 1.5674973-.1329346.534668-.1219902 1.2692871.36689 1.4502258.5202751.1925583.9443817-.444458 1.4106636-.7574997 1.1953888-.8025513 3.1947708.4387207 3.999897-.8010254.2617607-.4030609.3051376-.9951706.7044945-1.2368774.4768715-.28862 1.0899239.2043762 1.2199402.7736206.1300163.569252-.0461769 1.1593246-.1389771 1.7368469-.0928001.5775146-.069313 1.2546005.3447075 1.638443.4972267.4609909 1.321846.2243958 1.75243-.3077927.4305878-.5321884.5697021-1.2580872.693573-1.9492569.3558273-.0338593.7116547-.0677185 1.0674782-.1015778-.0686531.6326904.4032516 1.2759323.9942131 1.3551788.5909576.0792389 1.1967583-.419487 1.2762947-1.0507202.0536728-.4259644-.0394592-.9943085.3279495-1.1685486.2825851-.1340103.6046219.1344681.7193604.4414368.1147308.3069611.1052856.6519394.2007294.9663696.1686554.5556335.6899643.9660263 1.2361755.9731674.5462112.0071335 1.0767441-.3895187 1.258049-.9405823-.303215-.3907928-.6018066-.9981689-.2575607-1.3479309.2974701-.3022385.8142548-.0665436 1.0430756.2976913s.2993774.8204575.5213852 1.189476c.2220154.3690262.7237473.6261368 1.0375137.3433762.5775986.0400238 1.1344528-.497406 1.1562881-1.1159592.2533417.0247192.5066833.0494461.760025.074173-.2683258.355629.0171432.9399643.4288177 1.0624084.4116745.1224365.8474655-.0829468 1.1953735-.3482437.3479156-.2652969.6572266-.5979004 1.0469818-.785202.5995026-.2880936 1.2903442-.1904068 1.9437866-.1148224.6534424.0755768 1.364357.10923 1.9135284-.2769318.5491714-.3861694.7630234-1.35672.240242-1.7827225.0382767-.5033798.694458-.7273483 1.1019745-.4721375s.583992.7885742.6429443 1.2896576c.05896.5010834.0336685 1.0189133.1790237 1.4994354.2500381.8265991 1.0376587 1.4303436 1.8499527 1.4180603.812294-.012291 1.5836411-.6396103 1.8117294-1.4734421.0632553-.2312698.0904541-.4797974.2107086-.6835785.3053055-.517334 1.0643005-.4767838 1.5232162-.1115646.4589081.3652191.7180023.9409409 1.0442581 1.4434433.3262558.5024948.8064194.9796524 1.3780975.9579391s1.0493164-.8423233.6439667-1.2739639c.3612595.068306.7225266.1366119 1.0837936.2049179 1.1028214-1.1478271.5197525-3.3045044-.7417984-4.2470093-1.2615509-.9424973-2.8995361-1.0157547-4.437851-1.0612259-9.854454-.2913055-19.7030182-.8108673-29.536438-1.5582123-2.7560844-.2094612-5.8127098-.3417091-7.9531708 1.5268173" fill="#31978c"/><g fill="#fcd462"><path d="m69.3009567 73.4742584c-2.251709-4.2362442-5.1621552-7.7747345-10.2426376-9.0145721l11.4403839-11.4403916 11.4403915 11.4403915c-4.3984909 2.2320633-7.8200455 5.245575-10.1856079 9.1037445-.5713501.9318467-1.9395065.8760148-2.4525299-.0891723z"/><path d="m44.0899048 64.0444107c3.3400154.8194733 4.5118141 3.195961 5.0629692 6.0181503.1072388.548912.9279556.5674515 1.4665298.0354156 2.6075134-2.5758438 5.7803497-4.5790634 9.4753151-6.053566l-5.2829361-7.3780594z"/><path d="m96.3123093 62.0000458-8.5919952-7.1812363-5.6383743 8.6643219c3.9046021.9622955 6.7138138 3.7530975 9.209465 7.0672913.4853745.6446381 1.3188705.6663895 1.4908371.0415649.6354752-2.3082275 1.8299103-4.2249222 3.5505753-5.7729797.8485564-.7633744.8553084-2.0869484-.0205079-2.8189621z"/></g><path d="m94.8363037 59.637146h-49.6721878c-1.3317299 0-2.4112701 1.0795898-2.4112701 2.4112701 0 1.3317299 1.0795403 2.4112701 2.4112701 2.4112701h49.6721878c1.3317261 0 2.4112701-1.0795403 2.4112701-2.4112701.0000001-1.3316803-1.079544-2.4112701-2.4112701-2.4112701z" fill="#d5d6db"/><path d="m86.44664 62.2490692c-1.6848679-.0792236-3.3824997-.6362648-5.0281677-.266346-1.2527924.2816086-2.4792786 1.0922737-3.7195206.7597351-.9404755-.2521591-1.6425705-1.1245613-2.6031952-1.2835617-1.2164383-.2013397-2.3276825.8038521-3.5597458.8516121-1.4837265.0575142-2.8867264-1.275425-4.3042221-.8333168-.8001556.2495613-1.3663559 1.0212364-2.1794891 1.2245865-.8985596.2247124-1.7893906-.2994347-2.6331177-.681572-2.5960045-1.1757736-5.7417984-1.056221-8.2410774.3131905-.6506691-.7747688-1.7603989-.9920502-2.7710152-.9442139s-2.0080528.3087387-3.0194168.2808876c-1.3355484-.0367813-2.6495323-.6004257-3.5966225-1.5428009.1184845-.8115158.7302895-1.4843521 1.4484138-1.8804474.7181282-.3960953 1.5384407-.5583229 2.345417-.7045784 10.6937065-1.938118 21.6268806-2.0026588 32.4946404-2.0614128 3.1805115-.0171928 6.3610153-.0343895 9.5415268-.0515823 1.3924484-.0075302 2.7621689.0784416 3.7283783 1.2068634.7414169.8658867 1.0134048 1.9809189.3829269 2.9893112-.7609406 1.217041-2.2396469 1.5452309-3.5247421 1.9008522-1.5496139.4288216-3.1417388.7989312-4.760971.7227936z" fill="#44c4a1"/><path d="m96.4772797 54.0519371c-3.9949875-6.869175-14.3966827-11.7670898-26.6048813-11.7670898s-22.60989 4.8979149-26.6049309 11.7670898c-1.4407196 2.4771919.3109627 5.5852089 3.1766434 5.5852089h46.8565254c2.8656845 0 4.617363-3.108017 3.1766434-5.5852089z" fill="#fcd462"/><path d="m96.9773026 56.3115959c-.1884689 1.7782898-1.6553955 3.3271484-3.6795273 3.3271484h-46.8505707c-2.8682327 0-4.6219139-3.1059189-3.1796455-5.5889626.9506416-1.6389885 2.2700157-3.1714401 3.9008026-4.5400352-.3032074.4097481-.5818062.8359032-.8276978 1.2620544-1.4341164 2.4830437.3114128 5.5889626 3.1796455 5.5889626h46.8587799c.2048722 0 .4097443-.0164031.5982133-.0491676z" fill="#f7be56"/><g fill="#ebf0f3"><ellipse cx="83.767" cy="48.82" rx=".69" ry="1.218" transform="matrix(.363 -.932 .932 .363 7.892 109.179)"/><ellipse cx="63.48" cy="48.04" rx=".69" ry="1.218" transform="matrix(.363 -.932 .932 .363 -4.311 89.776)"/><ellipse cx="70.499" cy="49.51" rx=".69" ry="1.218" transform="matrix(.363 -.932 .932 .363 -1.208 97.254)"/><ellipse cx="72.824" cy="53.421" rx="1.218" ry=".69" transform="matrix(.952 -.307 .307 .952 -12.895 24.97)"/><ellipse cx="56.603" cy="47.384" rx=".69" ry="1.218" transform="matrix(.363 -.932 .932 .363 -8.083 82.95)"/><ellipse cx="66.237" cy="53.421" rx=".69" ry="1.218" transform="matrix(.363 -.932 .932 .363 -7.569 95.776)"/><ellipse cx="75.701" cy="45.734" rx="1.218" ry=".69" transform="matrix(.92 -.393 .393 .92 -11.881 33.418)"/><ellipse cx="77.542" cy="51.256" rx=".69" ry="1.218" transform="matrix(.191 -.982 .982 .191 12.425 117.586)"/><ellipse cx="59.246" cy="51.972" rx="1.218" ry=".69" transform="matrix(.75 -.661 .661 .75 -19.565 52.128)"/><ellipse cx="86.133" cy="53.421" rx=".69" ry="1.218" transform="matrix(.191 -.982 .982 .191 17.251 127.771)"/><ellipse cx="69.336" cy="44.622" rx="1.218" ry=".69" transform="matrix(.91 -.415 .415 .91 -12.27 32.831)"/><ellipse cx="62.666" cy="44.622" rx="1.218" ry=".69" transform="matrix(.91 -.415 .415 .91 -12.873 30.061)"/><ellipse cx="51.133" cy="51.767" rx="1.218" ry=".69" transform="matrix(.91 -.415 .415 .91 -16.883 25.916)"/></g><path d="m101.0098267 38.9902344c-8.2856446-8.2861328-19.3022461-12.8496094-31.0200196-12.8496094-11.7182617 0-22.7348633 4.5634766-31.0205078 12.8496094-17.1049805 17.1044922-17.1049805 44.9360352 0 62.0405273 8.5522461 8.5527344 19.7861328 12.8286133 31.0200195 12.8286133 11.234375 0 22.4682617-4.2758789 31.0205078-12.8286133 8.2861328-8.2856445 12.8496094-19.3022461 12.8496094-31.0205078 0-11.7177734-4.5634765-22.734375-12.8496093-31.0200195zm-58.5053711 3.5351562c7.3417968-7.3413086 17.102539-11.3847656 27.4853515-11.3847656 9.5440674 0 18.5574951 3.4250488 25.6547852 9.6796875l-54.8447876 54.8447876c-13.4188233-15.2490234-12.8562622-38.5787964 1.7046509-53.1397095zm54.9702148 54.9702149c-14.5604858 14.5609741-37.8901367 15.1234741-53.1396484 1.7045898l54.8447266-54.8447266c6.2546387 7.09729 9.6796875 16.1107178 9.6796875 25.6547852-.0000001 10.3828125-4.0434571 20.1435547-11.3847657 27.4853516z" fill="#e56353"/></svg>