<svg enable-background="new 0 0 140 140" height="512" viewBox="0 0 140 140" width="512" xmlns="http://www.w3.org/2000/svg"><circle cx="70" cy="70" fill="#efc84a" r="64"/><path d="m42.8535919 72.4816742 3.9699707 3.9899902c.2200317 1.8800049 1.0700073 3.5799561 2.3400269 4.8699951h-.0200195l10.3099976 10.3099365-.4899902 9.2399902-.210022.4001465.1799927.1799316-.0899658 1.6999512 28.4457397 28.4458008c22.6472778-6.3425293 40.2133789-24.8187256 45.2410889-47.9853516l-38.796814-38.9103966c-1.1799927-1.2600098-2.6199951-2.3300171-4.2900391-3.0900269-4.9400024-2.2699585-10.5299683-1.3200073-14.4400024 1.9400024l-2.8999634-2.8499756c-2.5-2.8099976-6.1300049-4.5800171-10.1799927-4.5800171-7.0300293 0-12.8099976 5.3099976-13.5800171 12.1300049-5.5900269 1.039978-9.8599854 6.6900024-9.8599854 13.5299683 0 4.3199427 1.7099609 8.1600306 4.3699951 10.6800501z" opacity=".1"/><path d="m85.3701706 61.8008957c0-6.8366013-4.2763214-12.4888954-9.8660889-13.5327721-.7701645-6.8211174-6.5524597-12.1241646-13.5794906-12.1241646s-12.80933 5.3030472-13.5794945 12.1241646c-5.5897675 1.0438766-9.8660851 6.6961708-9.8660851 13.5327721 0 6.1882095 3.5013123 11.4157715 8.3105888 13.1264267-.011879.1826935-.0277939.3641968-.0277939.5497894 0 4.6216431 3.7465286 8.3682251 8.3681183 8.3682251 2.8019524 0 5.2758904-1.3821564 6.7946663-3.4963684 1.5187721 2.114212 3.9927139 3.4963684 6.7946625 3.4963684 4.6215897 0 8.3681183-3.746582 8.3681183-8.3682251 0-.1855927-.0159149-.3670959-.0277939-.5497894 4.8092804-1.7106552 8.3105927-6.9382172 8.3105927-13.1264267z" fill="#3ea69b"/><path d="m74.1687012 61.5864868-.1531219-.8671036c-7.2626801 1.2812996-10.3603859 8.0674744-11.6503944 12.7773972v-17.5892525c.0573654-.3350563 1.4501152-7.8970413 8.866291-9.8540421l-.2245178-.8516197c-5.0745468 1.3392563-7.5190773 5.1163788-8.6417732 7.7783279v-8.1232758h-.880867v8.1237068c-1.1227493-2.6620598-3.5673866-6.4393959-8.6422043-7.778759l-.2245178.8516197c7.4161758 1.9570007 8.8093567 9.5189857 8.8667221 9.8540421v17.5897865c-1.290062-4.7099228-4.3878746-11.4966316-11.6508255-12.7779312l-.1531181.8671036c10.5068932 1.8544197 11.772438 16.2004242 11.8039436 16.5856934v2.1765747h.880867v-2.1776505c.0311278-.387741 1.2882346-14.728691 11.8035163-16.5846175z" fill="#31978c"/><path d="m65.007782 103.1681671h-6.1663819l2.6425972-50.0277138h.8811875z" fill="#31978c"/><path d="m100.0887299 74.713768c2.8448792-6.2165756 1.3084564-13.1357307-3.3399811-16.4109764 2.1381226-6.5229797-.9130325-13.7512321-7.3027725-16.675354-6.3897324-2.9241257-13.8543472-.5081825-17.3930969 5.3738251-5.5172043-1.3768349-11.7577477 1.9833565-14.6026268 8.1999321-2.5750694 5.6269836-1.5666161 11.8374252 2.0946465 15.3942032-.0868225.161171-.1768227.3195953-.254055.4883575-1.9231796 4.2024918-.0754776 9.1683121 4.1269684 11.0914688 2.5478325 1.1659622 5.3725548.9386215 7.6333656-.3518448.5012589 2.5544662 2.1756744 4.840744 4.7235184 6.0067062 4.2024384 1.9231567 9.1682358.075386 11.0914154-4.1271133.0772324-.1687546.1382904-.3404236.2035065-.5114899 5.0849531.4457474 10.4440458-2.8507309 13.0191115-8.4777145z" fill="#44c4a1"/><g fill="#3ea69b"><path d="m89.9923706 69.8575974.2215958-.8521805c-7.1371918-1.8570862-12.7778549 3.0245972-15.9107895 6.7705536l7.3193283-15.9940338c.1915894-.2807961 4.6047516-6.5774078 12.1626968-5.2708702l.1502228-.8678093c-5.1716232-.8938484-8.9662094 1.5234833-11.0947876 3.4768372l3.3803024-7.3865585-.8009796-.3665506-3.3804779 7.3869476c.0868225-2.8878326-.5642624-7.3398666-4.6214905-10.6695175l-.5585327.680954c5.9292297 4.8655701 4.0493317 12.321476 3.9620667 12.6500168l-7.3195496 15.9945259c.7868576-4.8195953.7941055-12.2798767-5.2769699-16.4672661l-.5000534.7247467c8.7823257 6.0584145 3.9633713 19.6299706 3.8316956 19.993412l-.9057236 1.9791718.8009796.3665543.9061737-1.9801559c.1896515-.3396226 7.3003769-12.8568421 17.6342926-10.1687775z"/><path d="m64.3591156 103.856041-5.6071434-2.5659867 23.2207069-44.3909225.8012696.3666839z"/></g></svg>