<svg enable-background="new 0 0 140 140" height="512" viewBox="0 0 140 140" width="512" xmlns="http://www.w3.org/2000/svg"><circle cx="70" cy="70" fill="#334d5c" r="64"/><path d="m43.2578697 63.6582909c-.0899658.1900024-.1799927.3900185-.2600098.5800209-.1300049.2900391-.25.5800171-.3699951.8699951-.0800171.1900024-.1599731.3900146-.2299805.5800171-.1199951.2999878-.2299805.6099854-.3300171.9099731-.0700073.1900024-.1400146.3900146-.2000122.5800171-.0999756.3200073-.1999512.6400146-.289978.960022-.0599976.1799927-.1099854.3699951-.1599731.5599976-.1000366.3399658-.1800537.6799927-.2600098 1.0199585-.0400391.1800537-.0800171.3500366-.1199951.5300293-.0800171.3699951-.1500244.7399902-.210022 1.1099854-.0300293.1600342-.0599976.3200073-.0900269.4700317-.0599976.4199829-.1199951.8299561-.1699829 1.25-.0100098.1199951-.0299683.2399902-.039978.3599854-.0599976.5200195-.1000366 1.039978-.1300049 1.5599976 0 .0300293-.0100098.0499878-.0100098.0800171-.0300293.5599976-.0499878 1.1300049-.0499878 1.7099609 0 6.9500122 2.289978 13.3699951 6.1599731 18.5400391 1.210022 1.6199951 2.5900269 3.1099854 4.0900269 4.4699707l32.652523 32.8224487c23.5511475-4.9552612 42.3233032-22.8574219 48.5432205-45.916687l-54.0257643-54.0257608c-.4299927-.4799805-1.1699829-.6300049-1.7799683-.2299805-3.5 2.3499756-5.1300049 5.789978-5.8400269 9.039978-5.1400146-1.8099976-25.8499718-7.4899902-32.4699669 15.3300171l6 6v.0100098c-.1400145.2699585-.2800292.5499878-.4100341.8299561z" opacity=".1"/><ellipse cx="71.337" cy="76.785" fill="#fcd462" rx="30.996" ry="30.996" transform="matrix(.987 -.16 .16 .987 -11.378 12.418)"/><path d="m100.4347992 87.4636993c-4.3485031 11.8584061-15.7298584 20.3223648-29.096962 20.3223648-17.116478 0-30.9938202-13.8773422-30.9938202-31.004921 0-9.1960678 4.0046234-17.4603577 10.3719864-23.1399651-1.2313042 3.3390007-1.8969231 6.9331207-1.8969231 10.6935921 0 17.1165466 13.8773422 30.9938202 30.9938164 30.9938202 7.9204102.0000001 15.1419602-2.9729156 20.6219025-7.864891z" fill="#f7be56"/><path d="m71.3371353 47.6063881c-2.7032547.0508232-5.4173279.2890892-6.2110977 1.8303528-.8239441 1.4973564 1.8437805 4.3951378 6.2110977 4.4028435 4.3670959-.0076218 7.0349808-2.9054031 6.2110977-4.4028435-.7936172-1.5416374-3.5078582-1.7792397-6.2110977-1.8303528z" fill="#f7be56"/><path d="m75.9731216 32.4507751c-8.4588623 5.6763954-6.0108032 17.8056297-5.9810181 17.9457436.1348801.6298561.690094 1.0613251 1.3107834 1.0613251.0916672 0 .184639-.0091667.2776108-.0294609.7241364-.1525536 1.1876907-.8635979 1.0357895-1.587738-.1016464-.4831924-2.0838623-10.4690666 4.854866-15.1486282.3810577-.2569847.6274033-.6719246.6274033-1.131546 0-1.0891534-1.2212448-1.7165567-2.1254349-1.1096956z" fill="#44c4a1"/><path d="m71.3036652 41.9259872s-26.0517082-11.236784-33.6365395 14.8887405c0 .0000001 22.7473183 4.2137948 33.6365395-14.8887405z" fill="#44c4a1"/><path d="m71.3036652 41.9259872s-22.6614799-.3962097-31.2067299 13.3474045c0 0 7.5814285-10.387619 31.2067299-13.3474045z" fill="#3ea69b"/></svg>