<svg enable-background="new 0 0 140 140" height="512" viewBox="0 0 140 140" width="512" xmlns="http://www.w3.org/2000/svg"><circle cx="70" cy="70" fill="#efc84a" r="64"/><path d="m81.7975845 132.896225c25.6505737-4.7824707 45.9168701-24.8500977 50.9744797-50.402832l-51.4392013-51.841734c-.2600098-.3699951-.6900024-.6099854-1.1699829-.6099854-3.5200195.0299683-6.2600098 1.1900024-8.1600342 3.4599628-.5899658.710022-1.0499878 1.4899902-1.4299927 2.3099976-4.7999878-1.3099976-27.7199745-5.7099628-37.7799721 25.9000244l14.0499878 14.050045c-1.0700073 2.6899414-1.7200317 5.5899658-1.8300171 8.6298828v.1000977c-.0100098.4799805-.0100098.9499512 0 1.4399414 0 .1700439.0100098.3400879.0100098.5200195.0300293.5300293.0599976 1.0700684.1099854 1.6099854.4500122 4.3199463 1.9899902 8.3499756 4.3400269 11.7800293 1.25 1.8299561 2.7399902 3.4899902 4.3999634 4.9400635l-.0799561.1098633z" opacity=".1"/><path d="m91.2277374 69.4185181c-2.174736-2.780426-3.3646622-6.1888008-3.2752991-9.717617.0378571-1.4905891-.1241226-3.0325699-.5237808-4.6097679-1.7839127-7.0371056-7.9535522-12.2925911-15.190834-12.8629494-10.0736885-.7938156-18.4941254 7.1455116-18.4941254 17.0519447 0 .1328392.001606.2654495.004818.3974838.0851173 3.5607109-1.1314201 6.9847946-3.3180923 9.7964249-3.9178123 5.0373077-6.0131683 11.5607224-5.2900162 18.5858994.8908653 8.6522675 6.1569099 16.0943146 13.5258789 20.0512466 2.3169861 1.2440643 4.9269485 1.841835 7.5566444 1.849411.0331497 0 .0663071-.0044785.0981903-.0131912 0 0 6.4357834-.3805084 9.0784378-.0059662.0392303.0055008.076973.0191574.1165466.019043 2.5575409-.008606 5.100853-.5673752 7.3639221-1.7591324 8.2180862-4.3276901 13.8223038-12.9481812 13.8223038-22.8814621 0-5.998375-2.0453414-11.5167847-5.4745941-15.9013672z" fill="#44c4a1"/><path d="m96.7009506 85.3188553c0 9.93293-5.6007767 18.5503311-13.8234406 22.8824921-2.2647934 1.1934738-4.8021393 1.7480011-7.3581924 1.7574081-.0470276 0-.0845413-.009407-.1220551-.0188141-2.6407089-.37603-9.0779724.009407-9.0779724.009407-.0281067.009407-.0657349.009407-.0938339.009407-2.6313019-.009407-5.2437897-.6015549-7.5554962-1.8513641-7.3770027-3.9562378-12.6393738-11.3989716-13.5321884-20.0444717-.7236137-7.0291901 1.3720894-13.5510025 5.2907028-18.5879669 2.0297432-2.6030807 3.2138176-5.7417564 3.3078804-9.0308228.0188141-.253746.0188141-.5074921.009407-.7705307v-.3947296c0-9.3033867 7.4332123-16.877697 16.6802711-17.0938187.5919266-.0188103 1.2028885 0 1.8136215.0470352 7.2359085.5638161 13.4006119 5.8263016 15.1861343 12.8554916.4041367 1.578804.5638123 3.1199799.5261917 4.6141243-.084549 3.5240021 1.0995255 6.9352379 3.2796555 9.7168159 3.4207613 4.3885957 5.4693147 9.9048311 5.4693147 15.9003374z" fill="#44c4a1"/><path d="m96.7009506 85.3188553c0 9.93293-5.6007767 18.5503311-13.8234406 22.8824921-2.2647934 1.1934738-4.8021393 1.7480011-7.3581924 1.7574081-.0470276 0-.0845413-.009407-.1220551-.0188141-2.6407089-.37603-9.0779724.009407-9.0779724.009407-.0281067.009407-.0657349.009407-.0938339.009407-2.6313019-.009407-5.2437897-.6015549-7.5554962-1.8513641-7.3770027-3.9562378-12.6393738-11.3989716-13.5321884-20.0444717-.1315765-1.2405167-.1692047-2.4622192-.1221733-3.6743927 3.4206467 6.2680664 8.9933167 11.0043564 16.0130997 12.7991638 14.2368736 3.6461716 29.1035271-6.1835175 33.5954781-22.027298 1.3343505 3.1198655 2.0767745 6.5499116 2.0767745 10.1584626z" fill="#3ea69b" opacity=".25"/><path d="m70.850647 43.0955353c-3.3153381 0-6.0028458.8978615-6.0028458 2.0055351 0 1.1076775 2.6875076 2.0055389 6.0028458 2.0055389s6.0029602-.8978615 6.0029602-2.0055389c0-1.1076736-2.6876221-2.0055351-6.0029602-2.0055351z" fill="#31978c"/><path d="m70.8490982 46.8802795c-.6735992 0-1.2691879-.4836311-1.3875732-1.1691589-.0532303-.3101883-1.2636871-7.6509399 2.545723-12.2128677 1.8923187-2.2649059 4.6353455-3.4285603 8.1538391-3.4588451.7745514.0036716 1.4151077.6194534 1.4215317 1.3976707.006424.7782154-.6194534 1.4151058-1.3976669 1.4215298-2.6861343.0229416-4.6509476.8213501-6.0073242 2.4401894-2.9761276 3.5524483-1.9482956 9.8717918-1.9372787 9.9360313.1293945.7662849-.385437 1.49403-1.1526413 1.6252594-.0798418.0137672-.1596834.0201911-.2386095.0201911z" fill="#3ea69b"/><path d="m70.426033 42.185051c-3.4582672 9.6322708-10.0081825 15.1298065-16.6896782 18.259079.0188141-.253746.0188141-.5074921.009407-.7705307v-.3947296c.0000001-9.3033868 7.4332124-16.8776971 16.6802712-17.0938187z" fill="#3ea69b"/><path d="m71.4712296 36.0783043s-27.4130363-9.7797852-38.6746101 25.6348953c-.0000001 0 31.4138602 2.4596214 38.6746101-25.6348953z" fill="#44c4a1"/><path d="m71.4712296 36.0783043s-16.8802795 5.108017-33.2483139 22.5993462c-.0000001 0 26.0579528-17.7581635 33.2483139-22.5993462z" fill="#3ea69b"/></svg>