<svg enable-background="new 0 0 140 140" height="512" viewBox="0 0 140 140" width="512" xmlns="http://www.w3.org/2000/svg"><circle cx="70" cy="70" fill="#45b39c" r="64"/><path d="m56.7892799 58.0416756h-.7399902c-2.2199707 0-4.0200195 1.7999878-4.0200195 4.0200195v43.9099693c0 1.8699951.960022 3.5 2.4200439 4.4599609l23.1060219 23.109375c27.1219482-3.1920166 49.0426025-23.3325806 54.8920212-49.5493164l-47.7880783-47.7200279c-.2299805-.2299805-.4899902-.4199829-.789978-.5499878l-11.419983-11.4199848h-4.9000244v7.039978h-5.5300331c-.9299927 0-1.6899414.7600117-1.6899414 1.7000141v2.4899902h-3.2600098c-1.3300171 0-2.4000244 1.0700073-2.4000244 2.4000244v5.0299683c0 .0100098-.0100098.0300293-.0100098.0499878v5.710022c0 .5900269.2600098 1.1099854.6700439 1.4699707l5.0199585 5.0200195c-.3800048 1.6199952-1.8200072 2.8300172-3.5599975 2.8300172z" opacity=".1"/><path d="m67.551132 24.298889h4.897735v8.133454h-4.897735z" fill="#3a556a"/><path d="m77.9786301 31.3452148h-15.957264c-.9360123 0-1.6948051.7587929-1.6948051 1.6948586v5.3432503h19.346878v-5.3432503c0-.9360657-.758789-1.6948586-1.6948089-1.6948586z" fill="#64798a"/><path d="m83.9491577 58.0414352h-.5809097c-1.920105 0-3.6347198-1.4037743-3.8170319-3.3151398-.2090912-2.1926079 1.5095062-4.0373001 3.6589584-4.0373001 1.1747055 0 2.127037-.9523354 2.127037-2.1270447v-5.5510101c0-1.1747627-.9523315-2.1270409-2.127037-2.1270409h-26.4203452c-1.1747093 0-2.1270447.9522781-2.1270447 2.1270409v5.709034c0 1.0874519.8815689 1.9690208 1.9690208 1.9690208 1.9200516 0 3.6347237 1.4037132 3.8169785 3.3150826.2090912 2.1926079-1.5095062 4.0373573-3.6589546 4.0373573h-.738987c-2.2183914 0-4.0167732 1.7983818-4.0167732 4.0167732v43.9090843c0 2.9500122 2.3914642 5.3415375 5.3415337 5.3415375h25.2487946c2.9500732 0 5.3415298-2.3915253 5.3415298-5.3415375v-43.9090842c-.0000001-2.2183915-1.7983781-4.0167733-4.0167695-4.0167733z" fill="#ebf0f3"/><path d="m54.034481 75.3074417v30.6599731c0 1.8422852 1.4990234 3.3413086 3.3408203 3.3413086h25.2490197c1.8427734 0 3.3417969-1.4990234 3.3417969-3.3413086v-30.6599731z" fill="#d5d6db"/><path d="m82.9327469 35.5284195h-25.8654976c-1.3250351 0-2.3991508 1.0741158-2.3991508 2.3991547v5.0833664h30.6638031v-5.0833664c0-1.325039-1.074112-2.3991547-2.3991547-2.3991547z" fill="#4d5c7d"/><g fill="#474c5b"><path d="m57.7556343 36.9284554c-.7579613 0-1.3723984.6144943-1.3723984 1.3724556v1.9375916c0 .7579651.6144371 1.3724022 1.3723984 1.3724022.7580185 0 1.3724556-.6144371 1.3724556-1.3724022v-1.9375916c0-.7579613-.6144371-1.3724556-1.3724556-1.3724556z"/><path d="m62.6533699 36.9284554c-.7579613 0-1.3723984.6144943-1.3723984 1.3724556v1.9375916c0 .7579651.6144371 1.3724022 1.3723984 1.3724022.7580185 0 1.3724556-.6144371 1.3724556-1.3724022v-1.9375916c0-.7579613-.6144371-1.3724556-1.3724556-1.3724556z"/><path d="m67.5511017 36.9284554c-.7579575 0-1.3723984.6144943-1.3723984 1.3724556v1.9375916c0 .7579651.6144409 1.3724022 1.3723984 1.3724022.7580185 0 1.3724594-.6144371 1.3724594-1.3724022v-1.9375916c0-.7579613-.6144409-1.3724556-1.3724594-1.3724556z"/><path d="m72.4488373 36.9284554c-.7579575 0-1.3723984.6144943-1.3723984 1.3724556v1.9375916c0 .7579651.6144409 1.3724022 1.3723984 1.3724022.7580185 0 1.3724594-.6144371 1.3724594-1.3724022v-1.9375916c0-.7579613-.6144409-1.3724556-1.3724594-1.3724556z"/><path d="m77.3466263 36.9284554h-.0000534c-.7579575 0-1.3723984.6144943-1.3723984 1.3724556v1.9375916c0 .7579651.6144409 1.3724022 1.3723984 1.3724022h.0000534c.7579651 0 1.372406-.6144371 1.372406-1.3724022v-1.9375916c0-.7579613-.6144409-1.3724556-1.372406-1.3724556z"/><path d="m82.2443619 36.9284554c-.7580185 0-1.3724518.6144943-1.3724518 1.3724556v1.9375916c0 .7579651.6144333 1.3724022 1.3724518 1.3724022.7579651 0 1.3723984-.6144371 1.3723984-1.3724022v-1.9375916c0-.7579613-.6144333-1.3724556-1.3723984-1.3724556z"/></g><path d="m57.06945 67.240494h25.861099v34.77919h-25.861099z" fill="#e56353"/><path d="m68.5425262 73.7547684-7.2652359 10.8137512h10.4175187l-5.2840424 10.9368896 12.3119431-15.1093597-6.5009842-.3599014 4.8637085-6.2813797z" fill="#d5d6db"/></svg>