<svg enable-background="new 0 0 140 140" height="512" viewBox="0 0 140 140" width="512" xmlns="http://www.w3.org/2000/svg"><circle cx="70" cy="70" fill="#45b39c" r="64"/><path d="m27.2692623 97.3683167c.0100098.0200195.0200195.039978.0300293.0599976.4699707.8300171 1.2999878 1.7000122 2.2199707 2.4299927l33.7929077 33.7929077c2.1984901.2283325 4.4289589.3487549 6.687809.3487549 34.1557007 0 62.0563278-26.7575684 63.8975143-60.4534912l-18.8782272-18.8781776-.0099487.0100098c-.3699951-.4299927-.9500122-.7700195-1.8800049-.9099731-4.0599976-.6199951-5.0300293 3.1699829-5.0300293 3.1699829-5.7299805 1.7700195-2.8200073 3.710022-4.7600098 4.1500244-.4699707.1099854-.9400024.1799927-1.3999634.25-.2200317.0299683-.4400024.0499878-.6500244.0699463-.039978.0100098-.0899658.0100098-.1300049.0200195-.25.0200195-.4799805.039978-.6900024.0599976-.6599731.0400391-1.0999756.0400391-1.0999756.0400391-.039978 0-.0700073 0-.1199951-.0100098-.5200195-.3400269-1-.4500122-1.1699829-.4500122-5.3100586.0700073-10.6200562.3200073-10.5600586.7000122l.0100098.2799683c-2.7600098.5400391-4.8299561 1.2399902-7.5499878 1.5100098-.3999634.039978-.7399902.0700073-1.0499878.0900269-.1400146.0099487-.2600098.0199585-.3900146.0199585l-27.450016-27.4500122c-.1999512-.2699585-.539978-.5599976-1.1300049-.7999878-.3899536-.1599731-.8699951-.289978-1.4799805-.3800049-2.9400024-.3899536-4.2700195.9299927-6.6199951.8600464h-.0499878c-1.8400269-.0800171-4.5599976.9799805-5.8900146 2.0999756-.3900146.3200073-.6699829.6599731-.7600098.9699707-.039978.1200562-.039978.2200317-.0299683.3200073.0100098.0200195.0100098.0300293.0100098.0500488.0199585.0799561.0599976.1599731.1199951.2199707v.0100098l10.0299683 10.0299683c-.1799927 3.1800537-.4799805 6.7900391-1.0200195 8.4000244-1.0599976 3.1799927-2.2099609 9.0000038-.6199951 12.2600136.1900024.3900146.5.7399902.8699951 1.0599976l5.6700439 5.7000122-1.3400269 1.0899658c-10.3999634.4400024-11.0199585 3.4299927-14.6400146 5.5499878-2.3299541 1.3600464-4.1399517 1.7400513-5.1399517 1.8300171-.3200073.0300293-.4700317.4199829-.25.6600342l.3299561.3499756-1.2199707.5700073c-.2399902-.3200073-.6699829-.4400024-1.039978-.2600098l-3.2600098 1.6099854-.2999878.1400146-.0300293.0200195c-.0300293.0199585-.6400146.3800049-.6400146 1.5100098 0 .1699829.0100098.3499756.0400391.5499878.0699463.3999634.1999512.8699951.4299927 1.4299927 1.1699808 2.7399898 2.9999979 3.2000118 4.1399515 5.2999874z" opacity=".1"/><path d="m106.2584229 96.3386993c-.9704742-.265213-1.6756973-.7941513-2.2046585-.9704742-.528923-.1763077-4.7604294-.4414978-4.7604294-.4414978s-.2812195-4.0697708-.2812195-5.6186829c0-1.5489426 1.4075775-5.419075 1.3361816-7.3905716-.0632553-1.7827072-.1841507-8.0007401.5326385-11.1824112l-6.3979034 2.019249c-.0825348 3.0807648-.2173615 9.7252045.0484161 12.9152679.3526077 4.231514.9704361 7.3177185 1.5867996 8.7282104.6178207 1.4104919.4415131 2.5572739 1.7631378 3.0861893 1.3230515.5289612 3.2624969.265213 5.3797073.6178207 2.117218.3526306 1.2341843 0 2.6446762 0 1.4105301 0 1.3230896-.7941284 1.3230896-.7941284s.0000001-.7052459-.9704359-.9689712z" fill="#f7be56"/><path d="m32.7736473 88.9425812-2.0362911 3.1675644-3.4440975-4.7513428 3.0314254-1.4051971z" fill="#f7be56"/><path d="m31.6084423 97.7824783c-1.0406475-1.0945282-.8408642-4.1586151-.1951046-5.6863022.1690197-.3999023.0289688-.8668671-.3548355-1.0696945-.8543777-.451622-2.1740532-1.4855194-3.0058651-3.7638779-.1699448-.4654694-.7167664-.6701508-1.1614246-.4514389l-3.5898762 1.765976s-1.144022.5467758.0205402 3.2959824c1.1645489 2.7491531 3.0031261 3.2074051 4.1334724 5.3030701 1.1303844 2.0957031 4.4679871 4.6978989 5.8358803 4.3490982 1.36792-.3488083-.4159317-2.4103089-1.6827869-3.7428132z" fill="#ebf0f3"/><path d="m33.289547 101.5245285c-1.3676662.3487473-4.895071-2.0601654-6.0247612-4.1568604-1.1296864-2.0965805-2.9697456-2.5555496-4.1327572-5.3053665-1.1671848-2.7487488.1683807-3.4845428.1683807-3.4845428l.3310947-.1643829c-.3143101.4043121-.6866341 1.3475113.1080437 3.2275772 1.1630363 2.7498093 3.0030842 3.208725 4.1317081 5.3012466 1.0949268 2.0299911 4.4361515 4.3531265 5.8902493 4.1866608-.0502548.1860122-.1967735.3255005-.4719581.395668z" fill="#4d5c7d"/><path d="m46.2502861 44.9295158-1.6879082-3.3661384 5.8431931-.5423928v3.5615273z" fill="#f7be56"/><path d="m39.2378082 39.422554c1.4720383-.3376999 4.0067024 1.3955116 4.9921417 2.7295837.2579651.3492012.7311249.4666367 1.1012154.2397499.8239441-.5050201 2.3859863-1.1137009 4.7702293-.6684875.4871063.0909538.9418564-.2752571.9802437-.7693062l.3097038-3.9887276s.0454788-1.2817612-2.9134521-1.680584c-2.9588776-.3988075-4.2900314.9496765-6.6691895.8544273-2.3792191-.0952377-6.2519417 1.4694061-6.6488304 2.824131-.3968963 1.3547479 2.2858735.870289 4.0779381.4592134z" fill="#ebf0f3"/><path d="m35.1613846 38.9622803c.3968239-1.354496 4.2669373-3.162159 6.6466522-3.0658188 2.3796196.0962868 3.7121353-1.253109 6.6708031-.8526421 2.959877.3963356 2.9124451 1.920433 2.9124451 1.920433l-.0272675.3686485c-.1877327-.4764633-.8095818-1.2774315-2.8321953-1.5516472-2.9586754-.400444-4.2911377.948967-6.6667213.8538361-2.3046074-.0922623-6.0060501 1.5989113-6.6037483 2.9348984-.1344453-.1380233-.1798096-.3351707-.099968-.6077079z" fill="#4d5c7d"/><path d="m117.0199585 62.3083038c-.0978622-.3638573-.2668762-.6752396-.3252182-1.0527191-.0039825-.0257721-.0039139-.0500526-.0019226-.0735321h-13.3673859c.0424423.1574173-.042366.3603325-.2551346.3702049-.3840637.0178223-.7299194-.0772514-1.0591278-.2264137-.5706863.0800591-1.1049042.1291351-1.5407639.1581993-.6615372.043705-1.0972214.043705-1.0972214.043705-11.110611-.7941475-13.9315948 1.4993744-19.3987503 2.0283279-.3919907.0378876-.7373123.0684814-1.0447845.0917854-1.8998489.1464577-2.3242874.0252571-2.8141479-.3099098v11.3843384c.7261429.0247955 1.4636002.0284271 2.1890335.0128784 2.0880814-.0451736 4.0712509-.2433472 5.3739166-.5114517 2.9973221-.6163635 9.5223541 0 9.5223541 0s-.3526535 10.3164825 0 14.5494308c.3526154 4.231514.9704361 7.3177185 1.5867996 8.7282104.6178207 1.4104919.4415131 2.5572739 1.7631378 3.0861893 1.3230515.5289612 3.2624969.265213 5.3797073.6178207 2.117218.3526382 1.2341843 0 2.6446762 0 1.4105301 0 1.3230896-.7941284 1.3230896-.7941284s0-.705246-.9704361-.9689713c-.9704742-.265213-1.6756973-.7941513-2.2046585-.9704742-.5289154-.1763077-4.7604294-.4414978-4.7604294-.4414978s-.2812119-4.0697708-.2812119-5.6186829c0-1.5489426 1.4075699-5.4190674 1.336174-7.3905716-.0699387-1.9714813-.1398773-6.8980484.8451385-10.1357803.9850235-3.2377396 1.2108841-5.4045105 1.2108841-5.4045105-.018959-.3424225.8538589-1.4250717 1.7092133-1.6713181.8538589-.2462463 2.6009521.2462463 2.6781845 1.1394806.0757751.8932037-.534111 1.1568146.251297 2.0076447.3638535.3941803 1.3623581.1178436 1.4389877-.2037354.0277863-.116539.3030624-.4181747.5886841-.1515274.2841339.2651901.7401962-.0378876.7401962-.0378876.3409882.1326065.5129166-.1515503.6455002-.4181976.1326218-.2652054.6644592-.2652054.6644592-.2652054s-.0739212.5168457.2803268.7299194c.2589874.155777.519249.0956955.7147293-.0033112.1802521-.0912857.321167-.2427216.4233017-.417038.4796143-.8186722.8775482-.4011765 2.4488754-.8151932 1.3026581-.3424149 2.1783981-1.6451035 2.503334-2.2075348.093277-.1602936.1413345-.2608337.1413345-.2608337.0528641-.0824203.1027451-.1644058.1510544-.2461548-.1993637-.3603134-.0478821-.9460831.0854492-1.361702.1553497-.4841309.3437576-.9324722.4200592-1.4370651.0789418-.5216977.2011799-1.0326535.061295-1.5527875z" fill="#fcd462"/><g fill="#4d5c7d"><path d="m116.3021011 66.9060135s-.0480576.1005402-.1413345.2608337c-.4283905-.1413498-1.3245087-.3934326-3.1983948-.8174667-3.4563065-.7824783-3.000206-1.9569092-3.0643463-2.3474274-.0655594-.3919792-2.9360962-.5216484-2.9360962-.5216484h-.0000076c-.8382645 1.1771202-2.4114685 1.5738411-3.7020721.9237251-.2034149-.1024628-.3702087-.1965637-.4711304-.2723923-.5216599-.3905029-1.1744537-.6513329-1.3697205-1.1729965-.1282425-.3409653-.5362091-.9063301-.9485931-1.4745979.7649918-.0510139 1.830162-.1602974 2.8705368-.3978119 1.9394531-.4400368-.9704361-2.3794861 4.7604675-4.1440849 0 0 .9704361-3.7914352 5.0270996-3.1736145 4.0551682.6178207 1.7631073 4.8493156 1.7631073 4.8493156s4.407814 3.6151467 1.4104843 8.2881661z"/><path d="m101.0972519 67.7854233s.741394-4.9038773-3.1686554-5.6583176c-3.9100494-.7544441-7.1671982-.2263336-7.3180923.7544403-.1508865.9807777-1.056221 6.3373108 4.3757782 7.0163193-1.2173538 1.2047806-1.8987122 2.6138687-1.7854767 4.3258514l-5.3061447-.2716904-.3773727-12.1826401c-.0573807-.3764648 5.2497177-.6359291 10.5621948-.6985054.5334396-.0062789 3.8578872.9982415 3.0177688 6.7145425z"/><path d="m72.2166824 61.5277481c-5.6434631-1.6757011-8.2007294.9704514-11.1980553 2.0283279-2.9987831 1.0578766-10.7579994.0874252-10.7579994.0874252 1.6834564-4.8185577.7785492-17.0662537.5093575-20.2287865-.0141602-.1667023-.1706161-.2831039-.3345413-.2496643l-4.7238617.9636765c-.1278191.0260773-.2206345.136322-.2236938.2667389-.0544624 2.3274574-.3111687 10.8724403-1.2218742 13.604557-1.0578766 3.1750908-2.2046547 8.994873-.6178207 12.2559357 1.5867996 3.2624969 10.3164825 3.6938171 10.3164825 3.6938171l-5.1145363 4.154274c-10.4038925.4400406-11.0217133 3.4388275-14.6368599 5.5545807-2.3292732 1.3631973-4.1455612 1.7385941-5.1429634 1.8331528-.3252563.030838-.4732819.4203491-.2491989.6580887l3.455986 3.6669464c.1299706.1379166.3499832.1345901.4742088-.0085068.7913704-.9117203 4.2177582-3.8326111 16.9803963-6.3259888 15.3421211-2.9973221 21.1618843-9.532547 21.1618843-9.532547 1.7951965.642601 4.6904984.8436661 7.4109421.7853928l.6251144-11.087307c-3.988144.3074685-1.4745942-.5638923-6.712967-2.1201133z"/></g><path d="m53.9646759 73.9497757 5.514843-4.9696426-6.5522766 4.8874206z" fill="#474c5b"/></svg>