<svg enable-background="new 0 0 140 140" height="512" viewBox="0 0 140 140" width="512" xmlns="http://www.w3.org/2000/svg"><circle cx="70" cy="70" fill="#45b39c" r="64"/><path d="m85.9957047 38.9249954h-5.8699951l-1.039978-1.0300293c-.0299683-.039978-.0599976-.0700073-.0999756-.1099854l-.0300293-.0200195c-.2399902-.2099609-.5599976-.3399658-.8999634-.3399658h-.9300537l-4.4899902-4.4899902c-.289978-.2800293-.6799927-.460022-1.1099854-.460022h-7.3800049c-.8800087 0-1.5899696.7200317-1.5899696 1.5999756v3.3500366h-4.9400025c-.7700195 0-1.3900146.6300049-1.3900146 1.3999634v.1000366h-6.5499878c-3.8000488 0-6.8900146 3.0800171-6.8900146 6.8900146v52.3399658c0 2.1099854.9500122 3.9899902 2.4400024 5.2600098l30.2896767 30.332756c28.4493408-2.430481 51.5913696-23.4547653 57.1896896-50.8793869l-41.2393723-41.2333983c-1.25-1.6399537-3.2299805-2.709961-5.4700317-2.709961z" opacity=".1"/><path d="m85.9932861 38.9208603h-36.3140793c-3.808094 0-6.8951912 3.0870972-6.8951912 6.8952599v52.3416328c0 3.8081589 3.0870972 6.895256 6.8951912 6.895256h36.3140793c3.8080902 0 6.8951874-3.0870972 6.8951874-6.895256v-52.3416329c0-3.8081626-3.0870972-6.8952598-6.8951874-6.8952598z" fill="#f0a67a"/><path d="m48.043503 44.513298h39.318825v54.947277h-39.318825z" fill="#ebf0f3"/><g fill="#4d5c7d"><path d="m79.4515533 46.699295h-23.2306175v-7.8759995c0-.7705994.6246948-1.395298 1.3952942-1.395298h20.4400291c.7705994 0 1.3952942.6246986 1.3952942 1.395298z"/><path d="m71.5286255 32.479538h-7.3846893c-.8787155 0-1.5910072.7122955-1.5910072 1.5909386v4.7441634h10.5666389v-4.7441635c0-.878643-.7122956-1.5909385-1.5909424-1.5909385z"/><path d="m69.4086533 89.8790207-4.6391373-18.8552933-4.0008926 7.9961319h-8.3118554v-1.1587982h7.5955315l5.0895233-10.1733933 4.167244 16.9383088 1.4241638-6.9018402h2.9043426l2.6734848-7.4846344 2.5060044 11.4736404.7089691-3.989006h2.1902771v1.1587905h-1.2193375l-1.5633468 8.7939301-2.8918991-13.2389908-1.5871125 4.4450607h-2.7775955z"/></g><path d="m57.664997 51.562798h19.513466v2.751285h-19.513466z" fill="#e56353"/><path d="m53.092152 56.601757h28.659151v1.375643h-28.659151z" fill="#d5d6db"/><path d="m53.092152 60.675125h28.659151v1.375643h-28.659151z" fill="#d5d6db"/><ellipse cx="92.888" cy="93.702" fill="#e56353" rx="11.506" ry="11.506" transform="matrix(.707 -.707 .707 .707 -39.051 93.127)"/><ellipse cx="92.888" cy="93.702" fill="#ebf0f3" rx="8.072" ry="8.072" transform="matrix(.707 -.707 .707 .707 -39.051 93.127)"/><path d="m92.006218 97.4908218-3.9832459-3.9826126 1.8295746-1.8295822 2.1536713 2.153038 3.9181823-3.9181747 1.8295746 1.8295746z" fill="#4d5c7d"/></svg>