<svg enable-background="new 0 0 140 140" height="512" viewBox="0 0 140 140" width="512" xmlns="http://www.w3.org/2000/svg"><circle cx="70" cy="70" fill="#efc84a" r="64"/><path d="m103.4571609 31.8150101-21.6700439 21.6699829 10.3300171 10.3300171v17.7599487c-2.7600098-1.8199463-5.8900146-3.5799561-9.1499634-5.2399902l-33.5400391-33.539978c-.3300171-.3900146-.8200073-.6400146-1.3800049-.6400146-1 0-1.8200073.8200073-1.8200073 1.8200073v12.8099976c0 .5599976.2200317 1.0599976.5599976 1.4400024h-.0099487l.0599976.0599976c.0099487.0100098.0299683.0300293.039978.039978l4.5100098 4.5200195v3.1699829c-7.9700317.7700195-14.710022 6.8200073-16 15.0900269-.9700317 6.289978 1.4599609 12.3099976 5.9099731 16.2199707l36.2920532 36.2117232c31.7664795-3.7558593 56.41082-30.7601852 56.41082-63.5366745 0-2.7736816-.196167-5.5-.5384521-8.180603z" opacity=".1"/><path d="m93.275826 43.037861h3.297523v14.858005h-3.297523z" fill="#4d5c7d"/><path d="m92.120323 56.488937h5.608519v34.670845h-5.608519z" fill="#ebf0f3"/><path d="m51.382561 57.001625h3.251752v34.158154h-3.251752z" fill="#ebf0f3"/><path d="m55.8691521 66.1233063c-9.7923317-1.5176849-18.9609642 5.1902847-20.478653 14.982666-1.5176811 9.7923279 5.1902885 18.9609604 14.9826164 20.4786453 9.7923813 1.5176849 49.1015244 2.6012344 51.7466431-6.9484482 3.0839539-11.1340484-36.4582291-26.9951782-46.2506065-28.5128631z" fill="#4d5c7d"/><ellipse cx="53.008" cy="83.97" fill="#474c5b" rx="12.612" ry="12.612" transform="matrix(.707 -.707 .707 .707 -43.85 62.077)"/><circle cx="53.008" cy="83.97" fill="#4d5c7d" r="5.623"/><path d="m60.050663 55.2819214h-10.1739998v-11.303669c0-1.0078697-.8170357-1.8249054-1.8249054-1.8249054s-1.8249054.8170357-1.8249054 1.8249054v11.303669 1.5033531c0 1.1854668.9609871 2.1464577 2.1464043 2.1464577h1.5034065 10.1739998c1.0078697 0 1.8249054-.8170357 1.8249054-1.8249054s-.8170357-1.8249054-1.8249054-1.8249054z" fill="#e56353"/><path d="m103.6657104 32.0217361-.2076797-.2076759-21.6673508 21.6673546.2076111.2076759c1.5440826 1.5440865 4.0474701 1.5440865 5.5914841 0l16.0759354-16.0758629c1.5440216-1.5440864 1.5440216-4.04747-.0000001-5.5914917z" fill="#2d93ba"/><path d="m54.6055527 94.3119888v-11.0895233c0-.8820877-.7150764-1.597168-1.597168-1.597168-.8820381 0-1.5971184.7150803-1.5971184 1.597168v11.0895233c0 .8820877.7150803 1.5971146 1.5971184 1.5971146.8820915 0 1.597168-.7150269 1.597168-1.5971146z" fill="#d5d6db"/><path d="m59.5963402 95.0893173v-1.8463821c0-.4527283-.3670578-.8197403-.8197861-.8197403h-11.5362892c-.4527283 0-.8197327.367012-.8197327.8197403v1.8463821c0 .4527817.3670044.8197861.8197327.8197861h11.5362892c.4527283 0 .8197861-.3670044.8197861-.8197861z" fill="#ebf0f3"/></svg>