<svg enable-background="new 0 0 140 140" height="512" viewBox="0 0 140 140" width="512" xmlns="http://www.w3.org/2000/svg"><circle cx="70" cy="70" fill="#efc84a" r="64"/><path d="m40.4192848 99.6683655 34.1466713 34.1516113c26.3579712-1.8601685 48.2992554-19.6690674 56.2374802-43.8448486l-51.454155-51.4467812c-.3099976-.4800415-.8499756-.7999878-1.4599609-.7999878h-10.9500122v.6199951h-3.0499916c-.0500488 0-.0900269.0199585-.1400146.0299683l-10.7200318-10.7199688-.6900024.2699585c-2.3200073.9200439-3.4499512 3.5400391-2.5299683 5.8500347l.9400024 2.3699951c.5 1.2799683.1900024 2.6799927-.6799927 3.6300049-.6700439.7199707-.9200439 1.7199707-.5599976 2.6300049l.7799683 1.9799805-3.5499878 1.4099731c-1.3099976.5200195-1.9500122 2-1.4299927 3.3099976.0299683.0800171.0700073.1500244.1099854.2200317-6.7399902 10.460022-6.9400024 24.5999794-6.6599731 30.6799965h-1.4100342v12.9799805c0 2.6700439 1.1900024 5.0599975 3.0700073 6.6800537z" opacity=".1"/><path d="m42.8364868 61.6737747c-.2901497 0-.5802994-.1107445-.8017845-.3322334-.4429779-.4426079-.4429779-1.160965 0-1.6035728l21.055397-21.0550308c.2126312-.2126274.5013046-.3322334.8017883-.3322334h13.9345589c.6260681 0 1.1340179.507576 1.1340179 1.1340179 0 .6264458-.5079498 1.1340218-1.1340179 1.1340218h-13.465004l-20.7231674 20.7227973c-.2214889.2214889-.5116386.3322334-.8017883.3322334z" fill="#ebf0f3"/><path d="m77.8853149 37.7285767h-10.9500961v3.5122948h10.9500961c.9695435 0 1.7561493-.7860336 1.7561493-1.7561493 0-.9701119-.7866058-1.7561455-1.7561493-1.7561455z" fill="#e56353"/><path d="m38.9828796 83.0009155s-2.8890114-24.1569252 9.4097862-37.5411644h1.852562s-9.181015 16.7957306-5.778759 37.5411644" fill="#2f4859"/><path d="m46.9883041 99.9110336v2.954895c0 .4862442.3941765.8804245.8804245.8804245h8.3657532c.4862938 0 .8804703-.3941803.8804703-.8804245v-2.954895z" fill="#474c5b"/><path d="m86.4726105 99.9110336v2.954895c0 .4862442.3941727.8804245.8804245.8804245h8.3657532c.4862976 0 .8804703-.3941803.8804703-.8804245v-2.954895z" fill="#474c5b"/><path d="m96.8445587 84.5409012h-51.3993301c-4.4709702 0-8.0953865 3.6244125-8.0953865 8.0953827s3.6244164 8.0953827 8.0953865 8.0953827h51.3993301c4.4709778 0 8.0953903-3.6244125 8.0953903-8.0953827s-3.6244125-8.0953827-8.0953903-8.0953827z" fill="#4d5c7d"/><path d="m45.4453735 96.7681427c-2.2782555 0-4.1322899-1.853653-4.1322899-4.1319046 0-2.2782593 1.8540344-4.1319046 4.1322899-4.1319046h51.3989487c2.2782516 0 4.1322861 1.8536453 4.1322861 4.1319046 0 2.2782516-1.8540344 4.1319046-4.1322861 4.1319046z" fill="#474c5b"/><path d="m45.6421928 89.885788c-1.5190315 0-2.7504272 1.2314377-2.7504272 2.750473 0 1.5190277 1.2313957 2.7504272 2.7504272 2.7504272s2.750473-1.2313995 2.750473-2.7504272c.0000001-1.5190354-1.2314414-2.750473-2.750473-2.750473z" fill="#ebf0f3"/><path d="m45.6422043 91.2901688c-.743412 0-1.3460541.6026688-1.3460541 1.346077 0 .7434158.6026421 1.3460541 1.3460541 1.3460541s1.346077-.6026382 1.346077-1.3460541c-.0000001-.7434083-.602665-1.346077-1.346077-1.346077z" fill="#d5d6db"/><path d="m96.5992355 89.885788c-1.5190353 0-2.7504272 1.2314377-2.7504272 2.750473 0 1.5190277 1.2313919 2.7504272 2.7504272 2.7504272 1.5190277 0 2.750473-1.2313995 2.750473-2.7504272.0000001-1.5190354-1.2314453-2.750473-2.750473-2.750473z" fill="#ebf0f3"/><path d="m96.5992432 91.2901688c-.7434082 0-1.3460464.6026688-1.3460464 1.346077 0 .7434158.6026382 1.3460541 1.3460464 1.3460541.7434158 0 1.346077-.6026382 1.346077-1.3460541-.0000001-.7434083-.6026612-1.346077-1.346077-1.346077z" fill="#d5d6db"/><path d="m85.4772873 89.885788c-1.5190353 0-2.7504272 1.2314377-2.7504272 2.750473 0 1.5190277 1.2313919 2.7504272 2.7504272 2.7504272 1.5190277 0 2.750473-1.2313995 2.750473-2.7504272 0-1.5190354-1.2314453-2.750473-2.750473-2.750473z" fill="#ebf0f3"/><path d="m85.4772949 91.2901688c-.7434082 0-1.3460541.6026688-1.3460541 1.346077 0 .7434158.6026459 1.3460541 1.3460541 1.3460541.7434158 0 1.346077-.6026382 1.346077-1.3460541 0-.7434083-.6026611-1.346077-1.346077-1.346077z" fill="#d5d6db"/><path d="m74.3553391 89.885788c-1.5190353 0-2.7504272 1.2314377-2.7504272 2.750473 0 1.5190277 1.2313919 2.7504272 2.7504272 2.7504272 1.5190277 0 2.750473-1.2313995 2.750473-2.7504272 0-1.5190354-1.2314453-2.750473-2.750473-2.750473z" fill="#ebf0f3"/><path d="m74.3553467 91.2901688c-.7434082 0-1.3460541.6026688-1.3460541 1.346077 0 .7434158.6026459 1.3460541 1.3460541 1.3460541.7434158 0 1.346077-.6026382 1.346077-1.3460541-.0000001-.7434083-.6026612-1.346077-1.346077-1.346077z" fill="#d5d6db"/><path d="m63.233387 89.885788c-1.5190315 0-2.7504234 1.2314377-2.7504234 2.750473 0 1.5190277 1.2313919 2.7504272 2.7504234 2.7504272s2.7504768-1.2313995 2.7504768-2.7504272c0-1.5190354-1.2314453-2.750473-2.7504768-2.750473z" fill="#ebf0f3"/><path d="m63.2333984 91.2901688c-.7434082 0-1.3460503.6026688-1.3460503 1.346077 0 .7434158.6026421 1.3460541 1.3460503 1.3460541.743412 0 1.346077-.6026382 1.346077-1.3460541 0-.7434083-.6026649-1.346077-1.346077-1.346077z" fill="#d5d6db"/><path d="m47.5146141 88.7499847v-5.1876907c0-1.9621811-1.5906601-3.5528488-3.552845-3.5528488h-6.611927v12.9786301c0 4.8825455 3.9580841 8.8406296 8.8406296 8.8406296h7.801651c1.0958633 0 1.9842339-.8883743 1.9842339-1.98423v-5.6088943c0-1.0674286-.8653221-1.9327545-1.9327507-1.9327545h-2.9761467c-1.9621812-.0000002-3.5528451-1.5906603-3.5528451-3.5528414z" fill="#e56353"/><path d="m53.0264168 27.656086-.6909599.2738686c-2.3134804.9169636-3.4455757 3.535738-2.5286102 5.8492165l.9395523 2.3704681c.5071945 1.2796478.1973763 2.6809769-.6800346 3.6272087-.6657829.7179298-.9183578 1.7233582-.557579 2.6335907l3.3995514 8.576992c.360775.9102364 1.2335701 1.4696159 2.2104111 1.5364761 1.2874146.088192 2.4731369.8967552 2.9803352 2.1763992l.9395485 2.3704681c.9169655 2.3134804 3.5357399 3.4455719 5.8492165 2.5286064l.6909637-.2738647z" fill="#44c4a1"/><path d="m55.281086 45.1591339c-.5200844-1.3121643-2.0054359-1.9542427-3.3176003-1.4341583l-5.2203674 2.0691261c-1.3121643.5200882-1.9543037 2.0054131-1.4342194 3.3175774s2.005455 1.9542885 3.3176193 1.4342003l5.2203674-2.0691261c1.3121644-.5200844 1.9542847-2.0054551 1.4342004-3.3176194z" fill="#64798a"/><path d="m53.9124908 45.7016373c-.1915016-.4831619-.7384377-.7196388-1.2216454-.5281143-.4831619.1915016-.719574.7384644-.5280724 1.2216263.1915054.4831619.7384224.719593 1.2215843.5280876.4832079-.1915207.719639-.7384377.5281335-1.2215996z" fill="#474c5b"/><path d="m42.8915291 69.1022415c-.3042336 0-.6084633-.1161194-.8407021-.3483582-.4644775-.4640884-.4644775-1.2173157 0-1.6814041l22.0773316-22.0769462c.2229462-.2229462.5256348-.3483543.8406982-.3483543h14.610878c.6564636 0 1.189064.5322113 1.189064 1.1890564 0 .6568489-.5326004 1.1890602-1.189064 1.1890602h-14.1185303l-21.7289734 21.7285881c-.2322387.2322387-.5364723.3483581-.840702.3483581z" fill="#ebf0f3"/><path d="m79.6414642 43.994854h-11.4815673v3.682766h11.4815674c1.0165939 0 1.8413849-.8241882 1.8413849-1.8413849s-.824791-1.8413811-1.841385-1.8413811z" fill="#e56353"/></svg>