<svg enable-background="new 0 0 140 140" height="512" viewBox="0 0 140 140" width="512" xmlns="http://www.w3.org/2000/svg"><circle cx="70" cy="70" fill="#334d5c" r="64"/><path d="m111.4028702 41.9950027c-1.6099854-1.7700195-3.4199829-1.460022-3.9099731-1.5100098-1.6500244-.1799927-2.4700317 1.039978-2.8500366 2.4299927l-1.210022-1.2000122c-.1699829-.2199707-.3799438-.4400024-.6499634-.6300049-2.4400024-1.7799683-4.3699951-.6900024-4.8900146-.5700073-2.460022.5700073-2.0499878 3.5900269-1.4799805 5.3800049.2399902.7300415.5100098 1.5.3900146 2.2600098-.0800171.4799805-.3700562.9400024-.7600098 1.2000122l-3.7800293-3.75c-.3800049-.460022-.8499756-.8099976-1.3999634-.6900024-.75.1699829-1.0100098 1.0499878-1.1100464 1.8400269l-.0299683.0299683-5.2399902-5.2600098c-.2399902-.2699585-.6600342-.3499756-1-.1199951-1.9800415 1.3200073-2.8900146 3.2700195-3.2900391 5.1000366-2.2199707-.7700195-9.5799561-2.8200073-14.5999756 2.0099487l-1.739994-1.7199707c-2.0700073-2.2299805-5.1900024-3.0100098-7.9800415-2.1600342l-1.0599976-1.0499878c-.0199585-.0299683-.039978-.0499878-.0699463-.0700073l-.2800293-.289978-.0200195.0100098c-3.4499512-3.25-8.8599854-3.5900269-12.7099609-.5700073-1.6199951 1.2700195-2.7300415 2.960022-3.3000488 4.789978-1.5199585-.1699829-3.1099854.2300415-4.4099731 1.25-2.630003 2.0700073-3.0900249 5.8699951-1.0200195 8.5100098.1500244.1900024.3200073.3400269.4900513.5l-.0400391.0100098 1.3400269 1.3400269c-1.4100342 2.6499634-1.2300415 5.9799805.7399902 8.4799805.2600098.3300171.5499878.6400146.8499756.9199829l2.6400146 2.6300049h-2.1400146c.1600342 1.5900269.4100342 3.1600342.7399902 4.6799927.0800171.4299927.1800537.8599854.3000488 1.2800293.1499634.6599731.3299561 1.3200073.5299683 1.9599609.4100342 1.4100342.9000244 2.7900391 1.460022 4.1199951 1.7299805 4.1600342 4.1199951 7.9200439 6.9899902 11.1400146l-.0599976.0300293 37.9560585 37.9560471c28.2075806-6.6806564 49.2010422-32.0111618 49.2010422-62.2610397 0-1.9129028-.0997925-3.8018188-.2641602-5.6720581z" opacity=".1"/><path d="m60.0576439 80.3084793 4.640873-1.9198761s-6.2648811-8.2099228-2.5997353-14.3131485c3.6651497-6.1032219-1.0422401-12.7379456-1.0422401-12.7379456l-6.9613113 2.879818s-.8705902 12.4934883 1.038929 17.4742775c0 0-2.5681305-7.6676788-9.9860077-8.4461403l-5.9420357 6.8926277s9.4892082.2220688 12.614727 5.587616 3.2091866 6.6626434 3.2091866 6.6626434z" fill="#44c4a1"/><path d="m61.7846451 59.0484772s-3.2907639 2.5160675-3.3681526 8.8846741c-.0630341 5.1878052 3.6813202 11.5313339 3.6813202 11.5313339l2.6007042-1.075882s-6.3297081-10.0096054-2.3312683-14.791584c0 0 2.3409042-3.4302368 2.094429-6.855175-.2464753-3.424942-2.6770325 2.306633-2.6770325 2.306633z" fill="#3ea69b"/><ellipse cx="58.143" cy="52.112" fill="#3ea69b" rx="7.834" ry="7.834" transform="matrix(.624 -.782 .782 .624 -18.858 65.042)"/><ellipse cx="57.029" cy="50.693" fill="#44c4a1" rx="6.03" ry="6.03" transform="matrix(.624 -.782 .782 .624 -18.167 63.637)"/><ellipse cx="41.7" cy="62.711" fill="#3ea69b" rx="7.834" ry="7.834" transform="matrix(.624 -.782 .782 .624 -33.326 56.178)"/><ellipse cx="40.586" cy="61.291" fill="#44c4a1" rx="6.03" ry="6.03" transform="matrix(.624 -.782 .782 .624 -32.635 54.773)"/><ellipse cx="37.766" cy="53.472" fill="#3ea69b" rx="6.059" ry="6.059" transform="matrix(.624 -.782 .782 .624 -27.585 49.628)"/><ellipse cx="36.905" cy="52.374" fill="#44c4a1" rx="4.663" ry="4.663" transform="matrix(.624 -.782 .782 .624 -27.051 48.542)"/><ellipse cx="50.928" cy="61.819" fill="#3ea69b" rx="5.43" ry="5.43" transform="matrix(.429 -.903 .903 .429 -26.753 81.337)"/><ellipse cx="49.951" cy="61.037" fill="#44c4a1" rx="4.179" ry="4.179" transform="matrix(.429 -.903 .903 .429 -26.605 80.008)"/><ellipse cx="47.764" cy="50.349" fill="#3ea69b" rx="9.772" ry="9.771" transform="matrix(.624 -.782 .782 .624 -21.384 56.267)"/><ellipse cx="46.375" cy="48.578" fill="#44c4a1" rx="7.521" ry="7.521" transform="matrix(.624 -.782 .782 .624 -20.523 54.515)"/><path d="m89.28759 49.3054276c-1.4737701-.3380241-2.9861679-.1281967-4.429718.5277977-2.5678558 1.1668549-5.4658356 1.1668549-8.0336838-.0000229-1.4435577-.6559715-2.9559555-.865799-4.4296722-.5277748-4.9837723 1.1430283-7.637207 8.1157532-5.9266205 15.5740356 1.7105408 7.4582596 7.1373291 12.5777664 12.1211014 11.4347382.4600449-.1055298.8998184-.2615509 1.3181381-.4629593.5920792-.2850266 1.2757111-.2850266 1.8677444 0 .4183578.2014084.8580933.3574295 1.3181839.4629593 4.9837646 1.1430283 10.410553-3.9764786 12.1211395-11.4347382 1.7105409-7.4582825-.9428481-14.4310074-5.9266128-15.5740356z" fill="#e56353"/><path d="m95.2134323 64.8830261c-1.7130432 7.4509506-7.1401978 12.574852-12.120079 11.430336-.4623566-.1061249-.9020462-.2577286-1.3188782-.4624023-.5912476-.2880325-1.2734451-.2880325-1.8646927 0-.4244232.2046738-.8640137.3562775-1.3188782.4624023-3.6610031.8413467-7.5646133-1.6979065-10.0432205-6.0562897 2.3876495 2.8575974 5.4649963 4.3432541 8.3832932 3.6686401.4623566-.1061249.901947-.265274 1.3188782-.4623566.5912399-.2880325 1.2809372-.2880325 1.8721848 0 .4169235.1970825.8565216.3562317 1.3188782.4623566 4.9799728 1.1445541 10.4070358-3.979393 12.120079-11.4379272.9626465-4.2219048.5381317-8.2847099-.9247131-11.2256737 2.7136229 2.8121224 3.8505934 8.0800858 2.5771483 13.6209145z" fill="#d15241"/><path d="m80.8410797 50.9812737c-1.8836136.0419312-3.4360275-.900383-3.6802979-.4724617-.2816086.3788071 1.2392578 2.3859367 3.6802979 2.3799286 2.4412231.0060539 3.9615326-2.0011368 3.6802979-2.3799286-.2444611-.4279366-1.7967759.5144081-3.6802979.4724617z" fill="#d15241"/><path d="m83.4805756 41.4003792c-4.781601 3.2087364-3.3977661 10.0651093-3.380928 10.14431.0762405.3560448.3900909.5999451.7409515.5999451.0518188 0 .1043701-.0051842.156929-.016655.4093399-.086235.6713715-.4881706.5855103-.8975105-.0574646-.27314-1.1779633-5.9179192 2.744339-8.5631676.2154083-.1452675.35466-.3798218.35466-.639637 0-.6156731-.6903458-.9703293-1.2014618-.627285z" fill="#44c4a1"/><path d="m80.8410416 46.7564964s-14.7264252-6.3518906-19.0139503 8.4162598c-.0000001 0 12.8585242 2.381958 19.0139503-8.4162598z" fill="#44c4a1"/><path d="m80.8410416 46.7564964s-12.8100052-.2239685-17.6404381 7.5449753c0 0 4.2856026-5.8718758 17.6404381-7.5449753z" fill="#3ea69b"/><path d="m87.7693558 52.6995926c-.4384155-.7838326.1006775-1.7640724.9987564-1.756115.9068756.0080338 1.8748932.2665253 2.3360062 1.2011566.9962234 2.0192337 2.0547028 8.1210785-.4358444 12.3550072-1.7090302 2.9053497-3.4766922 5.4588699-5.7858353 6.6948776-1.1042023.5910492-2.2327652-.7401733-1.4771652-1.7390137 2.8927154-3.8238982 7.4510345-11.2368201 4.3640823-16.7559127z" fill="#ebf0f3" opacity=".15"/><path d="m68.2080612 49.0306511c-4.781601 3.2087364-3.3977661 10.0651054-3.380928 10.14431.0762405.3560448.3900909.5999451.7409515.5999451.0518188 0 .1043701-.0051842.156929-.016655.4093399-.086235.6713715-.4881706.5855103-.8975105-.0574646-.27314-1.1779633-5.9179192 2.744339-8.5631676.2154007-.1452675.35466-.3798218.35466-.639637 0-.6156731-.6903458-.9703293-1.2014618-.627285z" fill="#44c4a1"/><path d="m65.5685272 54.3867683s-14.7264252-6.3518906-19.0139542 8.4162598c.0000001 0 12.858532 2.3819542 19.0139542-8.4162598z" fill="#44c4a1"/><circle cx="64.656" cy="71.09" fill="#fcd462" r="15.128"/><path d="m99.4116135 42.3207092c.8321533.1006889 1.1642761 1.110157 1.3125839 1.9351273.1292114.7184372.2583389 1.4368057.3875427 2.1552391.1190414.6619873.3011475 1.4138069.8978119 1.7243462.6859131.3570366 1.5649796-.1192245 1.9323959-.7996292.3674088-.6804047.3679352-1.4906425.3886642-2.2636452.050354-1.878624.6555176-4.859024 3.1643829-4.589222.5375443.0578156 2.7122803-.3348732 4.4309616 2.1578484 1.4323349 2.0774078-.2138672 4.122963-1.6618118 5.3209686-.595787.4929581-1.233345.9929581-1.5424652 1.7017555-.3091125.7087936-.1420288 1.694519.5619888 2.0143776.6123886.2782555 1.3165588-.0419426 1.9111252-.356411.6452789-.3412666 1.290451-.6825562 1.93573-1.0238228.7409286-.3919182 1.7404404-.7528839 2.3328171-.1598358.5861664.5868225.2388229 1.5751762-.1399231 2.3130569-.3138275.6113815-.6372299 1.2356186-1.1377945 1.7064743-.5005798.4708748-1.2215195.7666779-1.8837967.5831299-.1948013-.0540161-.3913269-.1482086-.5896683-.1091957-.2728119.0536728-.432785.3314285-.6573639.4953232-.4805527.3506737-1.1575623.130703-1.6817017-.1506577-.1848373-.0992012-.3831253-.2082901-.591217-.1815872-.2073746.0266304-.3753128.1852951-.4875336.3617134-.4256668.6694984-.1289749 1.6839905.5904465 2.0185089.23983.1115456.5592651.2118187.5835953.4751625.0132294.1434441-.076416.2747917-.1694641.3847694-.5520172.6527863-1.3902435 1.0543251-2.2448883 1.0754013-1.2526779.0308609-2.6061935-.6874352-3.6879578-.0550613-.5537033.3237228-.8692856.9253464-1.2349625 1.4523125-.365715.5269394-.8925171 1.0420494-1.5336456 1.0228271-.1837463-.0054855-.3591614-.0906563-.5057602-.2168274-.1897202-.0376129-.3649292-.1231956-.4825516-.2644691-.4104538-.492897-.3297424-1.2252541-.1403961-1.8380852.1893921-.6128082.4684448-1.2322235.3818817-1.8677521-.1691589-1.2415695-1.5692368-1.864254-2.3173447-2.8694839-.5103836-.6858406-.7111053-1.5933418-.5375671-2.4304428.029213-.1410637.0773468-.2926292.1984329-.3706627.2223282-.1432228.49823.0464325.7339249.1664658.706955.3601151 1.6885834-.0318413 1.9531937-.7797737.0696945-.1971245.0910568-.4271774-.0158463-.6068535-.1072845-.180294-.3154297-.2691345-.5074997-.3534851-.5447006-.2391586-1.1353149-.6365128-1.1555557-1.2310677-.0094452-.2778664.1105881-.5750694-.0153732-.8229446-.0915833-.1802025-.286911-.2768402-.4495544-.396904-.5528641-.4082108-.7645187-1.1581802-.7024689-1.8426208.0620422-.6844139.3540802-1.323925.6418991-1.9479752.3473817-.7531547.9113084-1.6360282 1.7347337-1.5363922z" fill="#31978c"/><path d="m118.7227402 58.0839653c-.3808517-.7467041-1.4429626-.7112312-2.2685928-.5666466-.7190247.1258659-1.4379654.2517853-2.1569977.377655-.6625214.1159935-1.4310989.2036743-1.9279709-.2497177-.571228-.5211983-.4264984-1.5104523.0859528-2.0895348.5124512-.5790863 1.2730408-.858345 1.9917221-1.1437721 1.7466049-.6936378 4.3368225-2.2873001 3.2202911-4.5501633-.2392349-.4848328-.6187592-2.6618996-3.5506287-3.4180069-2.4433823-.6301308-3.7976608 1.6193619-4.4243393 3.3910942-.2578735.7290192-.5079956 1.4996834-1.0671616 2.0337982s-1.5421906.7163811-2.0847473.1653938c-.4719696-.4792595-.4135971-1.2506142-.3228989-1.9170761.0984192-.7232971.1968918-1.4465065.295311-2.1698036.1130676-.8305321.1081009-1.893219-.6525574-2.245388-.7526703-.3484726-1.5611725.3177147-2.1236954.9272156-.4660797.5050201-.9409332 1.0234528-1.2108154 1.6554642-.2698975.6320305-.2995987 1.4107285.1006088 1.9694138.1177444.1643257.2738037.3164444.3054123.516098.0434647.2746239-.1622925.5203934-.2389069.7876511-.1639252.5718727.2755432 1.1318588.7200623 1.527195.1567459.1394234.3273926.2880707.3739166.4926491.0463486.2038727-.0448532.4161491-.1718826.5822144-.4821701.6300316-1.5368042.7004967-2.0984268.1400948-.1872482-.1868057-.391304-.4522438-.6469421-.3844833-.1392365.0369377-.2317276.1662979-.3029785.2915039-.4229965.7429161-.5116196 1.6681175-.2373581 2.4778366.4020157 1.1868134 1.5421524 2.210556 1.3205795 3.4438477-.1134491.6312866-.5697632 1.1345978-.9387436 1.6592522-.3689423.5246849-.6713486 1.1965561-.4327164 1.7919312.0683746.170639.2086945.3060379.3776016.4002762.1006012.1651993.2412415.3002625.4143524.3620987.6040268.2158051 1.2639008-.1119461 1.7741699-.5005875.5102386-.3886719.9958191-.8638077 1.6223297-1.0011902 1.2239761-.2683411 2.2903519.8320122 3.4916 1.1885834.8195724.2432556 1.7407303.1194916 2.4670181-.3314705.1223984-.0759621.2481537-.1733055.2797623-.3138466.0579834-.2580299-.2150269-.4518394-.4088211-.6318474-.5813675-.5398903-.5510788-1.5964432.0601501-2.1022339.1611099-.1332626.3697662-.2324715.5752563-.1939163.2061996.0387077.3612289.2035789.5065155.3549004.4119644.4291534.988266.8470001 1.5534897.661438.2641449-.0867348.5019073-.301693.7779846-.2687073.2007141.0239906.3586578.1741486.5273514.285553.5735092.3786583 1.3505096.3193512 1.9718094.0256004.6212845-.2937317 1.1212769-.7879715 1.6082001-1.2729263.5876543-.5853046 1.2225954-1.4185718.8457339-2.1574405z" fill="#3ea69b"/><path d="m90.8659592 44.9197426c.8187103-.1798286 1.4656296.6632729 1.8781128 1.3929482.3592606.635437.7184219 1.2708321 1.0776901 1.9062653.3310165.5855103.751236 1.2349777 1.4169846 1.3310051.7653503.1104279 1.4377594-.6294632 1.5598068-1.3930397s-.1450958-1.5285072-.3808594-2.2649727c-.572998-1.789814-.9862595-4.8028221 1.4709091-5.376873.5264664-.122982 2.4494247-1.2119675 4.8950195.573143 2.0381317 1.4876862 1.159996 3.9621887.1890335 5.5712242-.3995132.6620827-.8361282 1.3446159-.8937759 2.1157341-.0576401.7711182.4256592 1.6463242 1.195816 1.715683.6699219.0603638 1.2288132-.4744644 1.6861343-.9676704.4963303-.5352554.9925613-1.0704956 1.4888992-1.605751.5698853-.6146584 1.3940659-1.2855148 2.149086-.9214211.7471008.3602676.7457123 1.4078789.631958 2.2294464-.0942688.6807289-.1933212 1.3767509-.5102692 1.9865227-.3169479.6097946-.8997116 1.1271286-1.5854416 1.1726341-.2017136.0133667-.4183197-.0106277-.5926437.091713-.239769.1407738-.2990189.4557762-.4568558.6846542-.3377533.4897232-1.0494156.505722-1.6370773.4132843-.2072296-.0325775-.4304199-.0700493-.6180115.0238914-.1869431.0936317-.293045.2988663-.3406906.502449-.1806335.772522.4345016 1.6320724 1.2240372 1.7101822.2632141.0260658.5978394.0151978.7077942.255722.0598679.1310234.0186386.2846107-.0328598.4191513-.3054123.7984848-.9639587 1.454361-1.7636719 1.7565536-1.1721725.4429016-2.6869736.2120018-3.4991455 1.1662025-.4156952.4884491-.5148468 1.1605453-.6859283 1.778717-.1711349.6181641-.4982224 1.2783699-1.1097183 1.4720001-.1752472.0555153-.3689423.0330658-.5489883-.0375977-.1914978.0271606-.3851471.0042572-.5428238-.0902367-.5502319-.3296547-.7159576-1.0475616-.7396622-1.6885414-.0236588-.6409721.0351334-1.3177948-.256485-1.889061-.5697784-1.1160049-2.0969467-1.2412796-3.1351013-1.9429779-.7082825-.4787598-1.1974945-1.2690239-1.3101959-2.1164627-.0190277-.1427956-.0236588-.301754.0648499-.4154053.1625443-.2086182.485611-.1207428.7477264-.0853004.7862244.1063881 1.5832901-.5878105 1.5859985-1.3811684.0006638-.2090836-.0551605-.4332771-.2154083-.5675583-.16082-.1347351-.3866272-.1498375-.5957794-.166008-.5931168-.0458183-1.2818375-.2257805-1.4973297-.7802811-.1006927-.2591476-.0855713-.579319-.2863388-.7716751-.1459656-.1398392-.3622589-.1665306-.5554276-.2261314-.6566696-.2026825-1.1041641-.8406487-1.2716751-1.5071678-.167511-.6664925-.1031036-1.3665733-.0375671-2.050663.0791015-.82563.3197632-1.8452222 1.1298752-2.0231626z" fill="#44c4a1"/><path d="m104.5764771 69.5300217c-.3321915.7029495-1.0437088 1.9331436-2.0062256 3.4584274-.2179108.3432236-.4487152.7036285-.6886139 1.0736847-1.2815247 1.9741364-2.8862 4.2975693-4.5823898 6.5591431-.1789398.2408142-.3559875.4778748-.5386887.7169189-3.9605942 5.1842957-8.2904816 9.8222198-10.2321472 8.9046555-1.3070526-.6176758-1.3524017-3.679039-.786026-7.5529099.0189972-.1583481.041893-.3148575.0703049-.4734421.5379639-3.459671 1.5293274-7.4952774 2.5380249-11.0067291.0296783-.1021805.0555496-.2061539.0890732-.3065186 1.0333786-3.5834808 2.0724945-6.5692902 2.6327209-7.754776 1.7614746-3.7274551 6.2153091-5.3226509 9.9427414-3.5611877 3.7312851 1.7632828 5.3227005 6.2152786 3.5612259 9.9427338z" fill="#e69871"/><g fill="#f0a67a"><path d="m102.5702515 72.9884491c-.2179108.3432236-.4487152.7036285-.6886139 1.0736847-1.5847473-.8465195-3.1694946-1.6930466-4.7580566-2.5413437 1.6483078.1514206 3.2684326.5591507 4.7866058 1.2022018.2163925.0929566.4381714.1745224.6600647.2654572z"/><path d="m94.1183167 74.0933838c-1.9452057-.9099426-3.8708801-1.8710785-5.767601-2.8836136.0296783-.1021805.0555496-.2061539.0890732-.3065186.0471802.0083389.0999527.0146942.1507187.0154495.2050858.0085983.4145889-.0411377.6201019-.0137558.5919495.0752106.9975052.7316818 1.5942383.7673492.0715408.0059128.1485596.0004654.2187195.0289688.0815811.0338974.1322021.1135941.1827011.18396.7121123 1.0012055 1.8330611 1.6192475 2.9120483 2.2081605z"/><path d="m97.2992477 80.6212769c-.1789398.2408142-.3559875.4778748-.5386887.7169189-1.6711197-.8408432-3.3477859-1.6796799-5.0244675-2.5184937-.3783722-.1927719-.812973-.4632263-.8167877-.8880081.4977264.2352142.9937057.4742508 1.4876785.7076874.1823807.0861816.3685532.1741638.5676193.1659622.1709442-.0075302.3254013-.0786362.4920731-.1067734.2060699-.032753.4138031.009613.6177216.0502014.6287766.1251602 1.2765732.2593079 1.8126144.6102448.1812134.1181793.3478546.2573547.51091.4041138.3086549.2713776.6045381.5599441.891327.8581467z"/><path d="m90.9666901 85.1494751-4.8499451-2.2779694c-.1254196-.0592651-.2507858-.118515-.3743591-.1815643.0189972-.1583481.041893-.3148575.0703049-.4734421.1939926.1009827.3951797.1867523.5907516.2745514.8811264.3977814 1.7063217.9039459 2.5297241 1.4139175.6784668.4135895 1.3550491.8309403 2.0335236 1.2445069z"/></g><path d="m107.0881729 71.0971832c-.1599121 1.5900269-.4099121 3.1600342-.7399902 4.6799927-.0800781.4299927-.1799316.8600464-.3000488 1.2800293-.1499023.6599731-.3299561 1.3200073-.5300293 1.9599609-.4099121 1.4100342-.8999023 2.7900391-1.4599609 4.1200562-5.5999756 13.4199829-17.8599854 22.7399902-32.0799561 22.7399902-14.220089 0-26.470089-9.3200073-32.0699425-22.7399902-.5600586-1.3300171-1.0500488-2.710022-1.460083-4.1200562-.2000732-.6399536-.3800049-1.2999878-.5299072-1.9599609-.1201172-.4199829-.2200928-.8500366-.3000488-1.2800293-.3300781-1.5199585-.5800781-3.0899658-.7399902-4.6799927z" fill="#ebf0f3"/><path d="m82.3081436 104.1671906c-3.2600098 1.1099854-6.7299805 1.710022-10.3299561 1.710022-14.220089 0-26.470089-9.3200073-32.0699425-22.7399902-.5600586-1.3300171-1.0500488-2.710022-1.460083-4.1200562-.2000732-.6399536-.3800049-1.2999878-.5299072-1.9599609-.1201172-.4199829-.2200928-.8500366-.3000488-1.2800293-.3300781-1.5199585-.5800781-3.0899658-.7399902-4.6799927h11.8000488c.1398926 1.0100098.3198242 2.0200195.5299072 3 .0799561.4299927.1800537.8599854.2999268 1.2800293.1501465.6599731.3300781 1.3200073.5300293 1.9599609.4100342 1.4100342.9000244 2.7900391 1.4599609 4.1199951 5.4301758 13.0200195 17.1301232 22.1800537 30.8100548 22.710022z" fill="#d5d6db" opacity=".5"/><path d="m80.7861328 108.4529495h-17.9430237c-.6255608 0-1.132679-.5071182-1.132679-1.1326828v-3.1279449h20.2083855v3.1279449c0 .6255646-.5071182 1.1326828-1.1326828 1.1326828z" fill="#d5d6db"/><g fill="#e56353"><path d="m106.3481827 75.7771759c-.0800781.4299927-.1799316.8600464-.3000488 1.2800293h-68.129879c-.1201172-.4199829-.2200928-.8500366-.3000488-1.2800293z"/><path d="m105.5181046 79.0171661c-.4099121 1.4100342-.8999023 2.7900391-1.4599609 4.1200562h-64.1498986c-.5600586-1.3300171-1.0500488-2.710022-1.460083-4.1200562z"/></g></svg>