<svg enable-background="new 0 0 140 140" height="512" viewBox="0 0 140 140" width="512" xmlns="http://www.w3.org/2000/svg"><circle cx="70" cy="70" fill="#e05b49" r="64"/><path d="m36.6592751 70.9649124 8.8099976 8.8100586v21.8000488l31.979557 31.9794846c29.3057861-3.3991699 52.5621262-26.5848312 56.073967-55.8560715l-34.2235032-34.2235107-.9799805-1.039917c-.3200073-.3399658-.6600342-.6600342-1.0100098-.960083h-.0100098c-1.1500244-.9799805-2.460022-1.7399902-3.8599854-2.2600098-1.4000244-.5198975-2.9000244-.789917-4.4200439-.789917h-11.5199584c-4.7600098 2.6300049-10.2300415 2.5699463-15.0100136 0h-11.5100097c-3.5200195 0-6.8800049 1.4500732-9.2999878 4.0100098l-16.2999859 17.25 11.2499981 11.3099365z" opacity=".1"/><path d="m98.322464 42.4336128c-2.4186783-2.5591431-5.7845688-4.0093307-9.3058777-4.0093307h-9.8077087c-.0019302.0298843.0033417.0552025.0005341.0856133-.4312439 4.6132088-4.2529907 8.0285072-8.8686676 7.9305878-3.8430176-.0815735-9.0556221-1.8561134-9.7600594-6.2131805-.1114578-.6894951.0167007-1.2953072.2870827-1.8030205h-9.8843536c-3.5213051 0-6.8872032 1.4501877-9.3058815 4.0093307l-16.303133 17.2507019 11.255785 11.3138847 8.8365746-8.4658966v39.0434189h49.0664825v-39.0434189l8.8365784 8.4658966 11.2557831-11.3138847z" fill="#ebf0f3"/><path d="m45.466732 98.233589h49.066528v3.342163h-49.066528z" fill="#474c5b"/><path d="m62.1508751 41.176609s7.0477257.6857262 7.2763023.6857262c.228569 0 9.7906189-1.0666809 9.7906189-1.0666809l-3.2000504 5.1048355-5.3334122 1.6000252s-3.7333908.2285767-4.1905365-.3809586c-.4571533-.6095314-2.9333763-3.5458336-3.0476646-3.6015167-.1142883-.0556793-1.2952575-2.3414307-1.2952575-2.3414307z" fill="#d5d6db"/><path d="m77.496048 38.4242821c-4.7535019 2.6331558-10.2271729 2.5675812-15.0065117 0l-.0560799 3.5413475c4.8806 2.1092644 10.4262619 2.0614471 15.2895508-.0965157z" fill="#474c5b"/><g fill="#4d5c7d"><path d="m77.4943771 38.4296722c.0000916.0140648.0041351.026722.0041351.0407867 0 4.147686-3.3556137 7.503212-7.5032959 7.503212-4.1476898 0-7.5032158-3.355526-7.5032158-7.503212 0-.0140648.0040436-.026722.0041313-.0407867h-3.0552521c-.0000877.0137138-.0020218.0270729-.0020218.0407867 0 5.8327446 4.7381134 10.55653 10.5563583 10.55653 5.8326492 0 10.5564423-4.7237854 10.5564423-10.55653 0-.0137138-.0019379-.0270729-.0020218-.0407867z"/><path d="m80.5491943 38.4242821v.0432472c0 5.8327446-4.723793 10.55653-10.5564499 10.55653-5.8182373 0-10.5563507-4.7237854-10.5563507-10.55653v-.0432472h3.0531425v.0432472c0 4.147686 3.355526 7.503212 7.5032082 7.503212 4.1476898 0 7.5033035-3.355526 7.5033035-7.503212v-.0432472z"/></g></svg>