<svg enable-background="new 0 0 140 140" height="512" viewBox="0 0 140 140" width="512" xmlns="http://www.w3.org/2000/svg"><circle cx="70" cy="70" fill="#334d5c" r="64"/><path d="m82.1761398 132.8287201c26.3439331-5.0762329 46.9383621-26.2937622 51.0651932-52.9633789l-26.8899002-26.8936729-.0300293.0499878c-.1299438-.1400146-.25-.2799683-.3899536-.3900146-4.3300171-3.4099731-8.3600464-1.2399902-8.9800415 2.2700195s-1.6499634 6.4100342-6.9199829 4.5499878c-5.2600098-1.8599854-6.25-7.4799805-11.6699829-8.5299683-2.5200195-.4899902-3.3800049-.1799927-5.9899902.9099731-1.3600464.5599976-2.9800415 1.3099976-4.75 2.1400146l-.4100342-.4099731v.0199585c-.2099609-.2299805-.5499878-.2799683-.8099976-.0899658-.2700195.1999512-.3300171.5799561-.1300049.8499756l.1199951.210022c-.8499756.4099731-1.7299805.8399658-2.6399498 1.2699585l-.4200439-.4099731c-.2099609-.2000122-.5299683-.2399902-.7799683-.0599976-.2700195.2000122-.3300171.5800171-.1300049.8599854l.1099854.1900024c-.7999878.3699951-1.6199951.7600098-2.4400024 1.1400146l-.2700195-.2600098h-.0099487c-.210022-.2000122-.5400391-.2399902-.7800293-.0599976-.2799683.1900024-.3399658.5800171-.1400146.8499756l.0100098.0200195c-.6499634.2999878-1.3300171.5999756-2 .9000244l-.3099976-.3000488c-.210022-.2299805-.5499878-.2799683-.7999878-.0899658-.2800293.2000122-.3400269.5899658-.1400146.8599854l.0400391.0700073c-.7900391.3400269-1.5800171.6799927-2.3800049 1.0100098l-.2400513-.2299805c-.1199951-.1300049-.289978-.2000122-.4599609-.2000122-.1199951 0-.2399902.0299683-.3500366.1099854-.2599487.1900024-.3199463.5499878-.1499634.8300171-.9700317.3899536-1.9500122.7699585-2.9199829 1.1300049l-.2600098-.2600098c-.1199951-.1500244-.3099976-.2399902-.4899902-.2399902-.1200562 0-.25.039978-.3500366.1199951-.2700195.2000122-.3300171.5700073-.1499634.8399658-2.25.7999878-4.4900513 1.4999962-6.6800537 2.0300255-3.2699585.6799927-6.5299683 1.0299683-9.6799946.8699951 0 0-.0599976.0100098-.1599731.0200195-.6699829.1199951-3.3500366.9099731-4.4100342 5.8199463v.0100098c-.2299805.7900391-.8199463 4.3500366 0 5.6700439.5599976.8899536 1.210022 1.7299805 1.5800171 2.1799927.0200195.0199585.039978.0299683.0599976.039978l-.0200195.0100098z" opacity=".1"/><path d="m110.7834778 72.6098938-.6135864.2629852-8.8805923 3.0986786-21.9994278 7.744751h-38.4279862c-.1287231 0-.2546883-.0278244-.3713799-.0821609-1.6786423-.7817459-14.6153393-6.9936676-13.4817066-12.2553558 1.059536-4.9090958 3.7465954-5.6942444 4.417408-5.8162079.0991001-.0152359.1524658-.0190506.1524658-.0190506 18.7978344.9261627 17.6620426-3.6170235 24.2710552-5.5798836 6.6089172-1.9590683 17.1436958-10.3251114 22.5139503-9.0406685 5.3702621 1.2844429 6.4031372 6.6661453 11.6667099 8.5261154 5.2673874 1.8599663 6.3002701-1.0329018 6.9214783-4.54319.6174927-3.5141296 4.6461334-5.6828194 8.9835129-2.2716064.9185638.7203598 1.6655807 2.0314865 2.2715836 3.6513329 2.2601852 6.0296477 2.5765152 16.3242606 2.5765152 16.3242606z" fill="#27a2db"/><path d="m110.781662 72.6113815c-17.464119-2.7198868-24.8741226 3.0940704-37.0089722 6.5688095-12.1348572 3.4747238-18.4962578 3.1539993-32.4486465.9087677-13.9523888-2.2452011-14.3136158-8.7110748-14.3136158-8.7110748-.2205791.7721252-.8272305 4.3569489 0 5.6805878.556078.8896713 1.2117691 1.7295074 1.5819759 2.1845779.1806145.222023.4581871.3406143.7436714.3202133l.0957489-.0068359c.1481857-.010582.2966499.0165176.4315281.0787659.3117256.1438828.5113678.455864.5113678.7991791v.047226c0 .2965317.1492558.5731277.397192.7358475l4.6202583 3.0322418c.2424965.1591415.5477524.1886139.8161583.0787888l.4252472-.1739578c.2289085-.0936127.4865685-.0866547.7100792.0192108l.4004021.1896667c.1913643.0906296.3436432.2471924.4288788.4409714l.3474998.7897568c.0858421.1951294.2392845.3502197.4312973.4427643 2.0901794 1.007309 6.1774826 2.0459061 7.5564194 2.3814545.290554.070694.5961838-.0106583.8132744-.216301l.3863525-.3659973c.1987572-.1883621.4739113-.2734299.7443657-.2301636l.561245.0898209c.2472382.0395432.4659081.182518.6012993.3931427l.5201149.8090363c.1619568.251915.4409256.4042206.7403679.4042206h9.0273361c.4160347 0 .7861977-.263916.921772-.6571808l.0982628-.2850418c.1356697-.3932571.5058327-.6571732.921772-.6571732.3827248 0 .7299919.2238541.8880424.5723801l.0324287.0715561c.1580467.348526.5053635.5724106.8880386.5724106h5.123024c.3336334 0 .644104-.1706314.8230438-.4522552l.1733551-.2729645c.1732178-.2727127.4702835-.4419098.7931747-.4517899l.748085-.0229416c.3332672-.0102081.6486206.1505585.8361206.4262238l.2359772.3470383c.1815491.266922.4834518.4266891.8062973.4266891h5.0860748c.3834229 0 .7313004-.2247391.8888779-.5743179l.2543182-.5640793c.1575775-.3495712.505455-.5743179.8888779-.5743179h1.0383148c.3642502 0 .6981201.2030411.8657074.5264664l.3418732.6597824c.1675873.3234253.5014572.5264664.8657074.5264664h5.4601974c.316658 0 .613533-.1537476.7962418-.4123154l.3617859-.511879c.1788483-.2530746.467308-.4060516.7771683-.4121246l1.6775436-.0328903c.3897934-.0076294.7466507.2176437.9073944.5728226l.100029.2210464c.1572113.3473663.5016937.5751572.8829269.5753174 7.1461487.0031662 14.926918-1.9462967 17.9550171-6.8378754 3.1166765-5.0345691-1.558296-9.4697727-1.558296-9.4697727z" fill="#d5d6db"/><path d="m108.2069626 56.2856331c-2.8890305-3.7809067-7.5618134-5.2711792-8.6747665-.038105-1.1090851 5.2330551-5.5760422 5.2673416-5.5760422 5.2673416-9.6047668.6174469-11.3580093-5.1644478-12.7034454-6.8185883-1.3416214-1.6503448-3.4073715-2.4774132-6.5060501-1.4445343-3.098671 1.0328979.2057877 3.9257431.2057877 3.9257431 6.7957687 3.25877 1.5512695 7.1235199 1.5512695 7.1235199-11.876358 9.7076645-23.1352196 6.3002625-34.2873955 6.1973495-7.8858261-.0724182-10.1460075-3.1444092-10.7901134-4.9357758.0991001-.0152359.1524658-.0190506.1524658-.0190506 3.738966.1829605 7.6303959-.3354111 11.5066586-1.2730026 11.3427467-2.7442131 22.3576088-9.5776367 29.2905312-12.4437981 2.6070328-1.0824509 3.4690094-1.3925858 5.9878159-.9037514 5.4205933 1.0519981 6.4031372 6.6661453 11.6667099 8.5261154 5.2673874 1.8599663 6.3002701-1.0329018 6.9214783-4.54319.6174927-3.5141296 4.6461334-5.6828194 8.9835129-2.2716064.9185636.7203599 1.6655805 2.0314866 2.2715833 3.651333z" fill="#d5d6db"/><path d="m72.3758621 51.8267326c-.07621 3.5750999-2.031395 5.2021294-2.031395 5.2021294s-7.599968 5.5951424-18.0317383 8.6328201c-10.4318619 3.0415192-11.1150208-.969162-11.1150208-.969162 11.3427507-2.7442169 24.2452318-9.9996261 31.1781541-12.8657875z" fill="#e56353"/><g fill="#d5d6db"><path d="m66.4037323 53.4894943c-.2742538.1990013-.3352356.5826035-.136261.856823l.9260025 1.5481033c.1989822.2742386.5825806.3352509.856842.1362495.2742157-.1989746.3351974-.5825768.1362076-.8568153l-.9259949-1.5481033c-.1989745-.2742195-.5825729-.3352318-.8567962-.1362572z"/><path d="m62.5546494 55.3532639c-.2742577.1990013-.3352394.5826035-.1362648.856823l.9259987 1.5481033c.1989899.2742386.5825882.3352509.856842.1362495.2742233-.1989746.3352051-.5825768.1362152-.8568153l-.9259987-1.5481033c-.1989746-.2742196-.5825729-.3352319-.8567924-.1362572z"/><path d="m59.0296974 57.2170296c-.2742577.1990013-.3352394.5826073-.1362648.856823l.9259987 1.5481071c.1989899.2742348.5825844.3352509.856842.1362495.2742195-.1989746.3352013-.5825806.1362114-.8568153l-.9259987-1.5481071c-.1989746-.2742158-.5825691-.3352318-.8567886-.1362572z"/><path d="m55.7883606 58.6046066c-.2742577.1990013-.3352394.5826035-.1362648.856823l.9259987 1.5481033c.1989899.2742386.5825882.3352509.856842.1362495.2742195-.1989746.3352013-.5825768.1362114-.8568153l-.9259949-1.5481033c-.1989746-.2742195-.5825729-.3352318-.8567924-.1362572z"/><path d="m52.2634087 60.2252731c-.2742577.1990013-.3352394.5826073-.1362648.856823l.9259987 1.5481071c.1989861.2742348.5825844.3352509.856842.1362457.2742195-.1989746.3352013-.5825768.1362114-.8568115l-.9259987-1.5481071c-.1989746-.2742157-.5825729-.3352318-.8567886-.1362572z"/><path d="m48.0901871 61.8054237c-.2742577.1990013-.3352394.5826073-.1362648.8568268l.9259987 1.5480995c.1989899.2742386.5825882.3352509.856842.1362534.2742195-.1989746.3352013-.5825806.1362114-.8568153l-.9259949-1.5481033c-.1989746-.2742196-.5825729-.3352357-.8567924-.1362611z"/></g></svg>