<svg enable-background="new 0 0 140 140" height="512" viewBox="0 0 140 140" width="512" xmlns="http://www.w3.org/2000/svg"><circle cx="70" cy="70" fill="#45b39c" r="64"/><path d="m103.0806961 34.7382965-.2600098-.2599487-.0400391-.0100098c-2.7600098-2.6000385-6.4699707-4.2100239-10.5499268-4.2100239-4.1099854 0-7.9799805 1.5999756-10.8900146 4.5100117l-13.3000488 13.2999878-2.1599121-2.1699829-4.4799805 4.4799805-20.8701172-1.539978-1.369873-1.3699951c-.6501465-.6500244-1.7199707-.6500244-2.380127 0-.6499023.6599731-.6499023 1.7299805 0 2.3800049l70.1501465 70.1499634 1.3181152 1.3180542c15.6303711-11.6691284 25.7511063-30.3104248 25.7511063-51.3163452 0-1.4761353-.0679932-2.9355469-.1663818-4.3867188l-30.682869-30.7949829c-.0200195-.0299684-.0500488-.0499879-.0700683-.0800172z" opacity=".1"/><path d="m21.6307449 77.2083282c.0100098.039978.0100098.0800171.0200195.1199951.0400391.1599731.0999756.3099976.1599121.4500122.0100098.0299683.0200195.0599976.0300293.0799561.0800781.1800537.1799316.3500366.3000488.5100098.1699219.2200317.3599854.4100342.5699463.5700073l5.9300537 5.9299927c-1.4499512.4500122-2.9400635 1.0300293-3.4899902 1.5800171-.2099609.2000122-.3701172.4299927-.5.6699829-.0300293.0400391-.0500488.0900269-.0700684.1400146-.0400391.0900269-.0799561.1699829-.1199951.2600098-.039917.1199951-.0799561.2399902-.1099854.3699951-.0100098.039978-.0200195.0800171-.0300293.1300049-.0400391.1699829-.0500488.3499756-.0500488.5299683v.1000366c0 .1499634.0200195.2999878.0400391.4500122.0100098.039978.0200195.0799561.0300293.1199951.0300293.1499634.0700684.289978.1199951.4199829.0200195.039978.0300293.0800171.0499268.1199951.0600586.1400146.1401367.289978.2200928.4199829.0200195.0300293.0299072.0500488.039917.0700073.1101074.1600342.2301025.3200073.3701172.460022l43.2509766 43.2510376c.5361328.0132446 1.0688477.0406494 1.6082764.0406494 12.956543 0 25.0054932-3.8620605 35.0817871-10.4806519l-60.5810547-60.5810546s-.0200195 0-.0500488.0100098c-.25.0499878-1.6500244.3200073-3.1400146.7200317-1.4799805.3999634-3.0500488.9199829-3.6298828 1.4599609-.2200928.1900024-.3901367.4100342-.5300293.6500244-.0300293.039978-.0500488.0899658-.0700684.1400146-.0400391.0699463-.0799561.1299438-.1099854.1999512l-5.289917-5.289978s-.0200195.0100098-.0500488.0100098c-.25.0299683-1.6700439.1799927-3.1800537.4500122-1.5198975.2599487-3.1300049.6399536-3.7598877 1.1300049-.2301025.1799927-.4101562.3899536-.5800781.6199951 0-.0100098 0-.0100098 0-.0200195-.0300293.0499878-.0500488.0899658-.0800781.1400146-.0499268.0799561-.1098633.1599731-.1499023.2399902-.0600586.1099854-.1101074.2299805-.1600342.3499756-.0100098.0400391-.039917.0800171-.0499268.1300049-.0600586.1699829-.0900879.3400269-.1201172.5200195 0 .039978 0 .0700073-.0100098.0999756-.0100098.1500244-.0200195.2999878-.0100098.4500122 0 .0499878.0100098.0900269.0100098.1300049.0100098.1400146.0300293.289978.0700684.4299927.0100098.039978.0200195.0800171.0300293.1199951.0400391.1500244.0999756.2999878.1699219.4500122.0100098.0200195.0200195.0499878.0300293.0700073.0900879.1799927.1799316.3499756.3100586.5.1499023.1900024.3199463.3499756.5.5l10.9399414 10.9400024c-.0100098.0199585-.0100098.0499878-.0200195.0700073-.0100098.0499878-.0200195.0899658-.0300293.1300049-.0100098.0499878-.0100098.0999756-.0100098.1599731l-5.7299805-5.7299805s-.0200195 0-.0499268 0v.0100098c-.5.039978-5.6900635.4799805-6.9700928 1.4199829-.2399902.1699829-.4199219.3699951-.5898438.5899658-.0400391.0400391-.0600586.0900269-.0900879.1300049-.0600586.0800171-.1099854.1600342-.1599121.2399902-.0600586.1100464-.1101074.2300415-.1601562.3500366-.0200195.039978-.039917.0800171-.0499268.1199951-.0699463.1699829-.1099854.3499756-.1400146.5299683 0 .0300293 0 .0600586-.0100098.0900269-.0200195.1500244-.0200195.2999878-.0200195.460022 0 .039978 0 .0799561.0100098.1199951.0100097.1499636.0300292.2899782.0600585.4299928z" opacity=".1"/><path d="m107.6325684 104.1019669h-4.7233353v-58.44133c0-5.8884125-4.7902298-10.6790199-10.6790237-10.6790199-2.85215 0-5.5336304 1.110878-7.5508881 3.1277504l-14.9257202 14.925724-3.3395462-3.3403168 14.9257202-14.9253387c2.9082642-2.9090366 6.7759628-4.511158 10.8904343-4.511158 8.49263 0 15.402359 6.9093437 15.402359 15.402359z" fill="#d5d6db"/><path d="m61.853668 48.779415h10.977185v6.841398h-10.977185z" fill="#ebf0f3" transform="matrix(.707 .707 -.707 .707 56.635 -32.329)"/><path d="m69.0139236 56.1806793-5.6522216-5.6522217-22.8295899-1.6887207.1041794 3.0627747 27.3512878 27.403183 2.714943-.2953644z" fill="#ebf0f3"/><path d="m69.691864 82.7580109-32.9075012-32.9074974c-.6570015-.6570053-.6570015-1.7222176 0-2.3792191l.0000038-.0000038c.6570015-.6570015 1.7222137-.6570015 2.3792152 0l32.9075012 32.9075012c.6570053.6570053.6570053 1.7222137 0 2.3792191-.6570052.6570053-1.7222137.6570053-2.379219 0z" fill="#d5d6db"/><path d="m56.5911827 75.1295319s-5.4380913 1.6993103-6.5238724 2.9621735c-1.0858116 1.2629089-.9421768 3.166954.320694 4.2527313s3.1669197.9422913 4.2527351-.3206177c1.0857811-1.2628708 1.9504433-6.8942871 1.9504433-6.8942871z" fill="#ebf0f3"/><path d="m54.6445084 82.024704c-1.086689 1.2639236-2.9957581 1.4078674-4.2596474.3212128-1.0457726-.8991241-1.3234596-2.3541641-.7655334-3.548233.095295.7068024.4337921 1.377243 1.0240707 1.8847504 1.2639656 1.0867233 3.1610451.943573 4.2477036-.3203125.7005539-.8148193 1.3120651-3.4468231 1.6525345-5.2184372.029377-.0081787.0468407-.0155029.0468407-.0155029s-.8593141 5.6326369-1.9459687 6.8965224z" fill="#d5d6db"/><path d="m29.8013515 72.7201004s-5.6802845.4413834-7.0207672 1.4297485c-1.3405247.9883957-1.6259155 2.8763962-.6375523 4.2168808s2.8763447 1.6260147 4.2168694.637619c1.3404827-.9883575 3.4414501-6.2842483 3.4414501-6.2842483z" fill="#ebf0f3"/><path d="m26.3633766 79.0060577c-1.3416042.9891968-3.2345791.70298-4.2237396-.638588-.8184566-1.1100464-.7640419-2.5903397.0465565-3.6295776-.0650234.710228.1151257 1.4393463.5770988 2.0659027.9892216 1.3416519 2.8703327 1.6259613 4.211895.6368027.864893-.6377029 2.0489864-3.0665588 2.776659-4.7173233.0304604-.0014114.0491199-.0046463.0491199-.0046463s-2.0960254 5.2982712-3.4375896 6.2874298z" fill="#d5d6db"/><path d="m43.8417282 88.957222s-5.3054199 2.0767746-6.2998886 3.412735c-.994503 1.3359985-.7175903 3.2252655.6183701 4.2197342 1.3359566.9944763 3.2252426.7177048 4.2197456-.6182938.9944687-1.3359604 1.4617729-7.0141754 1.4617729-7.0141754z" fill="#ebf0f3"/><path d="m42.3837776 95.9720154c-.9953041 1.3370743-2.8895645 1.6146469-4.2266006.6193771-1.1062965-.8235168-1.4854164-2.2554779-1.0126724-3.4857559.1446686.6983643.5293808 1.343399 1.1538239 1.8082275 1.3371162.9953384 3.2194748.7193985 4.2147484-.6176376.6416435-.8619766 1.066925-3.5304108 1.2822151-5.3215485.0287285-.0102234.045639-.0187531.045639-.0187531s-.4618798 5.6790543-1.4571534 7.0160905z" fill="#d5d6db"/><path d="m55.9993706 87.1097183s-5.1116333 2.5162811-5.9900436 3.9312592c-.8784332 1.4150162-.443367 3.2742462.971611 4.1526489 1.414978.8784103 3.2742348.4434814 4.152668-.9715347.8784065-1.4149781.8657646-7.1123734.8657646-7.1123734z" fill="#ebf0f3"/><path d="m55.1374664 94.2223892c-.8791389 1.4161606-2.7432899 1.8523026-4.1594048.9731903-1.1717339-.7274017-1.6701241-2.122345-1.3026848-3.3880692.2029762.6837006.6406555 1.2940369 1.3020325 1.7046127 1.4162025.8791733 3.2686272.4456558 4.1477432-.970459.5667572-.9129562.7657623-3.6077347.8294182-5.4106369.0277634-.0126114.0438919-.0225372.0438919-.0225372s.0181199 5.6977769-.8609962 7.1138993z" fill="#d5d6db"/><path d="m31.6801128 60.8336258s-5.6688766.5694695-6.9867115 1.5878372c-1.3178749 1.0183983-1.5605812 2.9123611-.5422153 4.2301941s2.9123096 1.5606842 4.2301846.5422897c1.3178348-1.0183715 3.2987422-6.360321 3.2987422-6.360321z" fill="#ebf0f3"/><path d="m28.3848858 67.1955719c-1.3189392 1.0192184-3.2178898.7758026-4.2370758-.5430984-.8433018-1.0912857-.8223114-2.5724411-.0353756-3.6296997-.0489769.7115097.147583 1.4363785.623579 2.0523529 1.019249 1.3189774 2.9062977 1.5607605 4.2251949.5415726.8502789-.6570587 1.9792519-3.1120186 2.6694832-4.7787857.0304222-.0020981.0490036-.0057564.0490036-.0057564s-1.9759121 5.3442268-3.2948093 6.3634147z" fill="#d5d6db"/><path d="m31.8759594 83.9801712s-5.5504627 1.2856216-6.7281208 2.4632797c-1.1776943 1.1776962-1.1776218 3.0871429.0000362 4.264801s3.0871086 1.1777344 4.2648029.0000381c1.1776581-1.177658 2.4632817-6.7281188 2.4632817-6.7281188z" fill="#ebf0f3"/><path d="m29.4163704 90.7094574c-1.1786442 1.1786423-3.093132 1.1786423-4.27174.0000381-.9752102-.9752121-1.1427116-2.4470062-.4965897-3.5957489.0418854.7119675.3290157 1.4059601.8794651 1.9564133 1.1786804 1.1786804 3.0811558 1.1785736 4.2597637-.0000381.7598362-.7598343 1.5675087-3.3384171 2.0402145-5.0794144.0299072-.0059509.0478745-.01194.0478745-.01194s-1.2803802 5.5520859-2.4589881 6.73069z" fill="#d5d6db"/><path d="m43.0948524 74.2569656s-5.5504608 1.2856216-6.7281189 2.4632797c-1.1776962 1.1776962-1.1776237 3.0871429.0000343 4.264801s3.0871086 1.1777344 4.2648048.0000381c1.1776582-1.1776579 2.4632798-6.7281188 2.4632798-6.7281188z" fill="#ebf0f3"/><path d="m40.6352654 80.9862518c-1.1786461 1.1786499-3.093132 1.1786499-4.27174.0000381-.9752121-.9752121-1.1427116-2.4470062-.4965897-3.5957489.0418854.7119675.3290138 1.4059601.8794632 1.9564133 1.1786804 1.1786804 3.0811577 1.1785736 4.2597656-.0000381.7598343-.7598343 1.5675087-3.3384171 2.0402145-5.0794144.0299072-.0059509.0478745-.01194.0478745-.01194s-1.2803802 5.5520859-2.4589881 6.73069z" fill="#d5d6db"/><path d="m44.4999771 62.9394646s-5.5984344 1.0573616-6.823307 2.185833c-1.2249107 1.1285019-1.3029938 3.0363541-.1745224 4.2612305 1.1284676 1.2248688 3.0363159 1.3031006 4.2612267.1745911 1.2248725-1.1284639 2.7366027-6.6216546 2.7366027-6.6216546z" fill="#ebf0f3"/><path d="m41.7670174 69.562439c-1.2258987 1.1294174-3.1387825 1.0510559-4.2681618-.1748047-.9344788-1.0143127-1.0415993-2.4917297-.348999-3.61306.0127106.7130814.2711906 1.418251.7986526 1.9907684 1.1294479 1.2259369 3.0303345 1.3036957 4.2561951.1743164.7902985-.728096 1.7028351-3.2714615 2.2464066-4.9916496.0301247-.0047226.0483208-.0099716.0483208-.0099716s-1.5065537 5.4950218-2.7324143 6.6244011z" fill="#d5d6db"/></svg>