<svg enable-background="new 0 0 140 140" height="512" viewBox="0 0 140 140" width="512" xmlns="http://www.w3.org/2000/svg"><circle cx="70" cy="70" fill="#e05b49" r="64"/><path d="m130.8379669 89.8731079-28.2214355-28.2214355c-.119873-.1400146-.25-.2600098-.3798828-.3800049l-.0500488-.0499878h-.0100098c-.7199707-.6099854-1.6499023-1-2.6799316-1h-29.4699708c-2.0600586 0-3.7401123 1.4899902-4.0800781 3.4500122l-.4699707-.0200195c-.4200439-.1099854-.8500977-.210022-1.2299805-.2700195l-21.1501465-21.1499634h-6.75v55.539978l36.1647949 36.164856c27.3055421-1.0551758 50.2122803-19.2091065 58.3266602-44.0634156z" opacity=".1"/><path d="m44.838707 67.1205521c.4552269-1.1503067 1.4422951-1.8077011 2.1935692-2.7466125.098259-.1228409.0878487-.2471848.0225945-.3426666.1249466-.0315475.352314-.0867157.6286392-.1431198.0018578-.0017624.0018578-.0017624.0018578-.0017624.4962387-.1007233 1.1418419-.2015305 1.6081772-.1667709.2121544.0158272.3912621.1629486.4550552.3658981.0128746.0410614.0540123.065918.0962105.057373.3506165-.0709534 1.8491554-.3764839 2.180481-.4815636.0515862-.0163651.1064148-.0143089.1573715.0040321.1359444.0490074.2023163.2026634.1447067.3352737l-.1526833.3518295.4587822.0162125.0452042-.0139618c.179615-.0555344.369957.04673.4228592.2271805l.0181847.0620193.0031128-.0015106c.1721306-.0829849.3787804-.0063629.4551849.1688004l.0141373.0324173s-.087986.3647461.3171654.3991776c.4033012.0325546.4458008.383606.3642502.6186447-.0834045.2368011-.5662117.9005585-.5662117.9005585s-.6315231 1.2459412 1.2681618 1.091629c.6038284-.0482178.8332939-.0693893.8646851-.0774231-.0657883-.0023193-.7720413.044075-.7720413.044075s1.7332191-3.7820053 4.1364555-4.1015396c.1073112-.0142784.2130775-.0272331.3189659-.0403023-.010891.2133179.1491203.4343529.4108658.3562431.4381409-.130764.9435959-.1090088 1.3990936-.1609993.4582634-.0523148.9134636-.1247292 1.3645897-.2209282.0745201-.0158882.1273842-.0514488.1685219-.0945015l5.3347626.1885033-.3130951 8.8608246c-1.6180801.0179596-3.5376892.0339203-5.358963.0351715l-.0128136-.0004578c-2.8514252.0035706-5.4563408-.0299149-6.2757416-.1467056-2.0705338-.2909393-1.9144325-1.6012726-1.9144325-1.6012726l-1.2045364-.0425568s-.0003891.0109558.0058823.040451c.0062714.0295029.0193253.0738983.0480042.1426086.0473518.1153412.1369705.294754.3039207.5619736-.9015923.014328-1.7456818.2757034-2.6327667.310257-.6448402-.1242905-1.2907219-.3309937-1.9000473-.4342194-1.0133934-.1717148-2.2675667.009903-3.2053871-.4313736-1.4809231-.6968535-1.4114727-2.6351699-.9027332-3.9209059z" fill="#fcd462"/><path d="m45.8672523 71.4720459c2.5840416 1.297348 9.9826431.9509201 9.9826431.9509201-1.2932091-.3068161-2.6101418-1.232132-2.6741753-1.3881302 0 0-.0127525-.0535202-.0480309-.1426086-.0976219-.2413712-.3657112-.7339935-1.0191422-1.0425797-.8910904-.4194641-1.7958717-.4514389-1.9872055-1.1481552-.1895065-.6966553-.22575-.913887-.4907913-1.9590988-.2650948-1.0433884-2.0398979-.8480453-2.2297478-1.5867996-.1816826-.7110214.2483101-1.2265549.2826958-1.2674408-.4202919.085804-.7325554.1699371-.7325554.1699371-3.0116804 1.4821243-3.6695555 6.116539-1.0836905 7.4139557z" fill="#4d5c7d"/><path d="m54.3664932 71.2591171s1.0896721-2.7721634 2.4758301-3.7287827c1.3861542-.9566193 2.9678726-1.5595703 4.251236.3929443 0 0 2.1989822-.4077606 3.2538681-.8212738s3.0502243-2.9090195 3.0502243-2.9090195-3.2307053-1.010952-4.1129265-.9061852c-.882225.104763-3.8636169.4041176-3.8636169.4041176s.2799263 1.4437714-1.7740402 2.6541977-3.3207284 4.5491945-3.3207284 4.5491945z" fill="#27a2db"/><path d="m63.4612427 70.9754868s1.0071182-.222435 2.2648926-1.0637665c.6290054-.419899 1.565712-1.5009918 2.3449631-2.4768219l-.1827774 5.1726837c-1.6180801.0179596-3.5376892.0339203-5.358963.0351715l-.0128136-.0004578c-.756649-.0267334-1.2410507-.0438461-1.2410507-.0438461 1.5740775-.3671188 2.185749-1.6229629 2.185749-1.6229629z" fill="#27a2db"/><g fill="#fcd462"><path d="m36.345093 42.228333h6.753111v55.543335h-6.753111z"/><path d="m103.654907 74.181526h6.753111v23.590139h-6.753111z"/><path d="m41.402744 77.141594h69.005272v8.646853h-69.005272z"/></g><path d="m43.098206 72.572693h67.309815v5.227327h-67.309815z" fill="#ebf0f3"/><path d="m52.3779716 69.4008255h-9.2797661v3.1718674h12.451725c.0000001-1.7517929-1.420124-3.1718674-3.1719589-3.1718674z" fill="#44c4a1"/><path d="m104.8785553 96.4924927c-2.9500732.1199951-5.6201172-1.9500122-8.5700684-1.9699707-1.5100098-.0100098-2.9899902.5199585-4.5.5199585-1.5400391 0-3.0200195-.539978-4.5400391-.6900024-2.9599609-.289978-5.9299316.9000244-8.869873.4900513-2.460083-.3400269-4.7900391-1.7800293-7.2600098-1.4800415-2.460083.3099976-4.7600098 2.3200073-7.1401329 1.6199951.2399864-.75.4799767-1.5.720089-2.25.4300537-1.3399658.8599854-2.7099609 1.1900635-4.0899658-.0100098-.1199951-.0300293-.2399902-.0300293-.3699951v-23.9000245c0-2.2899818 1.8498535-4.1500282 4.1499023-4.1500282h29.4699707c2.3000488 0 4.1601562 1.8600464 4.1601562 4.1500282v23.5900269c.3999024 2.8399657.8099366 5.6900024 1.2199708 8.5299682z" fill="#4d5c7d"/><path d="m103.6585846 87.9625244v-2.4700317c-.1101074.3200073-.210083.6500244-.3200684.9700317-.2099609.6199951-.4200439 1.2599487-.5100098 1.9099731-.1000977.7299805-.0400391 1.4700317.0100098 2.2000122.0899658 1.4099731.1899414 2.8099976.2900391 4.2099609-1.8901367-1.25-4.0900879-2.039978-6.3400879-2.289978-.6298828-.0700073-1.2800293-.0899658-1.8999023.0800171-1.1601562.3200073-2.130127 1.3200073-3.3400879 1.289978-.6699219-.0100098-1.2900391-.3599854-1.9199219-.6099854-1.4300537-.5700073-3.0500488-.6799927-4.5500488-.2999878-.6999512.1799927-1.3800049.4599609-2.0900879.6099854-1.0299072.210022-2.0998535.1300049-3.1499023.0499878-.7099609-.0499878-1.4299316-.1099854-2.1000977-.3499756-.4399414-.1600342-.8398438-.4000244-1.25-.6099854-2.9099121-1.4900513-6.4799805-1.6200562-9.4799805-.3400269.3300781-1.2700195.3701172-2.6099854.1501465-3.9000244-.130127-.7099609-.4801025-2.8099976-1.2800293-3.1099854v2.9700317c0 .1300049.0200195.25.0300293.3699951-.3300781 1.3800049-.7600098 2.75-1.1900635 4.0899658-.2401123.75-.4801025 1.5-.720089 2.25 2.3801231.7000122 4.6800499-1.3099976 7.1401329-1.6199951 2.4699707-.2999878 4.7999268 1.1400146 7.2600098 1.4800415 2.9399414.4099731 5.9099121-.7800293 8.869873-.4900513 1.5200195.1500244 3 .6900024 4.5400391.6900024 1.5100098 0 2.9899902-.5299683 4.5-.5199585 2.9499512.0199585 5.6199951 2.0899658 8.5700684 1.9699707-.4100342-2.8399654-.8200684-5.6900021-1.2199707-8.5299679z" fill="#474c5b"/></svg>