<svg enable-background="new 0 0 140 140" height="512" viewBox="0 0 140 140" width="512" xmlns="http://www.w3.org/2000/svg"><circle cx="70" cy="70" fill="#ea8953" r="64"/><path d="m38.0057106 48.1582909c.1500244 1.0599976.3099976 2.0900269.4899902 3.0900269h-.6299438c1.7299805 9.8200073 4.7299805 16.6099892 9.2799683 20.8400307l-.0299683-.0100098 7.8599854 7.8899536v5.75l1.8499756 1.8500366v13.0899658c0 2.7300415 1.1000366 5.2000122 2.8800049 7l-.1900024-.0199585 24.7437782 24.7471924c23.8810425-5.4368896 42.6707764-24.2186279 48.119072-48.0953979l-29.4028244-29.3818398c-1.1300049-1.1900024-2.7300415-1.9400024-4.5-1.9400024-1.6400146 0-3.1300049.6400146-4.2399902 1.6800537l-18.1799929-18.1800538v.0800171c-.2200317-.289978-.4400024-.5700073-.6900024-.8300171-2.4900513-2.5899658-5.9000244-3.3499756-8.1200562-3.5499878-.1099854-.1599731-.2299805-.3099957-.3799438-.4400005l-1.7400513-1.6399536c-1.6499672-1.5400391-4.3399696-.3700562-4.3399696 1.8799438v3.2700176c0 .2200317.0299683.4299927.0800171.6300049l-5.7300415-5.7299786-.0799561.039978c-.9100342-.9299927-2.5-1.1300049-3.6100464-.0899658l-1.75 1.6399536c-.1399536.1300049-.2600098.2700195-.3599854.420042-2.2000122.1499634-5.8300171.8499756-8.4500122 3.5699463-2.6900024 2.8000489-3.6599731 6.9900514-2.8800048 12.4400026z" opacity=".1"/><path d="m66.7738113 110.6088486c-5.4860802 0-9.9491158-4.4630356-9.9491158-9.9497528v-18.7513504h2.6011086v18.7513504c0 4.0515289 3.2964745 7.3486404 7.3480072 7.3486404s7.3480072-3.2971115 7.3480072-7.3486404v-16.3686982c0-5.134903 4.1779022-9.3134384 9.3134384-9.3134384 5.1355438 0 9.313446 4.1785355 9.313446 9.3134384v15.8403473c0 1.20784.982399 2.1896057 2.1896057 2.1896057 1.2071991 0 2.1889648-.9817657 2.1889648-2.1896057v-38.6432304h2.6011124v38.6432304c0 2.6417542-2.1489639 4.7907181-4.7900772 4.7907181-2.6417542 0-4.7907181-2.1489639-4.7907181-4.7907181v-15.8403473c0-3.7009888-3.0113373-6.7123337-6.7123337-6.7123337-3.7009888 0-6.7123337 3.0113449-6.7123337 6.7123337v16.3686981c.0000002 5.4867173-4.4630354 9.9497529-9.9491118 9.9497529z" fill="#4d5c7d"/><path d="m56.5730629 76.2772141c-10.393074-2.3315353-16.1316681-11.0413361-18.5712471-28.1226845-.7784042-5.4500694.1921463-9.6343079 2.8846436-12.4379196 3.1332703-3.2603455 7.7331085-3.6120987 9.5649414-3.6120987.1547012 0 .2946663.0024529.4180565.0061378l-.2572174 2.5095596c-.0478821-.0006104-.0982208-.0006104-.1510162-.0006104-1.5187492 0-5.3174706.2787018-7.7791481 2.8582458-2.115448 2.2167397-2.852726 5.6894875-2.1915703 10.3218613 2.2947006 16.0610695 7.2659416 23.8917847 16.5687523 26.0096893z" fill="#474c5b"/><path d="m59.1912804 73.8093948c9.3028145-2.1179047 14.2740517-9.9486198 16.5687523-26.0096893.6611557-4.6323738-.0755081-8.1051216-2.1909561-10.3218613-2.4616776-2.5795441-6.2603989-2.8582458-7.7791443-2.8582458-.0546417 0-.1074295.0006104-.1571579.0012245l-.2523041-2.5114021c.1252289-.0036812.2670364-.0061378.4241943-.0061378 1.8299866 0 6.4255295.3523712 9.5600281 3.6139412 2.6924973 2.8029976 3.6630478 6.9878502 2.8840332 12.4379196-2.4395828 17.0807343-8.1781769 25.790535-18.5712471 28.1220703z" fill="#474c5b"/><path d="m78.3896103 51.2462845h-3.8344803c-2.4985123 13.6062241-7.3708344 20.2822189-15.9473457 22.0402298h-.9650269c-8.5765114-1.7580109-13.4488373-8.4340057-15.9473495-22.0402298h-3.8344002c2.5856056 14.6398544 7.9617004 22.5756912 17.1154175 25.2605972v9.2087326h6.2977676v-9.2088852c9.1536408-2.684906 14.5298081-10.6208267 17.1154175-25.2604446z" fill="#fcd462"/><g fill="#ebf0f3"><path d="m51.4434853 30.0903339-1.7492981 1.6354332c-1.0887756 1.0178852-1.0887756 2.7446613 0 3.7625446l1.7492981 1.6354332c1.6456604 1.5385628 4.3341522.3716354 4.3341522-1.8812485v-3.2708644c0-2.2528839-2.6884422-3.4198093-4.3341522-1.8812981z"/><path d="m65.1207733 30.0903339 1.7492981 1.6354332c1.0887756 1.0178852 1.0887756 2.7446613 0 3.7625446l-1.7492981 1.6354332c-1.6456604 1.5385628-4.3341522.3716354-4.3341522-1.8812485v-3.2708644c0-2.2528839 2.6884422-3.4198093 4.3341522-1.8812981z"/><ellipse cx="98.471" cy="59.173" rx="6.209" ry="6.209" transform="matrix(.973 -.23 .23 .973 -10.961 24.207)"/></g><g transform="matrix(.973 -.23 .23 .973 -10.961 24.207)"><ellipse cx="98.471" cy="59.173" fill="#64798a" rx="3.995" ry="3.995"/><ellipse cx="98.471" cy="59.173" fill="#474c5b" rx="1.624" ry="1.624"/></g></svg>