<svg enable-background="new 0 0 140 140" height="512" viewBox="0 0 140 140" width="512" xmlns="http://www.w3.org/2000/svg"><circle cx="70" cy="70" fill="#efc84a" r="64"/><path d="m33.4628639 78.0583191c0 11.6400146 5.4500122 22 13.9299927 28.6900024l27.0014687 27.0847168c30.0541992-2.0403442 54.4182663-24.8113403 58.8748093-54.1384277l-52.8962937-52.8963032c-.789978-.8599854-1.8999634-1.3999634-3.1499634-1.3999634h-14.450016c-2.3599854 0-4.2799683 1.9299927-4.2799683 4.289978v4.919981c0 1.3500366.6399536 2.5400391 1.6099854 3.3300171l4.0100136 4.0599976c-17.3800087 2.8099976-30.6500283 17.8800049-30.6500283 36.0600014z" opacity=".1"/><path d="m77.2257004 38.8949318h-14.4514008c-2.3630638 0-4.2856674-1.9226036-4.2856674-4.2861443v-4.9197159c0-2.3635387 1.9226036-4.2861443 4.2856674-4.2861443h14.4514008c2.3630676 0 4.2856674 1.9226055 4.2856674 4.2861443v4.9197159c0 2.3635407-1.9225998 4.2861443-4.2856674 4.2861443zm-14.4514008-9.5954247c-.2150002 0-.3890877.1745663-.3890877.3895645v4.9197159c0 .2149963.1740875.3895645.3890877.3895645h14.4514008c.2149963 0 .3890915-.1745682.3890915-.3895645v-4.9197159c0-.2149982-.1740952-.3895645-.3890915-.3895645z" fill="#4d5c7d"/><path d="m73.5816498 33.3543625h-7.1632767c-.4321289 0-.7824554.3503227-.7824554.7825165v9.4837608c0 .4321938.3503265.7825165.7824554.7825165h7.1632767c.4321289 0 .7825699-.3503227.7825699-.7825165v-9.4837608c0-.4321938-.350441-.7825165-.7825699-.7825165z" fill="#ebf0f3"/><g transform="matrix(.944 -.331 .331 .944 -21.891 27.571)"><ellipse cx="70" cy="78.056" fill="#4d5c7d" rx="36.541" ry="36.541"/><ellipse cx="70" cy="78.056" fill="#d5d6db" rx="29.952" ry="29.952"/><ellipse cx="70" cy="78.056" fill="#ebf0f3" rx="27.818" ry="27.818"/></g><g fill="#4d5c7d"><path d="m69.366135 51.798492h1.267733v4.460306h-1.267733z"/><path d="m69.366135 99.852806h1.267733v4.460306h-1.267733z"/><path d="m93.393288 75.825645h1.267733v4.460306h-1.267733z" transform="matrix(0 1 -1 0 172.083 -15.971)"/><path d="m45.338978 75.825645h1.267733v4.460306h-1.267733z" transform="matrix(0 1 -1 0 124.029 32.083)"/><path d="m69.366135 51.798492h1.267733v4.460306h-1.267733z"/><path d="m69.366135 99.852806h1.267733v4.460306h-1.267733z"/><path d="m93.393288 75.825645h1.267733v4.460306h-1.267733z" transform="matrix(0 1 -1 0 172.083 -15.971)"/><path d="m45.338978 75.825645h1.267733v4.460306h-1.267733z" transform="matrix(0 1 -1 0 124.029 32.083)"/><path d="m87.547859 59.423992h1.267733v1.537871h-1.267733z" transform="matrix(.701 .713 -.713 .701 69.319 -44.895)"/><path d="m51.18441 95.149735h1.267733v1.537871h-1.267733z" transform="matrix(.701 .713 -.713 .701 83.925 -8.267)"/><path d="m87.229004 95.46859h1.267733v1.537871h-1.267733z" transform="matrix(-.713 .701 -.701 -.713 217.984 103.311)"/><path d="m51.503262 59.105145h1.267733v1.537871h-1.267733z" transform="matrix(-.713 .701 -.701 -.713 131.29 66.045)"/><path d="m93.010124 67.767479h1.267733v1.537871h-1.267733z" transform="matrix(.373 .928 -.928 .373 122.247 -43.928)"/><path d="m45.722141 86.806252h1.267733v1.537871h-1.267733z" transform="matrix(.373 .928 -.928 .373 110.281 11.866)"/><path d="m78.885521 100.930862h1.267733v1.537871h-1.267733z" transform="matrix(-.928 .373 -.373 -.928 191.267 166.342)"/><path d="m59.846745 53.642872h1.267733v1.537871h-1.267733z" transform="matrix(-.928 .373 -.373 -.928 136.906 82.298)"/><path d="m79.12011 53.738678h1.267733v1.537871h-1.267733z" transform="matrix(.924 .383 -.383 .924 26.93 -26.371)"/><path d="m59.612156 100.835053h1.267733v1.537871h-1.267733z" transform="matrix(.924 .383 -.383 .924 43.468 -15.321)"/><path d="m92.914322 87.04084h1.267733v1.537871h-1.267733z" transform="matrix(-.383 .924 -.924 -.383 210.473 34.986)"/><path d="m45.817947 67.53289h1.267733v1.537871h-1.267733z" transform="matrix(-.383 .924 -.924 -.383 127.331 51.524)"/><path d="m70.1897354 60.4593048c-.0279388-.2231407-.351387-.2231407-.3794556 0l-2.8359833 22.6144485c-.0740814.5910645.3867111 1.1133347.9823532 1.1133347h4.0866013c.5957642 0 1.0565567-.5222702.9824753-1.1133347z"/></g><circle cx="70" cy="78.056" fill="#e56353" r="4.168"/><circle cx="70" cy="78.056" fill="#ebf0f3" r="2.075"/></svg>