<svg enable-background="new 0 0 140 140" height="512" viewBox="0 0 140 140" width="512" xmlns="http://www.w3.org/2000/svg"><circle cx="70" cy="70" fill="#334d5c" r="64"/><path d="m110.9628677 45.5583153h-10.2999878l-13.1699829-13.1699829h-.0100098c-1.3500366-1.3900127-3.2200317-2.2499981-5.3000488-2.2499981-4.0699463 0-7.3799438 3.3099957-7.3799438 7.380003v1.4099731l-6.1700439-6.1900024c-1.3599854-1.5899639-3.3699951-2.5999737-5.6099892-2.5999737-4.0700073 0-7.3800049 3.3099957-7.3800049 7.380003v8.039978h-26.6099834v34.7800331h.8699951c-.2800293.1699829-.5700073.3399658-.8699951.5v16.6999512l36.2773438 36.2722168c1.550415.1124268 3.1106567.1894531 4.6897583.1894531 35.3462524 0 63.9999924-28.6537476 63.9999924-64 0-.484375-.0258179-.9625244-.036499-1.4443359z" opacity=".1"/><path d="m29.037645 45.559559h81.924713v34.774254h-81.924713z" fill="#dc8744"/><g fill="#fcd462"><path d="m29.037645 45.559559h6.787647v4.671643h-6.787647z"/><path d="m37.386208 45.559559h15.13621v4.671643h-15.13621z"/><path d="m54.083332 45.559559h15.13621v4.671643h-15.13621z"/><path d="m70.780457 45.559559h15.13621v4.671643h-15.13621z"/><path d="m87.477585 45.559559h15.13621v4.671643h-15.13621z"/><path d="m104.174706 45.559559h6.787647v4.671643h-6.787647z"/><path d="m29.037645 51.426556h15.13621v4.671643h-15.13621z"/><path d="m45.734772 51.426556h15.13621v4.671643h-15.13621z"/><path d="m62.431896 51.426556h15.13621v4.671643h-15.13621z"/><path d="m79.129021 51.426556h15.13621v4.671643h-15.13621z"/><path d="m95.826149 51.426556h15.13621v4.671643h-15.13621z"/><path d="m29.037645 57.677368h6.787647v4.671643h-6.787647z"/><path d="m37.386208 57.677368h15.13621v4.671643h-15.13621z"/><path d="m54.083332 57.677368h15.13621v4.671643h-15.13621z"/><path d="m70.780457 57.677368h15.13621v4.671643h-15.13621z"/><path d="m87.477585 57.677368h15.13621v4.671643h-15.13621z"/><path d="m104.174706 57.677368h6.787647v4.671643h-6.787647z"/><path d="m29.037645 63.544365h15.13621v4.671643h-15.13621z"/><path d="m45.734772 63.544365h15.13621v4.671643h-15.13621z"/><path d="m62.431896 63.544365h15.13621v4.671643h-15.13621z"/><path d="m79.129021 63.544365h15.13621v4.671643h-15.13621z"/><path d="m95.826149 63.544365h15.13621v4.671643h-15.13621z"/><path d="m29.037645 69.795174h6.787647v4.671643h-6.787647z"/><path d="m37.386208 69.795174h15.13621v4.671643h-15.13621z"/><path d="m54.083332 69.795174h15.13621v4.671643h-15.13621z"/><path d="m70.780457 69.795174h15.13621v4.671643h-15.13621z"/><path d="m87.477585 69.795174h15.13621v4.671643h-15.13621z"/><path d="m104.174706 69.795174h6.787647v4.671643h-6.787647z"/><path d="m29.037645 75.66217h15.13621v4.671643h-15.13621z"/><path d="m45.734772 75.66217h15.13621v4.671643h-15.13621z"/><path d="m62.431896 75.66217h15.13621v4.671643h-15.13621z"/><path d="m79.129021 75.66217h15.13621v4.671643h-15.13621z"/><path d="m95.826149 75.66217h15.13621v4.671643h-15.13621z"/></g><path d="m29.037645 45.559559h81.924713v10.538639h-81.924713z" fill="#44c4a1"/><path d="m82.1873627 30.1369686c-4.0703125 0-7.3818359 3.3115215-7.3818359 7.3823223v15.3525391h-16.1640626v-15.3525391c0-2.4165039 1.9658203-4.3823242 4.3818359-4.3823242 2.4169922 0 4.3828125 1.9658203 4.3828125 4.3823242v3.2441406c0 .8286133.671875 1.5 1.5 1.5s1.5-.6713867 1.5-1.5v-3.2441406c0-4.0708008-3.3115234-7.3823223-7.3828125-7.3823223-4.0703125 0-7.3818359 3.3115215-7.3818359 7.3823223v50.870121c0 .8286133.671875 1.5 1.5 1.5s1.5-.6713867 1.5-1.5v-8.2817383h16.1640625v8.2817383c0 .8286133.671875 1.5 1.5 1.5s1.5-.6713867 1.5-1.5v-50.870121c0-2.4165039 1.9658203-4.3823242 4.3818359-4.3823242s4.3818359 1.9658203 4.3818359 4.3823242v3.2441406c0 .8286133.671875 1.5 1.5 1.5s1.5-.6713867 1.5-1.5v-3.2441406c.0000001-4.0708008-3.3115233-7.3823223-7.3818358-7.3823223zm-7.381836 25.7348614v9.1176796h-16.1640625v-9.1176796zm-16.1640625 21.2358436v-9.1181641h16.1640625v9.1181641z" fill="#ebf0f3"/><path d="m105.0839233 75.1579132c-.7814026-1.2109833-2.5202332-1.1811447-3.2378998.0700989-.4833374.8425446-1.0734253 1.6165695-1.7555923 2.3312988-1.7514038 1.8347626-4.5809097 1.877037-6.3511734.0612335-.77388-.7937698-1.4407578-1.613739-1.9885635-2.462822-.7827606-1.2130203-2.5326843-1.1494904-3.2556534.1014709-.5152588.891571-1.1502151 1.7061691-1.8877335 2.4549408-1.6732483 1.6986923-4.409317 1.7151413-6.0877457.0217285-.8222046-.8296356-1.52742-1.6878891-2.1018524-2.5781403-.7827606-1.2129898-2.5328064-1.1494904-3.2557755.1014709-.5152588.891571-1.1502151 1.7061996-1.8878555 2.4549713-1.6732483 1.6987839-4.4093246 1.7148972-6.0877457.0214157-.8222046-.8295135-1.527298-1.6876984-2.1017303-2.577858-.7827606-1.2132111-2.5325546-1.1496735-3.2556496.1014709-.5151405.8914413-1.1500969 1.7059479-1.8874893 2.4546585-1.6732483 1.6988754-4.4094429 1.7155228-6.0879936.0219498-.8222008-.8295746-1.52742-1.6878281-2.1018524-2.5780792-.7827568-1.2129898-2.5327988-1.1494904-3.2556458.1014709-.5153885.8916321-1.1504669 1.7063217-1.8879852 2.4551239-1.6725082 1.6978455-4.4074707 1.7160263-6.0852776.0237122-.8321877-.8393402-1.5446815-1.708046-2.1229324-2.6095428-.7664871-1.1946793-2.506916-1.1452179-3.2122574.0879059-1.3350029 2.3337479-3.4853001 4.1437683-6.1498737 5.6233139v6.1043472h81.9247131v-6.1043472c-2.5415591-1.7514799-4.5558871-3.6320036-5.8784351-5.681793z" fill="#27a2db"/><path d="m105.0839233 80.4560852c-.7814026-1.2109756-2.5202332-1.1811447-3.2378998.0700989-.4833374.8425446-1.0734253 1.6165695-1.7555923 2.3312988-1.7514038 1.8347626-4.5809097 1.877037-6.3511734.0612411-.77388-.7937775-1.4407578-1.6137466-1.9885635-2.462822-.7827606-1.213028-2.5326843-1.1494904-3.2556534.1014633-.5152588.891571-1.1502151 1.7061691-1.8877335 2.4549408-1.6732483 1.6986923-4.409317 1.7151489-6.0877457.0217285-.8222046-.8296356-1.52742-1.6878815-2.1018524-2.5781326-.7827606-1.2129974-2.5328064-1.1494904-3.2557755.1014633-.5152588.891571-1.1502151 1.7061996-1.8878555 2.4549713-1.6732483 1.6987839-4.4093246 1.7148972-6.0877457.0214157-.8222046-.8295135-1.527298-1.6876984-2.1017303-2.5778503-.7827606-1.2132111-2.5325546-1.1496811-3.2556496.1014633-.5151405.891449-1.1500969 1.7059479-1.8874893 2.4546585-1.6732483 1.6988831-4.4094429 1.7155228-6.0879936.0219498-.8222008-.8295746-1.52742-1.6878204-2.1018524-2.5780716-.7827568-1.2129974-2.5327988-1.1494904-3.2556458.1014633-.5153885.8916321-1.1504669 1.7063217-1.8879852 2.4551315-1.6725082 1.6978378-4.4074707 1.7160263-6.0852776.0237045-.8321877-.8393402-1.5446815-1.708046-2.1229324-2.6095352-.7664871-1.1946869-2.506916-1.1452255-3.2122574.0878983-1.3350029 2.3337479-3.4853001 4.1437683-6.1498737 5.6233215v6.1043396h81.9247131v-6.1043395c-2.5415591-1.7514801-4.5558871-3.6320037-5.8784351-5.6818008z" fill="#2d93ba"/><path d="m105.0839233 85.7542648c-.7814026-1.2109833-2.5202332-1.1811523-3.2378998.0700912-.4833374.8425446-1.0734253 1.6165695-1.7555923 2.3312988-1.7514038 1.8347702-4.5809097 1.877037-6.3511734.0612411-.77388-.7937775-1.4407578-1.613739-1.9885635-2.462822-.7827606-1.2130203-2.5326843-1.1494904-3.2556534.1014709-.5152588.8915634-1.1502151 1.7061615-1.8877335 2.4549332-1.6732483 1.6986923-4.409317 1.7151489-6.0877457.0217361-.8222046-.8296432-1.52742-1.6878891-2.1018524-2.5781403-.7827606-1.2129898-2.5328064-1.1494904-3.2557755.1014709-.5152588.8915634-1.1502151 1.706192-1.8878555 2.4549637-1.6732483 1.6987915-4.4093246 1.7148972-6.0877457.0214233-.8222046-.8295135-1.527298-1.6876984-2.1017303-2.577858-.7827606-1.2132111-2.5325546-1.1496811-3.2556496.1014709-.5151405.8914413-1.1500969 1.7059402-1.8874893 2.4546509-1.6732483 1.6988831-4.4094429 1.7155228-6.0879936.0219574-.8222008-.8295822-1.52742-1.6878281-2.1018524-2.5780792-.7827568-1.2129898-2.5327988-1.1494904-3.2556458.1014709-.5153885.8916321-1.1504669 1.7063217-1.8879852 2.4551239-1.6725082 1.6978455-4.4074707 1.7160263-6.0852776.0237122-.8321877-.8393478-1.5446815-1.7080536-2.1229324-2.6095428-.7664871-1.1946869-2.506916-1.1452255-3.2122574.0878983-1.3350029 2.3337479-3.4853001 4.1437683-6.1498737 5.6233215v6.1043396h81.9247131v-6.1043393c-2.5415591-1.7514801-4.5558871-3.6320037-5.8784351-5.6817932z" fill="#27a2db"/></svg>