<svg enable-background="new 0 0 140 140" height="512" viewBox="0 0 140 140" width="512" xmlns="http://www.w3.org/2000/svg"><circle cx="70" cy="70" fill="#ea8953" r="64"/><path d="m46.933548 75.3549881-.0099487.0599976c-2.6000366 13.1799927 1.5599976 21.3099976 6.0099487 28.9100342.2400513.4099731.5300293.7299805.8400269.9799805l27.6568604 27.6568527c27.5002441-4.9610596 48.8834229-27.4775314 52.1271973-55.5372849l-37.5340578-37.5395508c-3.1099854-3.6300049-7.4299927-5.8900146-12.2199707-5.8900146h-.0300293c-.2999878 0-.5999756.0299683-.9199829.0800171-.0900269.0100098-.1799927.0299683-.2700195.039978-.2799683.0499878-.5700073.1099854-.8599854.1900024-.0300293.0100098-.0499878.0100098-.0800171.0200195-1.3900146.3899536-2.8599854 1.0700073-4.2700195 1.8800049-4.5799561 2.6300049-10.1699829 2.6300049-14.75 0-2.1699829-1.2400513-4.4699707-2.210022-6.4299927-2.210022-9.4400024 0-17.0999756 8.7600098-17.0999756 19.5599976 0 5.789978 2.2000122 10.9799805 5.7000122 14.5599976 1.8599854 1.9099731 2.6499634 4.6199951 2.1399537 7.2399902z" opacity=".1"/><path d="m100.9026031 53.5528374c0-10.8011703-7.6562881-19.5571404-17.1008148-19.5571404-1.9540405 0-4.2617416.9659233-6.4252853 2.2068329-4.5843201 2.6293449-10.1718063 2.6293488-14.7561226.0000038-2.1635513-1.2409096-4.4712448-2.2068367-6.4252586-2.2068367-9.4445992 0-17.1008911 8.75597-17.1008911 19.5571404 0 5.7885933 2.2020683 10.9849129 5.6978493 14.5642281 1.8647881 1.9093552 2.6521912 4.6211777 2.1427612 7.2410202l-.0107994.0555496c-2.598114 13.1826782 1.5628357 21.3091278 6.0137329 28.9078598 1.7418785 2.9736176 5.9269371 1.7666092 6.2066231-1.7504272.5182724-6.5174332 3.1683464-19.0062256 8.2085533-25.924942 1.2927551-1.7745667 3.9982529-1.7745667 5.291008 0 5.0402069 6.9187164 7.6902847 19.4075089 8.2085571 25.924942.279686 3.5170364 4.4647446 4.7240448 6.2066193 1.7504272 4.4508972-7.598732 8.6118469-15.7251816 6.0137329-28.9078598l-.0108032-.0555573c-.5094223-2.6198273.2779694-5.3316498 2.1427536-7.2409973 3.4957732-3.5793228 5.6977843-8.7756424 5.6977843-14.5642433z" fill="#e1e6e9"/><path d="m95.2057571 68.11483c-1.8699951 1.9099731-2.6500244 4.6199951-2.1400146 7.2399902l.0100098.0599976c2.6000366 13.1799927-1.5700073 21.3099976-6.0200195 28.9100342-1.3399658 2.2799683-4.1099854 2.0999756-5.4499512.2999878.0700073-.0900269.1399536-.1900024.1999512-.2999878 4.4500122-7.6000366 8.6200562-15.7300415 6.0200195-28.9100342l-.0100098-.0599976c-.5100098-2.6199951.2700195-5.3300171 2.1400146-7.2399902 3.4899902-3.5800171 5.7000122-8.7700157 5.7000122-14.5599937 0-9.5999756-6.0499878-17.5800171-14.0200195-19.2299805.75-.210022 1.4800415-.3300171 2.1699829-.3300171 9.4400024 0 17.1000366 8.7600098 17.1000366 19.5599976 0 5.789978-2.2100219 10.9799766-5.7000122 14.5599937z" fill="#d5d6db"/><path d="m48.8635941 63.7545433c-3.2280273-5.4125977-4.1181641-10.4262695-2.6450195-14.9018555 2.2124023-6.7216797 8.9438477-9.6118164 9.2294922-9.7314453l1.1635742 2.7651367c-.0576172.0244141-5.7827148 2.5117188-7.5512695 7.9277344-1.1777344 3.6079102-.3774414 7.78125 2.3793945 12.4038086z" fill="#fff"/></svg>