<svg enable-background="new 0 0 140 140" height="512" viewBox="0 0 140 140" width="512" xmlns="http://www.w3.org/2000/svg"><circle cx="70" cy="70" fill="#334d5c" r="64"/><path d="m111.6699905 38.8650589c-.25-.2900391-.5100098-.5600586-.7799683-.8300781-8.4500122-8.4499512-24.0200195-6.5800781-34.7800293 4.1799316-6.2099609 6.210083-9.4500122 14.0200195-9.4699707 21.1401367l-.0200195-.0600586s.0100098.0700684.0200195.1999512c0 .6201172.0299683 1.25.0799561 1.8601074-.0299683 3.0499268-.7799683 9.2099609-5.3699951 16.6499023l-9.5899658-4.0599365h-2.710022l-17.4099731-17.4100341-12.460022 12.4599609 19.8800049 19.880127 3.460022 3.4599609 3.0899658 3.0899658-1.2199707 1.2199707-.1300049-.1300049c-.1600342-.1599121-.4100342-.1599121-.5700073 0l-1.0800171 1.0800781c-.1599731.1599121-.1599731.4099121 0 .5699463l31.6762695 31.6762619c33.345459-2.2075195 59.7137375-29.937004 59.7137375-63.8411788 0-3.2128906-.2432861-6.3684082-.7002563-9.4541016z" opacity=".1"/><path d="m60.7194748 92.0912018c13.6067047-11.6371613 24.9109192-9.7838593 24.9109192-9.7838593l-13.3126907-5.7010117-5.7009735-13.3126564s1.8532562 11.3041725-9.7838974 24.9108772l-12.4392471 12.4392471-.1331787-.1331787c-.1573105-.1573105-.4123573-.1573105-.569706.0000381l-1.0842514 1.0842514c-.1572723.1572723-.1572723.412323.0000381.5696335l4.15308 4.1530762c.1573105.1573105.4123535.1573105.5696259.0000381l1.0842514-1.0842514c.1573524-.1573486.1573524-.4123917.0000381-.5697021l-.1398773-.1398849 12.4392471-12.4392471z" fill="#e69871"/><path d="m48.4134827 104.6637039-.1398773-.1398849 12.4392471-12.4392471.0066223.0066299c.7706375-.6590729 1.5325928-1.2691879 2.2868423-1.8445435l-4.3289452-4.328949c-.5753593.7542496-1.1854706 1.5162125-1.8445396 2.2868423l-12.4392471 12.4392471-.1331787-.1331787c-.1573105-.1573105-.4123573-.1573105-.569706.0000381l-1.0842514 1.0842514c-.1572723.1572723-.1572723.412323.0000381.5696335l4.15308 4.1530762c.1573105.1573105.4123535.1573105.5696259.0000381l1.0842514-1.0842514c.1573525-.1573485.1573525-.4123915.0000382-.569702z" fill="#44c4a1"/><path d="m105.3254013 71.8286514c.0698013-.0570984.1396103-.1268997.2030563-.1903534.069809-.0698013.1333389-.1333313.1967087-.2094116l-1.93573-1.93573 2.5958481-2.5958481 1.7707138 1.7707062c.1205826-.1459198.2347794-.298233.3363876-.4505844l-1.7136078-1.7136154 2.6021194-2.6021233 1.1868286 1.1868248c.101532-.164978.203064-.3299561.2919235-.4950562l-1.0852585-1.0852585 2.5957718-2.5957718.1396103.1396103c.2221909-.5522346.4189377-1.1043549.590271-1.6691818l-.729805.7298088-2.5958099-2.5958099 2.5956955-2.5956955 1.4851379 1.4851418c.0444717-.2221947.08255-.4506302.1206665-.6791763l-1.2058868-1.2058868 1.4787521-1.4787483c.0190582-.2728653.0190964-.5521965.0190582-.8187447l-1.8976517 1.8976517-2.5957718-2.5957718 2.5957718-2.5957718 1.8595734 1.8595734c-.0127029-.2919235-.0380402-.5839233-.0698013-.8694916l-1.3899307-1.3899269.9963989-.9963951c-.0507889-.2158012-.101532-.4315681-.1650238-.6346664l-1.2312164 1.2312202-2.5958099-2.5958099 2.3418884-2.3418884c-.0824356-.1840782-.1840363-.3490601-.2855682-.5141182l-2.4561615 2.4561615-2.5957718-2.5957718 2.8051834-2.8051834c-.0570984-.0698013-.1269455-.1396446-.1903915-.2030983-.0634918-.063488-.1332932-.1332932-.2031021-.1903915l-2.8051834 2.8051834-2.6021576-2.6021614 2.4561615-2.4561653c-.1650238-.10149-.3363571-.196743-.5077667-.2792168l-2.3418884 2.3418884-2.5957718-2.595768 1.2312164-1.2312202c-.2030945-.0634918-.4188614-.1142349-.6346664-.16502l-.9963913.9963951-1.3899307-1.3899269c-.2855682-.0317612-.5775681-.0570984-.8694916-.0698013l1.8595734 1.8595734-2.5957718 2.595768-2.5958099-2.5958099 1.8976517-1.8976517c-.26651 0-.5458374.000042-.8187408.019062l-1.4787521 1.4787483-1.2058487-1.2058487c-.2285461.0381203-.4569778.0761986-.6791763.1206665l1.4851074 1.4851036-2.5956957 2.5956915-2.5957718-2.5957718.729805-.729805c-.564827.1713333-1.1169815.368042-1.66922.5902367l.1396484.1396484-2.5957718 2.595768-1.0852966-1.0852928c-.1650543.0889015-.33004.1904297-.495018.2919579l1.1868286 1.1868286-2.6021271 2.6021233-1.7136078-1.7136116c-.152359.1016083-.3046722.2158051-.450592.3363914l1.7707062 1.77071-2.5958481 2.5958481-1.93573-1.93573c-.0760803.0633736-.1396027.1269035-.2094116.1967087-.063446.0634499-.133255.133255-.1903534.2030602l1.93573 1.93573-2.5958481 2.5958481-1.7707062-1.77071c-.1205902.1459198-.234787.2982368-.3426743.4568634l1.7136154 1.7136116-2.5958481 2.5958481-1.1868286-1.1868248c-.1078796.1586266-.2030563.3299637-.2983093.5013733l1.0852966 1.0852966-2.5957718 2.5957718-.1396484-.1396484c-.2221985.5522346-.4188232 1.1043167-.5902405 1.66922l.7298889-.7298851 2.5957718 2.5957718-2.5957718 2.5957718-1.4851074-1.4851036c-.0444641.2221947-.0888977.4442749-.1206589.6664734l1.2121964 1.2121964-1.4850998 1.4851036c-.0190201.2729034-.0189819.5521584-.0190582.8187447l1.9039993-1.9040031 2.5958099 2.5958099-2.6020432 2.602047-1.8595734-1.8595734c.0126266.2919998.0316849.5775681.069725.8568649l1.3962784 1.3962784-1.0027466 1.0027466c.0507812.2158051.101532.4315643.1650162.6346664l1.2375717-1.2375717 2.5957718 2.5957718-2.3482358 2.3482434c.0824661.1714096.1777191.3427429.2792892.5076828l2.4624405-2.4624329 2.6021576 2.6021576-2.8115311 2.8115387c.0570984.0698013.1268997.1396103.1903915.2030945.0634537.0634537.1332932.1333008.2030945.1903992l2.8115387-2.8115387 2.5957718 2.5957718-2.4624405 2.4624329c.1649857.1016083.3299637.2032166.5140457.2856522l2.3482361-2.3482437 2.5958099 2.5958099-1.2375717 1.2375717c.2031021.0634918.418869.1142349.6346741.1650238l1.0027466-1.0027542 1.3962784 1.3962784c.2792892.0380402.5648575.0570984.8568573.069725l-1.8595657-1.8595657 2.6020432-2.6020508 2.5957718 2.5957718-1.904007 1.904007c.2666245-.0000381.5458832 0 .8187485-.0190582l1.4850998-1.4851074 1.2122421 1.2122421c.2221527-.0318069.4442749-.0761948.6664658-.1206665l-1.4851379-1.4851379 2.5957718-2.5957718 2.5958099 2.5958099-.7298889.7298813c.5649033-.1714096 1.116951-.3680801 1.6691818-.5902786l-.1396103-.1396027 2.5957718-2.5957718 1.0852585 1.0852585c.1714554-.0952148.3427887-.1903915.5014114-.2982788l-1.186821-1.1868286 2.5958481-2.5958481 1.7136078 1.7136154c.1586304-.1078873.3109436-.222084.4568634-.3426666l-1.7707062-1.7707138 2.5958481-2.5958481zm-1.9358063-2.7353363-2.5958099-2.5958099 2.5958481-2.5958519 2.5958099 2.5958138zm.3935318-5.5851516 2.6021194-2.6021233 2.5958099 2.5958099-2.6021194 2.6021233zm8.1871949-2.995575-2.5957718 2.595768-2.5958099-2.5958099 2.5957718-2.595768zm-.0000382-5.9912682-2.5956955 2.5956917-2.5957718-2.5957718 2.5956955-2.5956917zm-20.1633453 14.971798 2.5958481-2.5958481 2.5957718 2.5957718-2.5958481 2.5958481zm2.1959305 2.9956131-2.5957718 2.5957718-2.5957718-2.5957718 2.5957718-2.5957718zm.7996826-5.9912262 2.5958481-2.5958519 2.5957718 2.595768-2.5958481 2.5958557zm2.9956207-2.9956169 2.5958481-2.5958481 2.5957718 2.5957718-2.5958481 2.5958443zm2.9893341-2.9893418 2.6021271-2.6021233 2.5957718 2.5957718-2.6021271 2.6021233zm2.9956207-2.9956131 2.5957642-2.5957718 2.5957718 2.5957718-2.5957718 2.5957718zm8.187233-8.9869232-2.5957718 2.5957718-2.5958099-2.5958099 2.5957718-2.5957718zm-26.154686 20.9630699 2.5957718-2.5957718 2.5958023 2.5958099-2.5957642 2.5957718zm2.195961 2.9956513-2.5957718 2.5957718-2.5958099-2.5958099 2.5957718-2.5957718zm.7996521-5.9912644 2.5958481-2.5958519 2.5958099 2.5958061-2.5958481 2.5958557zm2.9956131-2.9956169 2.5958481-2.5958481 2.5958099 2.5958099-2.595848 2.5958443zm2.9956131-2.9956169 2.5958481-2.5958481 2.5958099 2.5958099-2.5958481 2.5958481zm2.9893418-2.9893379 2.6021271-2.6021233 2.5958099 2.5958099-2.6021271 2.6021233zm2.9956131-2.9956169 2.5957718-2.595768 2.5958099 2.5958099-2.5957718 2.595768zm2.995697-2.9956894 2.5956879-2.5956955 2.5958099 2.5958099-2.5956879 2.5956955zm5.1915359-5.99123-2.5957642 2.595768-2.5957718-2.595768 2.5957718-2.5957718zm-26.1546478 20.963108 2.5957718-2.5957756 2.5957718 2.5957756-2.5957718 2.5957642zm2.1959305 2.9956131-2.5957718 2.5957718-2.5957718-2.5957718 2.5957718-2.5957718zm.7996902-5.99123 2.5958481-2.5958481 2.5957718 2.595768-2.5958481 2.5958481zm2.9956131-2.9956169 2.5958481-2.5958481 2.5957718 2.5957718-2.5958481 2.5958481zm2.9956131-2.9956131 2.5958481-2.5958481 2.5957718 2.595768-2.5958481 2.5958519zm2.9893418-2.9893417 2.6021194-2.6021233 2.5957718 2.5957718-2.6021194 2.6021233zm2.9956131-2.9956131 2.5957718-2.5957718 2.5957718 2.5957718-2.5957718 2.5957718zm2.9956894-2.9956932 2.5956955-2.5956917 2.5957718 2.595768-2.5956955 2.5956955zm5.1978988-5.9848747-2.5957718 2.595768-2.6021652-2.6021614 2.5957718-2.5957718zm-26.1610412 20.9567146 2.5957718-2.5957718 2.6021652 2.6021614-2.5957718 2.5957718zm2.2023162 3.0020027-2.5957642 2.5957718-2.6021652-2.6021652 2.5957718-2.595768zm.7932969-5.9976196 2.5958481-2.5958481 2.6021652 2.6021614-2.5958481 2.5958481zm2.9956207-2.9956131 2.5958481-2.5958481 2.6021576 2.6021614-2.5958481 2.5958481zm2.9956131-2.9956169 2.5958481-2.5958481 2.6021576 2.6021614-2.5958481 2.5958481zm2.9893417-2.989338 2.6021194-2.6021233 2.6021652 2.6021614-2.6021271 2.6021233zm2.9956131-2.9956169 2.5957718-2.595768 2.6021576 2.6021614-2.5957718 2.5957718zm2.9956894-2.9956894 2.5956955-2.5956955 2.6021576 2.6021614-2.5956879 2.5956955zm2.6021271-8.5806503 2.5957718 2.5957718-2.5957718 2.5957718-2.5957718-2.5957718zm-23.5588761 23.558876 2.5957642-2.595768 2.5957718 2.595768-2.5957718 2.5957718zm2.1959229 2.995617-2.5957718 2.5957718-2.5957718-2.5957718 2.5957718-2.5957718zm.7996902-5.9912301 2.5958481-2.5958481 2.5957718 2.5957718-2.5958481 2.5958481zm2.9956131-2.9956131 2.5958481-2.5958519 2.5957718 2.5957718-2.5958481 2.5958481zm2.9956131-2.9956169 2.5958481-2.5958481 2.5957718 2.5957718-2.5958481 2.5958481zm2.9893418-2.9893379 2.6021271-2.6021233 2.5957642 2.595768-2.6021194 2.6021233zm2.9956131-2.9956169 2.5957718-2.5957718 2.5957718 2.5957718-2.5957718 2.5957718zm2.995697-2.9956932 2.5956879-2.5956917 2.5957718 2.5957718-2.5956955 2.5956917zm-.3999634-5.5913468 2.5958099 2.5958099-2.5956955 2.5956955-2.5958099-2.5958099zm-17.5675659 17.5675698 2.5958481-2.5958481 2.5958023 2.5958099-2.5958481 2.5958481zm2.195961 2.995655-2.5957718 2.5957718-2.5958099-2.5958099 2.5957718-2.5957718zm.7996521-5.9912681 2.5958481-2.5958481 2.5958099 2.5958099-2.5958481 2.5958481zm2.9956131-2.9956169 2.5958481-2.5958481 2.5958099 2.5958099-2.5958481 2.5958481zm2.9893417-2.989338 2.6021194-2.6021233 2.5958099 2.5958099-2.6021194 2.6021233zm2.9956131-2.995613 2.5957718-2.5957718 2.5958099 2.5958099-2.5957718 2.5957718zm-.3998413-5.5913888 2.5957642 2.5957718-2.5957642 2.5957718-2.5957718-2.5957718zm-2.9892654 2.9892655 2.5957718 2.595768-2.6021271 2.6021233-2.5957718-2.595768zm-2.9956131 2.9956131 2.5957718 2.5957718-2.5958481 2.5958481-2.5957718-2.5957718zm-5.9912338 5.99123 2.5957718 2.5957718-2.5958481 2.5958481-2.5957718-2.5957718zm.3997726-.3997688 2.5958481-2.5958481 2.5957642 2.5957718-2.5958481 2.5958481zm-5.9912338 5.99123 2.5957718-2.595768 2.5957718 2.595768-2.5957718 2.5957718zm0 5.99123 2.5957718-2.595768 2.5958099 2.5958061-2.5957718 2.5957718zm.0000381 5.9912682 2.6020508-2.6020432 2.5957642 2.5957718-2.6020432 2.6020432zm2.9892655 2.9892654 2.6020432-2.6020508 2.6021652 2.6021652-2.6020508 2.6020432zm2.9956512 2.9956512 2.6020432-2.6020432 2.5957718 2.5957642-2.6020432 2.6020508zm5.591423 5.5914231-2.5958099-2.59581 2.6020508-2.6020432 2.5958099 2.5958099zm5.9912339 0-2.5957718-2.5957718 2.5957718-2.5957718 2.5957642 2.5957718zm5.9912643.0000381-2.5958099-2.5958099 2.5957718-2.5957718 2.5958099 2.5958099zm2.9956131-2.9956131-2.5958099-2.5958099 2.5958481-2.5958481 2.5958099 2.5958099zm2.9956207-2.9956131-2.5958099-2.5958099 2.5958481-2.5958481 2.5958099 2.5958099z" fill="#d5d6db"/><path d="m61.8934593 86.6986389c3.1307869-4.0101624 4.8291054-7.7405167 5.7345085-10.8080978l1.6207047 3.7847366 3.7847366 1.6207047c-3.0675735.9054031-6.7979355 2.6037216-10.808094 5.7345123z" fill="#f0a67a"/><path d="m110.8915329 38.0324974c-8.4507294-8.4507332-24.0210648-6.5749207-34.7810822 4.1850929s-12.6358223 26.3303452-4.1850891 34.7810822c8.4468918 8.4468918 24.0210648 6.574913 34.7810745-4.1850967s12.6319886-26.3341866 4.1850968-34.7810784zm-36.6300125 36.6300087c-7.0467377-7.0467377-5.0865707-20.468895 4.369194-29.9246559s22.8779144-11.4159317 29.9246597-4.369194c7.0429001 7.0429001 5.0827255 20.4650574-4.3730316 29.9208183s-22.877922 11.4159317-29.9208221 4.3730316z" fill="#f0a67a"/><path d="m51.7620125 77.9444046 9.6042595 4.0709915c-.7496452 1.1996231-1.4947929 2.3186111-2.2324677 3.3008652l-2.1646767 1.7408371z" fill="#fcd462"/><path d="m54.2125511 104.5710144c.9537315-.9537354.9537315-2.5000153-.0000229-3.4537659.9537544.9537506 2.5000381.9537506 3.453743.0000458.9537315-.9537354.9537315-2.5000153-.0000229-3.4537659.9537544.9537506 2.5000381.9537506 3.453743.0000458.9537315-.9537354.9537315-2.5000153-.0000229-3.4537659.9537544.9537506 2.5000381.9537506 3.4537468.0000458.9537277-.9537354.9537277-2.5000153-.0000229-3.4537659l-8.2403526-8.2403488-4.5713272-4.5713348-6.0254059-.0000229-9.4500465 9.4500504 2.7772789 5.4815598 3.4546204 3.454628 8.2403488 8.2403488c.9537544.9537505 2.5000381.9537505 3.4537429.0000457z" fill="#fcd462"/><path d="m24.661949 63.426525h17.617703v22.797663h-17.617703z" fill="#d15241" transform="matrix(-.707 .707 -.707 -.707 110.048 104.067)"/></svg>