<svg enable-background="new 0 0 140 140" height="512" viewBox="0 0 140 140" width="512" xmlns="http://www.w3.org/2000/svg"><circle cx="70" cy="70" fill="#334d5c" r="64"/><path d="m38.6357155 97.0550003.0800171.0799561c1.289978 1.4800415 2.6699829 2.8600464 4.1500244 4.1500244l32.475956 32.4760056c31.111145-2.5733032 55.8955002-27.3856125 58.4260788-58.5088425l-33.2020798-33.1971436c-7.5700073-8.2800293-18.459961-13.4800415-30.5700073-13.4800415-22.8699989 0-41.4199867 18.5500488-41.4199867 41.4300537 0 10.3399658 3.7999878 19.789978 10.0700073 27.0499878z" opacity=".1"/><circle cx="70" cy="70" fill="#27a2db" r="41.422"/><circle cx="70" cy="70" fill="#ebf0f3" r="33.654"/><path d="m71.1695175 103.6234131c-.3831024.0224838-.7774124.0337677-1.1717148.0337677-18.5788803 0-33.6538124-15.0749359-33.6538124-33.6538086 0-18.5901566 15.0749321-33.6538124 33.6538124-33.6538124.3943024 0 .7886124.0112801 1.1717148.0337639-18.0493736.6084518-32.48209 15.4241982-32.48209 33.6200485 0 18.1845627 14.4327164 33.011589 32.48209 33.6200409z" fill="#d5d6db"/><g fill="#4d5c7d"><path d="m69.474754 38.573036h1.050497v3.244187h-1.050497z"/><path d="m69.474754 98.182777h1.050497v3.244187h-1.050497z"/><path d="m99.279625 68.377907h1.050497v3.244187h-1.050497z" transform="matrix(0 1 -1 0 169.805 -29.805)"/><path d="m39.66988 68.377907h1.050497v3.244187h-1.050497z" transform="matrix(0 1 -1 0 110.195 29.805)"/><path d="m90.54998 47.302681h1.050497v3.244187h-1.050497z" transform="matrix(.707 .707 -.707 .707 61.27 -50.07)"/><path d="m48.399525 89.453133h1.050497v3.244187h-1.050497z" transform="matrix(.707 .707 -.707 .707 78.73 -7.92)"/><path d="m90.54998 89.453133h1.050497v3.244187h-1.050497z" transform="matrix(-.707 .707 -.707 -.707 219.875 91.075)"/><path d="m48.399525 47.302681h1.050497v3.244187h-1.050497z" transform="matrix(-.707 .707 -.707 -.707 118.115 48.925)"/><path d="m58.06892 40.841797h1.050497v3.244187h-1.050497z" transform="matrix(.924 -.383 .383 .924 -11.79 25.655)"/><path d="m80.880585 95.914017h1.050497v3.244187h-1.050497z" transform="matrix(.924 -.383 .383 .924 -31.129 38.577)"/><path d="m97.010864 56.972076h1.050497v3.244187h-1.050497z" transform="matrix(.383 .924 -.924 .383 114.345 -53.94)"/><path d="m41.938641 79.783737h1.050497v3.244187h-1.050497z" transform="matrix(.383 .924 -.924 .383 101.423 11.022)"/><path d="m80.880585 40.841797h1.050497v3.244187h-1.050497z" transform="matrix(.924 .383 -.383 .924 22.447 -27.92)"/><path d="m58.06892 95.914017h1.050497v3.244187h-1.050497z" transform="matrix(.924 .383 -.383 .924 41.786 -14.999)"/><path d="m97.010864 79.783737h1.050497v3.244187h-1.050497z" transform="matrix(-.383 .924 -.924 -.383 210.071 22.447)"/><path d="m41.938641 56.972076h1.050497v3.244187h-1.050497z" transform="matrix(-.383 .924 -.924 -.383 112.848 41.786)"/><path d="m71.6661606 55.0018997c-.9374847-1.4807434-1.2369385-5.994709-1.3325119-8.6390572l-.0447388-1.9875755h-.2889099-.2889099l-.0447388 1.9875755c-.0955734 2.6443481-.3950272 7.1583138-1.3325119 8.6390572-1.3556671 2.1412697-.7602921 2.7004433.7614288 3.4213715l.1824951.0989227v16.4463196h1.4444733v-16.4463196l.1824951-.0989227c1.5217209-.7209282 2.117096-1.2801018.7614289-3.4213715z"/><path d="m65.836586 68.9962769h15.0885544l.019249-.0352097c.3454895-.7305756.717926-1.4149399 1.3934937-1.6107941.5924988-.1716385 1.3406754.0583191 2.4260941.7454376 1.0463562.6623611 4.144165 1.1321716 8.4984818 1.2889633l2.259407.0511627v1.1288757l-2.2632599.0506134c-4.4159317.1600876-7.4345169.6177979-8.4946289 1.2889633-1.0854187.6871185-1.8335953.9170761-2.4260941.7454376-.6755676-.1958542-1.0480042-.8802185-1.4006424-1.6245499l-.0115509-.0209045h-15.0891038z"/></g><path d="m60.175571 65.620483h.594307v27.813585h-.594307z" fill="#e56353" transform="matrix(.707 .707 -.707 .707 73.946 -19.468)"/><path d="m70 67.3482819c-1.4663162 0-2.6550217 1.1887054-2.6550217 2.6550903 0 1.4663162 1.1887054 2.655014 2.6550217 2.655014s2.6550217-1.1886978 2.6550217-2.655014c0-1.4663849-1.1887055-2.6550903-2.6550217-2.6550903z" fill="#27a2db"/><path d="m70 68.4489365c-.8584518 0-1.5543747.6959229-1.5543747 1.5544205 0 .8584518.6959229 1.5543747 1.5543747 1.5543747s1.5543747-.6959229 1.5543747-1.5543747c0-.8584977-.6959229-1.5544205-1.5543747-1.5544205z" fill="#ebf0f3"/></svg>