<svg enable-background="new 0 0 140 140" height="512" viewBox="0 0 140 140" width="512" xmlns="http://www.w3.org/2000/svg"><circle cx="70" cy="70" fill="#e05b49" r="64"/><path d="m97.1778488 40.7349892c-.9899902-1.1500244-2.0799561-1.8099976-3.2299805-1.8099976h-47.8900108c-3.9699707 0-7.25 7.6300049-7.8899536 17.6499634h-.0100098v.1400146c-.0700073 1.1099854-.1100464 2.2399902-.1100464 3.3900146 0 .2999878.0100098.5999756.0200195.8900146h-.0100098c0 .1900024.0100098.3699951.0200195.5599976.0100098.3999634.0200195.789978.039978 1.1900024.0100098.2600098.0200195.5199585.0400391.7799683v40.8599815l29.5573082 29.557312c.7597658.0267335 1.5184938.0577394 2.2847902.0577394 32.9281006 0 60.0359573-24.8710938 63.5925369-56.8503418z" opacity=".1"/><path d="m93.9457245 38.9208565h-47.891449c-4.4225502 0-8.0077324 9.4859314-8.0077324 21.1874237s3.5851822 21.1874123 8.0077324 21.1874123h47.891449z" fill="#e1e6e9"/><path d="m38.0550957 60.9995308c.1766968 11.2876778 3.6896133 20.2961693 7.9991913 20.2961693h47.8914452v-20.2961693z" fill="#d5d6db"/><ellipse cx="93.946" cy="60.108" fill="#ebf0f3" rx="8.008" ry="21.187"/><ellipse cx="93.946" cy="60.108" fill="#d5d6db" rx="3.179" ry="8.411"/><path d="m85.9494781 56.5738564v48.0512428l-.5742034.5413055-2.000763-1.8871155-2.0007629 1.8871155-2.0037613-1.8871155-2.000763 1.8871155-2.003746-1.8871155-2.0007629 1.8871155-2.000763-1.8871155-2.0037613 1.8871155-2.0007629-1.8871155-2.0037613 1.8871155-2.0007629-1.8871155-2.0007668 1.8871155-2.0037575-1.8871155-2.0007667 1.8871155-2.0037384-1.8871155-2.0007858 1.8871155-2.0007439-1.8871155-2.0037422 1.8871155-2.000782-1.8871155-2.0007859 1.8871155-2.0037384-1.8871155-2.0007476 1.8871155-2.0037766-1.8871155-1.1723595 1.1065522v-47.811985z" fill="#e1e6e9"/><g fill="#d5d6db"><path d="m39.264404 64.716812h3.415816v.798435h-3.415816z"/><path d="m43.852406 64.716812h3.415816v.798435h-3.415816z"/><path d="m48.440407 64.716812h3.415816v.798435h-3.415816z"/><path d="m53.028408 64.716812h3.415816v.798435h-3.415816z"/><path d="m57.616406 64.716812h3.415816v.798435h-3.415816z"/><path d="m62.204407 64.716812h3.415816v.798435h-3.415816z"/><path d="m66.792412 64.716812h3.415816v.798435h-3.415816z"/><path d="m71.380409 64.716812h3.415816v.798435h-3.415816z"/><path d="m75.968414 64.716812h3.415816v.798435h-3.415816z"/><path d="m80.556412 64.716812h3.415816v.798435h-3.415816z"/></g></svg>