<svg enable-background="new 0 0 140 140" height="512" viewBox="0 0 140 140" width="512" xmlns="http://www.w3.org/2000/svg"><circle cx="70" cy="70" fill="#efc84a" r="64"/><path d="m32.1500397 87.7450027c0 1.3299561.6099854 2.5 1.539978 3.3099976l42.6314697 42.6314621c27.0948486-2.6571655 49.2272949-22.2081223 55.7304688-47.9813766l-12.7419434-12.7401123h-24.4299927l-21.0599975-21.0199585c-.0100098 0-.0100098-.0100098-.0200195-.0200195-2.2699585-2.4899902-5.539978-4.0499878-9.1799927-4.0499878h-31.2399903c0 1.4199829.2399902 2.789978.6900024 4.0499878.539978 1.6099854 1.4199829 3.0599976 2.539978 4.289978.1799927.2000122.3800049.3900146.5700073.5800171l4.1199951 4.1199951-3.2799683 1.4199829 2.0799561 21.0200195h-3.5599976c-2.4199827 0-4.3899534 1.960022-4.3899534 4.3900146z" opacity=".1"/><path d="m42.7699013 60.2794418-4.7471085 2.053196 2.1132889 21.4013481h2.8820343l1.6902733-21.8971939z" fill="#27a2db"/><path d="m45.464386 60.2794418h-2.5839806l1.7392807 23.4545441h2.8820801l2.1132431-21.4013481z" fill="#ebf0f3"/><path d="m51.7326355 60.2794418-4.7471046 2.053196 2.113285 21.4013481h2.8820381l1.7367287-22.4989891z" fill="#27a2db"/><path d="m54.427124 60.2794418h-2.5839805l1.7392807 23.4545441h2.8820762l2.1132469-21.4013481z" fill="#ebf0f3"/><path d="m60.6953735 60.2794418-4.7471046 2.053196 2.1132851 21.4013481h2.8820381l1.8104858-21.5204697z" fill="#27a2db"/><path d="m63.3898621 60.2794418h-2.5839844l1.7392845 23.4545441h2.8820763l2.1132431-21.4013481z" fill="#ebf0f3"/><path d="m69.6581116 60.2794418-4.7471085 2.053196 2.1132889 21.4013481h2.8820343l1.6907577-21.9034004z" fill="#27a2db"/><path d="m72.3526001 60.2794418h-2.5839844l1.7392807 23.4545441h2.8820801l2.1132431-21.4013481z" fill="#ebf0f3"/><path d="m119.3117676 72.961731h-30.9275284c-1.3314438 0-2.590889.6042328-3.4239578 1.6438446l-7.0120392 8.7471695h-41.4065476c-2.4233398 0-4.3881531 1.9643784-4.3881531 4.3881454 0 2.4237747 1.9648132 4.3881531 4.3881531 4.3881531h43.5131989c1.3314438 0 2.5908966-.6042252 3.4239578-1.6438446l7.0120468-8.7471619h28.8208694v-8.7763061z" fill="#e56353"/><path d="m77.0327454 60.2806053h-31.2348938c-3.6421318 0-6.9157295-1.5709381-9.1887627-4.0634308-1.1146088-1.228653-1.9922409-2.6855469-2.5363655-4.291626-.4476013-1.2637901-.6845779-2.6328926-.6845779-4.0546494h31.2348938c3.6334 0 6.9069443 1.5622063 9.1800308 4.0546494 1.1145554 1.2287025 1.9921875 2.6855469 2.5450974 4.291626.4476012 1.2725754.6845779 2.6416741.6845779 4.0634308z" fill="#44c4a1"/><path d="m77.0292511 60.2802124h-31.23489c-3.642189 0-6.9157333-1.5709953-9.1887665-4.0634346-1.1146088-1.2287025-1.9922371-2.6855469-2.5363655-4.291626-.4476013-1.2637901-.6845779-2.6328926-.6845779-4.0546494h1.3691025c.0175705.0526581.035141.1053123.0526543.1579666.5441284 1.6060791 1.4217567 3.0629234 2.5363655 4.291626 2.2730865 2.4924965 5.5466309 4.0634346 9.1888199 4.0634346h29.8657379c.4125137 1.2199212.6319198 2.5363656.6319198 3.8966828z" fill="#3ea69b"/></svg>