<svg enable-background="new 0 0 140 140" height="512" viewBox="0 0 140 140" width="512" xmlns="http://www.w3.org/2000/svg"><circle cx="70" cy="70" fill="#e05b49" r="64"/><path d="m36.1307526 103.4749756c.0100098.0100098.0100098.0200195.0100098.0300293.0400391.2399902.0599365.3699951.0599365.3699951l30.00354 30.00354c1.2568359.0735474 2.5205078.12146 3.7957764.12146 35.0617676 0 63.522583-28.1984863 63.9786377-63.1520386l-34.0478516-34.0429649-.0700684.039978c-.1699219-.1400146-.3599854-.2600098-.5600586-.3599854-.0100098-.0100098-.0200195-.0100098-.0300293-.0200195-.0998535-.0499878-.2199707-.0899658-.329834-.1300049-.0400391-.0199585-.0900879-.039978-.1401367-.0599976-.0899658-.0199585-.1899414-.039978-.2900391-.0599976-.0599365-.0199585-.1298828-.039978-.1999512-.0499878-.0899658-.0100098-.1899414-.0200195-.2800293-.0200195-.0799561-.0100098-.1599121-.0199585-.2299805-.0199585h-55.5999754c-.0799561 0-.1500244.0099487-.2299805.0199585-.0899658 0-.1900635.0100098-.2799072.0200195-.0700684.0100098-.1401367.0300293-.210083.0499878-.0899658.0200195-.1900635.0400391-.289917.0599976-.0400391.0200195-.0900879.0400391-.130127.0599976-.119873.0400391-.2299805.0800171-.3299561.1300049-.0100098.0100098-.0200195.0100098-.039917.0200195-.5800781.289978-1.0800781.75-1.4101562 1.3399658-.0898438.1400146-.1599121.3000488-.2199707.460022-.2199707.5499878-.4199219 1.1099854-.6099854 1.6799927-.039917.1099854-.0799561.2200317-.1199951.3300171-.1899414.5700073-.3800049 1.1400146-.5600586 1.7199707-.0100098.0300293-.0198975.0700073-.0299072.1000366-.1700439.5700073-.3399658 1.1499634-.5 1.7299805-.0200195.0800171-.0400391.1600342-.0599365.2299805-.170166.6100464-.3300781 1.2300415-.4801025 1.8500366 0 .0200195-.0098877.039978-.0098877.0599976-2.1101074 8.7199707-2.8000488 18.4899864-2.8000488 27.4799767 0 10.0599976.8599854 19.1400146 1.5300293 24.710022v.0200195c.3199462 2.6599731.5898437 4.5099487.7099609 5.2799682z" opacity=".1"/><path d="m94.699852 38.1641273c-.5032425-1.3016434-2.2828903-.5254898-3.6784134-.5254898l-20.7567444.5254898-27.5004959.4379044c-1.3955193 0-.7229004.0120773-1.2261353 1.3137169-.9342079 2.4162292-4.1940155 3.3536682-4.840538 6.0161095-4.5101433 18.5732536-2.5355873 41.8797722-1.2664223 52.3722038.4230537 3.4974823 2.8664551 4.5825729 2.8664551 4.5825729l20.2312546-.8758163c.111618-1.9768753 4.8777885-1.9589844 5.0112381-3.6837082 2.0508919-26.5057297 6.4599342-24.2442093 6.4599342-24.2442093s4.4406433-1.6090546 6.4693146 24.4257355c.1303024 1.6722336 2.0070267 2.9953995 2.1156082 4.9034805l19.267868-.8758087s6.2927399-.7324753 6.7154617-4.2264481c1.2681885-10.4819412 3.2422867-33.767067-1.2558594-52.3370323-.6484603-2.6770973-7.6735304-5.3800812-8.6125258-7.8087006z" fill="#4d5c7d"/><g fill="#d5d6db"><path d="m100.941246 38.2865334c-.5029755-1.3011627-1.7504883-2.1617775-3.1454849-2.1617775h-55.5915527c-1.3950005 0-2.6425133.8606148-3.1454887 2.1617775-.9398842 2.4315834-1.7230949 5.0142059-2.3720398 7.6946106h66.6266479c-.648983-2.6804047-1.4321938-5.2630501-2.3720818-7.6946106z"/><path d="m35.4159737 98.1766663c.4298401 3.572403.7828598 5.6985703.7828598 5.6985703h26.972683c.1148834-2.0346909.2423401-3.9307404.380291-5.6985703z"/><path d="m76.4427872 98.1766663c.1404648 1.7679443.2699127 3.6627274.3857498 5.6985703h26.9726791s.3529816-2.1261673.7828674-5.6985703z"/></g><path d="m81.7780228 45.981144c-.1001892-.4102821 3.3787079 12.0411263 23.7917404 16.4052925 0 0-20.1314697-1.4167595-23.7917404-16.4052925z" fill="#474c5b"/><path d="m58.2219734 45.981144c.100193-.4102821-3.3787079 12.0411263-23.7917328 16.4052925 0 0 20.1314659-1.4167595 23.7917328-16.4052925z" fill="#474c5b"/><path d="m60.7917519 39.5972595c-.9688454 0-1.7543907.7853889-1.7543907 1.7542381 0 .9688454.7855453 1.7542343 1.7543907 1.7542343.9688492 0 1.7540855-.7853889 1.7540855-1.7542343 0-.9688491-.7852364-1.7542381-1.7540855-1.7542381z" fill="#4d5c7d"/><path d="m79.2085571 39.5972595c-.9688492 0-1.7543945.7853889-1.7543945 1.7542381 0 .9688454.7855453 1.7542343 1.7543945 1.7542343.9688416 0 1.7540817-.7853889 1.7540817-1.7542343.0000001-.9688491-.7852401-1.7542381-1.7540817-1.7542381z" fill="#4d5c7d"/><g fill="#44c4a1"><path d="m64.8530426 52.7909851c-.015625 0-.03125-.0004883-.046875-.0019531-.2753906-.0253906-.4775391-.269043-.4521484-.5439453.1064453-1.1445312.2158203-2.328125.53125-3.4755859.4863281-1.7695312 1.4423828-3.3779297 2.7636719-4.6518555 1.3310547-1.284668 2.953125-2.1523438 4.3652344-2.831543.8583984-.4125977 1.59375-.7285156 2.390625-.9277344 1.6582031-.4160156 3.4287109-.2524414 4.984375.4599609.2509766.1147461.3613281.4116211.2470703.6625977-.1171875.2514648-.4140625.3608398-.6630859.246582-1.3505859-.6176758-2.8857422-.7578125-4.3261719-.3989258-.7148438.1787109-1.3964844.4726562-2.1992188.8588867-1.3398438.6445312-2.8759766 1.4633789-4.1044922 2.6499023-1.1923828 1.1494141-2.0546875 2.6005859-2.4931641 4.1972656-.2929688 1.0625-.3984375 2.2011719-.5 3.3022461-.024414.2592775-.2421875.4541017-.4970703.4541017z"/><path d="m72.8862457 54.0408707c-.1816406 0-.3564453-.0991211-.4453125-.2719727-.1259766-.2456055-.0283203-.546875.2167969-.6728516.5751953-.2949219 1.0078125-.965332 1.1308594-1.7490234.1035156-.6645508.0224609-1.3984375-.2636719-2.3798828-.2734375-.9404297-.59375-1.6508789-1.0087891-2.2358398-.9091797-1.2807617-2.4501953-2.0820312-4.0214844-2.090332-.1503906.0024414-.3193359.0053711-.4804688.0117188-.5253906.0195312-1.0703125.0415039-1.6132812-.1503906-.4990234-.1757812-.8837891-.4907227-1.2558594-.7949219l-.2675781-.2158203c-1.1044922-.8583984-2.4824219-1.3452148-3.8808594-1.3701172-.2763672-.0048828-.4960938-.2329102-.4912109-.5087891.0058594-.2758789.2324219-.496582.5087891-.4912109 1.6132812.0288086 3.203125.590332 4.4765625 1.5810547l.2871094.230957c.3203125.2612305.6220703.5078125.9550781.6254883.3652344.1289062.7919922.1113281 1.2421875.0947266.1757812-.0068359.3525391-.0180664.5253906-.0126953 1.8867188.0102539 3.7382812.9726562 4.8310547 2.5117188.4814453.6791992.8476562 1.484375 1.1542969 2.5351562.203125.7006836.4550781 1.7548828.2910156 2.8129883-.1738281 1.1113281-.7949219 2.0400391-1.6621094 2.4848633-.0732421.0375974-.1513671.0551756-.2285156.0551756z"/></g></svg>