<svg enable-background="new 0 0 140 140" height="512" viewBox="0 0 140 140" width="512" xmlns="http://www.w3.org/2000/svg"><circle cx="70" cy="70" fill="#efc84a" r="64"/><path d="m89.9657364 29.4749222c-.5499878-.5499268-1.5-.6599121-2.1400146-.0200195-.5800171.5900879-3.3699951 4.4400635-5.789978 11.5300293l-12.7200318-12.7199708h-2.1900024v2.8500977l-2.8499756-2.8500977h-2.2299843l-.1600342 3.4300537-3.4299927-3.4300537h-2.3599854l-.1300049 2.8300781-2.8300171-2.8300781h-1.8900146l-1.6799927 23.4899902 7.1300049 14.3400879-.6199951 12.9599609-1.2799683 26.6999512c-.0599976 1.6900635.6799927 3.2199707 1.8800049 4.2399902l23.2099037 23.2427902c29.5883789-4.5882568 52.4775925-29.4412766 54.0300217-59.9295578l-43.9399337-43.8532714z" opacity=".1"/><path d="m69.3115082 28.2612267h-2.1818542v19.8779068h-2.0149078l-.8370895-19.8779068h-2.2348938l-.9003029 19.8779068h-2.0231667l-.6666222-19.8779068h-2.3537674l-.9437027 19.8779068h-2.0231667v-19.8779068h-1.8872223l-1.6821251 23.4956245 7.1361198 14.3387222-.643074 13.4211578.8878403 25.8820572c-.105072 3.0075455.2091904 3.3378143 3.2186089 3.3378143 3.0232315 0 3.1057396.0404053 2.9801941-2.9801941l.7787933-26.3485413-.7392998-12.9328079 7.517128-14.5910683z" fill="#e6e9ef"/><path d="m87.8288879 29.4584179c-1.1866837 1.1927204-11.5010529 15.8410015-9.2561035 43.9706497l4.6872559 3.3688431v2.9712067l1.6973495 26.7025375c0 1.9820862-1.0282745 1.3112869.9536667 1.3112869s2.7417755 2.4589157 2.7417755.4768295l1.7844772-28.1330261v-49.57374c.0000001-1.3596973-1.6493759-2.0584221-2.6084213-1.0945873z" fill="#e6e9ef"/><g fill="#4d5c7d"><path d="m83.260025 79.1528473v28.9972458c0 1.9820862 1.6066971 3.5885696 3.5886383 3.5885696s3.5886383-1.6064835 3.5886383-3.5885696v-28.9972458z"/><path d="m56.0779495 79.0523987-1.2793312 26.7006454c-.105072 3.0075455 2.3045197 5.5026321 5.3139381 5.5026321 3.0232315 0 5.4381638-2.5172958 5.3126221-5.5378876l-1.5243187-26.66539h-7.8229103z"/></g></svg>