<svg enable-background="new 0 0 140 140" height="512" viewBox="0 0 140 140" width="512" xmlns="http://www.w3.org/2000/svg"><circle cx="70" cy="70" fill="#e05b49" r="64"/><path d="m105.1908035 38.0950394h-2.0500488v2.5499268h-63.7299805l-2.5500488-2.5499268h-2.0500488v59.6398926l36.2385254 36.2385178c34.8602295-.5627441 62.9508133-28.9791183 62.9508133-63.973381 0-1.0651855-.0288086-2.1236572-.0802002-3.1760254z" opacity=".1"/><path d="m34.812416 38.09103h2.044799v59.639957h-2.044799z" fill="#fcd462"/><path d="m103.142769 38.09103h2.044799v59.639957h-2.044799z" fill="#fcd462"/><g fill="#ebf0f3"><path d="m34.812416 40.64703h70.375153v1.022399h-70.375153z"/><path d="m34.812416 45.929424h70.375153v1.022399h-70.375153z"/><path d="m34.812416 51.211823h70.375153v1.022399h-70.375153z"/><path d="m34.812416 56.494217h70.375153v1.022399h-70.375153z"/><path d="m34.812416 61.776615h70.375153v1.022399h-70.375153z"/><path d="m41.692249 40.64703h1.253586v22.151985h-1.253586z"/><path d="m46.725151 40.64703h1.253586v22.151985h-1.253586z"/><path d="m51.758049 40.64703h1.253586v22.151985h-1.253586z"/><path d="m56.790951 40.64703h1.253586v22.151985h-1.253586z"/><path d="m61.823849 40.64703h1.253586v22.151985h-1.253586z"/><path d="m66.856751 40.64703h1.253586v22.151985h-1.253586z"/><path d="m71.889648 40.64703h1.253586v22.151985h-1.253586z"/><path d="m76.922546 40.64703h1.253586v22.151985h-1.253586z"/><path d="m81.955452 40.64703h1.253586v22.151985h-1.253586z"/><path d="m86.98835 40.64703h1.253586v22.151985h-1.253586z"/><path d="m92.021248 40.64703h1.253586v22.151985h-1.253586z"/><path d="m97.054146 40.64703h1.253586v22.151985h-1.253586z"/></g><circle cx="70" cy="78.695" fill="#fcd462" r="7.516"/><path d="m76.4484711 82.5544052c-.0866165.1496353-.1811218.2933655-.2795715.4351196 1.1065063-5.0541916-3.7271652-7.8638306-4.5009537-8.2773209-1.0395966 1.521965-1.4156418 3.2132797-1.4825974 3.5499573.4587708.3130722 3.5145264 2.5950165 3.0360718 7.2259064-.0689087.0315094-.1397858.0649872-.2086945.0945053.1988678-1.7365723-.1063309-3.1364746-.5906754-4.2252884-.3800049.4528656-1.7602158 1.8488159-4.2784424 1.8488159-1.3507004 0-3.0301895-.4016418-5.0601273-1.5672455-.0433083-.0984497-.0827026-.1988678-.1181297-.2992783 6.0977211 3.6247711 8.999897.2874756 9.3661385-.1811523-.8033295-1.6755447-2.0024185-2.5595856-2.2583618-2.7348022-.4804306.2736588-4.0146179 2.094902-7.5251846-.6969986.0078583-.0748215.0196838-.1516113.0315094-.2264328 1.2404022 1.0120239 2.4867172 1.4274597 3.5932693 1.5318222-.1673813-.8210449-.7777328-4.9341125 2.9749985-7.8047791.1260376-.01577.2520294-.0275726.3800125-.0334854-4.0598984 2.8903809-3.2900467 7.2180481-3.1502609 7.8540039 1.9138031.1181564 3.3747253-.6654892 3.6109848-.8013611.0886154-.4606934.9569092-4.4969711 4.085495-5.8693237.0669632.043335.1319275.086647.1949234.1319275-1.0769958.44104-1.8842468 1.2069473-2.4867172 2.0417633.8446732.4548112 5.4046555 3.1660081 4.6663132 8.0036469z" fill="#f7be56"/></svg>