<svg enable-background="new 0 0 140 140" height="512" viewBox="0 0 140 140" width="512" xmlns="http://www.w3.org/2000/svg"><circle cx="70" cy="70" fill="#334d5c" r="64"/><path d="m40.3371735 39.6483421c-.2400513.2399902-.4900513.4899902-.7300415.7299805-.2199707.2399902-.4500122.4699707-.6699829.710022-.2600098.2799683-.5300293.5699463-.7800293.8699951-.1899414.2099609-.3799438.4199829-.5599976.6399536-.2799683.3300171-.5499878.6600342-.8199463 1-.1500244.1900024-.3099976.3900146-.460022.5900269-.2800293.3599854-.5599976.7399902-.8200073 1.1099854-.1300049.1799927-.2600098.3599854-.3900146.5499878-.2799683.4000244-.5499878.8000488-.8099976 1.2200317-.1099854.1599731-.2199707.3300171-.3299561.5-.2700195.4400024-.5300293.8800049-.7800293 1.3200073-.0900269.1599731-.1900024.3099976-.2700195.4699707-.2600098.460022-.5100098.9299927-.75 1.4100342-.039978.0700073-.0799561.1399536-.1099854.2099609 0 0-.0100098 0-.0100098-.0100098l-.1799927.3900146c-.0899658.1900024-.1799927.3800049-.2700195.5700073-.0599976.1199951-.1299438.2399902-.1799927.3699951h.0100098c-.0599976.1300049-.1199951.2700195-.1799927.4000244-.0700073.1400146-.1300049.2799683-.1900024.4199829-.2299805.5100098-.4400024 1.039978-.6400146 1.5700073-.0499878.1300049-.1099854.25-.1499634.3800049-.210022.5499878-.4000244 1.0999756-.5800171 1.6599731-.039978.1100464-.0800171.2300415-.1199951.3500366-.1900024.5799561-.3499756 1.1599731-.5100098 1.7399902-.0299683.1099854-.0599976.210022-.0899658.3099976-.1600342.6199951-.3100586 1.2399902-.4500122 1.8599854-.0100098.0800171-.0300293.1600342-.0499878.2299805-.1400146.6800537-.2600098 1.3500366-.3700562 2.0400391-.0099487.0299683-.0099487.0599976-.0199585.0899658-.3400269 2.1700478-.5200195 4.3900185-.5200195 6.6500282 0 1.9699707.1400146 3.9099731.4000244 5.8099976 0-.0100098 0-.0100098-.0100098-.0100098.0100098.0900269.0299683.1799927.0499878.2700195.0599976.4299927.1300049.8499756.210022 1.2799683.0299683.2200317.0599976.4500122.1099854.6800537 0 0 0 .0099487.0100098.0099487 1.9199829 10.0200195 7.3699951 18.7700195 14.9899902 24.9500122l30.6473389 30.8773804c32.1940308-1.9693604 57.9465332-27.7293091 59.9031982-59.9268188l-32.4505615-32.4505652c-2.1699829-2.3800049-4.5799561-4.5200195-7.2299805-6.3599854-.0700073-.0499878-.1199951-.0900269-.1900024-.1300049-.210022-.1500244-.4199829-.289978-.6400146-.4299927-.1300049-.0900269-.25-.1799927-.3800049-.2600098-.0099487 0-.0099487 0-.0099487.0100098-6.6200562-4.2700176-14.5-6.7600079-22.9700317-6.7600079-7.6900024 0-14.9000244 2.0499878-21.1199951 5.630003-.0100098 0-.0200195 0-.0200195 0-.1300049.0800171-.2600098.1599731-.3899536.2399902-.3300171.1900024-.6500244.3900146-.9700317.5900269-.1400146.0899658-.2799683.1699829-.4199829.25.0100098.0100098.0100098.0100098.0199585.0100098-2.289978 1.4699707-4.4299927 3.1499634-6.3899536 5.0199585.0100098-.0100098.0100098-.0199585.0100098-.0299683-.1300051.1199952-.2500003.2600098-.3800051.3800049z" opacity=".1"/><ellipse cx="70" cy="70" fill="#ebf0f3" rx="42.445" ry="42.445" transform="matrix(.973 -.23 .23 .973 -14.21 17.955)"/><g fill="#d5d6db"><path d="m109.8755798 84.5696335c-5.9468689 16.2622528-21.5514755 27.8741074-39.87117 27.8741074-23.449234 0-42.4453201-19.0054932-42.4453201-42.4453201 0-12.0815926 5.0543613-22.988842 13.1620045-30.7301369-1.6534767 4.5376625-2.5553932 9.4417343-2.5553932 14.5524635 0 23.449173 19.0055504 42.4453201 42.4453239 42.4453201 11.3488292 0 21.6548595-4.4437408 29.2645549-11.696434z" opacity=".25"/><path d="m107.9338837 63.6102982c1.5147247.6960297 3.0685806 1.4803162 4.2989578 2.1715012-.0538483-.5980148-.127449-1.191124-.2156525-1.7793884-1.0636673-.5637245-2.3332977-1.1862755-3.8136749-1.8529243-.078392-8.4459305-2.2547989-14.6811104-6.4851837-18.5192604-3.6126251-3.2842979-7.720459-3.8970299-9.7743225-3.9754791.5685806-1.039135 1.4362183-2.7107544 2.2500076-4.5293312-.4019852-.2793808-.8088837-.5538559-1.2206802-.8185768-.8480148 1.9313126-1.7940445 3.7303238-2.3626251 4.779335-2.5440445-3.0146713-12.0783005-12.0047035-29.7152596-3.5342369-1.176403-.2157135-6.7400856-1.2401924-12.0390472-2.3627434-.6029243.3480148-1.1960297.7058449-1.7793274 1.0832977 5.249897 1.151989 11.210659 2.259819 13.1419716 2.6176491-.2696266 2.7891426-1.8185768 14.3085632-9.3528252 23.1417618-1.7549133-.3431091-9.4115906-2.161747-18.8183899-9.0586662-.2205601.4362144-.4313087.8774529-.6322422 1.3234825 9.0292263 6.5782852 16.377142 8.5684776 18.7937374 9.0782928-1.1322441 3.3969688-6.0144997 17.1957817-12.4360123 22.9995918-1.3234825-1.1567764-5.2891502-4.6126328-9.8233891-8.5782928.0980148.75.220562 1.4950943.3627338 2.2303772 4.1616936 3.632309 7.6273575 6.6616974 8.671402 7.5684738-.3038559 1.5539246-.9998856 6.8724518 2.3185768 11.9900436 3.0441704 4.6959839 8.5587883 7.8136292 16.3772621 9.2743835-.4118004.691124-.9118004 1.5489502-1.4558449 2.5538635.4460297.181366.9018707.3529205 1.3578339.5196228.5734787-1.0490646 1.0882034-1.9362793 1.4998817-2.6127396 5.3675385 2.7646713 10.0979233 3.7058487 14.0488663 3.7058487 8.2645111 0 13.1076279-4.1029282 13.1811066-4.1665955l.0636673-.0637894c.0196304-.0195618.0343475-.0391922.053978-.0587616.6274567.1323624 2.0538559.5293884 3.5882111 1.6960373.4852829-.2205658.9656525-.4607468 1.441124-.7058411-1.4852829-1.2843552-2.9656601-1.9118118-3.9705734-2.2107544 5.3872833-6.3283463 9.7939529-13.4998016 13.2448959-20.1320648 1.3921738.6715546 4.9901962 2.4754791 8.5586624 4.901886.2353973-.4313736.4608688-.8627396.6765213-1.2990112-3.5783997-2.4166565-7.1273575-4.1959839-8.5782928-4.8871613 4.9067916-9.6616515 7.730278-17.9654083 8.5439453-20.4898299zm-51.5186997 41.9257431c-7.6617012-1.3480148-13.0047035-4.2793274-15.8919792-8.7154999-3.1371574-4.823494-2.3185806-9.9999084-2.0979004-11.0979233 7.4899673-6.4361115 12.7840233-22.7054863 13.3674393-24.5485992 8.2890396-9.55867 9.6860046-21.9162903 9.8870583-24.4064255 18.2447891-8.6714592 26.9161835 1.9116859 28.2494812 3.7597046-5.2155457 21.1418152-16.4898759 43.0140075-33.5140992 65.0087433zm26.9161911.2647247c-.6127396.5048447-10.249794 8.0733795-25.4848785.2891922.1323586-.2107468.2107468-.3283844.2156525-.3332901 8.4018936-10.931221 15.3968887-21.8330002 20.9457321-32.6367645 5.5440521-10.8037682 9.6469879-21.5045547 12.2645111-32.033783 1.4510574-.0098152 5.8136902.2695656 9.4950027 3.6274033 3.9656677 3.6126823 5.9851761 9.6027679 5.9999008 17.7987595-.5392532 1.7547912-8.2155609 26.1465606-23.4359207 43.2884826z"/></g></svg>