<svg enable-background="new 0 0 140 140" height="512" viewBox="0 0 140 140" width="512" xmlns="http://www.w3.org/2000/svg"><circle cx="70" cy="70" fill="#efc84a" r="64"/><path d="m32.0714073 58.6283226c.3099976 9.7299843 4.2800293 18.5300331 10.5800171 25.0800819l-.0700073.0098877 47.1583214 47.1647949c21.5651245-6.9875488 38.1133423-25.1021729 42.8665848-47.5799561l-24.6748734-24.6748085h-75.8600426z" opacity=".1"/><path d="m107.9299927 58.6304283c-.2600098 8.2199745-3.1300049 15.7800331-7.8200073 21.8699989-6.9299927 9.0400391-17.8300171 14.8599854-30.1099854 14.8599854-20.5499878 0-37.2800293-16.3299561-37.9299927-36.7299843z" fill="#3ea69b"/><path d="m105.6699829 58.6304283c-.2799683 8.489994-3.539978 16.2199745-8.75 22.2099648-6.539978 7.5100097-16.1799927 12.2600097-26.9199829 12.2600097-19.2999878 0-35.0100098-15.3199463-35.6599731-34.4699745z" fill="#d5d6db"/><path d="m103.1199951 58.6304283c-.3200073 8.7099648-3.9899902 16.5600624-9.7700195 22.2900429-5.9899902 5.9499512-14.2399902 9.6298828-23.3499756 9.6298828-17.8900146 0-32.460022-14.1799316-33.1099854-31.9199257z" fill="#e56353"/><g fill="#4d5c7d"><path d="m69.3299026 67.0592651c-.4554443 0-.824646 1.370697-.824646 1.8261414s.3692245.8246231.8246689.8246231c.4554367 0 .8246231-.3691788.8246231-.8246231s-.3692016-1.8261414-.824646-1.8261414z"/><path d="m62.5948715 67.0592651c-.4554443 0-.824646 1.370697-.824646 1.8261414s.3692207.8246231.8246651.8246231c.4554405 0 .8246269-.3691788.8246269-.8246231s-.3692055-1.8261414-.824646-1.8261414z"/><path d="m83.1700439 67.0592651c-.4554367 0-.824646 1.370697-.824646 1.8261414s.3692245.8246231.8246689.8246231.8246231-.3691788.8246231-.8246231-.3692016-1.8261414-.824646-1.8261414z"/><path d="m76.5865402 67.0592651c-.4554443 0-.8246536 1.370697-.8246536 1.8261414s.3692245.8246231.8246689.8246231.8246307-.3691788.8246307-.8246231-.3692093-1.8261414-.824646-1.8261414z"/><path d="m80.009964 72.1251831c-.4554443 0-.824646 1.370697-.824646 1.8261414s.3692169.8246307.8246613.8246307.8246307-.3691864.8246307-.8246307-.3692093-1.8261414-.824646-1.8261414z"/><path d="m73.2508926 72.1251831c-.4554443 0-.824646 1.370697-.824646 1.8261414s.3692245.8246307.8246613.8246307c.4554443 0 .8246307-.3691864.8246307-.8246307s-.3692016-1.8261414-.824646-1.8261414z"/><path d="m66.6673813 72.1251831c-.4554443 0-.824646 1.370697-.824646 1.8261414s.3692245.8246307.8246689.8246307c.4554367 0 .8246231-.3691864.8246231-.8246307s-.3692017-1.8261414-.824646-1.8261414z"/><path d="m60.0838737 72.1251831c-.4554443 0-.824646 1.370697-.824646 1.8261414s.3692207.8246307.8246651.8246307c.4554405 0 .8246269-.3691864.8246269-.8246307s-.3692054-1.8261414-.824646-1.8261414z"/><path d="m76.5865402 77.1911011c-.4554443 0-.8246536 1.370697-.8246536 1.8261414s.3692245.8246307.8246689.8246307.8246307-.3691864.8246307-.8246307-.3692093-1.8261414-.824646-1.8261414z"/><path d="m70.0030289 77.1911011c-.4554443 0-.824646 1.370697-.824646 1.8261414s.3692169.8246307.8246613.8246307.8246307-.3691864.8246307-.8246307-.3692017-1.8261414-.824646-1.8261414z"/><path d="m63.4195175 77.1911011c-.4554443 0-.824646 1.370697-.824646 1.8261414s.3692207.8246307.8246651.8246307c.4554405 0 .8246269-.3691864.8246269-.8246307s-.3692016-1.8261414-.824646-1.8261414z"/><path d="m56.8360062 67.0592651c-.4554405 0-.824646 1.370697-.824646 1.8261414s.3692245.8246231.8246651.8246231c.4554443 0 .8246307-.3691788.8246307-.8246231s-.3692055-1.8261414-.8246498-1.8261414z"/></g><path d="m107.9299927 58.6304283c-.2600098 8.2199745-3.1300049 15.7800331-7.8200073 21.8699989-1.0299683.1700439-2.0999756.2800293-3.1900024.3399658-1.1599731.0800781-2.3499756.1101074-3.5700073.0800781-5.0599977-.1101073-10.5999757-1.0900878-16.1900026-3.0200194-.329956-.1000977-.6599731-.2199707-.9899902-.3400879-3.1199951-1.1398926-6.0499878-2.4899902-8.7299805-4.0100098-.4500122-.25-.8900146-.5098877-1.3200073-.7799072-6.6599731-4.0100098-11.6599731-9.0400429-14.210022-14.1400185z" fill="#d5d6db" opacity=".15"/></svg>