<svg enable-background="new 0 0 140 140" height="512" viewBox="0 0 140 140" width="512" xmlns="http://www.w3.org/2000/svg"><circle cx="70" cy="70" fill="#45b39c" r="64"/><path d="m42.0671539 98.5650101 35.0337524 35.0337448c29.6729736-3.2769775 53.225708-26.8320236 56.4989014-56.5060349l-35.2626342-35.2677002c-1.5500488-1.5700073-3.5700073-2.6900024-5.8400269-3.1199951-15-2.8400269-30-2.8400269-45 0-4.4699707.8499756-7.9500122 4.3199463-8.789978 8.789978-2.8400269 15-2.8400269 30.0100098 0 45.0100098.4499512 2.3900147 1.6599731 4.4899902 3.3599853 6.0599976z" opacity=".1"/><path d="m101.2954559 47.4981499c-.8460236-4.4686432-4.3249359-7.9474792-8.7935791-8.7935829-15.0012741-2.8403015-30.0024796-2.8403015-45.0037537 0-4.4686432.8461037-7.9475555 4.3249397-8.7935829 8.7935829-2.8403015 15.0012779-2.8403015 30.0024757 0 45.0036812.8460274 4.4686432 4.3249397 7.9475555 8.7935829 8.7936554 15.0013504 2.8402328 30.0025482 2.8402328 45.0037537 0 4.4686432-.8460999 7.9475555-4.3250122 8.7935791-8.7936554 2.8403092-15.0012055 2.8403092-30.0024033 0-45.0036812z" fill="#ebf0f3"/><path d="m69.9994888 99.8220673c-7.2403946 0-14.5851936-.6956482-21.8314514-2.0675888-3.0254326-.5730667-5.34935-2.8975677-5.9229965-5.9230042-2.7427177-14.4860611-2.7427177-29.1768341 0-43.6628952.5724716-3.0254326 2.8975639-5.3499374 5.9241676-5.9230003 7.2450867-1.3719444 14.5898857-2.0675926 21.8302803-2.0675926 7.2415619 0 14.5863647.6956482 21.8326187 2.0675926 3.0254364.5730629 5.3505249 2.8975677 5.9229965 5.9230003 2.7427216 14.4860611 2.7427216 29.1768341 0 43.6628952-.5736465 3.0254364-2.8975601 5.3499374-5.9241638 5.9230042-7.2450866 1.3719406-14.5898895 2.0675888-21.8314514 2.0675888z" fill="#e1e6e9"/><path d="m84.8046799 58.524971h-29.6099854c.1400146-8.0599976 6.710022-14.5499878 14.8099976-14.5499878.460022 0 .9099731.0200195 1.3499756.0599976.2900391.0300293.5900269.0599976.8699951.1100464.5.0699463.9900513.1699829 1.460022.289978.5999756.1500244 1.1799927.3399658 1.7399902.5700073 5.4200439 2.1300049 9.2700195 7.3699951 9.3800049 13.5199585z" fill="#4d5c7d"/><g fill="#ebf0f3"><path d="m69.067246 45.636467h1.168382v2.567634h-1.168382z"/><path d="m80.419739 54.230896h1.168382v2.567634h-1.168382z" transform="matrix(0 1 -1 0 136.519 -25.489)"/><path d="m74.408363 46.920281h1.168382v2.567634h-1.168382z" transform="matrix(.923 .384 -.384 .923 24.269 -25.108)"/><path d="m78.225365 49.768169h1.168382v2.567634h-1.168382z" transform="matrix(.641 .768 -.768 .641 67.5 -42.165)"/><path d="m58.411881 54.230896h1.168382v2.567634h-1.168382z" transform="matrix(0 1 -1 0 114.511 -3.481)"/><path d="m64.525772 46.920281h1.168382v2.567634h-1.168382z" transform="matrix(-.923 .384 -.384 -.923 143.741 67.7)"/><path d="m60.708775 49.768169h1.168382v2.567634h-1.168382z" transform="matrix(-.641 .768 -.768 -.641 139.763 36.712)"/></g><path d="m70.1315308 50.2053795c-.0254364-.1478119-.2376251-.1478119-.2630615 0l-1.3117523 7.617691h2.8865662z" fill="#d15241"/><path d="m72.1071472 58.5291328c.0001526-.0096054.002861-.0184746.002861-.0281525 0-1.1653328-.9447098-2.1099739-2.1100464-2.1099739-1.165329 0-2.1099701.9446411-2.1099701 2.1099739 0 .0096779.0027084.0185471.002861.0281525z" fill="#e56353"/><g fill="#e1e6e9" opacity=".25"><path d="m72.2246628 44.1450272-10.7399903 14.3799438h-.9500122l10.8200073-14.4899902c.2900391.0300293.5900269.0599975.8699952.1100464z"/><path d="m75.424675 45.0050125-10.0999756 13.5199585h-2.1699829l10.5299683-14.0899658c.5999755.1500244 1.1799926.3399658 1.7399902.5700073z"/></g><g fill="#ebf0f3"><path d="m64.1089783 66.162178h-10.8304444c-1.8317871 0-3.3167725 1.4849854-3.3167725 3.3168335v20.8485107c0 1.8318481 1.4849854 3.3168335 3.3167725 3.3168335h10.8304443c1.8318481 0 3.3168335-1.4849854 3.3168335-3.3168335v-20.8485107c.0000001-1.8318481-1.4849853-3.3168335-3.3168334-3.3168335z"/><path d="m86.721405 66.162178h-10.8303833c-1.8318481 0-3.3168335 1.4849854-3.3168335 3.3168335v20.8485107c0 1.8318481 1.4849854 3.3168335 3.3168335 3.3168335h10.8303833c1.8318481 0 3.3168335-1.4849854 3.3168335-3.3168335v-20.8485107c0-1.8318481-1.4849853-3.3168335-3.3168335-3.3168335z"/></g></svg>