<svg enable-background="new 0 0 140 140" height="512" viewBox="0 0 140 140" width="512" xmlns="http://www.w3.org/2000/svg"><circle cx="70" cy="70" fill="#ea8953" r="64"/><path d="m111.7899933 56.8649979c-.8800049-.9199829-2.1300049-1.5100098-3.5099487-1.5100098h-8.0200195l-11.75-11.75c-1.6600342-1.0700073-3.7600098-1.210022-5.5599976-.3699951l-18.3800049 12.1199951-5.7399902 3.7399902h-25.7800293v33.4000244l41.3330078 41.3388596c30.4677124-2.0630493 55.0723877-25.436882 59.0391846-55.3435593l-21.6221924-21.6253052h-.0100098z" opacity=".1"/><path d="m113.1356964 69.9281998c0-2.6837082-2.17556-4.8592682-4.8592682-4.8592682 2.6837082 0 4.8592682-2.1755905 4.8592682-4.8592987 0-2.6837044-2.17556-4.8592682-4.8592682-4.8592682h-12.9365387c1.9555435 0 2.7055359-2.5493431 1.0615005-3.608284l-7.8903122-8.1344109c-1.6647415-1.0722809-3.7634048-1.2147942-5.5578232-.377388l-18.3853682 12.1200829-5.7394791 3.747818h-25.7789726v33.3974915h23.6570168c6.6831322 1.3723221 30.4571304 1.7289352 30.4571304 1.7289352h5.6541901 15.4586563c2.6837082 0 4.8592682-2.1755676 4.8592682-4.8592758s-2.17556-4.8592911-4.8592682-4.8592911c2.6837082 0 4.8592682-2.1755676 4.8592682-4.8592758s-2.17556-4.8592911-4.8592682-4.8592911c2.6837081 0 4.8592681-2.1755676 4.8592681-4.8592758z" fill="#fcd462"/><g fill="#f7be56"><path d="m89.0060959 55.142437-1.7740784-1.640274c-1.1597443-1.0723076-1.7708282-1.1318512-3.0209122-.2944412l-1.9469223 1.9347152z"/><path d="m102.2456207 64.6587601c-1.8798218-.0905762-3.7603149-.1390381-5.6409912-.178772v.7926025c1.8765869.0222778 3.7532959.0358276 5.6307373.0073242 2.0129395-.0255737 4.0263672-.0788574 6.0410767-.2109985-2.0092774-.1985473-4.0198364-.3182373-6.0308228-.4101562z"/><path d="m102.2456207 74.1197586c-1.8798218-.0906372-3.7603149-.1390381-5.6409912-.178772v.7926025c1.8765869.0222778 3.7532959.0358276 5.6307373.0073242 2.0129395-.0255737 4.0263672-.0788574 6.0410767-.2109985-2.0092774-.1985473-4.0198364-.3182372-6.0308228-.4101562z"/><path d="m102.2456207 84.0499954c-1.8798218-.0905762-3.7603149-.1389771-5.6409912-.178772v.7926636c1.8765869.0222168 3.7532959.0358276 5.6307373.0073242 2.0129395-.0255737 4.0263672-.0788574 6.0410767-.2109985-2.0092774-.1985474-4.0198364-.3182373-6.0308228-.4102173z"/></g><path d="m62.212326 73.1181259h-1.8915901c-.228756 0-.4141922.1854324-.4141922.4141846v3.3811188c0 .2287521.1854362.4141922.4141922.4141922h1.8915901c.228756 0 .4141922-.1854401.4141922-.4141922v-3.3811188c0-.2287522-.1854362-.4141846-.4141922-.4141846z" fill="#474c5b"/><path d="m58.5666351 64.6706314h-12.9284553l1.1353531-5.5724487h10.6577491z" fill="#2f4859"/><path d="m45.6381798 86.9232178h12.9284553l-1.1353531 5.5724563h-10.6577491z" fill="#2f4859"/><path d="m57.9008522 86.9232178h-11.5968895c-1.4832382 0-2.6856384-1.2024002-2.6856384-2.6856384v-17.5106659c0-1.4832382 1.2024002-2.6856384 2.6856384-2.6856384h11.5968895c1.4832382 0 2.6856384 1.2024002 2.6856384 2.6856384v17.5106659c0 1.4832382-1.2024002 2.6856384-2.6856384 2.6856384z" fill="#64798a"/><path d="m45.63818 66.703438h12.928453v17.557615h-12.928453z" fill="#474c5b"/><path d="m56.682354 75.7301712h-.9023552c-.1003914 0-.1910973.0598297-.2306824.1520004l-.4363632 1.0158386-1.2853775-3.4498444c-.035778-.0959702-.1261215-.1605606-.2285843-.1632614-.1019745-.0055161-.1959953.0569992-.2368011.1508942l-.8888931 2.0463028h-1.0412102c-.1234398 0-.2284851.0897064-.2479744.2115555l-.3710213 2.3327332-1.5463257-5.3051682c-.0297813-.1023636-.1210976-.1748047-.2276077-.1804352-.1045609-.0058746-.2049484.0565109-.2455101.1551666l-1.4673996 3.5657959h-1.6296921v.5020447h1.7978363c.101757 0 .1934357-.0613861.2321701-.1555328l1.2586441-3.0587311 1.6589851 5.691658c.0313911.107605.1299248.1807785.2408524.1807785.0052681 0 .0105362-.0001221.0159264-.0004883.1171951-.0073395.2136574-.0951004.2321663-.2110443l.5131912-3.2262878h.9915771c.1000214 0 .1903648-.0593185.2301941-.151001l.7065048-1.6262512 1.2865982 3.4533768c.0358047.0960999.1264839.1608353.2290955.163269.0973129.005394.1962166-.0576096.2368011-.1518478l.6182365-1.439476h.7370186c.138607 0 .2510223-.1123886.2510223-.2510223.0000001-.1386109-.1124152-.2510224-.2510222-.2510224z" fill="#d15241"/></svg>