<svg enable-background="new 0 0 140 140" height="512" viewBox="0 0 140 140" width="512" xmlns="http://www.w3.org/2000/svg"><circle cx="70" cy="70" fill="#e05b49" r="64"/><path d="m35.6014366 95.7949829c-1.1199951 1.75-.5 3.6799927.9000244 5.2399902l.25.25c.0699463.0800171.1499634.1600342.2299805.2299805l32.5194054 32.4724121c.1671142.0012818.331726.0126343.4991455.0126343 30.6134644 0 56.1914062-21.500061 62.4962845-50.2202148l-57.6948319-57.6948204c-.6600342-.7099609-1.6000366-1.1599731-2.6500244-1.1599731-2.0200195 0-3.6499634 1.6400146-3.6499634 3.6499634 0 .4500122.0899658.8800049.2399902 1.2700195-3.1400146 1.6199951-5.340023 5.4000244-5.340023 9.8099976 0 3.3500366 1.2700157 6.3300171 3.2499962 8.2800293.2200317.3499756.460022.6799927.710022.9899902 0 .7399902-.0200195 1.4599609-.0900269 1.9699707-.0799561.6400146-.5999756 1.0599976-1.4799805 1.4200439-.6500244.2699585-1.4899902.4899902-2.4999962.7399902-.960022.2399902-2.0700073.5-3.3099976.8200073-4.3099976 1.1300049-5.2299805 1.0199585-5.539978 4.9299927-.3100586 3.8999634.5199585 16.4199791-1.4400024 19.8099937-1.9500122 3.3800049-9.9500122 9.3399658-11.1800537 9.3399658-.5 0-1.2199707-.0700073-1.8999634-.1499634l-4.2200317-4.2200317s-1.3200073-.2699585-.9599609 1.5900269c0 0 0 .2000122.0999756.5499878l-.25-.2399902c-.039978-.0499878-.0800171-.0800171-.1199951-.0800171-.1900024 0-.4699707.0300293-.5700073.8800049-.039978.3699951-.0599976.5700073-.0700073.6900024l-1.4400024-1.4400024s-1.4099751-.3800049-.9099751 1.789978c.3200073 1.4100342.9899921 2.8300171 2.1599751 3.8099976l3.2700195 3.2800293c-.5399782.4199828-.9899904.8900146-1.3099977 1.3800048z" opacity=".1"/><circle cx="72.149" cy="28.575" fill="#474c5b" r="3.648"/><path d="m84.654808 91.7851105-11.3298874.3043137 1.3981171 8.5148468s10.3363571 1.2563477 11.9924545 1.1992416c1.656105-.057106 12.677742-3.0837708 12.677742-3.0837708l3.7119522-3.0837784.2284317-2.4555969z" fill="#2f4859"/><path d="m106.6502914 91.3377838c-3.6183395-1.0008163-21.9937363.4492798-21.9937363.4492798l-18.6743774-.0019531 7.533226 7.9599838s-.0426712-2.6088867 4.9578018-1.7508926c5.0005798.8579865 10.6241531-1.7293167 14.7814636-2.9610519 4.1572113-1.2317886 9.0074463-.2309723 9.0074463-.2309723s-7.6987305.4618912-14.7044449 2.6944962c-7.005806 2.232605-11.7790146 1.6936874-11.7790146 1.6936874-1.0007095-.7698441-2.3095245-3.002449-4.5421295-2.3865509-2.232605.6158905-1.8476868 1.8476791-3.7723923 3.0794678-1.9246063 1.2317886-3.2334213-.0770264-5.3120766 0-2.0785522.076973-2.6945496-.0770264-4.8501282 1.8476868-2.1555786 1.9245987-.2309723 3.0024414 2.1555786 2.4635773 2.3866539-.5389786 3.7723923.5388641 9.1614952.6928101 5.3889923.1539993 19.7854385.1539993 28.1000595 0 8.3145218-.1539459 12.7028046-5.3889923 13.7036209-7.6986237 1.0008166-2.3095781-.1539457-4.8501283-3.7723921-5.8509447z" fill="#4d5c7d"/><path d="m61.0652161 91.7327499s-11.7703819.5706863-14.7664757 0c-2.9960976-.5706863-8.916954 1.2840424-10.7003441 4.0661316s.8560257 6.0635223 4.0661316 7.490242c3.2101021 1.426712 3.7807846 1.0700302 9.4876366 1.3553696 5.706852.285347 9.4876404.4313736 12.198391.3583603 2.7107544-.0730133 7.2684479-.1155014 7.2684479-.1155014l7.2840195-.7422028-1.4383392-6.2352448-1.1397629-5.8204803z" fill="#4d5c7d"/><path d="m112.0203476 85.5300369c-.189888 1.6069794-1.4172516 1.6069794-1.4172516 1.6069794s0 0-.0927811-.8520203c-.0927811-.8477936-.3795624-.8815155-.5652313-.8815155-.1897812 0-.4850082.6537857-.4723434 1.6070328.0084457.953186-.5988998 1.7293091-1.0081253 1.7925873-.4091187.0632782-.2530136-.8477936-.2530136-.8477936 1.5099258-1.670311 1.4593658-2.7837753 1.4593658-2.7837753.3627853-1.8516541-.9574661-1.5859222-.9574661-1.5859222-.3668976 2.0161514-2.3155975 3.9563065-2.3155975 3.9563065s-2.568718.4133911-3.8003006.4133911-9.2370758-5.9556198-11.1857758-9.3425751c-1.9528198-3.3869247-1.1303558-15.9097595-1.4382553-19.8112831-.3078918-3.9015236-1.2315826-3.8002968-5.5423279-4.926487-1.2358017-.3247566-2.3451538-.5820389-3.3067398-.8182373-1.0123444-.248867-1.8516922-.4766235-2.5012589-.7423477-.8814697-.3585358-1.3960342-.780323-1.4803772-1.4172211-.2067719-1.539505 0-5.0319061 0-5.0319061l-4.9349747.3163376-4.9349823-.3163376s.2067719 3.4924011 0 5.0319061c-.0843353.636898-.5989075 1.0586853-1.4803696 1.4172211-.6495667.2657242-1.4889221.4934807-2.5012703.7423477-.9615784.2361984-2.0709305.4934807-3.306736.8182373-4.3107452 1.1261902-5.2344322 1.0249634-5.5423279 4.926487s.5145683 16.4243584-1.4382553 19.8112831c-1.9487 3.3869553-9.9541931 9.3425751-11.1857758 9.3425751s-3.8002968-.4133911-3.8002968-.4133911-1.9487038-1.940155-2.3156013-3.9563065c0 0-1.3202477-.2657318-.9574661 1.5859222 0 0-.05056 1.1134644 1.4593658 2.7837753 0 0 .1561089.9110718-.2530098.8477936-.4092255-.0632782-1.016571-.8394012-1.0081291-1.7925873.0126686-.9532471-.2825623-1.6070328-.4723473-1.6070328-.1856613 0-.4724464.0337219-.5652275.8815155-.0927811.8520203-.0927811.8520203-.0927811.8520203s-1.2273598 0-1.4172478-1.6069794c0 0-1.4171429-.3796158-.9152431 1.7925873.5061226 2.1764374 1.7968121 4.4118729 4.5342007 4.9433289 0 0 3.4924011.814064 7.5710411-1.3623657 4.078743-2.1764297 10.0596428-4.6228104 11.6202316-5.9134521 1.5648079-1.2906342 2.4652252-.8710632 3.2603989-3.3278961.6652184-2.0554352 1.8059769-11.4657669 1.7169037-14.6428604.5872688 2.9165115 2.137455 11.0889816 1.750164 14.3011856-.4765663 3.9437485-1.7672577 5.7110062-2.1721573 10.4645462h12.4469185 12.4469148c-.4048996-4.75354-1.6955948-6.5207977-2.1721649-10.4645462-.3872833-3.212204 1.1629028-11.3846741 1.7501678-14.3011856-.0890732 3.1770935 1.0516891 12.5874252 1.7169037 14.6428604.7951736 2.4568329 1.6955872 2.037262 3.2603989 3.3278961 1.5605927 1.2906418 7.5414886 3.7370224 11.6202316 5.9134521 4.0786362 2.1764297 7.5710449 1.3623657 7.5710449 1.3623657 2.737381-.531456 4.0280762-2.7668915 4.5341949-4.9433289.5019075-2.1722031-.9152373-1.7925873-.9152373-1.7925873z" fill="#f7be56"/><path d="m82.4826431 81.3205643c-.4302292-3.5682678 1.5310364-13.2609329 1.9064865-15.0661621-.0042267-.1898041-.0084457-.2910309-.0084457-.2910309s-3.6569519-7.7313499-3.2561798-12.9066467c-1.0123444-.248867-1.8516922-.4766235-2.5012589-.7423477-.0421219.7845154-.1644516 2.623497-.4427948 4.7619553-.3754501 2.8512802-.9364548 5.8796997-5.4579926 6.0568428-.1897812.0084457-.3542328.0126648-.5145645.0210838-.1603317-.008419-.3247833-.0126381-.5145721-.0210838-4.5215302-.1771431-5.0825424-3.2055626-5.4579926-6.0568428-.2783356-2.1384583-.4006729-3.9774399-.4427872-4.7619553-.6495667.2657242-1.4889221.4934807-2.5012703.7423477.4007797 5.1752968-3.256176 12.9066467-3.256176 12.9066467s-.0042229.1012268-.0084419.2910309c.3754463 1.8052292 2.3367119 11.4978943 1.9064789 15.0661621-.4765663 3.9437485-1.7672577 5.7110062-2.1721573 10.4645462h12.4469185 12.4469147c-.4048996-4.7535401-1.6955947-6.5207978-2.1721649-10.4645462z" fill="#ebf0f3"/><path d="m42.8515472 96.8292999s9.4591064-.6756516 14.4138794 1.9143448c0 0 8.3330231.7882538 10.2473679 1.4639053l1.9143448-1.7288361s-3.8286896-1.1989822-6.1934662-1.1989822-5.067379.4504318-5.067379.4504318-11.598671-2.1395568-15.3147469-.9008636z" fill="#2f4859"/><path d="m75.5987625 99.0396042c-.9779587-.872406-2.2608261-2.8155441-4.362236-2.2357941-2.232605.6158905-1.8476868 1.8476791-3.7723923 3.0794678-1.9246063 1.2317886-3.2334213-.0770264-5.3120766 0-2.0785522.076973-2.6945496-.0770264-4.8501282 1.8476868-2.1555786 1.9245987-.2309723 3.0024414 2.1555786 2.4635773 2.3866539-.5389786 3.7723923.5388641 9.1614952.6928101 1.6361694.0467529 4.1053085.0792389 6.9797592.0976257v-5.9453736z" fill="#fcd462"/><ellipse cx="72.149" cy="39.657" fill="#474c5b" rx="8.747" ry="10.646"/><path d="m72.2930374 32.4932785c-2.7210693 9.487709-7.2460861 4.2478104-7.2460861 9.487709 0 5.2399216 3.2442017 9.4877052 7.2460861 9.4877052 4.001976 0 7.2460861-4.2477837 7.2460861-9.4877052 0-5.2398986-6.1427993-13.3346004-7.2460861-9.487709z" fill="#fcd462"/></svg>