<?xml version="1.0" encoding="iso-8859-1"?>
<!-- Generator: Adobe Illustrator 19.0.0, SVG Export Plug-In . SVG Version: 6.00 Build 0)  -->
<svg xmlns="http://www.w3.org/2000/svg" xmlns:xlink="http://www.w3.org/1999/xlink" version="1.1" id="Capa_1" x="0px" y="0px" viewBox="0 0 384 384" style="enable-background:new 0 0 384 384;" xml:space="preserve">
<circle style="fill:#334D5C;" cx="192" cy="192" r="192"/>
<path style="opacity:0.1;enable-background:new    ;" d="M383.853,197.818l-91.466-91.466c-0.102-0.102-0.19-0.215-0.303-0.303  l-0.02-0.02l-0.006,0.005c-0.956-0.738-2.234-0.998-3.418-0.594l-10.44,3.44c-0.582-0.567-1.24-1.051-1.847-1.592L251.964,82.9  l-0.001,0.002C251.308,82.342,250.472,82,249.56,82h-17c-1.76,0-3.28,1.24-3.64,2.96l-2.2,10.76c-8.72,2.44-16.52,7.04-22.8,13.16  l-10.44-3.44c-1.64-0.56-3.48,0.12-4.36,1.64l-8.52,14.72c-0.88,1.52-0.56,3.48,0.76,4.64l8.2,7.24c-0.04,0.12-0.04,0.28-0.08,0.4  c-7.04-1.88-14.4-3-22.04-3c-47.12,0-85.44,38.32-85.44,85.48c0,23.811,9.806,45.353,25.568,60.86l-0.018,0.013L212.956,382.84  C307.236,372.602,380.98,294.125,383.853,197.818z"/>
<circle style="fill:#27A2DB;" cx="167.456" cy="216.56" r="80.68"/>
<g>
	<path style="fill:#FCD462;" d="M167.458,302C120.338,302,82,263.665,82,216.542c0-47.122,38.338-85.458,85.458-85.458   s85.458,38.336,85.458,85.458C252.916,263.665,214.578,302,167.458,302z M167.458,140.601c-41.874,0-75.941,34.067-75.941,75.941   s34.067,75.941,75.941,75.941c41.874,0,75.941-34.067,75.941-75.941S209.332,140.601,167.458,140.601z"/>
	<path style="fill:#FCD462;" d="M167.458,302c-25.879,0-46.149-37.538-46.149-85.458s20.27-85.458,46.149-85.458   c25.879,0,46.149,37.538,46.149,85.458S193.337,302,167.458,302z M167.458,140.601c-19.857,0-36.632,34.776-36.632,75.941   s16.776,75.941,36.632,75.941c19.856,0,36.632-34.776,36.632-75.941S187.314,140.601,167.458,140.601z"/>
	<rect x="162.7" y="135.844" style="fill:#FCD462;" width="9.516" height="161.4"/>
	<rect x="86.76" y="211.784" style="fill:#FCD462;" width="161.4" height="9.516"/>
	<path style="fill:#FCD462;" d="M167.458,186.065c-22.845,0-45.689-3.427-67.906-10.284l2.807-9.094   c42.673,13.169,87.768,13.139,130.413-0.068l2.816,9.09C213.305,182.612,190.382,186.065,167.458,186.065z"/>
	<path style="fill:#FCD462;" d="M232.771,266.464c-42.655-13.214-87.749-13.237-130.413-0.065l-2.807-9.094   c44.5-13.736,91.546-13.713,136.036,0.07L232.771,266.464z"/>
</g>
<path style="fill:#E56353;" d="M292.56,160.088c1.078-4.22,1.653-8.64,1.653-13.196c0-4.556-0.576-8.976-1.654-13.196l8.19-7.262  c1.32-1.17,1.634-3.108,0.752-4.635l-8.491-14.706c-0.882-1.528-2.716-2.224-4.389-1.666l-10.407,3.469  c-6.294-6.156-14.109-10.754-22.831-13.19l-2.198-10.738c-0.353-1.728-1.873-2.969-3.637-2.969h-16.981  c-1.764,0-3.284,1.241-3.637,2.969l-2.198,10.738c-8.722,2.436-16.537,7.034-22.831,13.19l-10.407-3.469  c-1.673-0.558-3.508,0.138-4.389,1.666l-8.491,14.706c-0.882,1.528-0.568,3.465,0.753,4.635l8.189,7.262  c-1.078,4.22-1.653,8.64-1.653,13.196c0,4.556,0.576,8.977,1.654,13.197l-8.189,7.262c-1.321,1.17-1.635,3.108-0.753,4.635  l8.491,14.706c0.881,1.527,2.716,2.224,4.389,1.666l10.407-3.469c6.294,6.156,14.109,10.754,22.831,13.19l2.198,10.738  c0.353,1.728,1.873,2.969,3.637,2.969h16.981c1.764,0,3.284-1.241,3.637-2.969l2.198-10.738c8.722-2.436,16.537-7.034,22.831-13.19  l10.407,3.469c1.673,0.558,3.508-0.138,4.389-1.666l8.491-14.706c0.882-1.528,0.568-3.465-0.752-4.635L292.56,160.088z"/>
<path style="fill:#FFFFFF;" d="M241.06,185.484c-21.28,0-38.593-17.312-38.593-38.593c0-21.28,17.314-38.593,38.593-38.593  c21.28,0,38.593,17.312,38.593,38.593C279.653,168.172,262.34,185.484,241.06,185.484z"/>
<g>
	<path style="fill:#D15241;" d="M241.06,106.874c-22.065,0-40.018,17.951-40.018,40.017c0,22.066,17.952,40.018,40.018,40.018   c22.066,0,40.018-17.951,40.018-40.018C281.078,124.825,263.125,106.874,241.06,106.874z M241.06,182.452   c-19.608,0-35.56-15.953-35.56-35.561c0-19.608,15.952-35.561,35.56-35.561c19.608,0,35.561,15.953,35.561,35.561   C276.62,166.5,260.668,182.452,241.06,182.452z"/>
	<circle style="fill:#D15241;" cx="241.04" cy="146.892" r="19.036"/>
</g>
<g>
</g>
<g>
</g>
<g>
</g>
<g>
</g>
<g>
</g>
<g>
</g>
<g>
</g>
<g>
</g>
<g>
</g>
<g>
</g>
<g>
</g>
<g>
</g>
<g>
</g>
<g>
</g>
<g>
</g>
</svg>
