<?xml version="1.0" encoding="iso-8859-1"?>
<!-- Generator: Adobe Illustrator 19.0.0, SVG Export Plug-In . SVG Version: 6.00 Build 0)  -->
<svg xmlns="http://www.w3.org/2000/svg" xmlns:xlink="http://www.w3.org/1999/xlink" version="1.1" id="Capa_1" x="0px" y="0px" viewBox="0 0 384 384" style="enable-background:new 0 0 384 384;" xml:space="preserve">
<circle style="fill:#EA8953;" cx="192" cy="192" r="192"/>
<path style="opacity:0.1;enable-background:new    ;" d="M117.31,117.31c-41.267,41.267-41.266,108.13,0,149.397l113.39,113.391  c74.988-15.348,134.05-74.41,149.397-149.398l-113.39-113.39C225.441,76.043,158.577,76.043,117.31,117.31z"/>
<circle style="fill:#64798A;" cx="192" cy="192" r="105.636"/>
<path style="fill:#3A556A;" d="M233.381,145.55h-82.762c-4.741,0-8.586,3.844-8.586,8.586v82.762c0,4.742,3.845,8.586,8.586,8.586  h82.762c4.742,0,8.586-3.844,8.586-8.586v-82.762C241.967,149.394,238.123,145.55,233.381,145.55z"/>
<path style="fill:#FFFFFF;" d="M233.381,138.515h-82.762c-4.741,0-8.586,3.844-8.586,8.586v82.762c0,4.742,3.845,8.586,8.586,8.586  h82.762c4.742,0,8.586-3.844,8.586-8.586v-82.762C241.967,142.36,238.123,138.515,233.381,138.515z"/>
<g>
</g>
<g>
</g>
<g>
</g>
<g>
</g>
<g>
</g>
<g>
</g>
<g>
</g>
<g>
</g>
<g>
</g>
<g>
</g>
<g>
</g>
<g>
</g>
<g>
</g>
<g>
</g>
<g>
</g>
</svg>
