<?xml version="1.0" encoding="iso-8859-1"?>
<!-- Generator: Adobe Illustrator 19.0.0, SVG Export Plug-In . SVG Version: 6.00 Build 0)  -->
<svg xmlns="http://www.w3.org/2000/svg" xmlns:xlink="http://www.w3.org/1999/xlink" version="1.1" id="Capa_1" x="0px" y="0px" viewBox="0 0 384 384" style="enable-background:new 0 0 384 384;" xml:space="preserve">
<circle style="fill:#334D5C;" cx="192" cy="192" r="192"/>
<path style="opacity:0.1;enable-background:new    ;" d="M261.96,126.11l-21.36-15.48c-2.24-1.64-5.28-1.44-7.32,0.4l-5.84,5.359  L194,82.95v-0.04c-1.2-1.36-3.44-1.16-4.32,0.48l-7.4,13.641l-7.56,14l-4.72-6.601c-1.6-2.239-4.56-3.04-7.04-1.92L138.8,113.27  c-2.48,1.119-3.88,3.84-3.28,6.52l3.68,16.64c-5.2,4.32-9.96,9.36-14.12,15.08c-4.16,5.761-7.48,11.841-10,18.16l-16.92,1.64  c-2.76,0.28-4.92,2.44-5.2,5.16l-2.72,26.28c-0.16,1.32,0.16,2.6,0.84,3.68l0.04,0.04c0.44,0.721,1.04,1.32,1.76,1.76l22.28,22.28  c2.92,7.44,6.96,14.521,12.04,20.92l-7.04,15.56c-0.72,1.56-0.68,3.32,0.04,4.8c0.4,0.88,1,1.64,1.84,2.24l1.48,1.08l105.321,105.32  c72.162-14.03,129.867-68.448,148.645-138.795L263.16,127.309L261.96,126.11z"/>
<rect x="200.34" y="225.36" style="fill:#31978C;" width="16.7" height="28.28"/>
<rect x="183.648" y="225.36" style="fill:#3EA69B;" width="16.7" height="28.28"/>
<rect x="166.952" y="225.36" style="fill:#44C4A1;" width="16.7" height="28.28"/>
<rect x="166.948" y="253.588" style="fill:#EBF0F3;" width="50.104" height="11.332"/>
<path style="fill:#2F4859;" d="M211.799,302H200.35v-37.046h16.7v31.795C217.051,299.649,214.699,302,211.799,302z"/>
<rect x="183.648" y="264.96" style="fill:#3A556A;" width="16.7" height="37.048"/>
<path style="fill:#64798A;" d="M183.649,302H172.2c-2.902,0-5.252-2.351-5.252-5.252v-31.795h16.7V302z"/>
<path style="fill:#E56353;" d="M289.77,191.32l-16.273-5.138c-2.302-13.501-7.942-26.43-16.699-37.466l7.042-15.528  c1.135-2.498,0.353-5.45-1.867-7.061l-21.383-15.513c-2.221-1.611-5.27-1.438-7.292,0.416l-12.576,11.513  c-13.208-4.9-27.249-6.25-40.798-4.248l-9.935-13.876c-1.597-2.23-4.544-3.03-7.049-1.912l-24.126,10.76  c-2.506,1.118-3.88,3.844-3.286,6.524l3.677,16.625c-5.212,4.328-9.975,9.37-14.136,15.106c-4.162,5.737-7.476,11.829-9.974,18.128  l-16.945,1.662c-2.732,0.267-4.898,2.419-5.183,5.148l-2.742,26.274c-0.286,2.728,1.389,5.281,4.005,6.107l16.274,5.139  c2.302,13.501,7.942,26.43,16.698,37.466l-7.042,15.528c-1.134,2.498-0.353,5.45,1.868,7.061l21.383,15.513  c2.221,1.612,5.269,1.438,7.291-0.416l12.576-11.513c13.208,4.9,27.25,6.249,40.798,4.248l9.935,13.876  c1.597,2.23,4.544,3.03,7.049,1.912l24.126-10.761c2.507-1.118,3.881-3.843,3.287-6.523l-3.678-16.625  c5.212-4.328,9.975-9.37,14.137-15.106c4.161-5.736,7.476-11.829,9.973-18.127l16.947-1.662c2.731-0.268,4.897-2.42,5.181-5.149  l2.742-26.274C294.06,194.699,292.387,192.147,289.77,191.32z M242.391,236.639c-20.159,27.786-59.163,33.989-86.947,13.832  c-27.784-20.158-33.99-59.162-13.832-86.947c20.158-27.785,59.162-33.989,86.946-13.832  C256.343,169.85,262.549,208.854,242.391,236.639z"/>
<path style="fill:#D15241;" d="M228.559,149.692c-27.784-20.157-66.789-13.954-86.947,13.832  c-20.158,27.786-13.952,66.79,13.832,86.947c27.784,20.158,66.789,13.954,86.947-13.832  C262.549,208.854,256.343,169.85,228.559,149.692z M159.515,244.86c-24.69-17.913-30.204-52.573-12.291-77.264  c17.913-24.69,52.573-30.204,77.263-12.292c24.69,17.913,30.204,52.573,12.291,77.264  C218.866,257.258,184.205,262.772,159.515,244.86z"/>
<rect x="200.34" y="125.32" style="fill:#31978C;" width="16.7" height="100"/>
<rect x="183.652" y="125.32" style="fill:#3EA69B;" width="16.7" height="100"/>
<rect x="166.952" y="125.32" style="fill:#44C4A1;" width="16.7" height="100"/>
<path style="fill:#FCD462;" d="M166.949,125.321l15.344-28.294c2.455,2.549,5.888,4.15,9.708,4.15c3.819,0,7.25-1.601,9.707-4.15  l15.344,28.294H166.949z"/>
<path style="fill:#64798A;" d="M192,101.177c-3.82,0-7.252-1.601-9.708-4.15L189.7,83.37c0.99-1.826,3.61-1.826,4.601,0  l7.407,13.658C199.251,99.576,195.819,101.177,192,101.177z"/>
<g>
</g>
<g>
</g>
<g>
</g>
<g>
</g>
<g>
</g>
<g>
</g>
<g>
</g>
<g>
</g>
<g>
</g>
<g>
</g>
<g>
</g>
<g>
</g>
<g>
</g>
<g>
</g>
<g>
</g>
</svg>
