<?xml version="1.0" encoding="iso-8859-1"?>
<!-- Generator: Adobe Illustrator 19.0.0, SVG Export Plug-In . SVG Version: 6.00 Build 0)  -->
<svg xmlns="http://www.w3.org/2000/svg" xmlns:xlink="http://www.w3.org/1999/xlink" version="1.1" id="Capa_1" x="0px" y="0px" viewBox="0 0 384 384" style="enable-background:new 0 0 384 384;" xml:space="preserve">
<circle style="fill:#E05B49;" cx="192" cy="192" r="192"/>
<path style="opacity:0.1;enable-background:new    ;" d="M290.76,115.27c-0.88-1.08-2.24-1.76-3.76-1.76H97c-2.76,0-5,2.24-5,5  v133.72H82v13.84l117.735,117.734c97.166-3.855,175.717-79.893,183.564-175.982L291.16,115.71L290.76,115.27z"/>
<path style="fill:#3A556A;" d="M286.988,113.515H97.01c-2.761,0-4.999,2.239-4.999,5v133.713h199.978V118.515  C291.989,115.754,289.75,113.515,286.988,113.515z"/>
<rect x="103.708" y="124.232" style="fill:#64798A;" width="176.6" height="117.296"/>
<rect x="82" y="252.24" style="fill:#EBF0F3;" width="220" height="13.848"/>
<g>
	<polygon style="fill:#D5D6DB;" points="301.691,266.093 82.309,266.093 96.754,270.485 287.246,270.485  "/>
	<rect x="177.16" y="257.52" style="fill:#D5D6DB;" width="29.64" height="3.24"/>
</g>
<ellipse style="fill:#3A556A;" cx="192" cy="214.24" rx="36.964" ry="5.04"/>
<path style="fill:#E56353;" d="M155.575,182.872c0,20.116,16.307,36.423,36.423,36.423v-72.847  C171.882,146.448,155.575,162.755,155.575,182.872z"/>
<path style="fill:#D15241;" d="M191.998,146.448v72.847c20.116,0,36.425-16.307,36.425-36.423  C228.423,162.755,212.114,146.448,191.998,146.448z"/>
<path style="fill:#CE412D;" d="M204.798,182.792l-22.857-18.713c-1.411-1.156-3.533-0.152-3.533,1.674v37.426  c0,1.826,2.122,2.83,3.533,1.674l22.857-18.713C205.856,185.274,205.856,183.658,204.798,182.792z"/>
<path style="fill:#FFFFFF;" d="M204.798,179.602l-22.857-18.713c-1.411-1.156-3.533-0.152-3.533,1.674v37.426  c0,1.826,2.122,2.83,3.533,1.674l22.857-18.713C205.856,182.084,205.856,180.468,204.798,179.602z"/>
<g>
</g>
<g>
</g>
<g>
</g>
<g>
</g>
<g>
</g>
<g>
</g>
<g>
</g>
<g>
</g>
<g>
</g>
<g>
</g>
<g>
</g>
<g>
</g>
<g>
</g>
<g>
</g>
<g>
</g>
</svg>
