<?xml version="1.0" encoding="iso-8859-1"?>
<!-- Generator: Adobe Illustrator 19.0.0, SVG Export Plug-In . SVG Version: 6.00 Build 0)  -->
<svg xmlns="http://www.w3.org/2000/svg" xmlns:xlink="http://www.w3.org/1999/xlink" version="1.1" id="Capa_1" x="0px" y="0px" viewBox="0 0 384 384" style="enable-background:new 0 0 384 384;" xml:space="preserve">
<circle style="fill:#E05B49;" cx="192" cy="192" r="192"/>
<path style="opacity:0.1;enable-background:new    ;" d="M380.098,230.7l-113.39-113.39c-41.267-41.267-108.131-41.267-149.398,0  c-41.267,41.267-41.266,108.13,0,149.397l113.39,113.391C305.688,364.75,364.751,305.688,380.098,230.7z"/>
<circle style="fill:#27A2DB;" cx="192" cy="192" r="105.636"/>
<path style="fill:#2D93BA;" d="M138.014,140.434l43.204,39.374v-35.846c0-4.148,4.925-6.322,7.99-3.528l39.69,36.172v-33.554  c0-2.14,1.734-3.873,3.874-3.873h17.331c2.139,0,3.873,1.734,3.873,3.873v105.894c0,2.139-1.734,3.873-3.873,3.873h-17.331  c-2.139,0-3.874-1.734-3.874-3.873v-33.554l-39.69,36.172c-3.066,2.794-7.991,0.619-7.991-3.529v-35.845l-43.203,39.374  c-3.066,2.794-7.991,0.619-7.991-3.529V143.963C130.024,139.815,134.948,137.64,138.014,140.434z"/>
<path style="fill:#FFFFFF;" d="M138.014,132.434l43.204,39.374v-35.846c0-4.148,4.925-6.322,7.99-3.528l39.69,36.172v-33.554  c0-2.14,1.734-3.873,3.874-3.873h17.331c2.139,0,3.873,1.734,3.873,3.873v105.894c0,2.139-1.734,3.873-3.873,3.873h-17.331  c-2.139,0-3.874-1.734-3.874-3.873v-33.554l-39.69,36.172c-3.066,2.794-7.991,0.619-7.991-3.529v-35.845l-43.203,39.374  c-3.066,2.794-7.991,0.619-7.991-3.529V135.963C130.024,131.815,134.948,129.64,138.014,132.434z"/>
<g>
</g>
<g>
</g>
<g>
</g>
<g>
</g>
<g>
</g>
<g>
</g>
<g>
</g>
<g>
</g>
<g>
</g>
<g>
</g>
<g>
</g>
<g>
</g>
<g>
</g>
<g>
</g>
<g>
</g>
</svg>
