<?xml version="1.0" encoding="iso-8859-1"?>
<!-- Generator: Adobe Illustrator 19.0.0, SVG Export Plug-In . SVG Version: 6.00 Build 0)  -->
<svg xmlns="http://www.w3.org/2000/svg" xmlns:xlink="http://www.w3.org/1999/xlink" version="1.1" id="Capa_1" x="0px" y="0px" viewBox="0 0 384 384" style="enable-background:new 0 0 384 384;" xml:space="preserve">
<circle style="fill:#45B39C;" cx="192" cy="192" r="192"/>
<path style="opacity:0.1;enable-background:new    ;" d="M225.72,81.99H113.96c-2.88,0-5.16,2.32-5.16,5.16v209.68  c0,1.56,0.68,2.96,1.76,3.84v0.04l83.269,83.244c90.95-0.852,166.745-64.925,185.612-150.404L229.4,83.509  C228.4,82.549,227.12,81.99,225.72,81.99z"/>
<path style="fill:#EBF0F3;" d="M225.736,82H113.949c-2.85,0-5.161,2.311-5.161,5.162v209.677c0,2.85,2.311,5.161,5.161,5.161  h156.102c2.85,0,5.161-2.311,5.161-5.161V131.477c0-1.369-0.544-2.682-1.512-3.65l-44.315-44.315  C228.418,82.544,227.105,82,225.736,82z"/>
<path style="fill:#D5D6DB;" d="M233.036,129.339h41.675c-0.253-0.551-0.573-1.075-1.01-1.512l-22.157-22.158l-22.158-22.158  c-0.437-0.437-0.961-0.757-1.512-1.01v41.676C227.874,127.028,230.185,129.339,233.036,129.339z"/>
<path style="fill:#64798A;" d="M241.93,150.809v82.089c0.08,6.074-5.753,12.39-14.262,14.905c-9.634,2.863-19.08-0.268-21.087-7.011  c-1.98-6.717,4.228-14.504,13.889-17.34c4.094-1.231,8.161-1.338,11.64-0.589v-42.95l-54.322,15.922v52.984h-0.027  c0.107,6.075-5.726,12.417-14.236,14.932c-9.66,2.864-19.106-0.294-21.086-7.011c-1.98-6.744,4.228-14.504,13.888-17.367  c4.094-1.204,8.162-1.338,11.614-0.562v-68.933L241.93,150.809z"/>
<g>
</g>
<g>
</g>
<g>
</g>
<g>
</g>
<g>
</g>
<g>
</g>
<g>
</g>
<g>
</g>
<g>
</g>
<g>
</g>
<g>
</g>
<g>
</g>
<g>
</g>
<g>
</g>
<g>
</g>
</svg>
