<?xml version="1.0" encoding="iso-8859-1"?>
<!-- Generator: Adobe Illustrator 19.0.0, SVG Export Plug-In . SVG Version: 6.00 Build 0)  -->
<svg xmlns="http://www.w3.org/2000/svg" xmlns:xlink="http://www.w3.org/1999/xlink" version="1.1" id="Capa_1" x="0px" y="0px" viewBox="0 0 384 384" style="enable-background:new 0 0 384 384;" xml:space="preserve">
<circle style="fill:#45B39C;" cx="192" cy="192" r="192"/>
<path style="opacity:0.1;enable-background:new    ;" d="M380.19,230.19L302,152L192,82l-35.2,22.4l-13.48-13.48v0.04h-28.28v40  L82,152l20.4,20.4V302l81.803,81.803c2.59,0.104,5.182,0.197,7.797,0.197C284.961,384,362.48,317.93,380.19,230.19z"/>
<rect x="115.036" y="90.972" style="fill:#D15241;" width="28.28" height="46.024"/>
<polygon style="fill:#E56353;" points="302,152 82,152 192,82 "/>
<polygon style="fill:#D15241;" points="142.973,136 192,100.367 241.027,136 "/>
<rect x="102.396" y="160" style="fill:#EBF0F3;" width="179.208" height="142"/>
<rect x="102.396" y="152" style="fill:#E1E6E9;" width="179.208" height="8"/>
<rect x="154.596" y="187.86" style="fill:#64798A;" width="74.804" height="114.14"/>
<circle style="fill:#3A556A;" cx="217.44" cy="244.92" r="4.772"/>
<g>
</g>
<g>
</g>
<g>
</g>
<g>
</g>
<g>
</g>
<g>
</g>
<g>
</g>
<g>
</g>
<g>
</g>
<g>
</g>
<g>
</g>
<g>
</g>
<g>
</g>
<g>
</g>
<g>
</g>
</svg>
