<?xml version="1.0" encoding="iso-8859-1"?>
<!-- Generator: Adobe Illustrator 19.0.0, SVG Export Plug-In . SVG Version: 6.00 Build 0)  -->
<svg xmlns="http://www.w3.org/2000/svg" xmlns:xlink="http://www.w3.org/1999/xlink" version="1.1" id="Capa_1" x="0px" y="0px" viewBox="0 0 384 384" style="enable-background:new 0 0 384 384;" xml:space="preserve">
<circle style="fill:#334D5C;" cx="192" cy="192" r="192"/>
<path style="opacity:0.1;enable-background:new    ;" d="M384,192c0-4.126-0.175-8.21-0.432-12.272l-83.643-83.644l-0.001,0.001  c-1.622-1.94-4.034-3.206-6.764-3.206h-84.05l-10.017-10.017l-0.008,0.01C198.614,82.348,197.951,82,197.2,82h-10.4  c-1.4,0-2.56,1.16-2.56,2.56v8.32h-93.4c-4.88,0-8.84,3.96-8.84,8.8V235c0,2.388,0.958,4.547,2.498,6.138l-0.004,0.003l0.038,0.038  c0.043,0.044,0.086,0.087,0.13,0.13l34.413,34.413L109.64,302l81.991,81.991c0.124,0,0.245,0.009,0.369,0.009  C298.039,384,384,298.039,384,192z"/>
<path style="fill:#DC8744;" d="M205.569,110.49l-5.81,2.087V84.553c0-1.41-1.142-2.553-2.552-2.553h-10.414  c-1.41,0-2.552,1.142-2.552,2.553v28.024l-5.81-2.087L109.628,302h16.49l58.122-161.781v139.699h15.519V140.219L257.882,302h16.49  L205.569,110.49z"/>
<path style="fill:#E1E6E9;" d="M293.173,100.869H90.826c-4.874,0-8.826,3.952-8.826,8.826v125.302c0,4.875,3.952,8.826,8.826,8.826  h202.347c4.875,0,8.827-3.951,8.827-8.826V109.695C302,104.821,298.048,100.869,293.173,100.869z"/>
<path style="fill:#FFFFFF;" d="M293.173,92.869H90.826c-4.874,0-8.826,3.952-8.826,8.826v125.302c0,4.875,3.952,8.826,8.826,8.826  h202.347c4.875,0,8.827-3.951,8.827-8.826V101.695C302,96.821,298.048,92.869,293.173,92.869z"/>
<rect x="96.52" y="148.88" style="fill:#44C4A1;" width="18.088" height="70.776"/>
<rect x="121.68" y="131.516" style="fill:#FCD462;" width="18.088" height="88.16"/>
<rect x="146.832" y="103.924" style="fill:#27A2DB;" width="18.088" height="115.748"/>
<rect x="171.984" y="145.84" style="fill:#E56353;" width="18.088" height="73.824"/>
<rect x="96.52" y="219.672" style="fill:#3EA69B;" width="18.088" height="5.096"/>
<rect x="121.68" y="219.672" style="fill:#F6C358;" width="18.088" height="5.096"/>
<rect x="146.832" y="219.672" style="fill:#2D93BA;" width="18.088" height="5.096"/>
<rect x="171.984" y="219.672" style="fill:#D15241;" width="18.088" height="5.096"/>
<g>
	<rect x="216.12" y="107.812" style="fill:#E1E6E9;" width="73.156" height="4.328"/>
	<rect x="216.12" y="119.456" style="fill:#E1E6E9;" width="73.156" height="4.328"/>
	<rect x="216.12" y="131.096" style="fill:#E1E6E9;" width="73.156" height="4.328"/>
	<rect x="236.92" y="166.12" style="fill:#E1E6E9;" width="52.36" height="4.328"/>
	<rect x="236.92" y="183.06" style="fill:#E1E6E9;" width="52.36" height="4.328"/>
	<rect x="236.92" y="200.04" style="fill:#E1E6E9;" width="52.36" height="4.328"/>
	<rect x="236.92" y="217" style="fill:#E1E6E9;" width="52.36" height="4.328"/>
	<rect x="216.12" y="142.736" style="fill:#E1E6E9;" width="43.424" height="4.328"/>
</g>
<rect x="216.12" y="162.644" style="fill:#44C4A1;" width="11.244" height="11.244"/>
<rect x="216.12" y="179.604" style="fill:#F6C358;" width="11.244" height="11.244"/>
<rect x="216.12" y="196.56" style="fill:#27A2DB;" width="11.244" height="11.244"/>
<rect x="216.12" y="213.52" style="fill:#E56353;" width="11.244" height="11.244"/>
<g>
</g>
<g>
</g>
<g>
</g>
<g>
</g>
<g>
</g>
<g>
</g>
<g>
</g>
<g>
</g>
<g>
</g>
<g>
</g>
<g>
</g>
<g>
</g>
<g>
</g>
<g>
</g>
<g>
</g>
</svg>
