<?xml version="1.0" encoding="iso-8859-1"?>
<!-- Generator: Adobe Illustrator 19.0.0, SVG Export Plug-In . SVG Version: 6.00 Build 0)  -->
<svg xmlns="http://www.w3.org/2000/svg" xmlns:xlink="http://www.w3.org/1999/xlink" version="1.1" id="Capa_1" x="0px" y="0px" viewBox="0 0 384 384" style="enable-background:new 0 0 384 384;" xml:space="preserve">
<circle style="fill:#E05B49;" cx="192" cy="192" r="192"/>
<path style="opacity:0.1;enable-background:new    ;" d="M288.539,109.677c-1.406-1.492-3.392-2.436-5.619-2.436h-97.478  l-21.647-21.647c-0.365-0.416-0.738-0.811-1.16-1.16l-0.329-0.33l-0.021,0.077C160.501,82.824,158.34,82,156,82h-54.92  c-4.28,0-7.72,3.44-7.72,7.72v45.96H89.76c-4.8,0-8.24,3.84-7.72,8.561l10.52,104.04c0.205,1.789,1.159,3.397,2.532,4.622  l-0.013,0.01l128.464,128.464c86.958-14.379,154.162-87.162,159.996-176.72l-94.986-94.986L288.539,109.677z"/>
<path style="fill:#F6C358;" d="M104.69,122.93v-6.447h174.62v6.447v12.734h11.335v-20.733c0-4.258-3.452-7.71-7.71-7.71h-99.372  c-3.562,0-6.88-1.818-8.797-4.82l-9.95-15.581c-1.918-3.003-5.234-4.82-8.797-4.82h-54.953c-4.258,0-7.71,3.452-7.71,7.71v45.954  h11.334V122.93z"/>
<rect x="104.68" y="116.48" style="fill:#EBF0F3;" width="174.62" height="6.448"/>
<rect x="104.68" y="122.928" style="fill:#FFFFFF;" width="174.62" height="12.736"/>
<path style="fill:#FCD462;" d="M294.255,135.664h-3.61H279.31H104.69H93.356h-3.611c-4.789,0-8.229,3.866-7.689,8.594l10.51,104.028  c0.438,3.831,4.242,6.912,8.5,6.912h181.869c4.258,0,8.062-3.08,8.499-6.912l10.511-104.028  C302.484,139.53,299.044,135.664,294.255,135.664z"/>
<path style="fill:#F6C358;" d="M291.434,248.286l3.663-36.253c-10.804-12.17-26.513-19.894-44.026-19.894  c-32.492,0-58.93,26.437-58.93,58.93c0,1.394,0.113,2.76,0.209,4.129h90.585C287.192,255.198,290.996,252.117,291.434,248.286z"/>
<circle style="fill:#44C4A1;" cx="251.08" cy="251.08" r="50.928"/>
<polygon style="fill:#3EA69B;" points="281.865,244.436 259.704,244.436 259.704,222.275 242.435,222.275 242.435,244.436   220.275,244.436 220.275,261.704 242.435,261.704 242.435,283.866 259.704,283.866 259.704,261.704 281.865,261.704 "/>
<polygon style="fill:#FFFFFF;" points="281.865,240.436 259.704,240.436 259.704,218.275 242.435,218.275 242.435,240.436   220.275,240.436 220.275,257.704 242.435,257.704 242.435,279.866 259.704,279.866 259.704,257.704 281.865,257.704 "/>
<g>
</g>
<g>
</g>
<g>
</g>
<g>
</g>
<g>
</g>
<g>
</g>
<g>
</g>
<g>
</g>
<g>
</g>
<g>
</g>
<g>
</g>
<g>
</g>
<g>
</g>
<g>
</g>
<g>
</g>
</svg>
