<?xml version="1.0" encoding="iso-8859-1"?>
<!-- Generator: Adobe Illustrator 19.0.0, SVG Export Plug-In . SVG Version: 6.00 Build 0)  -->
<svg xmlns="http://www.w3.org/2000/svg" xmlns:xlink="http://www.w3.org/1999/xlink" version="1.1" id="Capa_1" x="0px" y="0px" viewBox="0 0 384 384" style="enable-background:new 0 0 384 384;" xml:space="preserve">
<circle style="fill:#334D5C;" cx="192" cy="192" r="192"/>
<path style="opacity:0.1;enable-background:new    ;" d="M379.5,233.29l-93.882-93.881l-0.008,0.006  C266.23,115.401,231.564,99.4,192,99.4c-60.76,0-110,37.72-110,84.28c0,19.52,8.68,37.48,23.2,51.76  c-4.36,9.88-12.6,27.04-21.84,38.84c-1.969,2.5-1.601,5.599,0.039,7.754l-0.05,0.023l0.329,0.329  c0.223,0.255,0.451,0.492,0.711,0.711l100.73,100.73c2.288,0.081,4.573,0.174,6.881,0.174C283.858,384,360.604,319.476,379.5,233.29  z"/>
<path style="fill:#E56353;" d="M192,99.389c-60.751,0-110,37.744-110,84.304c0,19.51,8.671,37.457,23.189,51.743  c-4.357,9.884-12.572,27.028-21.832,38.846c-3.555,4.536,0.365,11.126,6.061,10.25c17.792-2.736,42.33-9.427,52.933-25.619  c14.919,5.796,31.778,9.082,49.648,9.082c60.751,0,110-37.744,110-84.303S252.751,99.389,192,99.389z"/>
<g>
	<rect x="122.148" y="138.16" style="fill:#FCD462;" width="139.7" height="9.524"/>
	<rect x="122.148" y="164.04" style="fill:#FCD462;" width="139.7" height="9.524"/>
	<rect x="122.148" y="189.88" style="fill:#FCD462;" width="139.7" height="9.524"/>
	<rect x="122.148" y="215.736" style="fill:#FCD462;" width="139.7" height="9.524"/>
</g>
<g>
</g>
<g>
</g>
<g>
</g>
<g>
</g>
<g>
</g>
<g>
</g>
<g>
</g>
<g>
</g>
<g>
</g>
<g>
</g>
<g>
</g>
<g>
</g>
<g>
</g>
<g>
</g>
<g>
</g>
</svg>
