<?xml version="1.0" encoding="iso-8859-1"?>
<!-- Generator: Adobe Illustrator 19.0.0, SVG Export Plug-In . SVG Version: 6.00 Build 0)  -->
<svg xmlns="http://www.w3.org/2000/svg" xmlns:xlink="http://www.w3.org/1999/xlink" version="1.1" id="Capa_1" x="0px" y="0px" viewBox="0 0 384 384" style="enable-background:new 0 0 384 384;" xml:space="preserve">
<circle style="fill:#EA8953;" cx="192" cy="192" r="192"/>
<path style="opacity:0.1;enable-background:new    ;" d="M382.719,213.914L276.368,107.563l-0.004,0.004  C268.96,94.207,254.738,85.16,238.4,85.16c-8.64,0-16.64,2.56-23.4,6.88C206.08,85.72,195.16,82,183.4,82  c-12.72,0-24.4,4.36-33.72,11.64c-0.36-0.04-0.72-0.08-1.08-0.08c-24,0-43.44,19.44-43.44,43.44c0,1.64,0.12,3.28,0.28,4.88  C91.52,149.12,82,163.64,82,180.4c0,10.638,3.832,20.369,10.171,27.919l-0.004,0.004l0.077,0.078  c1.591,1.886,3.338,3.633,5.224,5.223l69.732,69.732V302l75.254,75.254C317.181,356.948,373.765,292.676,382.719,213.914z"/>
<path style="fill:#FFFFFF;" d="M279.534,142.389c1.457-4.341,2.28-8.973,2.28-13.805c0-23.98-19.439-43.418-43.418-43.418  c-8.618,0-16.628,2.542-23.382,6.872C206.066,85.734,195.18,82,183.402,82c-12.73,0-24.418,4.367-33.738,11.629  c-0.363-0.009-0.717-0.054-1.082-0.054c-23.979,0-43.418,19.438-43.418,43.418c0,1.654,0.112,3.281,0.293,4.886  C91.53,149.11,82,163.635,82,180.411c0,23.979,19.439,43.418,43.418,43.418h133.164c23.979,0,43.418-19.439,43.418-43.418  C302,164.033,292.924,149.784,279.534,142.389z"/>
<g>
	<path style="fill:#EBF0F3;" d="M273.732,152.894l-8.758-4.836l3.18-9.484c1.102-3.281,1.66-6.64,1.66-9.988   c0-17.324-14.094-31.418-31.418-31.418c-5.988,0-11.832,1.719-16.902,4.972l-6.797,4.356l-6.598-4.648   C200.814,96.714,192.275,94,183.404,94c-9.609,0-18.726,3.144-26.363,9.094l-3.367,2.625l-4.266-0.094   c-0.363-0.008-0.726-0.027-0.824-0.051c-9.165,0-17.4,3.969-23.15,10.248c5.216-3.851,11.639-6.158,18.606-6.158   c0.098,0.024,0.461,0.043,0.824,0.051l4.266,0.094l3.367-2.625c7.637-5.949,16.754-9.094,26.364-9.094   c8.871,0,17.41,2.715,24.695,7.848l6.598,4.648l6.797-4.356c5.07-3.254,10.914-4.973,16.902-4.973   c17.324,0,31.418,14.094,31.418,31.418c0,3.348-0.559,6.707-1.66,9.988l-3.18,9.484l8.758,4.836   c10.035,5.543,16.27,16.086,16.27,27.516c0,8.16-3.154,15.58-8.272,21.171c7.756-5.726,12.816-14.902,12.816-25.261   C290.002,168.98,283.767,158.437,273.732,152.894z"/>
	<path style="fill:#EBF0F3;" d="M106.442,156.617l7.312-3.797l-0.184-1.636l-2.585,1.342c-3.293,1.71-6.138,3.984-8.568,6.601   C103.688,158.206,105.02,157.355,106.442,156.617z"/>
</g>
<polygon style="fill:#44C4A1;" points="192,176.757 238.266,223.023 216.815,223.023 216.815,302 167.185,302 167.185,223.023   145.734,223.023 "/>
<g>
</g>
<g>
</g>
<g>
</g>
<g>
</g>
<g>
</g>
<g>
</g>
<g>
</g>
<g>
</g>
<g>
</g>
<g>
</g>
<g>
</g>
<g>
</g>
<g>
</g>
<g>
</g>
<g>
</g>
</svg>
