<?xml version="1.0" encoding="iso-8859-1"?>
<!-- Generator: Adobe Illustrator 19.0.0, SVG Export Plug-In . SVG Version: 6.00 Build 0)  -->
<svg xmlns="http://www.w3.org/2000/svg" xmlns:xlink="http://www.w3.org/1999/xlink" version="1.1" id="Capa_1" x="0px" y="0px" viewBox="0 0 384 384" style="enable-background:new 0 0 384 384;" xml:space="preserve">
<circle style="fill:#EFC84A;" cx="192" cy="192" r="192"/>
<path style="opacity:0.1;enable-background:new    ;" d="M384,192c0-9.089-0.676-18.015-1.898-26.767L300.48,83.611  c-1-1-2.36-1.6-3.84-1.6H87.36c-2.96,0-5.36,2.4-5.36,5.32v209.32c0,1.4,0.56,2.68,1.44,3.64l81.813,81.814  C173.999,383.324,182.918,384,192,384C298.039,384,384,298.038,384,192z"/>
<path style="fill:#3A556A;" d="M296.654,82H87.347C84.394,82,82,84.394,82,87.346v31.274h220V87.346  C302,84.394,299.606,82,296.654,82z"/>
<circle style="fill:#FCD462;" cx="245.52" cy="100.32" r="6.04"/>
<circle style="fill:#44C4A1;" cx="267.08" cy="100.32" r="6.04"/>
<circle style="fill:#E56353;" cx="288.6" cy="100.32" r="6.04"/>
<path style="fill:#EBF0F3;" d="M130.068,114.62h37.273l-2.194-6.488c-0.361-1.066-1.361-1.784-2.487-1.784h-35.486  c0.077,0.177,0.202,0.321,0.265,0.506L130.068,114.62z"/>
<path style="fill:#64798A;" d="M302,118.62H129.081c-1.126,0-2.126-0.718-2.488-1.784l-2.942-8.703  c-0.36-1.066-1.361-1.784-2.487-1.784H93.969c-1.126,0-2.127,0.718-2.487,1.784l-2.942,8.703c-0.362,1.066-1.362,1.784-2.488,1.784  H82v18.323h220V118.62z"/>
<path style="fill:#EBF0F3;" d="M82,296.654c0,2.952,2.394,5.346,5.346,5.346h209.309c2.952,0,5.346-2.394,5.346-5.346V136.943H82  V296.654z"/>
<g>
	<path style="fill:#FFFFFF;" d="M82,288.654c0,2.952,2.394,5.346,5.346,5.346h209.309c2.952,0,5.346-2.394,5.346-5.346V136.943H82   V288.654z"/>
	<path style="fill:#FFFFFF;" d="M121.973,130.182H97.988c-1.324,0-2.398-1.074-2.398-2.4c0-1.326,1.074-2.4,2.398-2.4h23.984   c1.324,0,2.398,1.074,2.398,2.4C124.371,129.108,123.297,130.182,121.973,130.182z"/>
	<path style="fill:#FFFFFF;" d="M162.984,130.182H139c-1.324,0-2.398-1.074-2.398-2.4c0-1.326,1.074-2.4,2.398-2.4h23.984   c1.324,0,2.398,1.074,2.398,2.4C165.383,129.108,164.308,130.182,162.984,130.182z"/>
	<path style="fill:#FFFFFF;" d="M203.992,130.182h-23.98c-1.324,0-2.398-1.074-2.398-2.4c0-1.326,1.074-2.4,2.398-2.4h23.98   c1.324,0,2.399,1.074,2.399,2.4C206.391,129.108,205.316,130.182,203.992,130.182z"/>
	<path style="fill:#FFFFFF;" d="M245.004,130.182H221.02c-1.324,0-2.398-1.074-2.398-2.4c0-1.326,1.074-2.4,2.398-2.4h23.984   c1.324,0,2.398,1.074,2.398,2.4C247.402,129.108,246.328,130.182,245.004,130.182z"/>
	<path style="fill:#FFFFFF;" d="M286.012,130.182h-23.98c-1.324,0-2.398-1.074-2.398-2.4c0-1.326,1.074-2.4,2.398-2.4h23.98   c1.324,0,2.398,1.074,2.398,2.4C288.41,129.108,287.336,130.182,286.012,130.182z"/>
</g>
<circle style="fill:#64798A;" cx="192" cy="174.6" r="27.332"/>
<g>
	<circle style="fill:#EBF0F3;" cx="192" cy="160.6" r="10.22"/>
	<path style="fill:#EBF0F3;" d="M192,197.25c8.063,0,15.13-4.274,19.108-10.661c-3.203-7.382-10.549-12.55-19.108-12.55   c-8.559,0-15.906,5.168-19.108,12.55C176.87,192.976,183.937,197.25,192,197.25z"/>
</g>
<circle style="fill:#44C4A1;" cx="258.24" cy="174.6" r="27.332"/>
<g>
	<circle style="fill:#FFFFFF;" cx="258.24" cy="160.6" r="10.22"/>
	<path style="fill:#FFFFFF;" d="M258.229,197.25c8.063,0,15.13-4.274,19.108-10.661c-3.203-7.382-10.549-12.55-19.108-12.55   c-8.559,0-15.907,5.168-19.108,12.55C243.099,192.976,250.166,197.25,258.229,197.25z"/>
</g>
<circle style="fill:#FCD462;" cx="125.76" cy="174.6" r="27.332"/>
<g>
	<circle style="fill:#DC8744;" cx="125.76" cy="160.6" r="10.22"/>
	<path style="fill:#DC8744;" d="M125.771,197.25c8.063,0,15.13-4.274,19.108-10.661c-3.203-7.382-10.549-12.55-19.108-12.55   c-8.559,0-15.907,5.168-19.108,12.55C110.641,192.976,117.708,197.25,125.771,197.25z"/>
</g>
<rect x="98.44" y="212.6" style="fill:#27A2DB;" width="64" height="68.16"/>
<rect x="98.44" y="273.92" style="fill:#2D93BA;" width="64" height="6.856"/>
<g>
	<rect x="177.6" y="216.48" style="fill:#E1E6E9;" width="107.944" height="4"/>
	<rect x="177.6" y="230.56" style="fill:#E1E6E9;" width="107.944" height="4"/>
	<rect x="177.6" y="244.68" style="fill:#E1E6E9;" width="107.944" height="4"/>
	<rect x="177.6" y="258.76" style="fill:#E1E6E9;" width="107.944" height="4"/>
	<rect x="177.6" y="272.84" style="fill:#E1E6E9;" width="68.16" height="4"/>
</g>
<g>
</g>
<g>
</g>
<g>
</g>
<g>
</g>
<g>
</g>
<g>
</g>
<g>
</g>
<g>
</g>
<g>
</g>
<g>
</g>
<g>
</g>
<g>
</g>
<g>
</g>
<g>
</g>
<g>
</g>
</svg>
