<?xml version="1.0" encoding="iso-8859-1"?>
<!-- Generator: Adobe Illustrator 19.0.0, SVG Export Plug-In . SVG Version: 6.00 Build 0)  -->
<svg xmlns="http://www.w3.org/2000/svg" xmlns:xlink="http://www.w3.org/1999/xlink" version="1.1" id="Capa_1" x="0px" y="0px" viewBox="0 0 384 384" style="enable-background:new 0 0 384 384;" xml:space="preserve">
<circle style="fill:#45B39C;" cx="192" cy="192" r="192"/>
<path style="opacity:0.1;enable-background:new    ;" d="M288.52,133.037c-1.4-1.48-3.4-2.4-5.6-2.4H185.4l-21.16-21.16  c-0.56-0.72-1.2-1.4-1.92-1.92l-0.08-0.08c-1.76-1.32-3.92-2.08-6.24-2.08h-54.92c-4.28,0-7.72,3.44-7.72,7.72v45.96h-3.6  c-4.8,0-8.24,3.84-7.72,8.6l10.52,104c0.24,1.92,1.28,3.64,2.8,4.92l0.12,0.08l106.996,107.028  c89.866-4.835,163.258-71.472,178.543-158.16l-92.139-92.108L288.52,133.037z"/>
<path style="fill:#F6C358;" d="M174.766,125.802l-9.95-15.581c-1.918-3.003-5.234-4.82-8.797-4.82h-54.953  c-4.258,0-7.71,3.452-7.71,7.71v157.777c0,4.258,3.452,7.71,7.71,7.71h181.869c4.258,0,7.71-3.452,7.71-7.71V138.332  c0-4.258-3.452-7.71-7.71-7.71h-99.372C180,130.622,176.683,128.804,174.766,125.802z"/>
<rect x="104.68" y="139.884" style="fill:#EBF0F3;" width="174.62" height="85.208"/>
<rect x="104.68" y="146.332" style="fill:#FFFFFF;" width="174.62" height="85.208"/>
<path style="fill:#FCD462;" d="M294.255,159.065H89.745c-4.789,0-8.229,3.866-7.689,8.594l10.51,104.028  c0.438,3.831,4.241,6.912,8.5,6.912h181.869c4.258,0,8.062-3.081,8.5-6.912l10.51-104.028  C302.484,162.932,299.044,159.065,294.255,159.065z"/>
<circle style="fill:#F6C358;" cx="192" cy="222.12" r="44.632"/>
<circle style="fill:#FFFFFF;" cx="192" cy="218.84" r="44.632"/>
<path style="fill:#E56353;" d="M179.928,238.657c-0.117,0-0.23-0.006-0.348-0.016c-1.09-0.094-2.094-0.631-2.778-1.484l-11.8-14.748  c-1.379-1.727-1.098-4.242,0.625-5.623c1.73-1.381,4.242-1.098,5.625,0.623l9.18,11.474l32.797-28.879  c1.66-1.459,4.184-1.301,5.648,0.359c1.457,1.656,1.297,4.186-0.359,5.645l-35.946,31.65  C181.838,238.306,180.897,238.657,179.928,238.657z"/>
<g>
</g>
<g>
</g>
<g>
</g>
<g>
</g>
<g>
</g>
<g>
</g>
<g>
</g>
<g>
</g>
<g>
</g>
<g>
</g>
<g>
</g>
<g>
</g>
<g>
</g>
<g>
</g>
<g>
</g>
</svg>
