<?xml version="1.0" encoding="iso-8859-1"?>
<!-- Generator: Adobe Illustrator 19.0.0, SVG Export Plug-In . SVG Version: 6.00 Build 0)  -->
<svg xmlns="http://www.w3.org/2000/svg" xmlns:xlink="http://www.w3.org/1999/xlink" version="1.1" id="Capa_1" x="0px" y="0px" viewBox="0 0 384 384" style="enable-background:new 0 0 384 384;" xml:space="preserve">
<circle style="fill:#334D5C;" cx="192" cy="192" r="192"/>
<path style="opacity:0.1;enable-background:new    ;" d="M254.28,81.997H129.72c-5.08,0-9.24,4.12-9.24,9.24v201.52  c0,3,1.44,5.68,3.64,7.36l83.218,83.218c93.781-7.421,168.555-82.183,175.994-175.958L261.8,85.877  C260.16,83.518,257.4,81.997,254.28,81.997z"/>
<path style="fill:#D5D6DB;" d="M254.275,90h-124.55c-5.095,0-9.226,4.13-9.226,9.225v193.549c0,5.095,4.131,9.226,9.226,9.226  h124.55c5.095,0,9.226-4.13,9.226-9.226V99.225C263.501,94.13,259.37,90,254.275,90z"/>
<path style="fill:#EBF0F3;" d="M254.275,82h-124.55c-5.095,0-9.226,4.13-9.226,9.225v193.549c0,5.095,4.131,9.226,9.226,9.226  h124.55c5.095,0,9.226-4.13,9.226-9.226V91.225C263.501,86.13,259.37,82,254.275,82z"/>
<rect x="226.44" y="225.84" style="fill:#E56353;" width="22.844" height="52.48"/>
<rect x="134.712" y="100.56" style="fill:#27A2DB;" width="114.576" height="46.76"/>
<rect x="134.712" y="166.588" style="fill:#FCD462;" width="22.844" height="22.844"/>
<rect x="165.28" y="166.588" style="fill:#44C4A1;" width="22.844" height="22.844"/>
<rect x="195.868" y="166.588" style="fill:#27A2DB;" width="22.844" height="22.844"/>
<rect x="226.44" y="166.588" style="fill:#3A556A;" width="22.844" height="22.844"/>
<rect x="134.712" y="184.08" style="fill:#F6C358;" width="22.844" height="5.36"/>
<rect x="165.28" y="184.08" style="fill:#3EA69B;" width="22.844" height="5.36"/>
<rect x="195.868" y="184.08" style="fill:#2D93BA;" width="22.844" height="5.36"/>
<rect x="226.44" y="184.08" style="fill:#2F4859;" width="22.844" height="5.36"/>
<g>
	<rect x="134.712" y="197.64" style="fill:#64798A;" width="22.844" height="22.844"/>
	<rect x="165.28" y="197.64" style="fill:#64798A;" width="22.844" height="22.844"/>
	<rect x="195.868" y="197.64" style="fill:#64798A;" width="22.844" height="22.844"/>
</g>
<rect x="226.44" y="196.2" style="fill:#44C4A1;" width="22.844" height="22.844"/>
<g>
	<rect x="134.712" y="225.84" style="fill:#64798A;" width="22.844" height="22.844"/>
	<rect x="165.28" y="225.84" style="fill:#64798A;" width="22.844" height="22.844"/>
	<rect x="195.868" y="225.84" style="fill:#64798A;" width="22.844" height="22.844"/>
	<rect x="134.712" y="255.48" style="fill:#64798A;" width="22.844" height="22.844"/>
	<rect x="165.28" y="255.48" style="fill:#64798A;" width="22.844" height="22.844"/>
	<rect x="195.868" y="255.48" style="fill:#64798A;" width="22.844" height="22.844"/>
</g>
<g>
	<rect x="134.712" y="215.128" style="fill:#3A556A;" width="22.844" height="5.36"/>
	<rect x="165.28" y="215.128" style="fill:#3A556A;" width="22.844" height="5.36"/>
	<rect x="195.868" y="215.128" style="fill:#3A556A;" width="22.844" height="5.36"/>
	<rect x="134.712" y="243.32" style="fill:#3A556A;" width="22.844" height="5.36"/>
	<rect x="165.28" y="243.32" style="fill:#3A556A;" width="22.844" height="5.36"/>
	<rect x="195.868" y="243.32" style="fill:#3A556A;" width="22.844" height="5.36"/>
	<rect x="134.712" y="272.96" style="fill:#3A556A;" width="22.844" height="5.36"/>
	<rect x="165.28" y="272.96" style="fill:#3A556A;" width="22.844" height="5.36"/>
	<rect x="195.868" y="272.96" style="fill:#3A556A;" width="22.844" height="5.36"/>
</g>
<rect x="226.44" y="213.72" style="fill:#3EA69B;" width="22.844" height="5.36"/>
<rect x="226.44" y="272.96" style="fill:#D15241;" width="22.844" height="5.36"/>
<g>
</g>
<g>
</g>
<g>
</g>
<g>
</g>
<g>
</g>
<g>
</g>
<g>
</g>
<g>
</g>
<g>
</g>
<g>
</g>
<g>
</g>
<g>
</g>
<g>
</g>
<g>
</g>
<g>
</g>
</svg>
