<?xml version="1.0" encoding="iso-8859-1"?>
<!-- Generator: Adobe Illustrator 19.0.0, SVG Export Plug-In . SVG Version: 6.00 Build 0)  -->
<svg xmlns="http://www.w3.org/2000/svg" xmlns:xlink="http://www.w3.org/1999/xlink" version="1.1" id="Capa_1" x="0px" y="0px" viewBox="0 0 384 384" style="enable-background:new 0 0 384 384;" xml:space="preserve">
<circle style="fill:#334D5C;" cx="192" cy="192" r="192"/>
<path style="opacity:0.1;enable-background:new    ;" d="M384,192c0-9.215-0.69-18.266-1.945-27.135L300.76,83.549  c-0.88-0.96-2.12-1.56-3.48-1.56h-54.72c-2.6,0-4.72,2.12-4.72,4.76v11.8l-15-15c-0.88-0.96-2.12-1.56-3.48-1.56h-54.72  c-2.6,0-4.72,2.12-4.72,4.76v11.76l-14.96-14.92v-0.04c-0.88-0.96-2.16-1.56-3.52-1.56H86.72c-2.6,0-4.72,2.12-4.72,4.76v210.52  c0,1.12,0.4,2.12,1.04,2.92l0.72,0.72l0.32,0.28l80.878,80.877C173.797,383.314,182.817,384,192,384  C298.039,384,384,298.039,384,192z"/>
<path style="fill:#F6C358;" d="M141.443,294H86.736c-2.615,0-4.736-2.12-4.736-4.737v8c0,2.616,2.121,4.737,4.736,4.737h54.707  c2.616,0,4.738-2.12,4.738-4.737v-8C146.181,291.88,144.06,294,141.443,294z"/>
<path style="fill:#2D93BA;" d="M219.354,294h-54.707c-2.616,0-4.736-2.12-4.736-4.737v8c0,2.616,2.12,4.737,4.736,4.737h54.707  c2.616,0,4.736-2.12,4.736-4.737v-8C224.09,291.88,221.97,294,219.354,294z"/>
<path style="fill:#D15241;" d="M297.264,294h-54.707c-2.616,0-4.736-2.12-4.736-4.737v8c0,2.616,2.12,4.737,4.736,4.737h54.707  c2.615,0,4.736-2.12,4.736-4.737v-8C302,291.88,299.879,294,297.264,294z"/>
<path style="fill:#FCD462;" d="M141.443,82H86.736C84.121,82,82,84.121,82,86.737v202.526c0,2.616,2.121,4.737,4.736,4.737h54.707  c2.616,0,4.738-2.12,4.738-4.737V86.737C146.181,84.121,144.06,82,141.443,82z"/>
<path style="fill:#27A2DB;" d="M219.354,82h-54.707c-2.616,0-4.736,2.121-4.736,4.737v202.526c0,2.616,2.12,4.737,4.736,4.737  h54.707c2.616,0,4.736-2.12,4.736-4.737V86.737C224.09,84.121,221.97,82,219.354,82z"/>
<path style="fill:#E56353;" d="M297.264,82h-54.707c-2.616,0-4.736,2.121-4.736,4.737v202.526c0,2.616,2.12,4.737,4.736,4.737  h54.707c2.615,0,4.736-2.12,4.736-4.737V86.737C302,84.121,299.879,82,297.264,82z"/>
<g>
	<path style="fill:#FFFFFF;" d="M131.365,93.986H96.816c-2.511,0-4.546,2.035-4.546,4.545v80.94c0,2.51,2.035,4.545,4.546,4.545   h34.549c2.51,0,4.545-2.035,4.545-4.545v-80.94C135.91,96.021,133.875,93.986,131.365,93.986z"/>
	<path style="fill:#FFFFFF;" d="M209.274,93.986h-34.549c-2.51,0-4.545,2.035-4.545,4.545v80.94c0,2.51,2.035,4.545,4.545,4.545   h34.549c2.51,0,4.545-2.035,4.545-4.545v-80.94C213.819,96.021,211.784,93.986,209.274,93.986z"/>
	<path style="fill:#FFFFFF;" d="M287.184,93.986h-34.549c-2.51,0-4.545,2.035-4.545,4.545v80.94c0,2.51,2.035,4.545,4.545,4.545   h34.549c2.51,0,4.545-2.035,4.545-4.545v-80.94C291.73,96.021,289.694,93.986,287.184,93.986z"/>
</g>
<circle style="fill:#EBF0F3;" cx="114.092" cy="264.92" r="11.132"/>
<circle style="fill:#64798A;" cx="114.092" cy="264.92" r="9.044"/>
<circle style="fill:#EBF0F3;" cx="192" cy="264.92" r="11.132"/>
<circle style="fill:#64798A;" cx="192" cy="264.92" r="9.044"/>
<circle style="fill:#EBF0F3;" cx="269.92" cy="264.92" r="11.132"/>
<circle style="fill:#64798A;" cx="269.92" cy="264.92" r="9.044"/>
<g>
	<rect x="97.12" y="108.76" style="fill:#EBF0F3;" width="33.752" height="4"/>
	<rect x="97.12" y="122.876" style="fill:#EBF0F3;" width="33.752" height="4"/>
	<rect x="97.12" y="137" style="fill:#EBF0F3;" width="33.752" height="4"/>
	<rect x="97.12" y="151.128" style="fill:#EBF0F3;" width="33.752" height="4"/>
	<rect x="97.12" y="165.24" style="fill:#EBF0F3;" width="33.752" height="4"/>
	<rect x="175.124" y="108.76" style="fill:#EBF0F3;" width="33.752" height="4"/>
	<rect x="175.124" y="122.876" style="fill:#EBF0F3;" width="33.752" height="4"/>
	<rect x="175.124" y="137" style="fill:#EBF0F3;" width="33.752" height="4"/>
	<rect x="175.124" y="151.128" style="fill:#EBF0F3;" width="33.752" height="4"/>
	<rect x="175.124" y="165.24" style="fill:#EBF0F3;" width="33.752" height="4"/>
	<rect x="253.04" y="108.76" style="fill:#EBF0F3;" width="33.752" height="4"/>
	<rect x="253.04" y="122.876" style="fill:#EBF0F3;" width="33.752" height="4"/>
	<rect x="253.04" y="137" style="fill:#EBF0F3;" width="33.752" height="4"/>
	<rect x="253.04" y="151.128" style="fill:#EBF0F3;" width="33.752" height="4"/>
	<rect x="253.04" y="165.24" style="fill:#EBF0F3;" width="33.752" height="4"/>
</g>
<g>
</g>
<g>
</g>
<g>
</g>
<g>
</g>
<g>
</g>
<g>
</g>
<g>
</g>
<g>
</g>
<g>
</g>
<g>
</g>
<g>
</g>
<g>
</g>
<g>
</g>
<g>
</g>
<g>
</g>
</svg>
